%TF.GenerationSoftware,KiCad,Pcbnew,(5.99.0-6591-gee6c8b60ac)*%
%TF.CreationDate,2020-11-05T14:00:24+01:00*%
%TF.ProjectId,RFSWITCH01A,52465357-4954-4434-9830-31412e6b6963,rev?*%
%TF.SameCoordinates,Original*%
%TF.FileFunction,Legend,Top*%
%TF.FilePolarity,Positive*%
%FSLAX46Y46*%
G04 Gerber Fmt 4.6, Leading zero omitted, Abs format (unit mm)*
G04 Created by KiCad (PCBNEW (5.99.0-6591-gee6c8b60ac)) date 2020-11-05 14:00:24*
%MOMM*%
%LPD*%
G01*
G04 APERTURE LIST*
%ADD10C,0.281999*%
%ADD11C,0.150000*%
%ADD12C,0.500000*%
%ADD13C,0.028222*%
%ADD14C,0.300000*%
%ADD15C,0.200000*%
%ADD16C,0.120000*%
G04 APERTURE END LIST*
D10*
X15666433Y14118367D02*
X15613731Y14074779D01*
X22011509Y18091968D02*
X21958187Y18056272D01*
D11*
X11774800Y14575000D02*
X9966609Y14575000D01*
D10*
X14294870Y14265563D02*
X14239632Y14327728D01*
X15770809Y15525600D02*
X15718799Y15474220D01*
X22375327Y19759644D02*
X22324491Y19696759D01*
X15072152Y12550963D02*
X15016938Y12552002D01*
X14405678Y12846433D02*
X14350225Y12899569D01*
X20912010Y18162975D02*
X20856478Y18211633D01*
X19366903Y21493729D02*
X19420741Y21521434D01*
D11*
X9966609Y14575000D02*
X10835000Y13940000D01*
D10*
X22221609Y19582444D02*
X22169599Y19531064D01*
X15507387Y13999428D02*
X15453782Y13967715D01*
X13463456Y16221164D02*
X13518965Y16207434D01*
X21850712Y17996853D02*
X21796596Y17973179D01*
X13463456Y14912808D02*
X13518965Y14899078D01*
X15507387Y12691072D02*
X15453782Y12659359D01*
X20967604Y20735481D02*
X20912010Y20779687D01*
X19207038Y21386664D02*
X19260033Y21426319D01*
D11*
X27787600Y18796000D02*
X27787600Y15748000D01*
D10*
X12445527Y13085088D02*
X12496360Y13147972D01*
D11*
X14040000Y26834400D02*
X11880000Y26834400D01*
X14130000Y18554000D02*
X14130000Y16810000D01*
D10*
X12969941Y14847878D02*
X13024026Y14871552D01*
D11*
X27787600Y20828000D02*
X27787600Y24892000D01*
X29842604Y15151100D02*
X30710995Y14516100D01*
D12*
X14240000Y24802400D02*
G75*
G03*
X14240000Y24802400I-100000J0D01*
G01*
D10*
X19914256Y18969652D02*
X19969765Y18955922D01*
X18998398Y19880603D02*
X19050022Y19935843D01*
X13242476Y14925428D02*
X13297527Y14928569D01*
X21522952Y20532875D02*
X21467738Y20533914D01*
X14461210Y15414487D02*
X14405678Y15463145D01*
X13242476Y13617072D02*
X13297527Y13620213D01*
X12651215Y13313668D02*
X12703560Y13361164D01*
X14075020Y13213968D02*
X14130335Y13151804D01*
X15127229Y12554103D02*
X15072152Y12550963D01*
X13132864Y13598347D02*
X13187582Y13609775D01*
X22064531Y18131623D02*
X22011509Y18091968D01*
X15613731Y15383135D02*
X15560709Y15343480D01*
X13132864Y14906703D02*
X13187582Y14918131D01*
D11*
X27787600Y15748000D02*
X29006800Y14528800D01*
X20955000Y28905200D02*
X19253200Y27203400D01*
D10*
X13908511Y13373401D02*
X13964090Y13324742D01*
X20192327Y21474672D02*
X20248012Y21439297D01*
X14239632Y14327728D02*
X14184527Y14394444D01*
X19102015Y19987224D02*
X19154360Y20034720D01*
X22064531Y20748335D02*
X22011509Y20708680D01*
X15291451Y13896719D02*
X15236896Y13881184D01*
X12969941Y16156234D02*
X13024026Y16179908D01*
X12547598Y14515403D02*
X12599222Y14570643D01*
X12862527Y14788459D02*
X12916103Y14820173D01*
X15236896Y15189540D02*
X15182150Y15178112D01*
X13908511Y14681757D02*
X13964090Y14633098D01*
X15453782Y13967715D02*
X15399912Y13940009D01*
X19366903Y18877017D02*
X19420741Y18904722D01*
D11*
X30710995Y14516100D02*
X29842604Y15151100D01*
D10*
X13574544Y16189425D02*
X13630176Y16167111D01*
X13852879Y13417606D02*
X13908511Y13373401D01*
X12916103Y16128529D02*
X12969941Y16156234D01*
X21687696Y20554740D02*
X21632950Y20543312D01*
D11*
X11837200Y16783600D02*
X16460000Y16783600D01*
X16460000Y16783600D02*
X16460000Y12110000D01*
X16460000Y12110000D02*
X11837200Y12110000D01*
X11837200Y12110000D02*
X11837200Y16783600D01*
D10*
X12651215Y14622024D02*
X12703560Y14669520D01*
X19154360Y21343076D02*
X19207038Y21386664D01*
X20303679Y20091162D02*
X20359311Y20046957D01*
X19969765Y20264278D02*
X20025344Y20246269D01*
X20856478Y19519989D02*
X20801025Y19573125D01*
D11*
X26035000Y21488400D02*
X26746200Y20777200D01*
X11415600Y26370000D02*
X11015600Y25970000D01*
D10*
X21467738Y19225558D02*
X21412404Y19230803D01*
X19474826Y20236752D02*
X19529140Y20256368D01*
D11*
X29006800Y14528800D02*
X30784800Y14528800D01*
D10*
X13630176Y14858755D02*
X13685843Y14832112D01*
X22064531Y19439979D02*
X22011509Y19400324D01*
X19420741Y20213078D02*
X19474826Y20236752D01*
X14130335Y13151804D02*
X14185527Y13085088D01*
X14405678Y14154789D02*
X14350225Y14207925D01*
X13242476Y16233784D02*
X13297527Y16236925D01*
X13964090Y15941454D02*
X14019599Y15888318D01*
X12969941Y13539522D02*
X13024026Y13563196D01*
X20856478Y18211633D02*
X20801025Y18264769D01*
D11*
X27800300Y17350595D02*
X28435300Y16482204D01*
D10*
X22169599Y20839420D02*
X22117233Y20791923D01*
X21632950Y19234956D02*
X21578029Y19227659D01*
X12599222Y14570643D02*
X12651215Y14622024D01*
D12*
X25652400Y19812000D02*
G75*
G03*
X25652400Y19812000I-100000J0D01*
G01*
D11*
X27800300Y17350595D02*
X27165300Y16482204D01*
D10*
X19260033Y20117963D02*
X19313327Y20153659D01*
X21796596Y17973179D02*
X21742251Y17953563D01*
X15399912Y13940009D02*
X15345796Y13916335D01*
X22011509Y19400324D02*
X21958187Y19364628D01*
X19748327Y20293769D02*
X19803520Y20292729D01*
X15182150Y13869756D02*
X15127229Y13862459D01*
X22375327Y21068000D02*
X22324491Y21005115D01*
X19102015Y21295580D02*
X19154360Y21343076D01*
X12809233Y16061119D02*
X12862527Y16096815D01*
X19638382Y21591687D02*
X19693276Y21598984D01*
D13*
X20778327Y19615644D02*
X20778327Y19615644D01*
D10*
X20525820Y19887524D02*
X20581135Y19825360D01*
X21742251Y20570275D02*
X21687696Y20554740D01*
X20303679Y21399518D02*
X20359311Y21355313D01*
X19748327Y18985413D02*
X19803520Y18984373D01*
X20248012Y20130941D02*
X20303679Y20091162D01*
X12703560Y14669520D02*
X12756238Y14713108D01*
D14*
X16375200Y25818400D02*
X13784400Y26478800D01*
D10*
X21078905Y20660328D02*
X21023242Y20695703D01*
X21190236Y20602688D02*
X21134576Y20629331D01*
D13*
X20778327Y18307288D02*
X20778327Y18307288D01*
D10*
X13852879Y16034318D02*
X13908511Y15990113D01*
D11*
X30710995Y25996900D02*
X29842604Y25361900D01*
D10*
X12445527Y15701800D02*
X12496360Y15764684D01*
X14572442Y12713791D02*
X14516804Y12753569D01*
X19313327Y20153659D02*
X19366903Y20185373D01*
X21850712Y19305209D02*
X21796596Y19281535D01*
X20690432Y19692928D02*
X20635327Y19759644D01*
X14628105Y13986772D02*
X14572442Y14022147D01*
X15822446Y14272484D02*
X15770809Y14217244D01*
X19050022Y18627487D02*
X19102015Y18678868D01*
X14294870Y12957207D02*
X14239632Y13019372D01*
X13518965Y13590722D02*
X13574544Y13572713D01*
D11*
X27165300Y16482204D02*
X27800300Y17350595D01*
X27774900Y22121005D02*
X28409900Y22989396D01*
X11880000Y26834400D02*
X11415600Y26370000D01*
D10*
X19260033Y21426319D02*
X19313327Y21462015D01*
X14628105Y12678416D02*
X14572442Y12713791D01*
X20912010Y20779687D02*
X20856478Y20828345D01*
X14075020Y14522324D02*
X14130335Y14460160D01*
X19420741Y18904722D02*
X19474826Y18928396D01*
X18896327Y18450288D02*
X18947160Y18513172D01*
X21578029Y20536015D02*
X21522952Y20532875D01*
X20801025Y18264769D02*
X20745670Y18322407D01*
X13797212Y14765741D02*
X13852879Y14725962D01*
X14739436Y15237488D02*
X14683776Y15264131D01*
X13132864Y16215059D02*
X13187582Y16226487D01*
X19529140Y18948012D02*
X19583664Y18963547D01*
X13518965Y14899078D02*
X13574544Y14881069D01*
X15127229Y13862459D02*
X15072152Y13859319D01*
D11*
X11961004Y27444700D02*
X12829395Y26809700D01*
D10*
X13024026Y16179908D02*
X13078340Y16199524D01*
X13964090Y14633098D02*
X14019599Y14579962D01*
X13024026Y14871552D02*
X13078340Y14891168D01*
X13741527Y16109472D02*
X13797212Y16074097D01*
X13078340Y13582812D02*
X13132864Y13598347D01*
X22011509Y20708680D02*
X21958187Y20672984D01*
D11*
X10835000Y13940000D02*
X9966609Y14575000D01*
D10*
X13741527Y14801116D02*
X13797212Y14765741D01*
X14572442Y14022147D02*
X14516804Y14061925D01*
X21412404Y17922447D02*
X21356969Y17931923D01*
X12756238Y13404752D02*
X12809233Y13444407D01*
X18896327Y21067000D02*
X18947160Y21129884D01*
X19969765Y21572634D02*
X20025344Y21554625D01*
X19260033Y18809607D02*
X19313327Y18845303D01*
X15016938Y15168714D02*
X14961604Y15173959D01*
X14961604Y15173959D02*
X14906169Y15183435D01*
X21412404Y19230803D02*
X21356969Y19240279D01*
X15453782Y15276071D02*
X15399912Y15248365D01*
X22117233Y18175211D02*
X22064531Y18131623D01*
X15016938Y13860358D02*
X14961604Y13865603D01*
X20525820Y18579168D02*
X20581135Y18517004D01*
X21245867Y19272018D02*
X21190236Y19294332D01*
X13078340Y14891168D02*
X13132864Y14906703D01*
X18947160Y21129884D02*
X18998398Y21188959D01*
X13908511Y15990113D02*
X13964090Y15941454D01*
X20025344Y20246269D02*
X20080976Y20223955D01*
X13797212Y16074097D02*
X13852879Y16034318D01*
D11*
X29057600Y17475200D02*
X24434800Y17475200D01*
X24434800Y17475200D02*
X24434800Y22148800D01*
X24434800Y22148800D02*
X29057600Y22148800D01*
X29057600Y22148800D02*
X29057600Y17475200D01*
D10*
X20690432Y21001284D02*
X20635327Y21068000D01*
X12496360Y15764684D02*
X12547598Y15823759D01*
X14572442Y15330503D02*
X14516804Y15370281D01*
X14461210Y14106131D02*
X14405678Y14154789D01*
X22324491Y19696759D02*
X22273246Y19637684D01*
X14019599Y15888318D02*
X14075020Y15830680D01*
X12445527Y14393444D02*
X12496360Y14456328D01*
X15613731Y14074779D02*
X15560709Y14035124D01*
X20745670Y19630763D02*
X20690432Y19692928D01*
X12547598Y15823759D02*
X12599222Y15878999D01*
X15236896Y13881184D02*
X15182150Y13869756D01*
X20801025Y20881481D02*
X20745670Y20939119D01*
X12809233Y13444407D02*
X12862527Y13480103D01*
D11*
X18288000Y22148800D02*
X22910800Y22148800D01*
X22910800Y22148800D02*
X22910800Y17475200D01*
X22910800Y17475200D02*
X18288000Y17475200D01*
X18288000Y17475200D02*
X18288000Y22148800D01*
D10*
X13408035Y13613928D02*
X13463456Y13604452D01*
X22221609Y20890800D02*
X22169599Y20839420D01*
X15182150Y15178112D02*
X15127229Y15170815D01*
X15291451Y15205075D02*
X15236896Y15189540D01*
X14683776Y12647419D02*
X14628105Y12678416D01*
X21522952Y19224519D02*
X21467738Y19225558D01*
X15345796Y15224691D02*
X15291451Y15205075D01*
X21632950Y17926600D02*
X21578029Y17919303D01*
X15507387Y15307784D02*
X15453782Y15276071D01*
X21245867Y20580374D02*
X21190236Y20602688D01*
X13187582Y13609775D02*
X13242476Y13617072D01*
X20470399Y18636806D02*
X20525820Y18579168D01*
D13*
X14327527Y14250444D02*
X14327527Y14250444D01*
D10*
X22324491Y18388403D02*
X22273246Y18329328D01*
X20080976Y20223955D02*
X20136643Y20197312D01*
X21467738Y20533914D02*
X21412404Y20539159D01*
X21904582Y18024559D02*
X21850712Y17996853D01*
X15345796Y12607979D02*
X15291451Y12588363D01*
X12862527Y16096815D02*
X12916103Y16128529D01*
X15291451Y12588363D02*
X15236896Y12572828D01*
X14906169Y12566723D02*
X14850650Y12580453D01*
D12*
X14240000Y26834400D02*
G75*
G03*
X14240000Y26834400I-100000J0D01*
G01*
D10*
X13408035Y14922284D02*
X13463456Y14912808D01*
D11*
X28409900Y22989396D02*
X27774900Y22121005D01*
D10*
X15770809Y12908888D02*
X15718799Y12857508D01*
D11*
X16370000Y25830000D02*
X16375200Y25790000D01*
X26035000Y31115000D02*
X26035000Y21488400D01*
D10*
X15399912Y15248365D02*
X15345796Y15224691D01*
X15873691Y14331559D02*
X15822446Y14272484D01*
X21796596Y20589891D02*
X21742251Y20570275D01*
X15873691Y13023203D02*
X15822446Y12964128D01*
X14795067Y15215174D02*
X14739436Y15237488D01*
D11*
X19253200Y27203400D02*
X16408400Y27203400D01*
D10*
X14906169Y15183435D02*
X14850650Y15197165D01*
D11*
X27774900Y22121005D02*
X27139900Y22989396D01*
D10*
X15666433Y12810011D02*
X15613731Y12766423D01*
X20856478Y20828345D02*
X20801025Y20881481D01*
X19529140Y20256368D02*
X19583664Y20271903D01*
X21467738Y17917202D02*
X21412404Y17922447D01*
X21190236Y17985976D02*
X21134576Y18012619D01*
X15718799Y12857508D02*
X15666433Y12810011D01*
X21958187Y20672984D02*
X21904582Y20641271D01*
X13352720Y14927529D02*
X13408035Y14922284D01*
X21904582Y20641271D02*
X21850712Y20613565D01*
X22169599Y19531064D02*
X22117233Y19483567D01*
X19313327Y21462015D02*
X19366903Y21493729D01*
D11*
X27787600Y24892000D02*
X28803600Y25908000D01*
D10*
X13187582Y14918131D02*
X13242476Y14925428D01*
X14739436Y12620776D02*
X14683776Y12647419D01*
X21134576Y20629331D02*
X21078905Y20660328D01*
X13630176Y13550399D02*
X13685843Y13523756D01*
D11*
X9966609Y14575000D02*
X10835000Y15210000D01*
D10*
X21687696Y19246384D02*
X21632950Y19234956D01*
X20525820Y21195880D02*
X20581135Y21133716D01*
D12*
X27887600Y20828000D02*
G75*
G03*
X27887600Y20828000I-100000J0D01*
G01*
D10*
X14461210Y12797775D02*
X14405678Y12846433D01*
X14795067Y13906818D02*
X14739436Y13929132D01*
D14*
X13610000Y12825000D02*
X14870000Y13375000D01*
D10*
X19207038Y18769952D02*
X19260033Y18809607D01*
X20359311Y20046957D02*
X20414890Y19998298D01*
D14*
X20130000Y20775000D02*
X21390000Y21325000D01*
D10*
X20581135Y18517004D02*
X20636327Y18450288D01*
X20414890Y18689942D02*
X20470399Y18636806D01*
X14683776Y15264131D02*
X14628105Y15295128D01*
X22169599Y18222708D02*
X22117233Y18175211D01*
D11*
X28803600Y25908000D02*
X28905200Y26009600D01*
D10*
X15072152Y13859319D02*
X15016938Y13860358D01*
X19914256Y20278008D02*
X19969765Y20264278D01*
D13*
X14327527Y12942088D02*
X14327527Y12942088D01*
D10*
X20192327Y20166316D02*
X20248012Y20130941D01*
X14350225Y15516281D02*
X14294870Y15573919D01*
X13187582Y16226487D02*
X13242476Y16233784D01*
X21301450Y17945653D02*
X21245867Y17963662D01*
X14628105Y15295128D02*
X14572442Y15330503D01*
X20248012Y21439297D02*
X20303679Y21399518D01*
X12651215Y15930380D02*
X12703560Y15977876D01*
X13297527Y13620213D02*
X13352720Y13619173D01*
X19583664Y21580259D02*
X19638382Y21591687D01*
X19748327Y21602125D02*
X19803520Y21601085D01*
X19803520Y20292729D02*
X19858835Y20287484D01*
X12756238Y14713108D02*
X12809233Y14752763D01*
X20581135Y19825360D02*
X20636327Y19758644D01*
X22221609Y18274088D02*
X22169599Y18222708D01*
X13078340Y16199524D02*
X13132864Y16215059D01*
X19914256Y21586364D02*
X19969765Y21572634D01*
X21023242Y18078991D02*
X20967604Y18118769D01*
X19638382Y18974975D02*
X19693276Y18982272D01*
X19474826Y18928396D02*
X19529140Y18948012D01*
X19969765Y18955922D02*
X20025344Y18937913D01*
X15873691Y15639915D02*
X15822446Y15580840D01*
X21190236Y19294332D02*
X21134576Y19320975D01*
X21904582Y19332915D02*
X21850712Y19305209D01*
X15016938Y12552002D02*
X14961604Y12557247D01*
X15236896Y12572828D02*
X15182150Y12561400D01*
X13297527Y14928569D02*
X13352720Y14927529D01*
X12599222Y13262287D02*
X12651215Y13313668D01*
X19638382Y20283331D02*
X19693276Y20290628D01*
X19858835Y20287484D02*
X19914256Y20278008D01*
X15560709Y12726768D02*
X15507387Y12691072D01*
X18998398Y18572247D02*
X19050022Y18627487D01*
X19529140Y21564724D02*
X19583664Y21580259D01*
X20470399Y19945162D02*
X20525820Y19887524D01*
X15822446Y12964128D02*
X15770809Y12908888D01*
D11*
X20600000Y23350000D02*
X20600000Y24210000D01*
D10*
X21742251Y17953563D02*
X21687696Y17938028D01*
X21078905Y18043616D02*
X21023242Y18078991D01*
X21134576Y18012619D02*
X21078905Y18043616D01*
X15127229Y15170815D02*
X15072152Y15167675D01*
D11*
X16730800Y22110000D02*
X14140000Y18554000D01*
D10*
X14906169Y13875079D02*
X14850650Y13888809D01*
X15399912Y12631653D02*
X15345796Y12607979D01*
X13797212Y13457385D02*
X13852879Y13417606D01*
X21356969Y19240279D02*
X21301450Y19254009D01*
X12547598Y13207047D02*
X12599222Y13262287D01*
X13685843Y16140468D02*
X13741527Y16109472D01*
X13352720Y13619173D02*
X13408035Y13613928D01*
X21958187Y18056272D02*
X21904582Y18024559D01*
X22273246Y18329328D02*
X22221609Y18274088D01*
X14075020Y15830680D02*
X14130335Y15768516D01*
X12756238Y16021464D02*
X12809233Y16061119D01*
X14294870Y15573919D02*
X14239632Y15636084D01*
D12*
X27887600Y18796000D02*
G75*
G03*
X27887600Y18796000I-100000J0D01*
G01*
D11*
X12829395Y26809700D02*
X11961004Y26174700D01*
D10*
X19583664Y18963547D02*
X19638382Y18974975D01*
X14850650Y15197165D02*
X14795067Y15215174D01*
X20080976Y18915599D02*
X20136643Y18888956D01*
X19050022Y21244199D02*
X19102015Y21295580D01*
X20025344Y21554625D02*
X20080976Y21532311D01*
D11*
X20600000Y24210000D02*
X18980000Y25830000D01*
D10*
X14019599Y13271606D02*
X14075020Y13213968D01*
X14405678Y15463145D02*
X14350225Y15516281D01*
X20801025Y19573125D02*
X20745670Y19630763D01*
X19050022Y19935843D02*
X19102015Y19987224D01*
X13574544Y14881069D02*
X13630176Y14858755D01*
X14516804Y12753569D02*
X14461210Y12797775D01*
X19693276Y18982272D02*
X19748327Y18985413D01*
X20025344Y18937913D02*
X20080976Y18915599D01*
X13024026Y13563196D02*
X13078340Y13582812D01*
D13*
X14327527Y15558800D02*
X14327527Y15558800D01*
D10*
X20080976Y21532311D02*
X20136643Y21505668D01*
D11*
X14140000Y24802400D02*
X14140000Y22110000D01*
D13*
X20778327Y20924000D02*
X20778327Y20924000D01*
D10*
X20690432Y18384572D02*
X20635327Y18451288D01*
X22375327Y18451288D02*
X22324491Y18388403D01*
D11*
X25552400Y19812000D02*
X22910800Y19812000D01*
D10*
X14350225Y12899569D02*
X14294870Y12957207D01*
X19858835Y21595840D02*
X19914256Y21586364D01*
D11*
X16408400Y27203400D02*
X15341600Y26136600D01*
D10*
X21796596Y19281535D02*
X21742251Y19261919D01*
X14019599Y14579962D02*
X14075020Y14522324D01*
X15770809Y14217244D02*
X15718799Y14165864D01*
X15072152Y15167675D02*
X15016938Y15168714D01*
D14*
X25552400Y19812000D02*
X28143200Y19151600D01*
D10*
X20136643Y18888956D02*
X20192327Y18857960D01*
X19583664Y20271903D02*
X19638382Y20283331D01*
X21023242Y19387347D02*
X20967604Y19427125D01*
D14*
X13610000Y15415000D02*
X14870000Y15965000D01*
D10*
X20303679Y18782806D02*
X20359311Y18738601D01*
X20912010Y19471331D02*
X20856478Y19519989D01*
X12809233Y14752763D02*
X12862527Y14788459D01*
X19420741Y21521434D02*
X19474826Y21545108D01*
X13352720Y16235885D02*
X13408035Y16230640D01*
D11*
X11015600Y25970000D02*
X9870000Y25970000D01*
D10*
X15924527Y15702800D02*
X15873691Y15639915D01*
X12703560Y15977876D02*
X12756238Y16021464D01*
X15560709Y14035124D02*
X15507387Y13999428D01*
X14683776Y13955775D02*
X14628105Y13986772D01*
X14961604Y13865603D02*
X14906169Y13875079D01*
X20967604Y18118769D02*
X20912010Y18162975D01*
X20359311Y21355313D02*
X20414890Y21306654D01*
X15666433Y15426723D02*
X15613731Y15383135D01*
X22273246Y20946040D02*
X22221609Y20890800D01*
X19154360Y18726364D02*
X19207038Y18769952D01*
X19207038Y20078308D02*
X19260033Y20117963D01*
X21356969Y20548635D02*
X21301450Y20562365D01*
X15822446Y15580840D02*
X15770809Y15525600D01*
X21632950Y20543312D02*
X21578029Y20536015D01*
X20581135Y21133716D02*
X20636327Y21067000D01*
D11*
X14140000Y18554000D02*
X11752400Y22110000D01*
D10*
X20745670Y20939119D02*
X20690432Y21001284D01*
X22324491Y21005115D02*
X22273246Y20946040D01*
X21301450Y19254009D02*
X21245867Y19272018D01*
X14350225Y14207925D02*
X14294870Y14265563D01*
X13685843Y13523756D02*
X13741527Y13492760D01*
D11*
X20599400Y22148800D02*
X20599400Y23368000D01*
D10*
X18896327Y19758644D02*
X18947160Y19821528D01*
X13463456Y13604452D02*
X13518965Y13590722D01*
X13518965Y16207434D02*
X13574544Y16189425D01*
X21356969Y17931923D02*
X21301450Y17945653D01*
X18947160Y18513172D02*
X18998398Y18572247D01*
D11*
X29842604Y26631900D02*
X30710995Y25996900D01*
D10*
X21958187Y19364628D02*
X21904582Y19332915D01*
X19803520Y21601085D02*
X19858835Y21595840D01*
X13964090Y13324742D02*
X14019599Y13271606D01*
D11*
X12870000Y28155200D02*
X17492800Y28155200D01*
X17492800Y28155200D02*
X17492800Y23481600D01*
X17492800Y23481600D02*
X12870000Y23481600D01*
X12870000Y23481600D02*
X12870000Y28155200D01*
D10*
X20470399Y21253518D02*
X20525820Y21195880D01*
X19313327Y18845303D02*
X19366903Y18877017D01*
X15453782Y12659359D02*
X15399912Y12631653D01*
X12496360Y13147972D02*
X12547598Y13207047D01*
D11*
X12829395Y26809700D02*
X11961004Y27444700D01*
D10*
X20967604Y19427125D02*
X20912010Y19471331D01*
X13852879Y14725962D02*
X13908511Y14681757D01*
X20414890Y19998298D02*
X20470399Y19945162D01*
D11*
X11803200Y22110000D02*
X16730800Y22110000D01*
D10*
X14130335Y15768516D02*
X14185527Y15701800D01*
X21301450Y20562365D02*
X21245867Y20580374D01*
X13630176Y16167111D02*
X13685843Y16140468D01*
X20414890Y21306654D02*
X20470399Y21253518D01*
X19474826Y21545108D02*
X19529140Y21564724D01*
X21578029Y19227659D02*
X21522952Y19224519D01*
X19858835Y18979128D02*
X19914256Y18969652D01*
D11*
X28905200Y26009600D02*
X30784800Y26009600D01*
D10*
X22117233Y20791923D02*
X22064531Y20748335D01*
X13685843Y14832112D02*
X13741527Y14801116D01*
X20192327Y18857960D02*
X20248012Y18822585D01*
X19693276Y20290628D02*
X19748327Y20293769D01*
X14795067Y12598462D02*
X14739436Y12620776D01*
X15718799Y15474220D02*
X15666433Y15426723D01*
X22273246Y19637684D02*
X22221609Y19582444D01*
X14130335Y14460160D02*
X14185527Y14393444D01*
D11*
X18980000Y25830000D02*
X16370000Y25830000D01*
D10*
X14239632Y15636084D02*
X14184527Y15702800D01*
D11*
X30784800Y26009600D02*
X30784800Y26035000D01*
D10*
X14516804Y15370281D02*
X14461210Y15414487D01*
X15924527Y14394444D02*
X15873691Y14331559D01*
X15560709Y15343480D02*
X15507387Y15307784D01*
X14961604Y12557247D02*
X14906169Y12566723D01*
D11*
X30710995Y25996900D02*
X29842604Y26631900D01*
D10*
X21522952Y17916163D02*
X21467738Y17917202D01*
X13574544Y13572713D02*
X13630176Y13550399D01*
X12862527Y13480103D02*
X12916103Y13511817D01*
X15345796Y13916335D02*
X15291451Y13896719D01*
X12703560Y13361164D02*
X12756238Y13404752D01*
X20136643Y20197312D02*
X20192327Y20166316D01*
X21023242Y20695703D02*
X20967604Y20735481D01*
X12916103Y14820173D02*
X12969941Y14847878D01*
X21134576Y19320975D02*
X21078905Y19351972D01*
X15924527Y13086088D02*
X15873691Y13023203D01*
X20359311Y18738601D02*
X20414890Y18689942D01*
X21078905Y19351972D02*
X21023242Y19387347D01*
X20745670Y18322407D02*
X20690432Y18384572D01*
X13741527Y13492760D02*
X13797212Y13457385D01*
X19102015Y18678868D02*
X19154360Y18726364D01*
X12496360Y14456328D02*
X12547598Y14515403D01*
X15182150Y12561400D02*
X15127229Y12554103D01*
D11*
X30710995Y14516100D02*
X29842604Y13881100D01*
D10*
X21742251Y19261919D02*
X21687696Y19246384D01*
X19803520Y18984373D02*
X19858835Y18979128D01*
X22117233Y19483567D02*
X22064531Y19439979D01*
X18947160Y19821528D02*
X18998398Y19880603D01*
D12*
X16475200Y25818400D02*
G75*
G03*
X16475200Y25818400I-100000J0D01*
G01*
D10*
X19366903Y20185373D02*
X19420741Y20213078D01*
X13408035Y16230640D02*
X13463456Y16221164D01*
X12599222Y15878999D02*
X12651215Y15930380D01*
D11*
X26746200Y20777200D02*
X26746200Y19558000D01*
D10*
X12916103Y13511817D02*
X12969941Y13539522D01*
X20248012Y18822585D02*
X20303679Y18782806D01*
X21687696Y17938028D02*
X21632950Y17926600D01*
X18998398Y21188959D02*
X19050022Y21244199D01*
X14239632Y13019372D02*
X14184527Y13086088D01*
X19154360Y20034720D02*
X19207038Y20078308D01*
X13297527Y16236925D02*
X13352720Y16235885D01*
X15613731Y12766423D02*
X15560709Y12726768D01*
X14850650Y13888809D02*
X14795067Y13906818D01*
X14516804Y14061925D02*
X14461210Y14106131D01*
X21245867Y17963662D02*
X21190236Y17985976D01*
X21850712Y20613565D02*
X21796596Y20589891D01*
X14850650Y12580453D02*
X14795067Y12598462D01*
X21578029Y17919303D02*
X21522952Y17916163D01*
X15718799Y14165864D02*
X15666433Y14118367D01*
X14739436Y13929132D02*
X14683776Y13955775D01*
D11*
X20955000Y31115000D02*
X20955000Y28905200D01*
D10*
X19693276Y21598984D02*
X19748327Y21602125D01*
X20136643Y21505668D02*
X20192327Y21474672D01*
X21412404Y20539159D02*
X21356969Y20548635D01*
D15*
X12360476Y32334904D02*
X13165238Y32334904D01*
X12731904Y31839666D01*
X12917619Y31839666D01*
X13041428Y31777761D01*
X13103333Y31715857D01*
X13165238Y31592047D01*
X13165238Y31282523D01*
X13103333Y31158714D01*
X13041428Y31096809D01*
X12917619Y31034904D01*
X12546190Y31034904D01*
X12422380Y31096809D01*
X12360476Y31158714D01*
X13536666Y32334904D02*
X13970000Y31034904D01*
X14403333Y32334904D01*
X14712857Y32334904D02*
X15517619Y32334904D01*
X15084285Y31839666D01*
X15270000Y31839666D01*
X15393809Y31777761D01*
X15455714Y31715857D01*
X15517619Y31592047D01*
X15517619Y31282523D01*
X15455714Y31158714D01*
X15393809Y31096809D01*
X15270000Y31034904D01*
X14898571Y31034904D01*
X14774761Y31096809D01*
X14712857Y31158714D01*
X27153428Y36709942D02*
X27153428Y37638514D01*
X26596285Y37081371D02*
X28267714Y36709942D01*
X27710571Y37514704D02*
X27710571Y36586133D01*
X28267714Y37143276D02*
X26596285Y37514704D01*
X27896285Y38814704D02*
X27958190Y38752800D01*
X28020095Y38567085D01*
X28020095Y38443276D01*
X27958190Y38257561D01*
X27834380Y38133752D01*
X27710571Y38071847D01*
X27462952Y38009942D01*
X27277238Y38009942D01*
X27029619Y38071847D01*
X26905809Y38133752D01*
X26782000Y38257561D01*
X26720095Y38443276D01*
X26720095Y38567085D01*
X26782000Y38752800D01*
X26843904Y38814704D01*
X26720095Y39186133D02*
X26720095Y39928990D01*
X28020095Y39557561D02*
X26720095Y39557561D01*
X30966495Y31816628D02*
X30966495Y31073771D01*
X30966495Y31445200D02*
X29666495Y31445200D01*
X29852209Y31321390D01*
X29976019Y31197580D01*
X30037923Y31073771D01*
D14*
X10505714Y38564428D02*
X10505714Y40064428D01*
X11077142Y40064428D01*
X11220000Y39993000D01*
X11291428Y39921571D01*
X11362857Y39778714D01*
X11362857Y39564428D01*
X11291428Y39421571D01*
X11220000Y39350142D01*
X11077142Y39278714D01*
X10505714Y39278714D01*
X12291428Y40064428D02*
X12577142Y40064428D01*
X12720000Y39993000D01*
X12862857Y39850142D01*
X12934285Y39564428D01*
X12934285Y39064428D01*
X12862857Y38778714D01*
X12720000Y38635857D01*
X12577142Y38564428D01*
X12291428Y38564428D01*
X12148571Y38635857D01*
X12005714Y38778714D01*
X11934285Y39064428D01*
X11934285Y39564428D01*
X12005714Y39850142D01*
X12148571Y39993000D01*
X12291428Y40064428D01*
X13434285Y40064428D02*
X13791428Y38564428D01*
X14077142Y39635857D01*
X14362857Y38564428D01*
X14720000Y40064428D01*
X15291428Y39350142D02*
X15791428Y39350142D01*
X16005714Y38564428D02*
X15291428Y38564428D01*
X15291428Y40064428D01*
X16005714Y40064428D01*
X17505714Y38564428D02*
X17005714Y39278714D01*
X16648571Y38564428D02*
X16648571Y40064428D01*
X17220000Y40064428D01*
X17362857Y39993000D01*
X17434285Y39921571D01*
X17505714Y39778714D01*
X17505714Y39564428D01*
X17434285Y39421571D01*
X17362857Y39350142D01*
X17220000Y39278714D01*
X16648571Y39278714D01*
D15*
X39907295Y23997695D02*
X39288247Y23564361D01*
X39907295Y23254838D02*
X38607295Y23254838D01*
X38607295Y23750076D01*
X38669200Y23873885D01*
X38731104Y23935790D01*
X38854914Y23997695D01*
X39040628Y23997695D01*
X39164438Y23935790D01*
X39226342Y23873885D01*
X39288247Y23750076D01*
X39288247Y23254838D01*
X38607295Y24431028D02*
X39907295Y25297695D01*
X38607295Y25297695D02*
X39907295Y24431028D01*
X38545390Y26721504D02*
X40216819Y25607219D01*
X38607295Y26969123D02*
X38607295Y27711980D01*
X39907295Y27340552D02*
X38607295Y27340552D01*
X38607295Y28021504D02*
X39907295Y28888171D01*
X38607295Y28888171D02*
X39907295Y28021504D01*
D11*
X18559828Y15867047D02*
X18464590Y15914666D01*
X18416971Y15962285D01*
X18369352Y16057523D01*
X18369352Y16105142D01*
X18416971Y16200380D01*
X18464590Y16248000D01*
X18559828Y16295619D01*
X18750304Y16295619D01*
X18845542Y16248000D01*
X18893161Y16200380D01*
X18940780Y16105142D01*
X18940780Y16057523D01*
X18893161Y15962285D01*
X18845542Y15914666D01*
X18750304Y15867047D01*
X18559828Y15867047D01*
X18464590Y15819428D01*
X18416971Y15771809D01*
X18369352Y15676571D01*
X18369352Y15486095D01*
X18416971Y15390857D01*
X18464590Y15343238D01*
X18559828Y15295619D01*
X18750304Y15295619D01*
X18845542Y15343238D01*
X18893161Y15390857D01*
X18940780Y15486095D01*
X18940780Y15676571D01*
X18893161Y15771809D01*
X18845542Y15819428D01*
X18750304Y15867047D01*
X19797923Y16295619D02*
X19607447Y16295619D01*
X19512209Y16248000D01*
X19464590Y16200380D01*
X19369352Y16057523D01*
X19321733Y15867047D01*
X19321733Y15486095D01*
X19369352Y15390857D01*
X19416971Y15343238D01*
X19512209Y15295619D01*
X19702685Y15295619D01*
X19797923Y15343238D01*
X19845542Y15390857D01*
X19893161Y15486095D01*
X19893161Y15724190D01*
X19845542Y15819428D01*
X19797923Y15867047D01*
X19702685Y15914666D01*
X19512209Y15914666D01*
X19416971Y15867047D01*
X19369352Y15819428D01*
X19321733Y15724190D01*
X20464590Y15867047D02*
X20369352Y15914666D01*
X20321733Y15962285D01*
X20274114Y16057523D01*
X20274114Y16105142D01*
X20321733Y16200380D01*
X20369352Y16248000D01*
X20464590Y16295619D01*
X20655066Y16295619D01*
X20750304Y16248000D01*
X20797923Y16200380D01*
X20845542Y16105142D01*
X20845542Y16057523D01*
X20797923Y15962285D01*
X20750304Y15914666D01*
X20655066Y15867047D01*
X20464590Y15867047D01*
X20369352Y15819428D01*
X20321733Y15771809D01*
X20274114Y15676571D01*
X20274114Y15486095D01*
X20321733Y15390857D01*
X20369352Y15343238D01*
X20464590Y15295619D01*
X20655066Y15295619D01*
X20750304Y15343238D01*
X20797923Y15390857D01*
X20845542Y15486095D01*
X20845542Y15676571D01*
X20797923Y15771809D01*
X20750304Y15819428D01*
X20655066Y15867047D01*
X22036019Y15295619D02*
X22036019Y16295619D01*
X22369352Y15581333D01*
X22702685Y16295619D01*
X22702685Y15295619D01*
X23178876Y15295619D02*
X23178876Y16295619D01*
X23178876Y15819428D02*
X23750304Y15819428D01*
X23750304Y15295619D02*
X23750304Y16295619D01*
X24131257Y15962285D02*
X24655066Y15962285D01*
X24131257Y15295619D01*
X24655066Y15295619D01*
D15*
X21971828Y36608342D02*
X21971828Y37536914D01*
X21414685Y36979771D02*
X23086114Y36608342D01*
X22528971Y37413104D02*
X22528971Y36484533D01*
X23086114Y37041676D02*
X21414685Y37413104D01*
X22714685Y38713104D02*
X22776590Y38651200D01*
X22838495Y38465485D01*
X22838495Y38341676D01*
X22776590Y38155961D01*
X22652780Y38032152D01*
X22528971Y37970247D01*
X22281352Y37908342D01*
X22095638Y37908342D01*
X21848019Y37970247D01*
X21724209Y38032152D01*
X21600400Y38155961D01*
X21538495Y38341676D01*
X21538495Y38465485D01*
X21600400Y38651200D01*
X21662304Y38713104D01*
X21538495Y39084533D02*
X21538495Y39827390D01*
X22838495Y39455961D02*
X21538495Y39455961D01*
X10876019Y1130514D02*
X10828400Y1178133D01*
X10780780Y1273371D01*
X10780780Y1511466D01*
X10828400Y1606704D01*
X10876019Y1654323D01*
X10971257Y1701942D01*
X11066495Y1701942D01*
X11209352Y1654323D01*
X11780780Y1082895D01*
X11780780Y1701942D01*
X10780780Y2320990D02*
X10780780Y2416228D01*
X10828400Y2511466D01*
X10876019Y2559085D01*
X10971257Y2606704D01*
X11161733Y2654323D01*
X11399828Y2654323D01*
X11590304Y2606704D01*
X11685542Y2559085D01*
X11733161Y2511466D01*
X11780780Y2416228D01*
X11780780Y2320990D01*
X11733161Y2225752D01*
X11685542Y2178133D01*
X11590304Y2130514D01*
X11399828Y2082895D01*
X11161733Y2082895D01*
X10971257Y2130514D01*
X10876019Y2178133D01*
X10828400Y2225752D01*
X10780780Y2320990D01*
X10876019Y3035276D02*
X10828400Y3082895D01*
X10780780Y3178133D01*
X10780780Y3416228D01*
X10828400Y3511466D01*
X10876019Y3559085D01*
X10971257Y3606704D01*
X11066495Y3606704D01*
X11209352Y3559085D01*
X11780780Y2987657D01*
X11780780Y3606704D01*
X10780780Y4225752D02*
X10780780Y4320990D01*
X10828400Y4416228D01*
X10876019Y4463847D01*
X10971257Y4511466D01*
X11161733Y4559085D01*
X11399828Y4559085D01*
X11590304Y4511466D01*
X11685542Y4463847D01*
X11733161Y4416228D01*
X11780780Y4320990D01*
X11780780Y4225752D01*
X11733161Y4130514D01*
X11685542Y4082895D01*
X11590304Y4035276D01*
X11399828Y3987657D01*
X11161733Y3987657D01*
X10971257Y4035276D01*
X10876019Y4082895D01*
X10828400Y4130514D01*
X10780780Y4225752D01*
X2162895Y14312133D02*
X1543847Y13878800D01*
X2162895Y13569276D02*
X862895Y13569276D01*
X862895Y14064514D01*
X924800Y14188323D01*
X986704Y14250228D01*
X1110514Y14312133D01*
X1296228Y14312133D01*
X1420038Y14250228D01*
X1481942Y14188323D01*
X1543847Y14064514D01*
X1543847Y13569276D01*
X862895Y14745466D02*
X2162895Y15612133D01*
X862895Y15612133D02*
X2162895Y14745466D01*
D14*
X25015142Y4758428D02*
X25300857Y4758428D01*
X25443714Y4687000D01*
X25586571Y4544142D01*
X25658000Y4258428D01*
X25658000Y3758428D01*
X25586571Y3472714D01*
X25443714Y3329857D01*
X25300857Y3258428D01*
X25015142Y3258428D01*
X24872285Y3329857D01*
X24729428Y3472714D01*
X24658000Y3758428D01*
X24658000Y4258428D01*
X24729428Y4544142D01*
X24872285Y4687000D01*
X25015142Y4758428D01*
X27158000Y3401285D02*
X27086571Y3329857D01*
X26872285Y3258428D01*
X26729428Y3258428D01*
X26515142Y3329857D01*
X26372285Y3472714D01*
X26300857Y3615571D01*
X26229428Y3901285D01*
X26229428Y4115571D01*
X26300857Y4401285D01*
X26372285Y4544142D01*
X26515142Y4687000D01*
X26729428Y4758428D01*
X26872285Y4758428D01*
X27086571Y4687000D01*
X27158000Y4615571D01*
D15*
X913695Y24815923D02*
X913695Y25558780D01*
X2213695Y25187352D02*
X913695Y25187352D01*
X913695Y25868304D02*
X2213695Y26734971D01*
X913695Y26734971D02*
X2213695Y25868304D01*
D14*
X14542285Y8770228D02*
X14042285Y9484514D01*
X13685142Y8770228D02*
X13685142Y10270228D01*
X14256571Y10270228D01*
X14399428Y10198800D01*
X14470857Y10127371D01*
X14542285Y9984514D01*
X14542285Y9770228D01*
X14470857Y9627371D01*
X14399428Y9555942D01*
X14256571Y9484514D01*
X13685142Y9484514D01*
X15685142Y9555942D02*
X15185142Y9555942D01*
X15185142Y8770228D02*
X15185142Y10270228D01*
X15899428Y10270228D01*
X16399428Y8841657D02*
X16613714Y8770228D01*
X16970857Y8770228D01*
X17113714Y8841657D01*
X17185142Y8913085D01*
X17256571Y9055942D01*
X17256571Y9198800D01*
X17185142Y9341657D01*
X17113714Y9413085D01*
X16970857Y9484514D01*
X16685142Y9555942D01*
X16542285Y9627371D01*
X16470857Y9698800D01*
X16399428Y9841657D01*
X16399428Y9984514D01*
X16470857Y10127371D01*
X16542285Y10198800D01*
X16685142Y10270228D01*
X17042285Y10270228D01*
X17256571Y10198800D01*
X17756571Y10270228D02*
X18113714Y8770228D01*
X18399428Y9841657D01*
X18685142Y8770228D01*
X19042285Y10270228D01*
X19613714Y8770228D02*
X19613714Y10270228D01*
X20113714Y10270228D02*
X20970857Y10270228D01*
X20542285Y8770228D02*
X20542285Y10270228D01*
X22328000Y8913085D02*
X22256571Y8841657D01*
X22042285Y8770228D01*
X21899428Y8770228D01*
X21685142Y8841657D01*
X21542285Y8984514D01*
X21470857Y9127371D01*
X21399428Y9413085D01*
X21399428Y9627371D01*
X21470857Y9913085D01*
X21542285Y10055942D01*
X21685142Y10198800D01*
X21899428Y10270228D01*
X22042285Y10270228D01*
X22256571Y10198800D01*
X22328000Y10127371D01*
X22970857Y8770228D02*
X22970857Y10270228D01*
X22970857Y9555942D02*
X23828000Y9555942D01*
X23828000Y8770228D02*
X23828000Y10270228D01*
X24828000Y10270228D02*
X24970857Y10270228D01*
X25113714Y10198800D01*
X25185142Y10127371D01*
X25256571Y9984514D01*
X25327999Y9698800D01*
X25327999Y9341657D01*
X25256571Y9055942D01*
X25185142Y8913085D01*
X25113714Y8841657D01*
X24970857Y8770228D01*
X24828000Y8770228D01*
X24685142Y8841657D01*
X24613714Y8913085D01*
X24542285Y9055942D01*
X24470857Y9341657D01*
X24470857Y9698800D01*
X24542285Y9984514D01*
X24613714Y10127371D01*
X24685142Y10198800D01*
X24828000Y10270228D01*
X26756571Y8770228D02*
X25899428Y8770228D01*
X26328000Y8770228D02*
X26328000Y10270228D01*
X26185142Y10055942D01*
X26042285Y9913085D01*
X25899428Y9841657D01*
X27328000Y9198800D02*
X28042285Y9198800D01*
X27185142Y8770228D02*
X27685142Y10270228D01*
X28185142Y8770228D01*
D15*
X9358380Y1367066D02*
X10072666Y1367066D01*
X10215523Y1319447D01*
X10310761Y1224209D01*
X10358380Y1081352D01*
X10358380Y986114D01*
X10072666Y1795638D02*
X10072666Y2271828D01*
X10358380Y1700400D02*
X9358380Y2033733D01*
X10358380Y2367066D01*
X10263142Y3271828D02*
X10310761Y3224209D01*
X10358380Y3081352D01*
X10358380Y2986114D01*
X10310761Y2843257D01*
X10215523Y2748019D01*
X10120285Y2700400D01*
X9929809Y2652780D01*
X9786952Y2652780D01*
X9596476Y2700400D01*
X9501238Y2748019D01*
X9406000Y2843257D01*
X9358380Y2986114D01*
X9358380Y3081352D01*
X9406000Y3224209D01*
X9453619Y3271828D01*
X10358380Y3700400D02*
X9358380Y3700400D01*
X9834571Y3700400D02*
X9834571Y4271828D01*
X10358380Y4271828D02*
X9358380Y4271828D01*
X9358380Y4938495D02*
X9358380Y5128971D01*
X9406000Y5224209D01*
X9501238Y5319447D01*
X9691714Y5367066D01*
X10025047Y5367066D01*
X10215523Y5319447D01*
X10310761Y5224209D01*
X10358380Y5128971D01*
X10358380Y4938495D01*
X10310761Y4843257D01*
X10215523Y4748019D01*
X10025047Y4700400D01*
X9691714Y4700400D01*
X9501238Y4748019D01*
X9406000Y4843257D01*
X9358380Y4938495D01*
D11*
X18845542Y13981085D02*
X18845542Y13314419D01*
X18607447Y14362038D02*
X18369352Y13647752D01*
X18988400Y13647752D01*
X19274114Y14314419D02*
X19893161Y14314419D01*
X19559828Y13933466D01*
X19702685Y13933466D01*
X19797923Y13885847D01*
X19845542Y13838228D01*
X19893161Y13742990D01*
X19893161Y13504895D01*
X19845542Y13409657D01*
X19797923Y13362038D01*
X19702685Y13314419D01*
X19416971Y13314419D01*
X19321733Y13362038D01*
X19274114Y13409657D01*
X20226495Y14314419D02*
X20845542Y14314419D01*
X20512209Y13933466D01*
X20655066Y13933466D01*
X20750304Y13885847D01*
X20797923Y13838228D01*
X20845542Y13742990D01*
X20845542Y13504895D01*
X20797923Y13409657D01*
X20750304Y13362038D01*
X20655066Y13314419D01*
X20369352Y13314419D01*
X20274114Y13362038D01*
X20226495Y13409657D01*
X22036019Y13314419D02*
X22036019Y14314419D01*
X22369352Y13600133D01*
X22702685Y14314419D01*
X22702685Y13314419D01*
X23178876Y13314419D02*
X23178876Y14314419D01*
X23178876Y13838228D02*
X23750304Y13838228D01*
X23750304Y13314419D02*
X23750304Y14314419D01*
X24131257Y13981085D02*
X24655066Y13981085D01*
X24131257Y13314419D01*
X24655066Y13314419D01*
D15*
X39907295Y12262895D02*
X39288247Y11829561D01*
X39907295Y11520038D02*
X38607295Y11520038D01*
X38607295Y12015276D01*
X38669200Y12139085D01*
X38731104Y12200990D01*
X38854914Y12262895D01*
X39040628Y12262895D01*
X39164438Y12200990D01*
X39226342Y12139085D01*
X39288247Y12015276D01*
X39288247Y11520038D01*
X38607295Y12696228D02*
X39907295Y13562895D01*
X38607295Y13562895D02*
X39907295Y12696228D01*
X38545390Y14986704D02*
X40216819Y13872419D01*
X38607295Y15234323D02*
X38607295Y15977180D01*
X39907295Y15605752D02*
X38607295Y15605752D01*
X38607295Y16286704D02*
X39907295Y17153371D01*
X38607295Y17153371D02*
X39907295Y16286704D01*
X20225485Y37341504D02*
X20287390Y37279600D01*
X20349295Y37093885D01*
X20349295Y36970076D01*
X20287390Y36784361D01*
X20163580Y36660552D01*
X20039771Y36598647D01*
X19792152Y36536742D01*
X19606438Y36536742D01*
X19358819Y36598647D01*
X19235009Y36660552D01*
X19111200Y36784361D01*
X19049295Y36970076D01*
X19049295Y37093885D01*
X19111200Y37279600D01*
X19173104Y37341504D01*
X19049295Y37712933D02*
X19049295Y38455790D01*
X20349295Y38084361D02*
X19049295Y38084361D01*
X16608857Y6823142D02*
X16608857Y8023142D01*
X17008857Y7166000D01*
X17408857Y8023142D01*
X17408857Y6823142D01*
X18551714Y6823142D02*
X17980285Y6823142D01*
X17980285Y8023142D01*
X18894571Y7166000D02*
X19466000Y7166000D01*
X18780285Y6823142D02*
X19180285Y8023142D01*
X19580285Y6823142D01*
X20380285Y7451714D02*
X20551714Y7394571D01*
X20608857Y7337428D01*
X20666000Y7223142D01*
X20666000Y7051714D01*
X20608857Y6937428D01*
X20551714Y6880285D01*
X20437428Y6823142D01*
X19980285Y6823142D01*
X19980285Y8023142D01*
X20380285Y8023142D01*
X20494571Y7966000D01*
X20551714Y7908857D01*
X20608857Y7794571D01*
X20608857Y7680285D01*
X20551714Y7566000D01*
X20494571Y7508857D01*
X20380285Y7451714D01*
X19980285Y7451714D01*
X21180285Y6937428D02*
X21237428Y6880285D01*
X21180285Y6823142D01*
X21123142Y6880285D01*
X21180285Y6937428D01*
X21180285Y6823142D01*
X22437428Y6937428D02*
X22380285Y6880285D01*
X22208857Y6823142D01*
X22094571Y6823142D01*
X21923142Y6880285D01*
X21808857Y6994571D01*
X21751714Y7108857D01*
X21694571Y7337428D01*
X21694571Y7508857D01*
X21751714Y7737428D01*
X21808857Y7851714D01*
X21923142Y7966000D01*
X22094571Y8023142D01*
X22208857Y8023142D01*
X22380285Y7966000D01*
X22437428Y7908857D01*
X22837428Y8023142D02*
X23637428Y8023142D01*
X22837428Y6823142D01*
X23637428Y6823142D01*
X25356285Y37493904D02*
X25418190Y37432000D01*
X25480095Y37246285D01*
X25480095Y37122476D01*
X25418190Y36936761D01*
X25294380Y36812952D01*
X25170571Y36751047D01*
X24922952Y36689142D01*
X24737238Y36689142D01*
X24489619Y36751047D01*
X24365809Y36812952D01*
X24242000Y36936761D01*
X24180095Y37122476D01*
X24180095Y37246285D01*
X24242000Y37432000D01*
X24303904Y37493904D01*
X24180095Y37865333D02*
X24180095Y38608190D01*
X25480095Y38236761D02*
X24180095Y38236761D01*
X30044304Y8772571D02*
X29982400Y8834476D01*
X29920495Y8958285D01*
X29920495Y9267809D01*
X29982400Y9391619D01*
X30044304Y9453523D01*
X30168114Y9515428D01*
X30291923Y9515428D01*
X30477638Y9453523D01*
X31220495Y8710666D01*
X31220495Y9515428D01*
D11*
%TO.C,J8*%
X37004666Y9894819D02*
X37004666Y9180533D01*
X36957047Y9037676D01*
X36861809Y8942438D01*
X36718952Y8894819D01*
X36623714Y8894819D01*
X37623714Y9466247D02*
X37528476Y9513866D01*
X37480857Y9561485D01*
X37433238Y9656723D01*
X37433238Y9704342D01*
X37480857Y9799580D01*
X37528476Y9847200D01*
X37623714Y9894819D01*
X37814190Y9894819D01*
X37909428Y9847200D01*
X37957047Y9799580D01*
X38004666Y9704342D01*
X38004666Y9656723D01*
X37957047Y9561485D01*
X37909428Y9513866D01*
X37814190Y9466247D01*
X37623714Y9466247D01*
X37528476Y9418628D01*
X37480857Y9371009D01*
X37433238Y9275771D01*
X37433238Y9085295D01*
X37480857Y8990057D01*
X37528476Y8942438D01*
X37623714Y8894819D01*
X37814190Y8894819D01*
X37909428Y8942438D01*
X37957047Y8990057D01*
X38004666Y9085295D01*
X38004666Y9275771D01*
X37957047Y9371009D01*
X37909428Y9418628D01*
X37814190Y9466247D01*
%TO.C,J2*%
X2460666Y31942019D02*
X2460666Y31227733D01*
X2413047Y31084876D01*
X2317809Y30989638D01*
X2174952Y30942019D01*
X2079714Y30942019D01*
X2889238Y31846780D02*
X2936857Y31894400D01*
X3032095Y31942019D01*
X3270190Y31942019D01*
X3365428Y31894400D01*
X3413047Y31846780D01*
X3460666Y31751542D01*
X3460666Y31656304D01*
X3413047Y31513447D01*
X2841619Y30942019D01*
X3460666Y30942019D01*
%TO.C,J7*%
X37258666Y31637219D02*
X37258666Y30922933D01*
X37211047Y30780076D01*
X37115809Y30684838D01*
X36972952Y30637219D01*
X36877714Y30637219D01*
X37639619Y31637219D02*
X38306285Y31637219D01*
X37877714Y30637219D01*
%TO.C,J3*%
X2460666Y9539219D02*
X2460666Y8824933D01*
X2413047Y8682076D01*
X2317809Y8586838D01*
X2174952Y8539219D01*
X2079714Y8539219D01*
X2841619Y9539219D02*
X3460666Y9539219D01*
X3127333Y9158266D01*
X3270190Y9158266D01*
X3365428Y9110647D01*
X3413047Y9063028D01*
X3460666Y8967790D01*
X3460666Y8729695D01*
X3413047Y8634457D01*
X3365428Y8586838D01*
X3270190Y8539219D01*
X2984476Y8539219D01*
X2889238Y8586838D01*
X2841619Y8634457D01*
%TO.C,J9*%
X20955000Y36195000D02*
X20955000Y31115000D01*
X20955000Y31115000D02*
X18669000Y31115000D01*
X18669000Y36195000D02*
X20955000Y36195000D01*
%TO.C,J5*%
X26289000Y36195000D02*
X28575000Y36195000D01*
X28575000Y36195000D02*
X28575000Y31115000D01*
X28575000Y31115000D02*
X26289000Y31115000D01*
%TO.C,J4*%
X26035000Y31115000D02*
X23749000Y31115000D01*
X26035000Y36195000D02*
X26035000Y31115000D01*
X23749000Y36195000D02*
X26035000Y36195000D01*
%TO.C,J6*%
X30988000Y7747000D02*
X30988000Y2667000D01*
X30988000Y2667000D02*
X28702000Y2667000D01*
X28702000Y7747000D02*
X30988000Y7747000D01*
D16*
%TO.C,J8*%
X30784800Y13605000D02*
X30784800Y15605000D01*
X37795200Y15605000D02*
X37795200Y13605000D01*
X35290000Y11099800D02*
X33290000Y11099800D01*
X33290000Y18110200D02*
X35290000Y18110200D01*
D11*
%TO.C,J1*%
X10160000Y38100000D02*
X17780000Y38100000D01*
X10160000Y33020000D02*
X10160000Y38100000D01*
X17780000Y38100000D02*
X17780000Y33020000D01*
X17780000Y33020000D02*
X10160000Y33020000D01*
%TO.C,J10*%
X23495000Y31115000D02*
X21209000Y31115000D01*
X21209000Y36195000D02*
X23495000Y36195000D01*
X23495000Y36195000D02*
X23495000Y31115000D01*
D16*
%TO.C,J2*%
X7350000Y22529800D02*
X5350000Y22529800D01*
X5350000Y29540200D02*
X7350000Y29540200D01*
X2844800Y25035000D02*
X2844800Y27035000D01*
X9855200Y27035000D02*
X9855200Y25035000D01*
%TO.C,J7*%
X33290000Y29540200D02*
X35290000Y29540200D01*
X35290000Y22529800D02*
X33290000Y22529800D01*
X37795200Y27035000D02*
X37795200Y25035000D01*
X30784800Y25035000D02*
X30784800Y27035000D01*
%TO.C,J3*%
X9855200Y15605000D02*
X9855200Y13605000D01*
X7350000Y11099800D02*
X5350000Y11099800D01*
X2844800Y13605000D02*
X2844800Y15605000D01*
X5350000Y18110200D02*
X7350000Y18110200D01*
%TD*%
M02*
