M48
; DRILL file {KiCad (5.99.0-6591-gee6c8b60ac)} date 11/05/20 14:00:29
; FORMAT={3:3/ absolute / metric / suppress leading zeros}
; #@! TF.CreationDate,2020-11-05T14:00:29+01:00
; #@! TF.GenerationSoftware,Kicad,Pcbnew,(5.99.0-6591-gee6c8b60ac)
; #@! TF.FileFunction,Plated,1,2,PTH
FMAT,2
METRIC,TZ
T1C0.200
T2C0.400
T3C0.889
T4C1.200
T5C1.700
T6C3.000
%
G90
G05
T1
X2946Y20676
X4775Y26162
X4775Y14732
X4826Y25603
X4826Y14173
X4978Y26772
X4978Y15342
X5080Y25044
X5080Y13614
X5334Y27229
X5334Y15799
X5537Y24689
X5537Y13259
X5944Y27534
X5944Y16104
X6147Y24486
X6147Y13056
X6604Y27584
X6604Y16154
X6756Y24486
X6756Y13056
X7163Y27381
X7163Y15951
X7264Y24740
X7264Y13310
X7620Y26924
X7620Y25146
X7620Y15494
X7620Y13716
X8890Y20269
X9906Y26822
X10211Y15596
X10312Y13462
X10465Y26670
X10770Y24384
X10795Y11481
X10871Y15494
X11024Y26416
X11176Y23978
X11227Y11024
X11430Y23520
X11481Y15138
X11532Y26111
X11633Y17221
X11684Y28346
X11684Y23012
X11684Y21539
X11836Y10566
X11938Y25756
X11938Y22454
X11938Y14630
X12040Y20955
X12040Y20193
X12040Y19431
X12065Y16510
X12090Y18542
X12090Y17831
X12294Y13970
X12344Y25349
X12344Y13360
X12344Y12700
X12497Y16104
X12497Y15113
X12751Y24943
X13157Y24486
X13157Y15392
X13513Y23927
X13513Y16510
X13716Y25756
X13716Y23266
X13716Y14605
X13818Y21031
X13818Y19660
X13868Y20320
X13919Y22454
X13919Y21641
X14427Y17272
X14605Y13716
X14732Y14732
X14884Y9754
X15138Y27229
X15138Y14326
X15189Y17780
X15189Y17018
X15189Y12852
X15189Y11938
X15189Y11024
X15494Y24181
X16256Y28753
X16510Y24689
X16561Y21234
X16561Y19406
X16561Y17120
X16662Y14884
X16764Y13767
X16764Y9144
X17170Y17170
X17221Y21234
X17221Y19406
X17374Y14935
X17475Y13767
X17628Y16612
X17683Y16002
X17729Y15342
X17882Y22911
X17882Y21234
X17932Y19406
X18034Y17120
X18085Y13462
X18136Y26568
X18136Y14884
X18136Y9906
X18186Y12192
X18237Y12802
X18415Y8636
X18644Y17120
X18644Y14021
X18694Y21488
X18694Y19101
X18694Y11938
X18847Y14884
X19050Y23470
X19101Y11582
X19253Y8890
X19456Y24587
X19507Y21895
X19507Y15037
X19558Y16967
X19609Y11227
X19710Y18186
X19964Y21082
X19964Y19761
X20117Y8839
X20168Y10719
X20168Y10096
X20168Y9500
X20218Y15088
X20269Y16916
X20422Y12294
X20574Y19101
X20828Y21539
X20980Y16916
X21031Y15088
X21031Y11328
X21133Y8839
X21234Y28194
X21488Y22860
X21641Y18847
X21641Y16916
X21844Y21234
X21844Y15088
X21946Y12344
X21996Y23825
X22098Y9195
X22149Y11024
X22301Y16916
X22606Y21438
X22606Y19406
X22606Y15088
X22708Y9195
X22809Y29362
X22860Y11024
X22911Y16916
X22911Y11633
X23419Y21234
X23419Y19406
X23419Y9093
X23520Y16916
X24003Y16612
X24028Y19152
X24079Y21234
X24079Y17831
X24181Y9652
X24536Y16408
X24740Y10617
X24790Y11328
X25044Y15850
X25095Y15037
X25095Y14275
X25095Y13564
X25095Y12802
X25095Y12040
X25502Y27991
X25654Y24892
X25654Y24130
X25654Y23368
X25756Y22606
X25756Y18136
X25756Y17323
X25756Y16307
X25756Y15545
X25806Y21844
X25908Y18923
X25959Y21031
X25959Y20371
X26111Y14884
X26213Y16866
X26314Y23742
X26314Y11836
X26365Y25603
X26619Y27229
X26721Y14834
X26873Y25908
X26873Y16866
X26930Y23742
X27178Y14376
X27280Y26314
X27534Y23724
X27584Y16815
X27686Y13970
X27737Y27889
X27737Y13310
X27737Y12598
X27788Y28753
X27788Y26670
X27788Y19660
X27838Y20218
X27838Y11887
X28092Y21336
X28092Y17831
X28092Y16154
X28143Y24079
X28143Y23266
X28194Y22352
X28245Y13716
X28296Y11430
X28321Y29337
X28346Y18644
X28448Y26924
X28448Y24841
X28448Y20625
X28550Y21793
X28829Y15748
X28956Y11532
X29007Y13716
X29058Y25095
X29108Y26924
X29210Y9347
X29337Y29337
X29362Y17272
X29616Y11481
X29667Y20218
X29667Y15494
X29820Y26924
X29820Y25095
X29870Y13716
X30226Y15494
X30531Y13665
X30632Y25095
X30683Y26924
X30785Y15494
X33020Y26924
X33020Y25146
X33020Y15494
X33020Y13716
X33122Y19812
X33376Y27330
X33376Y15900
X33477Y24689
X33477Y13259
X33884Y27584
X33884Y16154
X34036Y24486
X34036Y13056
X34493Y27584
X34493Y16154
X34696Y24536
X34696Y13106
X35103Y27381
X35103Y15951
X35306Y24841
X35306Y13411
X35560Y27026
X35560Y15596
X35662Y25298
X35662Y13868
X35814Y26467
X35814Y15037
X35865Y25908
X35865Y14478
X37541Y20574
T2
X12065Y6985
X12649Y5690
X13462Y3302
X14605Y18415
X15850Y22606
X18542Y3302
X22225Y38735
X24765Y18415
X27305Y38735
T3
X24765Y34925
X24765Y32385
X22225Y34925
X22225Y32385
X19685Y34925
X19685Y32385
X29718Y6477
X29718Y3937
X11430Y36830
X11430Y34290
X13970Y36830
X13970Y34290
X16510Y36830
X16510Y34290
X27305Y34925
X27305Y32385
T4
X34290Y14605
X34290Y26035
X6350Y14605
X6350Y26035
T5
X3810Y28575
X3810Y23495
X8890Y28575
X8890Y23495
X31750Y17145
X31750Y12065
X36830Y17145
X36830Y12065
X31750Y28575
X31750Y23495
X36830Y28575
X36830Y23495
X3810Y17145
X3810Y12065
X8890Y17145
X8890Y12065
T6
X35560Y35560
X35560Y5080
X5080Y35560
X5080Y5080
T0
M30
