%TF.GenerationSoftware,KiCad,Pcbnew,(5.99.0-6591-gee6c8b60ac)*%
%TF.CreationDate,2020-11-05T14:00:24+01:00*%
%TF.ProjectId,RFSWITCH01A,52465357-4954-4434-9830-31412e6b6963,rev?*%
%TF.SameCoordinates,Original*%
%TF.FileFunction,Copper,L2,Bot*%
%TF.FilePolarity,Positive*%
%FSLAX46Y46*%
G04 Gerber Fmt 4.6, Leading zero omitted, Abs format (unit mm)*
G04 Created by KiCad (PCBNEW (5.99.0-6591-gee6c8b60ac)) date 2020-11-05 14:00:24*
%MOMM*%
%LPD*%
G01*
G04 APERTURE LIST*
G04 Aperture macros list*
%AMRoundRect*
0 Rectangle with rounded corners*
0 $1 Rounding radius*
0 $2 $3 $4 $5 $6 $7 $8 $9 X,Y pos of 4 corners*
0 Add a 4 corners polygon primitive as box body*
4,1,4,$2,$3,$4,$5,$6,$7,$8,$9,$2,$3,0*
0 Add four circle primitives for the rounded corners*
1,1,$1+$1,$2,$3,0*
1,1,$1+$1,$4,$5,0*
1,1,$1+$1,$6,$7,0*
1,1,$1+$1,$8,$9,0*
0 Add four rect primitives between the rounded corners*
20,1,$1+$1,$2,$3,$4,$5,0*
20,1,$1+$1,$4,$5,$6,$7,0*
20,1,$1+$1,$6,$7,$8,$9,0*
20,1,$1+$1,$8,$9,$2,$3,0*%
%AMRotRect*
0 Rectangle, with rotation*
0 The origin of the aperture is its center*
0 $1 length*
0 $2 width*
0 $3 Rotation angle, in degrees counterclockwise*
0 Add horizontal line*
21,1,$1,$2,0,0,$3*%
G04 Aperture macros list end*
%ADD10C,0.300000*%
%TA.AperFunction,ComponentPad*%
%ADD11R,1.524000X1.524000*%
%TD*%
%TA.AperFunction,ComponentPad*%
%ADD12C,2.240000*%
%TD*%
%TA.AperFunction,ComponentPad*%
%ADD13C,2.740000*%
%TD*%
%TA.AperFunction,ComponentPad*%
%ADD14C,6.000000*%
%TD*%
%TA.AperFunction,SMDPad,CuDef*%
%ADD15R,1.397000X0.889000*%
%TD*%
%TA.AperFunction,SMDPad,CuDef*%
%ADD16R,2.500000X1.800000*%
%TD*%
%TA.AperFunction,SMDPad,CuDef*%
%ADD17R,0.650000X0.400000*%
%TD*%
%TA.AperFunction,SMDPad,CuDef*%
%ADD18R,1.300000X0.900000*%
%TD*%
%TA.AperFunction,SMDPad,CuDef*%
%ADD19R,1.700000X1.300000*%
%TD*%
%TA.AperFunction,SMDPad,CuDef*%
%ADD20R,0.950000X1.500000*%
%TD*%
%TA.AperFunction,SMDPad,CuDef*%
%ADD21R,0.889000X1.397000*%
%TD*%
%TA.AperFunction,SMDPad,CuDef*%
%ADD22RoundRect,0.218750X0.424264X0.114905X0.114905X0.424264X-0.424264X-0.114905X-0.114905X-0.424264X0*%
%TD*%
%TA.AperFunction,SMDPad,CuDef*%
%ADD23RoundRect,0.218750X-0.218750X-0.381250X0.218750X-0.381250X0.218750X0.381250X-0.218750X0.381250X0*%
%TD*%
%TA.AperFunction,SMDPad,CuDef*%
%ADD24RotRect,0.889000X1.397000X135.000000*%
%TD*%
%TA.AperFunction,SMDPad,CuDef*%
%ADD25R,1.500000X0.600000*%
%TD*%
%TA.AperFunction,SMDPad,CuDef*%
%ADD26RoundRect,0.218750X0.218750X0.381250X-0.218750X0.381250X-0.218750X-0.381250X0.218750X-0.381250X0*%
%TD*%
%TA.AperFunction,ViaPad*%
%ADD27C,0.800000*%
%TD*%
%TA.AperFunction,ViaPad*%
%ADD28C,0.450000*%
%TD*%
%TA.AperFunction,Conductor*%
%ADD29C,0.500000*%
%TD*%
%TA.AperFunction,Conductor*%
%ADD30C,0.400000*%
%TD*%
%TA.AperFunction,Conductor*%
%ADD31C,0.800000*%
%TD*%
%TA.AperFunction,Conductor*%
%ADD32C,0.861000*%
%TD*%
G04 APERTURE END LIST*
D10*
X30523571Y39754428D02*
X29023571Y39754428D01*
X30095000Y39254428D01*
X29023571Y38754428D01*
X30523571Y38754428D01*
X30523571Y37325857D02*
X30523571Y38040142D01*
X29023571Y38040142D01*
X30095000Y36897285D02*
X30095000Y36183000D01*
X30523571Y37040142D02*
X29023571Y36540142D01*
X30523571Y36040142D01*
X29737857Y35040142D02*
X29809285Y34825857D01*
X29880714Y34754428D01*
X30023571Y34683000D01*
X30237857Y34683000D01*
X30380714Y34754428D01*
X30452142Y34825857D01*
X30523571Y34968714D01*
X30523571Y35540142D01*
X29023571Y35540142D01*
X29023571Y35040142D01*
X29095000Y34897285D01*
X29166428Y34825857D01*
X29309285Y34754428D01*
X29452142Y34754428D01*
X29595000Y34825857D01*
X29666428Y34897285D01*
X29737857Y35040142D01*
X29737857Y35540142D01*
X30380714Y34040142D02*
X30452142Y33968714D01*
X30523571Y34040142D01*
X30452142Y34111571D01*
X30380714Y34040142D01*
X30523571Y34040142D01*
X30380714Y32468714D02*
X30452142Y32540142D01*
X30523571Y32754428D01*
X30523571Y32897285D01*
X30452142Y33111571D01*
X30309285Y33254428D01*
X30166428Y33325857D01*
X29880714Y33397285D01*
X29666428Y33397285D01*
X29380714Y33325857D01*
X29237857Y33254428D01*
X29095000Y33111571D01*
X29023571Y32897285D01*
X29023571Y32754428D01*
X29095000Y32540142D01*
X29166428Y32468714D01*
X29023571Y31968714D02*
X29023571Y30968714D01*
X30523571Y31968714D01*
X30523571Y30968714D01*
D11*
%TO.P,J9,1*%
%TO.N,/SW1_CTRL*%
X19685000Y32385000D03*
%TO.P,J9,2*%
X19685000Y34925000D03*
%TD*%
%TO.P,J5,1*%
%TO.N,/SW2_#CTRL*%
X27305000Y32385000D03*
%TO.P,J5,2*%
X27305000Y34925000D03*
%TD*%
%TO.P,J4,1*%
%TO.N,/SW2_CTRL*%
X24765000Y32385000D03*
%TO.P,J4,2*%
X24765000Y34925000D03*
%TD*%
%TO.P,J6,1*%
%TO.N,Net-(J6-Pad1)*%
X29718000Y3937000D03*
%TO.P,J6,2*%
X29718000Y6477000D03*
%TD*%
D12*
%TO.P,J8,1*%
%TO.N,/RX{slash}TX_2*%
X34290000Y14605000D03*
D13*
%TO.P,J8,2*%
%TO.N,GND*%
X36830000Y17145000D03*
X31750000Y12065000D03*
X36830000Y12065000D03*
X31750000Y17145000D03*
%TD*%
D14*
%TO.P,M3,1*%
%TO.N,GND*%
X5080000Y35560000D03*
%TD*%
D11*
%TO.P,J1,1*%
%TO.N,GND*%
X11430000Y34290000D03*
%TO.P,J1,2*%
X11430000Y36830000D03*
%TO.P,J1,3*%
%TO.N,+3V3*%
X13970000Y34290000D03*
%TO.P,J1,4*%
X13970000Y36830000D03*
%TO.P,J1,5*%
%TO.N,GND*%
X16510000Y34290000D03*
%TO.P,J1,6*%
X16510000Y36830000D03*
%TD*%
D14*
%TO.P,M4,1*%
%TO.N,GND*%
X35560000Y5080000D03*
%TD*%
D11*
%TO.P,J10,1*%
%TO.N,/SW1_#CTRL*%
X22225000Y32385000D03*
%TO.P,J10,2*%
X22225000Y34925000D03*
%TD*%
D12*
%TO.P,J2,1*%
%TO.N,/TX*%
X6350000Y26035000D03*
D13*
%TO.P,J2,2*%
%TO.N,GND*%
X3810000Y23495000D03*
X8890000Y23495000D03*
X3810000Y28575000D03*
X8890000Y28575000D03*
%TD*%
D14*
%TO.P,M1,1*%
%TO.N,GND*%
X35560000Y35560000D03*
%TD*%
D12*
%TO.P,J7,1*%
%TO.N,/RX{slash}TX_1*%
X34290000Y26035000D03*
D13*
%TO.P,J7,2*%
%TO.N,GND*%
X36830000Y28575000D03*
X36830000Y23495000D03*
X31750000Y23495000D03*
X31750000Y28575000D03*
%TD*%
D12*
%TO.P,J3,1*%
%TO.N,/RX*%
X6350000Y14605000D03*
D13*
%TO.P,J3,2*%
%TO.N,GND*%
X3810000Y17145000D03*
X3810000Y12065000D03*
X8890000Y17145000D03*
X8890000Y12065000D03*
%TD*%
D14*
%TO.P,M2,1*%
%TO.N,GND*%
X5080000Y5080000D03*
%TD*%
D15*
%TO.P,L5,1,1*%
%TO.N,GND*%
X29059595Y12700000D03*
%TO.P,L5,2,2*%
%TO.N,/RX{slash}TX_2*%
X29059595Y14605000D03*
%TD*%
%TO.P,R5,1*%
%TO.N,/SW1_CTRL*%
X19685000Y36830000D03*
%TO.P,R5,2*%
%TO.N,GND*%
X19685000Y38735000D03*
%TD*%
D16*
%TO.P,D1,1,K*%
%TO.N,+3V3*%
X12338300Y30884327D03*
%TO.P,D1,2,A*%
%TO.N,GND*%
X16338300Y30884327D03*
%TD*%
D17*
%TO.P,U4,1,RF1*%
%TO.N,Net-(C8-Pad2)*%
X13020000Y19670000D03*
%TO.P,U4,2,GND*%
%TO.N,GND*%
X13020000Y20320000D03*
%TO.P,U4,3,RF2*%
%TO.N,/TX*%
X13020000Y20970000D03*
%TO.P,U4,4,CTRL*%
%TO.N,/SW1_CTRL*%
X14920000Y20970000D03*
%TO.P,U4,5,RFC*%
%TO.N,Net-(C9-Pad1)*%
X14920000Y20320000D03*
%TO.P,U4,6,#CTRL*%
%TO.N,/SW1_#CTRL*%
X14920000Y19670000D03*
%TD*%
D15*
%TO.P,C10,1*%
%TO.N,/RF_IN_OUT*%
X22860000Y20320000D03*
%TO.P,C10,2*%
%TO.N,GND*%
X22860000Y18415000D03*
%TD*%
%TO.P,R3,1*%
%TO.N,+3V3*%
X27305000Y38735000D03*
%TO.P,R3,2*%
%TO.N,/SW2_#CTRL*%
X27305000Y36830000D03*
%TD*%
D18*
%TO.P,U3,1*%
%TO.N,Net-(L3-Pad1)*%
X23875000Y15470000D03*
%TA.AperFunction,SMDPad,CuDef*%
%TO.P,U3,2,GND*%
%TO.N,GND*%
G36*
X19925000Y14836500D02*
G01*
X23050001Y14836500D01*
X23050000Y14420000D01*
X24525000Y14419999D01*
X24525000Y13520000D01*
X23050000Y13520001D01*
X23050000Y13103501D01*
X19925000Y13103501D01*
X19925000Y14836500D01*
G37*
%TD.AperFunction*%
%TO.P,U3,3*%
%TO.N,Net-(C5-Pad2)*%
X23875000Y12470000D03*
%TD*%
D15*
%TO.P,C1,1*%
%TO.N,+3V3*%
X10515600Y7023100D03*
%TO.P,C1,2*%
%TO.N,GND*%
X10515600Y8928100D03*
%TD*%
D19*
%TO.P,D3,1,K*%
%TO.N,/SW1_#CTRL*%
X21336000Y29662000D03*
%TO.P,D3,2,A*%
%TO.N,GND*%
X21336000Y26162000D03*
%TD*%
D17*
%TO.P,U1,1,OUT*%
%TO.N,Net-(C2-Pad1)*%
X15555000Y7000000D03*
%TO.P,U1,2,GND*%
%TO.N,GND*%
X15555000Y6350000D03*
%TO.P,U1,3,OC*%
%TO.N,Net-(J6-Pad1)*%
X15555000Y5700000D03*
%TO.P,U1,4,ON*%
%TO.N,/SW1_CTRL*%
X13655000Y5700000D03*
%TO.P,U1,5,IN*%
%TO.N,+3V3*%
X13655000Y7000000D03*
%TD*%
D20*
%TO.P,D4,1,K*%
%TO.N,Net-(D4-Pad1)*%
X23792000Y3937000D03*
%TO.P,D4,2,A*%
%TO.N,+3V3*%
X19642000Y3937000D03*
%TD*%
D15*
%TO.P,C9,1*%
%TO.N,Net-(C9-Pad1)*%
X17145000Y20320000D03*
%TO.P,C9,2*%
%TO.N,GND*%
X17145000Y18415000D03*
%TD*%
D21*
%TO.P,C4,1*%
%TO.N,Net-(C3-Pad1)*%
X25527000Y6731000D03*
%TO.P,C4,2*%
%TO.N,GND*%
X27432000Y6731000D03*
%TD*%
D22*
%TO.P,L2,1,1*%
%TO.N,Net-(C3-Pad1)*%
X25033701Y8847191D03*
%TO.P,L2,2,2*%
%TO.N,Net-(C5-Pad2)*%
X23531099Y10349793D03*
%TD*%
D15*
%TO.P,C2,1*%
%TO.N,Net-(C2-Pad1)*%
X17780000Y6985000D03*
%TO.P,C2,2*%
%TO.N,GND*%
X17780000Y5080000D03*
%TD*%
%TO.P,C6,1*%
%TO.N,Net-(C6-Pad1)*%
X26929992Y22789171D03*
%TO.P,C6,2*%
%TO.N,/RX{slash}TX_1*%
X26929992Y24694171D03*
%TD*%
%TO.P,L4,1,1*%
%TO.N,GND*%
X29046639Y27940000D03*
%TO.P,L4,2,2*%
%TO.N,/RX{slash}TX_1*%
X29046639Y26035000D03*
%TD*%
D23*
%TO.P,L1,1,1*%
%TO.N,Net-(C2-Pad1)*%
X20100000Y6985000D03*
%TO.P,L1,2,2*%
%TO.N,Net-(C3-Pad1)*%
X22225000Y6985000D03*
%TD*%
D15*
%TO.P,R4,1*%
%TO.N,+3V3*%
X22225000Y38735000D03*
%TO.P,R4,2*%
%TO.N,/SW1_#CTRL*%
X22225000Y36830000D03*
%TD*%
D24*
%TO.P,C8,1*%
%TO.N,Net-(C8-Pad1)*%
X14287919Y15988881D03*
%TO.P,C8,2*%
%TO.N,Net-(C8-Pad2)*%
X12940881Y17335919D03*
%TD*%
D25*
%TO.P,FL1,1,GND*%
%TO.N,GND*%
X16890000Y12700000D03*
%TO.P,FL1,2,IN*%
%TO.N,Net-(C5-Pad1)*%
X16890000Y11430000D03*
%TO.P,FL1,3,GND*%
%TO.N,GND*%
X16890000Y10160000D03*
%TO.P,FL1,4,GND*%
X13590000Y10160000D03*
%TO.P,FL1,5,OUT*%
%TO.N,/RX*%
X13590000Y11430000D03*
%TO.P,FL1,6,GND*%
%TO.N,GND*%
X13590000Y12700000D03*
%TD*%
D17*
%TO.P,U2,1,RF1*%
%TO.N,Net-(C6-Pad1)*%
X26985000Y20970000D03*
%TO.P,U2,2,GND*%
%TO.N,GND*%
X26985000Y20320000D03*
%TO.P,U2,3,RF2*%
%TO.N,Net-(C7-Pad1)*%
X26985000Y19670000D03*
%TO.P,U2,4,CTRL*%
%TO.N,/SW2_CTRL*%
X25085000Y19670000D03*
%TO.P,U2,5,RFC*%
%TO.N,/RF_IN_OUT*%
X25085000Y20320000D03*
%TO.P,U2,6,#CTRL*%
%TO.N,/SW2_#CTRL*%
X25085000Y20970000D03*
%TD*%
D21*
%TO.P,C3,1*%
%TO.N,Net-(C3-Pad1)*%
X25527000Y4699000D03*
%TO.P,C3,2*%
%TO.N,GND*%
X27432000Y4699000D03*
%TD*%
D15*
%TO.P,R2,1*%
%TO.N,/SW2_CTRL*%
X24765000Y36830000D03*
%TO.P,R2,2*%
%TO.N,GND*%
X24765000Y38735000D03*
%TD*%
D21*
%TO.P,R6,1*%
%TO.N,Net-(D4-Pad1)*%
X25527000Y2540000D03*
%TO.P,R6,2*%
%TO.N,Net-(J6-Pad1)*%
X27432000Y2540000D03*
%TD*%
%TO.P,L6,1,1*%
%TO.N,Net-(C9-Pad1)*%
X19050000Y20320000D03*
%TO.P,L6,2,2*%
%TO.N,/RF_IN_OUT*%
X20955000Y20320000D03*
%TD*%
D15*
%TO.P,C7,1*%
%TO.N,Net-(C7-Pad1)*%
X26941905Y17793383D03*
%TO.P,C7,2*%
%TO.N,/RX{slash}TX_2*%
X26941905Y15888383D03*
%TD*%
D21*
%TO.P,C5,1*%
%TO.N,Net-(C5-Pad1)*%
X19240500Y10096500D03*
%TO.P,C5,2*%
%TO.N,Net-(C5-Pad2)*%
X21145500Y10096500D03*
%TD*%
D19*
%TO.P,D2,1,K*%
%TO.N,/SW2_#CTRL*%
X24746299Y29678115D03*
%TO.P,D2,2,A*%
%TO.N,GND*%
X24746299Y26178115D03*
%TD*%
D26*
%TO.P,L3,1,1*%
%TO.N,Net-(L3-Pad1)*%
X18745200Y16002000D03*
%TO.P,L3,2,2*%
%TO.N,Net-(C8-Pad1)*%
X16620200Y16002000D03*
%TD*%
D21*
%TO.P,R1,1*%
%TO.N,+3V3*%
X14548799Y3251200D03*
%TO.P,R1,2*%
%TO.N,Net-(J6-Pad1)*%
X16453799Y3251200D03*
%TD*%
D27*
%TO.N,+3V3*%
X22225000Y38735000D03*
X13462000Y3302000D03*
X12065000Y6985000D03*
X27305000Y38735000D03*
X18542000Y3302000D03*
D28*
%TO.N,GND*%
X21996400Y23825200D03*
X7264400Y24739600D03*
X34493200Y16154400D03*
X15189200Y17780000D03*
X25755600Y18135600D03*
X28244800Y13716000D03*
X20167600Y10096500D03*
X15138400Y14325600D03*
X8890000Y20269200D03*
X23418800Y21234400D03*
X13817600Y21031200D03*
X25654000Y24892000D03*
X30683200Y26924000D03*
X16510000Y24688800D03*
X35661600Y25298400D03*
X13157200Y15392400D03*
X25755600Y22606000D03*
X11684000Y23012400D03*
X28448000Y20624800D03*
X13919200Y21640800D03*
X25806400Y21844000D03*
X21945600Y12344400D03*
X11684000Y28346400D03*
X20574000Y19100800D03*
X13919200Y22453600D03*
X29362400Y17272000D03*
X28829000Y15748000D03*
X26873200Y25908000D03*
X35306000Y24841200D03*
X17221200Y21234400D03*
X25755600Y16306800D03*
X6604000Y16154400D03*
X10871200Y15494000D03*
X12090400Y17830800D03*
X28448000Y26924000D03*
X11226800Y11023600D03*
X29057600Y25095200D03*
X20421600Y12293600D03*
X12496800Y16103600D03*
X28346400Y18643600D03*
X15189200Y11023600D03*
X25958800Y21031200D03*
X19456400Y24587200D03*
X20828000Y21539200D03*
X18084800Y13462000D03*
X27736800Y13309600D03*
X21031200Y15087600D03*
X22809200Y29362400D03*
X22860000Y11023600D03*
X12496800Y15113000D03*
X14884400Y9753600D03*
X11938000Y25755600D03*
X25654000Y23368000D03*
X11430000Y23520400D03*
X11684000Y21539200D03*
X30632400Y25095200D03*
X21844000Y15087600D03*
X27787600Y26670000D03*
X33883600Y27584400D03*
X22098000Y9194800D03*
X25095200Y14274800D03*
X16662400Y14884400D03*
X35864800Y14478000D03*
X22148800Y11023600D03*
X18694400Y21488400D03*
X28956000Y11531600D03*
X33477200Y24688800D03*
X35102800Y27381200D03*
X18186400Y12192000D03*
X24028400Y19151600D03*
X26929992Y23741671D03*
X18034000Y17119600D03*
X29337000Y29337000D03*
X17373600Y14935200D03*
X25095200Y15036800D03*
X5080000Y25044400D03*
X24079200Y21234400D03*
X33020000Y26924000D03*
X34696400Y13106400D03*
X12090400Y18542000D03*
X25755600Y17322800D03*
X24739600Y10617200D03*
X22910800Y16916400D03*
X11633200Y17221200D03*
X24079200Y17830800D03*
X29870400Y13716000D03*
X37541200Y20574000D03*
X25958800Y20370800D03*
X26720800Y14833600D03*
X29108400Y26924000D03*
X6604000Y27584400D03*
X28092400Y16154400D03*
X34696400Y24536400D03*
X2946400Y20675600D03*
X7162800Y15951200D03*
X24180800Y9652000D03*
X7620000Y13716000D03*
X13716000Y25755600D03*
X4775200Y26162000D03*
X27838400Y11887200D03*
X6146800Y13055600D03*
X17729200Y15341600D03*
X12344400Y13360400D03*
X26873200Y16865600D03*
X17627600Y16611600D03*
X12293600Y13970000D03*
X21031200Y11328400D03*
X22606000Y15087600D03*
X20218400Y15087600D03*
X11938000Y14630400D03*
X25501600Y27990800D03*
X23418800Y9093200D03*
X33375600Y27330400D03*
X17932400Y19405600D03*
X13817600Y19659600D03*
X33020000Y13716000D03*
X21640800Y16916400D03*
X11023600Y26416000D03*
X21844000Y21234400D03*
X22606000Y21437600D03*
X28092400Y17830800D03*
X6756400Y24485600D03*
X5334000Y27228800D03*
X19507200Y21894800D03*
X15189200Y17018000D03*
X11938000Y22453600D03*
X27736800Y27889200D03*
X21132800Y8839200D03*
X11531600Y26111200D03*
X13716000Y23266400D03*
X11176000Y23977600D03*
X12065000Y16510000D03*
X4826000Y14173200D03*
X22606000Y19405600D03*
X16560800Y17119600D03*
X26212800Y16865600D03*
X19964400Y21082000D03*
X30530800Y13665200D03*
X23520400Y16916400D03*
X28321000Y29337000D03*
X25095200Y12801600D03*
X5943600Y27533600D03*
X20116800Y8839200D03*
X35814000Y15036800D03*
X33020000Y25146000D03*
X18643600Y17119600D03*
X20980400Y16916400D03*
X27787600Y28752800D03*
X18694400Y11938000D03*
X9906000Y26822400D03*
X20167600Y10718800D03*
X33121600Y19812000D03*
X4775200Y14732000D03*
X18237200Y12801600D03*
X5943600Y16103600D03*
X16256000Y28752800D03*
X14732000Y14732000D03*
X27533600Y23723600D03*
X21234400Y28194000D03*
X7620000Y25146000D03*
X12344400Y25349200D03*
X10464800Y26670000D03*
X28092400Y21336000D03*
X35661600Y13868400D03*
X26314400Y11836400D03*
X33883600Y16154400D03*
X18643600Y14020800D03*
X29210000Y9347200D03*
X19710400Y18186400D03*
X29006800Y13716000D03*
X17475200Y13766800D03*
X7620000Y15494000D03*
X13716000Y14605000D03*
X13512800Y23926800D03*
X21488400Y22860000D03*
X17170400Y17170400D03*
X18694400Y19100800D03*
X13868400Y20320000D03*
X11480800Y15138400D03*
X35814000Y26466800D03*
X5537200Y24688800D03*
X33477200Y13258800D03*
X28143200Y23266400D03*
X16764000Y9144000D03*
X17682700Y16002000D03*
X25044400Y15849600D03*
X28194000Y22352000D03*
X20167600Y9499600D03*
X28448000Y24841200D03*
X11836400Y10566400D03*
X29667200Y15494000D03*
X10795000Y11480800D03*
X19964400Y19761200D03*
X13157200Y24485600D03*
X12039600Y20955000D03*
X28295600Y11430000D03*
X22707600Y9194800D03*
X27686000Y13970000D03*
X35560000Y15595600D03*
X35102800Y15951200D03*
X12039600Y19431000D03*
X15494000Y24180800D03*
X30226000Y15494000D03*
X10769600Y24384000D03*
X19558000Y16967200D03*
X29819600Y26924000D03*
X28549600Y21793200D03*
X17221200Y19405600D03*
X29819600Y25095200D03*
X10312400Y13462000D03*
X12344400Y12700000D03*
X17881600Y22910800D03*
X26314400Y23741671D03*
X25654000Y24130000D03*
X18135600Y26568400D03*
X4978400Y26771600D03*
X27736800Y12598400D03*
X7264400Y13309600D03*
X6146800Y24485600D03*
X16560800Y21234400D03*
X14427200Y17272000D03*
X34036000Y13055600D03*
X15189200Y11938000D03*
X20269200Y16916400D03*
X15138400Y27228800D03*
X27584400Y16814800D03*
X27838400Y20218400D03*
X26111200Y14884400D03*
X26619200Y27228800D03*
X6756400Y13055600D03*
X5080000Y13614400D03*
X25095200Y13563600D03*
X10210800Y15595600D03*
X18135600Y14884400D03*
X16560800Y19405600D03*
X15189200Y12852400D03*
X5537200Y13258800D03*
X19100800Y11582400D03*
X7620000Y26924000D03*
X24790400Y11328400D03*
X16764000Y13766800D03*
X19050000Y23469600D03*
X27178000Y14376400D03*
X27787600Y19659600D03*
X12039600Y20193000D03*
X19253200Y8890000D03*
X33020000Y15494000D03*
X4978400Y15341600D03*
X18415000Y8636000D03*
X22301200Y16916400D03*
X35560000Y27025600D03*
X18846800Y14884400D03*
X18135600Y9906000D03*
X23418800Y19405600D03*
X25908000Y18923000D03*
X24003000Y16611600D03*
X29667200Y20218400D03*
X12750800Y24942800D03*
X17881600Y21234400D03*
X27279600Y26314400D03*
X5334000Y15798800D03*
X13512800Y16510000D03*
X25095200Y12039600D03*
X29616400Y11480800D03*
X21640800Y18846800D03*
X34036000Y24485600D03*
X7162800Y27381200D03*
X24536400Y16408400D03*
X19507200Y15036800D03*
X19608800Y11226800D03*
X35306000Y13411200D03*
X30784800Y15494000D03*
X4826000Y25603200D03*
X25755600Y15544800D03*
X33375600Y15900400D03*
X14605000Y13716000D03*
X34493200Y27584400D03*
X26365200Y25603200D03*
X22910800Y11633200D03*
X28143200Y24079200D03*
X35864800Y25908000D03*
D27*
%TO.N,/SW1_CTRL*%
X15849600Y22606000D03*
X12649200Y5689600D03*
%TO.N,/SW1_#CTRL*%
X14605000Y18415000D03*
%TO.N,/SW2_CTRL*%
X24765000Y18415000D03*
%TD*%
D29*
%TO.N,+3V3*%
X19007000Y3302000D02*
X19642000Y3937000D01*
D30*
X13670000Y6985000D02*
X13970000Y6985000D01*
X14082000Y7000000D02*
X14528800Y6553200D01*
D29*
X14548799Y3251200D02*
X13512800Y3251200D01*
X18542000Y3302000D02*
X19007000Y3302000D01*
D30*
X14528800Y6553200D02*
X14528800Y3271199D01*
D31*
X13970000Y36830000D02*
X13970000Y34290000D01*
D30*
X10553700Y6985000D02*
X10515600Y7023100D01*
D29*
X13512800Y3251200D02*
X13462000Y3302000D01*
D30*
X13655000Y7000000D02*
X13670000Y6985000D01*
D31*
X13970000Y34290000D02*
X13970000Y32516027D01*
D30*
X14528800Y3271199D02*
X14548799Y3251200D01*
X12080000Y7000000D02*
X12065000Y6985000D01*
X13655000Y7000000D02*
X12080000Y7000000D01*
X12065000Y6985000D02*
X10553700Y6985000D01*
X13655000Y7000000D02*
X14082000Y7000000D01*
D31*
X13970000Y32516027D02*
X12338300Y30884327D01*
D29*
%TO.N,Net-(C2-Pad1)*%
X20100000Y6985000D02*
X17780000Y6985000D01*
D30*
X15555000Y7000000D02*
X17765000Y7000000D01*
X17765000Y7000000D02*
X17780000Y6985000D01*
D29*
%TO.N,Net-(C3-Pad1)*%
X25033701Y7224299D02*
X25527000Y6731000D01*
X25171400Y8763000D02*
X25087209Y8847191D01*
X25527000Y4699000D02*
X25527000Y6731000D01*
X22225000Y6985000D02*
X25273000Y6985000D01*
X25033701Y8847191D02*
X25033701Y7224299D01*
X25273000Y6985000D02*
X25527000Y6731000D01*
X25087209Y8847191D02*
X25033701Y8847191D01*
D32*
%TO.N,Net-(C5-Pad1)*%
X18199893Y11137107D02*
X19240500Y10096500D01*
X16890000Y11430000D02*
X17492786Y11430000D01*
X17492786Y11429999D02*
G75*
G02*
X18199892Y11137106I3J-999993D01*
G01*
%TO.N,Net-(C5-Pad2)*%
X23875000Y12470000D02*
X23875000Y11107908D01*
X21145500Y10096500D02*
X22946435Y10096500D01*
X23582107Y10400801D02*
X23531099Y10349793D01*
X23512120Y10330814D02*
X23531099Y10349793D01*
X23582107Y10400801D02*
G75*
G03*
X23875000Y11107908I-707106J707106D01*
G01*
X23512120Y10330814D02*
G75*
G02*
X22946435Y10096500I-565685J565686D01*
G01*
%TO.N,Net-(C6-Pad1)*%
X26924000Y22783179D02*
X26924000Y21336000D01*
X26929992Y22789171D02*
X26924000Y22783179D01*
%TO.N,Net-(C7-Pad1)*%
X26924000Y17811288D02*
X26924000Y19304000D01*
X26941905Y17793383D02*
X26924000Y17811288D01*
%TO.N,Net-(C8-Pad1)*%
X14287919Y15988881D02*
X16607081Y15988881D01*
X16607081Y15988881D02*
X16620200Y16002000D01*
%TO.N,/RX*%
X11430000Y13352586D02*
X11430000Y12606214D01*
X11722893Y11899107D02*
X11899107Y11722893D01*
X10884693Y14312107D02*
X11137107Y14059693D01*
X12606214Y11430000D02*
X13590000Y11430000D01*
X6350000Y14605000D02*
X10177586Y14605000D01*
X11430001Y12606214D02*
G75*
G03*
X11722894Y11899108I999993J-3D01*
G01*
X11429999Y13352586D02*
G75*
G03*
X11137106Y14059692I-999993J3D01*
G01*
X11899107Y11722893D02*
G75*
G03*
X12606214Y11430000I707106J707106D01*
G01*
X10177586Y14604999D02*
G75*
G02*
X10884692Y14312106I3J-999993D01*
G01*
%TO.N,/TX*%
X8833346Y26035000D02*
X9171359Y26035000D01*
X12141321Y24307679D02*
X11292680Y25156320D01*
X7899400Y26035000D02*
X8833346Y26035000D01*
X7899400Y26035000D02*
X6350000Y26035000D01*
X11150600Y25298400D02*
X11292680Y25156320D01*
D30*
X13020000Y20970000D02*
X13020000Y21590000D01*
D32*
X13020000Y21590000D02*
X13020000Y21848346D01*
X13020000Y21590000D02*
X13020000Y22186359D01*
X9171359Y26035000D02*
X9171359Y26035000D01*
X13020000Y22186359D02*
G75*
G03*
X12141321Y24307679I-2999998J1D01*
G01*
X9171359Y26034999D02*
G75*
G02*
X11292679Y25156319I3J-2999993D01*
G01*
D29*
%TO.N,/SW1_CTRL*%
X14920000Y21910412D02*
X15615588Y22606000D01*
X19685000Y34925000D02*
X19685000Y32385000D01*
X19685000Y36830000D02*
X19685000Y34925000D01*
X15849600Y22606000D02*
X19685000Y26441400D01*
X19685000Y26441400D02*
X19685000Y26492200D01*
D30*
X12659600Y5700000D02*
X12649200Y5689600D01*
D29*
X15615588Y22606000D02*
X15849600Y22606000D01*
D30*
X13655000Y5700000D02*
X12659600Y5700000D01*
D29*
X19685000Y32385000D02*
X19685000Y26492200D01*
D30*
X14920000Y20970000D02*
X14920000Y21910412D01*
%TO.N,/SW1_#CTRL*%
X14920000Y18730000D02*
X14605000Y18415000D01*
D29*
X22225000Y34925000D02*
X22225000Y32385000D01*
X22225000Y32385000D02*
X22225000Y30551000D01*
X22225000Y30551000D02*
X21336000Y29662000D01*
X22225000Y36830000D02*
X22225000Y34925000D01*
D30*
X14920000Y19670000D02*
X14920000Y18730000D01*
D29*
%TO.N,/SW2_CTRL*%
X24765000Y36830000D02*
X24765000Y34925000D01*
D30*
X25085000Y18735000D02*
X24765000Y18415000D01*
X25085000Y19670000D02*
X25085000Y18735000D01*
D29*
X24765000Y34925000D02*
X24765000Y32385000D01*
%TO.N,/SW2_#CTRL*%
X23317200Y23977600D02*
X25085000Y22209800D01*
X27305000Y32385000D02*
X27305000Y29845000D01*
X24746299Y29678115D02*
X23317200Y28249016D01*
X27138115Y29678115D02*
X24746299Y29678115D01*
X27305000Y34925000D02*
X27305000Y32385000D01*
X23317200Y28249016D02*
X23317200Y23977600D01*
X25085000Y22209800D02*
X25085000Y20970000D01*
X27305000Y36830000D02*
X27305000Y34925000D01*
X27305000Y29845000D02*
X27138115Y29678115D01*
D32*
%TO.N,/RX{slash}TX_1*%
X27977928Y25742107D02*
X26929992Y24694171D01*
X29046639Y26035000D02*
X28685035Y26035000D01*
X34290000Y26035000D02*
X29046639Y26035000D01*
X28685035Y26034999D02*
G75*
G03*
X27977929Y25742106I-3J-999993D01*
G01*
%TO.N,/RX{slash}TX_2*%
X29059595Y14605000D02*
X29053715Y14605000D01*
X27639502Y15190786D02*
X26941905Y15888383D01*
X34290000Y14605000D02*
X29059595Y14605000D01*
X29053715Y14605001D02*
G75*
G02*
X27639503Y15190787I0J1999999D01*
G01*
D30*
%TO.N,Net-(C8-Pad2)*%
X13020000Y19034800D02*
X13020000Y18796000D01*
D32*
X13020000Y17415038D02*
X13020000Y19034800D01*
X12940881Y17335919D02*
X13020000Y17415038D01*
D30*
X13020000Y19670000D02*
X13020000Y19034800D01*
D32*
%TO.N,Net-(L3-Pad1)*%
X23470000Y15875000D02*
X23875000Y15470000D01*
X18745200Y16002000D02*
X22928786Y16002000D01*
X23635893Y15709107D02*
X23875000Y15470000D01*
X23635893Y15709107D02*
G75*
G03*
X22928786Y16002000I-707106J-707106D01*
G01*
D30*
%TO.N,Net-(C9-Pad1)*%
X14920000Y20320000D02*
X15748000Y20320000D01*
D32*
X17145000Y20320000D02*
X19050000Y20320000D01*
X17145000Y20320000D02*
X15748000Y20320000D01*
%TO.N,/RF_IN_OUT*%
X22860000Y20320000D02*
X24130000Y20320000D01*
X20955000Y20320000D02*
X22860000Y20320000D01*
D30*
X25085000Y20320000D02*
X24130000Y20320000D01*
%TO.N,Net-(J6-Pad1)*%
X15555000Y4149999D02*
X16453799Y3251200D01*
D29*
X26283499Y1391499D02*
X18313500Y1391499D01*
X28321000Y2540000D02*
X29718000Y3937000D01*
X29718000Y6477000D02*
X29718000Y3937000D01*
X27432000Y2540000D02*
X28321000Y2540000D01*
X26283499Y1391499D02*
X27432000Y2540000D01*
X29718000Y3937000D02*
X29210000Y3937000D01*
X18313500Y1391499D02*
X16453799Y3251200D01*
D30*
X15555000Y5700000D02*
X15555000Y4149999D01*
D29*
%TO.N,Net-(D4-Pad1)*%
X24130000Y3937000D02*
X25527000Y2540000D01*
X23792000Y3937000D02*
X24130000Y3937000D01*
%TD*%
%TA.AperFunction,Conductor*%
%TO.N,GND*%
G36*
X28299191Y40167093D02*
G01*
X28340000Y40087000D01*
X28340000Y39364152D01*
X28321093Y39305961D01*
X28271593Y39269997D01*
X28210407Y39269997D01*
X28158684Y39309151D01*
X28153876Y39316347D01*
X28148457Y39324457D01*
X28081950Y39368895D01*
X28003500Y39384500D01*
X26606500Y39384500D01*
X26528050Y39368895D01*
X26461543Y39324457D01*
X26456124Y39316347D01*
X26448805Y39305393D01*
X26417105Y39257950D01*
X26401500Y39179500D01*
X26401500Y38290500D01*
X26417105Y38212050D01*
X26461543Y38145543D01*
X26528050Y38101105D01*
X26606500Y38085500D01*
X28003500Y38085500D01*
X28081950Y38101105D01*
X28148457Y38145543D01*
X28158684Y38160849D01*
X28206734Y38198729D01*
X28267872Y38201131D01*
X28318746Y38167139D01*
X28340000Y38105848D01*
X28340000Y37459152D01*
X28321093Y37400961D01*
X28271593Y37364997D01*
X28210407Y37364997D01*
X28158684Y37404151D01*
X28153876Y37411347D01*
X28148457Y37419457D01*
X28081950Y37463895D01*
X28003500Y37479500D01*
X26606500Y37479500D01*
X26528050Y37463895D01*
X26461543Y37419457D01*
X26456124Y37411347D01*
X26439591Y37386603D01*
X26417105Y37352950D01*
X26401500Y37274500D01*
X26401500Y36385500D01*
X26417105Y36307050D01*
X26461543Y36240543D01*
X26528050Y36196105D01*
X26606500Y36180500D01*
X26755500Y36180500D01*
X26813691Y36161593D01*
X26854500Y36081501D01*
X26854501Y35991001D01*
X26835594Y35932810D01*
X26786095Y35896846D01*
X26755501Y35892000D01*
X26543000Y35892000D01*
X26464550Y35876395D01*
X26398043Y35831957D01*
X26353605Y35765450D01*
X26338000Y35687000D01*
X26338000Y34163000D01*
X26353605Y34084550D01*
X26398043Y34018043D01*
X26464550Y33973605D01*
X26543000Y33958000D01*
X26755500Y33958000D01*
X26813691Y33939093D01*
X26854500Y33859000D01*
X26854501Y33451000D01*
X26835594Y33392809D01*
X26786094Y33356845D01*
X26755501Y33352000D01*
X26543000Y33352000D01*
X26464550Y33336395D01*
X26398043Y33291957D01*
X26353605Y33225450D01*
X26338000Y33147000D01*
X26338000Y31623000D01*
X26353605Y31544550D01*
X26398043Y31478043D01*
X26464550Y31433605D01*
X26543000Y31418000D01*
X26755500Y31418000D01*
X26813691Y31399093D01*
X26854500Y31319000D01*
X26854501Y30227615D01*
X26835594Y30169424D01*
X26786094Y30133460D01*
X26755501Y30128615D01*
X25900299Y30128615D01*
X25842108Y30147522D01*
X25801299Y30227615D01*
X25801299Y30328115D01*
X25785694Y30406565D01*
X25741256Y30473072D01*
X25674749Y30517510D01*
X25596299Y30533115D01*
X23896299Y30533115D01*
X23817849Y30517510D01*
X23751342Y30473072D01*
X23706904Y30406565D01*
X23691299Y30328115D01*
X23691299Y29301225D01*
X23662303Y29231221D01*
X23021190Y28590108D01*
X23012476Y28582366D01*
X22990968Y28565411D01*
X22990963Y28565406D01*
X22985155Y28560827D01*
X22980948Y28554740D01*
X22951563Y28512223D01*
X22949757Y28509695D01*
X22914645Y28462158D01*
X22912253Y28455346D01*
X22908148Y28449407D01*
X22905915Y28442346D01*
X22890332Y28393072D01*
X22889348Y28390120D01*
X22873876Y28346062D01*
X22869769Y28334368D01*
X22869532Y28328330D01*
X22869010Y28325653D01*
X22867308Y28320271D01*
X22866700Y28312546D01*
X22866700Y28258220D01*
X22866624Y28254333D01*
X22864451Y28199033D01*
X22866192Y28192466D01*
X22866700Y28183241D01*
X22866701Y24009477D01*
X22866015Y23997841D01*
X22861926Y23963293D01*
X22871339Y23911750D01*
X22872536Y23905195D01*
X22873046Y23902133D01*
X22881837Y23843665D01*
X22884962Y23837157D01*
X22886259Y23830056D01*
X22889669Y23823492D01*
X22913490Y23777632D01*
X22914878Y23774854D01*
X22937260Y23728246D01*
X22937262Y23728243D01*
X22940466Y23721571D01*
X22944568Y23717133D01*
X22946089Y23714876D01*
X22948693Y23709864D01*
X22953726Y23703972D01*
X22992152Y23665546D01*
X22994845Y23662744D01*
X23032403Y23622114D01*
X23038278Y23618701D01*
X23045159Y23612539D01*
X24605504Y22052193D01*
X24634500Y21982189D01*
X24634501Y21372732D01*
X24611540Y21317298D01*
X24615043Y21314957D01*
X24570605Y21248450D01*
X24555000Y21170000D01*
X24555000Y20973804D01*
X24536093Y20915613D01*
X24486593Y20879649D01*
X24408307Y20887050D01*
X24364127Y20911338D01*
X24209712Y20950985D01*
X24209474Y20951000D01*
X23658661Y20951000D01*
X23637223Y20955265D01*
X23636950Y20953895D01*
X23558500Y20969500D01*
X22161500Y20969500D01*
X22083050Y20953895D01*
X22082777Y20955265D01*
X22061339Y20951000D01*
X21699174Y20951000D01*
X21640983Y20969907D01*
X21602076Y21030686D01*
X21590797Y21087388D01*
X21588895Y21096950D01*
X21544457Y21163457D01*
X21477950Y21207895D01*
X21399500Y21223500D01*
X20510500Y21223500D01*
X20432050Y21207895D01*
X20365543Y21163457D01*
X20321105Y21096950D01*
X20305500Y21018500D01*
X20305500Y19621500D01*
X20321105Y19543050D01*
X20365543Y19476543D01*
X20373653Y19471124D01*
X20382461Y19465239D01*
X20432050Y19432105D01*
X20510500Y19416500D01*
X21399500Y19416500D01*
X21477950Y19432105D01*
X21527539Y19465239D01*
X21536347Y19471124D01*
X21544457Y19476543D01*
X21588895Y19543050D01*
X21602076Y19609314D01*
X21631973Y19662698D01*
X21699174Y19689000D01*
X22061339Y19689000D01*
X22082777Y19684735D01*
X22083050Y19686105D01*
X22161500Y19670500D01*
X23558500Y19670500D01*
X23636950Y19686105D01*
X23637223Y19684735D01*
X23658661Y19689000D01*
X24169579Y19689000D01*
X24288167Y19703981D01*
X24419556Y19756002D01*
X24480620Y19759844D01*
X24532280Y19727059D01*
X24555000Y19663954D01*
X24555000Y19470000D01*
X24570605Y19391550D01*
X24615043Y19325043D01*
X24623153Y19319624D01*
X24623154Y19319623D01*
X24640500Y19308033D01*
X24678380Y19259984D01*
X24684500Y19225718D01*
X24684501Y19145590D01*
X24684501Y19095379D01*
X24665594Y19037188D01*
X24612005Y19000358D01*
X24608285Y18999868D01*
X24602287Y18997384D01*
X24602285Y18997383D01*
X24573339Y18985393D01*
X24462250Y18939378D01*
X24336847Y18843153D01*
X24240622Y18717750D01*
X24180132Y18571715D01*
X24159500Y18415000D01*
X24180132Y18258285D01*
X24240622Y18112250D01*
X24336847Y17986847D01*
X24462250Y17890622D01*
X24608285Y17830132D01*
X24765000Y17809500D01*
X24921715Y17830132D01*
X25067750Y17890622D01*
X25193153Y17986847D01*
X25289378Y18112250D01*
X25341417Y18237883D01*
X26038405Y18237883D01*
X26038405Y17348883D01*
X26054010Y17270433D01*
X26098448Y17203926D01*
X26164955Y17159488D01*
X26243405Y17143883D01*
X27640405Y17143883D01*
X27718855Y17159488D01*
X27785362Y17203926D01*
X27829800Y17270433D01*
X27845405Y17348883D01*
X27845405Y18237883D01*
X27829800Y18316333D01*
X27785362Y18382840D01*
X27718855Y18427278D01*
X27714165Y18428211D01*
X30682209Y18428211D01*
X30682212Y18427041D01*
X30685595Y18421537D01*
X31738914Y17368218D01*
X31742920Y17366177D01*
X31766806Y17373938D01*
X32810022Y18417154D01*
X32815655Y18428211D01*
X35762209Y18428211D01*
X35762212Y18427041D01*
X35765595Y18421537D01*
X36818914Y17368218D01*
X36822920Y17366177D01*
X36846806Y17373938D01*
X37890022Y18417154D01*
X37896076Y18429037D01*
X37895460Y18432932D01*
X37894411Y18434302D01*
X37859406Y18465987D01*
X37853483Y18470582D01*
X37647750Y18606495D01*
X37641195Y18610143D01*
X37417282Y18713369D01*
X37410236Y18715989D01*
X37173276Y18784160D01*
X37165949Y18785678D01*
X36921382Y18817224D01*
X36913914Y18817616D01*
X36667390Y18811806D01*
X36659942Y18811063D01*
X36417148Y18768034D01*
X36409882Y18766168D01*
X36176394Y18686909D01*
X36169500Y18683969D01*
X35950690Y18570306D01*
X35944306Y18566347D01*
X35770022Y18439024D01*
X35762209Y18428211D01*
X32815655Y18428211D01*
X32816076Y18429037D01*
X32815460Y18432932D01*
X32814411Y18434302D01*
X32779406Y18465987D01*
X32773483Y18470582D01*
X32567750Y18606495D01*
X32561195Y18610143D01*
X32337282Y18713369D01*
X32330236Y18715989D01*
X32093276Y18784160D01*
X32085949Y18785678D01*
X31841382Y18817224D01*
X31833914Y18817616D01*
X31587390Y18811806D01*
X31579942Y18811063D01*
X31337148Y18768034D01*
X31329882Y18766168D01*
X31096394Y18686909D01*
X31089500Y18683969D01*
X30870690Y18570306D01*
X30864306Y18566347D01*
X30690022Y18439024D01*
X30682209Y18428211D01*
X27714165Y18428211D01*
X27683544Y18434302D01*
X27645177Y18441934D01*
X27645175Y18441934D01*
X27640405Y18442883D01*
X27640559Y18443657D01*
X27588242Y18466538D01*
X27555000Y18540544D01*
X27555000Y19343579D01*
X27540019Y19462167D01*
X27521952Y19507799D01*
X27515000Y19544243D01*
X27515000Y19856296D01*
X27537139Y19913445D01*
X27535398Y19914523D01*
X27589574Y20002021D01*
X27596090Y20018842D01*
X27614158Y20115493D01*
X27615000Y20124583D01*
X27615000Y20154320D01*
X27613610Y20158598D01*
X27591232Y20170000D01*
X27135002Y20170001D01*
X27134996Y20170000D01*
X26370680Y20170001D01*
X26357995Y20165879D01*
X26355000Y20161758D01*
X26355000Y20125723D01*
X26356311Y20114427D01*
X26384610Y19994107D01*
X26393200Y19975806D01*
X26435004Y19920449D01*
X26455000Y19860788D01*
X26455000Y19765517D01*
X26428169Y19697748D01*
X26419968Y19689015D01*
X26409466Y19677831D01*
X26406464Y19672370D01*
X26335663Y19543585D01*
X26335662Y19543581D01*
X26332663Y19538127D01*
X26293016Y19383712D01*
X26293001Y19383474D01*
X26293001Y19380817D01*
X26293000Y18533995D01*
X26274093Y18475804D01*
X26213315Y18436898D01*
X26164955Y18427278D01*
X26098448Y18382840D01*
X26054010Y18316333D01*
X26038405Y18237883D01*
X25341417Y18237883D01*
X25349868Y18258285D01*
X25370500Y18415000D01*
X25370780Y18414963D01*
X25398649Y18482246D01*
X25413056Y18496653D01*
X25424009Y18518149D01*
X25432123Y18531390D01*
X25441724Y18544605D01*
X25446302Y18550906D01*
X25453757Y18573849D01*
X25459700Y18588197D01*
X25467117Y18602755D01*
X25470653Y18609694D01*
X25474427Y18633521D01*
X25478051Y18648618D01*
X25485507Y18671565D01*
X25485507Y18798433D01*
X25485502Y18798448D01*
X25485500Y18798478D01*
X25485500Y19225717D01*
X25504407Y19283908D01*
X25529500Y19308033D01*
X25546846Y19319623D01*
X25546847Y19319624D01*
X25554957Y19325043D01*
X25599395Y19391550D01*
X25615000Y19470000D01*
X25615000Y19870000D01*
X25599395Y19948450D01*
X25593979Y19956556D01*
X25593747Y19957116D01*
X25593747Y20032884D01*
X25593979Y20033444D01*
X25599395Y20041550D01*
X25615000Y20120000D01*
X25615000Y20520000D01*
X25599395Y20598450D01*
X25593979Y20606556D01*
X25593747Y20607116D01*
X25593747Y20682884D01*
X25593979Y20683444D01*
X25599395Y20691550D01*
X25615000Y20770000D01*
X25615000Y21170000D01*
X25599395Y21248450D01*
X25554957Y21314957D01*
X25558461Y21317298D01*
X25535500Y21372731D01*
X25535500Y22177923D01*
X25536186Y22189559D01*
X25536360Y22191032D01*
X25540275Y22224108D01*
X25538946Y22231385D01*
X25538946Y22231388D01*
X25529663Y22282214D01*
X25529152Y22285282D01*
X25521464Y22336419D01*
X25520364Y22343735D01*
X25517239Y22350243D01*
X25515942Y22357345D01*
X25488706Y22409777D01*
X25487317Y22412556D01*
X25479584Y22428659D01*
X25461735Y22465829D01*
X25457631Y22470269D01*
X25456109Y22472528D01*
X25453507Y22477536D01*
X25448474Y22483429D01*
X25410049Y22521854D01*
X25407355Y22524657D01*
X25374822Y22559851D01*
X25369798Y22565286D01*
X25363923Y22568699D01*
X25357042Y22574861D01*
X24698232Y23233671D01*
X26026492Y23233671D01*
X26026492Y22344671D01*
X26042097Y22266221D01*
X26086535Y22199714D01*
X26153042Y22155276D01*
X26162604Y22153374D01*
X26213314Y22143287D01*
X26266698Y22113390D01*
X26293000Y22046189D01*
X26293001Y21632802D01*
X26293001Y21296421D01*
X26307982Y21177833D01*
X26366670Y21029605D01*
X26370329Y21024569D01*
X26436093Y20934052D01*
X26455000Y20875861D01*
X26455000Y20783704D01*
X26432861Y20726555D01*
X26434602Y20725477D01*
X26380426Y20637979D01*
X26373910Y20621158D01*
X26355842Y20524507D01*
X26355000Y20515417D01*
X26355000Y20485680D01*
X26356390Y20481402D01*
X26378768Y20470000D01*
X26834998Y20469999D01*
X26835004Y20470000D01*
X27599320Y20469999D01*
X27612005Y20474121D01*
X27615000Y20478242D01*
X27615000Y20514277D01*
X27613689Y20525573D01*
X27585390Y20645893D01*
X27576800Y20664194D01*
X27534996Y20719551D01*
X27515000Y20779212D01*
X27515000Y21088049D01*
X27518110Y21112669D01*
X27537242Y21187185D01*
X27554985Y21256288D01*
X27555000Y21256526D01*
X27555000Y22043805D01*
X27573907Y22101996D01*
X27634686Y22140903D01*
X27697380Y22153374D01*
X27706942Y22155276D01*
X27773449Y22199714D01*
X27781583Y22211889D01*
X30684850Y22211889D01*
X30685272Y22209222D01*
X30687699Y22206201D01*
X30783963Y22126988D01*
X30790100Y22122675D01*
X31002007Y21996604D01*
X31008716Y21993273D01*
X31237265Y21900702D01*
X31244398Y21898425D01*
X31484321Y21841488D01*
X31491714Y21840318D01*
X31737477Y21820328D01*
X31744984Y21820289D01*
X31990939Y21837703D01*
X31998357Y21838799D01*
X32238854Y21893218D01*
X32246015Y21895421D01*
X32475518Y21985593D01*
X32482257Y21988851D01*
X32695475Y22112698D01*
X32701664Y22116952D01*
X32808121Y22202699D01*
X32814123Y22211889D01*
X35764850Y22211889D01*
X35765272Y22209222D01*
X35767699Y22206201D01*
X35863963Y22126988D01*
X35870100Y22122675D01*
X36082007Y21996604D01*
X36088716Y21993273D01*
X36317265Y21900702D01*
X36324398Y21898425D01*
X36564321Y21841488D01*
X36571714Y21840318D01*
X36817477Y21820328D01*
X36824984Y21820289D01*
X37070939Y21837703D01*
X37078357Y21838799D01*
X37318854Y21893218D01*
X37326015Y21895421D01*
X37555518Y21985593D01*
X37562257Y21988851D01*
X37775475Y22112698D01*
X37781664Y22116952D01*
X37888121Y22202699D01*
X37895415Y22213866D01*
X37895294Y22216287D01*
X37892930Y22219938D01*
X36841086Y23271782D01*
X36837080Y23273823D01*
X36813194Y23266062D01*
X35770904Y22223772D01*
X35764850Y22211889D01*
X32814123Y22211889D01*
X32815415Y22213866D01*
X32815294Y22216287D01*
X32812930Y22219938D01*
X31761086Y23271782D01*
X31757080Y23273823D01*
X31733194Y23266062D01*
X30690904Y22223772D01*
X30684850Y22211889D01*
X27781583Y22211889D01*
X27817887Y22266221D01*
X27833492Y22344671D01*
X27833492Y23233671D01*
X27817887Y23312121D01*
X27773449Y23378628D01*
X27711745Y23419857D01*
X30076967Y23419857D01*
X30077321Y23412360D01*
X30107584Y23167657D01*
X30109067Y23160305D01*
X30175996Y22922989D01*
X30178573Y22915949D01*
X30280628Y22691490D01*
X30284245Y22684910D01*
X30419080Y22478469D01*
X30423636Y22472530D01*
X30456531Y22435804D01*
X30468065Y22429104D01*
X30471851Y22429492D01*
X30473470Y22430602D01*
X31526782Y23483914D01*
X31528823Y23487920D01*
X31524223Y23502080D01*
X31971177Y23502080D01*
X31978938Y23478194D01*
X33022419Y22434713D01*
X33034302Y22428659D01*
X33038333Y22429297D01*
X33039514Y22430196D01*
X33065572Y22458684D01*
X33070209Y22464597D01*
X33207192Y22669607D01*
X33210875Y22676143D01*
X33315280Y22899530D01*
X33317927Y22906535D01*
X33387337Y23143134D01*
X33388898Y23150477D01*
X33421879Y23396016D01*
X33422297Y23401167D01*
X33422835Y23419857D01*
X35156967Y23419857D01*
X35157321Y23412360D01*
X35187584Y23167657D01*
X35189067Y23160305D01*
X35255996Y22922989D01*
X35258573Y22915949D01*
X35360628Y22691490D01*
X35364245Y22684910D01*
X35499080Y22478469D01*
X35503636Y22472530D01*
X35536531Y22435804D01*
X35548065Y22429104D01*
X35551851Y22429492D01*
X35553470Y22430602D01*
X36606782Y23483914D01*
X36608823Y23487920D01*
X36604223Y23502080D01*
X37051177Y23502080D01*
X37058938Y23478194D01*
X38102419Y22434713D01*
X38114302Y22428659D01*
X38118333Y22429297D01*
X38119514Y22430196D01*
X38145572Y22458684D01*
X38150209Y22464597D01*
X38287192Y22669607D01*
X38290875Y22676143D01*
X38395280Y22899530D01*
X38397927Y22906535D01*
X38467337Y23143134D01*
X38468898Y23150477D01*
X38501879Y23396016D01*
X38502297Y23401167D01*
X38504925Y23492402D01*
X38504803Y23497590D01*
X38486013Y23744608D01*
X38484876Y23752032D01*
X38429203Y23992225D01*
X38426958Y23999390D01*
X38335589Y24228406D01*
X38332291Y24235138D01*
X38207333Y24447699D01*
X38203048Y24453865D01*
X38122274Y24553080D01*
X38111066Y24560316D01*
X38108510Y24560176D01*
X38105063Y24557931D01*
X37053218Y23506086D01*
X37051177Y23502080D01*
X36604223Y23502080D01*
X36601062Y23511806D01*
X35556702Y24556166D01*
X35544819Y24562220D01*
X35543529Y24562016D01*
X35538770Y24557984D01*
X35413309Y24388123D01*
X35409319Y24381762D01*
X35294511Y24163550D01*
X35291533Y24156667D01*
X35211056Y23923604D01*
X35209150Y23916341D01*
X35164851Y23673779D01*
X35164068Y23666333D01*
X35156967Y23419857D01*
X33422835Y23419857D01*
X33424925Y23492402D01*
X33424803Y23497590D01*
X33406013Y23744608D01*
X33404876Y23752032D01*
X33349203Y23992225D01*
X33346958Y23999390D01*
X33255589Y24228406D01*
X33252291Y24235138D01*
X33127333Y24447699D01*
X33123048Y24453865D01*
X33042274Y24553080D01*
X33031066Y24560316D01*
X33028510Y24560176D01*
X33025063Y24557931D01*
X31973218Y23506086D01*
X31971177Y23502080D01*
X31524223Y23502080D01*
X31521062Y23511806D01*
X30476702Y24556166D01*
X30464819Y24562220D01*
X30463529Y24562016D01*
X30458770Y24557984D01*
X30333309Y24388123D01*
X30329319Y24381762D01*
X30214511Y24163550D01*
X30211533Y24156667D01*
X30131056Y23923604D01*
X30129150Y23916341D01*
X30084851Y23673779D01*
X30084068Y23666333D01*
X30076967Y23419857D01*
X27711745Y23419857D01*
X27706942Y23423066D01*
X27628492Y23438671D01*
X26231492Y23438671D01*
X26153042Y23423066D01*
X26086535Y23378628D01*
X26042097Y23312121D01*
X26026492Y23233671D01*
X24698232Y23233671D01*
X23796696Y24135206D01*
X23767700Y24205210D01*
X23767700Y25127934D01*
X23771188Y25138671D01*
X26026492Y25138671D01*
X26026492Y24249671D01*
X26042097Y24171221D01*
X26086535Y24104714D01*
X26153042Y24060276D01*
X26231492Y24044671D01*
X27628492Y24044671D01*
X27706942Y24060276D01*
X27773449Y24104714D01*
X27817887Y24171221D01*
X27833492Y24249671D01*
X27833492Y24664295D01*
X27862489Y24734299D01*
X27906401Y24778211D01*
X30682209Y24778211D01*
X30682212Y24777041D01*
X30685595Y24771537D01*
X31738914Y23718218D01*
X31742920Y23716177D01*
X31766806Y23723938D01*
X32810022Y24767154D01*
X32816076Y24779037D01*
X32815460Y24782932D01*
X32814411Y24784302D01*
X32779406Y24815987D01*
X32773483Y24820582D01*
X32567750Y24956495D01*
X32561195Y24960143D01*
X32337282Y25063369D01*
X32330236Y25065989D01*
X32093276Y25134160D01*
X32085949Y25135678D01*
X31841382Y25167224D01*
X31833914Y25167616D01*
X31587390Y25161806D01*
X31579942Y25161063D01*
X31337148Y25118034D01*
X31329882Y25116168D01*
X31096394Y25036909D01*
X31089500Y25033969D01*
X30870690Y24920306D01*
X30864306Y24916347D01*
X30690022Y24789024D01*
X30682209Y24778211D01*
X27906401Y24778211D01*
X28340975Y25212784D01*
X28354663Y25224197D01*
X28358696Y25226455D01*
X28359354Y25227008D01*
X28441966Y25305797D01*
X28455286Y25316467D01*
X28505617Y25350097D01*
X28522731Y25359244D01*
X28546176Y25368955D01*
X28567927Y25377964D01*
X28605811Y25385500D01*
X29745139Y25385500D01*
X29823589Y25401105D01*
X29823862Y25399735D01*
X29845300Y25404000D01*
X33068923Y25404000D01*
X33127114Y25385093D01*
X33150019Y25361784D01*
X33192584Y25300995D01*
X33274991Y25183306D01*
X33438306Y25019991D01*
X33627500Y24887516D01*
X33836823Y24789907D01*
X34059916Y24730130D01*
X34290000Y24710000D01*
X34520084Y24730130D01*
X34699526Y24778211D01*
X35762209Y24778211D01*
X35762212Y24777041D01*
X35765595Y24771537D01*
X36818914Y23718218D01*
X36822920Y23716177D01*
X36846806Y23723938D01*
X37890022Y24767154D01*
X37896076Y24779037D01*
X37895460Y24782932D01*
X37894411Y24784302D01*
X37859406Y24815987D01*
X37853483Y24820582D01*
X37647750Y24956495D01*
X37641195Y24960143D01*
X37417282Y25063369D01*
X37410236Y25065989D01*
X37173276Y25134160D01*
X37165949Y25135678D01*
X36921382Y25167224D01*
X36913914Y25167616D01*
X36667390Y25161806D01*
X36659942Y25161063D01*
X36417148Y25118034D01*
X36409882Y25116168D01*
X36176394Y25036909D01*
X36169500Y25033969D01*
X35950690Y24920306D01*
X35944306Y24916347D01*
X35770022Y24789024D01*
X35762209Y24778211D01*
X34699526Y24778211D01*
X34743177Y24789907D01*
X34952500Y24887516D01*
X35141694Y25019991D01*
X35305009Y25183306D01*
X35407703Y25329968D01*
X35435002Y25368955D01*
X35435003Y25368957D01*
X35437484Y25372500D01*
X35535093Y25581823D01*
X35594870Y25804916D01*
X35615000Y26035000D01*
X35594870Y26265084D01*
X35535093Y26488177D01*
X35437484Y26697500D01*
X35305009Y26886694D01*
X35141694Y27050009D01*
X35018081Y27136564D01*
X34956045Y27180002D01*
X34956043Y27180003D01*
X34952500Y27182484D01*
X34743177Y27280093D01*
X34699154Y27291889D01*
X35764850Y27291889D01*
X35765272Y27289222D01*
X35767699Y27286201D01*
X35863963Y27206988D01*
X35870100Y27202675D01*
X36082007Y27076604D01*
X36088716Y27073273D01*
X36317265Y26980702D01*
X36324398Y26978425D01*
X36564321Y26921488D01*
X36571714Y26920318D01*
X36817477Y26900328D01*
X36824984Y26900289D01*
X37070939Y26917703D01*
X37078357Y26918799D01*
X37318854Y26973218D01*
X37326015Y26975421D01*
X37555518Y27065593D01*
X37562257Y27068851D01*
X37775475Y27192698D01*
X37781664Y27196952D01*
X37888121Y27282699D01*
X37895415Y27293866D01*
X37895294Y27296287D01*
X37892930Y27299938D01*
X36841086Y28351782D01*
X36837080Y28353823D01*
X36813194Y28346062D01*
X35770904Y27303772D01*
X35764850Y27291889D01*
X34699154Y27291889D01*
X34520084Y27339870D01*
X34290000Y27360000D01*
X34059916Y27339870D01*
X33836823Y27280093D01*
X33627500Y27182484D01*
X33623957Y27180003D01*
X33623955Y27180002D01*
X33561919Y27136564D01*
X33438306Y27050009D01*
X33274991Y26886694D01*
X33272512Y26883153D01*
X33150019Y26708216D01*
X33101154Y26671394D01*
X33068923Y26666000D01*
X29845300Y26666000D01*
X29823862Y26670265D01*
X29823589Y26668895D01*
X29745139Y26684500D01*
X28348139Y26684500D01*
X28269689Y26668895D01*
X28203182Y26624457D01*
X28197764Y26616348D01*
X28190869Y26609453D01*
X28188224Y26612098D01*
X28150914Y26583628D01*
X28122461Y26574135D01*
X28122459Y26574134D01*
X28116554Y26572164D01*
X28111329Y26568790D01*
X28111326Y26568789D01*
X28105235Y26564856D01*
X28089422Y26556563D01*
X28049705Y26540112D01*
X27986840Y26514073D01*
X27981758Y26512130D01*
X27930371Y26494084D01*
X27930358Y26494078D01*
X27925947Y26492529D01*
X27925204Y26492097D01*
X27923286Y26490815D01*
X27923285Y26490815D01*
X27880091Y26461954D01*
X27874141Y26458276D01*
X27827593Y26431725D01*
X27823122Y26427392D01*
X27817916Y26422347D01*
X27804020Y26411124D01*
X27719191Y26354444D01*
X27712555Y26350378D01*
X27668288Y26325595D01*
X27667630Y26325042D01*
X27665968Y26323457D01*
X27621764Y26281299D01*
X27618330Y26278174D01*
X27571580Y26237607D01*
X27568040Y26232485D01*
X27563881Y26227842D01*
X27563876Y26227847D01*
X27555779Y26218367D01*
X27510344Y26175035D01*
X27477815Y26135089D01*
X27471052Y26127598D01*
X26716121Y25372667D01*
X26646117Y25343671D01*
X26231492Y25343671D01*
X26153042Y25328066D01*
X26086535Y25283628D01*
X26042097Y25217121D01*
X26026492Y25138671D01*
X23771188Y25138671D01*
X23786607Y25186125D01*
X23836107Y25222089D01*
X23884895Y25225248D01*
X23891802Y25223957D01*
X23900882Y25223115D01*
X24580619Y25223115D01*
X24584897Y25224505D01*
X24592178Y25238795D01*
X24896298Y25238795D01*
X24900420Y25226110D01*
X24904541Y25223115D01*
X25590576Y25223115D01*
X25601872Y25224426D01*
X25722192Y25252725D01*
X25740493Y25261315D01*
X25814377Y25317110D01*
X25826525Y25330436D01*
X25875873Y25410136D01*
X25882389Y25426957D01*
X25900457Y25523608D01*
X25901299Y25532698D01*
X25901299Y26012435D01*
X25899909Y26016713D01*
X25877531Y26028115D01*
X24911979Y26028116D01*
X24907701Y26026726D01*
X24896299Y26004348D01*
X24896298Y25238795D01*
X24592178Y25238795D01*
X24596299Y25246883D01*
X24596300Y26028115D01*
X24596299Y26028119D01*
X24596299Y26343795D01*
X24896298Y26343795D01*
X24900420Y26331110D01*
X24904541Y26328115D01*
X25885619Y26328114D01*
X25898304Y26332236D01*
X25901299Y26336357D01*
X25901299Y26822392D01*
X25899988Y26833688D01*
X25871689Y26954008D01*
X25863099Y26972309D01*
X25807304Y27046193D01*
X25793978Y27058341D01*
X25714278Y27107689D01*
X25697457Y27114205D01*
X25600806Y27132273D01*
X25591716Y27133115D01*
X24911979Y27133115D01*
X24907701Y27131725D01*
X24896299Y27109347D01*
X24896298Y26343795D01*
X24596299Y26343795D01*
X24596300Y27117435D01*
X24592178Y27130120D01*
X24588057Y27133115D01*
X23902022Y27133115D01*
X23890730Y27131805D01*
X23889371Y27131485D01*
X23888558Y27131553D01*
X23885044Y27131145D01*
X23884962Y27131852D01*
X23828397Y27136564D01*
X23782053Y27176513D01*
X23767700Y27227854D01*
X23767700Y27781758D01*
X28043139Y27781758D01*
X28043139Y27501223D01*
X28044450Y27489927D01*
X28072749Y27369607D01*
X28081339Y27351306D01*
X28137134Y27277422D01*
X28150460Y27265274D01*
X28230160Y27215926D01*
X28246981Y27209410D01*
X28343632Y27191342D01*
X28352722Y27190500D01*
X28880959Y27190500D01*
X28885237Y27191890D01*
X28896639Y27214268D01*
X28896640Y27774320D01*
X28892518Y27787005D01*
X28888397Y27790000D01*
X28058819Y27790001D01*
X28046134Y27785879D01*
X28043139Y27781758D01*
X23767700Y27781758D01*
X23767700Y28021406D01*
X23796696Y28091410D01*
X24085203Y28379917D01*
X28043139Y28379917D01*
X28043139Y28105680D01*
X28044529Y28101402D01*
X28066907Y28090000D01*
X28880959Y28089999D01*
X28880968Y28090002D01*
X29196638Y28090002D01*
X29196639Y28089996D01*
X29196638Y27206180D01*
X29200760Y27193495D01*
X29204881Y27190500D01*
X29739416Y27190500D01*
X29750712Y27191811D01*
X29871032Y27220110D01*
X29889333Y27228700D01*
X29963217Y27284495D01*
X29969957Y27291889D01*
X30684850Y27291889D01*
X30685272Y27289222D01*
X30687699Y27286201D01*
X30783963Y27206988D01*
X30790100Y27202675D01*
X31002007Y27076604D01*
X31008716Y27073273D01*
X31237265Y26980702D01*
X31244398Y26978425D01*
X31484321Y26921488D01*
X31491714Y26920318D01*
X31737477Y26900328D01*
X31744984Y26900289D01*
X31990939Y26917703D01*
X31998357Y26918799D01*
X32238854Y26973218D01*
X32246015Y26975421D01*
X32475518Y27065593D01*
X32482257Y27068851D01*
X32695475Y27192698D01*
X32701664Y27196952D01*
X32808121Y27282699D01*
X32815415Y27293866D01*
X32815294Y27296287D01*
X32812930Y27299938D01*
X31761086Y28351782D01*
X31757080Y28353823D01*
X31733194Y28346062D01*
X30690904Y27303772D01*
X30684850Y27291889D01*
X29969957Y27291889D01*
X29975365Y27297821D01*
X30024713Y27377521D01*
X30031229Y27394342D01*
X30049297Y27490993D01*
X30050139Y27500083D01*
X30050139Y27821496D01*
X30069046Y27879687D01*
X30118546Y27915651D01*
X30179732Y27915651D01*
X30239261Y27862472D01*
X30280628Y27771490D01*
X30284245Y27764910D01*
X30419080Y27558469D01*
X30423636Y27552530D01*
X30456531Y27515804D01*
X30468065Y27509104D01*
X30471851Y27509492D01*
X30473470Y27510602D01*
X31526782Y28563914D01*
X31528823Y28567920D01*
X31524223Y28582080D01*
X31971177Y28582080D01*
X31978938Y28558194D01*
X33022419Y27514713D01*
X33034302Y27508659D01*
X33038333Y27509297D01*
X33039514Y27510196D01*
X33065572Y27538684D01*
X33070209Y27544597D01*
X33207192Y27749607D01*
X33210875Y27756143D01*
X33315280Y27979530D01*
X33317927Y27986535D01*
X33387337Y28223134D01*
X33388898Y28230477D01*
X33421879Y28476016D01*
X33422297Y28481167D01*
X33422835Y28499857D01*
X35156967Y28499857D01*
X35157321Y28492360D01*
X35187584Y28247657D01*
X35189067Y28240305D01*
X35255996Y28002989D01*
X35258573Y27995949D01*
X35360628Y27771490D01*
X35364245Y27764910D01*
X35499080Y27558469D01*
X35503636Y27552530D01*
X35536531Y27515804D01*
X35548065Y27509104D01*
X35551851Y27509492D01*
X35553470Y27510602D01*
X36606782Y28563914D01*
X36608823Y28567920D01*
X36604223Y28582080D01*
X37051177Y28582080D01*
X37058938Y28558194D01*
X38102419Y27514713D01*
X38114302Y27508659D01*
X38118333Y27509297D01*
X38119514Y27510196D01*
X38145572Y27538684D01*
X38150209Y27544597D01*
X38287192Y27749607D01*
X38290875Y27756143D01*
X38395280Y27979530D01*
X38397927Y27986535D01*
X38467337Y28223134D01*
X38468898Y28230477D01*
X38501879Y28476016D01*
X38502297Y28481167D01*
X38504925Y28572402D01*
X38504803Y28577590D01*
X38486013Y28824608D01*
X38484876Y28832032D01*
X38429203Y29072225D01*
X38426958Y29079390D01*
X38335589Y29308406D01*
X38332291Y29315138D01*
X38207333Y29527699D01*
X38203048Y29533865D01*
X38122274Y29633080D01*
X38111066Y29640316D01*
X38108510Y29640176D01*
X38105063Y29637931D01*
X37053218Y28586086D01*
X37051177Y28582080D01*
X36604223Y28582080D01*
X36601062Y28591806D01*
X35556702Y29636166D01*
X35544819Y29642220D01*
X35543529Y29642016D01*
X35538770Y29637984D01*
X35413309Y29468123D01*
X35409319Y29461762D01*
X35294511Y29243550D01*
X35291533Y29236667D01*
X35211056Y29003604D01*
X35209150Y28996341D01*
X35164851Y28753779D01*
X35164068Y28746333D01*
X35156967Y28499857D01*
X33422835Y28499857D01*
X33424925Y28572402D01*
X33424803Y28577590D01*
X33406013Y28824608D01*
X33404876Y28832032D01*
X33349203Y29072225D01*
X33346958Y29079390D01*
X33255589Y29308406D01*
X33252291Y29315138D01*
X33127333Y29527699D01*
X33123048Y29533865D01*
X33042274Y29633080D01*
X33031066Y29640316D01*
X33028510Y29640176D01*
X33025063Y29637931D01*
X31973218Y28586086D01*
X31971177Y28582080D01*
X31524223Y28582080D01*
X31521062Y28591806D01*
X30476702Y29636166D01*
X30464819Y29642220D01*
X30463529Y29642016D01*
X30458770Y29637984D01*
X30333309Y29468123D01*
X30329319Y29461762D01*
X30214511Y29243550D01*
X30211533Y29236667D01*
X30131056Y29003604D01*
X30129150Y28996341D01*
X30084851Y28753779D01*
X30084068Y28746333D01*
X30082817Y28702906D01*
X30062242Y28645284D01*
X30011727Y28610761D01*
X29931741Y28621585D01*
X29863118Y28664074D01*
X29846297Y28670590D01*
X29749646Y28688658D01*
X29740556Y28689500D01*
X29212319Y28689500D01*
X29208041Y28688110D01*
X29196639Y28665732D01*
X29196638Y28090002D01*
X28880968Y28090002D01*
X28885237Y28091389D01*
X28896639Y28113767D01*
X28896640Y28673820D01*
X28892518Y28686505D01*
X28888397Y28689500D01*
X28353862Y28689500D01*
X28342566Y28688189D01*
X28222246Y28659890D01*
X28203945Y28651300D01*
X28130061Y28595505D01*
X28117913Y28582179D01*
X28068565Y28502479D01*
X28062049Y28485658D01*
X28043981Y28389007D01*
X28043139Y28379917D01*
X24085203Y28379917D01*
X24499406Y28794119D01*
X24569410Y28823115D01*
X25596299Y28823115D01*
X25674749Y28838720D01*
X25741256Y28883158D01*
X25785694Y28949665D01*
X25801299Y29028115D01*
X25801299Y29128615D01*
X25820206Y29186806D01*
X25900299Y29227615D01*
X27106246Y29227615D01*
X27117882Y29226929D01*
X27152422Y29222841D01*
X27159699Y29224170D01*
X27159700Y29224170D01*
X27174806Y29226929D01*
X27210535Y29233454D01*
X27213550Y29233956D01*
X27239726Y29237891D01*
X27264735Y29241651D01*
X27264737Y29241652D01*
X27272050Y29242751D01*
X27278561Y29245878D01*
X27285659Y29247174D01*
X27292228Y29250586D01*
X27292230Y29250587D01*
X27338068Y29274398D01*
X27340849Y29275788D01*
X27387470Y29298175D01*
X27387471Y29298176D01*
X27394144Y29301380D01*
X27398588Y29305488D01*
X27400837Y29307004D01*
X27405851Y29309608D01*
X27410145Y29313276D01*
X27410148Y29313278D01*
X27410262Y29313376D01*
X27411743Y29314641D01*
X27450156Y29353054D01*
X27452959Y29355748D01*
X27488166Y29388293D01*
X27493601Y29393317D01*
X27497014Y29399193D01*
X27503181Y29406079D01*
X27601010Y29503908D01*
X27609724Y29511650D01*
X27631231Y29528605D01*
X27631233Y29528607D01*
X27637045Y29533189D01*
X27670666Y29581835D01*
X27672447Y29584326D01*
X27703155Y29625900D01*
X27703157Y29625903D01*
X27707555Y29631858D01*
X27709946Y29638668D01*
X27714052Y29644608D01*
X27731881Y29700983D01*
X27732843Y29703867D01*
X27752431Y29759647D01*
X27752668Y29765683D01*
X27753190Y29768364D01*
X27754892Y29773744D01*
X27755500Y29781469D01*
X27755500Y29835796D01*
X27755576Y29839683D01*
X27756313Y29858434D01*
X27757749Y29894983D01*
X27756008Y29901550D01*
X27755500Y29910775D01*
X27755500Y31319000D01*
X27774407Y31377191D01*
X27854500Y31418000D01*
X28067000Y31418000D01*
X28145450Y31433605D01*
X28153557Y31439022D01*
X28153560Y31439023D01*
X28185999Y31460698D01*
X28244887Y31477307D01*
X28302290Y31456129D01*
X28340000Y31378383D01*
X28340000Y30254429D01*
X30954552Y30254429D01*
X31012743Y30235522D01*
X31048707Y30186022D01*
X31048707Y30124836D01*
X31000189Y30067575D01*
X30870690Y30000306D01*
X30864306Y29996347D01*
X30690022Y29869024D01*
X30682209Y29858211D01*
X30682212Y29857041D01*
X30685595Y29851537D01*
X31738914Y28798218D01*
X31742920Y28796177D01*
X31766806Y28803938D01*
X32810022Y29847154D01*
X32815655Y29858211D01*
X35762209Y29858211D01*
X35762212Y29857041D01*
X35765595Y29851537D01*
X36818914Y28798218D01*
X36822920Y28796177D01*
X36846806Y28803938D01*
X37890022Y29847154D01*
X37896076Y29859037D01*
X37895460Y29862932D01*
X37894411Y29864302D01*
X37859406Y29895987D01*
X37853483Y29900582D01*
X37647750Y30036495D01*
X37641195Y30040143D01*
X37417282Y30143369D01*
X37410236Y30145989D01*
X37173276Y30214160D01*
X37165949Y30215678D01*
X36921382Y30247224D01*
X36913914Y30247616D01*
X36667390Y30241806D01*
X36659942Y30241063D01*
X36417148Y30198034D01*
X36409882Y30196168D01*
X36176394Y30116909D01*
X36169500Y30113969D01*
X35950690Y30000306D01*
X35944306Y29996347D01*
X35770022Y29869024D01*
X35762209Y29858211D01*
X32815655Y29858211D01*
X32816076Y29859037D01*
X32815460Y29862932D01*
X32814411Y29864302D01*
X32779406Y29895987D01*
X32773483Y29900582D01*
X32567750Y30036495D01*
X32561195Y30040143D01*
X32337282Y30143369D01*
X32330236Y30145989D01*
X32093276Y30214160D01*
X32085949Y30215678D01*
X31841382Y30247224D01*
X31833914Y30247616D01*
X31587390Y30241806D01*
X31579942Y30241063D01*
X31571276Y30239527D01*
X31510679Y30247990D01*
X31466629Y30290454D01*
X31455000Y30337008D01*
X31455000Y40087000D01*
X31473907Y40145191D01*
X31554000Y40186000D01*
X40087000Y40186000D01*
X40145191Y40167093D01*
X40186000Y40087000D01*
X40186001Y553000D01*
X40167094Y494809D01*
X40117594Y458845D01*
X40087001Y454000D01*
X553000Y454000D01*
X494809Y472907D01*
X454000Y553000D01*
X454000Y7467600D01*
X9612100Y7467600D01*
X9612100Y6578600D01*
X9627705Y6500150D01*
X9633122Y6492043D01*
X9655776Y6458139D01*
X9672143Y6433643D01*
X9738650Y6389205D01*
X9817100Y6373600D01*
X11214100Y6373600D01*
X11292550Y6389205D01*
X11359057Y6433643D01*
X11375425Y6458139D01*
X11398078Y6492043D01*
X11403495Y6500150D01*
X11405397Y6509713D01*
X11409129Y6518722D01*
X11411631Y6517686D01*
X11434324Y6558202D01*
X11501521Y6584500D01*
X11569385Y6584500D01*
X11636678Y6556627D01*
X11636847Y6556847D01*
X11762250Y6460622D01*
X11807804Y6441753D01*
X11899785Y6403653D01*
X11908285Y6400132D01*
X12065000Y6379500D01*
X12221715Y6400132D01*
X12230216Y6403653D01*
X12322196Y6441753D01*
X12367750Y6460622D01*
X12493153Y6556847D01*
X12497102Y6561993D01*
X12501693Y6566584D01*
X12503760Y6564516D01*
X12574704Y6599500D01*
X13297625Y6599500D01*
X13316939Y6597598D01*
X13330000Y6595000D01*
X13558548Y6595000D01*
X13589140Y6590155D01*
X13599159Y6586900D01*
X13606567Y6584493D01*
X13733433Y6584493D01*
X13733448Y6584498D01*
X13733478Y6584500D01*
X13890101Y6584500D01*
X13960105Y6555503D01*
X14099304Y6416303D01*
X14128300Y6346300D01*
X14128300Y6196133D01*
X14109393Y6137942D01*
X14059893Y6101978D01*
X14009985Y6099036D01*
X13984771Y6104052D01*
X13984761Y6104053D01*
X13980000Y6105000D01*
X13330000Y6105000D01*
X13316939Y6102402D01*
X13297625Y6100500D01*
X13133443Y6100500D01*
X13073176Y6120958D01*
X12970167Y6200000D01*
X12951950Y6213978D01*
X12805915Y6274468D01*
X12649200Y6295100D01*
X12492485Y6274468D01*
X12346450Y6213978D01*
X12221047Y6117753D01*
X12124822Y5992350D01*
X12064332Y5846315D01*
X12043700Y5689600D01*
X12064332Y5532885D01*
X12124822Y5386850D01*
X12221047Y5261447D01*
X12346450Y5165222D01*
X12492485Y5104732D01*
X12649200Y5084100D01*
X12805915Y5104732D01*
X12951950Y5165222D01*
X13077353Y5261447D01*
X13081307Y5266600D01*
X13085211Y5270504D01*
X13155215Y5299500D01*
X13297625Y5299500D01*
X13316939Y5297598D01*
X13330000Y5295000D01*
X13980000Y5295000D01*
X13984761Y5295947D01*
X13984771Y5295948D01*
X14009985Y5300964D01*
X14070746Y5293774D01*
X14115676Y5252242D01*
X14128300Y5203867D01*
X14128301Y4240722D01*
X14109394Y4182531D01*
X14048617Y4143625D01*
X14035415Y4140999D01*
X14035410Y4140997D01*
X14025849Y4139095D01*
X13959342Y4094657D01*
X13914904Y4028150D01*
X13899299Y3949700D01*
X13899299Y3918810D01*
X13880392Y3860619D01*
X13830892Y3824655D01*
X13762413Y3827346D01*
X13758756Y3828861D01*
X13618715Y3886868D01*
X13462000Y3907500D01*
X13305285Y3886868D01*
X13159250Y3826378D01*
X13033847Y3730153D01*
X12937622Y3604750D01*
X12877132Y3458715D01*
X12856500Y3302000D01*
X12877132Y3145285D01*
X12937622Y2999250D01*
X13033847Y2873847D01*
X13159250Y2777622D01*
X13305285Y2717132D01*
X13462000Y2696500D01*
X13618715Y2717132D01*
X13762413Y2776654D01*
X13823410Y2781455D01*
X13875579Y2749486D01*
X13899299Y2685190D01*
X13899299Y2552700D01*
X13914904Y2474250D01*
X13959342Y2407743D01*
X13967452Y2402324D01*
X13992196Y2385791D01*
X14025849Y2363305D01*
X14104299Y2347700D01*
X14993299Y2347700D01*
X15071749Y2363305D01*
X15105402Y2385791D01*
X15130146Y2402324D01*
X15138256Y2407743D01*
X15182694Y2474250D01*
X15198299Y2552700D01*
X15198299Y3701301D01*
X15217206Y3759492D01*
X15266706Y3795456D01*
X15327892Y3795456D01*
X15367303Y3771304D01*
X15626727Y3511879D01*
X15775303Y3363303D01*
X15804299Y3293300D01*
X15804299Y2552700D01*
X15819904Y2474250D01*
X15864342Y2407743D01*
X15872452Y2402324D01*
X15897196Y2385791D01*
X15930849Y2363305D01*
X16009299Y2347700D01*
X16679189Y2347700D01*
X16749193Y2318704D01*
X17972415Y1095481D01*
X17980151Y1086775D01*
X18001689Y1059454D01*
X18049136Y1026662D01*
X18050309Y1025851D01*
X18052833Y1024047D01*
X18100357Y988945D01*
X18107166Y986554D01*
X18113108Y982447D01*
X18120161Y980217D01*
X18120164Y980215D01*
X18169475Y964621D01*
X18172427Y963636D01*
X18228147Y944068D01*
X18234185Y943831D01*
X18236862Y943309D01*
X18242244Y941607D01*
X18247865Y941165D01*
X18247868Y941164D01*
X18247954Y941158D01*
X18249969Y940999D01*
X18304312Y940999D01*
X18308198Y940923D01*
X18356092Y939041D01*
X18356095Y939041D01*
X18363483Y938751D01*
X18370047Y940491D01*
X18379271Y940999D01*
X26251630Y940999D01*
X26263266Y940313D01*
X26297806Y936225D01*
X26305083Y937554D01*
X26305084Y937554D01*
X26320190Y940313D01*
X26355919Y946838D01*
X26358934Y947340D01*
X26385110Y951275D01*
X26410119Y955035D01*
X26410121Y955036D01*
X26417434Y956135D01*
X26423945Y959262D01*
X26431043Y960558D01*
X26437612Y963970D01*
X26437614Y963971D01*
X26483452Y987782D01*
X26486233Y989172D01*
X26532854Y1011559D01*
X26532855Y1011560D01*
X26539528Y1014764D01*
X26543972Y1018872D01*
X26546221Y1020388D01*
X26551235Y1022992D01*
X26555529Y1026660D01*
X26555532Y1026662D01*
X26555646Y1026760D01*
X26557127Y1028025D01*
X26595540Y1066438D01*
X26598343Y1069132D01*
X26633550Y1101677D01*
X26638985Y1106701D01*
X26642398Y1112577D01*
X26648566Y1119463D01*
X27136608Y1607504D01*
X27206611Y1636500D01*
X27876500Y1636500D01*
X27954950Y1652105D01*
X28021457Y1696543D01*
X28065895Y1763050D01*
X28081500Y1841500D01*
X28081500Y1990500D01*
X28100407Y2048691D01*
X28180500Y2089500D01*
X28289131Y2089500D01*
X28300767Y2088814D01*
X28335307Y2084726D01*
X28342584Y2086055D01*
X28342585Y2086055D01*
X28357691Y2088814D01*
X28393420Y2095339D01*
X28396435Y2095841D01*
X28422611Y2099776D01*
X28447620Y2103536D01*
X28447622Y2103537D01*
X28454935Y2104636D01*
X28461446Y2107763D01*
X28468544Y2109059D01*
X28475113Y2112471D01*
X28475115Y2112472D01*
X28520953Y2136283D01*
X28523734Y2137673D01*
X28570355Y2160060D01*
X28570356Y2160061D01*
X28577029Y2163265D01*
X28581473Y2167373D01*
X28583722Y2168889D01*
X28588736Y2171493D01*
X28593030Y2175161D01*
X28593033Y2175163D01*
X28593147Y2175261D01*
X28594628Y2176526D01*
X28633041Y2214939D01*
X28635844Y2217633D01*
X28671051Y2250178D01*
X28676486Y2255202D01*
X28679899Y2261078D01*
X28686066Y2267964D01*
X29359107Y2941004D01*
X29429111Y2970000D01*
X30480000Y2970000D01*
X30558450Y2985605D01*
X30624957Y3030043D01*
X30669395Y3096550D01*
X30685000Y3175000D01*
X30685000Y4699000D01*
X30669395Y4777450D01*
X30624957Y4843957D01*
X30558450Y4888395D01*
X30480000Y4904000D01*
X30267500Y4904000D01*
X30209309Y4922907D01*
X30168500Y5003000D01*
X30168500Y5411000D01*
X30187407Y5469191D01*
X30267500Y5510000D01*
X30480000Y5510000D01*
X30558450Y5525605D01*
X30624957Y5570043D01*
X30669395Y5636550D01*
X30685000Y5715000D01*
X30685000Y7239000D01*
X30669395Y7317450D01*
X30640094Y7361302D01*
X30630376Y7375847D01*
X30624957Y7383957D01*
X30616819Y7389395D01*
X30592103Y7405909D01*
X30558450Y7428395D01*
X30480000Y7444000D01*
X28956000Y7444000D01*
X28877550Y7428395D01*
X28843897Y7405909D01*
X28819182Y7389395D01*
X28811043Y7383957D01*
X28805624Y7375847D01*
X28795906Y7361302D01*
X28766605Y7317450D01*
X28751000Y7239000D01*
X28751000Y5715000D01*
X28766605Y5636550D01*
X28811043Y5570043D01*
X28877550Y5525605D01*
X28956000Y5510000D01*
X29168500Y5510000D01*
X29226691Y5491093D01*
X29267500Y5411000D01*
X29267501Y5003000D01*
X29248594Y4944809D01*
X29199094Y4908845D01*
X29168501Y4904000D01*
X28956000Y4904000D01*
X28877550Y4888395D01*
X28811043Y4843957D01*
X28766605Y4777450D01*
X28751000Y4699000D01*
X28751000Y3648111D01*
X28722004Y3578108D01*
X28250504Y3106607D01*
X28195987Y3078829D01*
X28135555Y3088400D01*
X28092290Y3131665D01*
X28081500Y3176610D01*
X28081500Y3238500D01*
X28065895Y3316950D01*
X28021457Y3383457D01*
X27954950Y3427895D01*
X27876500Y3443500D01*
X26987500Y3443500D01*
X26909050Y3427895D01*
X26842543Y3383457D01*
X26798105Y3316950D01*
X26782500Y3238500D01*
X26782500Y2568611D01*
X26753504Y2498608D01*
X26345504Y2090607D01*
X26290987Y2062829D01*
X26230555Y2072400D01*
X26187290Y2115665D01*
X26176500Y2160610D01*
X26176500Y3238500D01*
X26160895Y3316950D01*
X26116457Y3383457D01*
X26049950Y3427895D01*
X25971500Y3443500D01*
X25301611Y3443500D01*
X25231607Y3472496D01*
X25077607Y3626496D01*
X25049830Y3681013D01*
X25059401Y3741445D01*
X25102666Y3784710D01*
X25147611Y3795500D01*
X25971500Y3795500D01*
X26049950Y3811105D01*
X26116457Y3855543D01*
X26160895Y3922050D01*
X26176500Y4000500D01*
X26176500Y4525232D01*
X26682500Y4525232D01*
X26682500Y4006223D01*
X26683811Y3994927D01*
X26712110Y3874607D01*
X26720700Y3856306D01*
X26776495Y3782422D01*
X26789821Y3770274D01*
X26869521Y3720926D01*
X26886342Y3714410D01*
X26982993Y3696342D01*
X26992083Y3695500D01*
X27266320Y3695500D01*
X27270598Y3696890D01*
X27282000Y3719268D01*
X27282000Y4525232D01*
X27582000Y4525232D01*
X27582000Y3711180D01*
X27583390Y3706902D01*
X27605768Y3695500D01*
X27870777Y3695500D01*
X27882073Y3696811D01*
X28002393Y3725110D01*
X28020694Y3733700D01*
X28094578Y3789495D01*
X28106726Y3802821D01*
X28156074Y3882521D01*
X28162590Y3899342D01*
X28180658Y3995993D01*
X28181500Y4005083D01*
X28181500Y4533320D01*
X28180110Y4537598D01*
X28157732Y4549000D01*
X27597680Y4549000D01*
X27593402Y4547610D01*
X27582000Y4525232D01*
X27282000Y4525232D01*
X27282000Y4533320D01*
X27280610Y4537598D01*
X27258232Y4549000D01*
X26698180Y4549000D01*
X26693902Y4547610D01*
X26682500Y4525232D01*
X26176500Y4525232D01*
X26176500Y5397500D01*
X26160895Y5475950D01*
X26116457Y5542457D01*
X26108347Y5547876D01*
X26058056Y5581479D01*
X26058055Y5581479D01*
X26049950Y5586895D01*
X26040388Y5588797D01*
X26038614Y5589532D01*
X25992088Y5629269D01*
X25977500Y5680996D01*
X25977500Y5749004D01*
X25996407Y5807195D01*
X26038614Y5840468D01*
X26040388Y5841203D01*
X26049950Y5843105D01*
X26063730Y5852312D01*
X26108347Y5882124D01*
X26116457Y5887543D01*
X26124781Y5900000D01*
X26155478Y5945943D01*
X26160895Y5954050D01*
X26176500Y6032500D01*
X26176500Y6557232D01*
X26682500Y6557232D01*
X26682500Y6038223D01*
X26683811Y6026927D01*
X26712110Y5906607D01*
X26720700Y5888306D01*
X26776495Y5814422D01*
X26789825Y5802270D01*
X26796725Y5797998D01*
X26836248Y5751290D01*
X26840767Y5690272D01*
X26804271Y5634823D01*
X26769425Y5608508D01*
X26757274Y5595179D01*
X26707926Y5515479D01*
X26701410Y5498658D01*
X26683342Y5402007D01*
X26682500Y5392917D01*
X26682500Y4864680D01*
X26683890Y4860402D01*
X26706268Y4849000D01*
X27266320Y4849000D01*
X27270598Y4850390D01*
X27282000Y4872768D01*
X27282000Y5686821D01*
X27281886Y5687172D01*
X27282000Y5688621D01*
X27282000Y5702500D01*
X27283092Y5702500D01*
X27578941Y5702500D01*
X27582000Y5702500D01*
X27582000Y4864680D01*
X27583390Y4860402D01*
X27605768Y4849000D01*
X28165820Y4849000D01*
X28170098Y4850390D01*
X28181500Y4872768D01*
X28181500Y5391777D01*
X28180189Y5403073D01*
X28151890Y5523393D01*
X28143300Y5541694D01*
X28087505Y5615578D01*
X28074175Y5627730D01*
X28067275Y5632002D01*
X28027752Y5678710D01*
X28023233Y5739728D01*
X28059729Y5795177D01*
X28094575Y5821492D01*
X28106726Y5834821D01*
X28156074Y5914521D01*
X28162590Y5931342D01*
X28180658Y6027993D01*
X28181500Y6037083D01*
X28181500Y6565320D01*
X28180110Y6569598D01*
X28157732Y6581000D01*
X27597680Y6581000D01*
X27593402Y6579610D01*
X27582000Y6557232D01*
X27582000Y5743179D01*
X27582114Y5742828D01*
X27582000Y5741379D01*
X27582000Y5727500D01*
X27580908Y5727500D01*
X27578941Y5702500D01*
X27283092Y5702500D01*
X27285059Y5727500D01*
X27282000Y5727500D01*
X27282000Y6565320D01*
X27280610Y6569598D01*
X27258232Y6581000D01*
X26698180Y6581000D01*
X26693902Y6579610D01*
X26682500Y6557232D01*
X26176500Y6557232D01*
X26176500Y7424917D01*
X26682500Y7424917D01*
X26682500Y6896680D01*
X26683890Y6892402D01*
X26706268Y6881000D01*
X27266320Y6881000D01*
X27270598Y6882390D01*
X27282000Y6904768D01*
X27282000Y7710732D01*
X27582000Y7710732D01*
X27582000Y6896680D01*
X27583390Y6892402D01*
X27605768Y6881000D01*
X28165820Y6881000D01*
X28170098Y6882390D01*
X28181500Y6904768D01*
X28181500Y7423777D01*
X28180189Y7435073D01*
X28151890Y7555393D01*
X28143300Y7573694D01*
X28087505Y7647578D01*
X28074179Y7659726D01*
X27994479Y7709074D01*
X27977658Y7715590D01*
X27881007Y7733658D01*
X27871917Y7734500D01*
X27597680Y7734500D01*
X27593402Y7733110D01*
X27582000Y7710732D01*
X27282000Y7710732D01*
X27282000Y7718820D01*
X27280610Y7723098D01*
X27258232Y7734500D01*
X26993223Y7734500D01*
X26981927Y7733189D01*
X26861607Y7704890D01*
X26843306Y7696300D01*
X26769422Y7640505D01*
X26757274Y7627179D01*
X26707926Y7547479D01*
X26701410Y7530658D01*
X26683342Y7434007D01*
X26682500Y7424917D01*
X26176500Y7424917D01*
X26176500Y7429500D01*
X26160895Y7507950D01*
X26116457Y7574457D01*
X26049950Y7618895D01*
X25971500Y7634500D01*
X25583201Y7634500D01*
X25525010Y7653407D01*
X25484201Y7733500D01*
X25484201Y8348052D01*
X25513197Y8418056D01*
X25757601Y8662460D01*
X25835528Y8769718D01*
X25876498Y8895806D01*
X25876498Y9028384D01*
X25835528Y9154474D01*
X25757601Y9261732D01*
X25448242Y9571091D01*
X25340984Y9649018D01*
X25214894Y9689988D01*
X25082316Y9689988D01*
X25074905Y9687580D01*
X24963635Y9651425D01*
X24963634Y9651424D01*
X24956228Y9649018D01*
X24848970Y9571091D01*
X24309801Y9031922D01*
X24231874Y8924664D01*
X24190904Y8798576D01*
X24190904Y8665998D01*
X24231874Y8539908D01*
X24309801Y8432650D01*
X24554205Y8188246D01*
X24583201Y8118242D01*
X24583202Y7534500D01*
X24564295Y7476309D01*
X24514795Y7440345D01*
X24484202Y7435500D01*
X22937453Y7435500D01*
X22879262Y7454407D01*
X22847791Y7497721D01*
X22846760Y7497196D01*
X22839288Y7511861D01*
X22790107Y7608385D01*
X22790106Y7608387D01*
X22786571Y7615324D01*
X22692824Y7709071D01*
X22685887Y7712606D01*
X22685885Y7712607D01*
X22581636Y7765724D01*
X22581635Y7765724D01*
X22574696Y7769260D01*
X22567002Y7770479D01*
X22567001Y7770479D01*
X22447596Y7789391D01*
X22447594Y7789391D01*
X22443750Y7790000D01*
X22006250Y7790000D01*
X22002406Y7789391D01*
X22002404Y7789391D01*
X21882999Y7770479D01*
X21882998Y7770479D01*
X21875304Y7769260D01*
X21868365Y7765724D01*
X21868364Y7765724D01*
X21764115Y7712607D01*
X21764113Y7712606D01*
X21757176Y7709071D01*
X21663429Y7615324D01*
X21659894Y7608387D01*
X21659893Y7608385D01*
X21610712Y7511861D01*
X21603240Y7497196D01*
X21602021Y7489502D01*
X21602021Y7489501D01*
X21585013Y7382116D01*
X21582500Y7366250D01*
X21582500Y6603750D01*
X21583109Y6599906D01*
X21583109Y6599904D01*
X21598933Y6499999D01*
X21603240Y6472804D01*
X21606776Y6465865D01*
X21606776Y6465864D01*
X21653787Y6373600D01*
X21663429Y6354676D01*
X21757176Y6260929D01*
X21764113Y6257394D01*
X21764115Y6257393D01*
X21849323Y6213978D01*
X21875304Y6200740D01*
X21882998Y6199521D01*
X21882999Y6199521D01*
X22002404Y6180609D01*
X22002406Y6180609D01*
X22006250Y6180000D01*
X22443750Y6180000D01*
X22447594Y6180609D01*
X22447596Y6180609D01*
X22567001Y6199521D01*
X22567002Y6199521D01*
X22574696Y6200740D01*
X22600677Y6213978D01*
X22685885Y6257393D01*
X22685887Y6257394D01*
X22692824Y6260929D01*
X22786571Y6354676D01*
X22796214Y6373600D01*
X22843223Y6465862D01*
X22843224Y6465864D01*
X22846760Y6472804D01*
X22847791Y6472279D01*
X22879265Y6515595D01*
X22937453Y6534500D01*
X24778500Y6534500D01*
X24836691Y6515593D01*
X24877500Y6435500D01*
X24877500Y6032500D01*
X24893105Y5954050D01*
X24898522Y5945943D01*
X24929220Y5900000D01*
X24937543Y5887543D01*
X25004050Y5843105D01*
X25013612Y5841203D01*
X25015386Y5840468D01*
X25061912Y5800732D01*
X25076501Y5749003D01*
X25076500Y5680995D01*
X25057592Y5622804D01*
X25015386Y5589532D01*
X25013612Y5588797D01*
X25004050Y5586895D01*
X24995945Y5581479D01*
X24995944Y5581479D01*
X24945653Y5547876D01*
X24937543Y5542457D01*
X24893105Y5475950D01*
X24877500Y5397500D01*
X24877500Y4065610D01*
X24858593Y4007419D01*
X24809093Y3971455D01*
X24747907Y3971455D01*
X24708496Y3995606D01*
X24500996Y4203106D01*
X24472000Y4273110D01*
X24472000Y4687000D01*
X24456395Y4765450D01*
X24411957Y4831957D01*
X24345450Y4876395D01*
X24267000Y4892000D01*
X23317000Y4892000D01*
X23238550Y4876395D01*
X23172043Y4831957D01*
X23160598Y4814829D01*
X23112551Y4776950D01*
X23051413Y4774546D01*
X22994510Y4817075D01*
X22964257Y4865115D01*
X22962137Y4868482D01*
X22959510Y4871462D01*
X22959506Y4871467D01*
X22799824Y5052590D01*
X22799823Y5052591D01*
X22797194Y5055573D01*
X22604460Y5213887D01*
X22532589Y5255717D01*
X22392328Y5337351D01*
X22392326Y5337352D01*
X22388893Y5339350D01*
X22222888Y5403073D01*
X22159754Y5427308D01*
X22159751Y5427309D01*
X22156041Y5428733D01*
X22152149Y5429546D01*
X22152146Y5429547D01*
X21915791Y5478924D01*
X21915787Y5478925D01*
X21911893Y5479738D01*
X21907918Y5479919D01*
X21907914Y5479919D01*
X21809342Y5484395D01*
X21662731Y5491053D01*
X21658782Y5490596D01*
X21658779Y5490596D01*
X21418913Y5462842D01*
X21418909Y5462841D01*
X21414966Y5462385D01*
X21411150Y5461305D01*
X21411144Y5461304D01*
X21178793Y5395555D01*
X21178791Y5395554D01*
X21174970Y5394473D01*
X21171371Y5392795D01*
X21171369Y5392794D01*
X20952526Y5290747D01*
X20952521Y5290744D01*
X20948920Y5289065D01*
X20945631Y5286830D01*
X20945626Y5286827D01*
X20763037Y5162739D01*
X20742631Y5148871D01*
X20561410Y4977498D01*
X20525096Y4930001D01*
X20433783Y4810569D01*
X20383419Y4775825D01*
X20322252Y4777320D01*
X20272820Y4815700D01*
X20261957Y4831957D01*
X20195450Y4876395D01*
X20117000Y4892000D01*
X19167000Y4892000D01*
X19088550Y4876395D01*
X19022043Y4831957D01*
X19016624Y4823847D01*
X18983683Y4774546D01*
X18977605Y4765450D01*
X18975703Y4755889D01*
X18973964Y4751690D01*
X18934227Y4705164D01*
X18874732Y4690881D01*
X18818204Y4714296D01*
X18783500Y4789576D01*
X18783500Y4914320D01*
X18782110Y4918598D01*
X18759732Y4930000D01*
X17945680Y4930001D01*
X17941402Y4928611D01*
X17930000Y4906233D01*
X17929999Y4346180D01*
X17934121Y4333495D01*
X17938242Y4330500D01*
X18472777Y4330500D01*
X18484073Y4331811D01*
X18604393Y4360110D01*
X18622694Y4368700D01*
X18696578Y4424495D01*
X18708726Y4437821D01*
X18758074Y4517521D01*
X18764590Y4534341D01*
X18765686Y4540204D01*
X18794964Y4593929D01*
X18850230Y4620185D01*
X18910373Y4608942D01*
X18952422Y4564495D01*
X18962000Y4522012D01*
X18962000Y3935110D01*
X18933004Y3865107D01*
X18926544Y3858646D01*
X18872028Y3830870D01*
X18818655Y3837187D01*
X18704712Y3884384D01*
X18698715Y3886868D01*
X18542000Y3907500D01*
X18385285Y3886868D01*
X18239250Y3826378D01*
X18113847Y3730153D01*
X18017622Y3604750D01*
X17957132Y3458715D01*
X17936500Y3302000D01*
X17957132Y3145285D01*
X18017622Y2999250D01*
X18113847Y2873847D01*
X18239250Y2777622D01*
X18385285Y2717132D01*
X18542000Y2696500D01*
X18698715Y2717132D01*
X18844750Y2777622D01*
X18857205Y2787179D01*
X18914369Y2831042D01*
X18974636Y2851500D01*
X18975131Y2851500D01*
X18986767Y2850814D01*
X19021307Y2846726D01*
X19028584Y2848055D01*
X19028585Y2848055D01*
X19043691Y2850814D01*
X19079420Y2857339D01*
X19082435Y2857841D01*
X19108611Y2861776D01*
X19133620Y2865536D01*
X19133622Y2865537D01*
X19140935Y2866636D01*
X19147446Y2869763D01*
X19154544Y2871059D01*
X19161113Y2874471D01*
X19161115Y2874472D01*
X19206953Y2898283D01*
X19209734Y2899673D01*
X19256355Y2922060D01*
X19256356Y2922061D01*
X19263029Y2925265D01*
X19267473Y2929373D01*
X19269722Y2930889D01*
X19274736Y2933493D01*
X19279030Y2937161D01*
X19279033Y2937163D01*
X19279147Y2937261D01*
X19280628Y2938526D01*
X19295106Y2953004D01*
X19365110Y2982000D01*
X20117000Y2982000D01*
X20195450Y2997605D01*
X20261957Y3042043D01*
X20267377Y3050154D01*
X20273666Y3059566D01*
X20321716Y3097445D01*
X20382854Y3099847D01*
X20435869Y3063035D01*
X20539873Y2920931D01*
X20542709Y2918134D01*
X20542711Y2918132D01*
X20714631Y2748595D01*
X20714636Y2748591D01*
X20717465Y2745801D01*
X20920773Y2601317D01*
X20924332Y2599566D01*
X20924335Y2599564D01*
X21140999Y2492953D01*
X21144566Y2491198D01*
X21383087Y2418275D01*
X21479711Y2405039D01*
X21626254Y2384965D01*
X21626257Y2384965D01*
X21630198Y2384425D01*
X21634176Y2384522D01*
X21634180Y2384522D01*
X21793122Y2388406D01*
X21879542Y2390518D01*
X22034069Y2419437D01*
X22120795Y2435667D01*
X22120800Y2435668D01*
X22124704Y2436399D01*
X22128446Y2437746D01*
X22128449Y2437747D01*
X22355637Y2519540D01*
X22355642Y2519542D01*
X22359377Y2520887D01*
X22445474Y2568611D01*
X22574048Y2639880D01*
X22574050Y2639881D01*
X22577524Y2641807D01*
X22773531Y2796050D01*
X22838439Y2866636D01*
X22857944Y2887848D01*
X22942357Y2979646D01*
X22944543Y2982961D01*
X22944546Y2982965D01*
X22995043Y3059549D01*
X23042860Y3097722D01*
X23103983Y3100498D01*
X23160008Y3060054D01*
X23166623Y3050154D01*
X23172043Y3042043D01*
X23238550Y2997605D01*
X23317000Y2982000D01*
X24267000Y2982000D01*
X24312356Y2991022D01*
X24335890Y2995703D01*
X24335892Y2995704D01*
X24345450Y2997605D01*
X24348281Y2999496D01*
X24405284Y3003983D01*
X24452177Y2977721D01*
X24652275Y2777622D01*
X24848504Y2581393D01*
X24877500Y2511390D01*
X24877500Y1940999D01*
X24858593Y1882808D01*
X24778500Y1841999D01*
X18541111Y1841999D01*
X18471107Y1870995D01*
X17132295Y3209806D01*
X17103299Y3279810D01*
X17103299Y3949700D01*
X17087694Y4028150D01*
X17043256Y4094657D01*
X16976749Y4139095D01*
X16898299Y4154700D01*
X16157699Y4154700D01*
X16087695Y4183696D01*
X15984496Y4286895D01*
X15955500Y4356899D01*
X15955500Y4921758D01*
X16776500Y4921758D01*
X16776500Y4641223D01*
X16777811Y4629927D01*
X16806110Y4509607D01*
X16814700Y4491306D01*
X16870495Y4417422D01*
X16883821Y4405274D01*
X16963521Y4355926D01*
X16980342Y4349410D01*
X17076993Y4331342D01*
X17086083Y4330500D01*
X17614320Y4330500D01*
X17618598Y4331890D01*
X17630000Y4354268D01*
X17630001Y4914320D01*
X17625879Y4927005D01*
X17621758Y4930000D01*
X16792180Y4930001D01*
X16779495Y4925879D01*
X16776500Y4921758D01*
X15955500Y4921758D01*
X15955500Y5255717D01*
X15974407Y5313908D01*
X15999500Y5338033D01*
X16016846Y5349623D01*
X16016847Y5349624D01*
X16024957Y5355043D01*
X16034032Y5368624D01*
X16052026Y5395555D01*
X16069395Y5421550D01*
X16085000Y5500000D01*
X16085000Y5519917D01*
X16776500Y5519917D01*
X16776500Y5245680D01*
X16777890Y5241402D01*
X16800268Y5230000D01*
X17614320Y5229999D01*
X17618598Y5231389D01*
X17625879Y5245680D01*
X17929999Y5245680D01*
X17934121Y5232995D01*
X17938242Y5230000D01*
X18767820Y5229999D01*
X18780505Y5234121D01*
X18783500Y5238242D01*
X18783500Y5518777D01*
X18782189Y5530073D01*
X18753890Y5650393D01*
X18745300Y5668694D01*
X18689505Y5742578D01*
X18676179Y5754726D01*
X18596479Y5804074D01*
X18579658Y5810590D01*
X18483007Y5828658D01*
X18473917Y5829500D01*
X17945680Y5829500D01*
X17941402Y5828110D01*
X17930000Y5805732D01*
X17929999Y5245680D01*
X17625879Y5245680D01*
X17630000Y5253767D01*
X17630001Y5813820D01*
X17625879Y5826505D01*
X17621758Y5829500D01*
X17087223Y5829500D01*
X17075927Y5828189D01*
X16955607Y5799890D01*
X16937306Y5791300D01*
X16863422Y5735505D01*
X16851274Y5722179D01*
X16801926Y5642479D01*
X16795410Y5625658D01*
X16777342Y5529007D01*
X16776500Y5519917D01*
X16085000Y5519917D01*
X16085000Y5886296D01*
X16107139Y5943445D01*
X16105398Y5944523D01*
X16159574Y6032021D01*
X16166090Y6048842D01*
X16184158Y6145493D01*
X16185000Y6154583D01*
X16185000Y6184320D01*
X16183610Y6188598D01*
X16161232Y6200000D01*
X15504000Y6200001D01*
X15445809Y6218908D01*
X15409845Y6268408D01*
X15405000Y6299002D01*
X15405001Y6401001D01*
X15423909Y6459192D01*
X15504001Y6500000D01*
X16169320Y6499999D01*
X16182005Y6504121D01*
X16185092Y6508369D01*
X16186219Y6515485D01*
X16189690Y6514935D01*
X16203907Y6558691D01*
X16284000Y6599500D01*
X16783517Y6599500D01*
X16841708Y6580593D01*
X16880615Y6519814D01*
X16892105Y6462050D01*
X16936543Y6395543D01*
X16944653Y6390124D01*
X16948869Y6387307D01*
X17003050Y6351105D01*
X17081500Y6335500D01*
X18478500Y6335500D01*
X18556950Y6351105D01*
X18611131Y6387307D01*
X18615347Y6390124D01*
X18623457Y6395543D01*
X18637328Y6416303D01*
X18662479Y6453944D01*
X18662479Y6453945D01*
X18667895Y6462050D01*
X18669797Y6471612D01*
X18670532Y6473386D01*
X18710269Y6519912D01*
X18761996Y6534500D01*
X19387547Y6534500D01*
X19445738Y6515593D01*
X19477209Y6472279D01*
X19478240Y6472804D01*
X19481776Y6465864D01*
X19481777Y6465862D01*
X19528787Y6373600D01*
X19538429Y6354676D01*
X19632176Y6260929D01*
X19639113Y6257394D01*
X19639115Y6257393D01*
X19724323Y6213978D01*
X19750304Y6200740D01*
X19757998Y6199521D01*
X19757999Y6199521D01*
X19877404Y6180609D01*
X19877406Y6180609D01*
X19881250Y6180000D01*
X20318750Y6180000D01*
X20322594Y6180609D01*
X20322596Y6180609D01*
X20442001Y6199521D01*
X20442002Y6199521D01*
X20449696Y6200740D01*
X20475677Y6213978D01*
X20560885Y6257393D01*
X20560887Y6257394D01*
X20567824Y6260929D01*
X20661571Y6354676D01*
X20671214Y6373600D01*
X20718224Y6465864D01*
X20718224Y6465865D01*
X20721760Y6472804D01*
X20726068Y6499999D01*
X20741891Y6599904D01*
X20741891Y6599906D01*
X20742500Y6603750D01*
X20742500Y7366250D01*
X20739987Y7382116D01*
X20722979Y7489501D01*
X20722979Y7489502D01*
X20721760Y7497196D01*
X20714288Y7511861D01*
X20665107Y7608385D01*
X20665106Y7608387D01*
X20661571Y7615324D01*
X20567824Y7709071D01*
X20560887Y7712606D01*
X20560885Y7712607D01*
X20456636Y7765724D01*
X20456635Y7765724D01*
X20449696Y7769260D01*
X20442002Y7770479D01*
X20442001Y7770479D01*
X20322596Y7789391D01*
X20322594Y7789391D01*
X20318750Y7790000D01*
X19881250Y7790000D01*
X19877406Y7789391D01*
X19877404Y7789391D01*
X19757999Y7770479D01*
X19757998Y7770479D01*
X19750304Y7769260D01*
X19743365Y7765724D01*
X19743364Y7765724D01*
X19639115Y7712607D01*
X19639113Y7712606D01*
X19632176Y7709071D01*
X19538429Y7615324D01*
X19534894Y7608387D01*
X19534893Y7608385D01*
X19485712Y7511861D01*
X19478240Y7497196D01*
X19477209Y7497721D01*
X19445735Y7454405D01*
X19387547Y7435500D01*
X18761996Y7435500D01*
X18703805Y7454407D01*
X18670532Y7496614D01*
X18669797Y7498388D01*
X18667895Y7507950D01*
X18623457Y7574457D01*
X18556950Y7618895D01*
X18478500Y7634500D01*
X17081500Y7634500D01*
X17003050Y7618895D01*
X16936543Y7574457D01*
X16892105Y7507950D01*
X16890203Y7498388D01*
X16890201Y7498383D01*
X16886581Y7480185D01*
X16856684Y7426801D01*
X16789484Y7400500D01*
X15912375Y7400500D01*
X15893061Y7402402D01*
X15880000Y7405000D01*
X15230000Y7405000D01*
X15151550Y7389395D01*
X15085043Y7344957D01*
X15079624Y7336847D01*
X15073750Y7328056D01*
X15040605Y7278450D01*
X15025000Y7200000D01*
X15025000Y6862410D01*
X15006093Y6804219D01*
X14956593Y6768255D01*
X14895407Y6768255D01*
X14855997Y6792406D01*
X14767177Y6881225D01*
X14767146Y6881256D01*
X14767132Y6881262D01*
X14767115Y6881277D01*
X14410084Y7238308D01*
X14410063Y7238332D01*
X14410056Y7238347D01*
X14320347Y7328056D01*
X14313408Y7331592D01*
X14313406Y7331593D01*
X14298849Y7339010D01*
X14285602Y7347128D01*
X14281132Y7350376D01*
X14266093Y7361302D01*
X14243154Y7368756D01*
X14228805Y7374699D01*
X14214248Y7382116D01*
X14207306Y7385653D01*
X14183480Y7389427D01*
X14168375Y7393053D01*
X14152843Y7398100D01*
X14152839Y7398101D01*
X14145433Y7400507D01*
X14018567Y7400507D01*
X14018552Y7400502D01*
X14018522Y7400500D01*
X14012375Y7400500D01*
X13993061Y7402402D01*
X13980000Y7405000D01*
X13330000Y7405000D01*
X13316939Y7402402D01*
X13297625Y7400500D01*
X12543248Y7400500D01*
X12482981Y7420958D01*
X12480349Y7422978D01*
X12367750Y7509378D01*
X12252998Y7556910D01*
X12227712Y7567384D01*
X12221715Y7569868D01*
X12065000Y7590500D01*
X11908285Y7569868D01*
X11902288Y7567384D01*
X11877002Y7556910D01*
X11762250Y7509378D01*
X11636847Y7413153D01*
X11636678Y7413373D01*
X11569385Y7385500D01*
X11516436Y7385500D01*
X11458245Y7404407D01*
X11421732Y7468124D01*
X11419100Y7467600D01*
X11405397Y7536488D01*
X11403495Y7546050D01*
X11359057Y7612557D01*
X11349572Y7618895D01*
X11300657Y7651578D01*
X11300658Y7651578D01*
X11292550Y7656995D01*
X11214100Y7672600D01*
X9817100Y7672600D01*
X9738650Y7656995D01*
X9730542Y7651578D01*
X9730543Y7651578D01*
X9681629Y7618895D01*
X9672143Y7612557D01*
X9627705Y7546050D01*
X9612100Y7467600D01*
X454000Y7467600D01*
X454000Y8769858D01*
X9512100Y8769858D01*
X9512100Y8489323D01*
X9513411Y8478027D01*
X9541710Y8357707D01*
X9550300Y8339406D01*
X9606095Y8265522D01*
X9619421Y8253374D01*
X9699121Y8204026D01*
X9715942Y8197510D01*
X9812593Y8179442D01*
X9821683Y8178600D01*
X10349920Y8178600D01*
X10354198Y8179990D01*
X10361479Y8194280D01*
X10665599Y8194280D01*
X10669721Y8181595D01*
X10673842Y8178600D01*
X11208377Y8178600D01*
X11219673Y8179911D01*
X11339993Y8208210D01*
X11358294Y8216800D01*
X11432178Y8272595D01*
X11444326Y8285921D01*
X11493674Y8365621D01*
X11500190Y8382442D01*
X11518258Y8479093D01*
X11519100Y8488183D01*
X11519100Y8762420D01*
X11517710Y8766698D01*
X11495332Y8778100D01*
X10681280Y8778100D01*
X10677002Y8776710D01*
X10665600Y8754332D01*
X10665599Y8194280D01*
X10361479Y8194280D01*
X10365600Y8202368D01*
X10365600Y8762420D01*
X10364210Y8766698D01*
X10341832Y8778100D01*
X9527780Y8778101D01*
X9515095Y8773979D01*
X9512100Y8769858D01*
X454000Y8769858D01*
X454000Y9368017D01*
X9512100Y9368017D01*
X9512100Y9093780D01*
X9513490Y9089502D01*
X9535868Y9078100D01*
X10349920Y9078100D01*
X10354198Y9079490D01*
X10365600Y9101868D01*
X10365600Y9653832D01*
X10665600Y9653832D01*
X10665600Y9093780D01*
X10666990Y9089502D01*
X10689368Y9078100D01*
X11503420Y9078099D01*
X11516105Y9082221D01*
X11519100Y9086342D01*
X11519100Y9366877D01*
X11517789Y9378173D01*
X11489490Y9498493D01*
X11480900Y9516794D01*
X11425105Y9590678D01*
X11411779Y9602826D01*
X11332079Y9652174D01*
X11315258Y9658690D01*
X11218607Y9676758D01*
X11209517Y9677600D01*
X10681280Y9677600D01*
X10677002Y9676210D01*
X10665600Y9653832D01*
X10365600Y9653832D01*
X10365601Y9661920D01*
X10361479Y9674605D01*
X10357358Y9677600D01*
X9822823Y9677600D01*
X9811527Y9676289D01*
X9691207Y9647990D01*
X9672906Y9639400D01*
X9599022Y9583605D01*
X9586874Y9570279D01*
X9537526Y9490579D01*
X9531010Y9473758D01*
X9512942Y9377107D01*
X9512100Y9368017D01*
X454000Y9368017D01*
X454000Y10001758D01*
X12535000Y10001758D01*
X12535000Y9865723D01*
X12536311Y9854427D01*
X12564610Y9734107D01*
X12573200Y9715806D01*
X12628995Y9641922D01*
X12642321Y9629774D01*
X12722021Y9580426D01*
X12738842Y9573910D01*
X12835493Y9555842D01*
X12844583Y9555000D01*
X13424320Y9555000D01*
X13428598Y9556390D01*
X13435879Y9570680D01*
X13739999Y9570680D01*
X13744121Y9557995D01*
X13748242Y9555000D01*
X14334277Y9555000D01*
X14345573Y9556311D01*
X14465893Y9584610D01*
X14484194Y9593200D01*
X14558078Y9648995D01*
X14570226Y9662321D01*
X14619574Y9742021D01*
X14626090Y9758842D01*
X14644158Y9855493D01*
X14645000Y9864583D01*
X14645000Y9994320D01*
X14643610Y9998598D01*
X14637409Y10001758D01*
X15835000Y10001758D01*
X15835000Y9865723D01*
X15836311Y9854427D01*
X15864610Y9734107D01*
X15873200Y9715806D01*
X15928995Y9641922D01*
X15942321Y9629774D01*
X16022021Y9580426D01*
X16038842Y9573910D01*
X16135493Y9555842D01*
X16144583Y9555000D01*
X16724320Y9555000D01*
X16728598Y9556390D01*
X16735879Y9570680D01*
X17039999Y9570680D01*
X17044121Y9557995D01*
X17048242Y9555000D01*
X17634277Y9555000D01*
X17645573Y9556311D01*
X17765893Y9584610D01*
X17784194Y9593200D01*
X17858078Y9648995D01*
X17870226Y9662321D01*
X17919574Y9742021D01*
X17926090Y9758842D01*
X17944158Y9855493D01*
X17945000Y9864583D01*
X17945000Y9994320D01*
X17943610Y9998598D01*
X17921232Y10010000D01*
X17055680Y10010001D01*
X17051402Y10008611D01*
X17040000Y9986233D01*
X17039999Y9570680D01*
X16735879Y9570680D01*
X16740000Y9578768D01*
X16740001Y9994320D01*
X16735879Y10007005D01*
X16731758Y10010000D01*
X15850680Y10010001D01*
X15837995Y10005879D01*
X15835000Y10001758D01*
X14637409Y10001758D01*
X14621232Y10010000D01*
X13755680Y10010001D01*
X13751402Y10008611D01*
X13740000Y9986233D01*
X13739999Y9570680D01*
X13435879Y9570680D01*
X13440000Y9578768D01*
X13440001Y9994320D01*
X13435879Y10007005D01*
X13431758Y10010000D01*
X12550680Y10010001D01*
X12537995Y10005879D01*
X12535000Y10001758D01*
X454000Y10001758D01*
X454000Y10781889D01*
X2744850Y10781889D01*
X2745272Y10779222D01*
X2747699Y10776201D01*
X2843963Y10696988D01*
X2850100Y10692675D01*
X3062007Y10566604D01*
X3068716Y10563273D01*
X3297265Y10470702D01*
X3304398Y10468425D01*
X3544321Y10411488D01*
X3551714Y10410318D01*
X3797477Y10390328D01*
X3804984Y10390289D01*
X4050939Y10407703D01*
X4058357Y10408799D01*
X4298854Y10463218D01*
X4306015Y10465421D01*
X4535518Y10555593D01*
X4542257Y10558851D01*
X4755475Y10682698D01*
X4761664Y10686952D01*
X4868121Y10772699D01*
X4874123Y10781889D01*
X7824850Y10781889D01*
X7825272Y10779222D01*
X7827699Y10776201D01*
X7923963Y10696988D01*
X7930100Y10692675D01*
X8142007Y10566604D01*
X8148716Y10563273D01*
X8377265Y10470702D01*
X8384398Y10468425D01*
X8624321Y10411488D01*
X8631714Y10410318D01*
X8877477Y10390328D01*
X8884984Y10390289D01*
X9130939Y10407703D01*
X9138357Y10408799D01*
X9378854Y10463218D01*
X9386015Y10465421D01*
X9615518Y10555593D01*
X9622257Y10558851D01*
X9835475Y10682698D01*
X9841664Y10686952D01*
X9948121Y10772699D01*
X9955415Y10783866D01*
X9955294Y10786287D01*
X9952930Y10789938D01*
X8901086Y11841782D01*
X8897080Y11843823D01*
X8873194Y11836062D01*
X7830904Y10793772D01*
X7824850Y10781889D01*
X4874123Y10781889D01*
X4875415Y10783866D01*
X4875294Y10786287D01*
X4872930Y10789938D01*
X3821086Y11841782D01*
X3817080Y11843823D01*
X3793194Y11836062D01*
X2750904Y10793772D01*
X2744850Y10781889D01*
X454000Y10781889D01*
X454000Y11989857D01*
X2136967Y11989857D01*
X2137321Y11982360D01*
X2167584Y11737657D01*
X2169067Y11730305D01*
X2235996Y11492989D01*
X2238573Y11485949D01*
X2340628Y11261490D01*
X2344245Y11254910D01*
X2479080Y11048469D01*
X2483636Y11042530D01*
X2516531Y11005804D01*
X2528065Y10999104D01*
X2531851Y10999492D01*
X2533470Y11000602D01*
X3586782Y12053914D01*
X3588823Y12057920D01*
X3584223Y12072080D01*
X4031177Y12072080D01*
X4038938Y12048194D01*
X5082419Y11004713D01*
X5094302Y10998659D01*
X5098333Y10999297D01*
X5099514Y11000196D01*
X5125572Y11028684D01*
X5130209Y11034597D01*
X5267192Y11239607D01*
X5270875Y11246143D01*
X5375280Y11469530D01*
X5377927Y11476535D01*
X5447337Y11713134D01*
X5448898Y11720477D01*
X5481879Y11966016D01*
X5482297Y11971167D01*
X5482835Y11989857D01*
X7216967Y11989857D01*
X7217321Y11982360D01*
X7247584Y11737657D01*
X7249067Y11730305D01*
X7315996Y11492989D01*
X7318573Y11485949D01*
X7420628Y11261490D01*
X7424245Y11254910D01*
X7559080Y11048469D01*
X7563636Y11042530D01*
X7596531Y11005804D01*
X7608065Y10999104D01*
X7611851Y10999492D01*
X7613470Y11000602D01*
X8666782Y12053914D01*
X8668823Y12057920D01*
X8664223Y12072080D01*
X9111177Y12072080D01*
X9118938Y12048194D01*
X10162419Y11004713D01*
X10174302Y10998659D01*
X10178333Y10999297D01*
X10179514Y11000196D01*
X10205572Y11028684D01*
X10210209Y11034597D01*
X10347192Y11239607D01*
X10350875Y11246143D01*
X10455280Y11469530D01*
X10457927Y11476535D01*
X10527337Y11713134D01*
X10528898Y11720477D01*
X10561879Y11966016D01*
X10562297Y11971167D01*
X10564925Y12062402D01*
X10564803Y12067590D01*
X10546013Y12314608D01*
X10544876Y12322032D01*
X10489203Y12562225D01*
X10486958Y12569390D01*
X10395589Y12798406D01*
X10392291Y12805138D01*
X10267333Y13017699D01*
X10263048Y13023865D01*
X10182274Y13123080D01*
X10171066Y13130316D01*
X10168510Y13130176D01*
X10165063Y13127931D01*
X9113218Y12076086D01*
X9111177Y12072080D01*
X8664223Y12072080D01*
X8661062Y12081806D01*
X7616702Y13126166D01*
X7604819Y13132220D01*
X7603529Y13132016D01*
X7598770Y13127984D01*
X7473309Y12958123D01*
X7469319Y12951762D01*
X7354511Y12733550D01*
X7351533Y12726667D01*
X7271056Y12493604D01*
X7269150Y12486341D01*
X7224851Y12243779D01*
X7224068Y12236333D01*
X7216967Y11989857D01*
X5482835Y11989857D01*
X5484925Y12062402D01*
X5484803Y12067590D01*
X5466013Y12314608D01*
X5464876Y12322032D01*
X5409203Y12562225D01*
X5406958Y12569390D01*
X5315589Y12798406D01*
X5312291Y12805138D01*
X5187333Y13017699D01*
X5183048Y13023865D01*
X5102274Y13123080D01*
X5091066Y13130316D01*
X5088510Y13130176D01*
X5085063Y13127931D01*
X4033218Y12076086D01*
X4031177Y12072080D01*
X3584223Y12072080D01*
X3581062Y12081806D01*
X2536702Y13126166D01*
X2524819Y13132220D01*
X2523529Y13132016D01*
X2518770Y13127984D01*
X2393309Y12958123D01*
X2389319Y12951762D01*
X2274511Y12733550D01*
X2271533Y12726667D01*
X2191056Y12493604D01*
X2189150Y12486341D01*
X2144851Y12243779D01*
X2144068Y12236333D01*
X2136967Y11989857D01*
X454000Y11989857D01*
X454000Y13348211D01*
X2742209Y13348211D01*
X2742212Y13347041D01*
X2745595Y13341537D01*
X3798914Y12288218D01*
X3802920Y12286177D01*
X3826806Y12293938D01*
X4870022Y13337154D01*
X4876076Y13349037D01*
X4875460Y13352932D01*
X4874411Y13354302D01*
X4839406Y13385987D01*
X4833483Y13390582D01*
X4627750Y13526495D01*
X4621195Y13530143D01*
X4397282Y13633369D01*
X4390236Y13635989D01*
X4153276Y13704160D01*
X4145949Y13705678D01*
X3901382Y13737224D01*
X3893914Y13737616D01*
X3647390Y13731806D01*
X3639942Y13731063D01*
X3397148Y13688034D01*
X3389882Y13686168D01*
X3156394Y13606909D01*
X3149500Y13603969D01*
X2930690Y13490306D01*
X2924306Y13486347D01*
X2750022Y13359024D01*
X2742209Y13348211D01*
X454000Y13348211D01*
X454000Y14605000D01*
X5025000Y14605000D01*
X5045130Y14374916D01*
X5104907Y14151823D01*
X5202516Y13942500D01*
X5204997Y13938957D01*
X5204998Y13938955D01*
X5221656Y13915165D01*
X5334991Y13753306D01*
X5498306Y13589991D01*
X5542392Y13559122D01*
X5673823Y13467093D01*
X5687500Y13457516D01*
X5896823Y13359907D01*
X6119916Y13300130D01*
X6350000Y13280000D01*
X6580084Y13300130D01*
X6759526Y13348211D01*
X7822209Y13348211D01*
X7822212Y13347041D01*
X7825595Y13341537D01*
X8878914Y12288218D01*
X8882920Y12286177D01*
X8906806Y12293938D01*
X9950022Y13337154D01*
X9956076Y13349037D01*
X9955460Y13352932D01*
X9954411Y13354302D01*
X9919406Y13385987D01*
X9913483Y13390582D01*
X9707750Y13526495D01*
X9701195Y13530143D01*
X9477282Y13633369D01*
X9470236Y13635989D01*
X9233276Y13704160D01*
X9225949Y13705678D01*
X8981382Y13737224D01*
X8973914Y13737616D01*
X8727390Y13731806D01*
X8719942Y13731063D01*
X8477148Y13688034D01*
X8469882Y13686168D01*
X8236394Y13606909D01*
X8229500Y13603969D01*
X8010690Y13490306D01*
X8004306Y13486347D01*
X7830022Y13359024D01*
X7822209Y13348211D01*
X6759526Y13348211D01*
X6803177Y13359907D01*
X7012500Y13457516D01*
X7026178Y13467093D01*
X7157608Y13559122D01*
X7201694Y13589991D01*
X7365009Y13753306D01*
X7478344Y13915165D01*
X7489981Y13931784D01*
X7538846Y13968606D01*
X7571077Y13974000D01*
X10059996Y13974000D01*
X10077783Y13972385D01*
X10082208Y13971136D01*
X10083064Y13971061D01*
X10085325Y13971007D01*
X10085327Y13971007D01*
X10190867Y13968507D01*
X10197192Y13968357D01*
X10214160Y13966483D01*
X10271424Y13955093D01*
X10273520Y13954676D01*
X10292089Y13949043D01*
X10332304Y13932386D01*
X10339894Y13929242D01*
X10357010Y13920093D01*
X10407333Y13886468D01*
X10420657Y13875795D01*
X10429959Y13866924D01*
X10474392Y13824547D01*
X10476896Y13822698D01*
X10489434Y13813440D01*
X10500631Y13803802D01*
X10607778Y13696654D01*
X10619194Y13682964D01*
X10621455Y13678925D01*
X10622008Y13678267D01*
X10623589Y13676609D01*
X10623590Y13676608D01*
X10700796Y13595656D01*
X10711467Y13582335D01*
X10745096Y13532006D01*
X10754244Y13514890D01*
X10774042Y13467093D01*
X10779675Y13448523D01*
X10784209Y13425732D01*
X10791483Y13389161D01*
X10793357Y13372193D01*
X10795116Y13297954D01*
X10795579Y13294877D01*
X10797898Y13279466D01*
X10799000Y13264735D01*
X10799000Y12711578D01*
X10796446Y12689236D01*
X10792330Y12671468D01*
X10792296Y12670608D01*
X10795424Y12538598D01*
X10795838Y12521108D01*
X10795716Y12513329D01*
X10792929Y12462681D01*
X10793043Y12461829D01*
X10805408Y12399668D01*
X10806204Y12395105D01*
X10814489Y12340039D01*
X10814490Y12340035D01*
X10815416Y12333882D01*
X10817844Y12328151D01*
X10819536Y12322153D01*
X10819530Y12322151D01*
X10823197Y12310233D01*
X10828775Y12282193D01*
X10843138Y12209984D01*
X10844052Y12204620D01*
X10849012Y12169774D01*
X10852386Y12146064D01*
X10852665Y12145251D01*
X10853549Y12143116D01*
X10853551Y12143109D01*
X10873434Y12095107D01*
X10875872Y12088578D01*
X10892836Y12037733D01*
X10900146Y12026411D01*
X10908436Y12010604D01*
X10950938Y11907996D01*
X10952873Y11902935D01*
X10972471Y11847126D01*
X10972902Y11846383D01*
X10998248Y11808450D01*
X11003049Y11801265D01*
X11006728Y11795314D01*
X11033275Y11748772D01*
X11037608Y11744301D01*
X11042653Y11739094D01*
X11053871Y11725203D01*
X11076807Y11690877D01*
X11106992Y11645704D01*
X11110559Y11640365D01*
X11114624Y11633730D01*
X11139405Y11589467D01*
X11139958Y11588809D01*
X11141543Y11587147D01*
X11183697Y11542947D01*
X11186819Y11539516D01*
X11227393Y11492759D01*
X11232515Y11489218D01*
X11237157Y11485061D01*
X11237152Y11485056D01*
X11246628Y11476963D01*
X11289965Y11431523D01*
X11292377Y11429559D01*
X11329915Y11398990D01*
X11337405Y11392228D01*
X11378417Y11351216D01*
X11392410Y11333610D01*
X11402061Y11318139D01*
X11402645Y11317507D01*
X11404292Y11315936D01*
X11404293Y11315935D01*
X11510858Y11214300D01*
X11516275Y11208711D01*
X11529684Y11193741D01*
X11550124Y11170920D01*
X11550807Y11170399D01*
X11552723Y11169119D01*
X11603485Y11135201D01*
X11607291Y11132527D01*
X11657093Y11095751D01*
X11662866Y11093413D01*
X11668298Y11090372D01*
X11668295Y11090366D01*
X11679318Y11084531D01*
X11754051Y11034597D01*
X11764307Y11027744D01*
X11768748Y11024596D01*
X11812304Y10991893D01*
X11812310Y10991889D01*
X11816049Y10989082D01*
X11816821Y10988704D01*
X11818944Y10987825D01*
X11818945Y10987824D01*
X11866965Y10967933D01*
X11873328Y10965029D01*
X11921253Y10941083D01*
X11934429Y10938246D01*
X11951470Y10932929D01*
X12054047Y10890441D01*
X12059004Y10888227D01*
X12112342Y10862614D01*
X12113173Y10862394D01*
X12115430Y10861945D01*
X12166393Y10851808D01*
X12173204Y10850201D01*
X12224885Y10836062D01*
X12231112Y10835964D01*
X12238362Y10835850D01*
X12256118Y10833960D01*
X12309882Y10823266D01*
X12356190Y10814055D01*
X12363748Y10812240D01*
X12412580Y10798462D01*
X12413437Y10798387D01*
X12415696Y10798334D01*
X12415699Y10798333D01*
X12476777Y10796887D01*
X12481426Y10796668D01*
X12523398Y10793696D01*
X12580108Y10770726D01*
X12612485Y10718809D01*
X12600577Y10642826D01*
X12560426Y10577979D01*
X12553910Y10561158D01*
X12535842Y10464507D01*
X12535000Y10455417D01*
X12535000Y10325680D01*
X12536390Y10321402D01*
X12558768Y10310000D01*
X13439998Y10309999D01*
X13440004Y10310000D01*
X14629320Y10309999D01*
X14642005Y10314121D01*
X14645000Y10318242D01*
X14645000Y10454277D01*
X14643689Y10465573D01*
X14615390Y10585893D01*
X14606800Y10604194D01*
X14551005Y10678078D01*
X14537679Y10690226D01*
X14457979Y10739574D01*
X14441162Y10746089D01*
X14426116Y10748901D01*
X14372390Y10778178D01*
X14346132Y10833443D01*
X14357374Y10893587D01*
X14406418Y10937680D01*
X14408887Y10938703D01*
X14418450Y10940605D01*
X14426556Y10946021D01*
X14426558Y10946022D01*
X14476847Y10979624D01*
X14484957Y10985043D01*
X14494318Y10999052D01*
X14512476Y11026229D01*
X14529395Y11051550D01*
X14545000Y11130000D01*
X14545000Y11730000D01*
X14529395Y11808450D01*
X14484957Y11874957D01*
X14418450Y11919395D01*
X14408887Y11921297D01*
X14400187Y11924901D01*
X14353661Y11964637D01*
X14339377Y12024131D01*
X14362791Y12080660D01*
X14415406Y12112735D01*
X14465893Y12124609D01*
X14484194Y12133200D01*
X14558078Y12188995D01*
X14570226Y12202321D01*
X14619574Y12282021D01*
X14626090Y12298842D01*
X14644158Y12395493D01*
X14645000Y12404583D01*
X14645000Y12534320D01*
X14643610Y12538598D01*
X14637409Y12541758D01*
X15835000Y12541758D01*
X15835000Y12405723D01*
X15836311Y12394427D01*
X15864610Y12274107D01*
X15873200Y12255806D01*
X15928995Y12181922D01*
X15942321Y12169774D01*
X16022021Y12120426D01*
X16038838Y12113911D01*
X16053884Y12111099D01*
X16107610Y12081822D01*
X16133868Y12026557D01*
X16122626Y11966413D01*
X16073582Y11922320D01*
X16071113Y11921297D01*
X16061550Y11919395D01*
X16053444Y11913979D01*
X16053442Y11913978D01*
X16007309Y11883153D01*
X15995043Y11874957D01*
X15950605Y11808450D01*
X15935000Y11730000D01*
X15935000Y11130000D01*
X15950605Y11051550D01*
X15967524Y11026229D01*
X15985683Y10999052D01*
X15995043Y10985043D01*
X16061550Y10940605D01*
X16071113Y10938703D01*
X16079813Y10935099D01*
X16126339Y10895363D01*
X16140623Y10835869D01*
X16117209Y10779340D01*
X16064594Y10747265D01*
X16014107Y10735391D01*
X15995806Y10726800D01*
X15921922Y10671005D01*
X15909774Y10657679D01*
X15860426Y10577979D01*
X15853910Y10561158D01*
X15835842Y10464507D01*
X15835000Y10455417D01*
X15835000Y10325680D01*
X15836390Y10321402D01*
X15858768Y10310000D01*
X16739998Y10309999D01*
X16740004Y10310000D01*
X17929320Y10309999D01*
X17942006Y10314121D01*
X17953197Y10329524D01*
X18002697Y10365488D01*
X18063882Y10365489D01*
X18103294Y10341337D01*
X18562004Y9882626D01*
X18591000Y9812623D01*
X18591000Y9398000D01*
X18606605Y9319550D01*
X18651043Y9253043D01*
X18717550Y9208605D01*
X18796000Y9193000D01*
X19685000Y9193000D01*
X19763450Y9208605D01*
X19829957Y9253043D01*
X19874395Y9319550D01*
X19890000Y9398000D01*
X19890000Y10795000D01*
X20496000Y10795000D01*
X20496000Y9398000D01*
X20511605Y9319550D01*
X20556043Y9253043D01*
X20622550Y9208605D01*
X20701000Y9193000D01*
X21590000Y9193000D01*
X21668450Y9208605D01*
X21734957Y9253043D01*
X21779395Y9319550D01*
X21792576Y9385814D01*
X21822473Y9439198D01*
X21889674Y9465500D01*
X22839308Y9465500D01*
X22862262Y9462802D01*
X22877135Y9459257D01*
X22877993Y9459218D01*
X23010295Y9461512D01*
X23017451Y9461377D01*
X23065712Y9458721D01*
X23065713Y9458721D01*
X23070365Y9458465D01*
X23071217Y9458579D01*
X23094269Y9463164D01*
X23130946Y9470459D01*
X23136148Y9471350D01*
X23155721Y9474169D01*
X23195244Y9479860D01*
X23201766Y9482574D01*
X23220489Y9488271D01*
X23284623Y9501029D01*
X23289972Y9501940D01*
X23327724Y9507313D01*
X23349458Y9507142D01*
X23349906Y9506996D01*
X23482484Y9506996D01*
X23489895Y9509404D01*
X23601165Y9545559D01*
X23601166Y9545560D01*
X23608572Y9547966D01*
X23715830Y9625893D01*
X24254999Y10165062D01*
X24332926Y10272320D01*
X24345170Y10310000D01*
X24371488Y10390997D01*
X24373896Y10398408D01*
X24373896Y10437879D01*
X24381432Y10475764D01*
X24414559Y10555741D01*
X24416779Y10560711D01*
X24418010Y10563273D01*
X24442386Y10614036D01*
X24442606Y10614867D01*
X24453192Y10668087D01*
X24454799Y10674897D01*
X24458097Y10686952D01*
X24468938Y10726579D01*
X24469150Y10740056D01*
X24471040Y10757812D01*
X24475828Y10781889D01*
X30684850Y10781889D01*
X30685272Y10779222D01*
X30687699Y10776201D01*
X30783963Y10696988D01*
X30790100Y10692675D01*
X31002007Y10566604D01*
X31008716Y10563273D01*
X31237265Y10470702D01*
X31244398Y10468425D01*
X31484321Y10411488D01*
X31491714Y10410318D01*
X31737477Y10390328D01*
X31744984Y10390289D01*
X31990939Y10407703D01*
X31998357Y10408799D01*
X32238854Y10463218D01*
X32246015Y10465421D01*
X32475518Y10555593D01*
X32482257Y10558851D01*
X32695475Y10682698D01*
X32701664Y10686952D01*
X32808121Y10772699D01*
X32814123Y10781889D01*
X35764850Y10781889D01*
X35765272Y10779222D01*
X35767699Y10776201D01*
X35863963Y10696988D01*
X35870100Y10692675D01*
X36082007Y10566604D01*
X36088716Y10563273D01*
X36317265Y10470702D01*
X36324398Y10468425D01*
X36564321Y10411488D01*
X36571714Y10410318D01*
X36817477Y10390328D01*
X36824984Y10390289D01*
X37070939Y10407703D01*
X37078357Y10408799D01*
X37318854Y10463218D01*
X37326015Y10465421D01*
X37555518Y10555593D01*
X37562257Y10558851D01*
X37775475Y10682698D01*
X37781664Y10686952D01*
X37888121Y10772699D01*
X37895415Y10783866D01*
X37895294Y10786287D01*
X37892930Y10789938D01*
X36841086Y11841782D01*
X36837080Y11843823D01*
X36813194Y11836062D01*
X35770904Y10793772D01*
X35764850Y10781889D01*
X32814123Y10781889D01*
X32815415Y10783866D01*
X32815294Y10786287D01*
X32812930Y10789938D01*
X31761086Y11841782D01*
X31757080Y11843823D01*
X31733194Y11836062D01*
X30690904Y10793772D01*
X30684850Y10781889D01*
X24475828Y10781889D01*
X24486931Y10837706D01*
X24490945Y10857884D01*
X24492762Y10865451D01*
X24495019Y10873450D01*
X24506538Y10914274D01*
X24506613Y10915131D01*
X24506930Y10928482D01*
X24508113Y10978471D01*
X24508332Y10983119D01*
X24510741Y11017143D01*
X24512704Y11044868D01*
X24511585Y11050992D01*
X24511243Y11057216D01*
X24511250Y11057216D01*
X24510271Y11069653D01*
X24510510Y11079733D01*
X24511758Y11132419D01*
X24506514Y11183663D01*
X24506000Y11193741D01*
X24506000Y11729973D01*
X24524907Y11788164D01*
X24585683Y11827070D01*
X24593885Y11828702D01*
X24593887Y11828703D01*
X24603450Y11830605D01*
X24657691Y11866847D01*
X24661847Y11869624D01*
X24669957Y11875043D01*
X24714395Y11941550D01*
X24730000Y12020000D01*
X24730000Y12541758D01*
X28056095Y12541758D01*
X28056095Y12261223D01*
X28057406Y12249927D01*
X28085705Y12129607D01*
X28094295Y12111306D01*
X28150090Y12037422D01*
X28163416Y12025274D01*
X28243116Y11975926D01*
X28259937Y11969410D01*
X28356588Y11951342D01*
X28365678Y11950500D01*
X28893915Y11950500D01*
X28898193Y11951890D01*
X28905474Y11966180D01*
X29209594Y11966180D01*
X29213716Y11953495D01*
X29217837Y11950500D01*
X29752372Y11950500D01*
X29763668Y11951811D01*
X29883988Y11980110D01*
X29902289Y11988700D01*
X29924790Y12005693D01*
X29982621Y12025673D01*
X30041152Y12007845D01*
X30082703Y11938841D01*
X30107584Y11737657D01*
X30109067Y11730305D01*
X30175996Y11492989D01*
X30178573Y11485949D01*
X30280628Y11261490D01*
X30284245Y11254910D01*
X30419080Y11048469D01*
X30423636Y11042530D01*
X30456531Y11005804D01*
X30468065Y10999104D01*
X30471851Y10999492D01*
X30473470Y11000602D01*
X31526782Y12053914D01*
X31528823Y12057920D01*
X31524223Y12072080D01*
X31971177Y12072080D01*
X31978938Y12048194D01*
X33022419Y11004713D01*
X33034302Y10998659D01*
X33038333Y10999297D01*
X33039514Y11000196D01*
X33065572Y11028684D01*
X33070209Y11034597D01*
X33207192Y11239607D01*
X33210875Y11246143D01*
X33315280Y11469530D01*
X33317927Y11476535D01*
X33387337Y11713134D01*
X33388898Y11720477D01*
X33421879Y11966016D01*
X33422297Y11971167D01*
X33422835Y11989857D01*
X35156967Y11989857D01*
X35157321Y11982360D01*
X35187584Y11737657D01*
X35189067Y11730305D01*
X35255996Y11492989D01*
X35258573Y11485949D01*
X35360628Y11261490D01*
X35364245Y11254910D01*
X35499080Y11048469D01*
X35503636Y11042530D01*
X35536531Y11005804D01*
X35548065Y10999104D01*
X35551851Y10999492D01*
X35553470Y11000602D01*
X36606782Y12053914D01*
X36608823Y12057920D01*
X36604223Y12072080D01*
X37051177Y12072080D01*
X37058938Y12048194D01*
X38102419Y11004713D01*
X38114302Y10998659D01*
X38118333Y10999297D01*
X38119514Y11000196D01*
X38145572Y11028684D01*
X38150209Y11034597D01*
X38287192Y11239607D01*
X38290875Y11246143D01*
X38395280Y11469530D01*
X38397927Y11476535D01*
X38467337Y11713134D01*
X38468898Y11720477D01*
X38501879Y11966016D01*
X38502297Y11971167D01*
X38504925Y12062402D01*
X38504803Y12067590D01*
X38486013Y12314608D01*
X38484876Y12322032D01*
X38429203Y12562225D01*
X38426958Y12569390D01*
X38335589Y12798406D01*
X38332291Y12805138D01*
X38207333Y13017699D01*
X38203048Y13023865D01*
X38122274Y13123080D01*
X38111066Y13130316D01*
X38108510Y13130176D01*
X38105063Y13127931D01*
X37053218Y12076086D01*
X37051177Y12072080D01*
X36604223Y12072080D01*
X36601062Y12081806D01*
X35556702Y13126166D01*
X35544819Y13132220D01*
X35543529Y13132016D01*
X35538770Y13127984D01*
X35413309Y12958123D01*
X35409319Y12951762D01*
X35294511Y12733550D01*
X35291533Y12726667D01*
X35211056Y12493604D01*
X35209150Y12486341D01*
X35164851Y12243779D01*
X35164068Y12236333D01*
X35156967Y11989857D01*
X33422835Y11989857D01*
X33424925Y12062402D01*
X33424803Y12067590D01*
X33406013Y12314608D01*
X33404876Y12322032D01*
X33349203Y12562225D01*
X33346958Y12569390D01*
X33255589Y12798406D01*
X33252291Y12805138D01*
X33127333Y13017699D01*
X33123048Y13023865D01*
X33042274Y13123080D01*
X33031066Y13130316D01*
X33028510Y13130176D01*
X33025063Y13127931D01*
X31973218Y12076086D01*
X31971177Y12072080D01*
X31524223Y12072080D01*
X31521062Y12081806D01*
X30476702Y13126166D01*
X30464819Y13132220D01*
X30463529Y13132016D01*
X30458770Y13127984D01*
X30333309Y12958123D01*
X30329319Y12951762D01*
X30249709Y12800449D01*
X30205882Y12757755D01*
X30145329Y12748975D01*
X30091181Y12777464D01*
X30063095Y12846545D01*
X30063095Y13138777D01*
X30061784Y13150073D01*
X30033485Y13270393D01*
X30024895Y13288694D01*
X29979950Y13348211D01*
X30682209Y13348211D01*
X30682212Y13347041D01*
X30685595Y13341537D01*
X31738914Y12288218D01*
X31742920Y12286177D01*
X31766806Y12293938D01*
X32810022Y13337154D01*
X32816076Y13349037D01*
X32815460Y13352932D01*
X32814411Y13354302D01*
X32779406Y13385987D01*
X32773483Y13390582D01*
X32567750Y13526495D01*
X32561195Y13530143D01*
X32337282Y13633369D01*
X32330236Y13635989D01*
X32093276Y13704160D01*
X32085949Y13705678D01*
X31841382Y13737224D01*
X31833914Y13737616D01*
X31587390Y13731806D01*
X31579942Y13731063D01*
X31337148Y13688034D01*
X31329882Y13686168D01*
X31096394Y13606909D01*
X31089500Y13603969D01*
X30870690Y13490306D01*
X30864306Y13486347D01*
X30690022Y13359024D01*
X30682209Y13348211D01*
X29979950Y13348211D01*
X29969100Y13362578D01*
X29955774Y13374726D01*
X29876074Y13424074D01*
X29859253Y13430590D01*
X29762602Y13448658D01*
X29753512Y13449500D01*
X29225275Y13449500D01*
X29220997Y13448110D01*
X29209595Y13425732D01*
X29209595Y12550000D01*
X29209594Y11966180D01*
X28905474Y11966180D01*
X28909595Y11974268D01*
X28909595Y12534320D01*
X28908205Y12538598D01*
X28885827Y12550000D01*
X28071775Y12550001D01*
X28059090Y12545879D01*
X28056095Y12541758D01*
X24730000Y12541758D01*
X24730000Y12920000D01*
X24714395Y12998450D01*
X24669957Y13064957D01*
X24603450Y13109395D01*
X24525000Y13125000D01*
X23225000Y13125000D01*
X23146550Y13109395D01*
X23080043Y13064957D01*
X23035605Y12998450D01*
X23020000Y12920000D01*
X23020000Y12020000D01*
X23035605Y11941550D01*
X23080043Y11875043D01*
X23088153Y11869624D01*
X23092309Y11866847D01*
X23146550Y11830605D01*
X23156113Y11828703D01*
X23156115Y11828702D01*
X23164317Y11827070D01*
X23217700Y11797172D01*
X23244000Y11729973D01*
X23244001Y11225503D01*
X23242385Y11207710D01*
X23241135Y11203280D01*
X23241060Y11202424D01*
X23241006Y11200164D01*
X23241006Y11200161D01*
X23238358Y11088303D01*
X23236484Y11071334D01*
X23230755Y11042530D01*
X23224677Y11011975D01*
X23219043Y10993405D01*
X23199242Y10945600D01*
X23190098Y10928490D01*
X23173229Y10903244D01*
X23160918Y10888243D01*
X23040088Y10767413D01*
X23007971Y10745953D01*
X23002882Y10743845D01*
X22984309Y10738211D01*
X22965713Y10734512D01*
X22948116Y10732625D01*
X22918300Y10732108D01*
X22895835Y10731718D01*
X22876145Y10728883D01*
X22873562Y10728511D01*
X22859453Y10727500D01*
X21889674Y10727500D01*
X21831483Y10746407D01*
X21792576Y10807186D01*
X21781732Y10861700D01*
X21779395Y10873450D01*
X21734957Y10939957D01*
X21725882Y10946021D01*
X21676557Y10978978D01*
X21676558Y10978978D01*
X21668450Y10984395D01*
X21590000Y11000000D01*
X20701000Y11000000D01*
X20622550Y10984395D01*
X20614442Y10978978D01*
X20614443Y10978978D01*
X20565119Y10946021D01*
X20556043Y10939957D01*
X20511605Y10873450D01*
X20496000Y10795000D01*
X19890000Y10795000D01*
X19874395Y10873450D01*
X19829957Y10939957D01*
X19820882Y10946021D01*
X19771557Y10978978D01*
X19771558Y10978978D01*
X19763450Y10984395D01*
X19685000Y11000000D01*
X19270376Y11000000D01*
X19200373Y11028996D01*
X18720582Y11508786D01*
X18706589Y11526391D01*
X18699414Y11537893D01*
X18699413Y11537894D01*
X18696936Y11541865D01*
X18696352Y11542496D01*
X18649535Y11587147D01*
X18588136Y11645704D01*
X18582734Y11651278D01*
X18548876Y11689079D01*
X18548193Y11689600D01*
X18495498Y11724810D01*
X18491712Y11727471D01*
X18446918Y11760548D01*
X18446913Y11760551D01*
X18441902Y11764251D01*
X18436126Y11766589D01*
X18430695Y11769630D01*
X18430699Y11769636D01*
X18419676Y11775472D01*
X18385435Y11798351D01*
X18334677Y11832267D01*
X18330251Y11835404D01*
X18321757Y11841782D01*
X18282948Y11870920D01*
X18282176Y11871298D01*
X18280056Y11872176D01*
X18280053Y11872178D01*
X18232043Y11892064D01*
X18225688Y11894963D01*
X18177748Y11918917D01*
X18171665Y11920227D01*
X18171664Y11920227D01*
X18164575Y11921753D01*
X18147524Y11927072D01*
X18044934Y11969566D01*
X18039985Y11971778D01*
X17986658Y11997385D01*
X17985827Y11997605D01*
X17934346Y12007845D01*
X17932601Y12008192D01*
X17925791Y12009799D01*
X17918272Y12011856D01*
X17896134Y12017912D01*
X17844995Y12051503D01*
X17823367Y12108739D01*
X17839512Y12167756D01*
X17852520Y12181647D01*
X17851897Y12182215D01*
X17870226Y12202321D01*
X17919574Y12282021D01*
X17926090Y12298842D01*
X17944158Y12395493D01*
X17945000Y12404583D01*
X17945000Y12534320D01*
X17943610Y12538598D01*
X17921232Y12550000D01*
X17040002Y12550001D01*
X17039996Y12550000D01*
X15850680Y12550001D01*
X15837995Y12545879D01*
X15835000Y12541758D01*
X14637409Y12541758D01*
X14621232Y12550000D01*
X13740002Y12550001D01*
X13739996Y12550000D01*
X12550680Y12550001D01*
X12537995Y12545879D01*
X12535000Y12541758D01*
X12535000Y12405723D01*
X12536311Y12394427D01*
X12564610Y12274107D01*
X12573202Y12255803D01*
X12577664Y12249894D01*
X12597642Y12192062D01*
X12579812Y12133532D01*
X12530984Y12096661D01*
X12460772Y12098772D01*
X12443903Y12105759D01*
X12426790Y12114907D01*
X12376467Y12148532D01*
X12363143Y12159205D01*
X12311657Y12208308D01*
X12309411Y12210450D01*
X12306918Y12212291D01*
X12306912Y12212296D01*
X12294365Y12221561D01*
X12283171Y12231196D01*
X12252220Y12262147D01*
X12240806Y12275837D01*
X12238545Y12279875D01*
X12237992Y12280533D01*
X12198414Y12322032D01*
X12159203Y12363145D01*
X12148529Y12376470D01*
X12114909Y12426787D01*
X12105761Y12443901D01*
X12097982Y12462681D01*
X12085957Y12491713D01*
X12080324Y12510281D01*
X12068517Y12569639D01*
X12066643Y12586608D01*
X12064958Y12657731D01*
X12064958Y12657734D01*
X12064884Y12660845D01*
X12062102Y12679334D01*
X12061000Y12694064D01*
X12061000Y12995417D01*
X12535000Y12995417D01*
X12535000Y12865680D01*
X12536390Y12861402D01*
X12558768Y12850000D01*
X13424320Y12849999D01*
X13428598Y12851389D01*
X13435879Y12865680D01*
X13739999Y12865680D01*
X13744121Y12852995D01*
X13748242Y12850000D01*
X14629320Y12849999D01*
X14642005Y12854121D01*
X14645000Y12858242D01*
X14645000Y12994277D01*
X14644868Y12995417D01*
X15835000Y12995417D01*
X15835000Y12865680D01*
X15836390Y12861402D01*
X15858768Y12850000D01*
X16724320Y12849999D01*
X16728598Y12851389D01*
X16735879Y12865680D01*
X17039999Y12865680D01*
X17044121Y12852995D01*
X17048242Y12850000D01*
X17929320Y12849999D01*
X17942005Y12854121D01*
X17945000Y12858242D01*
X17945000Y12994277D01*
X17943689Y13005573D01*
X17915390Y13125893D01*
X17908808Y13139917D01*
X28056095Y13139917D01*
X28056095Y12865680D01*
X28057485Y12861402D01*
X28079863Y12850000D01*
X28893915Y12850000D01*
X28898193Y12851390D01*
X28909595Y12873768D01*
X28909596Y13433820D01*
X28905474Y13446505D01*
X28901353Y13449500D01*
X28366818Y13449500D01*
X28355522Y13448189D01*
X28235202Y13419890D01*
X28216901Y13411300D01*
X28143017Y13355505D01*
X28130869Y13342179D01*
X28081521Y13262479D01*
X28075005Y13245658D01*
X28056937Y13149007D01*
X28056095Y13139917D01*
X17908808Y13139917D01*
X17906800Y13144194D01*
X17851005Y13218078D01*
X17837679Y13230226D01*
X17757979Y13279574D01*
X17741158Y13286090D01*
X17644507Y13304158D01*
X17635417Y13305000D01*
X17055680Y13305000D01*
X17051402Y13303610D01*
X17040000Y13281232D01*
X17039999Y12865680D01*
X16735879Y12865680D01*
X16740000Y12873767D01*
X16740001Y13289320D01*
X16735879Y13302005D01*
X16731758Y13305000D01*
X16145723Y13305000D01*
X16134427Y13303689D01*
X16014107Y13275390D01*
X15995806Y13266800D01*
X15921922Y13211005D01*
X15909774Y13197679D01*
X15860426Y13117979D01*
X15853910Y13101158D01*
X15835842Y13004507D01*
X15835000Y12995417D01*
X14644868Y12995417D01*
X14643689Y13005573D01*
X14615390Y13125893D01*
X14606800Y13144194D01*
X14551005Y13218078D01*
X14537679Y13230226D01*
X14457979Y13279574D01*
X14441158Y13286090D01*
X14344507Y13304158D01*
X14335417Y13305000D01*
X13755680Y13305000D01*
X13751402Y13303610D01*
X13740000Y13281232D01*
X13739999Y12865680D01*
X13435879Y12865680D01*
X13440000Y12873767D01*
X13440001Y13289320D01*
X13435879Y13302005D01*
X13431758Y13305000D01*
X12845723Y13305000D01*
X12834427Y13303689D01*
X12714107Y13275390D01*
X12695806Y13266800D01*
X12621922Y13211005D01*
X12609774Y13197679D01*
X12560426Y13117979D01*
X12553910Y13101158D01*
X12535842Y13004507D01*
X12535000Y12995417D01*
X12061000Y12995417D01*
X12061000Y13247222D01*
X12063554Y13269565D01*
X12064903Y13275390D01*
X12067670Y13287332D01*
X12067704Y13288191D01*
X12064162Y13437697D01*
X12064284Y13445477D01*
X12064506Y13449500D01*
X12067071Y13496120D01*
X12066957Y13496972D01*
X12054593Y13559128D01*
X12053794Y13563707D01*
X12045511Y13618757D01*
X12044584Y13624918D01*
X12042154Y13630654D01*
X12040462Y13636651D01*
X12040469Y13636653D01*
X12036802Y13648570D01*
X12016862Y13748816D01*
X12015948Y13754180D01*
X12008274Y13808101D01*
X12008274Y13808103D01*
X12007614Y13812737D01*
X12007335Y13813551D01*
X11986560Y13863707D01*
X11984119Y13870244D01*
X11969133Y13915165D01*
X11967164Y13921067D01*
X11960245Y13931784D01*
X11959856Y13932386D01*
X11951561Y13948203D01*
X11951214Y13949042D01*
X11909073Y14050781D01*
X11907130Y14055863D01*
X11889084Y14107250D01*
X11889078Y14107263D01*
X11887529Y14111674D01*
X11887097Y14112417D01*
X11885815Y14114336D01*
X11856954Y14157530D01*
X11853276Y14163480D01*
X11829810Y14204619D01*
X11826725Y14210028D01*
X11817347Y14219705D01*
X11806124Y14233601D01*
X11749444Y14318430D01*
X11745377Y14325068D01*
X11722878Y14365255D01*
X11720595Y14369333D01*
X11720042Y14369991D01*
X11711243Y14379217D01*
X11676299Y14415857D01*
X11673168Y14419298D01*
X11664395Y14429408D01*
X11632607Y14466041D01*
X11627485Y14469581D01*
X11622842Y14473740D01*
X11622847Y14473745D01*
X11613367Y14481842D01*
X11572182Y14525026D01*
X11572180Y14525027D01*
X11570035Y14527277D01*
X11530085Y14559810D01*
X11522595Y14566572D01*
X11405381Y14683786D01*
X11391389Y14701391D01*
X11384214Y14712893D01*
X11384213Y14712894D01*
X11381736Y14716865D01*
X11381152Y14717496D01*
X11272933Y14820707D01*
X11267534Y14826278D01*
X11233676Y14864079D01*
X11232993Y14864600D01*
X11180298Y14899810D01*
X11176512Y14902471D01*
X11131718Y14935548D01*
X11131713Y14935551D01*
X11126702Y14939251D01*
X11120926Y14941589D01*
X11115495Y14944630D01*
X11115499Y14944636D01*
X11104476Y14950472D01*
X11083720Y14964340D01*
X11019477Y15007267D01*
X11015051Y15010404D01*
X11002271Y15020000D01*
X10967748Y15045920D01*
X10966976Y15046298D01*
X10964856Y15047176D01*
X10964853Y15047178D01*
X10916843Y15067064D01*
X10910488Y15069963D01*
X10862548Y15093917D01*
X10856465Y15095227D01*
X10856464Y15095227D01*
X10849375Y15096753D01*
X10832324Y15102072D01*
X10729734Y15144566D01*
X10724785Y15146778D01*
X10671458Y15172385D01*
X10670627Y15172605D01*
X10617402Y15183192D01*
X10610591Y15184799D01*
X10564919Y15197294D01*
X10564914Y15197295D01*
X10558911Y15198937D01*
X10552689Y15199035D01*
X10552686Y15199035D01*
X10548685Y15199097D01*
X10545441Y15199148D01*
X10527683Y15201038D01*
X10427618Y15220943D01*
X10420047Y15222761D01*
X10415460Y15224055D01*
X10371227Y15236536D01*
X10370370Y15236611D01*
X10368111Y15236665D01*
X10368108Y15236665D01*
X10307021Y15238112D01*
X10302374Y15238331D01*
X10265854Y15240917D01*
X10240626Y15242703D01*
X10234502Y15241584D01*
X10228278Y15241242D01*
X10228278Y15241249D01*
X10215847Y15240272D01*
X10183508Y15241038D01*
X10153082Y15241759D01*
X10102776Y15236611D01*
X10101828Y15236514D01*
X10091750Y15236000D01*
X7571077Y15236000D01*
X7512886Y15254907D01*
X7489981Y15278216D01*
X7424539Y15371676D01*
X7365009Y15456694D01*
X7201694Y15620009D01*
X7012500Y15752484D01*
X6803177Y15850093D01*
X6759154Y15861889D01*
X7824850Y15861889D01*
X7825272Y15859222D01*
X7827699Y15856201D01*
X7923963Y15776988D01*
X7930100Y15772675D01*
X8142007Y15646604D01*
X8148716Y15643273D01*
X8377265Y15550702D01*
X8384398Y15548425D01*
X8624321Y15491488D01*
X8631714Y15490318D01*
X8877477Y15470328D01*
X8884984Y15470289D01*
X9130939Y15487703D01*
X9138357Y15488799D01*
X9378854Y15543218D01*
X9386015Y15545421D01*
X9615518Y15635593D01*
X9622257Y15638851D01*
X9835475Y15762698D01*
X9841664Y15766952D01*
X9894210Y15809276D01*
X13274696Y15809276D01*
X13290301Y15730826D01*
X13334739Y15664319D01*
X13963357Y15035701D01*
X14029864Y14991263D01*
X14108314Y14975658D01*
X14186764Y14991263D01*
X14253271Y15035701D01*
X14546455Y15328885D01*
X14616459Y15357881D01*
X16031418Y15357881D01*
X16101421Y15328884D01*
X16152376Y15277929D01*
X16187750Y15259905D01*
X16230522Y15238112D01*
X16270504Y15217740D01*
X16278198Y15216521D01*
X16278199Y15216521D01*
X16397604Y15197609D01*
X16397606Y15197609D01*
X16401450Y15197000D01*
X16838949Y15197000D01*
X16842793Y15197609D01*
X16842795Y15197609D01*
X16962200Y15216521D01*
X16962201Y15216521D01*
X16969895Y15217740D01*
X16977671Y15221702D01*
X17081084Y15274393D01*
X17081086Y15274394D01*
X17088023Y15277929D01*
X17181770Y15371676D01*
X17185307Y15378616D01*
X17238422Y15482862D01*
X17238423Y15482865D01*
X17241959Y15489804D01*
X17262700Y15620750D01*
X17262700Y16383249D01*
X17262700Y16383250D01*
X18102700Y16383250D01*
X18102700Y15620751D01*
X18123440Y15489805D01*
X18183629Y15371677D01*
X18277376Y15277929D01*
X18312750Y15259905D01*
X18355522Y15238112D01*
X18395504Y15217740D01*
X18403198Y15216521D01*
X18403199Y15216521D01*
X18522604Y15197609D01*
X18522606Y15197609D01*
X18526450Y15197000D01*
X18963949Y15197000D01*
X18967793Y15197609D01*
X18967795Y15197609D01*
X19087200Y15216521D01*
X19087201Y15216521D01*
X19094895Y15217740D01*
X19102671Y15221702D01*
X19206084Y15274393D01*
X19206086Y15274394D01*
X19213023Y15277929D01*
X19277098Y15342004D01*
X19347102Y15371000D01*
X22811198Y15371000D01*
X22828987Y15369384D01*
X22833414Y15368135D01*
X22834271Y15368060D01*
X22836530Y15368007D01*
X22836533Y15368006D01*
X22918697Y15366061D01*
X22923343Y15365951D01*
X22981070Y15345672D01*
X23020000Y15266979D01*
X23020000Y15020000D01*
X23035605Y14941550D01*
X23080043Y14875043D01*
X23146550Y14830605D01*
X23225000Y14815000D01*
X24525000Y14815000D01*
X24603450Y14830605D01*
X24669957Y14875043D01*
X24714395Y14941550D01*
X24730000Y15020000D01*
X24730000Y15920000D01*
X24714395Y15998450D01*
X24669957Y16064957D01*
X24648496Y16079297D01*
X24611557Y16103978D01*
X24611558Y16103978D01*
X24603450Y16109395D01*
X24525000Y16125000D01*
X24160979Y16125000D01*
X24092653Y16152359D01*
X24024147Y16217695D01*
X24018728Y16223285D01*
X23987998Y16257595D01*
X23987994Y16257598D01*
X23984876Y16261080D01*
X23984193Y16261601D01*
X23966907Y16273151D01*
X23951904Y16285463D01*
X23904484Y16332883D01*
X26038405Y16332883D01*
X26038405Y15443883D01*
X26054010Y15365433D01*
X26098448Y15298926D01*
X26164955Y15254488D01*
X26243405Y15238883D01*
X26658031Y15238883D01*
X26728035Y15209886D01*
X26922683Y15015237D01*
X27116834Y14821086D01*
X27131347Y14802637D01*
X27138424Y14791035D01*
X27139001Y14790398D01*
X27240344Y14691786D01*
X27254759Y14677759D01*
X27263622Y14667895D01*
X27282501Y14643818D01*
X27283149Y14643252D01*
X27284950Y14641870D01*
X27284952Y14641868D01*
X27315258Y14618614D01*
X27316965Y14617229D01*
X27318205Y14616022D01*
X27320691Y14614147D01*
X27320695Y14614144D01*
X27342826Y14597456D01*
X27343365Y14597046D01*
X27519231Y14462102D01*
X27528212Y14454308D01*
X27553638Y14429408D01*
X27554354Y14428932D01*
X27556329Y14427792D01*
X27556331Y14427790D01*
X27630597Y14384913D01*
X27631045Y14384653D01*
X27686916Y14352004D01*
X27686921Y14352002D01*
X27689701Y14350377D01*
X27690800Y14350064D01*
X27691963Y14349483D01*
X27812058Y14280146D01*
X27821989Y14273585D01*
X27850443Y14252221D01*
X27851215Y14251843D01*
X27925866Y14220921D01*
X27932338Y14218240D01*
X27932814Y14218041D01*
X27992678Y14192877D01*
X27992686Y14192874D01*
X27995653Y14191627D01*
X27996782Y14191460D01*
X27998033Y14191028D01*
X28092682Y14151823D01*
X28117778Y14141428D01*
X28170345Y14088862D01*
X28171700Y14082050D01*
X28177116Y14073944D01*
X28177117Y14073942D01*
X28192593Y14050781D01*
X28216138Y14015543D01*
X28282645Y13971105D01*
X28361095Y13955500D01*
X29758095Y13955500D01*
X29836545Y13971105D01*
X29836818Y13969735D01*
X29858256Y13974000D01*
X33068923Y13974000D01*
X33127114Y13955093D01*
X33150019Y13931784D01*
X33161656Y13915165D01*
X33274991Y13753306D01*
X33438306Y13589991D01*
X33482392Y13559122D01*
X33613823Y13467093D01*
X33627500Y13457516D01*
X33836823Y13359907D01*
X34059916Y13300130D01*
X34290000Y13280000D01*
X34520084Y13300130D01*
X34699526Y13348211D01*
X35762209Y13348211D01*
X35762212Y13347041D01*
X35765595Y13341537D01*
X36818914Y12288218D01*
X36822920Y12286177D01*
X36846806Y12293938D01*
X37890022Y13337154D01*
X37896076Y13349037D01*
X37895460Y13352932D01*
X37894411Y13354302D01*
X37859406Y13385987D01*
X37853483Y13390582D01*
X37647750Y13526495D01*
X37641195Y13530143D01*
X37417282Y13633369D01*
X37410236Y13635989D01*
X37173276Y13704160D01*
X37165949Y13705678D01*
X36921382Y13737224D01*
X36913914Y13737616D01*
X36667390Y13731806D01*
X36659942Y13731063D01*
X36417148Y13688034D01*
X36409882Y13686168D01*
X36176394Y13606909D01*
X36169500Y13603969D01*
X35950690Y13490306D01*
X35944306Y13486347D01*
X35770022Y13359024D01*
X35762209Y13348211D01*
X34699526Y13348211D01*
X34743177Y13359907D01*
X34952500Y13457516D01*
X34966178Y13467093D01*
X35097608Y13559122D01*
X35141694Y13589991D01*
X35305009Y13753306D01*
X35418344Y13915165D01*
X35435002Y13938955D01*
X35435003Y13938957D01*
X35437484Y13942500D01*
X35535093Y14151823D01*
X35594870Y14374916D01*
X35615000Y14605000D01*
X35594870Y14835084D01*
X35535093Y15058177D01*
X35437484Y15267500D01*
X35432658Y15274393D01*
X35374587Y15357326D01*
X35305009Y15456694D01*
X35141694Y15620009D01*
X34952500Y15752484D01*
X34743177Y15850093D01*
X34699154Y15861889D01*
X35764850Y15861889D01*
X35765272Y15859222D01*
X35767699Y15856201D01*
X35863963Y15776988D01*
X35870100Y15772675D01*
X36082007Y15646604D01*
X36088716Y15643273D01*
X36317265Y15550702D01*
X36324398Y15548425D01*
X36564321Y15491488D01*
X36571714Y15490318D01*
X36817477Y15470328D01*
X36824984Y15470289D01*
X37070939Y15487703D01*
X37078357Y15488799D01*
X37318854Y15543218D01*
X37326015Y15545421D01*
X37555518Y15635593D01*
X37562257Y15638851D01*
X37775475Y15762698D01*
X37781664Y15766952D01*
X37888121Y15852699D01*
X37895415Y15863866D01*
X37895294Y15866287D01*
X37892930Y15869938D01*
X36841086Y16921782D01*
X36837080Y16923823D01*
X36813194Y16916062D01*
X35770904Y15873772D01*
X35764850Y15861889D01*
X34699154Y15861889D01*
X34520084Y15909870D01*
X34290000Y15930000D01*
X34059916Y15909870D01*
X33836823Y15850093D01*
X33627500Y15752484D01*
X33438306Y15620009D01*
X33274991Y15456694D01*
X33215461Y15371676D01*
X33150019Y15278216D01*
X33101154Y15241394D01*
X33068923Y15236000D01*
X29858256Y15236000D01*
X29836818Y15240265D01*
X29836545Y15238895D01*
X29758095Y15254500D01*
X28881959Y15254500D01*
X28869039Y15255347D01*
X28851103Y15257708D01*
X28793822Y15265249D01*
X28781121Y15267775D01*
X28621173Y15310633D01*
X28608910Y15314796D01*
X28534370Y15345672D01*
X28455918Y15378169D01*
X28444314Y15383891D01*
X28312927Y15459748D01*
X28300907Y15466688D01*
X28290140Y15473882D01*
X28154770Y15577754D01*
X28145996Y15585343D01*
X28091006Y15638851D01*
X28054673Y15674205D01*
X28052189Y15676078D01*
X28052182Y15676084D01*
X28034891Y15689121D01*
X28024490Y15698165D01*
X27874401Y15848255D01*
X27868754Y15861889D01*
X30684850Y15861889D01*
X30685272Y15859222D01*
X30687699Y15856201D01*
X30783963Y15776988D01*
X30790100Y15772675D01*
X31002007Y15646604D01*
X31008716Y15643273D01*
X31237265Y15550702D01*
X31244398Y15548425D01*
X31484321Y15491488D01*
X31491714Y15490318D01*
X31737477Y15470328D01*
X31744984Y15470289D01*
X31990939Y15487703D01*
X31998357Y15488799D01*
X32238854Y15543218D01*
X32246015Y15545421D01*
X32475518Y15635593D01*
X32482257Y15638851D01*
X32695475Y15762698D01*
X32701664Y15766952D01*
X32808121Y15852699D01*
X32815415Y15863866D01*
X32815294Y15866287D01*
X32812930Y15869938D01*
X31761086Y16921782D01*
X31757080Y16923823D01*
X31733194Y16916062D01*
X30690904Y15873772D01*
X30684850Y15861889D01*
X27868754Y15861889D01*
X27845405Y15918258D01*
X27845405Y16332883D01*
X27829800Y16411333D01*
X27785362Y16477840D01*
X27777230Y16483274D01*
X27726962Y16516861D01*
X27726963Y16516861D01*
X27718855Y16522278D01*
X27640405Y16537883D01*
X26243405Y16537883D01*
X26164955Y16522278D01*
X26156847Y16516861D01*
X26156848Y16516861D01*
X26106581Y16483274D01*
X26098448Y16477840D01*
X26054010Y16411333D01*
X26038405Y16332883D01*
X23904484Y16332883D01*
X23888197Y16349170D01*
X23793750Y16422432D01*
X23754157Y16439565D01*
X23653151Y16483274D01*
X23653150Y16483274D01*
X23647438Y16485746D01*
X23641290Y16486720D01*
X23641289Y16486720D01*
X23613540Y16491115D01*
X23608187Y16492114D01*
X23600571Y16493754D01*
X23583527Y16499072D01*
X23547014Y16514196D01*
X23480943Y16541563D01*
X23476006Y16543768D01*
X23435096Y16563414D01*
X23426869Y16567364D01*
X23426868Y16567364D01*
X23422658Y16569386D01*
X23421827Y16569606D01*
X23419573Y16570054D01*
X23419571Y16570055D01*
X23387405Y16576453D01*
X23368606Y16580192D01*
X23361803Y16581797D01*
X23349194Y16585246D01*
X23316121Y16594295D01*
X23316118Y16594295D01*
X23310114Y16595938D01*
X23303887Y16596036D01*
X23296637Y16596150D01*
X23278881Y16598040D01*
X23178819Y16617943D01*
X23171248Y16619761D01*
X23126887Y16632278D01*
X23126883Y16632279D01*
X23122420Y16633538D01*
X23121564Y16633613D01*
X23084779Y16634484D01*
X23058222Y16635113D01*
X23053574Y16635332D01*
X23018291Y16637830D01*
X22991826Y16639704D01*
X22985702Y16638585D01*
X22979478Y16638243D01*
X22979478Y16638250D01*
X22967045Y16637271D01*
X22904276Y16638758D01*
X22853032Y16633514D01*
X22842954Y16633000D01*
X19347101Y16633000D01*
X19277097Y16661997D01*
X19218534Y16720561D01*
X19213024Y16726071D01*
X19094896Y16786260D01*
X19087202Y16787479D01*
X19087201Y16787479D01*
X18967796Y16806391D01*
X18967794Y16806391D01*
X18963950Y16807000D01*
X18526451Y16807000D01*
X18522607Y16806391D01*
X18522605Y16806391D01*
X18403200Y16787479D01*
X18403199Y16787479D01*
X18395505Y16786260D01*
X18388566Y16782724D01*
X18388565Y16782724D01*
X18284316Y16729607D01*
X18284314Y16729606D01*
X18277377Y16726071D01*
X18183630Y16632324D01*
X18180095Y16625387D01*
X18180094Y16625385D01*
X18135510Y16537883D01*
X18123441Y16514196D01*
X18102700Y16383250D01*
X17262700Y16383250D01*
X17262091Y16387095D01*
X17243179Y16506500D01*
X17243179Y16506501D01*
X17241960Y16514195D01*
X17181771Y16632323D01*
X17088024Y16726071D01*
X16969896Y16786260D01*
X16962202Y16787479D01*
X16962201Y16787479D01*
X16842796Y16806391D01*
X16842794Y16806391D01*
X16838950Y16807000D01*
X16401451Y16807000D01*
X16397607Y16806391D01*
X16397605Y16806391D01*
X16278200Y16787479D01*
X16278199Y16787479D01*
X16270505Y16786260D01*
X16263566Y16782724D01*
X16263565Y16782724D01*
X16159316Y16729607D01*
X16159314Y16729606D01*
X16152377Y16726071D01*
X16075183Y16648877D01*
X16005179Y16619881D01*
X14975669Y16619881D01*
X14905665Y16648877D01*
X14612481Y16942061D01*
X14545974Y16986499D01*
X14467524Y17002104D01*
X14389074Y16986499D01*
X14322567Y16942061D01*
X13334739Y15954233D01*
X13290301Y15887726D01*
X13274696Y15809276D01*
X9894210Y15809276D01*
X9948121Y15852699D01*
X9955415Y15863866D01*
X9955294Y15866287D01*
X9952930Y15869938D01*
X8901086Y16921782D01*
X8897080Y16923823D01*
X8873194Y16916062D01*
X7830904Y15873772D01*
X7824850Y15861889D01*
X6759154Y15861889D01*
X6580084Y15909870D01*
X6350000Y15930000D01*
X6119916Y15909870D01*
X5896823Y15850093D01*
X5687500Y15752484D01*
X5498306Y15620009D01*
X5334991Y15456694D01*
X5265413Y15357326D01*
X5207343Y15274393D01*
X5202516Y15267500D01*
X5104907Y15058177D01*
X5045130Y14835084D01*
X5025000Y14605000D01*
X454000Y14605000D01*
X454000Y15861889D01*
X2744850Y15861889D01*
X2745272Y15859222D01*
X2747699Y15856201D01*
X2843963Y15776988D01*
X2850100Y15772675D01*
X3062007Y15646604D01*
X3068716Y15643273D01*
X3297265Y15550702D01*
X3304398Y15548425D01*
X3544321Y15491488D01*
X3551714Y15490318D01*
X3797477Y15470328D01*
X3804984Y15470289D01*
X4050939Y15487703D01*
X4058357Y15488799D01*
X4298854Y15543218D01*
X4306015Y15545421D01*
X4535518Y15635593D01*
X4542257Y15638851D01*
X4755475Y15762698D01*
X4761664Y15766952D01*
X4868121Y15852699D01*
X4875415Y15863866D01*
X4875294Y15866287D01*
X4872930Y15869938D01*
X3821086Y16921782D01*
X3817080Y16923823D01*
X3793194Y16916062D01*
X2750904Y15873772D01*
X2744850Y15861889D01*
X454000Y15861889D01*
X454000Y17069857D01*
X2136967Y17069857D01*
X2137321Y17062360D01*
X2167584Y16817657D01*
X2169067Y16810305D01*
X2235996Y16572989D01*
X2238573Y16565949D01*
X2340628Y16341490D01*
X2344245Y16334910D01*
X2479080Y16128469D01*
X2483636Y16122530D01*
X2516531Y16085804D01*
X2528065Y16079104D01*
X2531851Y16079492D01*
X2533470Y16080602D01*
X3586782Y17133914D01*
X3588823Y17137920D01*
X3584223Y17152080D01*
X4031177Y17152080D01*
X4038938Y17128194D01*
X5082419Y16084713D01*
X5094302Y16078659D01*
X5098333Y16079297D01*
X5099514Y16080196D01*
X5125572Y16108684D01*
X5130209Y16114597D01*
X5267192Y16319607D01*
X5270875Y16326143D01*
X5375280Y16549530D01*
X5377927Y16556535D01*
X5447337Y16793134D01*
X5448898Y16800477D01*
X5481879Y17046016D01*
X5482297Y17051167D01*
X5482835Y17069857D01*
X7216967Y17069857D01*
X7217321Y17062360D01*
X7247584Y16817657D01*
X7249067Y16810305D01*
X7315996Y16572989D01*
X7318573Y16565949D01*
X7420628Y16341490D01*
X7424245Y16334910D01*
X7559080Y16128469D01*
X7563636Y16122530D01*
X7596531Y16085804D01*
X7608065Y16079104D01*
X7611851Y16079492D01*
X7613470Y16080602D01*
X8666782Y17133914D01*
X8668823Y17137920D01*
X8664223Y17152080D01*
X9111177Y17152080D01*
X9118938Y17128194D01*
X10162419Y16084713D01*
X10174302Y16078659D01*
X10178333Y16079297D01*
X10179514Y16080196D01*
X10205572Y16108684D01*
X10210209Y16114597D01*
X10347192Y16319607D01*
X10350875Y16326143D01*
X10455280Y16549530D01*
X10457927Y16556535D01*
X10527337Y16793134D01*
X10528898Y16800477D01*
X10561879Y17046016D01*
X10562297Y17051167D01*
X10564925Y17142402D01*
X10564803Y17147590D01*
X10564140Y17156314D01*
X11927658Y17156314D01*
X11943263Y17077864D01*
X11987701Y17011357D01*
X12616319Y16382739D01*
X12682826Y16338301D01*
X12761276Y16322696D01*
X12839726Y16338301D01*
X12906233Y16382739D01*
X13593351Y17069857D01*
X30076967Y17069857D01*
X30077321Y17062360D01*
X30107584Y16817657D01*
X30109067Y16810305D01*
X30175996Y16572989D01*
X30178573Y16565949D01*
X30280628Y16341490D01*
X30284245Y16334910D01*
X30419080Y16128469D01*
X30423636Y16122530D01*
X30456531Y16085804D01*
X30468065Y16079104D01*
X30471851Y16079492D01*
X30473470Y16080602D01*
X31526782Y17133914D01*
X31528823Y17137920D01*
X31524223Y17152080D01*
X31971177Y17152080D01*
X31978938Y17128194D01*
X33022419Y16084713D01*
X33034302Y16078659D01*
X33038333Y16079297D01*
X33039514Y16080196D01*
X33065572Y16108684D01*
X33070209Y16114597D01*
X33207192Y16319607D01*
X33210875Y16326143D01*
X33315280Y16549530D01*
X33317927Y16556535D01*
X33387337Y16793134D01*
X33388898Y16800477D01*
X33421879Y17046016D01*
X33422297Y17051167D01*
X33422835Y17069857D01*
X35156967Y17069857D01*
X35157321Y17062360D01*
X35187584Y16817657D01*
X35189067Y16810305D01*
X35255996Y16572989D01*
X35258573Y16565949D01*
X35360628Y16341490D01*
X35364245Y16334910D01*
X35499080Y16128469D01*
X35503636Y16122530D01*
X35536531Y16085804D01*
X35548065Y16079104D01*
X35551851Y16079492D01*
X35553470Y16080602D01*
X36606782Y17133914D01*
X36608823Y17137920D01*
X36604223Y17152080D01*
X37051177Y17152080D01*
X37058938Y17128194D01*
X38102419Y16084713D01*
X38114302Y16078659D01*
X38118333Y16079297D01*
X38119514Y16080196D01*
X38145572Y16108684D01*
X38150209Y16114597D01*
X38287192Y16319607D01*
X38290875Y16326143D01*
X38395280Y16549530D01*
X38397927Y16556535D01*
X38467337Y16793134D01*
X38468898Y16800477D01*
X38501879Y17046016D01*
X38502297Y17051167D01*
X38504925Y17142402D01*
X38504803Y17147590D01*
X38486013Y17394608D01*
X38484876Y17402032D01*
X38429203Y17642225D01*
X38426958Y17649390D01*
X38335589Y17878406D01*
X38332291Y17885138D01*
X38207333Y18097699D01*
X38203048Y18103865D01*
X38122274Y18203080D01*
X38111066Y18210316D01*
X38108510Y18210176D01*
X38105063Y18207931D01*
X37053218Y17156086D01*
X37051177Y17152080D01*
X36604223Y17152080D01*
X36601062Y17161806D01*
X35556702Y18206166D01*
X35544819Y18212220D01*
X35543529Y18212016D01*
X35538770Y18207984D01*
X35413309Y18038123D01*
X35409319Y18031762D01*
X35294511Y17813550D01*
X35291533Y17806667D01*
X35211056Y17573604D01*
X35209150Y17566341D01*
X35164851Y17323779D01*
X35164068Y17316333D01*
X35156967Y17069857D01*
X33422835Y17069857D01*
X33424925Y17142402D01*
X33424803Y17147590D01*
X33406013Y17394608D01*
X33404876Y17402032D01*
X33349203Y17642225D01*
X33346958Y17649390D01*
X33255589Y17878406D01*
X33252291Y17885138D01*
X33127333Y18097699D01*
X33123048Y18103865D01*
X33042274Y18203080D01*
X33031066Y18210316D01*
X33028510Y18210176D01*
X33025063Y18207931D01*
X31973218Y17156086D01*
X31971177Y17152080D01*
X31524223Y17152080D01*
X31521062Y17161806D01*
X30476702Y18206166D01*
X30464819Y18212220D01*
X30463529Y18212016D01*
X30458770Y18207984D01*
X30333309Y18038123D01*
X30329319Y18031762D01*
X30214511Y17813550D01*
X30211533Y17806667D01*
X30131056Y17573604D01*
X30129150Y17566341D01*
X30084851Y17323779D01*
X30084068Y17316333D01*
X30076967Y17069857D01*
X13593351Y17069857D01*
X13894061Y17370567D01*
X13938499Y17437074D01*
X13954104Y17515524D01*
X13938499Y17593974D01*
X13894061Y17660481D01*
X13679996Y17874546D01*
X13651000Y17944550D01*
X13651000Y18415000D01*
X13999500Y18415000D01*
X14020132Y18258285D01*
X14080622Y18112250D01*
X14176847Y17986847D01*
X14302250Y17890622D01*
X14448285Y17830132D01*
X14605000Y17809500D01*
X14761715Y17830132D01*
X14907750Y17890622D01*
X15033153Y17986847D01*
X15129378Y18112250D01*
X15189235Y18256758D01*
X16141500Y18256758D01*
X16141500Y17976223D01*
X16142811Y17964927D01*
X16171110Y17844607D01*
X16179700Y17826306D01*
X16235495Y17752422D01*
X16248821Y17740274D01*
X16328521Y17690926D01*
X16345342Y17684410D01*
X16441993Y17666342D01*
X16451083Y17665500D01*
X16979320Y17665500D01*
X16983598Y17666890D01*
X16990879Y17681180D01*
X17294999Y17681180D01*
X17299121Y17668495D01*
X17303242Y17665500D01*
X17837777Y17665500D01*
X17849073Y17666811D01*
X17969393Y17695110D01*
X17987694Y17703700D01*
X18061578Y17759495D01*
X18073726Y17772821D01*
X18123074Y17852521D01*
X18129590Y17869342D01*
X18147658Y17965993D01*
X18148500Y17975083D01*
X18148500Y18249320D01*
X18147110Y18253598D01*
X18140909Y18256758D01*
X21856500Y18256758D01*
X21856500Y17976223D01*
X21857811Y17964927D01*
X21886110Y17844607D01*
X21894700Y17826306D01*
X21950495Y17752422D01*
X21963821Y17740274D01*
X22043521Y17690926D01*
X22060342Y17684410D01*
X22156993Y17666342D01*
X22166083Y17665500D01*
X22694320Y17665500D01*
X22698598Y17666890D01*
X22705879Y17681180D01*
X23009999Y17681180D01*
X23014121Y17668495D01*
X23018242Y17665500D01*
X23552777Y17665500D01*
X23564073Y17666811D01*
X23684393Y17695110D01*
X23702694Y17703700D01*
X23776578Y17759495D01*
X23788726Y17772821D01*
X23838074Y17852521D01*
X23844590Y17869342D01*
X23862658Y17965993D01*
X23863500Y17975083D01*
X23863500Y18249320D01*
X23862110Y18253598D01*
X23839732Y18265000D01*
X23025680Y18265001D01*
X23021402Y18263611D01*
X23010000Y18241233D01*
X23009999Y17681180D01*
X22705879Y17681180D01*
X22710000Y17689268D01*
X22710001Y18249320D01*
X22705879Y18262005D01*
X22701758Y18265000D01*
X21872180Y18265001D01*
X21859495Y18260879D01*
X21856500Y18256758D01*
X18140909Y18256758D01*
X18124732Y18265000D01*
X17310680Y18265001D01*
X17306402Y18263611D01*
X17295000Y18241233D01*
X17294999Y17681180D01*
X16990879Y17681180D01*
X16995000Y17689268D01*
X16995001Y18249320D01*
X16990879Y18262005D01*
X16986758Y18265000D01*
X16157180Y18265001D01*
X16144495Y18260879D01*
X16141500Y18256758D01*
X15189235Y18256758D01*
X15189868Y18258285D01*
X15210500Y18415000D01*
X15210780Y18414963D01*
X15238649Y18482246D01*
X15248056Y18491653D01*
X15259007Y18513146D01*
X15267119Y18526385D01*
X15281302Y18545906D01*
X15288757Y18568849D01*
X15294700Y18583197D01*
X15305653Y18604694D01*
X15309427Y18628521D01*
X15313051Y18643618D01*
X15320507Y18666565D01*
X15320507Y18793433D01*
X15320502Y18793448D01*
X15320500Y18793478D01*
X15320500Y18854917D01*
X16141500Y18854917D01*
X16141500Y18580680D01*
X16142890Y18576402D01*
X16165268Y18565000D01*
X16979320Y18564999D01*
X16983598Y18566389D01*
X16990879Y18580680D01*
X17294999Y18580680D01*
X17299121Y18567995D01*
X17303242Y18565000D01*
X18132820Y18564999D01*
X18145505Y18569121D01*
X18148500Y18573242D01*
X18148500Y18853777D01*
X18148368Y18854917D01*
X21856500Y18854917D01*
X21856500Y18580680D01*
X21857890Y18576402D01*
X21880268Y18565000D01*
X22694320Y18564999D01*
X22698598Y18566389D01*
X22705879Y18580680D01*
X23009999Y18580680D01*
X23014121Y18567995D01*
X23018242Y18565000D01*
X23847820Y18564999D01*
X23860505Y18569121D01*
X23863500Y18573242D01*
X23863500Y18853777D01*
X23862189Y18865073D01*
X23833890Y18985393D01*
X23825300Y19003694D01*
X23769505Y19077578D01*
X23756179Y19089726D01*
X23676479Y19139074D01*
X23659658Y19145590D01*
X23563007Y19163658D01*
X23553917Y19164500D01*
X23025680Y19164500D01*
X23021402Y19163110D01*
X23010000Y19140732D01*
X23009999Y18580680D01*
X22705879Y18580680D01*
X22710000Y18588767D01*
X22710001Y19148820D01*
X22705879Y19161505D01*
X22701758Y19164500D01*
X22167223Y19164500D01*
X22155927Y19163189D01*
X22035607Y19134890D01*
X22017306Y19126300D01*
X21943422Y19070505D01*
X21931274Y19057179D01*
X21881926Y18977479D01*
X21875410Y18960658D01*
X21857342Y18864007D01*
X21856500Y18854917D01*
X18148368Y18854917D01*
X18147189Y18865073D01*
X18118890Y18985393D01*
X18110300Y19003694D01*
X18054505Y19077578D01*
X18041179Y19089726D01*
X17961479Y19139074D01*
X17944658Y19145590D01*
X17848007Y19163658D01*
X17838917Y19164500D01*
X17310680Y19164500D01*
X17306402Y19163110D01*
X17295000Y19140732D01*
X17294999Y18580680D01*
X16990879Y18580680D01*
X16995000Y18588767D01*
X16995001Y19148820D01*
X16990879Y19161505D01*
X16986758Y19164500D01*
X16452223Y19164500D01*
X16440927Y19163189D01*
X16320607Y19134890D01*
X16302306Y19126300D01*
X16228422Y19070505D01*
X16216274Y19057179D01*
X16166926Y18977479D01*
X16160410Y18960658D01*
X16142342Y18864007D01*
X16141500Y18854917D01*
X15320500Y18854917D01*
X15320500Y19225717D01*
X15339407Y19283908D01*
X15364500Y19308033D01*
X15381846Y19319623D01*
X15381847Y19319624D01*
X15389957Y19325043D01*
X15434395Y19391550D01*
X15450000Y19470000D01*
X15450000Y19617432D01*
X15468907Y19675623D01*
X15518407Y19711587D01*
X15573619Y19713322D01*
X15668288Y19689015D01*
X15668526Y19689000D01*
X16346339Y19689000D01*
X16367777Y19684735D01*
X16368050Y19686105D01*
X16446500Y19670500D01*
X17843500Y19670500D01*
X17921950Y19686105D01*
X17922223Y19684735D01*
X17943661Y19689000D01*
X18305826Y19689000D01*
X18364017Y19670093D01*
X18402924Y19609314D01*
X18416105Y19543050D01*
X18460543Y19476543D01*
X18468653Y19471124D01*
X18477461Y19465239D01*
X18527050Y19432105D01*
X18605500Y19416500D01*
X19494500Y19416500D01*
X19572950Y19432105D01*
X19622539Y19465239D01*
X19631347Y19471124D01*
X19639457Y19476543D01*
X19683895Y19543050D01*
X19699500Y19621500D01*
X19699500Y21018500D01*
X19683895Y21096950D01*
X19639457Y21163457D01*
X19572950Y21207895D01*
X19494500Y21223500D01*
X18605500Y21223500D01*
X18527050Y21207895D01*
X18460543Y21163457D01*
X18416105Y21096950D01*
X18414203Y21087388D01*
X18402924Y21030686D01*
X18373027Y20977302D01*
X18305826Y20951000D01*
X17943661Y20951000D01*
X17922223Y20955265D01*
X17921950Y20953895D01*
X17843500Y20969500D01*
X16446500Y20969500D01*
X16368050Y20953895D01*
X16367777Y20955265D01*
X16346339Y20951000D01*
X15708421Y20951000D01*
X15622055Y20940090D01*
X15596014Y20936800D01*
X15596013Y20936800D01*
X15589833Y20936019D01*
X15584042Y20933726D01*
X15578008Y20932177D01*
X15577594Y20933788D01*
X15524385Y20930438D01*
X15472723Y20963220D01*
X15450000Y21026329D01*
X15450000Y21170000D01*
X15434395Y21248450D01*
X15389957Y21314957D01*
X15381847Y21320376D01*
X15381846Y21320377D01*
X15364500Y21331967D01*
X15326620Y21380016D01*
X15320500Y21414283D01*
X15320500Y21632802D01*
X15349496Y21702806D01*
X15636216Y21989526D01*
X15719142Y22017675D01*
X15843166Y22001347D01*
X15849600Y22000500D01*
X16006315Y22021132D01*
X16152350Y22081622D01*
X16277753Y22177847D01*
X16373978Y22303250D01*
X16434468Y22449285D01*
X16445922Y22536288D01*
X16474071Y22593369D01*
X19981019Y26100316D01*
X19989733Y26108058D01*
X20017045Y26129589D01*
X20018204Y26128118D01*
X20063447Y26152992D01*
X20124150Y26145325D01*
X20168753Y26103442D01*
X20181000Y26055746D01*
X20181000Y25517723D01*
X20182311Y25506427D01*
X20210610Y25386107D01*
X20219200Y25367806D01*
X20274995Y25293922D01*
X20288321Y25281774D01*
X20368021Y25232426D01*
X20384842Y25225910D01*
X20481493Y25207842D01*
X20490583Y25207000D01*
X21170320Y25207000D01*
X21174598Y25208390D01*
X21181879Y25222680D01*
X21485999Y25222680D01*
X21490121Y25209995D01*
X21494242Y25207000D01*
X22180277Y25207000D01*
X22191573Y25208311D01*
X22311893Y25236610D01*
X22330194Y25245200D01*
X22404078Y25300995D01*
X22416226Y25314321D01*
X22465574Y25394021D01*
X22472090Y25410842D01*
X22490158Y25507493D01*
X22491000Y25516583D01*
X22491000Y25996320D01*
X22489610Y26000598D01*
X22467232Y26012000D01*
X21501680Y26012001D01*
X21497402Y26010611D01*
X21486000Y25988233D01*
X21485999Y25222680D01*
X21181879Y25222680D01*
X21186000Y25230768D01*
X21186001Y26012000D01*
X21186000Y26012004D01*
X21186000Y26327680D01*
X21485999Y26327680D01*
X21490121Y26314995D01*
X21494242Y26312000D01*
X22475320Y26311999D01*
X22488005Y26316121D01*
X22491000Y26320242D01*
X22491000Y26806277D01*
X22489689Y26817573D01*
X22461390Y26937893D01*
X22452800Y26956194D01*
X22397005Y27030078D01*
X22383679Y27042226D01*
X22303979Y27091574D01*
X22287158Y27098090D01*
X22190507Y27116158D01*
X22181417Y27117000D01*
X21501680Y27117000D01*
X21497402Y27115610D01*
X21486000Y27093232D01*
X21485999Y26327680D01*
X21186000Y26327680D01*
X21186001Y27101320D01*
X21181879Y27114005D01*
X21177758Y27117000D01*
X20491723Y27117000D01*
X20480427Y27115689D01*
X20360107Y27087390D01*
X20341804Y27078798D01*
X20294160Y27042820D01*
X20236329Y27022841D01*
X20177799Y27040670D01*
X20140927Y27089497D01*
X20135500Y27121824D01*
X20135500Y28848301D01*
X20154407Y28906492D01*
X20203907Y28942456D01*
X20265093Y28942456D01*
X20316816Y28903302D01*
X20341043Y28867043D01*
X20407550Y28822605D01*
X20486000Y28807000D01*
X22186000Y28807000D01*
X22264450Y28822605D01*
X22330957Y28867043D01*
X22375395Y28933550D01*
X22391000Y29012000D01*
X22391000Y30038889D01*
X22419996Y30108893D01*
X22521018Y30209915D01*
X22529724Y30217651D01*
X22557045Y30239189D01*
X22590655Y30287819D01*
X22592436Y30290310D01*
X22623158Y30331903D01*
X22623160Y30331907D01*
X22627555Y30337857D01*
X22629947Y30344669D01*
X22634052Y30350608D01*
X22651875Y30406965D01*
X22652843Y30409868D01*
X22672431Y30465648D01*
X22672668Y30471681D01*
X22673191Y30474366D01*
X22674892Y30479744D01*
X22675500Y30487469D01*
X22675500Y30541797D01*
X22675576Y30545684D01*
X22677458Y30593590D01*
X22677749Y30600984D01*
X22676008Y30607551D01*
X22675500Y30616776D01*
X22675500Y31319000D01*
X22694407Y31377191D01*
X22774500Y31418000D01*
X22987000Y31418000D01*
X23065450Y31433605D01*
X23131957Y31478043D01*
X23176395Y31544550D01*
X23192000Y31623000D01*
X23192000Y33147000D01*
X23176395Y33225450D01*
X23131957Y33291957D01*
X23065450Y33336395D01*
X22987000Y33352000D01*
X22774500Y33352000D01*
X22716309Y33370907D01*
X22675500Y33451000D01*
X22675500Y33859000D01*
X22694407Y33917191D01*
X22774500Y33958000D01*
X22987000Y33958000D01*
X23065450Y33973605D01*
X23131957Y34018043D01*
X23176395Y34084550D01*
X23192000Y34163000D01*
X23192000Y35687000D01*
X23798000Y35687000D01*
X23798000Y34163000D01*
X23813605Y34084550D01*
X23858043Y34018043D01*
X23924550Y33973605D01*
X24003000Y33958000D01*
X24215500Y33958000D01*
X24273691Y33939093D01*
X24314500Y33859000D01*
X24314501Y33451000D01*
X24295594Y33392809D01*
X24246094Y33356845D01*
X24215501Y33352000D01*
X24003000Y33352000D01*
X23924550Y33336395D01*
X23858043Y33291957D01*
X23813605Y33225450D01*
X23798000Y33147000D01*
X23798000Y31623000D01*
X23813605Y31544550D01*
X23858043Y31478043D01*
X23924550Y31433605D01*
X24003000Y31418000D01*
X25527000Y31418000D01*
X25605450Y31433605D01*
X25671957Y31478043D01*
X25716395Y31544550D01*
X25732000Y31623000D01*
X25732000Y33147000D01*
X25716395Y33225450D01*
X25671957Y33291957D01*
X25605450Y33336395D01*
X25527000Y33352000D01*
X25314500Y33352000D01*
X25256309Y33370907D01*
X25215500Y33451000D01*
X25215500Y33859000D01*
X25234407Y33917191D01*
X25314500Y33958000D01*
X25527000Y33958000D01*
X25605450Y33973605D01*
X25671957Y34018043D01*
X25716395Y34084550D01*
X25732000Y34163000D01*
X25732000Y35687000D01*
X25716395Y35765450D01*
X25671957Y35831957D01*
X25605450Y35876395D01*
X25527000Y35892000D01*
X25314500Y35892000D01*
X25256309Y35910907D01*
X25215500Y35991000D01*
X25215500Y36081500D01*
X25234407Y36139691D01*
X25314500Y36180500D01*
X25463500Y36180500D01*
X25541950Y36196105D01*
X25608457Y36240543D01*
X25652895Y36307050D01*
X25668500Y36385500D01*
X25668500Y37274500D01*
X25652895Y37352950D01*
X25630409Y37386603D01*
X25613876Y37411347D01*
X25608457Y37419457D01*
X25541950Y37463895D01*
X25463500Y37479500D01*
X24066500Y37479500D01*
X23988050Y37463895D01*
X23921543Y37419457D01*
X23916124Y37411347D01*
X23899591Y37386603D01*
X23877105Y37352950D01*
X23861500Y37274500D01*
X23861500Y36385500D01*
X23877105Y36307050D01*
X23921543Y36240543D01*
X23988050Y36196105D01*
X24066500Y36180500D01*
X24215500Y36180500D01*
X24273691Y36161593D01*
X24314500Y36081501D01*
X24314501Y35991001D01*
X24295594Y35932810D01*
X24246095Y35896846D01*
X24215501Y35892000D01*
X24003000Y35892000D01*
X23924550Y35876395D01*
X23858043Y35831957D01*
X23813605Y35765450D01*
X23798000Y35687000D01*
X23192000Y35687000D01*
X23176395Y35765450D01*
X23131957Y35831957D01*
X23065450Y35876395D01*
X22987000Y35892000D01*
X22774500Y35892000D01*
X22716309Y35910907D01*
X22675500Y35991000D01*
X22675500Y36081500D01*
X22694407Y36139691D01*
X22774500Y36180500D01*
X22923500Y36180500D01*
X23001950Y36196105D01*
X23068457Y36240543D01*
X23112895Y36307050D01*
X23128500Y36385500D01*
X23128500Y37274500D01*
X23112895Y37352950D01*
X23090409Y37386603D01*
X23073876Y37411347D01*
X23068457Y37419457D01*
X23001950Y37463895D01*
X22923500Y37479500D01*
X21526500Y37479500D01*
X21448050Y37463895D01*
X21381543Y37419457D01*
X21376124Y37411347D01*
X21359591Y37386603D01*
X21337105Y37352950D01*
X21321500Y37274500D01*
X21321500Y36385500D01*
X21337105Y36307050D01*
X21381543Y36240543D01*
X21448050Y36196105D01*
X21526500Y36180500D01*
X21675500Y36180500D01*
X21733691Y36161593D01*
X21774500Y36081501D01*
X21774501Y35991001D01*
X21755594Y35932810D01*
X21706095Y35896846D01*
X21675501Y35892000D01*
X21463000Y35892000D01*
X21384550Y35876395D01*
X21318043Y35831957D01*
X21273605Y35765450D01*
X21258000Y35687000D01*
X21258000Y34163000D01*
X21273605Y34084550D01*
X21318043Y34018043D01*
X21384550Y33973605D01*
X21463000Y33958000D01*
X21675500Y33958000D01*
X21733691Y33939093D01*
X21774500Y33859000D01*
X21774501Y33451000D01*
X21755594Y33392809D01*
X21706094Y33356845D01*
X21675501Y33352000D01*
X21463000Y33352000D01*
X21384550Y33336395D01*
X21318043Y33291957D01*
X21273605Y33225450D01*
X21258000Y33147000D01*
X21258000Y31623000D01*
X21273605Y31544550D01*
X21318043Y31478043D01*
X21384550Y31433605D01*
X21463000Y31418000D01*
X21675501Y31418000D01*
X21733692Y31399093D01*
X21774501Y31319000D01*
X21774501Y30778612D01*
X21745505Y30708608D01*
X21582893Y30545996D01*
X21512889Y30517000D01*
X20486000Y30517000D01*
X20407550Y30501395D01*
X20341043Y30456957D01*
X20335625Y30448848D01*
X20316816Y30420698D01*
X20268766Y30382818D01*
X20207628Y30380416D01*
X20156754Y30414408D01*
X20135500Y30475699D01*
X20135500Y31319000D01*
X20154407Y31377191D01*
X20234500Y31418000D01*
X20447000Y31418000D01*
X20525450Y31433605D01*
X20591957Y31478043D01*
X20636395Y31544550D01*
X20652000Y31623000D01*
X20652000Y33147000D01*
X20636395Y33225450D01*
X20591957Y33291957D01*
X20525450Y33336395D01*
X20447000Y33352000D01*
X20234500Y33352000D01*
X20176309Y33370907D01*
X20135500Y33451000D01*
X20135500Y33859000D01*
X20154407Y33917191D01*
X20234500Y33958000D01*
X20447000Y33958000D01*
X20525450Y33973605D01*
X20591957Y34018043D01*
X20636395Y34084550D01*
X20652000Y34163000D01*
X20652000Y35687000D01*
X20636395Y35765450D01*
X20591957Y35831957D01*
X20525450Y35876395D01*
X20447000Y35892000D01*
X20234500Y35892000D01*
X20176309Y35910907D01*
X20135500Y35991000D01*
X20135500Y36081500D01*
X20154407Y36139691D01*
X20234500Y36180500D01*
X20383500Y36180500D01*
X20461950Y36196105D01*
X20528457Y36240543D01*
X20572895Y36307050D01*
X20588500Y36385500D01*
X20588500Y37274500D01*
X20572895Y37352950D01*
X20550409Y37386603D01*
X20533876Y37411347D01*
X20528457Y37419457D01*
X20461950Y37463895D01*
X20383500Y37479500D01*
X18986500Y37479500D01*
X18908050Y37463895D01*
X18841543Y37419457D01*
X18836124Y37411347D01*
X18819591Y37386603D01*
X18797105Y37352950D01*
X18781500Y37274500D01*
X18781500Y36385500D01*
X18797105Y36307050D01*
X18841543Y36240543D01*
X18908050Y36196105D01*
X18986500Y36180500D01*
X19135500Y36180500D01*
X19193691Y36161593D01*
X19234500Y36081501D01*
X19234501Y35991001D01*
X19215594Y35932810D01*
X19166095Y35896846D01*
X19135501Y35892000D01*
X18923000Y35892000D01*
X18844550Y35876395D01*
X18778043Y35831957D01*
X18733605Y35765450D01*
X18718000Y35687000D01*
X18718000Y34163000D01*
X18733605Y34084550D01*
X18778043Y34018043D01*
X18844550Y33973605D01*
X18923000Y33958000D01*
X19135500Y33958000D01*
X19193691Y33939093D01*
X19234500Y33859000D01*
X19234501Y33451000D01*
X19215594Y33392809D01*
X19166094Y33356845D01*
X19135501Y33352000D01*
X18923000Y33352000D01*
X18844550Y33336395D01*
X18778043Y33291957D01*
X18733605Y33225450D01*
X18718000Y33147000D01*
X18718000Y31623000D01*
X18733605Y31544550D01*
X18778043Y31478043D01*
X18844550Y31433605D01*
X18923000Y31418000D01*
X19135500Y31418000D01*
X19193691Y31399093D01*
X19234500Y31319000D01*
X19234501Y26669013D01*
X19205505Y26599009D01*
X18361355Y25754858D01*
X16672191Y24065693D01*
X15836969Y23230471D01*
X15779888Y23202322D01*
X15692885Y23190868D01*
X15546850Y23130378D01*
X15421447Y23034153D01*
X15417494Y23029001D01*
X15409465Y23018538D01*
X15373783Y22989566D01*
X15366230Y22985939D01*
X15366227Y22985937D01*
X15359559Y22982735D01*
X15355121Y22978633D01*
X15352861Y22977110D01*
X15347851Y22974507D01*
X15341959Y22969474D01*
X15340574Y22968089D01*
X15303550Y22931064D01*
X15300746Y22928368D01*
X15260102Y22890798D01*
X15256689Y22884923D01*
X15250527Y22878042D01*
X14577932Y22205446D01*
X14517445Y22123554D01*
X14472569Y21995764D01*
X14467251Y21860429D01*
X14469148Y21853275D01*
X14469148Y21853274D01*
X14477894Y21820289D01*
X14501963Y21729512D01*
X14505882Y21723229D01*
X14508819Y21716441D01*
X14507272Y21715771D01*
X14519501Y21673050D01*
X14519500Y21414283D01*
X14500592Y21356092D01*
X14475500Y21331967D01*
X14458154Y21320377D01*
X14458153Y21320376D01*
X14450043Y21314957D01*
X14405605Y21248450D01*
X14390000Y21170000D01*
X14390000Y20770000D01*
X14405605Y20691550D01*
X14411021Y20683444D01*
X14411253Y20682884D01*
X14411253Y20607116D01*
X14411021Y20606556D01*
X14405605Y20598450D01*
X14390000Y20520000D01*
X14390000Y20120000D01*
X14405605Y20041550D01*
X14411021Y20033444D01*
X14411253Y20032884D01*
X14411253Y19957116D01*
X14411021Y19956556D01*
X14405605Y19948450D01*
X14390000Y19870000D01*
X14390000Y19470000D01*
X14405605Y19391550D01*
X14450043Y19325043D01*
X14458153Y19319624D01*
X14458154Y19319623D01*
X14475500Y19308033D01*
X14513380Y19259984D01*
X14519500Y19225718D01*
X14519501Y19145590D01*
X14519501Y19094040D01*
X14500594Y19035849D01*
X14448276Y18999890D01*
X14448285Y18999868D01*
X14442295Y18997387D01*
X14442292Y18997386D01*
X14413339Y18985393D01*
X14302250Y18939378D01*
X14176847Y18843153D01*
X14080622Y18717750D01*
X14020132Y18571715D01*
X13999500Y18415000D01*
X13651000Y18415000D01*
X13651000Y19074379D01*
X13636019Y19192967D01*
X13577331Y19341195D01*
X13561214Y19363379D01*
X13544209Y19440884D01*
X13549052Y19465228D01*
X13549053Y19465240D01*
X13550000Y19470000D01*
X13550000Y19856296D01*
X13572139Y19913445D01*
X13570398Y19914523D01*
X13624574Y20002021D01*
X13631090Y20018842D01*
X13649158Y20115493D01*
X13650000Y20124583D01*
X13650000Y20154320D01*
X13648610Y20158598D01*
X13626232Y20170000D01*
X12405680Y20170000D01*
X12401402Y20168610D01*
X12390000Y20146232D01*
X12390000Y20125723D01*
X12391311Y20114427D01*
X12419610Y19994107D01*
X12428200Y19975806D01*
X12470004Y19920449D01*
X12490000Y19860788D01*
X12490000Y19470000D01*
X12490947Y19465239D01*
X12496034Y19439667D01*
X12485690Y19372659D01*
X12428663Y19268927D01*
X12389016Y19114512D01*
X12389001Y19114274D01*
X12389001Y19111617D01*
X12389000Y17743578D01*
X12360004Y17673574D01*
X11987701Y17301271D01*
X11943263Y17234764D01*
X11927658Y17156314D01*
X10564140Y17156314D01*
X10546013Y17394608D01*
X10544876Y17402032D01*
X10489203Y17642225D01*
X10486958Y17649390D01*
X10395589Y17878406D01*
X10392291Y17885138D01*
X10267333Y18097699D01*
X10263048Y18103865D01*
X10182274Y18203080D01*
X10171066Y18210316D01*
X10168510Y18210176D01*
X10165063Y18207931D01*
X9113218Y17156086D01*
X9111177Y17152080D01*
X8664223Y17152080D01*
X8661062Y17161806D01*
X7616702Y18206166D01*
X7604819Y18212220D01*
X7603529Y18212016D01*
X7598770Y18207984D01*
X7473309Y18038123D01*
X7469319Y18031762D01*
X7354511Y17813550D01*
X7351533Y17806667D01*
X7271056Y17573604D01*
X7269150Y17566341D01*
X7224851Y17323779D01*
X7224068Y17316333D01*
X7216967Y17069857D01*
X5482835Y17069857D01*
X5484925Y17142402D01*
X5484803Y17147590D01*
X5466013Y17394608D01*
X5464876Y17402032D01*
X5409203Y17642225D01*
X5406958Y17649390D01*
X5315589Y17878406D01*
X5312291Y17885138D01*
X5187333Y18097699D01*
X5183048Y18103865D01*
X5102274Y18203080D01*
X5091066Y18210316D01*
X5088510Y18210176D01*
X5085063Y18207931D01*
X4033218Y17156086D01*
X4031177Y17152080D01*
X3584223Y17152080D01*
X3581062Y17161806D01*
X2536702Y18206166D01*
X2524819Y18212220D01*
X2523529Y18212016D01*
X2518770Y18207984D01*
X2393309Y18038123D01*
X2389319Y18031762D01*
X2274511Y17813550D01*
X2271533Y17806667D01*
X2191056Y17573604D01*
X2189150Y17566341D01*
X2144851Y17323779D01*
X2144068Y17316333D01*
X2136967Y17069857D01*
X454000Y17069857D01*
X454000Y18428211D01*
X2742209Y18428211D01*
X2742212Y18427041D01*
X2745595Y18421537D01*
X3798914Y17368218D01*
X3802920Y17366177D01*
X3826806Y17373938D01*
X4870022Y18417154D01*
X4875655Y18428211D01*
X7822209Y18428211D01*
X7822212Y18427041D01*
X7825595Y18421537D01*
X8878914Y17368218D01*
X8882920Y17366177D01*
X8906806Y17373938D01*
X9950022Y18417154D01*
X9956076Y18429037D01*
X9955460Y18432932D01*
X9954411Y18434302D01*
X9919406Y18465987D01*
X9913483Y18470582D01*
X9707750Y18606495D01*
X9701195Y18610143D01*
X9477282Y18713369D01*
X9470236Y18715989D01*
X9233276Y18784160D01*
X9225949Y18785678D01*
X8981382Y18817224D01*
X8973914Y18817616D01*
X8727390Y18811806D01*
X8719942Y18811063D01*
X8477148Y18768034D01*
X8469882Y18766168D01*
X8236394Y18686909D01*
X8229500Y18683969D01*
X8010690Y18570306D01*
X8004306Y18566347D01*
X7830022Y18439024D01*
X7822209Y18428211D01*
X4875655Y18428211D01*
X4876076Y18429037D01*
X4875460Y18432932D01*
X4874411Y18434302D01*
X4839406Y18465987D01*
X4833483Y18470582D01*
X4627750Y18606495D01*
X4621195Y18610143D01*
X4397282Y18713369D01*
X4390236Y18715989D01*
X4153276Y18784160D01*
X4145949Y18785678D01*
X3901382Y18817224D01*
X3893914Y18817616D01*
X3647390Y18811806D01*
X3639942Y18811063D01*
X3397148Y18768034D01*
X3389882Y18766168D01*
X3156394Y18686909D01*
X3149500Y18683969D01*
X2930690Y18570306D01*
X2924306Y18566347D01*
X2750022Y18439024D01*
X2742209Y18428211D01*
X454000Y18428211D01*
X454000Y22211889D01*
X2744850Y22211889D01*
X2745272Y22209222D01*
X2747699Y22206201D01*
X2843963Y22126988D01*
X2850100Y22122675D01*
X3062007Y21996604D01*
X3068716Y21993273D01*
X3297265Y21900702D01*
X3304398Y21898425D01*
X3544321Y21841488D01*
X3551714Y21840318D01*
X3797477Y21820328D01*
X3804984Y21820289D01*
X4050939Y21837703D01*
X4058357Y21838799D01*
X4298854Y21893218D01*
X4306015Y21895421D01*
X4535518Y21985593D01*
X4542257Y21988851D01*
X4755475Y22112698D01*
X4761664Y22116952D01*
X4868121Y22202699D01*
X4874123Y22211889D01*
X7824850Y22211889D01*
X7825272Y22209222D01*
X7827699Y22206201D01*
X7923963Y22126988D01*
X7930100Y22122675D01*
X8142007Y21996604D01*
X8148716Y21993273D01*
X8377265Y21900702D01*
X8384398Y21898425D01*
X8624321Y21841488D01*
X8631714Y21840318D01*
X8877477Y21820328D01*
X8884984Y21820289D01*
X9130939Y21837703D01*
X9138357Y21838799D01*
X9378854Y21893218D01*
X9386015Y21895421D01*
X9615518Y21985593D01*
X9622257Y21988851D01*
X9835475Y22112698D01*
X9841664Y22116952D01*
X9948121Y22202699D01*
X9955415Y22213866D01*
X9955294Y22216287D01*
X9952930Y22219938D01*
X8901086Y23271782D01*
X8897080Y23273823D01*
X8873194Y23266062D01*
X7830904Y22223772D01*
X7824850Y22211889D01*
X4874123Y22211889D01*
X4875415Y22213866D01*
X4875294Y22216287D01*
X4872930Y22219938D01*
X3821086Y23271782D01*
X3817080Y23273823D01*
X3793194Y23266062D01*
X2750904Y22223772D01*
X2744850Y22211889D01*
X454000Y22211889D01*
X454000Y23419857D01*
X2136967Y23419857D01*
X2137321Y23412360D01*
X2167584Y23167657D01*
X2169067Y23160305D01*
X2235996Y22922989D01*
X2238573Y22915949D01*
X2340628Y22691490D01*
X2344245Y22684910D01*
X2479080Y22478469D01*
X2483636Y22472530D01*
X2516531Y22435804D01*
X2528065Y22429104D01*
X2531851Y22429492D01*
X2533470Y22430602D01*
X3586782Y23483914D01*
X3588823Y23487920D01*
X3584223Y23502080D01*
X4031177Y23502080D01*
X4038938Y23478194D01*
X5082419Y22434713D01*
X5094302Y22428659D01*
X5098333Y22429297D01*
X5099514Y22430196D01*
X5125572Y22458684D01*
X5130209Y22464597D01*
X5267192Y22669607D01*
X5270875Y22676143D01*
X5375280Y22899530D01*
X5377927Y22906535D01*
X5447337Y23143134D01*
X5448898Y23150477D01*
X5481879Y23396016D01*
X5482297Y23401167D01*
X5482835Y23419857D01*
X7216967Y23419857D01*
X7217321Y23412360D01*
X7247584Y23167657D01*
X7249067Y23160305D01*
X7315996Y22922989D01*
X7318573Y22915949D01*
X7420628Y22691490D01*
X7424245Y22684910D01*
X7559080Y22478469D01*
X7563636Y22472530D01*
X7596531Y22435804D01*
X7608065Y22429104D01*
X7611851Y22429492D01*
X7613470Y22430602D01*
X8666782Y23483914D01*
X8668823Y23487920D01*
X8664223Y23502080D01*
X9111177Y23502080D01*
X9118938Y23478194D01*
X10162419Y22434713D01*
X10174302Y22428659D01*
X10178333Y22429297D01*
X10179514Y22430196D01*
X10205572Y22458684D01*
X10210209Y22464597D01*
X10347192Y22669607D01*
X10350875Y22676143D01*
X10455280Y22899530D01*
X10457927Y22906535D01*
X10527337Y23143134D01*
X10528898Y23150477D01*
X10561879Y23396016D01*
X10562297Y23401167D01*
X10564925Y23492402D01*
X10564803Y23497590D01*
X10546013Y23744608D01*
X10544876Y23752032D01*
X10489203Y23992225D01*
X10486958Y23999390D01*
X10395589Y24228406D01*
X10392291Y24235138D01*
X10267333Y24447699D01*
X10263048Y24453865D01*
X10182274Y24553080D01*
X10171066Y24560316D01*
X10168510Y24560176D01*
X10165063Y24557931D01*
X9113218Y23506086D01*
X9111177Y23502080D01*
X8664223Y23502080D01*
X8661062Y23511806D01*
X7616702Y24556166D01*
X7604819Y24562220D01*
X7603529Y24562016D01*
X7598770Y24557984D01*
X7473309Y24388123D01*
X7469319Y24381762D01*
X7354511Y24163550D01*
X7351533Y24156667D01*
X7271056Y23923604D01*
X7269150Y23916341D01*
X7224851Y23673779D01*
X7224068Y23666333D01*
X7216967Y23419857D01*
X5482835Y23419857D01*
X5484925Y23492402D01*
X5484803Y23497590D01*
X5466013Y23744608D01*
X5464876Y23752032D01*
X5409203Y23992225D01*
X5406958Y23999390D01*
X5315589Y24228406D01*
X5312291Y24235138D01*
X5187333Y24447699D01*
X5183048Y24453865D01*
X5102274Y24553080D01*
X5091066Y24560316D01*
X5088510Y24560176D01*
X5085063Y24557931D01*
X4033218Y23506086D01*
X4031177Y23502080D01*
X3584223Y23502080D01*
X3581062Y23511806D01*
X2536702Y24556166D01*
X2524819Y24562220D01*
X2523529Y24562016D01*
X2518770Y24557984D01*
X2393309Y24388123D01*
X2389319Y24381762D01*
X2274511Y24163550D01*
X2271533Y24156667D01*
X2191056Y23923604D01*
X2189150Y23916341D01*
X2144851Y23673779D01*
X2144068Y23666333D01*
X2136967Y23419857D01*
X454000Y23419857D01*
X454000Y24778211D01*
X2742209Y24778211D01*
X2742212Y24777041D01*
X2745595Y24771537D01*
X3798914Y23718218D01*
X3802920Y23716177D01*
X3826806Y23723938D01*
X4870022Y24767154D01*
X4876076Y24779037D01*
X4875460Y24782932D01*
X4874411Y24784302D01*
X4839406Y24815987D01*
X4833483Y24820582D01*
X4627750Y24956495D01*
X4621195Y24960143D01*
X4397282Y25063369D01*
X4390236Y25065989D01*
X4153276Y25134160D01*
X4145949Y25135678D01*
X3901382Y25167224D01*
X3893914Y25167616D01*
X3647390Y25161806D01*
X3639942Y25161063D01*
X3397148Y25118034D01*
X3389882Y25116168D01*
X3156394Y25036909D01*
X3149500Y25033969D01*
X2930690Y24920306D01*
X2924306Y24916347D01*
X2750022Y24789024D01*
X2742209Y24778211D01*
X454000Y24778211D01*
X454000Y26035000D01*
X5025000Y26035000D01*
X5045130Y25804916D01*
X5104907Y25581823D01*
X5202516Y25372500D01*
X5204997Y25368957D01*
X5204998Y25368955D01*
X5232297Y25329968D01*
X5334991Y25183306D01*
X5498306Y25019991D01*
X5687500Y24887516D01*
X5896823Y24789907D01*
X6119916Y24730130D01*
X6350000Y24710000D01*
X6580084Y24730130D01*
X6759526Y24778211D01*
X7822209Y24778211D01*
X7822212Y24777041D01*
X7825595Y24771537D01*
X8878914Y23718218D01*
X8882920Y23716177D01*
X8906806Y23723938D01*
X9950022Y24767154D01*
X9956076Y24779037D01*
X9955460Y24782932D01*
X9954411Y24784302D01*
X9919406Y24815987D01*
X9913483Y24820582D01*
X9707750Y24956495D01*
X9701195Y24960143D01*
X9477282Y25063369D01*
X9470236Y25065989D01*
X9233276Y25134160D01*
X9225949Y25135678D01*
X8981382Y25167224D01*
X8973914Y25167616D01*
X8727390Y25161806D01*
X8719942Y25161063D01*
X8477148Y25118034D01*
X8469882Y25116168D01*
X8236394Y25036909D01*
X8229500Y25033969D01*
X8010690Y24920306D01*
X8004306Y24916347D01*
X7830022Y24789024D01*
X7822209Y24778211D01*
X6759526Y24778211D01*
X6803177Y24789907D01*
X7012500Y24887516D01*
X7201694Y25019991D01*
X7365009Y25183306D01*
X7447416Y25300995D01*
X7489981Y25361784D01*
X7538846Y25398606D01*
X7571077Y25404000D01*
X9055321Y25404000D01*
X9073399Y25401594D01*
X9073501Y25402186D01*
X9078111Y25401394D01*
X9082627Y25400171D01*
X9083484Y25400106D01*
X9294902Y25397313D01*
X9304677Y25396699D01*
X9562072Y25367697D01*
X9573016Y25365838D01*
X9820801Y25309283D01*
X9831468Y25306209D01*
X10071350Y25222271D01*
X10081599Y25218027D01*
X10310591Y25107750D01*
X10320300Y25102384D01*
X10535508Y24967158D01*
X10544541Y24960749D01*
X10737759Y24806664D01*
X10747055Y24799251D01*
X10754402Y24792772D01*
X10839391Y24710000D01*
X10877294Y24673085D01*
X10888941Y24664295D01*
X10897296Y24657989D01*
X10907661Y24648972D01*
X11613085Y23943546D01*
X11624172Y23929059D01*
X11624660Y23929404D01*
X11627361Y23925582D01*
X11629686Y23921530D01*
X11630246Y23920878D01*
X11777780Y23769394D01*
X11784249Y23762058D01*
X11945744Y23559549D01*
X11952160Y23550508D01*
X12056755Y23384047D01*
X12087384Y23335302D01*
X12092751Y23325590D01*
X12186760Y23130378D01*
X12203027Y23096600D01*
X12207268Y23086362D01*
X12291216Y22846451D01*
X12294283Y22835807D01*
X12349618Y22593369D01*
X12350838Y22588022D01*
X12352698Y22577080D01*
X12379814Y22336419D01*
X12381701Y22319669D01*
X12382314Y22309893D01*
X12384579Y22138386D01*
X12385008Y22135313D01*
X12385009Y22135306D01*
X12388047Y22113572D01*
X12389000Y22099869D01*
X12389000Y21550422D01*
X12403981Y21431834D01*
X12462669Y21283606D01*
X12466327Y21278571D01*
X12476414Y21264687D01*
X12493418Y21187185D01*
X12490000Y21170000D01*
X12490000Y20783704D01*
X12467861Y20726555D01*
X12469602Y20725477D01*
X12415426Y20637979D01*
X12408910Y20621158D01*
X12390842Y20524507D01*
X12390000Y20515417D01*
X12390000Y20485680D01*
X12391390Y20481402D01*
X12413768Y20470000D01*
X13634320Y20470000D01*
X13638598Y20471390D01*
X13650000Y20493768D01*
X13650000Y20514277D01*
X13648689Y20525573D01*
X13620390Y20645893D01*
X13611800Y20664194D01*
X13569996Y20719551D01*
X13550000Y20779212D01*
X13550000Y21170000D01*
X13546582Y21187185D01*
X13546187Y21189172D01*
X13556531Y21256178D01*
X13608336Y21350412D01*
X13608337Y21350414D01*
X13611338Y21355873D01*
X13650985Y21510288D01*
X13651000Y21510526D01*
X13651000Y22078066D01*
X13653794Y22101419D01*
X13655844Y22109865D01*
X13656951Y22114424D01*
X13656993Y22115282D01*
X13654769Y22283760D01*
X13654457Y22307376D01*
X13655404Y22322404D01*
X13658719Y22346081D01*
X13658677Y22346939D01*
X13653852Y22389755D01*
X13653240Y22399519D01*
X13653198Y22402682D01*
X13652207Y22409775D01*
X13649245Y22430968D01*
X13648914Y22433587D01*
X13617769Y22710008D01*
X13617183Y22723755D01*
X13617831Y22747829D01*
X13617831Y22747832D01*
X13617956Y22752482D01*
X13617818Y22753331D01*
X13608834Y22792693D01*
X13607971Y22796955D01*
X13607647Y22799835D01*
X13600225Y22830443D01*
X13599938Y22831665D01*
X13588174Y22883209D01*
X13536516Y23109539D01*
X13534395Y23123133D01*
X13534114Y23126427D01*
X13531948Y23151766D01*
X13531715Y23152594D01*
X13518386Y23190687D01*
X13517048Y23194838D01*
X13516402Y23197666D01*
X13515337Y23200582D01*
X13515335Y23200590D01*
X13505597Y23227262D01*
X13505149Y23228516D01*
X13411047Y23497445D01*
X13407415Y23510718D01*
X13402690Y23534332D01*
X13401774Y23538910D01*
X13401450Y23539707D01*
X13400454Y23541774D01*
X13400453Y23541779D01*
X13383933Y23576083D01*
X13382143Y23580046D01*
X13381186Y23582781D01*
X13379802Y23585560D01*
X13379798Y23585568D01*
X13367178Y23610895D01*
X13366592Y23612091D01*
X13336884Y23673779D01*
X13242924Y23868890D01*
X13237831Y23881670D01*
X13230498Y23904590D01*
X13230496Y23904595D01*
X13229072Y23909045D01*
X13228661Y23909800D01*
X13221701Y23920878D01*
X13207186Y23943978D01*
X13204963Y23947717D01*
X13203702Y23950334D01*
X13186625Y23976716D01*
X13185909Y23977839D01*
X13069218Y24163550D01*
X13034275Y24219161D01*
X13027787Y24231283D01*
X13016015Y24257513D01*
X13015522Y24258217D01*
X13014078Y24260028D01*
X12990349Y24289784D01*
X12987726Y24293243D01*
X12986180Y24295704D01*
X12966247Y24320021D01*
X12965416Y24321049D01*
X12790786Y24540027D01*
X12782316Y24552487D01*
X12772750Y24569161D01*
X12772748Y24569163D01*
X12770425Y24573213D01*
X12769865Y24573865D01*
X12739815Y24604719D01*
X12733334Y24612070D01*
X12733303Y24612108D01*
X12733303Y24612109D01*
X12731358Y24614547D01*
X12710858Y24634502D01*
X12709006Y24636354D01*
X12571498Y24777544D01*
X12571497Y24777545D01*
X12569327Y24779773D01*
X12535589Y24806664D01*
X12527292Y24814077D01*
X11997697Y25343671D01*
X11815442Y25525925D01*
X11800907Y25544410D01*
X11793936Y25555849D01*
X11793359Y25556486D01*
X11655731Y25690526D01*
X11645775Y25701822D01*
X11631382Y25720901D01*
X11630745Y25721479D01*
X11628976Y25722890D01*
X11628972Y25722894D01*
X11597067Y25748337D01*
X11589716Y25754819D01*
X11589676Y25754858D01*
X11587451Y25757025D01*
X11580275Y25762441D01*
X11573416Y25768408D01*
X11573332Y25768313D01*
X11570983Y25770384D01*
X11568797Y25772570D01*
X11566354Y25774465D01*
X11566345Y25774473D01*
X11491695Y25832378D01*
X11490766Y25833109D01*
X11345099Y25949274D01*
X11334965Y25958578D01*
X11318403Y25976056D01*
X11315188Y25979449D01*
X11314490Y25979951D01*
X11312542Y25981175D01*
X11312541Y25981176D01*
X11280306Y26001430D01*
X11276684Y26003833D01*
X11274415Y26005642D01*
X11247542Y26022026D01*
X11246494Y26022675D01*
X11073828Y26131168D01*
X11005128Y26174335D01*
X10994017Y26182445D01*
X10972034Y26200967D01*
X10971284Y26201388D01*
X10936027Y26218367D01*
X10934902Y26218909D01*
X10931038Y26220889D01*
X10928584Y26222431D01*
X10900068Y26235694D01*
X10898900Y26236246D01*
X10642105Y26359913D01*
X10630153Y26366731D01*
X10610133Y26380075D01*
X10610129Y26380077D01*
X10606236Y26382672D01*
X10605444Y26383006D01*
X10567337Y26396341D01*
X10563270Y26397877D01*
X10560656Y26399136D01*
X10530811Y26409130D01*
X10529557Y26409560D01*
X10260590Y26503676D01*
X10247948Y26509113D01*
X10226532Y26520146D01*
X10226528Y26520147D01*
X10222393Y26522278D01*
X10221569Y26522522D01*
X10219358Y26523027D01*
X10219357Y26523027D01*
X10209261Y26525331D01*
X10182184Y26531511D01*
X10177991Y26532578D01*
X10175257Y26533535D01*
X10144531Y26540115D01*
X10143286Y26540390D01*
X10004072Y26572164D01*
X9865373Y26603821D01*
X9852201Y26607808D01*
X9838621Y26612974D01*
X9825334Y26618029D01*
X9824487Y26618178D01*
X9822182Y26618438D01*
X9822181Y26618438D01*
X9807075Y26620140D01*
X9784379Y26622697D01*
X9780066Y26623291D01*
X9777232Y26623938D01*
X9745860Y26627045D01*
X9744561Y26627183D01*
X9692348Y26633067D01*
X9466313Y26658536D01*
X9451517Y26661356D01*
X9432963Y26666381D01*
X9432960Y26666382D01*
X9428443Y26667605D01*
X9427586Y26667670D01*
X9384520Y26668239D01*
X9374744Y26668853D01*
X9374690Y26668859D01*
X9374687Y26668859D01*
X9371590Y26669208D01*
X9368025Y26669160D01*
X9342974Y26668823D01*
X9340334Y26668823D01*
X9143292Y26671426D01*
X9143291Y26671426D01*
X9140185Y26671467D01*
X9137105Y26671119D01*
X9137101Y26671119D01*
X9097308Y26666625D01*
X9086199Y26666000D01*
X7571077Y26666000D01*
X7512886Y26684907D01*
X7489981Y26708216D01*
X7367488Y26883153D01*
X7365009Y26886694D01*
X7201694Y27050009D01*
X7078081Y27136564D01*
X7016045Y27180002D01*
X7016043Y27180003D01*
X7012500Y27182484D01*
X6803177Y27280093D01*
X6759154Y27291889D01*
X7824850Y27291889D01*
X7825272Y27289222D01*
X7827699Y27286201D01*
X7923963Y27206988D01*
X7930100Y27202675D01*
X8142007Y27076604D01*
X8148716Y27073273D01*
X8377265Y26980702D01*
X8384398Y26978425D01*
X8624321Y26921488D01*
X8631714Y26920318D01*
X8877477Y26900328D01*
X8884984Y26900289D01*
X9130939Y26917703D01*
X9138357Y26918799D01*
X9378854Y26973218D01*
X9386015Y26975421D01*
X9615518Y27065593D01*
X9622257Y27068851D01*
X9835475Y27192698D01*
X9841664Y27196952D01*
X9948121Y27282699D01*
X9955415Y27293866D01*
X9955294Y27296287D01*
X9952930Y27299938D01*
X8901086Y28351782D01*
X8897080Y28353823D01*
X8873194Y28346062D01*
X7830904Y27303772D01*
X7824850Y27291889D01*
X6759154Y27291889D01*
X6580084Y27339870D01*
X6350000Y27360000D01*
X6119916Y27339870D01*
X5896823Y27280093D01*
X5687500Y27182484D01*
X5683957Y27180003D01*
X5683955Y27180002D01*
X5621919Y27136564D01*
X5498306Y27050009D01*
X5334991Y26886694D01*
X5202516Y26697500D01*
X5104907Y26488177D01*
X5045130Y26265084D01*
X5025000Y26035000D01*
X454000Y26035000D01*
X454000Y27291889D01*
X2744850Y27291889D01*
X2745272Y27289222D01*
X2747699Y27286201D01*
X2843963Y27206988D01*
X2850100Y27202675D01*
X3062007Y27076604D01*
X3068716Y27073273D01*
X3297265Y26980702D01*
X3304398Y26978425D01*
X3544321Y26921488D01*
X3551714Y26920318D01*
X3797477Y26900328D01*
X3804984Y26900289D01*
X4050939Y26917703D01*
X4058357Y26918799D01*
X4298854Y26973218D01*
X4306015Y26975421D01*
X4535518Y27065593D01*
X4542257Y27068851D01*
X4755475Y27192698D01*
X4761664Y27196952D01*
X4868121Y27282699D01*
X4875415Y27293866D01*
X4875294Y27296287D01*
X4872930Y27299938D01*
X3821086Y28351782D01*
X3817080Y28353823D01*
X3793194Y28346062D01*
X2750904Y27303772D01*
X2744850Y27291889D01*
X454000Y27291889D01*
X454000Y28499857D01*
X2136967Y28499857D01*
X2137321Y28492360D01*
X2167584Y28247657D01*
X2169067Y28240305D01*
X2235996Y28002989D01*
X2238573Y27995949D01*
X2340628Y27771490D01*
X2344245Y27764910D01*
X2479080Y27558469D01*
X2483636Y27552530D01*
X2516531Y27515804D01*
X2528065Y27509104D01*
X2531851Y27509492D01*
X2533470Y27510602D01*
X3586782Y28563914D01*
X3588823Y28567920D01*
X3584223Y28582080D01*
X4031177Y28582080D01*
X4038938Y28558194D01*
X5082419Y27514713D01*
X5094302Y27508659D01*
X5098333Y27509297D01*
X5099514Y27510196D01*
X5125572Y27538684D01*
X5130209Y27544597D01*
X5267192Y27749607D01*
X5270875Y27756143D01*
X5375280Y27979530D01*
X5377927Y27986535D01*
X5447337Y28223134D01*
X5448898Y28230477D01*
X5481879Y28476016D01*
X5482297Y28481167D01*
X5482835Y28499857D01*
X7216967Y28499857D01*
X7217321Y28492360D01*
X7247584Y28247657D01*
X7249067Y28240305D01*
X7315996Y28002989D01*
X7318573Y27995949D01*
X7420628Y27771490D01*
X7424245Y27764910D01*
X7559080Y27558469D01*
X7563636Y27552530D01*
X7596531Y27515804D01*
X7608065Y27509104D01*
X7611851Y27509492D01*
X7613470Y27510602D01*
X8666782Y28563914D01*
X8668823Y28567920D01*
X8664223Y28582080D01*
X9111177Y28582080D01*
X9118938Y28558194D01*
X10162419Y27514713D01*
X10174302Y27508659D01*
X10178333Y27509297D01*
X10179514Y27510196D01*
X10205572Y27538684D01*
X10210209Y27544597D01*
X10347192Y27749607D01*
X10350875Y27756143D01*
X10455280Y27979530D01*
X10457927Y27986535D01*
X10527337Y28223134D01*
X10528898Y28230477D01*
X10561879Y28476016D01*
X10562297Y28481167D01*
X10564925Y28572402D01*
X10564803Y28577590D01*
X10546013Y28824608D01*
X10544876Y28832032D01*
X10489203Y29072225D01*
X10486958Y29079390D01*
X10395589Y29308406D01*
X10392291Y29315138D01*
X10267333Y29527699D01*
X10263048Y29533865D01*
X10182274Y29633080D01*
X10171066Y29640316D01*
X10168510Y29640176D01*
X10165063Y29637931D01*
X9113218Y28586086D01*
X9111177Y28582080D01*
X8664223Y28582080D01*
X8661062Y28591806D01*
X7616702Y29636166D01*
X7604819Y29642220D01*
X7603529Y29642016D01*
X7598770Y29637984D01*
X7473309Y29468123D01*
X7469319Y29461762D01*
X7354511Y29243550D01*
X7351533Y29236667D01*
X7271056Y29003604D01*
X7269150Y28996341D01*
X7224851Y28753779D01*
X7224068Y28746333D01*
X7216967Y28499857D01*
X5482835Y28499857D01*
X5484925Y28572402D01*
X5484803Y28577590D01*
X5466013Y28824608D01*
X5464876Y28832032D01*
X5409203Y29072225D01*
X5406958Y29079390D01*
X5315589Y29308406D01*
X5312291Y29315138D01*
X5187333Y29527699D01*
X5183048Y29533865D01*
X5102274Y29633080D01*
X5091066Y29640316D01*
X5088510Y29640176D01*
X5085063Y29637931D01*
X4033218Y28586086D01*
X4031177Y28582080D01*
X3584223Y28582080D01*
X3581062Y28591806D01*
X2536702Y29636166D01*
X2524819Y29642220D01*
X2523529Y29642016D01*
X2518770Y29637984D01*
X2393309Y29468123D01*
X2389319Y29461762D01*
X2274511Y29243550D01*
X2271533Y29236667D01*
X2191056Y29003604D01*
X2189150Y28996341D01*
X2144851Y28753779D01*
X2144068Y28746333D01*
X2136967Y28499857D01*
X454000Y28499857D01*
X454000Y29858211D01*
X2742209Y29858211D01*
X2742212Y29857041D01*
X2745595Y29851537D01*
X3798914Y28798218D01*
X3802920Y28796177D01*
X3826806Y28803938D01*
X4870022Y29847154D01*
X4875655Y29858211D01*
X7822209Y29858211D01*
X7822212Y29857041D01*
X7825595Y29851537D01*
X8878914Y28798218D01*
X8882920Y28796177D01*
X8906806Y28803938D01*
X9950022Y29847154D01*
X9956076Y29859037D01*
X9955460Y29862932D01*
X9954411Y29864302D01*
X9919406Y29895987D01*
X9913483Y29900582D01*
X9707750Y30036495D01*
X9701195Y30040143D01*
X9477282Y30143369D01*
X9470236Y30145989D01*
X9233276Y30214160D01*
X9225949Y30215678D01*
X8981382Y30247224D01*
X8973914Y30247616D01*
X8727390Y30241806D01*
X8719942Y30241063D01*
X8477148Y30198034D01*
X8469882Y30196168D01*
X8236394Y30116909D01*
X8229500Y30113969D01*
X8010690Y30000306D01*
X8004306Y29996347D01*
X7830022Y29869024D01*
X7822209Y29858211D01*
X4875655Y29858211D01*
X4876076Y29859037D01*
X4875460Y29862932D01*
X4874411Y29864302D01*
X4839406Y29895987D01*
X4833483Y29900582D01*
X4627750Y30036495D01*
X4621195Y30040143D01*
X4397282Y30143369D01*
X4390236Y30145989D01*
X4153276Y30214160D01*
X4145949Y30215678D01*
X3901382Y30247224D01*
X3893914Y30247616D01*
X3647390Y30241806D01*
X3639942Y30241063D01*
X3397148Y30198034D01*
X3389882Y30196168D01*
X3156394Y30116909D01*
X3149500Y30113969D01*
X2930690Y30000306D01*
X2924306Y29996347D01*
X2750022Y29869024D01*
X2742209Y29858211D01*
X454000Y29858211D01*
X454000Y31784327D01*
X10883300Y31784327D01*
X10883300Y29984327D01*
X10898905Y29905877D01*
X10943343Y29839370D01*
X11009850Y29794932D01*
X11088300Y29779327D01*
X13588300Y29779327D01*
X13666750Y29794932D01*
X13733257Y29839370D01*
X13777695Y29905877D01*
X13793300Y29984327D01*
X13793300Y30710559D01*
X14783300Y30710559D01*
X14783300Y29990050D01*
X14784611Y29978754D01*
X14812910Y29858434D01*
X14821500Y29840133D01*
X14877295Y29766249D01*
X14890621Y29754101D01*
X14970321Y29704753D01*
X14987142Y29698237D01*
X15083793Y29680169D01*
X15092883Y29679327D01*
X16172620Y29679327D01*
X16176898Y29680717D01*
X16188300Y29703095D01*
X16188300Y30710559D01*
X16488300Y30710559D01*
X16488300Y29695007D01*
X16489690Y29690729D01*
X16512068Y29679327D01*
X17582577Y29679327D01*
X17593873Y29680638D01*
X17714193Y29708937D01*
X17732494Y29717527D01*
X17806378Y29773322D01*
X17818526Y29786648D01*
X17867874Y29866348D01*
X17874390Y29883169D01*
X17892458Y29979820D01*
X17893300Y29988910D01*
X17893300Y30718647D01*
X17891910Y30722925D01*
X17869532Y30734327D01*
X16503980Y30734327D01*
X16499702Y30732937D01*
X16488300Y30710559D01*
X16188300Y30710559D01*
X16188300Y30718647D01*
X16186910Y30722925D01*
X16164532Y30734327D01*
X14798980Y30734327D01*
X14794702Y30732937D01*
X14783300Y30710559D01*
X13793300Y30710559D01*
X13793300Y31449084D01*
X13822296Y31519088D01*
X14082952Y31779744D01*
X14783300Y31779744D01*
X14783300Y31050007D01*
X14784690Y31045729D01*
X14807068Y31034327D01*
X16172620Y31034327D01*
X16176898Y31035717D01*
X16188300Y31058095D01*
X16188300Y32065559D01*
X16488300Y32065559D01*
X16488300Y31050007D01*
X16489690Y31045729D01*
X16512068Y31034327D01*
X17877620Y31034327D01*
X17881898Y31035717D01*
X17893300Y31058095D01*
X17893300Y31778604D01*
X17891989Y31789900D01*
X17863690Y31910220D01*
X17855100Y31928521D01*
X17799305Y32002405D01*
X17785979Y32014553D01*
X17706279Y32063901D01*
X17689458Y32070417D01*
X17592807Y32088485D01*
X17583717Y32089327D01*
X16503980Y32089327D01*
X16499702Y32087937D01*
X16488300Y32065559D01*
X16188300Y32065559D01*
X16188300Y32073647D01*
X16186910Y32077925D01*
X16164532Y32089327D01*
X15094023Y32089327D01*
X15082727Y32088016D01*
X14962407Y32059717D01*
X14944106Y32051127D01*
X14870222Y31995332D01*
X14858074Y31982006D01*
X14808726Y31902306D01*
X14802210Y31885485D01*
X14784142Y31788834D01*
X14783300Y31779744D01*
X14082952Y31779744D01*
X14363179Y32059971D01*
X14372916Y32068509D01*
X14393005Y32083924D01*
X14398153Y32087874D01*
X14472380Y32184608D01*
X14494378Y32213276D01*
X14496861Y32219271D01*
X14496863Y32219274D01*
X14512095Y32256049D01*
X14554868Y32359312D01*
X14570500Y32478048D01*
X14570500Y32478055D01*
X14575499Y32516026D01*
X14571347Y32547564D01*
X14570500Y32560485D01*
X14570500Y33224000D01*
X14589407Y33282191D01*
X14669500Y33323000D01*
X14732000Y33323000D01*
X14810450Y33338605D01*
X14876957Y33383043D01*
X14921395Y33449550D01*
X14937000Y33528000D01*
X14937000Y34131758D01*
X15443000Y34131758D01*
X15443000Y33533723D01*
X15444311Y33522427D01*
X15472610Y33402107D01*
X15481200Y33383806D01*
X15536995Y33309922D01*
X15550321Y33297774D01*
X15630021Y33248426D01*
X15646842Y33241910D01*
X15743493Y33223842D01*
X15752583Y33223000D01*
X16344320Y33223000D01*
X16348598Y33224390D01*
X16355879Y33238680D01*
X16659999Y33238680D01*
X16664121Y33225995D01*
X16668242Y33223000D01*
X17266277Y33223000D01*
X17277573Y33224311D01*
X17397893Y33252610D01*
X17416194Y33261200D01*
X17490078Y33316995D01*
X17502226Y33330321D01*
X17551574Y33410021D01*
X17558090Y33426842D01*
X17576158Y33523493D01*
X17577000Y33532583D01*
X17577000Y34124320D01*
X17575610Y34128598D01*
X17553232Y34140000D01*
X16675680Y34140000D01*
X16671402Y34138610D01*
X16660000Y34116232D01*
X16659999Y33238680D01*
X16355879Y33238680D01*
X16360000Y33246768D01*
X16360000Y34124320D01*
X16358610Y34128598D01*
X16336232Y34140000D01*
X15458680Y34140001D01*
X15445995Y34135879D01*
X15443000Y34131758D01*
X14937000Y34131758D01*
X14937000Y35047417D01*
X15443000Y35047417D01*
X15443000Y34455680D01*
X15444390Y34451402D01*
X15466768Y34440000D01*
X16344320Y34440000D01*
X16348598Y34441390D01*
X16360000Y34463768D01*
X16360000Y35333232D01*
X16660000Y35333232D01*
X16660000Y34455680D01*
X16661390Y34451402D01*
X16683768Y34440000D01*
X17561320Y34439999D01*
X17574005Y34444121D01*
X17577000Y34448242D01*
X17577000Y35046277D01*
X17575689Y35057573D01*
X17547390Y35177893D01*
X17538800Y35196194D01*
X17483005Y35270078D01*
X17469679Y35282226D01*
X17389979Y35331574D01*
X17373158Y35338090D01*
X17276507Y35356158D01*
X17267417Y35357000D01*
X16675680Y35357000D01*
X16671402Y35355610D01*
X16660000Y35333232D01*
X16360000Y35333232D01*
X16360001Y35341320D01*
X16355879Y35354005D01*
X16351758Y35357000D01*
X15753723Y35357000D01*
X15742427Y35355689D01*
X15622107Y35327390D01*
X15603806Y35318800D01*
X15529922Y35263005D01*
X15517774Y35249679D01*
X15468426Y35169979D01*
X15461910Y35153158D01*
X15443842Y35056507D01*
X15443000Y35047417D01*
X14937000Y35047417D01*
X14937000Y35052000D01*
X14921395Y35130450D01*
X14876957Y35196957D01*
X14810450Y35241395D01*
X14732000Y35257000D01*
X14669500Y35257000D01*
X14611309Y35275907D01*
X14570500Y35356000D01*
X14570500Y35764000D01*
X14589407Y35822191D01*
X14669500Y35863000D01*
X14732000Y35863000D01*
X14810450Y35878605D01*
X14876957Y35923043D01*
X14921395Y35989550D01*
X14937000Y36068000D01*
X14937000Y36671758D01*
X15443000Y36671758D01*
X15443000Y36073723D01*
X15444311Y36062427D01*
X15472610Y35942107D01*
X15481200Y35923806D01*
X15536995Y35849922D01*
X15550321Y35837774D01*
X15630021Y35788426D01*
X15646842Y35781910D01*
X15743493Y35763842D01*
X15752583Y35763000D01*
X16344320Y35763000D01*
X16348598Y35764390D01*
X16355879Y35778680D01*
X16659999Y35778680D01*
X16664121Y35765995D01*
X16668242Y35763000D01*
X17266277Y35763000D01*
X17277573Y35764311D01*
X17397893Y35792610D01*
X17416194Y35801200D01*
X17490078Y35856995D01*
X17502226Y35870321D01*
X17551574Y35950021D01*
X17558090Y35966842D01*
X17576158Y36063493D01*
X17577000Y36072583D01*
X17577000Y36664320D01*
X17575610Y36668598D01*
X17553232Y36680000D01*
X16675680Y36680000D01*
X16671402Y36678610D01*
X16660000Y36656232D01*
X16659999Y35778680D01*
X16355879Y35778680D01*
X16360000Y35786768D01*
X16360000Y36664320D01*
X16358610Y36668598D01*
X16336232Y36680000D01*
X15458680Y36680001D01*
X15445995Y36675879D01*
X15443000Y36671758D01*
X14937000Y36671758D01*
X14937000Y37587417D01*
X15443000Y37587417D01*
X15443000Y36995680D01*
X15444390Y36991402D01*
X15466768Y36980000D01*
X16344320Y36980000D01*
X16348598Y36981390D01*
X16360000Y37003768D01*
X16360000Y37873232D01*
X16660000Y37873232D01*
X16660000Y36995680D01*
X16661390Y36991402D01*
X16683768Y36980000D01*
X17561320Y36979999D01*
X17574005Y36984121D01*
X17577000Y36988242D01*
X17577000Y37586277D01*
X17575689Y37597573D01*
X17547390Y37717893D01*
X17538800Y37736194D01*
X17483005Y37810078D01*
X17469679Y37822226D01*
X17389979Y37871574D01*
X17373158Y37878090D01*
X17276507Y37896158D01*
X17267417Y37897000D01*
X16675680Y37897000D01*
X16671402Y37895610D01*
X16660000Y37873232D01*
X16360000Y37873232D01*
X16360001Y37881320D01*
X16355879Y37894005D01*
X16351758Y37897000D01*
X15753723Y37897000D01*
X15742427Y37895689D01*
X15622107Y37867390D01*
X15603806Y37858800D01*
X15529922Y37803005D01*
X15517774Y37789679D01*
X15468426Y37709979D01*
X15461910Y37693158D01*
X15443842Y37596507D01*
X15443000Y37587417D01*
X14937000Y37587417D01*
X14937000Y37592000D01*
X14921395Y37670450D01*
X14876957Y37736957D01*
X14810450Y37781395D01*
X14732000Y37797000D01*
X13208000Y37797000D01*
X13129550Y37781395D01*
X13063043Y37736957D01*
X13018605Y37670450D01*
X13003000Y37592000D01*
X13003000Y36068000D01*
X13018605Y35989550D01*
X13063043Y35923043D01*
X13129550Y35878605D01*
X13208000Y35863000D01*
X13270500Y35863000D01*
X13328691Y35844093D01*
X13369500Y35764000D01*
X13369501Y35356000D01*
X13350594Y35297809D01*
X13301094Y35261845D01*
X13270501Y35257000D01*
X13208000Y35257000D01*
X13129550Y35241395D01*
X13063043Y35196957D01*
X13018605Y35130450D01*
X13003000Y35052000D01*
X13003000Y33528000D01*
X13018605Y33449550D01*
X13063043Y33383043D01*
X13129550Y33338605D01*
X13208000Y33323000D01*
X13270501Y33323000D01*
X13328692Y33304093D01*
X13369501Y33224000D01*
X13369501Y32805771D01*
X13340505Y32735767D01*
X12623062Y32018323D01*
X12553058Y31989327D01*
X11088300Y31989327D01*
X11009850Y31973722D01*
X10943343Y31929284D01*
X10898905Y31862777D01*
X10883300Y31784327D01*
X454000Y31784327D01*
X454000Y34131758D01*
X10363000Y34131758D01*
X10363000Y33533723D01*
X10364311Y33522427D01*
X10392610Y33402107D01*
X10401200Y33383806D01*
X10456995Y33309922D01*
X10470321Y33297774D01*
X10550021Y33248426D01*
X10566842Y33241910D01*
X10663493Y33223842D01*
X10672583Y33223000D01*
X11264320Y33223000D01*
X11268598Y33224390D01*
X11275879Y33238680D01*
X11579999Y33238680D01*
X11584121Y33225995D01*
X11588242Y33223000D01*
X12186277Y33223000D01*
X12197573Y33224311D01*
X12317893Y33252610D01*
X12336194Y33261200D01*
X12410078Y33316995D01*
X12422226Y33330321D01*
X12471574Y33410021D01*
X12478090Y33426842D01*
X12496158Y33523493D01*
X12497000Y33532583D01*
X12497000Y34124320D01*
X12495610Y34128598D01*
X12473232Y34140000D01*
X11595680Y34140000D01*
X11591402Y34138610D01*
X11580000Y34116232D01*
X11579999Y33238680D01*
X11275879Y33238680D01*
X11280000Y33246768D01*
X11280000Y34124320D01*
X11278610Y34128598D01*
X11256232Y34140000D01*
X10378680Y34140001D01*
X10365995Y34135879D01*
X10363000Y34131758D01*
X454000Y34131758D01*
X454000Y35047417D01*
X10363000Y35047417D01*
X10363000Y34455680D01*
X10364390Y34451402D01*
X10386768Y34440000D01*
X11264320Y34440000D01*
X11268598Y34441390D01*
X11280000Y34463768D01*
X11280000Y35333232D01*
X11580000Y35333232D01*
X11580000Y34455680D01*
X11581390Y34451402D01*
X11603768Y34440000D01*
X12481320Y34439999D01*
X12494005Y34444121D01*
X12497000Y34448242D01*
X12497000Y35046277D01*
X12495689Y35057573D01*
X12467390Y35177893D01*
X12458800Y35196194D01*
X12403005Y35270078D01*
X12389679Y35282226D01*
X12309979Y35331574D01*
X12293158Y35338090D01*
X12196507Y35356158D01*
X12187417Y35357000D01*
X11595680Y35357000D01*
X11591402Y35355610D01*
X11580000Y35333232D01*
X11280000Y35333232D01*
X11280001Y35341320D01*
X11275879Y35354005D01*
X11271758Y35357000D01*
X10673723Y35357000D01*
X10662427Y35355689D01*
X10542107Y35327390D01*
X10523806Y35318800D01*
X10449922Y35263005D01*
X10437774Y35249679D01*
X10388426Y35169979D01*
X10381910Y35153158D01*
X10363842Y35056507D01*
X10363000Y35047417D01*
X454000Y35047417D01*
X454000Y36671758D01*
X10363000Y36671758D01*
X10363000Y36073723D01*
X10364311Y36062427D01*
X10392610Y35942107D01*
X10401200Y35923806D01*
X10456995Y35849922D01*
X10470321Y35837774D01*
X10550021Y35788426D01*
X10566842Y35781910D01*
X10663493Y35763842D01*
X10672583Y35763000D01*
X11264320Y35763000D01*
X11268598Y35764390D01*
X11275879Y35778680D01*
X11579999Y35778680D01*
X11584121Y35765995D01*
X11588242Y35763000D01*
X12186277Y35763000D01*
X12197573Y35764311D01*
X12317893Y35792610D01*
X12336194Y35801200D01*
X12410078Y35856995D01*
X12422226Y35870321D01*
X12471574Y35950021D01*
X12478090Y35966842D01*
X12496158Y36063493D01*
X12497000Y36072583D01*
X12497000Y36664320D01*
X12495610Y36668598D01*
X12473232Y36680000D01*
X11595680Y36680000D01*
X11591402Y36678610D01*
X11580000Y36656232D01*
X11579999Y35778680D01*
X11275879Y35778680D01*
X11280000Y35786768D01*
X11280000Y36664320D01*
X11278610Y36668598D01*
X11256232Y36680000D01*
X10378680Y36680001D01*
X10365995Y36675879D01*
X10363000Y36671758D01*
X454000Y36671758D01*
X454000Y37587417D01*
X10363000Y37587417D01*
X10363000Y36995680D01*
X10364390Y36991402D01*
X10386768Y36980000D01*
X11264320Y36980000D01*
X11268598Y36981390D01*
X11280000Y37003768D01*
X11280000Y37873232D01*
X11580000Y37873232D01*
X11580000Y36995680D01*
X11581390Y36991402D01*
X11603768Y36980000D01*
X12481320Y36979999D01*
X12494005Y36984121D01*
X12497000Y36988242D01*
X12497000Y37586277D01*
X12495689Y37597573D01*
X12467390Y37717893D01*
X12458800Y37736194D01*
X12403005Y37810078D01*
X12389679Y37822226D01*
X12309979Y37871574D01*
X12293158Y37878090D01*
X12196507Y37896158D01*
X12187417Y37897000D01*
X11595680Y37897000D01*
X11591402Y37895610D01*
X11580000Y37873232D01*
X11280000Y37873232D01*
X11280001Y37881320D01*
X11275879Y37894005D01*
X11271758Y37897000D01*
X10673723Y37897000D01*
X10662427Y37895689D01*
X10542107Y37867390D01*
X10523806Y37858800D01*
X10449922Y37803005D01*
X10437774Y37789679D01*
X10388426Y37709979D01*
X10381910Y37693158D01*
X10363842Y37596507D01*
X10363000Y37587417D01*
X454000Y37587417D01*
X454000Y38576758D01*
X18681500Y38576758D01*
X18681500Y38296223D01*
X18682811Y38284927D01*
X18711110Y38164607D01*
X18719700Y38146306D01*
X18775495Y38072422D01*
X18788821Y38060274D01*
X18868521Y38010926D01*
X18885342Y38004410D01*
X18981993Y37986342D01*
X18991083Y37985500D01*
X19519320Y37985500D01*
X19523598Y37986890D01*
X19530879Y38001180D01*
X19834999Y38001180D01*
X19839121Y37988495D01*
X19843242Y37985500D01*
X20377777Y37985500D01*
X20389073Y37986811D01*
X20509393Y38015110D01*
X20527694Y38023700D01*
X20601578Y38079495D01*
X20613726Y38092821D01*
X20663074Y38172521D01*
X20669590Y38189342D01*
X20687658Y38285993D01*
X20688500Y38295083D01*
X20688500Y38569320D01*
X20687110Y38573598D01*
X20664732Y38585000D01*
X19850680Y38585000D01*
X19846402Y38583610D01*
X19835000Y38561232D01*
X19834999Y38001180D01*
X19530879Y38001180D01*
X19535000Y38009268D01*
X19535000Y38569320D01*
X19533610Y38573598D01*
X19511232Y38585000D01*
X18697180Y38585001D01*
X18684495Y38580879D01*
X18681500Y38576758D01*
X454000Y38576758D01*
X454000Y39174917D01*
X18681500Y39174917D01*
X18681500Y38900680D01*
X18682890Y38896402D01*
X18705268Y38885000D01*
X19519320Y38885000D01*
X19523598Y38886390D01*
X19535000Y38908768D01*
X19535000Y39460732D01*
X19835000Y39460732D01*
X19835000Y38900680D01*
X19836390Y38896402D01*
X19858768Y38885000D01*
X20672820Y38884999D01*
X20685505Y38889121D01*
X20688500Y38893242D01*
X20688500Y39173777D01*
X20687836Y39179500D01*
X21321500Y39179500D01*
X21321500Y38290500D01*
X21337105Y38212050D01*
X21381543Y38145543D01*
X21448050Y38101105D01*
X21526500Y38085500D01*
X22923500Y38085500D01*
X23001950Y38101105D01*
X23068457Y38145543D01*
X23112895Y38212050D01*
X23128500Y38290500D01*
X23128500Y38576758D01*
X23761500Y38576758D01*
X23761500Y38296223D01*
X23762811Y38284927D01*
X23791110Y38164607D01*
X23799700Y38146306D01*
X23855495Y38072422D01*
X23868821Y38060274D01*
X23948521Y38010926D01*
X23965342Y38004410D01*
X24061993Y37986342D01*
X24071083Y37985500D01*
X24599320Y37985500D01*
X24603598Y37986890D01*
X24610879Y38001180D01*
X24914999Y38001180D01*
X24919121Y37988495D01*
X24923242Y37985500D01*
X25457777Y37985500D01*
X25469073Y37986811D01*
X25589393Y38015110D01*
X25607694Y38023700D01*
X25681578Y38079495D01*
X25693726Y38092821D01*
X25743074Y38172521D01*
X25749590Y38189342D01*
X25767658Y38285993D01*
X25768500Y38295083D01*
X25768500Y38569320D01*
X25767110Y38573598D01*
X25744732Y38585000D01*
X24930680Y38585000D01*
X24926402Y38583610D01*
X24915000Y38561232D01*
X24914999Y38001180D01*
X24610879Y38001180D01*
X24615000Y38009268D01*
X24615000Y38569320D01*
X24613610Y38573598D01*
X24591232Y38585000D01*
X23777180Y38585001D01*
X23764495Y38580879D01*
X23761500Y38576758D01*
X23128500Y38576758D01*
X23128500Y39174917D01*
X23761500Y39174917D01*
X23761500Y38900680D01*
X23762890Y38896402D01*
X23785268Y38885000D01*
X24599320Y38885000D01*
X24603598Y38886390D01*
X24615000Y38908768D01*
X24615000Y39460732D01*
X24915000Y39460732D01*
X24915000Y38900680D01*
X24916390Y38896402D01*
X24938768Y38885000D01*
X25752820Y38884999D01*
X25765505Y38889121D01*
X25768500Y38893242D01*
X25768500Y39173777D01*
X25767189Y39185073D01*
X25738890Y39305393D01*
X25730300Y39323694D01*
X25674505Y39397578D01*
X25661179Y39409726D01*
X25581479Y39459074D01*
X25564658Y39465590D01*
X25468007Y39483658D01*
X25458917Y39484500D01*
X24930680Y39484500D01*
X24926402Y39483110D01*
X24915000Y39460732D01*
X24615000Y39460732D01*
X24615001Y39468820D01*
X24610879Y39481505D01*
X24606758Y39484500D01*
X24072223Y39484500D01*
X24060927Y39483189D01*
X23940607Y39454890D01*
X23922306Y39446300D01*
X23848422Y39390505D01*
X23836274Y39377179D01*
X23786926Y39297479D01*
X23780410Y39280658D01*
X23762342Y39184007D01*
X23761500Y39174917D01*
X23128500Y39174917D01*
X23128500Y39179500D01*
X23112895Y39257950D01*
X23081195Y39305393D01*
X23073876Y39316347D01*
X23068457Y39324457D01*
X23001950Y39368895D01*
X22923500Y39384500D01*
X21526500Y39384500D01*
X21448050Y39368895D01*
X21381543Y39324457D01*
X21376124Y39316347D01*
X21368805Y39305393D01*
X21337105Y39257950D01*
X21321500Y39179500D01*
X20687836Y39179500D01*
X20687189Y39185073D01*
X20658890Y39305393D01*
X20650300Y39323694D01*
X20594505Y39397578D01*
X20581179Y39409726D01*
X20501479Y39459074D01*
X20484658Y39465590D01*
X20388007Y39483658D01*
X20378917Y39484500D01*
X19850680Y39484500D01*
X19846402Y39483110D01*
X19835000Y39460732D01*
X19535000Y39460732D01*
X19535001Y39468820D01*
X19530879Y39481505D01*
X19526758Y39484500D01*
X18992223Y39484500D01*
X18980927Y39483189D01*
X18860607Y39454890D01*
X18842306Y39446300D01*
X18768422Y39390505D01*
X18756274Y39377179D01*
X18706926Y39297479D01*
X18700410Y39280658D01*
X18682342Y39184007D01*
X18681500Y39174917D01*
X454000Y39174917D01*
X454000Y40087000D01*
X472907Y40145191D01*
X553000Y40186000D01*
X28241000Y40186000D01*
X28299191Y40167093D01*
G37*
%TD.AperFunction*%
%TD*%
M02*
