  0
SECTION
  2
HEADER
  9
$ANGBASE
  50
0.0
  9
$ANGDIR
  70
1
  9
$MEASUREMENT
  70
0
  0
ENDSEC
  0
SECTION
  2
TABLES
  0
TABLE
  2
LTYPE
  70
4
  0
LTYPE
  5
40F
  2
CONTINUOUS
  70
0
  3
Solid line
  72
65
  73
0
  40
0.0
  0
LTYPE
  5
410
  2
DASHDOT
 70
0
  3
Dash Dot ____ _ ____ _
 72
65
 73
4
 40
2.0
 49
1.25
 49
-0.25
 49
0.25
 49
-0.25
  0
LTYPE
  5
411
  2
DASHED
 70
0
  3
Dashed __ __ __ __ __
 72
65
 73
2
 40
0.75
 49
0.5
 49
-0.25
  0
LTYPE
  5
43B
  2
DOTTED
 70
0
  3
Dotted .  .  .  .
 72
65
 73
2
 40
0.2
 49
0.0
 49
-0.2
  0
ENDTAB
  0
TABLE
  2
STYLE
  70
4
  0
STYLE
  2
KICAD
  70
0
  40
0
  41
1
  42
1
  50
0
  71
0
  3
isocp.shx
  0
STYLE
  2
KICADB
  70
0
  40
0
  41
1
  42
1
  50
0
  71
0
  3
isocp.shx
  0
STYLE
  2
KICADI
  70
0
  40
0
  41
1
  42
1
  50
15
  71
0
  3
isocp.shx
  0
STYLE
  2
KICADBI
  70
0
  40
0
  41
1
  42
1
  50
15
  71
0
  3
isocp.shx
  0
ENDTAB
  0
TABLE
  2
LAYER
  70
1
  0
LAYER
  2
BLACK
  70
0
  62
7
  6
CONTINUOUS
  0
ENDTAB
  0
ENDSEC
  0
SECTION
  2
ENTITIES
0
LINE
8
BLACK
6
CONTINUOUS
10
6.30301
20
-4.371
11
6.26801
21
-4.371
0
LINE
8
BLACK
6
CONTINUOUS
10
6.26801
20
-4.371
11
6.26801
21
-4.316
0
LINE
8
BLACK
6
CONTINUOUS
10
6.26801
20
-4.316
11
6.30301
21
-4.316
0
LINE
8
BLACK
6
CONTINUOUS
10
6.30301
20
-4.316
11
6.30301
21
-4.371
0
LINE
8
BLACK
6
CONTINUOUS
10
6.37801
20
-4.371
11
6.34301
21
-4.371
0
LINE
8
BLACK
6
CONTINUOUS
10
6.34301
20
-4.371
11
6.34301
21
-4.316
0
LINE
8
BLACK
6
CONTINUOUS
10
6.34301
20
-4.316
11
6.37801
21
-4.316
0
LINE
8
BLACK
6
CONTINUOUS
10
6.37801
20
-4.316
11
6.37801
21
-4.371
0
LINE
8
BLACK
6
CONTINUOUS
10
5.8708
20
-4.343
11
5.8358
21
-4.343
0
LINE
8
BLACK
6
CONTINUOUS
10
5.8358
20
-4.343
11
5.8358
21
-4.288
0
LINE
8
BLACK
6
CONTINUOUS
10
5.8358
20
-4.288
11
5.8708
21
-4.288
0
LINE
8
BLACK
6
CONTINUOUS
10
5.8708
20
-4.288
11
5.8708
21
-4.343
0
LINE
8
BLACK
6
CONTINUOUS
10
5.9458
20
-4.343
11
5.9108
21
-4.343
0
LINE
8
BLACK
6
CONTINUOUS
10
5.9108
20
-4.343
11
5.9108
21
-4.288
0
LINE
8
BLACK
6
CONTINUOUS
10
5.9108
20
-4.288
11
5.9458
21
-4.288
0
LINE
8
BLACK
6
CONTINUOUS
10
5.9458
20
-4.288
11
5.9458
21
-4.343
0
LINE
8
BLACK
6
CONTINUOUS
10
6.07252
20
-4.31803
11
6.03512
21
-4.31803
0
LINE
8
BLACK
6
CONTINUOUS
10
6.03512
20
-4.31803
11
6.03512
21
-4.25898
0
LINE
8
BLACK
6
CONTINUOUS
10
6.03512
20
-4.25898
11
6.07252
21
-4.25898
0
LINE
8
BLACK
6
CONTINUOUS
10
6.07252
20
-4.25898
11
6.07252
21
-4.31803
0
LINE
8
BLACK
6
CONTINUOUS
10
6.23591
20
-4.31803
11
6.1985
21
-4.31803
0
LINE
8
BLACK
6
CONTINUOUS
10
6.1985
20
-4.31803
11
6.1985
21
-4.25898
0
LINE
8
BLACK
6
CONTINUOUS
10
6.1985
20
-4.25898
11
6.23591
21
-4.25898
0
LINE
8
BLACK
6
CONTINUOUS
10
6.23591
20
-4.25898
11
6.23591
21
-4.31803
0
LINE
8
BLACK
6
CONTINUOUS
10
6.30301
20
-4.286
11
6.26801
21
-4.286
0
LINE
8
BLACK
6
CONTINUOUS
10
6.26801
20
-4.286
11
6.26801
21
-4.231
0
LINE
8
BLACK
6
CONTINUOUS
10
6.26801
20
-4.231
11
6.30301
21
-4.231
0
LINE
8
BLACK
6
CONTINUOUS
10
6.30301
20
-4.231
11
6.30301
21
-4.286
0
LINE
8
BLACK
6
CONTINUOUS
10
6.37801
20
-4.286
11
6.34301
21
-4.286
0
LINE
8
BLACK
6
CONTINUOUS
10
6.34301
20
-4.286
11
6.34301
21
-4.231
0
LINE
8
BLACK
6
CONTINUOUS
10
6.34301
20
-4.231
11
6.37801
21
-4.231
0
LINE
8
BLACK
6
CONTINUOUS
10
6.37801
20
-4.231
11
6.37801
21
-4.286
0
LINE
8
BLACK
6
CONTINUOUS
10
6.00801
20
-4.261
11
5.95301
21
-4.261
0
LINE
8
BLACK
6
CONTINUOUS
10
5.95301
20
-4.261
11
5.95301
21
-4.226
0
LINE
8
BLACK
6
CONTINUOUS
10
5.95301
20
-4.226
11
6.00801
21
-4.226
0
LINE
8
BLACK
6
CONTINUOUS
10
6.00801
20
-4.226
11
6.00801
21
-4.261
0
LINE
8
BLACK
6
CONTINUOUS
10
5.83091
20
-4.22697
11
5.80531
21
-4.22697
0
LINE
8
BLACK
6
CONTINUOUS
10
5.80531
20
-4.22697
11
5.80531
21
-4.21122
0
LINE
8
BLACK
6
CONTINUOUS
10
5.80531
20
-4.21122
11
5.83091
21
-4.21122
0
LINE
8
BLACK
6
CONTINUOUS
10
5.83091
20
-4.21122
11
5.83091
21
-4.22697
0
LINE
8
BLACK
6
CONTINUOUS
10
5.90571
20
-4.22697
11
5.88012
21
-4.22697
0
LINE
8
BLACK
6
CONTINUOUS
10
5.88012
20
-4.22697
11
5.88012
21
-4.21122
0
LINE
8
BLACK
6
CONTINUOUS
10
5.88012
20
-4.21122
11
5.90571
21
-4.21122
0
LINE
8
BLACK
6
CONTINUOUS
10
5.90571
20
-4.21122
11
5.90571
21
-4.22697
0
LINE
8
BLACK
6
CONTINUOUS
10
6.30301
20
-4.206
11
6.26801
21
-4.206
0
LINE
8
BLACK
6
CONTINUOUS
10
6.26801
20
-4.206
11
6.26801
21
-4.151
0
LINE
8
BLACK
6
CONTINUOUS
10
6.26801
20
-4.151
11
6.30301
21
-4.151
0
LINE
8
BLACK
6
CONTINUOUS
10
6.30301
20
-4.151
11
6.30301
21
-4.206
0
LINE
8
BLACK
6
CONTINUOUS
10
6.37801
20
-4.206
11
6.34301
21
-4.206
0
LINE
8
BLACK
6
CONTINUOUS
10
6.34301
20
-4.206
11
6.34301
21
-4.151
0
LINE
8
BLACK
6
CONTINUOUS
10
6.34301
20
-4.151
11
6.37801
21
-4.151
0
LINE
8
BLACK
6
CONTINUOUS
10
6.37801
20
-4.151
11
6.37801
21
-4.206
0
LINE
8
BLACK
6
CONTINUOUS
10
5.90571
20
-4.20138
11
5.88012
21
-4.20138
0
LINE
8
BLACK
6
CONTINUOUS
10
5.88012
20
-4.20138
11
5.88012
21
-4.18563
0
LINE
8
BLACK
6
CONTINUOUS
10
5.88012
20
-4.18563
11
5.90571
21
-4.18563
0
LINE
8
BLACK
6
CONTINUOUS
10
5.90571
20
-4.18563
11
5.90571
21
-4.20138
0
LINE
8
BLACK
6
CONTINUOUS
10
6.08376
20
-4.14554
11
6.08655
21
-4.1474
0
LINE
8
BLACK
6
CONTINUOUS
10
6.08655
20
-4.1474
11
6.08842
21
-4.1502
0
LINE
8
BLACK
6
CONTINUOUS
10
6.08842
20
-4.1502
11
6.08907
21
-4.15349
0
LINE
8
BLACK
6
CONTINUOUS
10
6.08907
20
-4.15349
11
6.08907
21
-4.18351
0
LINE
8
BLACK
6
CONTINUOUS
10
6.08907
20
-4.18351
11
6.08842
21
-4.18681
0
LINE
8
BLACK
6
CONTINUOUS
10
6.08842
20
-4.18681
11
6.08655
21
-4.1896
0
LINE
8
BLACK
6
CONTINUOUS
10
6.08655
20
-4.1896
11
6.08376
21
-4.19147
0
LINE
8
BLACK
6
CONTINUOUS
10
6.08376
20
-4.19147
11
6.08046
21
-4.19213
0
LINE
8
BLACK
6
CONTINUOUS
10
6.08046
20
-4.19213
11
6.06324
21
-4.19213
0
LINE
8
BLACK
6
CONTINUOUS
10
6.06324
20
-4.19213
11
6.05994
21
-4.19147
0
LINE
8
BLACK
6
CONTINUOUS
10
6.05994
20
-4.19147
11
6.05715
21
-4.1896
0
LINE
8
BLACK
6
CONTINUOUS
10
6.05715
20
-4.1896
11
6.05528
21
-4.18681
0
LINE
8
BLACK
6
CONTINUOUS
10
6.05528
20
-4.18681
11
6.05463
21
-4.18351
0
LINE
8
BLACK
6
CONTINUOUS
10
6.05463
20
-4.18351
11
6.05463
21
-4.15349
0
LINE
8
BLACK
6
CONTINUOUS
10
6.05463
20
-4.15349
11
6.05528
21
-4.1502
0
LINE
8
BLACK
6
CONTINUOUS
10
6.05528
20
-4.1502
11
6.05715
21
-4.1474
0
LINE
8
BLACK
6
CONTINUOUS
10
6.05715
20
-4.1474
11
6.05994
21
-4.14554
0
LINE
8
BLACK
6
CONTINUOUS
10
6.05994
20
-4.14554
11
6.06324
21
-4.14488
0
LINE
8
BLACK
6
CONTINUOUS
10
6.06324
20
-4.14488
11
6.08046
21
-4.14488
0
LINE
8
BLACK
6
CONTINUOUS
10
6.08046
20
-4.14488
11
6.08376
21
-4.14554
0
LINE
8
BLACK
6
CONTINUOUS
10
6.16742
20
-4.14554
11
6.17021
21
-4.1474
0
LINE
8
BLACK
6
CONTINUOUS
10
6.17021
20
-4.1474
11
6.17208
21
-4.1502
0
LINE
8
BLACK
6
CONTINUOUS
10
6.17208
20
-4.1502
11
6.17274
21
-4.15349
0
LINE
8
BLACK
6
CONTINUOUS
10
6.17274
20
-4.15349
11
6.17274
21
-4.18351
0
LINE
8
BLACK
6
CONTINUOUS
10
6.17274
20
-4.18351
11
6.17208
21
-4.18681
0
LINE
8
BLACK
6
CONTINUOUS
10
6.17208
20
-4.18681
11
6.17021
21
-4.1896
0
LINE
8
BLACK
6
CONTINUOUS
10
6.17021
20
-4.1896
11
6.16742
21
-4.19147
0
LINE
8
BLACK
6
CONTINUOUS
10
6.16742
20
-4.19147
11
6.16412
21
-4.19213
0
LINE
8
BLACK
6
CONTINUOUS
10
6.16412
20
-4.19213
11
6.1469
21
-4.19213
0
LINE
8
BLACK
6
CONTINUOUS
10
6.1469
20
-4.19213
11
6.1436
21
-4.19147
0
LINE
8
BLACK
6
CONTINUOUS
10
6.1436
20
-4.19147
11
6.14081
21
-4.1896
0
LINE
8
BLACK
6
CONTINUOUS
10
6.14081
20
-4.1896
11
6.13894
21
-4.18681
0
LINE
8
BLACK
6
CONTINUOUS
10
6.13894
20
-4.18681
11
6.13829
21
-4.18351
0
LINE
8
BLACK
6
CONTINUOUS
10
6.13829
20
-4.18351
11
6.13829
21
-4.15349
0
LINE
8
BLACK
6
CONTINUOUS
10
6.13829
20
-4.15349
11
6.13894
21
-4.1502
0
LINE
8
BLACK
6
CONTINUOUS
10
6.13894
20
-4.1502
11
6.14081
21
-4.1474
0
LINE
8
BLACK
6
CONTINUOUS
10
6.14081
20
-4.1474
11
6.1436
21
-4.14554
0
LINE
8
BLACK
6
CONTINUOUS
10
6.1436
20
-4.14554
11
6.1469
21
-4.14488
0
LINE
8
BLACK
6
CONTINUOUS
10
6.1469
20
-4.14488
11
6.16412
21
-4.14488
0
LINE
8
BLACK
6
CONTINUOUS
10
6.16412
20
-4.14488
11
6.16742
21
-4.14554
0
LINE
8
BLACK
6
CONTINUOUS
10
6.00801
20
-4.186
11
5.95301
21
-4.186
0
LINE
8
BLACK
6
CONTINUOUS
10
5.95301
20
-4.186
11
5.95301
21
-4.151
0
LINE
8
BLACK
6
CONTINUOUS
10
5.95301
20
-4.151
11
6.00801
21
-4.151
0
LINE
8
BLACK
6
CONTINUOUS
10
6.00801
20
-4.151
11
6.00801
21
-4.186
0
LINE
8
BLACK
6
CONTINUOUS
10
5.72201
20
-4.1845
11
5.66701
21
-4.1845
0
LINE
8
BLACK
6
CONTINUOUS
10
5.66701
20
-4.1845
11
5.66701
21
-4.1495
0
LINE
8
BLACK
6
CONTINUOUS
10
5.66701
20
-4.1495
11
5.72201
21
-4.1495
0
LINE
8
BLACK
6
CONTINUOUS
10
5.72201
20
-4.1495
11
5.72201
21
-4.1845
0
LINE
8
BLACK
6
CONTINUOUS
10
5.83091
20
-4.17579
11
5.80531
21
-4.17579
0
LINE
8
BLACK
6
CONTINUOUS
10
5.80531
20
-4.17579
11
5.80531
21
-4.16004
0
LINE
8
BLACK
6
CONTINUOUS
10
5.80531
20
-4.16004
11
5.83091
21
-4.16004
0
LINE
8
BLACK
6
CONTINUOUS
10
5.83091
20
-4.16004
11
5.83091
21
-4.17579
0
LINE
8
BLACK
6
CONTINUOUS
10
5.90571
20
-4.17579
11
5.88012
21
-4.17579
0
LINE
8
BLACK
6
CONTINUOUS
10
5.88012
20
-4.17579
11
5.88012
21
-4.16004
0
LINE
8
BLACK
6
CONTINUOUS
10
5.88012
20
-4.16004
11
5.90571
21
-4.16004
0
LINE
8
BLACK
6
CONTINUOUS
10
5.90571
20
-4.16004
11
5.90571
21
-4.17579
0
LINE
8
BLACK
6
CONTINUOUS
10
6.27391
20
-4.07053
11
6.2767
21
-4.0724
0
LINE
8
BLACK
6
CONTINUOUS
10
6.2767
20
-4.0724
11
6.28888
21
-4.08458
0
LINE
8
BLACK
6
CONTINUOUS
10
6.28888
20
-4.08458
11
6.29075
21
-4.08737
0
LINE
8
BLACK
6
CONTINUOUS
10
6.29075
20
-4.08737
11
6.29141
21
-4.09067
0
LINE
8
BLACK
6
CONTINUOUS
10
6.29141
20
-4.09067
11
6.29075
21
-4.09396
0
LINE
8
BLACK
6
CONTINUOUS
10
6.29075
20
-4.09396
11
6.28888
21
-4.09676
0
LINE
8
BLACK
6
CONTINUOUS
10
6.28888
20
-4.09676
11
6.26766
21
-4.11798
0
LINE
8
BLACK
6
CONTINUOUS
10
6.26766
20
-4.11798
11
6.26486
21
-4.11985
0
LINE
8
BLACK
6
CONTINUOUS
10
6.26486
20
-4.11985
11
6.26157
21
-4.1205
0
LINE
8
BLACK
6
CONTINUOUS
10
6.26157
20
-4.1205
11
6.25827
21
-4.11985
0
LINE
8
BLACK
6
CONTINUOUS
10
6.25827
20
-4.11985
11
6.25548
21
-4.11798
0
LINE
8
BLACK
6
CONTINUOUS
10
6.25548
20
-4.11798
11
6.2433
21
-4.1058
0
LINE
8
BLACK
6
CONTINUOUS
10
6.2433
20
-4.1058
11
6.24143
21
-4.10301
0
LINE
8
BLACK
6
CONTINUOUS
10
6.24143
20
-4.10301
11
6.24078
21
-4.09971
0
LINE
8
BLACK
6
CONTINUOUS
10
6.24078
20
-4.09971
11
6.24143
21
-4.09642
0
LINE
8
BLACK
6
CONTINUOUS
10
6.24143
20
-4.09642
11
6.2433
21
-4.09362
0
LINE
8
BLACK
6
CONTINUOUS
10
6.2433
20
-4.09362
11
6.26452
21
-4.0724
0
LINE
8
BLACK
6
CONTINUOUS
10
6.26452
20
-4.0724
11
6.26732
21
-4.07053
0
LINE
8
BLACK
6
CONTINUOUS
10
6.26732
20
-4.07053
11
6.27061
21
-4.06987
0
LINE
8
BLACK
6
CONTINUOUS
10
6.27061
20
-4.06987
11
6.27391
21
-4.07053
0
LINE
8
BLACK
6
CONTINUOUS
10
5.72201
20
-4.1095
11
5.66701
21
-4.1095
0
LINE
8
BLACK
6
CONTINUOUS
10
5.66701
20
-4.1095
11
5.66701
21
-4.0745
0
LINE
8
BLACK
6
CONTINUOUS
10
5.66701
20
-4.0745
11
5.72201
21
-4.0745
0
LINE
8
BLACK
6
CONTINUOUS
10
5.72201
20
-4.0745
11
5.72201
21
-4.1095
0
LINE
8
BLACK
6
CONTINUOUS
10
6.05551
20
-4.0735
11
6.02051
21
-4.0735
0
LINE
8
BLACK
6
CONTINUOUS
10
6.02051
20
-4.0735
11
6.02051
21
-4.0185
0
LINE
8
BLACK
6
CONTINUOUS
10
6.02051
20
-4.0185
11
6.05551
21
-4.0185
0
LINE
8
BLACK
6
CONTINUOUS
10
6.05551
20
-4.0185
11
6.05551
21
-4.0735
0
LINE
8
BLACK
6
CONTINUOUS
10
6.13051
20
-4.0735
11
6.09551
21
-4.0735
0
LINE
8
BLACK
6
CONTINUOUS
10
6.09551
20
-4.0735
11
6.09551
21
-4.0185
0
LINE
8
BLACK
6
CONTINUOUS
10
6.09551
20
-4.0185
11
6.13051
21
-4.0185
0
LINE
8
BLACK
6
CONTINUOUS
10
6.13051
20
-4.0185
11
6.13051
21
-4.0735
0
LINE
8
BLACK
6
CONTINUOUS
10
6.21475
20
-4.01137
11
6.21755
21
-4.01324
0
LINE
8
BLACK
6
CONTINUOUS
10
6.21755
20
-4.01324
11
6.22973
21
-4.02542
0
LINE
8
BLACK
6
CONTINUOUS
10
6.22973
20
-4.02542
11
6.23159
21
-4.02821
0
LINE
8
BLACK
6
CONTINUOUS
10
6.23159
20
-4.02821
11
6.23225
21
-4.03151
0
LINE
8
BLACK
6
CONTINUOUS
10
6.23225
20
-4.03151
11
6.23159
21
-4.0348
0
LINE
8
BLACK
6
CONTINUOUS
10
6.23159
20
-4.0348
11
6.22973
21
-4.0376
0
LINE
8
BLACK
6
CONTINUOUS
10
6.22973
20
-4.0376
11
6.2085
21
-4.05882
0
LINE
8
BLACK
6
CONTINUOUS
10
6.2085
20
-4.05882
11
6.2057
21
-4.06069
0
LINE
8
BLACK
6
CONTINUOUS
10
6.2057
20
-4.06069
11
6.20241
21
-4.06135
0
LINE
8
BLACK
6
CONTINUOUS
10
6.20241
20
-4.06135
11
6.19911
21
-4.06069
0
LINE
8
BLACK
6
CONTINUOUS
10
6.19911
20
-4.06069
11
6.19632
21
-4.05882
0
LINE
8
BLACK
6
CONTINUOUS
10
6.19632
20
-4.05882
11
6.18414
21
-4.04665
0
LINE
8
BLACK
6
CONTINUOUS
10
6.18414
20
-4.04665
11
6.18227
21
-4.04385
0
LINE
8
BLACK
6
CONTINUOUS
10
6.18227
20
-4.04385
11
6.18162
21
-4.04056
0
LINE
8
BLACK
6
CONTINUOUS
10
6.18162
20
-4.04056
11
6.18227
21
-4.03726
0
LINE
8
BLACK
6
CONTINUOUS
10
6.18227
20
-4.03726
11
6.18414
21
-4.03447
0
LINE
8
BLACK
6
CONTINUOUS
10
6.18414
20
-4.03447
11
6.20537
21
-4.01324
0
LINE
8
BLACK
6
CONTINUOUS
10
6.20537
20
-4.01324
11
6.20816
21
-4.01137
0
LINE
8
BLACK
6
CONTINUOUS
10
6.20816
20
-4.01137
11
6.21146
21
-4.01072
0
LINE
8
BLACK
6
CONTINUOUS
10
6.21146
20
-4.01072
11
6.21475
21
-4.01137
0
LINE
8
BLACK
6
CONTINUOUS
10
5.84508
20
-4.05531
11
5.78602
21
-4.05531
0
LINE
8
BLACK
6
CONTINUOUS
10
5.78602
20
-4.05531
11
5.78602
21
-4.03169
0
LINE
8
BLACK
6
CONTINUOUS
10
5.78602
20
-4.03169
11
5.84508
21
-4.03169
0
LINE
8
BLACK
6
CONTINUOUS
10
5.84508
20
-4.03169
11
5.84508
21
-4.05531
0
LINE
8
BLACK
6
CONTINUOUS
10
5.975
20
-4.05531
11
5.91594
21
-4.05531
0
LINE
8
BLACK
6
CONTINUOUS
10
5.91594
20
-4.05531
11
5.91594
21
-4.03169
0
LINE
8
BLACK
6
CONTINUOUS
10
5.91594
20
-4.03169
11
5.975
21
-4.03169
0
LINE
8
BLACK
6
CONTINUOUS
10
5.975
20
-4.03169
11
5.975
21
-4.05531
0
LINE
8
BLACK
6
CONTINUOUS
10
5.84508
20
-4.00531
11
5.78602
21
-4.00531
0
LINE
8
BLACK
6
CONTINUOUS
10
5.78602
20
-4.00531
11
5.78602
21
-3.98169
0
LINE
8
BLACK
6
CONTINUOUS
10
5.78602
20
-3.98169
11
5.84508
21
-3.98169
0
LINE
8
BLACK
6
CONTINUOUS
10
5.84508
20
-3.98169
11
5.84508
21
-4.00531
0
LINE
8
BLACK
6
CONTINUOUS
10
5.975
20
-4.00531
11
5.91594
21
-4.00531
0
LINE
8
BLACK
6
CONTINUOUS
10
5.91594
20
-4.00531
11
5.91594
21
-3.98169
0
LINE
8
BLACK
6
CONTINUOUS
10
5.91594
20
-3.98169
11
5.975
21
-3.98169
0
LINE
8
BLACK
6
CONTINUOUS
10
5.975
20
-3.98169
11
5.975
21
-4.00531
0
LINE
8
BLACK
6
CONTINUOUS
10
6.24606
20
-3.97028
11
6.19488
21
-3.97028
0
LINE
8
BLACK
6
CONTINUOUS
10
6.19488
20
-3.97028
11
6.19488
21
-3.93484
0
LINE
8
BLACK
6
CONTINUOUS
10
6.19488
20
-3.93484
11
6.24606
21
-3.93484
0
LINE
8
BLACK
6
CONTINUOUS
10
6.24606
20
-3.93484
11
6.24606
21
-3.97028
0
LINE
8
BLACK
6
CONTINUOUS
10
6.45209
20
-3.961
11
6.39709
21
-3.961
0
LINE
8
BLACK
6
CONTINUOUS
10
6.39709
20
-3.961
11
6.39709
21
-3.926
0
LINE
8
BLACK
6
CONTINUOUS
10
6.39709
20
-3.926
11
6.45209
21
-3.926
0
LINE
8
BLACK
6
CONTINUOUS
10
6.45209
20
-3.926
11
6.45209
21
-3.961
0
LINE
8
BLACK
6
CONTINUOUS
10
5.84508
20
-3.95531
11
5.78602
21
-3.95531
0
LINE
8
BLACK
6
CONTINUOUS
10
5.78602
20
-3.95531
11
5.78602
21
-3.93169
0
LINE
8
BLACK
6
CONTINUOUS
10
5.78602
20
-3.93169
11
5.84508
21
-3.93169
0
LINE
8
BLACK
6
CONTINUOUS
10
5.84508
20
-3.93169
11
5.84508
21
-3.95531
0
LINE
8
BLACK
6
CONTINUOUS
10
5.975
20
-3.95531
11
5.91594
21
-3.95531
0
LINE
8
BLACK
6
CONTINUOUS
10
5.91594
20
-3.95531
11
5.91594
21
-3.93169
0
LINE
8
BLACK
6
CONTINUOUS
10
5.91594
20
-3.93169
11
5.975
21
-3.93169
0
LINE
8
BLACK
6
CONTINUOUS
10
5.975
20
-3.93169
11
5.975
21
-3.95531
0
LINE
8
BLACK
6
CONTINUOUS
10
6.18799
20
-3.87579
11
6.24606
21
-3.87579
0
LINE
8
BLACK
6
CONTINUOUS
10
6.24606
20
-3.87579
11
6.24606
21
-3.91122
0
LINE
8
BLACK
6
CONTINUOUS
10
6.24606
20
-3.91122
11
6.18799
21
-3.91122
0
LINE
8
BLACK
6
CONTINUOUS
10
6.18799
20
-3.91122
11
6.18799
21
-3.92762
0
LINE
8
BLACK
6
CONTINUOUS
10
6.18799
20
-3.92762
11
6.06496
21
-3.92762
0
LINE
8
BLACK
6
CONTINUOUS
10
6.06496
20
-3.92762
11
6.06496
21
-3.85939
0
LINE
8
BLACK
6
CONTINUOUS
10
6.06496
20
-3.85939
11
6.18799
21
-3.85939
0
LINE
8
BLACK
6
CONTINUOUS
10
6.18799
20
-3.85939
11
6.18799
21
-3.87579
0
LINE
8
BLACK
6
CONTINUOUS
10
6.45209
20
-3.886
11
6.39709
21
-3.886
0
LINE
8
BLACK
6
CONTINUOUS
10
6.39709
20
-3.886
11
6.39709
21
-3.851
0
LINE
8
BLACK
6
CONTINUOUS
10
6.39709
20
-3.851
11
6.45209
21
-3.851
0
LINE
8
BLACK
6
CONTINUOUS
10
6.45209
20
-3.851
11
6.45209
21
-3.886
0
LINE
8
BLACK
6
CONTINUOUS
10
6.24606
20
-3.85217
11
6.19488
21
-3.85217
0
LINE
8
BLACK
6
CONTINUOUS
10
6.19488
20
-3.85217
11
6.19488
21
-3.81673
0
LINE
8
BLACK
6
CONTINUOUS
10
6.19488
20
-3.81673
11
6.24606
21
-3.81673
0
LINE
8
BLACK
6
CONTINUOUS
10
6.24606
20
-3.81673
11
6.24606
21
-3.85217
0
LINE
8
BLACK
6
CONTINUOUS
10
5.87485
20
-3.80695
11
5.83596
21
-3.84584
0
LINE
8
BLACK
6
CONTINUOUS
10
5.83596
20
-3.84584
11
5.81121
21
-3.82109
0
LINE
8
BLACK
6
CONTINUOUS
10
5.81121
20
-3.82109
11
5.8501
21
-3.7822
0
LINE
8
BLACK
6
CONTINUOUS
10
5.8501
20
-3.7822
11
5.87485
21
-3.80695
0
LINE
8
BLACK
6
CONTINUOUS
10
5.94676
20
-3.79054
11
5.94955
21
-3.7924
0
LINE
8
BLACK
6
CONTINUOUS
10
5.94955
20
-3.7924
11
5.95142
21
-3.7952
0
LINE
8
BLACK
6
CONTINUOUS
10
5.95142
20
-3.7952
11
5.95207
21
-3.79849
0
LINE
8
BLACK
6
CONTINUOUS
10
5.95207
20
-3.79849
11
5.95207
21
-3.82851
0
LINE
8
BLACK
6
CONTINUOUS
10
5.95207
20
-3.82851
11
5.95142
21
-3.83181
0
LINE
8
BLACK
6
CONTINUOUS
10
5.95142
20
-3.83181
11
5.94955
21
-3.8346
0
LINE
8
BLACK
6
CONTINUOUS
10
5.94955
20
-3.8346
11
5.94676
21
-3.83647
0
LINE
8
BLACK
6
CONTINUOUS
10
5.94676
20
-3.83647
11
5.94346
21
-3.83713
0
LINE
8
BLACK
6
CONTINUOUS
10
5.94346
20
-3.83713
11
5.92624
21
-3.83713
0
LINE
8
BLACK
6
CONTINUOUS
10
5.92624
20
-3.83713
11
5.92294
21
-3.83647
0
LINE
8
BLACK
6
CONTINUOUS
10
5.92294
20
-3.83647
11
5.92015
21
-3.8346
0
LINE
8
BLACK
6
CONTINUOUS
10
5.92015
20
-3.8346
11
5.91828
21
-3.83181
0
LINE
8
BLACK
6
CONTINUOUS
10
5.91828
20
-3.83181
11
5.91763
21
-3.82851
0
LINE
8
BLACK
6
CONTINUOUS
10
5.91763
20
-3.82851
11
5.91763
21
-3.79849
0
LINE
8
BLACK
6
CONTINUOUS
10
5.91763
20
-3.79849
11
5.91828
21
-3.7952
0
LINE
8
BLACK
6
CONTINUOUS
10
5.91828
20
-3.7952
11
5.92015
21
-3.7924
0
LINE
8
BLACK
6
CONTINUOUS
10
5.92015
20
-3.7924
11
5.92294
21
-3.79054
0
LINE
8
BLACK
6
CONTINUOUS
10
5.92294
20
-3.79054
11
5.92624
21
-3.78988
0
LINE
8
BLACK
6
CONTINUOUS
10
5.92624
20
-3.78988
11
5.94346
21
-3.78988
0
LINE
8
BLACK
6
CONTINUOUS
10
5.94346
20
-3.78988
11
5.94676
21
-3.79054
0
LINE
8
BLACK
6
CONTINUOUS
10
6.03042
20
-3.79054
11
6.03321
21
-3.7924
0
LINE
8
BLACK
6
CONTINUOUS
10
6.03321
20
-3.7924
11
6.03508
21
-3.7952
0
LINE
8
BLACK
6
CONTINUOUS
10
6.03508
20
-3.7952
11
6.03574
21
-3.79849
0
LINE
8
BLACK
6
CONTINUOUS
10
6.03574
20
-3.79849
11
6.03574
21
-3.82851
0
LINE
8
BLACK
6
CONTINUOUS
10
6.03574
20
-3.82851
11
6.03508
21
-3.83181
0
LINE
8
BLACK
6
CONTINUOUS
10
6.03508
20
-3.83181
11
6.03321
21
-3.8346
0
LINE
8
BLACK
6
CONTINUOUS
10
6.03321
20
-3.8346
11
6.03042
21
-3.83647
0
LINE
8
BLACK
6
CONTINUOUS
10
6.03042
20
-3.83647
11
6.02712
21
-3.83713
0
LINE
8
BLACK
6
CONTINUOUS
10
6.02712
20
-3.83713
11
6.0099
21
-3.83713
0
LINE
8
BLACK
6
CONTINUOUS
10
6.0099
20
-3.83713
11
6.0066
21
-3.83647
0
LINE
8
BLACK
6
CONTINUOUS
10
6.0066
20
-3.83647
11
6.00381
21
-3.8346
0
LINE
8
BLACK
6
CONTINUOUS
10
6.00381
20
-3.8346
11
6.00194
21
-3.83181
0
LINE
8
BLACK
6
CONTINUOUS
10
6.00194
20
-3.83181
11
6.00129
21
-3.82851
0
LINE
8
BLACK
6
CONTINUOUS
10
6.00129
20
-3.82851
11
6.00129
21
-3.79849
0
LINE
8
BLACK
6
CONTINUOUS
10
6.00129
20
-3.79849
11
6.00194
21
-3.7952
0
LINE
8
BLACK
6
CONTINUOUS
10
6.00194
20
-3.7952
11
6.00381
21
-3.7924
0
LINE
8
BLACK
6
CONTINUOUS
10
6.00381
20
-3.7924
11
6.0066
21
-3.79054
0
LINE
8
BLACK
6
CONTINUOUS
10
6.0066
20
-3.79054
11
6.0099
21
-3.78988
0
LINE
8
BLACK
6
CONTINUOUS
10
6.0099
20
-3.78988
11
6.02712
21
-3.78988
0
LINE
8
BLACK
6
CONTINUOUS
10
6.02712
20
-3.78988
11
6.03042
21
-3.79054
0
LINE
8
BLACK
6
CONTINUOUS
10
6.36872
20
-3.83548
11
6.31372
21
-3.83548
0
LINE
8
BLACK
6
CONTINUOUS
10
6.31372
20
-3.83548
11
6.31372
21
-3.80048
0
LINE
8
BLACK
6
CONTINUOUS
10
6.31372
20
-3.80048
11
6.36872
21
-3.80048
0
LINE
8
BLACK
6
CONTINUOUS
10
6.36872
20
-3.80048
11
6.36872
21
-3.83548
0
LINE
8
BLACK
6
CONTINUOUS
10
5.82182
20
-3.75392
11
5.78292
21
-3.79281
0
LINE
8
BLACK
6
CONTINUOUS
10
5.78292
20
-3.79281
11
5.75818
21
-3.76806
0
LINE
8
BLACK
6
CONTINUOUS
10
5.75818
20
-3.76806
11
5.79707
21
-3.72917
0
LINE
8
BLACK
6
CONTINUOUS
10
5.79707
20
-3.72917
11
5.82182
21
-3.75392
0
LINE
8
BLACK
6
CONTINUOUS
10
6.36872
20
-3.76048
11
6.31372
21
-3.76048
0
LINE
8
BLACK
6
CONTINUOUS
10
6.31372
20
-3.76048
11
6.31372
21
-3.72548
0
LINE
8
BLACK
6
CONTINUOUS
10
6.31372
20
-3.72548
11
6.36872
21
-3.72548
0
LINE
8
BLACK
6
CONTINUOUS
10
6.36872
20
-3.72548
11
6.36872
21
-3.76048
0
LINE
8
BLACK
6
CONTINUOUS
10
5.98301
20
-3.736
11
5.92801
21
-3.736
0
LINE
8
BLACK
6
CONTINUOUS
10
5.92801
20
-3.736
11
5.92801
21
-3.701
0
LINE
8
BLACK
6
CONTINUOUS
10
5.92801
20
-3.701
11
5.98301
21
-3.701
0
LINE
8
BLACK
6
CONTINUOUS
10
5.98301
20
-3.701
11
5.98301
21
-3.736
0
LINE
8
BLACK
6
CONTINUOUS
10
6.20801
20
-3.736
11
6.15301
21
-3.736
0
LINE
8
BLACK
6
CONTINUOUS
10
6.15301
20
-3.736
11
6.15301
21
-3.701
0
LINE
8
BLACK
6
CONTINUOUS
10
6.15301
20
-3.701
11
6.20801
21
-3.701
0
LINE
8
BLACK
6
CONTINUOUS
10
6.20801
20
-3.701
11
6.20801
21
-3.736
0
LINE
8
BLACK
6
CONTINUOUS
10
5.80591
20
-3.67697
11
5.78031
21
-3.67697
0
LINE
8
BLACK
6
CONTINUOUS
10
5.78031
20
-3.67697
11
5.78031
21
-3.66122
0
LINE
8
BLACK
6
CONTINUOUS
10
5.78031
20
-3.66122
11
5.80591
21
-3.66122
0
LINE
8
BLACK
6
CONTINUOUS
10
5.80591
20
-3.66122
11
5.80591
21
-3.67697
0
LINE
8
BLACK
6
CONTINUOUS
10
5.88071
20
-3.67697
11
5.85512
21
-3.67697
0
LINE
8
BLACK
6
CONTINUOUS
10
5.85512
20
-3.67697
11
5.85512
21
-3.66122
0
LINE
8
BLACK
6
CONTINUOUS
10
5.85512
20
-3.66122
11
5.88071
21
-3.66122
0
LINE
8
BLACK
6
CONTINUOUS
10
5.88071
20
-3.66122
11
5.88071
21
-3.67697
0
LINE
8
BLACK
6
CONTINUOUS
10
6.28091
20
-3.67697
11
6.25531
21
-3.67697
0
LINE
8
BLACK
6
CONTINUOUS
10
6.25531
20
-3.67697
11
6.25531
21
-3.66122
0
LINE
8
BLACK
6
CONTINUOUS
10
6.25531
20
-3.66122
11
6.28091
21
-3.66122
0
LINE
8
BLACK
6
CONTINUOUS
10
6.28091
20
-3.66122
11
6.28091
21
-3.67697
0
LINE
8
BLACK
6
CONTINUOUS
10
6.35571
20
-3.67697
11
6.33012
21
-3.67697
0
LINE
8
BLACK
6
CONTINUOUS
10
6.33012
20
-3.67697
11
6.33012
21
-3.66122
0
LINE
8
BLACK
6
CONTINUOUS
10
6.33012
20
-3.66122
11
6.35571
21
-3.66122
0
LINE
8
BLACK
6
CONTINUOUS
10
6.35571
20
-3.66122
11
6.35571
21
-3.67697
0
LINE
8
BLACK
6
CONTINUOUS
10
6.04801
20
-3.671
11
6.01301
21
-3.671
0
LINE
8
BLACK
6
CONTINUOUS
10
6.01301
20
-3.671
11
6.01301
21
-3.616
0
LINE
8
BLACK
6
CONTINUOUS
10
6.01301
20
-3.616
11
6.04801
21
-3.616
0
LINE
8
BLACK
6
CONTINUOUS
10
6.04801
20
-3.616
11
6.04801
21
-3.671
0
LINE
8
BLACK
6
CONTINUOUS
10
6.12301
20
-3.671
11
6.08801
21
-3.671
0
LINE
8
BLACK
6
CONTINUOUS
10
6.08801
20
-3.671
11
6.08801
21
-3.616
0
LINE
8
BLACK
6
CONTINUOUS
10
6.08801
20
-3.616
11
6.12301
21
-3.616
0
LINE
8
BLACK
6
CONTINUOUS
10
6.12301
20
-3.616
11
6.12301
21
-3.671
0
LINE
8
BLACK
6
CONTINUOUS
10
5.98301
20
-3.661
11
5.92801
21
-3.661
0
LINE
8
BLACK
6
CONTINUOUS
10
5.92801
20
-3.661
11
5.92801
21
-3.626
0
LINE
8
BLACK
6
CONTINUOUS
10
5.92801
20
-3.626
11
5.98301
21
-3.626
0
LINE
8
BLACK
6
CONTINUOUS
10
5.98301
20
-3.626
11
5.98301
21
-3.661
0
LINE
8
BLACK
6
CONTINUOUS
10
6.20801
20
-3.661
11
6.15301
21
-3.661
0
LINE
8
BLACK
6
CONTINUOUS
10
6.15301
20
-3.661
11
6.15301
21
-3.626
0
LINE
8
BLACK
6
CONTINUOUS
10
6.15301
20
-3.626
11
6.20801
21
-3.626
0
LINE
8
BLACK
6
CONTINUOUS
10
6.20801
20
-3.626
11
6.20801
21
-3.661
0
LINE
8
BLACK
6
CONTINUOUS
10
5.80591
20
-3.65138
11
5.78031
21
-3.65138
0
LINE
8
BLACK
6
CONTINUOUS
10
5.78031
20
-3.65138
11
5.78031
21
-3.63563
0
LINE
8
BLACK
6
CONTINUOUS
10
5.78031
20
-3.63563
11
5.80591
21
-3.63563
0
LINE
8
BLACK
6
CONTINUOUS
10
5.80591
20
-3.63563
11
5.80591
21
-3.65138
0
LINE
8
BLACK
6
CONTINUOUS
10
5.88071
20
-3.65138
11
5.85512
21
-3.65138
0
LINE
8
BLACK
6
CONTINUOUS
10
5.85512
20
-3.65138
11
5.85512
21
-3.63563
0
LINE
8
BLACK
6
CONTINUOUS
10
5.85512
20
-3.63563
11
5.88071
21
-3.63563
0
LINE
8
BLACK
6
CONTINUOUS
10
5.88071
20
-3.63563
11
5.88071
21
-3.65138
0
LINE
8
BLACK
6
CONTINUOUS
10
6.28091
20
-3.65138
11
6.25531
21
-3.65138
0
LINE
8
BLACK
6
CONTINUOUS
10
6.25531
20
-3.65138
11
6.25531
21
-3.63563
0
LINE
8
BLACK
6
CONTINUOUS
10
6.25531
20
-3.63563
11
6.28091
21
-3.63563
0
LINE
8
BLACK
6
CONTINUOUS
10
6.28091
20
-3.63563
11
6.28091
21
-3.65138
0
LINE
8
BLACK
6
CONTINUOUS
10
6.35571
20
-3.65138
11
6.33012
21
-3.65138
0
LINE
8
BLACK
6
CONTINUOUS
10
6.33012
20
-3.65138
11
6.33012
21
-3.63563
0
LINE
8
BLACK
6
CONTINUOUS
10
6.33012
20
-3.63563
11
6.35571
21
-3.63563
0
LINE
8
BLACK
6
CONTINUOUS
10
6.35571
20
-3.63563
11
6.35571
21
-3.65138
0
LINE
8
BLACK
6
CONTINUOUS
10
5.80591
20
-3.62579
11
5.78031
21
-3.62579
0
LINE
8
BLACK
6
CONTINUOUS
10
5.78031
20
-3.62579
11
5.78031
21
-3.61004
0
LINE
8
BLACK
6
CONTINUOUS
10
5.78031
20
-3.61004
11
5.80591
21
-3.61004
0
LINE
8
BLACK
6
CONTINUOUS
10
5.80591
20
-3.61004
11
5.80591
21
-3.62579
0
LINE
8
BLACK
6
CONTINUOUS
10
5.88071
20
-3.62579
11
5.85512
21
-3.62579
0
LINE
8
BLACK
6
CONTINUOUS
10
5.85512
20
-3.62579
11
5.85512
21
-3.61004
0
LINE
8
BLACK
6
CONTINUOUS
10
5.85512
20
-3.61004
11
5.88071
21
-3.61004
0
LINE
8
BLACK
6
CONTINUOUS
10
5.88071
20
-3.61004
11
5.88071
21
-3.62579
0
LINE
8
BLACK
6
CONTINUOUS
10
6.28091
20
-3.62579
11
6.25531
21
-3.62579
0
LINE
8
BLACK
6
CONTINUOUS
10
6.25531
20
-3.62579
11
6.25531
21
-3.61004
0
LINE
8
BLACK
6
CONTINUOUS
10
6.25531
20
-3.61004
11
6.28091
21
-3.61004
0
LINE
8
BLACK
6
CONTINUOUS
10
6.28091
20
-3.61004
11
6.28091
21
-3.62579
0
LINE
8
BLACK
6
CONTINUOUS
10
6.35571
20
-3.62579
11
6.33012
21
-3.62579
0
LINE
8
BLACK
6
CONTINUOUS
10
6.33012
20
-3.62579
11
6.33012
21
-3.61004
0
LINE
8
BLACK
6
CONTINUOUS
10
6.33012
20
-3.61004
11
6.35571
21
-3.61004
0
LINE
8
BLACK
6
CONTINUOUS
10
6.35571
20
-3.61004
11
6.35571
21
-3.62579
0
LINE
8
BLACK
6
CONTINUOUS
10
6.36825
20
-3.56379
11
6.31325
21
-3.56379
0
LINE
8
BLACK
6
CONTINUOUS
10
6.31325
20
-3.56379
11
6.31325
21
-3.52879
0
LINE
8
BLACK
6
CONTINUOUS
10
6.31325
20
-3.52879
11
6.36825
21
-3.52879
0
LINE
8
BLACK
6
CONTINUOUS
10
6.36825
20
-3.52879
11
6.36825
21
-3.56379
0
LINE
8
BLACK
6
CONTINUOUS
10
6.36825
20
-3.48879
11
6.31325
21
-3.48879
0
LINE
8
BLACK
6
CONTINUOUS
10
6.31325
20
-3.48879
11
6.31325
21
-3.45379
0
LINE
8
BLACK
6
CONTINUOUS
10
6.31325
20
-3.45379
11
6.36825
21
-3.45379
0
LINE
8
BLACK
6
CONTINUOUS
10
6.36825
20
-3.45379
11
6.36825
21
-3.48879
0
LINE
8
BLACK
6
CONTINUOUS
10
6.15398
20
-3.43909
11
6.08705
21
-3.43909
0
LINE
8
BLACK
6
CONTINUOUS
10
6.08705
20
-3.43909
11
6.08705
21
-3.38791
0
LINE
8
BLACK
6
CONTINUOUS
10
6.08705
20
-3.38791
11
6.15398
21
-3.38791
0
LINE
8
BLACK
6
CONTINUOUS
10
6.15398
20
-3.38791
11
6.15398
21
-3.43909
0
LINE
8
BLACK
6
CONTINUOUS
10
6.28824
20
-3.43846
11
6.22131
21
-3.43846
0
LINE
8
BLACK
6
CONTINUOUS
10
6.22131
20
-3.43846
11
6.22131
21
-3.38728
0
LINE
8
BLACK
6
CONTINUOUS
10
6.22131
20
-3.38728
11
6.28824
21
-3.38728
0
LINE
8
BLACK
6
CONTINUOUS
10
6.28824
20
-3.38728
11
6.28824
21
-3.43846
0
LINE
8
BLACK
6
CONTINUOUS
10
6.45158
20
-3.436
11
6.39658
21
-3.436
0
LINE
8
BLACK
6
CONTINUOUS
10
6.39658
20
-3.436
11
6.39658
21
-3.401
0
LINE
8
BLACK
6
CONTINUOUS
10
6.39658
20
-3.401
11
6.45158
21
-3.401
0
LINE
8
BLACK
6
CONTINUOUS
10
6.45158
20
-3.401
11
6.45158
21
-3.436
0
LINE
8
BLACK
6
CONTINUOUS
10
6.45158
20
-3.361
11
6.39658
21
-3.361
0
LINE
8
BLACK
6
CONTINUOUS
10
6.39658
20
-3.361
11
6.39658
21
-3.326
0
LINE
8
BLACK
6
CONTINUOUS
10
6.39658
20
-3.326
11
6.45158
21
-3.326
0
LINE
8
BLACK
6
CONTINUOUS
10
6.45158
20
-3.326
11
6.45158
21
-3.361
0
LINE
8
BLACK
6
CONTINUOUS
10
6.15398
20
-3.3013
11
6.08705
21
-3.3013
0
LINE
8
BLACK
6
CONTINUOUS
10
6.08705
20
-3.3013
11
6.08705
21
-3.25012
0
LINE
8
BLACK
6
CONTINUOUS
10
6.08705
20
-3.25012
11
6.15398
21
-3.25012
0
LINE
8
BLACK
6
CONTINUOUS
10
6.15398
20
-3.25012
11
6.15398
21
-3.3013
0
LINE
8
BLACK
6
CONTINUOUS
10
6.28824
20
-3.30066
11
6.22131
21
-3.30066
0
LINE
8
BLACK
6
CONTINUOUS
10
6.22131
20
-3.30066
11
6.22131
21
-3.24948
0
LINE
8
BLACK
6
CONTINUOUS
10
6.22131
20
-3.24948
11
6.28824
21
-3.24948
0
LINE
8
BLACK
6
CONTINUOUS
10
6.28824
20
-3.24948
11
6.28824
21
-3.30066
0
LINE
8
BLACK
6
CONTINUOUS
10
5.81548
20
-3.26302
11
5.71706
21
-3.26302
0
LINE
8
BLACK
6
CONTINUOUS
10
5.71706
20
-3.26302
11
5.71706
21
-3.19215
0
LINE
8
BLACK
6
CONTINUOUS
10
5.71706
20
-3.19215
11
5.81548
21
-3.19215
0
LINE
8
BLACK
6
CONTINUOUS
10
5.81548
20
-3.19215
11
5.81548
21
-3.26302
0
LINE
8
BLACK
6
CONTINUOUS
10
5.97296
20
-3.26302
11
5.87454
21
-3.26302
0
LINE
8
BLACK
6
CONTINUOUS
10
5.87454
20
-3.26302
11
5.87454
21
-3.19215
0
LINE
8
BLACK
6
CONTINUOUS
10
5.87454
20
-3.19215
11
5.97296
21
-3.19215
0
LINE
8
BLACK
6
CONTINUOUS
10
5.97296
20
-3.19215
11
5.97296
21
-3.26302
0
LINE
8
BLACK
6
CONTINUOUS
10
6.08301
20
-3.011
11
6.02801
21
-3.011
0
LINE
8
BLACK
6
CONTINUOUS
10
6.02801
20
-3.011
11
6.02801
21
-2.976
0
LINE
8
BLACK
6
CONTINUOUS
10
6.02801
20
-2.976
11
6.08301
21
-2.976
0
LINE
8
BLACK
6
CONTINUOUS
10
6.08301
20
-2.976
11
6.08301
21
-3.011
0
LINE
8
BLACK
6
CONTINUOUS
10
6.18301
20
-3.011
11
6.12801
21
-3.011
0
LINE
8
BLACK
6
CONTINUOUS
10
6.12801
20
-3.011
11
6.12801
21
-2.976
0
LINE
8
BLACK
6
CONTINUOUS
10
6.12801
20
-2.976
11
6.18301
21
-2.976
0
LINE
8
BLACK
6
CONTINUOUS
10
6.18301
20
-2.976
11
6.18301
21
-3.011
0
LINE
8
BLACK
6
CONTINUOUS
10
6.28301
20
-3.011
11
6.22801
21
-3.011
0
LINE
8
BLACK
6
CONTINUOUS
10
6.22801
20
-3.011
11
6.22801
21
-2.976
0
LINE
8
BLACK
6
CONTINUOUS
10
6.22801
20
-2.976
11
6.28301
21
-2.976
0
LINE
8
BLACK
6
CONTINUOUS
10
6.28301
20
-2.976
11
6.28301
21
-3.011
0
LINE
8
BLACK
6
CONTINUOUS
10
6.38301
20
-3.011
11
6.32801
21
-3.011
0
LINE
8
BLACK
6
CONTINUOUS
10
6.32801
20
-3.011
11
6.32801
21
-2.976
0
LINE
8
BLACK
6
CONTINUOUS
10
6.32801
20
-2.976
11
6.38301
21
-2.976
0
LINE
8
BLACK
6
CONTINUOUS
10
6.38301
20
-2.976
11
6.38301
21
-3.011
0
LINE
8
BLACK
6
CONTINUOUS
10
6.08301
20
-2.936
11
6.02801
21
-2.936
0
LINE
8
BLACK
6
CONTINUOUS
10
6.02801
20
-2.936
11
6.02801
21
-2.901
0
LINE
8
BLACK
6
CONTINUOUS
10
6.02801
20
-2.901
11
6.08301
21
-2.901
0
LINE
8
BLACK
6
CONTINUOUS
10
6.08301
20
-2.901
11
6.08301
21
-2.936
0
LINE
8
BLACK
6
CONTINUOUS
10
6.18301
20
-2.936
11
6.12801
21
-2.936
0
LINE
8
BLACK
6
CONTINUOUS
10
6.12801
20
-2.936
11
6.12801
21
-2.901
0
LINE
8
BLACK
6
CONTINUOUS
10
6.12801
20
-2.901
11
6.18301
21
-2.901
0
LINE
8
BLACK
6
CONTINUOUS
10
6.18301
20
-2.901
11
6.18301
21
-2.936
0
LINE
8
BLACK
6
CONTINUOUS
10
6.28301
20
-2.936
11
6.22801
21
-2.936
0
LINE
8
BLACK
6
CONTINUOUS
10
6.22801
20
-2.936
11
6.22801
21
-2.901
0
LINE
8
BLACK
6
CONTINUOUS
10
6.22801
20
-2.901
11
6.28301
21
-2.901
0
LINE
8
BLACK
6
CONTINUOUS
10
6.28301
20
-2.901
11
6.28301
21
-2.936
0
LINE
8
BLACK
6
CONTINUOUS
10
6.38301
20
-2.936
11
6.32801
21
-2.936
0
LINE
8
BLACK
6
CONTINUOUS
10
6.32801
20
-2.936
11
6.32801
21
-2.901
0
LINE
8
BLACK
6
CONTINUOUS
10
6.32801
20
-2.901
11
6.38301
21
-2.901
0
LINE
8
BLACK
6
CONTINUOUS
10
6.38301
20
-2.901
11
6.38301
21
-2.936
  0
ENDSEC
  0
EOF
