  0
SECTION
  2
HEADER
  9
$ANGBASE
  50
0.0
  9
$ANGDIR
  70
1
  9
$MEASUREMENT
  70
0
  0
ENDSEC
  0
SECTION
  2
TABLES
  0
TABLE
  2
LTYPE
  70
4
  0
LTYPE
  5
40F
  2
CONTINUOUS
  70
0
  3
Solid line
  72
65
  73
0
  40
0.0
  0
LTYPE
  5
410
  2
DASHDOT
 70
0
  3
Dash Dot ____ _ ____ _
 72
65
 73
4
 40
2.0
 49
1.25
 49
-0.25
 49
0.25
 49
-0.25
  0
LTYPE
  5
411
  2
DASHED
 70
0
  3
Dashed __ __ __ __ __
 72
65
 73
2
 40
0.75
 49
0.5
 49
-0.25
  0
LTYPE
  5
43B
  2
DOTTED
 70
0
  3
Dotted .  .  .  .
 72
65
 73
2
 40
0.2
 49
0.0
 49
-0.2
  0
ENDTAB
  0
TABLE
  2
STYLE
  70
4
  0
STYLE
  2
KICAD
  70
0
  40
0
  41
1
  42
1
  50
0
  71
0
  3
isocp.shx
  0
STYLE
  2
KICADB
  70
0
  40
0
  41
1
  42
1
  50
0
  71
0
  3
isocp.shx
  0
STYLE
  2
KICADI
  70
0
  40
0
  41
1
  42
1
  50
15
  71
0
  3
isocp.shx
  0
STYLE
  2
KICADBI
  70
0
  40
0
  41
1
  42
1
  50
15
  71
0
  3
isocp.shx
  0
ENDTAB
  0
TABLE
  2
LAYER
  70
1
  0
LAYER
  2
BLACK
  70
0
  62
7
  6
CONTINUOUS
  0
ENDTAB
  0
ENDSEC
  0
SECTION
  2
ENTITIES
0
LINE
8
BLACK
6
CONTINUOUS
10
5.49457
20
-4.11869
11
5.50846
21
-4.12105
0
LINE
8
BLACK
6
CONTINUOUS
10
5.50846
20
-4.12105
11
5.52199
21
-4.12495
0
LINE
8
BLACK
6
CONTINUOUS
10
5.52199
20
-4.12495
11
5.53501
21
-4.13034
0
LINE
8
BLACK
6
CONTINUOUS
10
5.53501
20
-4.13034
11
5.54734
21
-4.13716
0
LINE
8
BLACK
6
CONTINUOUS
10
5.54734
20
-4.13716
11
5.55882
21
-4.14531
0
LINE
8
BLACK
6
CONTINUOUS
10
5.55882
20
-4.14531
11
5.56932
21
-4.15469
0
LINE
8
BLACK
6
CONTINUOUS
10
5.56932
20
-4.15469
11
5.57871
21
-4.16519
0
LINE
8
BLACK
6
CONTINUOUS
10
5.57871
20
-4.16519
11
5.58686
21
-4.17668
0
LINE
8
BLACK
6
CONTINUOUS
10
5.58686
20
-4.17668
11
5.59367
21
-4.18901
0
LINE
8
BLACK
6
CONTINUOUS
10
5.59367
20
-4.18901
11
5.59906
21
-4.20202
0
LINE
8
BLACK
6
CONTINUOUS
10
5.59906
20
-4.20202
11
5.60296
21
-4.21556
0
LINE
8
BLACK
6
CONTINUOUS
10
5.60296
20
-4.21556
11
5.60532
21
-4.22944
0
LINE
8
BLACK
6
CONTINUOUS
10
5.60532
20
-4.22944
11
5.60611
21
-4.2435
0
LINE
8
BLACK
6
CONTINUOUS
10
5.60611
20
-4.2435
11
5.60532
21
-4.25757
0
LINE
8
BLACK
6
CONTINUOUS
10
5.60532
20
-4.25757
11
5.60296
21
-4.27145
0
LINE
8
BLACK
6
CONTINUOUS
10
5.60296
20
-4.27145
11
5.59906
21
-4.28499
0
LINE
8
BLACK
6
CONTINUOUS
10
5.59906
20
-4.28499
11
5.59367
21
-4.298
0
LINE
8
BLACK
6
CONTINUOUS
10
5.59367
20
-4.298
11
5.58686
21
-4.31033
0
LINE
8
BLACK
6
CONTINUOUS
10
5.58686
20
-4.31033
11
5.57871
21
-4.32181
0
LINE
8
BLACK
6
CONTINUOUS
10
5.57871
20
-4.32181
11
5.56932
21
-4.33232
0
LINE
8
BLACK
6
CONTINUOUS
10
5.56932
20
-4.33232
11
5.55882
21
-4.3417
0
LINE
8
BLACK
6
CONTINUOUS
10
5.55882
20
-4.3417
11
5.54734
21
-4.34985
0
LINE
8
BLACK
6
CONTINUOUS
10
5.54734
20
-4.34985
11
5.53501
21
-4.35667
0
LINE
8
BLACK
6
CONTINUOUS
10
5.53501
20
-4.35667
11
5.52199
21
-4.36206
0
LINE
8
BLACK
6
CONTINUOUS
10
5.52199
20
-4.36206
11
5.50846
21
-4.36595
0
LINE
8
BLACK
6
CONTINUOUS
10
5.50846
20
-4.36595
11
5.49457
21
-4.36831
0
LINE
8
BLACK
6
CONTINUOUS
10
5.49457
20
-4.36831
11
5.48051
21
-4.3691
0
LINE
8
BLACK
6
CONTINUOUS
10
5.48051
20
-4.3691
11
5.46645
21
-4.36831
0
LINE
8
BLACK
6
CONTINUOUS
10
5.46645
20
-4.36831
11
5.45256
21
-4.36595
0
LINE
8
BLACK
6
CONTINUOUS
10
5.45256
20
-4.36595
11
5.43903
21
-4.36206
0
LINE
8
BLACK
6
CONTINUOUS
10
5.43903
20
-4.36206
11
5.42602
21
-4.35667
0
LINE
8
BLACK
6
CONTINUOUS
10
5.42602
20
-4.35667
11
5.41369
21
-4.34985
0
LINE
8
BLACK
6
CONTINUOUS
10
5.41369
20
-4.34985
11
5.4022
21
-4.3417
0
LINE
8
BLACK
6
CONTINUOUS
10
5.4022
20
-4.3417
11
5.3917
21
-4.33232
0
LINE
8
BLACK
6
CONTINUOUS
10
5.3917
20
-4.33232
11
5.38231
21
-4.32181
0
LINE
8
BLACK
6
CONTINUOUS
10
5.38231
20
-4.32181
11
5.37416
21
-4.31033
0
LINE
8
BLACK
6
CONTINUOUS
10
5.37416
20
-4.31033
11
5.36735
21
-4.298
0
LINE
8
BLACK
6
CONTINUOUS
10
5.36735
20
-4.298
11
5.36196
21
-4.28499
0
LINE
8
BLACK
6
CONTINUOUS
10
5.36196
20
-4.28499
11
5.35806
21
-4.27145
0
LINE
8
BLACK
6
CONTINUOUS
10
5.35806
20
-4.27145
11
5.3557
21
-4.25757
0
LINE
8
BLACK
6
CONTINUOUS
10
5.3557
20
-4.25757
11
5.35491
21
-4.2435
0
LINE
8
BLACK
6
CONTINUOUS
10
5.35491
20
-4.2435
11
5.3557
21
-4.22944
0
LINE
8
BLACK
6
CONTINUOUS
10
5.3557
20
-4.22944
11
5.35806
21
-4.21556
0
LINE
8
BLACK
6
CONTINUOUS
10
5.35806
20
-4.21556
11
5.36196
21
-4.20202
0
LINE
8
BLACK
6
CONTINUOUS
10
5.36196
20
-4.20202
11
5.36735
21
-4.18901
0
LINE
8
BLACK
6
CONTINUOUS
10
5.36735
20
-4.18901
11
5.37416
21
-4.17668
0
LINE
8
BLACK
6
CONTINUOUS
10
5.37416
20
-4.17668
11
5.38231
21
-4.16519
0
LINE
8
BLACK
6
CONTINUOUS
10
5.38231
20
-4.16519
11
5.3917
21
-4.15469
0
LINE
8
BLACK
6
CONTINUOUS
10
5.3917
20
-4.15469
11
5.4022
21
-4.14531
0
LINE
8
BLACK
6
CONTINUOUS
10
5.4022
20
-4.14531
11
5.41369
21
-4.13716
0
LINE
8
BLACK
6
CONTINUOUS
10
5.41369
20
-4.13716
11
5.42602
21
-4.13034
0
LINE
8
BLACK
6
CONTINUOUS
10
5.42602
20
-4.13034
11
5.43903
21
-4.12495
0
LINE
8
BLACK
6
CONTINUOUS
10
5.43903
20
-4.12495
11
5.45256
21
-4.12105
0
LINE
8
BLACK
6
CONTINUOUS
10
5.45256
20
-4.12105
11
5.46645
21
-4.11869
0
LINE
8
BLACK
6
CONTINUOUS
10
5.46645
20
-4.11869
11
5.48051
21
-4.1179
0
LINE
8
BLACK
6
CONTINUOUS
10
5.48051
20
-4.1179
11
5.49457
21
-4.11869
0
LINE
8
BLACK
6
CONTINUOUS
10
5.37047
20
-4.25637
11
5.37271
21
-4.26905
0
LINE
8
BLACK
6
CONTINUOUS
10
5.37271
20
-4.26905
11
5.37641
21
-4.2814
0
LINE
8
BLACK
6
CONTINUOUS
10
5.37641
20
-4.2814
11
5.38151
21
-4.29323
0
LINE
8
BLACK
6
CONTINUOUS
10
5.38151
20
-4.29323
11
5.38795
21
-4.30438
0
LINE
8
BLACK
6
CONTINUOUS
10
5.38795
20
-4.30438
11
5.39564
21
-4.31472
0
LINE
8
BLACK
6
CONTINUOUS
10
5.39564
20
-4.31472
11
5.40448
21
-4.32409
0
LINE
8
BLACK
6
CONTINUOUS
10
5.40448
20
-4.32409
11
5.41435
21
-4.33237
0
LINE
8
BLACK
6
CONTINUOUS
10
5.41435
20
-4.33237
11
5.42512
21
-4.33945
0
LINE
8
BLACK
6
CONTINUOUS
10
5.42512
20
-4.33945
11
5.43663
21
-4.34523
0
LINE
8
BLACK
6
CONTINUOUS
10
5.43663
20
-4.34523
11
5.44874
21
-4.34964
0
LINE
8
BLACK
6
CONTINUOUS
10
5.44874
20
-4.34964
11
5.46127
21
-4.35261
0
LINE
8
BLACK
6
CONTINUOUS
10
5.46127
20
-4.35261
11
5.47407
21
-4.3541
0
LINE
8
BLACK
6
CONTINUOUS
10
5.47407
20
-4.3541
11
5.48695
21
-4.3541
0
LINE
8
BLACK
6
CONTINUOUS
10
5.48695
20
-4.3541
11
5.49975
21
-4.35261
0
LINE
8
BLACK
6
CONTINUOUS
10
5.49975
20
-4.35261
11
5.51229
21
-4.34964
0
LINE
8
BLACK
6
CONTINUOUS
10
5.51229
20
-4.34964
11
5.52439
21
-4.34523
0
LINE
8
BLACK
6
CONTINUOUS
10
5.52439
20
-4.34523
11
5.53591
21
-4.33945
0
LINE
8
BLACK
6
CONTINUOUS
10
5.53591
20
-4.33945
11
5.54667
21
-4.33237
0
LINE
8
BLACK
6
CONTINUOUS
10
5.54667
20
-4.33237
11
5.55654
21
-4.32409
0
LINE
8
BLACK
6
CONTINUOUS
10
5.55654
20
-4.32409
11
5.56538
21
-4.31472
0
LINE
8
BLACK
6
CONTINUOUS
10
5.56538
20
-4.31472
11
5.57307
21
-4.30438
0
LINE
8
BLACK
6
CONTINUOUS
10
5.57307
20
-4.30438
11
5.57952
21
-4.29323
0
LINE
8
BLACK
6
CONTINUOUS
10
5.57952
20
-4.29323
11
5.58462
21
-4.2814
0
LINE
8
BLACK
6
CONTINUOUS
10
5.58462
20
-4.2814
11
5.58831
21
-4.26905
0
LINE
8
BLACK
6
CONTINUOUS
10
5.58831
20
-4.26905
11
5.59055
21
-4.25637
0
LINE
8
BLACK
6
CONTINUOUS
10
5.59055
20
-4.25637
11
5.5913
21
-4.2435
0
LINE
8
BLACK
6
CONTINUOUS
10
5.5913
20
-4.2435
11
5.59055
21
-4.23064
0
LINE
8
BLACK
6
CONTINUOUS
10
5.59055
20
-4.23064
11
5.58831
21
-4.21795
0
LINE
8
BLACK
6
CONTINUOUS
10
5.58831
20
-4.21795
11
5.58462
21
-4.20561
0
LINE
8
BLACK
6
CONTINUOUS
10
5.58462
20
-4.20561
11
5.57952
21
-4.19378
0
LINE
8
BLACK
6
CONTINUOUS
10
5.57952
20
-4.19378
11
5.57307
21
-4.18263
0
LINE
8
BLACK
6
CONTINUOUS
10
5.57307
20
-4.18263
11
5.56538
21
-4.17229
0
LINE
8
BLACK
6
CONTINUOUS
10
5.56538
20
-4.17229
11
5.55654
21
-4.16292
0
LINE
8
BLACK
6
CONTINUOUS
10
5.55654
20
-4.16292
11
5.54667
21
-4.15464
0
LINE
8
BLACK
6
CONTINUOUS
10
5.54667
20
-4.15464
11
5.53591
21
-4.14756
0
LINE
8
BLACK
6
CONTINUOUS
10
5.53591
20
-4.14756
11
5.52439
21
-4.14178
0
LINE
8
BLACK
6
CONTINUOUS
10
5.52439
20
-4.14178
11
5.51229
21
-4.13737
0
LINE
8
BLACK
6
CONTINUOUS
10
5.51229
20
-4.13737
11
5.49975
21
-4.1344
0
LINE
8
BLACK
6
CONTINUOUS
10
5.49975
20
-4.1344
11
5.48695
21
-4.1329
0
LINE
8
BLACK
6
CONTINUOUS
10
5.48695
20
-4.1329
11
5.47407
21
-4.1329
0
LINE
8
BLACK
6
CONTINUOUS
10
5.47407
20
-4.1329
11
5.46127
21
-4.1344
0
LINE
8
BLACK
6
CONTINUOUS
10
5.46127
20
-4.1344
11
5.44874
21
-4.13737
0
LINE
8
BLACK
6
CONTINUOUS
10
5.44874
20
-4.13737
11
5.43663
21
-4.14178
0
LINE
8
BLACK
6
CONTINUOUS
10
5.43663
20
-4.14178
11
5.42512
21
-4.14756
0
LINE
8
BLACK
6
CONTINUOUS
10
5.42512
20
-4.14756
11
5.41435
21
-4.15464
0
LINE
8
BLACK
6
CONTINUOUS
10
5.41435
20
-4.15464
11
5.40448
21
-4.16292
0
LINE
8
BLACK
6
CONTINUOUS
10
5.40448
20
-4.16292
11
5.39564
21
-4.17229
0
LINE
8
BLACK
6
CONTINUOUS
10
5.39564
20
-4.17229
11
5.38795
21
-4.18263
0
LINE
8
BLACK
6
CONTINUOUS
10
5.38795
20
-4.18263
11
5.38151
21
-4.19378
0
LINE
8
BLACK
6
CONTINUOUS
10
5.38151
20
-4.19378
11
5.37641
21
-4.20561
0
LINE
8
BLACK
6
CONTINUOUS
10
5.37641
20
-4.20561
11
5.37271
21
-4.21795
0
LINE
8
BLACK
6
CONTINUOUS
10
5.37271
20
-4.21795
11
5.37047
21
-4.23064
0
LINE
8
BLACK
6
CONTINUOUS
10
5.37047
20
-4.23064
11
5.36972
21
-4.2435
0
LINE
8
BLACK
6
CONTINUOUS
10
5.36972
20
-4.2435
11
5.37047
21
-4.25637
0
LINE
8
BLACK
6
CONTINUOUS
10
6.69457
20
-4.11869
11
6.70846
21
-4.12105
0
LINE
8
BLACK
6
CONTINUOUS
10
6.70846
20
-4.12105
11
6.72199
21
-4.12495
0
LINE
8
BLACK
6
CONTINUOUS
10
6.72199
20
-4.12495
11
6.73501
21
-4.13034
0
LINE
8
BLACK
6
CONTINUOUS
10
6.73501
20
-4.13034
11
6.74734
21
-4.13716
0
LINE
8
BLACK
6
CONTINUOUS
10
6.74734
20
-4.13716
11
6.75882
21
-4.14531
0
LINE
8
BLACK
6
CONTINUOUS
10
6.75882
20
-4.14531
11
6.76932
21
-4.15469
0
LINE
8
BLACK
6
CONTINUOUS
10
6.76932
20
-4.15469
11
6.77871
21
-4.16519
0
LINE
8
BLACK
6
CONTINUOUS
10
6.77871
20
-4.16519
11
6.78686
21
-4.17668
0
LINE
8
BLACK
6
CONTINUOUS
10
6.78686
20
-4.17668
11
6.79367
21
-4.18901
0
LINE
8
BLACK
6
CONTINUOUS
10
6.79367
20
-4.18901
11
6.79906
21
-4.20202
0
LINE
8
BLACK
6
CONTINUOUS
10
6.79906
20
-4.20202
11
6.80296
21
-4.21556
0
LINE
8
BLACK
6
CONTINUOUS
10
6.80296
20
-4.21556
11
6.80532
21
-4.22944
0
LINE
8
BLACK
6
CONTINUOUS
10
6.80532
20
-4.22944
11
6.80611
21
-4.2435
0
LINE
8
BLACK
6
CONTINUOUS
10
6.80611
20
-4.2435
11
6.80532
21
-4.25757
0
LINE
8
BLACK
6
CONTINUOUS
10
6.80532
20
-4.25757
11
6.80296
21
-4.27145
0
LINE
8
BLACK
6
CONTINUOUS
10
6.80296
20
-4.27145
11
6.79906
21
-4.28499
0
LINE
8
BLACK
6
CONTINUOUS
10
6.79906
20
-4.28499
11
6.79367
21
-4.298
0
LINE
8
BLACK
6
CONTINUOUS
10
6.79367
20
-4.298
11
6.78686
21
-4.31033
0
LINE
8
BLACK
6
CONTINUOUS
10
6.78686
20
-4.31033
11
6.77871
21
-4.32181
0
LINE
8
BLACK
6
CONTINUOUS
10
6.77871
20
-4.32181
11
6.76932
21
-4.33232
0
LINE
8
BLACK
6
CONTINUOUS
10
6.76932
20
-4.33232
11
6.75882
21
-4.3417
0
LINE
8
BLACK
6
CONTINUOUS
10
6.75882
20
-4.3417
11
6.74734
21
-4.34985
0
LINE
8
BLACK
6
CONTINUOUS
10
6.74734
20
-4.34985
11
6.73501
21
-4.35667
0
LINE
8
BLACK
6
CONTINUOUS
10
6.73501
20
-4.35667
11
6.72199
21
-4.36206
0
LINE
8
BLACK
6
CONTINUOUS
10
6.72199
20
-4.36206
11
6.70846
21
-4.36595
0
LINE
8
BLACK
6
CONTINUOUS
10
6.70846
20
-4.36595
11
6.69457
21
-4.36831
0
LINE
8
BLACK
6
CONTINUOUS
10
6.69457
20
-4.36831
11
6.68051
21
-4.3691
0
LINE
8
BLACK
6
CONTINUOUS
10
6.68051
20
-4.3691
11
6.66645
21
-4.36831
0
LINE
8
BLACK
6
CONTINUOUS
10
6.66645
20
-4.36831
11
6.65256
21
-4.36595
0
LINE
8
BLACK
6
CONTINUOUS
10
6.65256
20
-4.36595
11
6.63903
21
-4.36206
0
LINE
8
BLACK
6
CONTINUOUS
10
6.63903
20
-4.36206
11
6.62602
21
-4.35667
0
LINE
8
BLACK
6
CONTINUOUS
10
6.62602
20
-4.35667
11
6.61369
21
-4.34985
0
LINE
8
BLACK
6
CONTINUOUS
10
6.61369
20
-4.34985
11
6.6022
21
-4.3417
0
LINE
8
BLACK
6
CONTINUOUS
10
6.6022
20
-4.3417
11
6.5917
21
-4.33232
0
LINE
8
BLACK
6
CONTINUOUS
10
6.5917
20
-4.33232
11
6.58231
21
-4.32181
0
LINE
8
BLACK
6
CONTINUOUS
10
6.58231
20
-4.32181
11
6.57416
21
-4.31033
0
LINE
8
BLACK
6
CONTINUOUS
10
6.57416
20
-4.31033
11
6.56735
21
-4.298
0
LINE
8
BLACK
6
CONTINUOUS
10
6.56735
20
-4.298
11
6.56196
21
-4.28499
0
LINE
8
BLACK
6
CONTINUOUS
10
6.56196
20
-4.28499
11
6.55806
21
-4.27145
0
LINE
8
BLACK
6
CONTINUOUS
10
6.55806
20
-4.27145
11
6.5557
21
-4.25757
0
LINE
8
BLACK
6
CONTINUOUS
10
6.5557
20
-4.25757
11
6.55491
21
-4.2435
0
LINE
8
BLACK
6
CONTINUOUS
10
6.55491
20
-4.2435
11
6.5557
21
-4.22944
0
LINE
8
BLACK
6
CONTINUOUS
10
6.5557
20
-4.22944
11
6.55806
21
-4.21556
0
LINE
8
BLACK
6
CONTINUOUS
10
6.55806
20
-4.21556
11
6.56196
21
-4.20202
0
LINE
8
BLACK
6
CONTINUOUS
10
6.56196
20
-4.20202
11
6.56735
21
-4.18901
0
LINE
8
BLACK
6
CONTINUOUS
10
6.56735
20
-4.18901
11
6.57416
21
-4.17668
0
LINE
8
BLACK
6
CONTINUOUS
10
6.57416
20
-4.17668
11
6.58231
21
-4.16519
0
LINE
8
BLACK
6
CONTINUOUS
10
6.58231
20
-4.16519
11
6.5917
21
-4.15469
0
LINE
8
BLACK
6
CONTINUOUS
10
6.5917
20
-4.15469
11
6.6022
21
-4.14531
0
LINE
8
BLACK
6
CONTINUOUS
10
6.6022
20
-4.14531
11
6.61369
21
-4.13716
0
LINE
8
BLACK
6
CONTINUOUS
10
6.61369
20
-4.13716
11
6.62602
21
-4.13034
0
LINE
8
BLACK
6
CONTINUOUS
10
6.62602
20
-4.13034
11
6.63903
21
-4.12495
0
LINE
8
BLACK
6
CONTINUOUS
10
6.63903
20
-4.12495
11
6.65256
21
-4.12105
0
LINE
8
BLACK
6
CONTINUOUS
10
6.65256
20
-4.12105
11
6.66645
21
-4.11869
0
LINE
8
BLACK
6
CONTINUOUS
10
6.66645
20
-4.11869
11
6.68051
21
-4.1179
0
LINE
8
BLACK
6
CONTINUOUS
10
6.68051
20
-4.1179
11
6.69457
21
-4.11869
0
LINE
8
BLACK
6
CONTINUOUS
10
6.57047
20
-4.25637
11
6.57271
21
-4.26905
0
LINE
8
BLACK
6
CONTINUOUS
10
6.57271
20
-4.26905
11
6.57641
21
-4.2814
0
LINE
8
BLACK
6
CONTINUOUS
10
6.57641
20
-4.2814
11
6.58151
21
-4.29323
0
LINE
8
BLACK
6
CONTINUOUS
10
6.58151
20
-4.29323
11
6.58795
21
-4.30438
0
LINE
8
BLACK
6
CONTINUOUS
10
6.58795
20
-4.30438
11
6.59564
21
-4.31472
0
LINE
8
BLACK
6
CONTINUOUS
10
6.59564
20
-4.31472
11
6.60448
21
-4.32409
0
LINE
8
BLACK
6
CONTINUOUS
10
6.60448
20
-4.32409
11
6.61435
21
-4.33237
0
LINE
8
BLACK
6
CONTINUOUS
10
6.61435
20
-4.33237
11
6.62512
21
-4.33945
0
LINE
8
BLACK
6
CONTINUOUS
10
6.62512
20
-4.33945
11
6.63663
21
-4.34523
0
LINE
8
BLACK
6
CONTINUOUS
10
6.63663
20
-4.34523
11
6.64874
21
-4.34964
0
LINE
8
BLACK
6
CONTINUOUS
10
6.64874
20
-4.34964
11
6.66127
21
-4.35261
0
LINE
8
BLACK
6
CONTINUOUS
10
6.66127
20
-4.35261
11
6.67407
21
-4.3541
0
LINE
8
BLACK
6
CONTINUOUS
10
6.67407
20
-4.3541
11
6.68695
21
-4.3541
0
LINE
8
BLACK
6
CONTINUOUS
10
6.68695
20
-4.3541
11
6.69975
21
-4.35261
0
LINE
8
BLACK
6
CONTINUOUS
10
6.69975
20
-4.35261
11
6.71229
21
-4.34964
0
LINE
8
BLACK
6
CONTINUOUS
10
6.71229
20
-4.34964
11
6.72439
21
-4.34523
0
LINE
8
BLACK
6
CONTINUOUS
10
6.72439
20
-4.34523
11
6.73591
21
-4.33945
0
LINE
8
BLACK
6
CONTINUOUS
10
6.73591
20
-4.33945
11
6.74667
21
-4.33237
0
LINE
8
BLACK
6
CONTINUOUS
10
6.74667
20
-4.33237
11
6.75654
21
-4.32409
0
LINE
8
BLACK
6
CONTINUOUS
10
6.75654
20
-4.32409
11
6.76538
21
-4.31472
0
LINE
8
BLACK
6
CONTINUOUS
10
6.76538
20
-4.31472
11
6.77307
21
-4.30438
0
LINE
8
BLACK
6
CONTINUOUS
10
6.77307
20
-4.30438
11
6.77952
21
-4.29323
0
LINE
8
BLACK
6
CONTINUOUS
10
6.77952
20
-4.29323
11
6.78462
21
-4.2814
0
LINE
8
BLACK
6
CONTINUOUS
10
6.78462
20
-4.2814
11
6.78831
21
-4.26905
0
LINE
8
BLACK
6
CONTINUOUS
10
6.78831
20
-4.26905
11
6.79055
21
-4.25637
0
LINE
8
BLACK
6
CONTINUOUS
10
6.79055
20
-4.25637
11
6.7913
21
-4.2435
0
LINE
8
BLACK
6
CONTINUOUS
10
6.7913
20
-4.2435
11
6.79055
21
-4.23064
0
LINE
8
BLACK
6
CONTINUOUS
10
6.79055
20
-4.23064
11
6.78831
21
-4.21795
0
LINE
8
BLACK
6
CONTINUOUS
10
6.78831
20
-4.21795
11
6.78462
21
-4.20561
0
LINE
8
BLACK
6
CONTINUOUS
10
6.78462
20
-4.20561
11
6.77952
21
-4.19378
0
LINE
8
BLACK
6
CONTINUOUS
10
6.77952
20
-4.19378
11
6.77307
21
-4.18263
0
LINE
8
BLACK
6
CONTINUOUS
10
6.77307
20
-4.18263
11
6.76538
21
-4.17229
0
LINE
8
BLACK
6
CONTINUOUS
10
6.76538
20
-4.17229
11
6.75654
21
-4.16292
0
LINE
8
BLACK
6
CONTINUOUS
10
6.75654
20
-4.16292
11
6.74667
21
-4.15464
0
LINE
8
BLACK
6
CONTINUOUS
10
6.74667
20
-4.15464
11
6.73591
21
-4.14756
0
LINE
8
BLACK
6
CONTINUOUS
10
6.73591
20
-4.14756
11
6.72439
21
-4.14178
0
LINE
8
BLACK
6
CONTINUOUS
10
6.72439
20
-4.14178
11
6.71229
21
-4.13737
0
LINE
8
BLACK
6
CONTINUOUS
10
6.71229
20
-4.13737
11
6.69975
21
-4.1344
0
LINE
8
BLACK
6
CONTINUOUS
10
6.69975
20
-4.1344
11
6.68695
21
-4.1329
0
LINE
8
BLACK
6
CONTINUOUS
10
6.68695
20
-4.1329
11
6.67407
21
-4.1329
0
LINE
8
BLACK
6
CONTINUOUS
10
6.67407
20
-4.1329
11
6.66127
21
-4.1344
0
LINE
8
BLACK
6
CONTINUOUS
10
6.66127
20
-4.1344
11
6.64874
21
-4.13737
0
LINE
8
BLACK
6
CONTINUOUS
10
6.64874
20
-4.13737
11
6.63663
21
-4.14178
0
LINE
8
BLACK
6
CONTINUOUS
10
6.63663
20
-4.14178
11
6.62512
21
-4.14756
0
LINE
8
BLACK
6
CONTINUOUS
10
6.62512
20
-4.14756
11
6.61435
21
-4.15464
0
LINE
8
BLACK
6
CONTINUOUS
10
6.61435
20
-4.15464
11
6.60448
21
-4.16292
0
LINE
8
BLACK
6
CONTINUOUS
10
6.60448
20
-4.16292
11
6.59564
21
-4.17229
0
LINE
8
BLACK
6
CONTINUOUS
10
6.59564
20
-4.17229
11
6.58795
21
-4.18263
0
LINE
8
BLACK
6
CONTINUOUS
10
6.58795
20
-4.18263
11
6.58151
21
-4.19378
0
LINE
8
BLACK
6
CONTINUOUS
10
6.58151
20
-4.19378
11
6.57641
21
-4.20561
0
LINE
8
BLACK
6
CONTINUOUS
10
6.57641
20
-4.20561
11
6.57271
21
-4.21795
0
LINE
8
BLACK
6
CONTINUOUS
10
6.57271
20
-4.21795
11
6.57047
21
-4.23064
0
LINE
8
BLACK
6
CONTINUOUS
10
6.57047
20
-4.23064
11
6.56972
21
-4.2435
0
LINE
8
BLACK
6
CONTINUOUS
10
6.56972
20
-4.2435
11
6.57047
21
-4.25637
0
LINE
8
BLACK
6
CONTINUOUS
10
5.49457
20
-2.91869
11
5.50846
21
-2.92105
0
LINE
8
BLACK
6
CONTINUOUS
10
5.50846
20
-2.92105
11
5.52199
21
-2.92495
0
LINE
8
BLACK
6
CONTINUOUS
10
5.52199
20
-2.92495
11
5.53501
21
-2.93034
0
LINE
8
BLACK
6
CONTINUOUS
10
5.53501
20
-2.93034
11
5.54734
21
-2.93716
0
LINE
8
BLACK
6
CONTINUOUS
10
5.54734
20
-2.93716
11
5.55882
21
-2.94531
0
LINE
8
BLACK
6
CONTINUOUS
10
5.55882
20
-2.94531
11
5.56932
21
-2.95469
0
LINE
8
BLACK
6
CONTINUOUS
10
5.56932
20
-2.95469
11
5.57871
21
-2.96519
0
LINE
8
BLACK
6
CONTINUOUS
10
5.57871
20
-2.96519
11
5.58686
21
-2.97668
0
LINE
8
BLACK
6
CONTINUOUS
10
5.58686
20
-2.97668
11
5.59367
21
-2.98901
0
LINE
8
BLACK
6
CONTINUOUS
10
5.59367
20
-2.98901
11
5.59906
21
-3.00202
0
LINE
8
BLACK
6
CONTINUOUS
10
5.59906
20
-3.00202
11
5.60296
21
-3.01556
0
LINE
8
BLACK
6
CONTINUOUS
10
5.60296
20
-3.01556
11
5.60532
21
-3.02944
0
LINE
8
BLACK
6
CONTINUOUS
10
5.60532
20
-3.02944
11
5.60611
21
-3.0435
0
LINE
8
BLACK
6
CONTINUOUS
10
5.60611
20
-3.0435
11
5.60532
21
-3.05757
0
LINE
8
BLACK
6
CONTINUOUS
10
5.60532
20
-3.05757
11
5.60296
21
-3.07145
0
LINE
8
BLACK
6
CONTINUOUS
10
5.60296
20
-3.07145
11
5.59906
21
-3.08499
0
LINE
8
BLACK
6
CONTINUOUS
10
5.59906
20
-3.08499
11
5.59367
21
-3.098
0
LINE
8
BLACK
6
CONTINUOUS
10
5.59367
20
-3.098
11
5.58686
21
-3.11033
0
LINE
8
BLACK
6
CONTINUOUS
10
5.58686
20
-3.11033
11
5.57871
21
-3.12181
0
LINE
8
BLACK
6
CONTINUOUS
10
5.57871
20
-3.12181
11
5.56932
21
-3.13232
0
LINE
8
BLACK
6
CONTINUOUS
10
5.56932
20
-3.13232
11
5.55882
21
-3.1417
0
LINE
8
BLACK
6
CONTINUOUS
10
5.55882
20
-3.1417
11
5.54734
21
-3.14985
0
LINE
8
BLACK
6
CONTINUOUS
10
5.54734
20
-3.14985
11
5.53501
21
-3.15667
0
LINE
8
BLACK
6
CONTINUOUS
10
5.53501
20
-3.15667
11
5.52199
21
-3.16206
0
LINE
8
BLACK
6
CONTINUOUS
10
5.52199
20
-3.16206
11
5.50846
21
-3.16595
0
LINE
8
BLACK
6
CONTINUOUS
10
5.50846
20
-3.16595
11
5.49457
21
-3.16831
0
LINE
8
BLACK
6
CONTINUOUS
10
5.49457
20
-3.16831
11
5.48051
21
-3.1691
0
LINE
8
BLACK
6
CONTINUOUS
10
5.48051
20
-3.1691
11
5.46645
21
-3.16831
0
LINE
8
BLACK
6
CONTINUOUS
10
5.46645
20
-3.16831
11
5.45256
21
-3.16595
0
LINE
8
BLACK
6
CONTINUOUS
10
5.45256
20
-3.16595
11
5.43903
21
-3.16206
0
LINE
8
BLACK
6
CONTINUOUS
10
5.43903
20
-3.16206
11
5.42602
21
-3.15667
0
LINE
8
BLACK
6
CONTINUOUS
10
5.42602
20
-3.15667
11
5.41369
21
-3.14985
0
LINE
8
BLACK
6
CONTINUOUS
10
5.41369
20
-3.14985
11
5.4022
21
-3.1417
0
LINE
8
BLACK
6
CONTINUOUS
10
5.4022
20
-3.1417
11
5.3917
21
-3.13232
0
LINE
8
BLACK
6
CONTINUOUS
10
5.3917
20
-3.13232
11
5.38231
21
-3.12181
0
LINE
8
BLACK
6
CONTINUOUS
10
5.38231
20
-3.12181
11
5.37416
21
-3.11033
0
LINE
8
BLACK
6
CONTINUOUS
10
5.37416
20
-3.11033
11
5.36735
21
-3.098
0
LINE
8
BLACK
6
CONTINUOUS
10
5.36735
20
-3.098
11
5.36196
21
-3.08499
0
LINE
8
BLACK
6
CONTINUOUS
10
5.36196
20
-3.08499
11
5.35806
21
-3.07145
0
LINE
8
BLACK
6
CONTINUOUS
10
5.35806
20
-3.07145
11
5.3557
21
-3.05757
0
LINE
8
BLACK
6
CONTINUOUS
10
5.3557
20
-3.05757
11
5.35491
21
-3.0435
0
LINE
8
BLACK
6
CONTINUOUS
10
5.35491
20
-3.0435
11
5.3557
21
-3.02944
0
LINE
8
BLACK
6
CONTINUOUS
10
5.3557
20
-3.02944
11
5.35806
21
-3.01556
0
LINE
8
BLACK
6
CONTINUOUS
10
5.35806
20
-3.01556
11
5.36196
21
-3.00202
0
LINE
8
BLACK
6
CONTINUOUS
10
5.36196
20
-3.00202
11
5.36735
21
-2.98901
0
LINE
8
BLACK
6
CONTINUOUS
10
5.36735
20
-2.98901
11
5.37416
21
-2.97668
0
LINE
8
BLACK
6
CONTINUOUS
10
5.37416
20
-2.97668
11
5.38231
21
-2.96519
0
LINE
8
BLACK
6
CONTINUOUS
10
5.38231
20
-2.96519
11
5.3917
21
-2.95469
0
LINE
8
BLACK
6
CONTINUOUS
10
5.3917
20
-2.95469
11
5.4022
21
-2.94531
0
LINE
8
BLACK
6
CONTINUOUS
10
5.4022
20
-2.94531
11
5.41369
21
-2.93716
0
LINE
8
BLACK
6
CONTINUOUS
10
5.41369
20
-2.93716
11
5.42602
21
-2.93034
0
LINE
8
BLACK
6
CONTINUOUS
10
5.42602
20
-2.93034
11
5.43903
21
-2.92495
0
LINE
8
BLACK
6
CONTINUOUS
10
5.43903
20
-2.92495
11
5.45256
21
-2.92105
0
LINE
8
BLACK
6
CONTINUOUS
10
5.45256
20
-2.92105
11
5.46645
21
-2.91869
0
LINE
8
BLACK
6
CONTINUOUS
10
5.46645
20
-2.91869
11
5.48051
21
-2.9179
0
LINE
8
BLACK
6
CONTINUOUS
10
5.48051
20
-2.9179
11
5.49457
21
-2.91869
0
LINE
8
BLACK
6
CONTINUOUS
10
5.37047
20
-3.05637
11
5.37271
21
-3.06905
0
LINE
8
BLACK
6
CONTINUOUS
10
5.37271
20
-3.06905
11
5.37641
21
-3.0814
0
LINE
8
BLACK
6
CONTINUOUS
10
5.37641
20
-3.0814
11
5.38151
21
-3.09323
0
LINE
8
BLACK
6
CONTINUOUS
10
5.38151
20
-3.09323
11
5.38795
21
-3.10438
0
LINE
8
BLACK
6
CONTINUOUS
10
5.38795
20
-3.10438
11
5.39564
21
-3.11472
0
LINE
8
BLACK
6
CONTINUOUS
10
5.39564
20
-3.11472
11
5.40448
21
-3.12409
0
LINE
8
BLACK
6
CONTINUOUS
10
5.40448
20
-3.12409
11
5.41435
21
-3.13237
0
LINE
8
BLACK
6
CONTINUOUS
10
5.41435
20
-3.13237
11
5.42512
21
-3.13945
0
LINE
8
BLACK
6
CONTINUOUS
10
5.42512
20
-3.13945
11
5.43663
21
-3.14523
0
LINE
8
BLACK
6
CONTINUOUS
10
5.43663
20
-3.14523
11
5.44874
21
-3.14964
0
LINE
8
BLACK
6
CONTINUOUS
10
5.44874
20
-3.14964
11
5.46127
21
-3.15261
0
LINE
8
BLACK
6
CONTINUOUS
10
5.46127
20
-3.15261
11
5.47407
21
-3.1541
0
LINE
8
BLACK
6
CONTINUOUS
10
5.47407
20
-3.1541
11
5.48695
21
-3.1541
0
LINE
8
BLACK
6
CONTINUOUS
10
5.48695
20
-3.1541
11
5.49975
21
-3.15261
0
LINE
8
BLACK
6
CONTINUOUS
10
5.49975
20
-3.15261
11
5.51229
21
-3.14964
0
LINE
8
BLACK
6
CONTINUOUS
10
5.51229
20
-3.14964
11
5.52439
21
-3.14523
0
LINE
8
BLACK
6
CONTINUOUS
10
5.52439
20
-3.14523
11
5.53591
21
-3.13945
0
LINE
8
BLACK
6
CONTINUOUS
10
5.53591
20
-3.13945
11
5.54667
21
-3.13237
0
LINE
8
BLACK
6
CONTINUOUS
10
5.54667
20
-3.13237
11
5.55654
21
-3.12409
0
LINE
8
BLACK
6
CONTINUOUS
10
5.55654
20
-3.12409
11
5.56538
21
-3.11472
0
LINE
8
BLACK
6
CONTINUOUS
10
5.56538
20
-3.11472
11
5.57307
21
-3.10438
0
LINE
8
BLACK
6
CONTINUOUS
10
5.57307
20
-3.10438
11
5.57952
21
-3.09323
0
LINE
8
BLACK
6
CONTINUOUS
10
5.57952
20
-3.09323
11
5.58462
21
-3.0814
0
LINE
8
BLACK
6
CONTINUOUS
10
5.58462
20
-3.0814
11
5.58831
21
-3.06905
0
LINE
8
BLACK
6
CONTINUOUS
10
5.58831
20
-3.06905
11
5.59055
21
-3.05637
0
LINE
8
BLACK
6
CONTINUOUS
10
5.59055
20
-3.05637
11
5.5913
21
-3.0435
0
LINE
8
BLACK
6
CONTINUOUS
10
5.5913
20
-3.0435
11
5.59055
21
-3.03064
0
LINE
8
BLACK
6
CONTINUOUS
10
5.59055
20
-3.03064
11
5.58831
21
-3.01795
0
LINE
8
BLACK
6
CONTINUOUS
10
5.58831
20
-3.01795
11
5.58462
21
-3.00561
0
LINE
8
BLACK
6
CONTINUOUS
10
5.58462
20
-3.00561
11
5.57952
21
-2.99378
0
LINE
8
BLACK
6
CONTINUOUS
10
5.57952
20
-2.99378
11
5.57307
21
-2.98263
0
LINE
8
BLACK
6
CONTINUOUS
10
5.57307
20
-2.98263
11
5.56538
21
-2.97229
0
LINE
8
BLACK
6
CONTINUOUS
10
5.56538
20
-2.97229
11
5.55654
21
-2.96292
0
LINE
8
BLACK
6
CONTINUOUS
10
5.55654
20
-2.96292
11
5.54667
21
-2.95464
0
LINE
8
BLACK
6
CONTINUOUS
10
5.54667
20
-2.95464
11
5.53591
21
-2.94756
0
LINE
8
BLACK
6
CONTINUOUS
10
5.53591
20
-2.94756
11
5.52439
21
-2.94178
0
LINE
8
BLACK
6
CONTINUOUS
10
5.52439
20
-2.94178
11
5.51229
21
-2.93737
0
LINE
8
BLACK
6
CONTINUOUS
10
5.51229
20
-2.93737
11
5.49975
21
-2.9344
0
LINE
8
BLACK
6
CONTINUOUS
10
5.49975
20
-2.9344
11
5.48695
21
-2.9329
0
LINE
8
BLACK
6
CONTINUOUS
10
5.48695
20
-2.9329
11
5.47407
21
-2.9329
0
LINE
8
BLACK
6
CONTINUOUS
10
5.47407
20
-2.9329
11
5.46127
21
-2.9344
0
LINE
8
BLACK
6
CONTINUOUS
10
5.46127
20
-2.9344
11
5.44874
21
-2.93737
0
LINE
8
BLACK
6
CONTINUOUS
10
5.44874
20
-2.93737
11
5.43663
21
-2.94178
0
LINE
8
BLACK
6
CONTINUOUS
10
5.43663
20
-2.94178
11
5.42512
21
-2.94756
0
LINE
8
BLACK
6
CONTINUOUS
10
5.42512
20
-2.94756
11
5.41435
21
-2.95464
0
LINE
8
BLACK
6
CONTINUOUS
10
5.41435
20
-2.95464
11
5.40448
21
-2.96292
0
LINE
8
BLACK
6
CONTINUOUS
10
5.40448
20
-2.96292
11
5.39564
21
-2.97229
0
LINE
8
BLACK
6
CONTINUOUS
10
5.39564
20
-2.97229
11
5.38795
21
-2.98263
0
LINE
8
BLACK
6
CONTINUOUS
10
5.38795
20
-2.98263
11
5.38151
21
-2.99378
0
LINE
8
BLACK
6
CONTINUOUS
10
5.38151
20
-2.99378
11
5.37641
21
-3.00561
0
LINE
8
BLACK
6
CONTINUOUS
10
5.37641
20
-3.00561
11
5.37271
21
-3.01795
0
LINE
8
BLACK
6
CONTINUOUS
10
5.37271
20
-3.01795
11
5.37047
21
-3.03064
0
LINE
8
BLACK
6
CONTINUOUS
10
5.37047
20
-3.03064
11
5.36972
21
-3.0435
0
LINE
8
BLACK
6
CONTINUOUS
10
5.36972
20
-3.0435
11
5.37047
21
-3.05637
0
LINE
8
BLACK
6
CONTINUOUS
10
6.69457
20
-2.91869
11
6.70846
21
-2.92105
0
LINE
8
BLACK
6
CONTINUOUS
10
6.70846
20
-2.92105
11
6.72199
21
-2.92495
0
LINE
8
BLACK
6
CONTINUOUS
10
6.72199
20
-2.92495
11
6.73501
21
-2.93034
0
LINE
8
BLACK
6
CONTINUOUS
10
6.73501
20
-2.93034
11
6.74734
21
-2.93716
0
LINE
8
BLACK
6
CONTINUOUS
10
6.74734
20
-2.93716
11
6.75882
21
-2.94531
0
LINE
8
BLACK
6
CONTINUOUS
10
6.75882
20
-2.94531
11
6.76932
21
-2.95469
0
LINE
8
BLACK
6
CONTINUOUS
10
6.76932
20
-2.95469
11
6.77871
21
-2.96519
0
LINE
8
BLACK
6
CONTINUOUS
10
6.77871
20
-2.96519
11
6.78686
21
-2.97668
0
LINE
8
BLACK
6
CONTINUOUS
10
6.78686
20
-2.97668
11
6.79367
21
-2.98901
0
LINE
8
BLACK
6
CONTINUOUS
10
6.79367
20
-2.98901
11
6.79906
21
-3.00202
0
LINE
8
BLACK
6
CONTINUOUS
10
6.79906
20
-3.00202
11
6.80296
21
-3.01556
0
LINE
8
BLACK
6
CONTINUOUS
10
6.80296
20
-3.01556
11
6.80532
21
-3.02944
0
LINE
8
BLACK
6
CONTINUOUS
10
6.80532
20
-3.02944
11
6.80611
21
-3.0435
0
LINE
8
BLACK
6
CONTINUOUS
10
6.80611
20
-3.0435
11
6.80532
21
-3.05757
0
LINE
8
BLACK
6
CONTINUOUS
10
6.80532
20
-3.05757
11
6.80296
21
-3.07145
0
LINE
8
BLACK
6
CONTINUOUS
10
6.80296
20
-3.07145
11
6.79906
21
-3.08499
0
LINE
8
BLACK
6
CONTINUOUS
10
6.79906
20
-3.08499
11
6.79367
21
-3.098
0
LINE
8
BLACK
6
CONTINUOUS
10
6.79367
20
-3.098
11
6.78686
21
-3.11033
0
LINE
8
BLACK
6
CONTINUOUS
10
6.78686
20
-3.11033
11
6.77871
21
-3.12181
0
LINE
8
BLACK
6
CONTINUOUS
10
6.77871
20
-3.12181
11
6.76932
21
-3.13232
0
LINE
8
BLACK
6
CONTINUOUS
10
6.76932
20
-3.13232
11
6.75882
21
-3.1417
0
LINE
8
BLACK
6
CONTINUOUS
10
6.75882
20
-3.1417
11
6.74734
21
-3.14985
0
LINE
8
BLACK
6
CONTINUOUS
10
6.74734
20
-3.14985
11
6.73501
21
-3.15667
0
LINE
8
BLACK
6
CONTINUOUS
10
6.73501
20
-3.15667
11
6.72199
21
-3.16206
0
LINE
8
BLACK
6
CONTINUOUS
10
6.72199
20
-3.16206
11
6.70846
21
-3.16595
0
LINE
8
BLACK
6
CONTINUOUS
10
6.70846
20
-3.16595
11
6.69457
21
-3.16831
0
LINE
8
BLACK
6
CONTINUOUS
10
6.69457
20
-3.16831
11
6.68051
21
-3.1691
0
LINE
8
BLACK
6
CONTINUOUS
10
6.68051
20
-3.1691
11
6.66645
21
-3.16831
0
LINE
8
BLACK
6
CONTINUOUS
10
6.66645
20
-3.16831
11
6.65256
21
-3.16595
0
LINE
8
BLACK
6
CONTINUOUS
10
6.65256
20
-3.16595
11
6.63903
21
-3.16206
0
LINE
8
BLACK
6
CONTINUOUS
10
6.63903
20
-3.16206
11
6.62602
21
-3.15667
0
LINE
8
BLACK
6
CONTINUOUS
10
6.62602
20
-3.15667
11
6.61369
21
-3.14985
0
LINE
8
BLACK
6
CONTINUOUS
10
6.61369
20
-3.14985
11
6.6022
21
-3.1417
0
LINE
8
BLACK
6
CONTINUOUS
10
6.6022
20
-3.1417
11
6.5917
21
-3.13232
0
LINE
8
BLACK
6
CONTINUOUS
10
6.5917
20
-3.13232
11
6.58231
21
-3.12181
0
LINE
8
BLACK
6
CONTINUOUS
10
6.58231
20
-3.12181
11
6.57416
21
-3.11033
0
LINE
8
BLACK
6
CONTINUOUS
10
6.57416
20
-3.11033
11
6.56735
21
-3.098
0
LINE
8
BLACK
6
CONTINUOUS
10
6.56735
20
-3.098
11
6.56196
21
-3.08499
0
LINE
8
BLACK
6
CONTINUOUS
10
6.56196
20
-3.08499
11
6.55806
21
-3.07145
0
LINE
8
BLACK
6
CONTINUOUS
10
6.55806
20
-3.07145
11
6.5557
21
-3.05757
0
LINE
8
BLACK
6
CONTINUOUS
10
6.5557
20
-3.05757
11
6.55491
21
-3.0435
0
LINE
8
BLACK
6
CONTINUOUS
10
6.55491
20
-3.0435
11
6.5557
21
-3.02944
0
LINE
8
BLACK
6
CONTINUOUS
10
6.5557
20
-3.02944
11
6.55806
21
-3.01556
0
LINE
8
BLACK
6
CONTINUOUS
10
6.55806
20
-3.01556
11
6.56196
21
-3.00202
0
LINE
8
BLACK
6
CONTINUOUS
10
6.56196
20
-3.00202
11
6.56735
21
-2.98901
0
LINE
8
BLACK
6
CONTINUOUS
10
6.56735
20
-2.98901
11
6.57416
21
-2.97668
0
LINE
8
BLACK
6
CONTINUOUS
10
6.57416
20
-2.97668
11
6.58231
21
-2.96519
0
LINE
8
BLACK
6
CONTINUOUS
10
6.58231
20
-2.96519
11
6.5917
21
-2.95469
0
LINE
8
BLACK
6
CONTINUOUS
10
6.5917
20
-2.95469
11
6.6022
21
-2.94531
0
LINE
8
BLACK
6
CONTINUOUS
10
6.6022
20
-2.94531
11
6.61369
21
-2.93716
0
LINE
8
BLACK
6
CONTINUOUS
10
6.61369
20
-2.93716
11
6.62602
21
-2.93034
0
LINE
8
BLACK
6
CONTINUOUS
10
6.62602
20
-2.93034
11
6.63903
21
-2.92495
0
LINE
8
BLACK
6
CONTINUOUS
10
6.63903
20
-2.92495
11
6.65256
21
-2.92105
0
LINE
8
BLACK
6
CONTINUOUS
10
6.65256
20
-2.92105
11
6.66645
21
-2.91869
0
LINE
8
BLACK
6
CONTINUOUS
10
6.66645
20
-2.91869
11
6.68051
21
-2.9179
0
LINE
8
BLACK
6
CONTINUOUS
10
6.68051
20
-2.9179
11
6.69457
21
-2.91869
0
LINE
8
BLACK
6
CONTINUOUS
10
6.57047
20
-3.05637
11
6.57271
21
-3.06905
0
LINE
8
BLACK
6
CONTINUOUS
10
6.57271
20
-3.06905
11
6.57641
21
-3.0814
0
LINE
8
BLACK
6
CONTINUOUS
10
6.57641
20
-3.0814
11
6.58151
21
-3.09323
0
LINE
8
BLACK
6
CONTINUOUS
10
6.58151
20
-3.09323
11
6.58795
21
-3.10438
0
LINE
8
BLACK
6
CONTINUOUS
10
6.58795
20
-3.10438
11
6.59564
21
-3.11472
0
LINE
8
BLACK
6
CONTINUOUS
10
6.59564
20
-3.11472
11
6.60448
21
-3.12409
0
LINE
8
BLACK
6
CONTINUOUS
10
6.60448
20
-3.12409
11
6.61435
21
-3.13237
0
LINE
8
BLACK
6
CONTINUOUS
10
6.61435
20
-3.13237
11
6.62512
21
-3.13945
0
LINE
8
BLACK
6
CONTINUOUS
10
6.62512
20
-3.13945
11
6.63663
21
-3.14523
0
LINE
8
BLACK
6
CONTINUOUS
10
6.63663
20
-3.14523
11
6.64874
21
-3.14964
0
LINE
8
BLACK
6
CONTINUOUS
10
6.64874
20
-3.14964
11
6.66127
21
-3.15261
0
LINE
8
BLACK
6
CONTINUOUS
10
6.66127
20
-3.15261
11
6.67407
21
-3.1541
0
LINE
8
BLACK
6
CONTINUOUS
10
6.67407
20
-3.1541
11
6.68695
21
-3.1541
0
LINE
8
BLACK
6
CONTINUOUS
10
6.68695
20
-3.1541
11
6.69975
21
-3.15261
0
LINE
8
BLACK
6
CONTINUOUS
10
6.69975
20
-3.15261
11
6.71229
21
-3.14964
0
LINE
8
BLACK
6
CONTINUOUS
10
6.71229
20
-3.14964
11
6.72439
21
-3.14523
0
LINE
8
BLACK
6
CONTINUOUS
10
6.72439
20
-3.14523
11
6.73591
21
-3.13945
0
LINE
8
BLACK
6
CONTINUOUS
10
6.73591
20
-3.13945
11
6.74667
21
-3.13237
0
LINE
8
BLACK
6
CONTINUOUS
10
6.74667
20
-3.13237
11
6.75654
21
-3.12409
0
LINE
8
BLACK
6
CONTINUOUS
10
6.75654
20
-3.12409
11
6.76538
21
-3.11472
0
LINE
8
BLACK
6
CONTINUOUS
10
6.76538
20
-3.11472
11
6.77307
21
-3.10438
0
LINE
8
BLACK
6
CONTINUOUS
10
6.77307
20
-3.10438
11
6.77952
21
-3.09323
0
LINE
8
BLACK
6
CONTINUOUS
10
6.77952
20
-3.09323
11
6.78462
21
-3.0814
0
LINE
8
BLACK
6
CONTINUOUS
10
6.78462
20
-3.0814
11
6.78831
21
-3.06905
0
LINE
8
BLACK
6
CONTINUOUS
10
6.78831
20
-3.06905
11
6.79055
21
-3.05637
0
LINE
8
BLACK
6
CONTINUOUS
10
6.79055
20
-3.05637
11
6.7913
21
-3.0435
0
LINE
8
BLACK
6
CONTINUOUS
10
6.7913
20
-3.0435
11
6.79055
21
-3.03064
0
LINE
8
BLACK
6
CONTINUOUS
10
6.79055
20
-3.03064
11
6.78831
21
-3.01795
0
LINE
8
BLACK
6
CONTINUOUS
10
6.78831
20
-3.01795
11
6.78462
21
-3.00561
0
LINE
8
BLACK
6
CONTINUOUS
10
6.78462
20
-3.00561
11
6.77952
21
-2.99378
0
LINE
8
BLACK
6
CONTINUOUS
10
6.77952
20
-2.99378
11
6.77307
21
-2.98263
0
LINE
8
BLACK
6
CONTINUOUS
10
6.77307
20
-2.98263
11
6.76538
21
-2.97229
0
LINE
8
BLACK
6
CONTINUOUS
10
6.76538
20
-2.97229
11
6.75654
21
-2.96292
0
LINE
8
BLACK
6
CONTINUOUS
10
6.75654
20
-2.96292
11
6.74667
21
-2.95464
0
LINE
8
BLACK
6
CONTINUOUS
10
6.74667
20
-2.95464
11
6.73591
21
-2.94756
0
LINE
8
BLACK
6
CONTINUOUS
10
6.73591
20
-2.94756
11
6.72439
21
-2.94178
0
LINE
8
BLACK
6
CONTINUOUS
10
6.72439
20
-2.94178
11
6.71229
21
-2.93737
0
LINE
8
BLACK
6
CONTINUOUS
10
6.71229
20
-2.93737
11
6.69975
21
-2.9344
0
LINE
8
BLACK
6
CONTINUOUS
10
6.69975
20
-2.9344
11
6.68695
21
-2.9329
0
LINE
8
BLACK
6
CONTINUOUS
10
6.68695
20
-2.9329
11
6.67407
21
-2.9329
0
LINE
8
BLACK
6
CONTINUOUS
10
6.67407
20
-2.9329
11
6.66127
21
-2.9344
0
LINE
8
BLACK
6
CONTINUOUS
10
6.66127
20
-2.9344
11
6.64874
21
-2.93737
0
LINE
8
BLACK
6
CONTINUOUS
10
6.64874
20
-2.93737
11
6.63663
21
-2.94178
0
LINE
8
BLACK
6
CONTINUOUS
10
6.63663
20
-2.94178
11
6.62512
21
-2.94756
0
LINE
8
BLACK
6
CONTINUOUS
10
6.62512
20
-2.94756
11
6.61435
21
-2.95464
0
LINE
8
BLACK
6
CONTINUOUS
10
6.61435
20
-2.95464
11
6.60448
21
-2.96292
0
LINE
8
BLACK
6
CONTINUOUS
10
6.60448
20
-2.96292
11
6.59564
21
-2.97229
0
LINE
8
BLACK
6
CONTINUOUS
10
6.59564
20
-2.97229
11
6.58795
21
-2.98263
0
LINE
8
BLACK
6
CONTINUOUS
10
6.58795
20
-2.98263
11
6.58151
21
-2.99378
0
LINE
8
BLACK
6
CONTINUOUS
10
6.58151
20
-2.99378
11
6.57641
21
-3.00561
0
LINE
8
BLACK
6
CONTINUOUS
10
6.57641
20
-3.00561
11
6.57271
21
-3.01795
0
LINE
8
BLACK
6
CONTINUOUS
10
6.57271
20
-3.01795
11
6.57047
21
-3.03064
0
LINE
8
BLACK
6
CONTINUOUS
10
6.57047
20
-3.03064
11
6.56972
21
-3.0435
0
LINE
8
BLACK
6
CONTINUOUS
10
6.56972
20
-3.0435
11
6.57047
21
-3.05637
  0
ENDSEC
  0
EOF
