  0
SECTION
  2
HEADER
  9
$ANGBASE
  50
0.0
  9
$ANGDIR
  70
1
  9
$MEASUREMENT
  70
0
  0
ENDSEC
  0
SECTION
  2
TABLES
  0
TABLE
  2
LTYPE
  70
4
  0
LTYPE
  5
40F
  2
CONTINUOUS
  70
0
  3
Solid line
  72
65
  73
0
  40
0.0
  0
LTYPE
  5
410
  2
DASHDOT
 70
0
  3
Dash Dot ____ _ ____ _
 72
65
 73
4
 40
2.0
 49
1.25
 49
-0.25
 49
0.25
 49
-0.25
  0
LTYPE
  5
411
  2
DASHED
 70
0
  3
Dashed __ __ __ __ __
 72
65
 73
2
 40
0.75
 49
0.5
 49
-0.25
  0
LTYPE
  5
43B
  2
DOTTED
 70
0
  3
Dotted .  .  .  .
 72
65
 73
2
 40
0.2
 49
0.0
 49
-0.2
  0
ENDTAB
  0
TABLE
  2
STYLE
  70
4
  0
STYLE
  2
KICAD
  70
0
  40
0
  41
1
  42
1
  50
0
  71
0
  3
isocp.shx
  0
STYLE
  2
KICADB
  70
0
  40
0
  41
1
  42
1
  50
0
  71
0
  3
isocp.shx
  0
STYLE
  2
KICADI
  70
0
  40
0
  41
1
  42
1
  50
15
  71
0
  3
isocp.shx
  0
STYLE
  2
KICADBI
  70
0
  40
0
  41
1
  42
1
  50
15
  71
0
  3
isocp.shx
  0
ENDTAB
  0
TABLE
  2
LAYER
  70
1
  0
LAYER
  2
BLACK
  70
0
  62
7
  6
CONTINUOUS
  0
ENDTAB
  0
ENDSEC
  0
SECTION
  2
ENTITIES
0
LINE
8
BLACK
6
CONTINUOUS
10
5.9185039370078742
20
-4.1374015748031496
11
5.9191999212598425
21
-4.1376898425196851
0
LINE
8
BLACK
6
CONTINUOUS
10
5.9191999212598425
20
-4.1376898425196851
11
5.919488188976378
21
-4.1383858267716533
0
LINE
8
BLACK
6
CONTINUOUS
10
5.919488188976378
20
-4.1383858267716533
11
5.919488188976378
21
-4.2486220472440941
0
LINE
8
BLACK
6
CONTINUOUS
10
5.919488188976378
20
-4.2486220472440941
11
5.9191999212598425
21
-4.2493180314960632
0
LINE
8
BLACK
6
CONTINUOUS
10
5.9191999212598425
20
-4.2493180314960632
11
5.9185039370078742
21
-4.2496062992125987
0
LINE
8
BLACK
6
CONTINUOUS
10
5.9185039370078742
20
-4.2496062992125987
11
5.7925196850393696
21
-4.2496062992125987
0
LINE
8
BLACK
6
CONTINUOUS
10
5.7925196850393696
20
-4.2496062992125987
11
5.7918237007874014
21
-4.2493180314960632
0
LINE
8
BLACK
6
CONTINUOUS
10
5.7918237007874014
20
-4.2493180314960632
11
5.7915354330708659
21
-4.2486220472440941
0
LINE
8
BLACK
6
CONTINUOUS
10
5.7915354330708659
20
-4.2486220472440941
11
5.7915354330708659
21
-4.1383858267716533
0
LINE
8
BLACK
6
CONTINUOUS
10
5.7915354330708659
20
-4.1383858267716533
11
5.7918237007874014
21
-4.1376898425196851
0
LINE
8
BLACK
6
CONTINUOUS
10
5.7918237007874014
20
-4.1376898425196851
11
5.7925196850393696
21
-4.1374015748031496
0
LINE
8
BLACK
6
CONTINUOUS
10
5.7925196850393696
20
-4.1374015748031496
11
5.9185039370078742
21
-4.1374015748031496
0
LINE
8
BLACK
6
CONTINUOUS
10
5.7935039370078742
20
-4.1393700787401571
11
5.7935039370078742
21
-4.2476377952755904
0
LINE
8
BLACK
6
CONTINUOUS
10
5.7935039370078742
20
-4.2476377952755904
11
5.9175196850393696
21
-4.2476377952755904
0
LINE
8
BLACK
6
CONTINUOUS
10
5.9175196850393696
20
-4.2476377952755904
11
5.9175196850393696
21
-4.1393700787401571
0
LINE
8
BLACK
6
CONTINUOUS
10
5.9175196850393696
20
-4.1393700787401571
11
5.7935039370078742
21
-4.1393700787401571
0
LINE
8
BLACK
6
CONTINUOUS
10
6.1825787401574805
20
-4.1340551181102363
11
6.1832747244094488
21
-4.1343433858267717
0
LINE
8
BLACK
6
CONTINUOUS
10
6.1832747244094488
20
-4.1343433858267717
11
6.1835629921259843
21
-4.13503937007874
0
LINE
8
BLACK
6
CONTINUOUS
10
6.1835629921259843
20
-4.13503937007874
11
6.1835629921259843
21
-4.2019685039370076
0
LINE
8
BLACK
6
CONTINUOUS
10
6.1835629921259843
20
-4.2019685039370076
11
6.1832747244094488
21
-4.2026644881889759
0
LINE
8
BLACK
6
CONTINUOUS
10
6.1832747244094488
20
-4.2026644881889759
11
6.1825787401574805
21
-4.2029527559055113
0
LINE
8
BLACK
6
CONTINUOUS
10
6.1825787401574805
20
-4.2029527559055113
11
6.0447834645669287
21
-4.2029527559055113
0
LINE
8
BLACK
6
CONTINUOUS
10
6.0447834645669287
20
-4.2029527559055113
11
6.0440874803149605
21
-4.2026644881889759
0
LINE
8
BLACK
6
CONTINUOUS
10
6.0440874803149605
20
-4.2026644881889759
11
6.043799212598425
21
-4.2019685039370076
0
LINE
8
BLACK
6
CONTINUOUS
10
6.043799212598425
20
-4.2019685039370076
11
6.043799212598425
21
-4.13503937007874
0
LINE
8
BLACK
6
CONTINUOUS
10
6.043799212598425
20
-4.13503937007874
11
6.0440874803149605
21
-4.1343433858267717
0
LINE
8
BLACK
6
CONTINUOUS
10
6.0440874803149605
20
-4.1343433858267717
11
6.0447834645669287
21
-4.1340551181102363
0
LINE
8
BLACK
6
CONTINUOUS
10
6.0447834645669287
20
-4.1340551181102363
11
6.1825787401574805
21
-4.1340551181102363
0
LINE
8
BLACK
6
CONTINUOUS
10
6.0457677165354333
20
-4.1360236220472437
11
6.0457677165354333
21
-4.2009842519685039
0
LINE
8
BLACK
6
CONTINUOUS
10
6.0457677165354333
20
-4.2009842519685039
11
6.1815944881889759
21
-4.2009842519685039
0
LINE
8
BLACK
6
CONTINUOUS
10
6.1815944881889759
20
-4.2009842519685039
11
6.1815944881889759
21
-4.1360236220472437
0
LINE
8
BLACK
6
CONTINUOUS
10
6.1815944881889759
20
-4.1360236220472437
11
6.0457677165354333
21
-4.1360236220472437
0
LINE
8
BLACK
6
CONTINUOUS
10
6.2559055118110232
20
-3.7940944881889762
11
6.2566014960629923
21
-3.7943827559055117
0
LINE
8
BLACK
6
CONTINUOUS
10
6.2566014960629923
20
-3.7943827559055117
11
6.2568897637795278
21
-3.7950787401574804
0
LINE
8
BLACK
6
CONTINUOUS
10
6.2568897637795278
20
-3.7950787401574804
11
6.2568897637795278
21
-3.9919291338582674
0
LINE
8
BLACK
6
CONTINUOUS
10
6.2568897637795278
20
-3.9919291338582674
11
6.2566014960629923
21
-3.9926251181102361
0
LINE
8
BLACK
6
CONTINUOUS
10
6.2566014960629923
20
-3.9926251181102361
11
6.2559055118110232
21
-3.9929133858267716
0
LINE
8
BLACK
6
CONTINUOUS
10
6.2559055118110232
20
-3.9929133858267716
11
6.2125326771653544
21
-3.9929133858267716
0
LINE
8
BLACK
6
CONTINUOUS
10
6.2125326771653544
20
-3.9929133858267716
11
6.3095887401574799
21
-4.0899694881889763
0
LINE
8
BLACK
6
CONTINUOUS
10
6.3095887401574799
20
-4.0899694881889763
11
6.3095888188976375
21
-4.0899695275590551
0
LINE
8
BLACK
6
CONTINUOUS
10
6.3095888188976375
20
-4.0899695275590551
11
6.3098771259842517
21
-4.0906655118110233
0
LINE
8
BLACK
6
CONTINUOUS
10
6.3098771259842517
20
-4.0906655118110233
11
6.3095888188976375
21
-4.0913614566929137
0
LINE
8
BLACK
6
CONTINUOUS
10
6.3095888188976375
20
-4.0913614566929137
11
6.2622627559055113
21
-4.1386875590551178
0
LINE
8
BLACK
6
CONTINUOUS
10
6.2622627559055113
20
-4.1386875590551178
11
6.261566771653543
21
-4.1389758267716532
0
LINE
8
BLACK
6
CONTINUOUS
10
6.261566771653543
20
-4.1389758267716532
11
6.2608707874015748
21
-4.1386875590551178
0
LINE
8
BLACK
6
CONTINUOUS
10
6.2608707874015748
20
-4.1386875590551178
11
6.260870748031496
21
-4.1386874803149603
0
LINE
8
BLACK
6
CONTINUOUS
10
6.260870748031496
20
-4.1386874803149603
11
6.163434803149606
21
-4.0412515748031499
0
LINE
8
BLACK
6
CONTINUOUS
10
6.163434803149606
20
-4.0412515748031499
11
6.1631465354330706
21
-4.0405555905511807
0
LINE
8
BLACK
6
CONTINUOUS
10
6.1631465354330706
20
-4.0405555905511807
11
6.163434803149606
21
-4.0398596062992125
0
LINE
8
BLACK
6
CONTINUOUS
10
6.163434803149606
20
-4.0398596062992125
11
6.2103810629921261
21
-3.9929133858267716
0
LINE
8
BLACK
6
CONTINUOUS
10
6.2103810629921261
20
-3.9929133858267716
11
6.0551181102362204
21
-3.9929133858267716
0
LINE
8
BLACK
6
CONTINUOUS
10
6.0551181102362204
20
-3.9929133858267716
11
6.0544221259842521
21
-3.9926251181102361
0
LINE
8
BLACK
6
CONTINUOUS
10
6.0544221259842521
20
-3.9926251181102361
11
6.0541338582677167
21
-3.9919291338582674
0
LINE
8
BLACK
6
CONTINUOUS
10
6.0541338582677167
20
-3.9919291338582674
11
6.0541338582677167
21
-3.7950787401574804
0
LINE
8
BLACK
6
CONTINUOUS
10
6.0541338582677167
20
-3.7950787401574804
11
6.0544221259842521
21
-3.7943827559055117
0
LINE
8
BLACK
6
CONTINUOUS
10
6.0544221259842521
20
-3.7943827559055117
11
6.0551181102362204
21
-3.7940944881889762
0
LINE
8
BLACK
6
CONTINUOUS
10
6.0551181102362204
20
-3.7940944881889762
11
6.2559055118110232
21
-3.7940944881889762
0
LINE
8
BLACK
6
CONTINUOUS
10
6.1655227165354329
20
-4.040555551181102
11
6.2615667322834643
21
-4.1365996062992121
0
LINE
8
BLACK
6
CONTINUOUS
10
6.2615667322834643
20
-4.1365996062992121
11
6.3075008661417318
21
-4.0906654724409446
0
LINE
8
BLACK
6
CONTINUOUS
10
6.3075008661417318
20
-4.0906654724409446
11
6.2114568110236217
21
-3.9946214566929132
0
LINE
8
BLACK
6
CONTINUOUS
10
6.2114568110236217
20
-3.9946214566929132
11
6.1655227165354329
21
-4.040555551181102
0
LINE
8
BLACK
6
CONTINUOUS
10
6.0561023622047241
20
-3.7960629921259841
11
6.0561023622047241
21
-3.9909448818897637
0
LINE
8
BLACK
6
CONTINUOUS
10
6.0561023622047241
20
-3.9909448818897637
11
6.2549212598425195
21
-3.9909448818897637
0
LINE
8
BLACK
6
CONTINUOUS
10
6.2549212598425195
20
-3.9909448818897637
11
6.2549212598425195
21
-3.7960629921259841
0
LINE
8
BLACK
6
CONTINUOUS
10
6.2549212598425195
20
-3.7960629921259841
11
6.0561023622047241
21
-3.7960629921259841
0
LINE
8
BLACK
6
CONTINUOUS
10
5.9805118110236215
20
-3.9125196850393702
11
5.9812077952755907
21
-3.9128079527559052
0
LINE
8
BLACK
6
CONTINUOUS
10
5.9812077952755907
20
-3.9128079527559052
11
5.9814960629921261
21
-3.9135039370078739
0
LINE
8
BLACK
6
CONTINUOUS
10
5.9814960629921261
20
-3.9135039370078739
11
5.9814960629921261
21
-4.0735039370078736
0
LINE
8
BLACK
6
CONTINUOUS
10
5.9814960629921261
20
-4.0735039370078736
11
5.9812077952755907
21
-4.0741999212598428
0
LINE
8
BLACK
6
CONTINUOUS
10
5.9812077952755907
20
-4.0741999212598428
11
5.9805118110236215
21
-4.0744881889763782
0
LINE
8
BLACK
6
CONTINUOUS
10
5.9805118110236215
20
-4.0744881889763782
11
5.7805118110236222
21
-4.0744881889763782
0
LINE
8
BLACK
6
CONTINUOUS
10
5.7805118110236222
20
-4.0744881889763782
11
5.7798158267716531
21
-4.0741999212598428
0
LINE
8
BLACK
6
CONTINUOUS
10
5.7798158267716531
20
-4.0741999212598428
11
5.7795275590551176
21
-4.0735039370078736
0
LINE
8
BLACK
6
CONTINUOUS
10
5.7795275590551176
20
-4.0735039370078736
11
5.7795275590551176
21
-3.9135039370078739
0
LINE
8
BLACK
6
CONTINUOUS
10
5.7795275590551176
20
-3.9135039370078739
11
5.7798158267716531
21
-3.9128079527559052
0
LINE
8
BLACK
6
CONTINUOUS
10
5.7798158267716531
20
-3.9128079527559052
11
5.7805118110236222
21
-3.9125196850393702
0
LINE
8
BLACK
6
CONTINUOUS
10
5.7805118110236222
20
-3.9125196850393702
11
5.9805118110236215
21
-3.9125196850393702
0
LINE
8
BLACK
6
CONTINUOUS
10
5.7814960629921259
20
-3.9144881889763781
11
5.7814960629921259
21
-4.0725196850393699
0
LINE
8
BLACK
6
CONTINUOUS
10
5.7814960629921259
20
-4.0725196850393699
11
5.9795275590551178
21
-4.0725196850393699
0
LINE
8
BLACK
6
CONTINUOUS
10
5.9795275590551178
20
-4.0725196850393699
11
5.9795275590551178
21
-3.9144881889763781
0
LINE
8
BLACK
6
CONTINUOUS
10
5.9795275590551178
20
-3.9144881889763781
11
5.7814960629921259
21
-3.9144881889763781
0
LINE
8
BLACK
6
CONTINUOUS
10
5.6978346456692908
20
-3.7001968503937008
11
5.6985306299212599
21
-3.7004851181102363
0
LINE
8
BLACK
6
CONTINUOUS
10
5.6985306299212599
20
-3.7004851181102363
11
5.6988188976377954
21
-3.7011811023622045
0
LINE
8
BLACK
6
CONTINUOUS
10
5.6988188976377954
20
-3.7011811023622045
11
5.6988188976377954
21
-4.035826771653543
0
LINE
8
BLACK
6
CONTINUOUS
10
5.6988188976377954
20
-4.035826771653543
11
5.6985306299212599
21
-4.0365227559055121
0
LINE
8
BLACK
6
CONTINUOUS
10
5.6985306299212599
20
-4.0365227559055121
11
5.6978346456692908
21
-4.0368110236220476
0
LINE
8
BLACK
6
CONTINUOUS
10
5.6978346456692908
20
-4.0368110236220476
11
5.3631889763779528
21
-4.0368110236220476
0
LINE
8
BLACK
6
CONTINUOUS
10
5.3631889763779528
20
-4.0368110236220476
11
5.3624929921259845
21
-4.0365227559055121
0
LINE
8
BLACK
6
CONTINUOUS
10
5.3624929921259845
20
-4.0365227559055121
11
5.3622047244094491
21
-4.035826771653543
0
LINE
8
BLACK
6
CONTINUOUS
10
5.3622047244094491
20
-4.035826771653543
11
5.3622047244094491
21
-3.7011811023622045
0
LINE
8
BLACK
6
CONTINUOUS
10
5.3622047244094491
20
-3.7011811023622045
11
5.3624929921259845
21
-3.7004851181102363
0
LINE
8
BLACK
6
CONTINUOUS
10
5.3624929921259845
20
-3.7004851181102363
11
5.3631889763779528
21
-3.7001968503937008
0
LINE
8
BLACK
6
CONTINUOUS
10
5.3631889763779528
20
-3.7001968503937008
11
5.6978346456692908
21
-3.7001968503937008
0
LINE
8
BLACK
6
CONTINUOUS
10
5.3641732283464565
20
-3.7021653543307087
11
5.3641732283464565
21
-4.0348425196850393
0
LINE
8
BLACK
6
CONTINUOUS
10
5.3641732283464565
20
-4.0348425196850393
11
5.6968503937007871
21
-4.0348425196850393
0
LINE
8
BLACK
6
CONTINUOUS
10
5.6968503937007871
20
-4.0348425196850393
11
5.6968503937007871
21
-3.7021653543307087
0
LINE
8
BLACK
6
CONTINUOUS
10
5.6968503937007871
20
-3.7021653543307087
11
5.3641732283464565
21
-3.7021653543307087
0
LINE
8
BLACK
6
CONTINUOUS
10
6.7978346456692913
20
-3.7001968503937008
11
6.7985306299212596
21
-3.7004851181102363
0
LINE
8
BLACK
6
CONTINUOUS
10
6.7985306299212596
20
-3.7004851181102363
11
6.798818897637795
21
-3.7011811023622045
0
LINE
8
BLACK
6
CONTINUOUS
10
6.798818897637795
20
-3.7011811023622045
11
6.798818897637795
21
-4.035826771653543
0
LINE
8
BLACK
6
CONTINUOUS
10
6.798818897637795
20
-4.035826771653543
11
6.7985306299212596
21
-4.0365227559055121
0
LINE
8
BLACK
6
CONTINUOUS
10
6.7985306299212596
20
-4.0365227559055121
11
6.7978346456692913
21
-4.0368110236220476
0
LINE
8
BLACK
6
CONTINUOUS
10
6.7978346456692913
20
-4.0368110236220476
11
6.4631889763779524
21
-4.0368110236220476
0
LINE
8
BLACK
6
CONTINUOUS
10
6.4631889763779524
20
-4.0368110236220476
11
6.4624929921259842
21
-4.0365227559055121
0
LINE
8
BLACK
6
CONTINUOUS
10
6.4624929921259842
20
-4.0365227559055121
11
6.4622047244094487
21
-4.035826771653543
0
LINE
8
BLACK
6
CONTINUOUS
10
6.4622047244094487
20
-4.035826771653543
11
6.4622047244094487
21
-3.7011811023622045
0
LINE
8
BLACK
6
CONTINUOUS
10
6.4622047244094487
20
-3.7011811023622045
11
6.4624929921259842
21
-3.7004851181102363
0
LINE
8
BLACK
6
CONTINUOUS
10
6.4624929921259842
20
-3.7004851181102363
11
6.4631889763779524
21
-3.7001968503937008
0
LINE
8
BLACK
6
CONTINUOUS
10
6.4631889763779524
20
-3.7001968503937008
11
6.7978346456692913
21
-3.7001968503937008
0
LINE
8
BLACK
6
CONTINUOUS
10
6.4641732283464561
20
-3.7021653543307087
11
6.4641732283464561
21
-4.0348425196850393
0
LINE
8
BLACK
6
CONTINUOUS
10
6.4641732283464561
20
-4.0348425196850393
11
6.7968503937007876
21
-4.0348425196850393
0
LINE
8
BLACK
6
CONTINUOUS
10
6.7968503937007876
20
-4.0348425196850393
11
6.7968503937007876
21
-3.7021653543307087
0
LINE
8
BLACK
6
CONTINUOUS
10
6.7968503937007876
20
-3.7021653543307087
11
6.4641732283464561
21
-3.7021653543307087
0
LINE
8
BLACK
6
CONTINUOUS
10
6.0455787401574801
20
-3.7790551181102363
11
6.0462747244094484
21
-3.7793433858267718
0
LINE
8
BLACK
6
CONTINUOUS
10
6.0462747244094484
20
-3.7793433858267718
11
6.0465629921259838
21
-3.78003937007874
0
LINE
8
BLACK
6
CONTINUOUS
10
6.0465629921259838
20
-3.78003937007874
11
6.0465629921259838
21
-3.8469685039370076
0
LINE
8
BLACK
6
CONTINUOUS
10
6.0465629921259838
20
-3.8469685039370076
11
6.0462747244094484
21
-3.8476644881889763
0
LINE
8
BLACK
6
CONTINUOUS
10
6.0462747244094484
20
-3.8476644881889763
11
6.0455787401574801
21
-3.8479527559055118
0
LINE
8
BLACK
6
CONTINUOUS
10
6.0455787401574801
20
-3.8479527559055118
11
5.9077834645669292
21
-3.8479527559055118
0
LINE
8
BLACK
6
CONTINUOUS
10
5.9077834645669292
20
-3.8479527559055118
11
5.9070874803149609
21
-3.8476644881889763
0
LINE
8
BLACK
6
CONTINUOUS
10
5.9070874803149609
20
-3.8476644881889763
11
5.9067992125984254
21
-3.8469685039370076
0
LINE
8
BLACK
6
CONTINUOUS
10
5.9067992125984254
20
-3.8469685039370076
11
5.9067992125984254
21
-3.78003937007874
0
LINE
8
BLACK
6
CONTINUOUS
10
5.9067992125984254
20
-3.78003937007874
11
5.9070874803149609
21
-3.7793433858267718
0
LINE
8
BLACK
6
CONTINUOUS
10
5.9070874803149609
20
-3.7793433858267718
11
5.9077834645669292
21
-3.7790551181102363
0
LINE
8
BLACK
6
CONTINUOUS
10
5.9077834645669292
20
-3.7790551181102363
11
6.0455787401574801
21
-3.7790551181102363
0
LINE
8
BLACK
6
CONTINUOUS
10
5.9087677165354329
20
-3.7810236220472442
11
5.9087677165354329
21
-3.8459842519685039
0
LINE
8
BLACK
6
CONTINUOUS
10
5.9087677165354329
20
-3.8459842519685039
11
6.0445944881889764
21
-3.8459842519685039
0
LINE
8
BLACK
6
CONTINUOUS
10
6.0445944881889764
20
-3.8459842519685039
11
6.0445944881889764
21
-3.7810236220472442
0
LINE
8
BLACK
6
CONTINUOUS
10
6.0445944881889764
20
-3.7810236220472442
11
5.9087677165354329
21
-3.7810236220472442
0
LINE
8
BLACK
6
CONTINUOUS
10
5.8935039370078739
20
-3.5874015748031494
11
5.8941999212598422
21
-3.5876898425196848
0
LINE
8
BLACK
6
CONTINUOUS
10
5.8941999212598422
20
-3.5876898425196848
11
5.8944881889763776
21
-3.5883858267716535
0
LINE
8
BLACK
6
CONTINUOUS
10
5.8944881889763776
20
-3.5883858267716535
11
5.8944881889763776
21
-3.6986220472440943
0
LINE
8
BLACK
6
CONTINUOUS
10
5.8944881889763776
20
-3.6986220472440943
11
5.8941999212598422
21
-3.699318031496063
0
LINE
8
BLACK
6
CONTINUOUS
10
5.8941999212598422
20
-3.699318031496063
11
5.8935039370078739
21
-3.6996062992125984
0
LINE
8
BLACK
6
CONTINUOUS
10
5.8935039370078739
20
-3.6996062992125984
11
5.7675196850393702
21
-3.6996062992125984
0
LINE
8
BLACK
6
CONTINUOUS
10
5.7675196850393702
20
-3.6996062992125984
11
5.766823700787401
21
-3.699318031496063
0
LINE
8
BLACK
6
CONTINUOUS
10
5.766823700787401
20
-3.699318031496063
11
5.7665354330708656
21
-3.6986220472440943
0
LINE
8
BLACK
6
CONTINUOUS
10
5.7665354330708656
20
-3.6986220472440943
11
5.7665354330708656
21
-3.5883858267716535
0
LINE
8
BLACK
6
CONTINUOUS
10
5.7665354330708656
20
-3.5883858267716535
11
5.766823700787401
21
-3.5876898425196848
0
LINE
8
BLACK
6
CONTINUOUS
10
5.766823700787401
20
-3.5876898425196848
11
5.7675196850393702
21
-3.5874015748031494
0
LINE
8
BLACK
6
CONTINUOUS
10
5.7675196850393702
20
-3.5874015748031494
11
5.8935039370078739
21
-3.5874015748031494
0
LINE
8
BLACK
6
CONTINUOUS
10
5.7685039370078739
20
-3.5893700787401572
11
5.7685039370078739
21
-3.6976377952755906
0
LINE
8
BLACK
6
CONTINUOUS
10
5.7685039370078739
20
-3.6976377952755906
11
5.8925196850393702
21
-3.6976377952755906
0
LINE
8
BLACK
6
CONTINUOUS
10
5.8925196850393702
20
-3.6976377952755906
11
5.8925196850393702
21
-3.5893700787401572
0
LINE
8
BLACK
6
CONTINUOUS
10
5.8925196850393702
20
-3.5893700787401572
11
5.7685039370078739
21
-3.5893700787401572
0
LINE
8
BLACK
6
CONTINUOUS
10
6.3685039370078735
20
-3.5874015748031494
11
6.3691999212598427
21
-3.5876898425196848
0
LINE
8
BLACK
6
CONTINUOUS
10
6.3691999212598427
20
-3.5876898425196848
11
6.3694881889763781
21
-3.5883858267716535
0
LINE
8
BLACK
6
CONTINUOUS
10
6.3694881889763781
20
-3.5883858267716535
11
6.3694881889763781
21
-3.6986220472440943
0
LINE
8
BLACK
6
CONTINUOUS
10
6.3694881889763781
20
-3.6986220472440943
11
6.3691999212598427
21
-3.699318031496063
0
LINE
8
BLACK
6
CONTINUOUS
10
6.3691999212598427
20
-3.699318031496063
11
6.3685039370078735
21
-3.6996062992125984
0
LINE
8
BLACK
6
CONTINUOUS
10
6.3685039370078735
20
-3.6996062992125984
11
6.2425196850393698
21
-3.6996062992125984
0
LINE
8
BLACK
6
CONTINUOUS
10
6.2425196850393698
20
-3.6996062992125984
11
6.2418237007874016
21
-3.699318031496063
0
LINE
8
BLACK
6
CONTINUOUS
10
6.2418237007874016
20
-3.699318031496063
11
6.2415354330708661
21
-3.6986220472440943
0
LINE
8
BLACK
6
CONTINUOUS
10
6.2415354330708661
20
-3.6986220472440943
11
6.2415354330708661
21
-3.5883858267716535
0
LINE
8
BLACK
6
CONTINUOUS
10
6.2415354330708661
20
-3.5883858267716535
11
6.2418237007874016
21
-3.5876898425196848
0
LINE
8
BLACK
6
CONTINUOUS
10
6.2418237007874016
20
-3.5876898425196848
11
6.2425196850393698
21
-3.5874015748031494
0
LINE
8
BLACK
6
CONTINUOUS
10
6.2425196850393698
20
-3.5874015748031494
11
6.3685039370078735
21
-3.5874015748031494
0
LINE
8
BLACK
6
CONTINUOUS
10
6.2435039370078735
20
-3.5893700787401572
11
6.2435039370078735
21
-3.6976377952755906
0
LINE
8
BLACK
6
CONTINUOUS
10
6.2435039370078735
20
-3.6976377952755906
11
6.3675196850393698
21
-3.6976377952755906
0
LINE
8
BLACK
6
CONTINUOUS
10
6.3675196850393698
20
-3.6976377952755906
11
6.3675196850393698
21
-3.5893700787401572
0
LINE
8
BLACK
6
CONTINUOUS
10
6.3675196850393698
20
-3.5893700787401572
11
6.2435039370078735
21
-3.5893700787401572
0
LINE
8
BLACK
6
CONTINUOUS
10
5.6978346456692908
20
-3.2501968503937007
11
5.6985306299212599
21
-3.2504851181102361
0
LINE
8
BLACK
6
CONTINUOUS
10
5.6985306299212599
20
-3.2504851181102361
11
5.6988188976377954
21
-3.2511811023622048
0
LINE
8
BLACK
6
CONTINUOUS
10
5.6988188976377954
20
-3.2511811023622048
11
5.6988188976377954
21
-3.5858267716535432
0
LINE
8
BLACK
6
CONTINUOUS
10
5.6988188976377954
20
-3.5858267716535432
11
5.6985306299212599
21
-3.5865227559055119
0
LINE
8
BLACK
6
CONTINUOUS
10
5.6985306299212599
20
-3.5865227559055119
11
5.6978346456692908
21
-3.586811023622047
0
LINE
8
BLACK
6
CONTINUOUS
10
5.6978346456692908
20
-3.586811023622047
11
5.3631889763779528
21
-3.586811023622047
0
LINE
8
BLACK
6
CONTINUOUS
10
5.3631889763779528
20
-3.586811023622047
11
5.3624929921259845
21
-3.5865227559055119
0
LINE
8
BLACK
6
CONTINUOUS
10
5.3624929921259845
20
-3.5865227559055119
11
5.3622047244094491
21
-3.5858267716535432
0
LINE
8
BLACK
6
CONTINUOUS
10
5.3622047244094491
20
-3.5858267716535432
11
5.3622047244094491
21
-3.2511811023622048
0
LINE
8
BLACK
6
CONTINUOUS
10
5.3622047244094491
20
-3.2511811023622048
11
5.3624929921259845
21
-3.2504851181102361
0
LINE
8
BLACK
6
CONTINUOUS
10
5.3624929921259845
20
-3.2504851181102361
11
5.3631889763779528
21
-3.2501968503937007
0
LINE
8
BLACK
6
CONTINUOUS
10
5.3631889763779528
20
-3.2501968503937007
11
5.6978346456692908
21
-3.2501968503937007
0
LINE
8
BLACK
6
CONTINUOUS
10
5.3641732283464565
20
-3.2521653543307085
11
5.3641732283464565
21
-3.5848425196850391
0
LINE
8
BLACK
6
CONTINUOUS
10
5.3641732283464565
20
-3.5848425196850391
11
5.6968503937007871
21
-3.5848425196850391
0
LINE
8
BLACK
6
CONTINUOUS
10
5.6968503937007871
20
-3.5848425196850391
11
5.6968503937007871
21
-3.2521653543307085
0
LINE
8
BLACK
6
CONTINUOUS
10
5.6968503937007871
20
-3.2521653543307085
11
5.3641732283464565
21
-3.2521653543307085
0
LINE
8
BLACK
6
CONTINUOUS
10
6.7978346456692913
20
-3.2501968503937007
11
6.7985306299212596
21
-3.2504851181102361
0
LINE
8
BLACK
6
CONTINUOUS
10
6.7985306299212596
20
-3.2504851181102361
11
6.798818897637795
21
-3.2511811023622048
0
LINE
8
BLACK
6
CONTINUOUS
10
6.798818897637795
20
-3.2511811023622048
11
6.798818897637795
21
-3.5858267716535432
0
LINE
8
BLACK
6
CONTINUOUS
10
6.798818897637795
20
-3.5858267716535432
11
6.7985306299212596
21
-3.5865227559055119
0
LINE
8
BLACK
6
CONTINUOUS
10
6.7985306299212596
20
-3.5865227559055119
11
6.7978346456692913
21
-3.586811023622047
0
LINE
8
BLACK
6
CONTINUOUS
10
6.7978346456692913
20
-3.586811023622047
11
6.4631889763779524
21
-3.586811023622047
0
LINE
8
BLACK
6
CONTINUOUS
10
6.4631889763779524
20
-3.586811023622047
11
6.4624929921259842
21
-3.5865227559055119
0
LINE
8
BLACK
6
CONTINUOUS
10
6.4624929921259842
20
-3.5865227559055119
11
6.4622047244094487
21
-3.5858267716535432
0
LINE
8
BLACK
6
CONTINUOUS
10
6.4622047244094487
20
-3.5858267716535432
11
6.4622047244094487
21
-3.2511811023622048
0
LINE
8
BLACK
6
CONTINUOUS
10
6.4622047244094487
20
-3.2511811023622048
11
6.4624929921259842
21
-3.2504851181102361
0
LINE
8
BLACK
6
CONTINUOUS
10
6.4624929921259842
20
-3.2504851181102361
11
6.4631889763779524
21
-3.2501968503937007
0
LINE
8
BLACK
6
CONTINUOUS
10
6.4631889763779524
20
-3.2501968503937007
11
6.7978346456692913
21
-3.2501968503937007
0
LINE
8
BLACK
6
CONTINUOUS
10
6.4641732283464561
20
-3.2521653543307085
11
6.4641732283464561
21
-3.5848425196850391
0
LINE
8
BLACK
6
CONTINUOUS
10
6.4641732283464561
20
-3.5848425196850391
11
6.7968503937007876
21
-3.5848425196850391
0
LINE
8
BLACK
6
CONTINUOUS
10
6.7968503937007876
20
-3.5848425196850391
11
6.7968503937007876
21
-3.2521653543307085
0
LINE
8
BLACK
6
CONTINUOUS
10
6.7968503937007876
20
-3.2521653543307085
11
6.4641732283464561
21
-3.2521653543307085
0
LINE
8
BLACK
6
CONTINUOUS
10
6.1638188976377952
20
-3.2392913385826771
11
6.1645148818897635
21
-3.2395796062992126
0
LINE
8
BLACK
6
CONTINUOUS
10
6.1645148818897635
20
-3.2395796062992126
11
6.1648031496062989
21
-3.2402755905511809
0
LINE
8
BLACK
6
CONTINUOUS
10
6.1648031496062989
20
-3.2402755905511809
11
6.1648031496062989
21
-3.4489370078740156
0
LINE
8
BLACK
6
CONTINUOUS
10
6.1648031496062989
20
-3.4489370078740156
11
6.1645148818897635
21
-3.4496329921259843
0
LINE
8
BLACK
6
CONTINUOUS
10
6.1645148818897635
20
-3.4496329921259843
11
6.1638188976377952
21
-3.4499212598425197
0
LINE
8
BLACK
6
CONTINUOUS
10
6.1638188976377952
20
-3.4499212598425197
11
6.0772047244094489
21
-3.4499212598425197
0
LINE
8
BLACK
6
CONTINUOUS
10
6.0772047244094489
20
-3.4499212598425197
11
6.0765087401574798
21
-3.4496329921259843
0
LINE
8
BLACK
6
CONTINUOUS
10
6.0765087401574798
20
-3.4496329921259843
11
6.0762204724409443
21
-3.4489370078740156
0
LINE
8
BLACK
6
CONTINUOUS
10
6.0762204724409443
20
-3.4489370078740156
11
6.0762204724409443
21
-3.2402755905511809
0
LINE
8
BLACK
6
CONTINUOUS
10
6.0762204724409443
20
-3.2402755905511809
11
6.0765087401574798
21
-3.2395796062992126
0
LINE
8
BLACK
6
CONTINUOUS
10
6.0765087401574798
20
-3.2395796062992126
11
6.0772047244094489
21
-3.2392913385826771
0
LINE
8
BLACK
6
CONTINUOUS
10
6.0772047244094489
20
-3.2392913385826771
11
6.1638188976377952
21
-3.2392913385826771
0
LINE
8
BLACK
6
CONTINUOUS
10
6.0781889763779526
20
-3.241259842519685
11
6.0781889763779526
21
-3.4479527559055119
0
LINE
8
BLACK
6
CONTINUOUS
10
6.0781889763779526
20
-3.4479527559055119
11
6.1628346456692915
21
-3.4479527559055119
0
LINE
8
BLACK
6
CONTINUOUS
10
6.1628346456692915
20
-3.4479527559055119
11
6.1628346456692915
21
-3.241259842519685
0
LINE
8
BLACK
6
CONTINUOUS
10
6.1628346456692915
20
-3.241259842519685
11
6.0781889763779526
21
-3.241259842519685
0
LINE
8
BLACK
6
CONTINUOUS
10
6.2980826377952752
20
-3.2386568897637793
11
6.2987786220472444
21
-3.2389451574803148
0
LINE
8
BLACK
6
CONTINUOUS
10
6.2987786220472444
20
-3.2389451574803148
11
6.2990668897637798
21
-3.2396411417322835
0
LINE
8
BLACK
6
CONTINUOUS
10
6.2990668897637798
20
-3.2396411417322835
11
6.2990668897637798
21
-3.4483025590551182
0
LINE
8
BLACK
6
CONTINUOUS
10
6.2990668897637798
20
-3.4483025590551182
11
6.2987786220472444
21
-3.4489985433070864
0
LINE
8
BLACK
6
CONTINUOUS
10
6.2987786220472444
20
-3.4489985433070864
11
6.2980826377952752
21
-3.4492868110236219
0
LINE
8
BLACK
6
CONTINUOUS
10
6.2980826377952752
20
-3.4492868110236219
11
6.2114684645669289
21
-3.4492868110236219
0
LINE
8
BLACK
6
CONTINUOUS
10
6.2114684645669289
20
-3.4492868110236219
11
6.2107724803149607
21
-3.4489985433070864
0
LINE
8
BLACK
6
CONTINUOUS
10
6.2107724803149607
20
-3.4489985433070864
11
6.2104842125984252
21
-3.4483025590551182
0
LINE
8
BLACK
6
CONTINUOUS
10
6.2104842125984252
20
-3.4483025590551182
11
6.2104842125984252
21
-3.2396411417322835
0
LINE
8
BLACK
6
CONTINUOUS
10
6.2104842125984252
20
-3.2396411417322835
11
6.2107724803149607
21
-3.2389451574803148
0
LINE
8
BLACK
6
CONTINUOUS
10
6.2107724803149607
20
-3.2389451574803148
11
6.2114684645669289
21
-3.2386568897637793
0
LINE
8
BLACK
6
CONTINUOUS
10
6.2114684645669289
20
-3.2386568897637793
11
6.2980826377952752
21
-3.2386568897637793
0
LINE
8
BLACK
6
CONTINUOUS
10
6.2124527165354326
20
-3.2406253937007872
11
6.2124527165354326
21
-3.447318307086614
0
LINE
8
BLACK
6
CONTINUOUS
10
6.2124527165354326
20
-3.447318307086614
11
6.2970983858267715
21
-3.447318307086614
0
LINE
8
BLACK
6
CONTINUOUS
10
6.2970983858267715
20
-3.447318307086614
11
6.2970983858267715
21
-3.2406253937007872
0
LINE
8
BLACK
6
CONTINUOUS
10
6.2970983858267715
20
-3.2406253937007872
11
6.2124527165354326
21
-3.2406253937007872
0
LINE
8
BLACK
6
CONTINUOUS
10
5.9828070866141729
20
-3.1577036614173228
11
5.9835030708661412
21
-3.1579919291338583
0
LINE
8
BLACK
6
CONTINUOUS
10
5.9835030708661412
20
-3.1579919291338583
11
5.9837913385826766
21
-3.1586879133858266
0
LINE
8
BLACK
6
CONTINUOUS
10
5.9837913385826766
20
-3.1586879133858266
11
5.9837913385826766
21
-3.2964831889763779
0
LINE
8
BLACK
6
CONTINUOUS
10
5.9837913385826766
20
-3.2964831889763779
11
5.9835030708661412
21
-3.2971791732283462
0
LINE
8
BLACK
6
CONTINUOUS
10
5.9835030708661412
20
-3.2971791732283462
11
5.9828070866141729
21
-3.2974674409448816
0
LINE
8
BLACK
6
CONTINUOUS
10
5.9828070866141729
20
-3.2974674409448816
11
5.7072165354330711
21
-3.2974674409448816
0
LINE
8
BLACK
6
CONTINUOUS
10
5.7072165354330711
20
-3.2974674409448816
11
5.7065205511811019
21
-3.2971791732283462
0
LINE
8
BLACK
6
CONTINUOUS
10
5.7065205511811019
20
-3.2971791732283462
11
5.7062322834645665
21
-3.2964831889763779
0
LINE
8
BLACK
6
CONTINUOUS
10
5.7062322834645665
20
-3.2964831889763779
11
5.7062322834645665
21
-3.1586879133858266
0
LINE
8
BLACK
6
CONTINUOUS
10
5.7062322834645665
20
-3.1586879133858266
11
5.7065205511811019
21
-3.1579919291338583
0
LINE
8
BLACK
6
CONTINUOUS
10
5.7065205511811019
20
-3.1579919291338583
11
5.7072165354330711
21
-3.1577036614173228
0
LINE
8
BLACK
6
CONTINUOUS
10
5.7072165354330711
20
-3.1577036614173228
11
5.9828070866141729
21
-3.1577036614173228
0
LINE
8
BLACK
6
CONTINUOUS
10
5.7082007874015748
20
-3.1596721653543307
11
5.7082007874015748
21
-3.2954989370078738
0
LINE
8
BLACK
6
CONTINUOUS
10
5.7082007874015748
20
-3.2954989370078738
11
5.9818228346456692
21
-3.2954989370078738
0
LINE
8
BLACK
6
CONTINUOUS
10
5.9818228346456692
20
-3.2954989370078738
11
5.9818228346456692
21
-3.1596721653543307
0
LINE
8
BLACK
6
CONTINUOUS
10
5.9818228346456692
20
-3.1596721653543307
11
5.7082007874015748
21
-3.1596721653543307
  0
ENDSEC
  0
EOF
