  0
SECTION
  2
HEADER
  9
$ANGBASE
  50
0.0
  9
$ANGDIR
  70
1
  9
$MEASUREMENT
  70
0
  0
ENDSEC
  0
SECTION
  2
TABLES
  0
TABLE
  2
LTYPE
  70
4
  0
LTYPE
  5
40F
  2
CONTINUOUS
  70
0
  3
Solid line
  72
65
  73
0
  40
0.0
  0
LTYPE
  5
410
  2
DASHDOT
 70
0
  3
Dash Dot ____ _ ____ _
 72
65
 73
4
 40
2.0
 49
1.25
 49
-0.25
 49
0.25
 49
-0.25
  0
LTYPE
  5
411
  2
DASHED
 70
0
  3
Dashed __ __ __ __ __
 72
65
 73
2
 40
0.75
 49
0.5
 49
-0.25
  0
LTYPE
  5
43B
  2
DOTTED
 70
0
  3
Dotted .  .  .  .
 72
65
 73
2
 40
0.2
 49
0.0
 49
-0.2
  0
ENDTAB
  0
TABLE
  2
STYLE
  70
4
  0
STYLE
  2
KICAD
  70
0
  40
0
  41
1
  42
1
  50
0
  71
0
  3
isocp.shx
  0
STYLE
  2
KICADB
  70
0
  40
0
  41
1
  42
1
  50
0
  71
0
  3
isocp.shx
  0
STYLE
  2
KICADI
  70
0
  40
0
  41
1
  42
1
  50
15
  71
0
  3
isocp.shx
  0
STYLE
  2
KICADBI
  70
0
  40
0
  41
1
  42
1
  50
15
  71
0
  3
isocp.shx
  0
ENDTAB
  0
TABLE
  2
LAYER
  70
1
  0
LAYER
  2
BLACK
  70
0
  62
7
  6
CONTINUOUS
  0
ENDTAB
  0
ENDSEC
  0
SECTION
  2
ENTITIES
0
LINE
8
BLACK
6
CONTINUOUS
10
6.8712651181102364
20
-2.8516852755905511
11
6.8723304724409449
21
-2.8527506299212599
0
LINE
8
BLACK
6
CONTINUOUS
10
6.8723304724409449
20
-2.8527506299212599
11
6.8724803149606295
21
-4.4335039370078739
0
LINE
8
BLACK
6
CONTINUOUS
10
6.8724803149606295
20
-4.4335039370078739
11
6.8723304724409449
21
-4.4342572440944883
0
LINE
8
BLACK
6
CONTINUOUS
10
6.8723304724409449
20
-4.4342572440944883
11
6.8712651181102364
21
-4.4353225984251967
0
LINE
8
BLACK
6
CONTINUOUS
10
6.8712651181102364
20
-4.4353225984251967
11
5.290511811023622
21
-4.4354724409448814
0
LINE
8
BLACK
6
CONTINUOUS
10
5.290511811023622
20
-4.4354724409448814
11
5.2897585039370076
21
-4.4353225984251967
0
LINE
8
BLACK
6
CONTINUOUS
10
5.2897585039370076
20
-4.4353225984251967
11
5.2886931496062992
21
-4.4342572440944883
0
LINE
8
BLACK
6
CONTINUOUS
10
5.2886931496062992
20
-4.4342572440944883
11
5.2885433070866137
21
-2.8535039370078739
0
LINE
8
BLACK
6
CONTINUOUS
10
5.2885433070866137
20
-2.8535039370078739
11
5.2886931496062992
21
-2.8527506299212599
0
LINE
8
BLACK
6
CONTINUOUS
10
5.2886931496062992
20
-2.8527506299212599
11
5.2897585039370076
21
-2.8516852755905511
0
LINE
8
BLACK
6
CONTINUOUS
10
5.2897585039370076
20
-2.8516852755905511
11
6.8705118110236221
21
-2.851535433070866
0
LINE
8
BLACK
6
CONTINUOUS
10
6.8705118110236221
20
-2.851535433070866
11
6.8712651181102364
21
-2.8516852755905511
0
LINE
8
BLACK
6
CONTINUOUS
10
5.2923307086614173
20
-2.855472244094488
11
5.2924801181102357
21
-4.4316849999999999
0
LINE
8
BLACK
6
CONTINUOUS
10
5.2924801181102357
20
-4.4316849999999999
11
6.868692874015748
21
-4.4315355905511806
0
LINE
8
BLACK
6
CONTINUOUS
10
6.868692874015748
20
-4.4315355905511806
11
6.8685434645669288
21
-2.8553228346456692
0
LINE
8
BLACK
6
CONTINUOUS
10
6.8685434645669288
20
-2.8553228346456692
11
5.2923307086614173
21
-2.855472244094488
  0
ENDSEC
  0
EOF
