  0
SECTION
  2
HEADER
  9
$ANGBASE
  50
0.0
  9
$ANGDIR
  70
1
  9
$MEASUREMENT
  70
0
  0
ENDSEC
  0
SECTION
  2
TABLES
  0
TABLE
  2
LTYPE
  70
4
  0
LTYPE
  5
40F
  2
CONTINUOUS
  70
0
  3
Solid line
  72
65
  73
0
  40
0.0
  0
LTYPE
  5
410
  2
DASHDOT
 70
0
  3
Dash Dot ____ _ ____ _
 72
65
 73
4
 40
2.0
 49
1.25
 49
-0.25
 49
0.25
 49
-0.25
  0
LTYPE
  5
411
  2
DASHED
 70
0
  3
Dashed __ __ __ __ __
 72
65
 73
2
 40
0.75
 49
0.5
 49
-0.25
  0
LTYPE
  5
43B
  2
DOTTED
 70
0
  3
Dotted .  .  .  .
 72
65
 73
2
 40
0.2
 49
0.0
 49
-0.2
  0
ENDTAB
  0
TABLE
  2
STYLE
  70
4
  0
STYLE
  2
KICAD
  70
0
  40
0
  41
1
  42
1
  50
0
  71
0
  3
isocp.shx
  0
STYLE
  2
KICADB
  70
0
  40
0
  41
1
  42
1
  50
0
  71
0
  3
isocp.shx
  0
STYLE
  2
KICADI
  70
0
  40
0
  41
1
  42
1
  50
15
  71
0
  3
isocp.shx
  0
STYLE
  2
KICADBI
  70
0
  40
0
  41
1
  42
1
  50
15
  71
0
  3
isocp.shx
  0
ENDTAB
  0
TABLE
  2
LAYER
  70
1
  0
LAYER
  2
BLACK
  70
0
  62
7
  6
CONTINUOUS
  0
ENDTAB
  0
ENDSEC
  0
SECTION
  2
ENTITIES
0
LINE
8
BLACK
6
CONTINUOUS
10
6.30301
20
-4.371
11
6.26801
21
-4.371
0
LINE
8
BLACK
6
CONTINUOUS
10
6.26801
20
-4.371
11
6.26801
21
-4.316
0
LINE
8
BLACK
6
CONTINUOUS
10
6.26801
20
-4.316
11
6.30301
21
-4.316
0
LINE
8
BLACK
6
CONTINUOUS
10
6.30301
20
-4.316
11
6.30301
21
-4.371
0
LINE
8
BLACK
6
CONTINUOUS
10
6.37801
20
-4.371
11
6.34301
21
-4.371
0
LINE
8
BLACK
6
CONTINUOUS
10
6.34301
20
-4.371
11
6.34301
21
-4.316
0
LINE
8
BLACK
6
CONTINUOUS
10
6.34301
20
-4.316
11
6.37801
21
-4.316
0
LINE
8
BLACK
6
CONTINUOUS
10
6.37801
20
-4.316
11
6.37801
21
-4.371
0
LINE
8
BLACK
6
CONTINUOUS
10
5.50102
20
-4.12719
11
5.51439
21
-4.13036
0
LINE
8
BLACK
6
CONTINUOUS
10
5.51439
20
-4.13036
11
5.52729
21
-4.13505
0
LINE
8
BLACK
6
CONTINUOUS
10
5.52729
20
-4.13505
11
5.53957
21
-4.14122
0
LINE
8
BLACK
6
CONTINUOUS
10
5.53957
20
-4.14122
11
5.55104
21
-4.14876
0
LINE
8
BLACK
6
CONTINUOUS
10
5.55104
20
-4.14876
11
5.56156
21
-4.15759
0
LINE
8
BLACK
6
CONTINUOUS
10
5.56156
20
-4.15759
11
5.57099
21
-4.16758
0
LINE
8
BLACK
6
CONTINUOUS
10
5.57099
20
-4.16758
11
5.57919
21
-4.1786
0
LINE
8
BLACK
6
CONTINUOUS
10
5.57919
20
-4.1786
11
5.58606
21
-4.1905
0
LINE
8
BLACK
6
CONTINUOUS
10
5.58606
20
-4.1905
11
5.5915
21
-4.20311
0
LINE
8
BLACK
6
CONTINUOUS
10
5.5915
20
-4.20311
11
5.59544
21
-4.21627
0
LINE
8
BLACK
6
CONTINUOUS
10
5.59544
20
-4.21627
11
5.59782
21
-4.22979
0
LINE
8
BLACK
6
CONTINUOUS
10
5.59782
20
-4.22979
11
5.59862
21
-4.2435
0
LINE
8
BLACK
6
CONTINUOUS
10
5.59862
20
-4.2435
11
5.59782
21
-4.25722
0
LINE
8
BLACK
6
CONTINUOUS
10
5.59782
20
-4.25722
11
5.59544
21
-4.27074
0
LINE
8
BLACK
6
CONTINUOUS
10
5.59544
20
-4.27074
11
5.5915
21
-4.2839
0
LINE
8
BLACK
6
CONTINUOUS
10
5.5915
20
-4.2839
11
5.58606
21
-4.29651
0
LINE
8
BLACK
6
CONTINUOUS
10
5.58606
20
-4.29651
11
5.57919
21
-4.30841
0
LINE
8
BLACK
6
CONTINUOUS
10
5.57919
20
-4.30841
11
5.57099
21
-4.31942
0
LINE
8
BLACK
6
CONTINUOUS
10
5.57099
20
-4.31942
11
5.56156
21
-4.32941
0
LINE
8
BLACK
6
CONTINUOUS
10
5.56156
20
-4.32941
11
5.55104
21
-4.33824
0
LINE
8
BLACK
6
CONTINUOUS
10
5.55104
20
-4.33824
11
5.53957
21
-4.34579
0
LINE
8
BLACK
6
CONTINUOUS
10
5.53957
20
-4.34579
11
5.52729
21
-4.35195
0
LINE
8
BLACK
6
CONTINUOUS
10
5.52729
20
-4.35195
11
5.51439
21
-4.35665
0
LINE
8
BLACK
6
CONTINUOUS
10
5.51439
20
-4.35665
11
5.50102
21
-4.35982
0
LINE
8
BLACK
6
CONTINUOUS
10
5.50102
20
-4.35982
11
5.48738
21
-4.36141
0
LINE
8
BLACK
6
CONTINUOUS
10
5.48738
20
-4.36141
11
5.47364
21
-4.36141
0
LINE
8
BLACK
6
CONTINUOUS
10
5.47364
20
-4.36141
11
5.46
21
-4.35982
0
LINE
8
BLACK
6
CONTINUOUS
10
5.46
20
-4.35982
11
5.44664
21
-4.35665
0
LINE
8
BLACK
6
CONTINUOUS
10
5.44664
20
-4.35665
11
5.43373
21
-4.35195
0
LINE
8
BLACK
6
CONTINUOUS
10
5.43373
20
-4.35195
11
5.42146
21
-4.34579
0
LINE
8
BLACK
6
CONTINUOUS
10
5.42146
20
-4.34579
11
5.40998
21
-4.33824
0
LINE
8
BLACK
6
CONTINUOUS
10
5.40998
20
-4.33824
11
5.39946
21
-4.32941
0
LINE
8
BLACK
6
CONTINUOUS
10
5.39946
20
-4.32941
11
5.39003
21
-4.31942
0
LINE
8
BLACK
6
CONTINUOUS
10
5.39003
20
-4.31942
11
5.38183
21
-4.30841
0
LINE
8
BLACK
6
CONTINUOUS
10
5.38183
20
-4.30841
11
5.37496
21
-4.29651
0
LINE
8
BLACK
6
CONTINUOUS
10
5.37496
20
-4.29651
11
5.36952
21
-4.2839
0
LINE
8
BLACK
6
CONTINUOUS
10
5.36952
20
-4.2839
11
5.36559
21
-4.27074
0
LINE
8
BLACK
6
CONTINUOUS
10
5.36559
20
-4.27074
11
5.3632
21
-4.25722
0
LINE
8
BLACK
6
CONTINUOUS
10
5.3632
20
-4.25722
11
5.3624
21
-4.2435
0
LINE
8
BLACK
6
CONTINUOUS
10
5.3624
20
-4.2435
11
5.3632
21
-4.22979
0
LINE
8
BLACK
6
CONTINUOUS
10
5.3632
20
-4.22979
11
5.36559
21
-4.21627
0
LINE
8
BLACK
6
CONTINUOUS
10
5.36559
20
-4.21627
11
5.36952
21
-4.20311
0
LINE
8
BLACK
6
CONTINUOUS
10
5.36952
20
-4.20311
11
5.37496
21
-4.1905
0
LINE
8
BLACK
6
CONTINUOUS
10
5.37496
20
-4.1905
11
5.38183
21
-4.1786
0
LINE
8
BLACK
6
CONTINUOUS
10
5.38183
20
-4.1786
11
5.39003
21
-4.16758
0
LINE
8
BLACK
6
CONTINUOUS
10
5.39003
20
-4.16758
11
5.39946
21
-4.15759
0
LINE
8
BLACK
6
CONTINUOUS
10
5.39946
20
-4.15759
11
5.40998
21
-4.14876
0
LINE
8
BLACK
6
CONTINUOUS
10
5.40998
20
-4.14876
11
5.42146
21
-4.14122
0
LINE
8
BLACK
6
CONTINUOUS
10
5.42146
20
-4.14122
11
5.43373
21
-4.13505
0
LINE
8
BLACK
6
CONTINUOUS
10
5.43373
20
-4.13505
11
5.44664
21
-4.13036
0
LINE
8
BLACK
6
CONTINUOUS
10
5.44664
20
-4.13036
11
5.46
21
-4.12719
0
LINE
8
BLACK
6
CONTINUOUS
10
5.46
20
-4.12719
11
5.47364
21
-4.12559
0
LINE
8
BLACK
6
CONTINUOUS
10
5.47364
20
-4.12559
11
5.48738
21
-4.12559
0
LINE
8
BLACK
6
CONTINUOUS
10
5.48738
20
-4.12559
11
5.50102
21
-4.12719
0
LINE
8
BLACK
6
CONTINUOUS
10
6.70102
20
-4.12719
11
6.71439
21
-4.13036
0
LINE
8
BLACK
6
CONTINUOUS
10
6.71439
20
-4.13036
11
6.72729
21
-4.13505
0
LINE
8
BLACK
6
CONTINUOUS
10
6.72729
20
-4.13505
11
6.73957
21
-4.14122
0
LINE
8
BLACK
6
CONTINUOUS
10
6.73957
20
-4.14122
11
6.75104
21
-4.14876
0
LINE
8
BLACK
6
CONTINUOUS
10
6.75104
20
-4.14876
11
6.76156
21
-4.15759
0
LINE
8
BLACK
6
CONTINUOUS
10
6.76156
20
-4.15759
11
6.77099
21
-4.16758
0
LINE
8
BLACK
6
CONTINUOUS
10
6.77099
20
-4.16758
11
6.77919
21
-4.1786
0
LINE
8
BLACK
6
CONTINUOUS
10
6.77919
20
-4.1786
11
6.78606
21
-4.1905
0
LINE
8
BLACK
6
CONTINUOUS
10
6.78606
20
-4.1905
11
6.7915
21
-4.20311
0
LINE
8
BLACK
6
CONTINUOUS
10
6.7915
20
-4.20311
11
6.79544
21
-4.21627
0
LINE
8
BLACK
6
CONTINUOUS
10
6.79544
20
-4.21627
11
6.79782
21
-4.22979
0
LINE
8
BLACK
6
CONTINUOUS
10
6.79782
20
-4.22979
11
6.79862
21
-4.2435
0
LINE
8
BLACK
6
CONTINUOUS
10
6.79862
20
-4.2435
11
6.79782
21
-4.25722
0
LINE
8
BLACK
6
CONTINUOUS
10
6.79782
20
-4.25722
11
6.79544
21
-4.27074
0
LINE
8
BLACK
6
CONTINUOUS
10
6.79544
20
-4.27074
11
6.7915
21
-4.2839
0
LINE
8
BLACK
6
CONTINUOUS
10
6.7915
20
-4.2839
11
6.78606
21
-4.29651
0
LINE
8
BLACK
6
CONTINUOUS
10
6.78606
20
-4.29651
11
6.77919
21
-4.30841
0
LINE
8
BLACK
6
CONTINUOUS
10
6.77919
20
-4.30841
11
6.77099
21
-4.31942
0
LINE
8
BLACK
6
CONTINUOUS
10
6.77099
20
-4.31942
11
6.76156
21
-4.32941
0
LINE
8
BLACK
6
CONTINUOUS
10
6.76156
20
-4.32941
11
6.75104
21
-4.33824
0
LINE
8
BLACK
6
CONTINUOUS
10
6.75104
20
-4.33824
11
6.73957
21
-4.34579
0
LINE
8
BLACK
6
CONTINUOUS
10
6.73957
20
-4.34579
11
6.72729
21
-4.35195
0
LINE
8
BLACK
6
CONTINUOUS
10
6.72729
20
-4.35195
11
6.71439
21
-4.35665
0
LINE
8
BLACK
6
CONTINUOUS
10
6.71439
20
-4.35665
11
6.70102
21
-4.35982
0
LINE
8
BLACK
6
CONTINUOUS
10
6.70102
20
-4.35982
11
6.68738
21
-4.36141
0
LINE
8
BLACK
6
CONTINUOUS
10
6.68738
20
-4.36141
11
6.67364
21
-4.36141
0
LINE
8
BLACK
6
CONTINUOUS
10
6.67364
20
-4.36141
11
6.66
21
-4.35982
0
LINE
8
BLACK
6
CONTINUOUS
10
6.66
20
-4.35982
11
6.64664
21
-4.35665
0
LINE
8
BLACK
6
CONTINUOUS
10
6.64664
20
-4.35665
11
6.63373
21
-4.35195
0
LINE
8
BLACK
6
CONTINUOUS
10
6.63373
20
-4.35195
11
6.62146
21
-4.34579
0
LINE
8
BLACK
6
CONTINUOUS
10
6.62146
20
-4.34579
11
6.60998
21
-4.33824
0
LINE
8
BLACK
6
CONTINUOUS
10
6.60998
20
-4.33824
11
6.59946
21
-4.32941
0
LINE
8
BLACK
6
CONTINUOUS
10
6.59946
20
-4.32941
11
6.59003
21
-4.31942
0
LINE
8
BLACK
6
CONTINUOUS
10
6.59003
20
-4.31942
11
6.58183
21
-4.30841
0
LINE
8
BLACK
6
CONTINUOUS
10
6.58183
20
-4.30841
11
6.57496
21
-4.29651
0
LINE
8
BLACK
6
CONTINUOUS
10
6.57496
20
-4.29651
11
6.56952
21
-4.2839
0
LINE
8
BLACK
6
CONTINUOUS
10
6.56952
20
-4.2839
11
6.56559
21
-4.27074
0
LINE
8
BLACK
6
CONTINUOUS
10
6.56559
20
-4.27074
11
6.5632
21
-4.25722
0
LINE
8
BLACK
6
CONTINUOUS
10
6.5632
20
-4.25722
11
6.5624
21
-4.2435
0
LINE
8
BLACK
6
CONTINUOUS
10
6.5624
20
-4.2435
11
6.5632
21
-4.22979
0
LINE
8
BLACK
6
CONTINUOUS
10
6.5632
20
-4.22979
11
6.56559
21
-4.21627
0
LINE
8
BLACK
6
CONTINUOUS
10
6.56559
20
-4.21627
11
6.56952
21
-4.20311
0
LINE
8
BLACK
6
CONTINUOUS
10
6.56952
20
-4.20311
11
6.57496
21
-4.1905
0
LINE
8
BLACK
6
CONTINUOUS
10
6.57496
20
-4.1905
11
6.58183
21
-4.1786
0
LINE
8
BLACK
6
CONTINUOUS
10
6.58183
20
-4.1786
11
6.59003
21
-4.16758
0
LINE
8
BLACK
6
CONTINUOUS
10
6.59003
20
-4.16758
11
6.59946
21
-4.15759
0
LINE
8
BLACK
6
CONTINUOUS
10
6.59946
20
-4.15759
11
6.60998
21
-4.14876
0
LINE
8
BLACK
6
CONTINUOUS
10
6.60998
20
-4.14876
11
6.62146
21
-4.14122
0
LINE
8
BLACK
6
CONTINUOUS
10
6.62146
20
-4.14122
11
6.63373
21
-4.13505
0
LINE
8
BLACK
6
CONTINUOUS
10
6.63373
20
-4.13505
11
6.64664
21
-4.13036
0
LINE
8
BLACK
6
CONTINUOUS
10
6.64664
20
-4.13036
11
6.66
21
-4.12719
0
LINE
8
BLACK
6
CONTINUOUS
10
6.66
20
-4.12719
11
6.67364
21
-4.12559
0
LINE
8
BLACK
6
CONTINUOUS
10
6.67364
20
-4.12559
11
6.68738
21
-4.12559
0
LINE
8
BLACK
6
CONTINUOUS
10
6.68738
20
-4.12559
11
6.70102
21
-4.12719
0
LINE
8
BLACK
6
CONTINUOUS
10
5.8708
20
-4.343
11
5.8358
21
-4.343
0
LINE
8
BLACK
6
CONTINUOUS
10
5.8358
20
-4.343
11
5.8358
21
-4.288
0
LINE
8
BLACK
6
CONTINUOUS
10
5.8358
20
-4.288
11
5.8708
21
-4.288
0
LINE
8
BLACK
6
CONTINUOUS
10
5.8708
20
-4.288
11
5.8708
21
-4.343
0
LINE
8
BLACK
6
CONTINUOUS
10
5.9458
20
-4.343
11
5.9108
21
-4.343
0
LINE
8
BLACK
6
CONTINUOUS
10
5.9108
20
-4.343
11
5.9108
21
-4.288
0
LINE
8
BLACK
6
CONTINUOUS
10
5.9108
20
-4.288
11
5.9458
21
-4.288
0
LINE
8
BLACK
6
CONTINUOUS
10
5.9458
20
-4.288
11
5.9458
21
-4.343
0
LINE
8
BLACK
6
CONTINUOUS
10
6.14474
20
-4.23616
11
6.15369
21
-4.23856
0
LINE
8
BLACK
6
CONTINUOUS
10
6.15369
20
-4.23856
11
6.16209
21
-4.24248
0
LINE
8
BLACK
6
CONTINUOUS
10
6.16209
20
-4.24248
11
6.16968
21
-4.24779
0
LINE
8
BLACK
6
CONTINUOUS
10
6.16968
20
-4.24779
11
6.17623
21
-4.25434
0
LINE
8
BLACK
6
CONTINUOUS
10
6.17623
20
-4.25434
11
6.18154
21
-4.26193
0
LINE
8
BLACK
6
CONTINUOUS
10
6.18154
20
-4.26193
11
6.18546
21
-4.27033
0
LINE
8
BLACK
6
CONTINUOUS
10
6.18546
20
-4.27033
11
6.18785
21
-4.27927
0
LINE
8
BLACK
6
CONTINUOUS
10
6.18785
20
-4.27927
11
6.18866
21
-4.2885
0
LINE
8
BLACK
6
CONTINUOUS
10
6.18866
20
-4.2885
11
6.18785
21
-4.29773
0
LINE
8
BLACK
6
CONTINUOUS
10
6.18785
20
-4.29773
11
6.18546
21
-4.30668
0
LINE
8
BLACK
6
CONTINUOUS
10
6.18546
20
-4.30668
11
6.18154
21
-4.31508
0
LINE
8
BLACK
6
CONTINUOUS
10
6.18154
20
-4.31508
11
6.17623
21
-4.32267
0
LINE
8
BLACK
6
CONTINUOUS
10
6.17623
20
-4.32267
11
6.16968
21
-4.32922
0
LINE
8
BLACK
6
CONTINUOUS
10
6.16968
20
-4.32922
11
6.16209
21
-4.33453
0
LINE
8
BLACK
6
CONTINUOUS
10
6.16209
20
-4.33453
11
6.15369
21
-4.33845
0
LINE
8
BLACK
6
CONTINUOUS
10
6.15369
20
-4.33845
11
6.14474
21
-4.34085
0
LINE
8
BLACK
6
CONTINUOUS
10
6.14474
20
-4.34085
11
6.13551
21
-4.34165
0
LINE
8
BLACK
6
CONTINUOUS
10
6.13551
20
-4.34165
11
6.12628
21
-4.34085
0
LINE
8
BLACK
6
CONTINUOUS
10
6.12628
20
-4.34085
11
6.11733
21
-4.33845
0
LINE
8
BLACK
6
CONTINUOUS
10
6.11733
20
-4.33845
11
6.10894
21
-4.33453
0
LINE
8
BLACK
6
CONTINUOUS
10
6.10894
20
-4.33453
11
6.10135
21
-4.32922
0
LINE
8
BLACK
6
CONTINUOUS
10
6.10135
20
-4.32922
11
6.0948
21
-4.32267
0
LINE
8
BLACK
6
CONTINUOUS
10
6.0948
20
-4.32267
11
6.08948
21
-4.31508
0
LINE
8
BLACK
6
CONTINUOUS
10
6.08948
20
-4.31508
11
6.08557
21
-4.30668
0
LINE
8
BLACK
6
CONTINUOUS
10
6.08557
20
-4.30668
11
6.08317
21
-4.29773
0
LINE
8
BLACK
6
CONTINUOUS
10
6.08317
20
-4.29773
11
6.08236
21
-4.2885
0
LINE
8
BLACK
6
CONTINUOUS
10
6.08236
20
-4.2885
11
6.08317
21
-4.27927
0
LINE
8
BLACK
6
CONTINUOUS
10
6.08317
20
-4.27927
11
6.08557
21
-4.27033
0
LINE
8
BLACK
6
CONTINUOUS
10
6.08557
20
-4.27033
11
6.08948
21
-4.26193
0
LINE
8
BLACK
6
CONTINUOUS
10
6.08948
20
-4.26193
11
6.0948
21
-4.25434
0
LINE
8
BLACK
6
CONTINUOUS
10
6.0948
20
-4.25434
11
6.10135
21
-4.24779
0
LINE
8
BLACK
6
CONTINUOUS
10
6.10135
20
-4.24779
11
6.10894
21
-4.24248
0
LINE
8
BLACK
6
CONTINUOUS
10
6.10894
20
-4.24248
11
6.11733
21
-4.23856
0
LINE
8
BLACK
6
CONTINUOUS
10
6.11733
20
-4.23856
11
6.12628
21
-4.23616
0
LINE
8
BLACK
6
CONTINUOUS
10
6.12628
20
-4.23616
11
6.13551
21
-4.23535
0
LINE
8
BLACK
6
CONTINUOUS
10
6.13551
20
-4.23535
11
6.14474
21
-4.23616
0
LINE
8
BLACK
6
CONTINUOUS
10
6.48051
20
-4.3185
11
6.42051
21
-4.3185
0
LINE
8
BLACK
6
CONTINUOUS
10
6.42051
20
-4.3185
11
6.42051
21
-4.2585
0
LINE
8
BLACK
6
CONTINUOUS
10
6.42051
20
-4.2585
11
6.48051
21
-4.2585
0
LINE
8
BLACK
6
CONTINUOUS
10
6.48051
20
-4.2585
11
6.48051
21
-4.3185
0
LINE
8
BLACK
6
CONTINUOUS
10
6.07252
20
-4.31803
11
6.03512
21
-4.31803
0
LINE
8
BLACK
6
CONTINUOUS
10
6.03512
20
-4.31803
11
6.03512
21
-4.25898
0
LINE
8
BLACK
6
CONTINUOUS
10
6.03512
20
-4.25898
11
6.07252
21
-4.25898
0
LINE
8
BLACK
6
CONTINUOUS
10
6.07252
20
-4.25898
11
6.07252
21
-4.31803
0
LINE
8
BLACK
6
CONTINUOUS
10
6.23591
20
-4.31803
11
6.1985
21
-4.31803
0
LINE
8
BLACK
6
CONTINUOUS
10
6.1985
20
-4.31803
11
6.1985
21
-4.25898
0
LINE
8
BLACK
6
CONTINUOUS
10
6.1985
20
-4.25898
11
6.23591
21
-4.25898
0
LINE
8
BLACK
6
CONTINUOUS
10
6.23591
20
-4.25898
11
6.23591
21
-4.31803
0
LINE
8
BLACK
6
CONTINUOUS
10
6.30301
20
-4.286
11
6.26801
21
-4.286
0
LINE
8
BLACK
6
CONTINUOUS
10
6.26801
20
-4.286
11
6.26801
21
-4.231
0
LINE
8
BLACK
6
CONTINUOUS
10
6.26801
20
-4.231
11
6.30301
21
-4.231
0
LINE
8
BLACK
6
CONTINUOUS
10
6.30301
20
-4.231
11
6.30301
21
-4.286
0
LINE
8
BLACK
6
CONTINUOUS
10
6.37801
20
-4.286
11
6.34301
21
-4.286
0
LINE
8
BLACK
6
CONTINUOUS
10
6.34301
20
-4.286
11
6.34301
21
-4.231
0
LINE
8
BLACK
6
CONTINUOUS
10
6.34301
20
-4.231
11
6.37801
21
-4.231
0
LINE
8
BLACK
6
CONTINUOUS
10
6.37801
20
-4.231
11
6.37801
21
-4.286
0
LINE
8
BLACK
6
CONTINUOUS
10
6.00801
20
-4.261
11
5.95301
21
-4.261
0
LINE
8
BLACK
6
CONTINUOUS
10
5.95301
20
-4.261
11
5.95301
21
-4.226
0
LINE
8
BLACK
6
CONTINUOUS
10
5.95301
20
-4.226
11
6.00801
21
-4.226
0
LINE
8
BLACK
6
CONTINUOUS
10
6.00801
20
-4.226
11
6.00801
21
-4.261
0
LINE
8
BLACK
6
CONTINUOUS
10
5.83091
20
-4.22697
11
5.80531
21
-4.22697
0
LINE
8
BLACK
6
CONTINUOUS
10
5.80531
20
-4.22697
11
5.80531
21
-4.21122
0
LINE
8
BLACK
6
CONTINUOUS
10
5.80531
20
-4.21122
11
5.83091
21
-4.21122
0
LINE
8
BLACK
6
CONTINUOUS
10
5.83091
20
-4.21122
11
5.83091
21
-4.22697
0
LINE
8
BLACK
6
CONTINUOUS
10
5.90571
20
-4.22697
11
5.88012
21
-4.22697
0
LINE
8
BLACK
6
CONTINUOUS
10
5.88012
20
-4.22697
11
5.88012
21
-4.21122
0
LINE
8
BLACK
6
CONTINUOUS
10
5.88012
20
-4.21122
11
5.90571
21
-4.21122
0
LINE
8
BLACK
6
CONTINUOUS
10
5.90571
20
-4.21122
11
5.90571
21
-4.22697
0
LINE
8
BLACK
6
CONTINUOUS
10
6.48051
20
-4.2185
11
6.42051
21
-4.2185
0
LINE
8
BLACK
6
CONTINUOUS
10
6.42051
20
-4.2185
11
6.42051
21
-4.1585
0
LINE
8
BLACK
6
CONTINUOUS
10
6.42051
20
-4.1585
11
6.48051
21
-4.1585
0
LINE
8
BLACK
6
CONTINUOUS
10
6.48051
20
-4.1585
11
6.48051
21
-4.2185
0
LINE
8
BLACK
6
CONTINUOUS
10
6.30301
20
-4.206
11
6.26801
21
-4.206
0
LINE
8
BLACK
6
CONTINUOUS
10
6.26801
20
-4.206
11
6.26801
21
-4.151
0
LINE
8
BLACK
6
CONTINUOUS
10
6.26801
20
-4.151
11
6.30301
21
-4.151
0
LINE
8
BLACK
6
CONTINUOUS
10
6.30301
20
-4.151
11
6.30301
21
-4.206
0
LINE
8
BLACK
6
CONTINUOUS
10
6.37801
20
-4.206
11
6.34301
21
-4.206
0
LINE
8
BLACK
6
CONTINUOUS
10
6.34301
20
-4.206
11
6.34301
21
-4.151
0
LINE
8
BLACK
6
CONTINUOUS
10
6.34301
20
-4.151
11
6.37801
21
-4.151
0
LINE
8
BLACK
6
CONTINUOUS
10
6.37801
20
-4.151
11
6.37801
21
-4.206
0
LINE
8
BLACK
6
CONTINUOUS
10
5.90571
20
-4.20138
11
5.88012
21
-4.20138
0
LINE
8
BLACK
6
CONTINUOUS
10
5.88012
20
-4.20138
11
5.88012
21
-4.18563
0
LINE
8
BLACK
6
CONTINUOUS
10
5.88012
20
-4.18563
11
5.90571
21
-4.18563
0
LINE
8
BLACK
6
CONTINUOUS
10
5.90571
20
-4.18563
11
5.90571
21
-4.20138
0
LINE
8
BLACK
6
CONTINUOUS
10
6.08376
20
-4.14554
11
6.08655
21
-4.1474
0
LINE
8
BLACK
6
CONTINUOUS
10
6.08655
20
-4.1474
11
6.08842
21
-4.1502
0
LINE
8
BLACK
6
CONTINUOUS
10
6.08842
20
-4.1502
11
6.08907
21
-4.15349
0
LINE
8
BLACK
6
CONTINUOUS
10
6.08907
20
-4.15349
11
6.08907
21
-4.18351
0
LINE
8
BLACK
6
CONTINUOUS
10
6.08907
20
-4.18351
11
6.08842
21
-4.18681
0
LINE
8
BLACK
6
CONTINUOUS
10
6.08842
20
-4.18681
11
6.08655
21
-4.1896
0
LINE
8
BLACK
6
CONTINUOUS
10
6.08655
20
-4.1896
11
6.08376
21
-4.19147
0
LINE
8
BLACK
6
CONTINUOUS
10
6.08376
20
-4.19147
11
6.08046
21
-4.19213
0
LINE
8
BLACK
6
CONTINUOUS
10
6.08046
20
-4.19213
11
6.06324
21
-4.19213
0
LINE
8
BLACK
6
CONTINUOUS
10
6.06324
20
-4.19213
11
6.05994
21
-4.19147
0
LINE
8
BLACK
6
CONTINUOUS
10
6.05994
20
-4.19147
11
6.05715
21
-4.1896
0
LINE
8
BLACK
6
CONTINUOUS
10
6.05715
20
-4.1896
11
6.05528
21
-4.18681
0
LINE
8
BLACK
6
CONTINUOUS
10
6.05528
20
-4.18681
11
6.05463
21
-4.18351
0
LINE
8
BLACK
6
CONTINUOUS
10
6.05463
20
-4.18351
11
6.05463
21
-4.15349
0
LINE
8
BLACK
6
CONTINUOUS
10
6.05463
20
-4.15349
11
6.05528
21
-4.1502
0
LINE
8
BLACK
6
CONTINUOUS
10
6.05528
20
-4.1502
11
6.05715
21
-4.1474
0
LINE
8
BLACK
6
CONTINUOUS
10
6.05715
20
-4.1474
11
6.05994
21
-4.14554
0
LINE
8
BLACK
6
CONTINUOUS
10
6.05994
20
-4.14554
11
6.06324
21
-4.14488
0
LINE
8
BLACK
6
CONTINUOUS
10
6.06324
20
-4.14488
11
6.08046
21
-4.14488
0
LINE
8
BLACK
6
CONTINUOUS
10
6.08046
20
-4.14488
11
6.08376
21
-4.14554
0
LINE
8
BLACK
6
CONTINUOUS
10
6.16742
20
-4.14554
11
6.17021
21
-4.1474
0
LINE
8
BLACK
6
CONTINUOUS
10
6.17021
20
-4.1474
11
6.17208
21
-4.1502
0
LINE
8
BLACK
6
CONTINUOUS
10
6.17208
20
-4.1502
11
6.17274
21
-4.15349
0
LINE
8
BLACK
6
CONTINUOUS
10
6.17274
20
-4.15349
11
6.17274
21
-4.18351
0
LINE
8
BLACK
6
CONTINUOUS
10
6.17274
20
-4.18351
11
6.17208
21
-4.18681
0
LINE
8
BLACK
6
CONTINUOUS
10
6.17208
20
-4.18681
11
6.17021
21
-4.1896
0
LINE
8
BLACK
6
CONTINUOUS
10
6.17021
20
-4.1896
11
6.16742
21
-4.19147
0
LINE
8
BLACK
6
CONTINUOUS
10
6.16742
20
-4.19147
11
6.16412
21
-4.19213
0
LINE
8
BLACK
6
CONTINUOUS
10
6.16412
20
-4.19213
11
6.1469
21
-4.19213
0
LINE
8
BLACK
6
CONTINUOUS
10
6.1469
20
-4.19213
11
6.1436
21
-4.19147
0
LINE
8
BLACK
6
CONTINUOUS
10
6.1436
20
-4.19147
11
6.14081
21
-4.1896
0
LINE
8
BLACK
6
CONTINUOUS
10
6.14081
20
-4.1896
11
6.13894
21
-4.18681
0
LINE
8
BLACK
6
CONTINUOUS
10
6.13894
20
-4.18681
11
6.13829
21
-4.18351
0
LINE
8
BLACK
6
CONTINUOUS
10
6.13829
20
-4.18351
11
6.13829
21
-4.15349
0
LINE
8
BLACK
6
CONTINUOUS
10
6.13829
20
-4.15349
11
6.13894
21
-4.1502
0
LINE
8
BLACK
6
CONTINUOUS
10
6.13894
20
-4.1502
11
6.14081
21
-4.1474
0
LINE
8
BLACK
6
CONTINUOUS
10
6.14081
20
-4.1474
11
6.1436
21
-4.14554
0
LINE
8
BLACK
6
CONTINUOUS
10
6.1436
20
-4.14554
11
6.1469
21
-4.14488
0
LINE
8
BLACK
6
CONTINUOUS
10
6.1469
20
-4.14488
11
6.16412
21
-4.14488
0
LINE
8
BLACK
6
CONTINUOUS
10
6.16412
20
-4.14488
11
6.16742
21
-4.14554
0
LINE
8
BLACK
6
CONTINUOUS
10
6.00801
20
-4.186
11
5.95301
21
-4.186
0
LINE
8
BLACK
6
CONTINUOUS
10
5.95301
20
-4.186
11
5.95301
21
-4.151
0
LINE
8
BLACK
6
CONTINUOUS
10
5.95301
20
-4.151
11
6.00801
21
-4.151
0
LINE
8
BLACK
6
CONTINUOUS
10
6.00801
20
-4.151
11
6.00801
21
-4.186
0
LINE
8
BLACK
6
CONTINUOUS
10
5.72201
20
-4.1845
11
5.66701
21
-4.1845
0
LINE
8
BLACK
6
CONTINUOUS
10
5.66701
20
-4.1845
11
5.66701
21
-4.1495
0
LINE
8
BLACK
6
CONTINUOUS
10
5.66701
20
-4.1495
11
5.72201
21
-4.1495
0
LINE
8
BLACK
6
CONTINUOUS
10
5.72201
20
-4.1495
11
5.72201
21
-4.1845
0
LINE
8
BLACK
6
CONTINUOUS
10
5.83091
20
-4.17579
11
5.80531
21
-4.17579
0
LINE
8
BLACK
6
CONTINUOUS
10
5.80531
20
-4.17579
11
5.80531
21
-4.16004
0
LINE
8
BLACK
6
CONTINUOUS
10
5.80531
20
-4.16004
11
5.83091
21
-4.16004
0
LINE
8
BLACK
6
CONTINUOUS
10
5.83091
20
-4.16004
11
5.83091
21
-4.17579
0
LINE
8
BLACK
6
CONTINUOUS
10
5.90571
20
-4.17579
11
5.88012
21
-4.17579
0
LINE
8
BLACK
6
CONTINUOUS
10
5.88012
20
-4.17579
11
5.88012
21
-4.16004
0
LINE
8
BLACK
6
CONTINUOUS
10
5.88012
20
-4.16004
11
5.90571
21
-4.16004
0
LINE
8
BLACK
6
CONTINUOUS
10
5.90571
20
-4.16004
11
5.90571
21
-4.17579
0
LINE
8
BLACK
6
CONTINUOUS
10
6.27391
20
-4.07053
11
6.2767
21
-4.0724
0
LINE
8
BLACK
6
CONTINUOUS
10
6.2767
20
-4.0724
11
6.28888
21
-4.08458
0
LINE
8
BLACK
6
CONTINUOUS
10
6.28888
20
-4.08458
11
6.29075
21
-4.08737
0
LINE
8
BLACK
6
CONTINUOUS
10
6.29075
20
-4.08737
11
6.29141
21
-4.09067
0
LINE
8
BLACK
6
CONTINUOUS
10
6.29141
20
-4.09067
11
6.29075
21
-4.09396
0
LINE
8
BLACK
6
CONTINUOUS
10
6.29075
20
-4.09396
11
6.28888
21
-4.09676
0
LINE
8
BLACK
6
CONTINUOUS
10
6.28888
20
-4.09676
11
6.26766
21
-4.11798
0
LINE
8
BLACK
6
CONTINUOUS
10
6.26766
20
-4.11798
11
6.26486
21
-4.11985
0
LINE
8
BLACK
6
CONTINUOUS
10
6.26486
20
-4.11985
11
6.26157
21
-4.1205
0
LINE
8
BLACK
6
CONTINUOUS
10
6.26157
20
-4.1205
11
6.25827
21
-4.11985
0
LINE
8
BLACK
6
CONTINUOUS
10
6.25827
20
-4.11985
11
6.25548
21
-4.11798
0
LINE
8
BLACK
6
CONTINUOUS
10
6.25548
20
-4.11798
11
6.2433
21
-4.1058
0
LINE
8
BLACK
6
CONTINUOUS
10
6.2433
20
-4.1058
11
6.24143
21
-4.10301
0
LINE
8
BLACK
6
CONTINUOUS
10
6.24143
20
-4.10301
11
6.24078
21
-4.09971
0
LINE
8
BLACK
6
CONTINUOUS
10
6.24078
20
-4.09971
11
6.24143
21
-4.09642
0
LINE
8
BLACK
6
CONTINUOUS
10
6.24143
20
-4.09642
11
6.2433
21
-4.09362
0
LINE
8
BLACK
6
CONTINUOUS
10
6.2433
20
-4.09362
11
6.26452
21
-4.0724
0
LINE
8
BLACK
6
CONTINUOUS
10
6.26452
20
-4.0724
11
6.26732
21
-4.07053
0
LINE
8
BLACK
6
CONTINUOUS
10
6.26732
20
-4.07053
11
6.27061
21
-4.06987
0
LINE
8
BLACK
6
CONTINUOUS
10
6.27061
20
-4.06987
11
6.27391
21
-4.07053
0
LINE
8
BLACK
6
CONTINUOUS
10
5.72201
20
-4.1095
11
5.66701
21
-4.1095
0
LINE
8
BLACK
6
CONTINUOUS
10
5.66701
20
-4.1095
11
5.66701
21
-4.0745
0
LINE
8
BLACK
6
CONTINUOUS
10
5.66701
20
-4.0745
11
5.72201
21
-4.0745
0
LINE
8
BLACK
6
CONTINUOUS
10
5.72201
20
-4.0745
11
5.72201
21
-4.1095
0
LINE
8
BLACK
6
CONTINUOUS
10
6.05551
20
-4.0735
11
6.02051
21
-4.0735
0
LINE
8
BLACK
6
CONTINUOUS
10
6.02051
20
-4.0735
11
6.02051
21
-4.0185
0
LINE
8
BLACK
6
CONTINUOUS
10
6.02051
20
-4.0185
11
6.05551
21
-4.0185
0
LINE
8
BLACK
6
CONTINUOUS
10
6.05551
20
-4.0185
11
6.05551
21
-4.0735
0
LINE
8
BLACK
6
CONTINUOUS
10
6.13051
20
-4.0735
11
6.09551
21
-4.0735
0
LINE
8
BLACK
6
CONTINUOUS
10
6.09551
20
-4.0735
11
6.09551
21
-4.0185
0
LINE
8
BLACK
6
CONTINUOUS
10
6.09551
20
-4.0185
11
6.13051
21
-4.0185
0
LINE
8
BLACK
6
CONTINUOUS
10
6.13051
20
-4.0185
11
6.13051
21
-4.0735
0
LINE
8
BLACK
6
CONTINUOUS
10
6.21475
20
-4.01137
11
6.21755
21
-4.01324
0
LINE
8
BLACK
6
CONTINUOUS
10
6.21755
20
-4.01324
11
6.22973
21
-4.02542
0
LINE
8
BLACK
6
CONTINUOUS
10
6.22973
20
-4.02542
11
6.23159
21
-4.02821
0
LINE
8
BLACK
6
CONTINUOUS
10
6.23159
20
-4.02821
11
6.23225
21
-4.03151
0
LINE
8
BLACK
6
CONTINUOUS
10
6.23225
20
-4.03151
11
6.23159
21
-4.0348
0
LINE
8
BLACK
6
CONTINUOUS
10
6.23159
20
-4.0348
11
6.22973
21
-4.0376
0
LINE
8
BLACK
6
CONTINUOUS
10
6.22973
20
-4.0376
11
6.2085
21
-4.05882
0
LINE
8
BLACK
6
CONTINUOUS
10
6.2085
20
-4.05882
11
6.2057
21
-4.06069
0
LINE
8
BLACK
6
CONTINUOUS
10
6.2057
20
-4.06069
11
6.20241
21
-4.06135
0
LINE
8
BLACK
6
CONTINUOUS
10
6.20241
20
-4.06135
11
6.19911
21
-4.06069
0
LINE
8
BLACK
6
CONTINUOUS
10
6.19911
20
-4.06069
11
6.19632
21
-4.05882
0
LINE
8
BLACK
6
CONTINUOUS
10
6.19632
20
-4.05882
11
6.18414
21
-4.04665
0
LINE
8
BLACK
6
CONTINUOUS
10
6.18414
20
-4.04665
11
6.18227
21
-4.04385
0
LINE
8
BLACK
6
CONTINUOUS
10
6.18227
20
-4.04385
11
6.18162
21
-4.04056
0
LINE
8
BLACK
6
CONTINUOUS
10
6.18162
20
-4.04056
11
6.18227
21
-4.03726
0
LINE
8
BLACK
6
CONTINUOUS
10
6.18227
20
-4.03726
11
6.18414
21
-4.03447
0
LINE
8
BLACK
6
CONTINUOUS
10
6.18414
20
-4.03447
11
6.20537
21
-4.01324
0
LINE
8
BLACK
6
CONTINUOUS
10
6.20537
20
-4.01324
11
6.20816
21
-4.01137
0
LINE
8
BLACK
6
CONTINUOUS
10
6.20816
20
-4.01137
11
6.21146
21
-4.01072
0
LINE
8
BLACK
6
CONTINUOUS
10
6.21146
20
-4.01072
11
6.21475
21
-4.01137
0
LINE
8
BLACK
6
CONTINUOUS
10
5.84508
20
-4.05531
11
5.78602
21
-4.05531
0
LINE
8
BLACK
6
CONTINUOUS
10
5.78602
20
-4.05531
11
5.78602
21
-4.03169
0
LINE
8
BLACK
6
CONTINUOUS
10
5.78602
20
-4.03169
11
5.84508
21
-4.03169
0
LINE
8
BLACK
6
CONTINUOUS
10
5.84508
20
-4.03169
11
5.84508
21
-4.05531
0
LINE
8
BLACK
6
CONTINUOUS
10
5.975
20
-4.05531
11
5.91594
21
-4.05531
0
LINE
8
BLACK
6
CONTINUOUS
10
5.91594
20
-4.05531
11
5.91594
21
-4.03169
0
LINE
8
BLACK
6
CONTINUOUS
10
5.91594
20
-4.03169
11
5.975
21
-4.03169
0
LINE
8
BLACK
6
CONTINUOUS
10
5.975
20
-4.03169
11
5.975
21
-4.05531
0
LINE
8
BLACK
6
CONTINUOUS
10
5.44375
20
-3.91622
11
5.45218
21
-3.91911
0
LINE
8
BLACK
6
CONTINUOUS
10
5.45218
20
-3.91911
11
5.46001
21
-3.92335
0
LINE
8
BLACK
6
CONTINUOUS
10
5.46001
20
-3.92335
11
5.46704
21
-3.92882
0
LINE
8
BLACK
6
CONTINUOUS
10
5.46704
20
-3.92882
11
5.47308
21
-3.93538
0
LINE
8
BLACK
6
CONTINUOUS
10
5.47308
20
-3.93538
11
5.47795
21
-3.94283
0
LINE
8
BLACK
6
CONTINUOUS
10
5.47795
20
-3.94283
11
5.48153
21
-3.95099
0
LINE
8
BLACK
6
CONTINUOUS
10
5.48153
20
-3.95099
11
5.48371
21
-3.95963
0
LINE
8
BLACK
6
CONTINUOUS
10
5.48371
20
-3.95963
11
5.48445
21
-3.9685
0
LINE
8
BLACK
6
CONTINUOUS
10
5.48445
20
-3.9685
11
5.48371
21
-3.97738
0
LINE
8
BLACK
6
CONTINUOUS
10
5.48371
20
-3.97738
11
5.48153
21
-3.98602
0
LINE
8
BLACK
6
CONTINUOUS
10
5.48153
20
-3.98602
11
5.47795
21
-3.99418
0
LINE
8
BLACK
6
CONTINUOUS
10
5.47795
20
-3.99418
11
5.47308
21
-4.00163
0
LINE
8
BLACK
6
CONTINUOUS
10
5.47308
20
-4.00163
11
5.46704
21
-4.00819
0
LINE
8
BLACK
6
CONTINUOUS
10
5.46704
20
-4.00819
11
5.46001
21
-4.01366
0
LINE
8
BLACK
6
CONTINUOUS
10
5.46001
20
-4.01366
11
5.45218
21
-4.0179
0
LINE
8
BLACK
6
CONTINUOUS
10
5.45218
20
-4.0179
11
5.44375
21
-4.02079
0
LINE
8
BLACK
6
CONTINUOUS
10
5.44375
20
-4.02079
11
5.43497
21
-4.02226
0
LINE
8
BLACK
6
CONTINUOUS
10
5.43497
20
-4.02226
11
5.42606
21
-4.02226
0
LINE
8
BLACK
6
CONTINUOUS
10
5.42606
20
-4.02226
11
5.41727
21
-4.02079
0
LINE
8
BLACK
6
CONTINUOUS
10
5.41727
20
-4.02079
11
5.40885
21
-4.0179
0
LINE
8
BLACK
6
CONTINUOUS
10
5.40885
20
-4.0179
11
5.40101
21
-4.01366
0
LINE
8
BLACK
6
CONTINUOUS
10
5.40101
20
-4.01366
11
5.39398
21
-4.00819
0
LINE
8
BLACK
6
CONTINUOUS
10
5.39398
20
-4.00819
11
5.38795
21
-4.00163
0
LINE
8
BLACK
6
CONTINUOUS
10
5.38795
20
-4.00163
11
5.38308
21
-3.99418
0
LINE
8
BLACK
6
CONTINUOUS
10
5.38308
20
-3.99418
11
5.3795
21
-3.98602
0
LINE
8
BLACK
6
CONTINUOUS
10
5.3795
20
-3.98602
11
5.37731
21
-3.97738
0
LINE
8
BLACK
6
CONTINUOUS
10
5.37731
20
-3.97738
11
5.37657
21
-3.9685
0
LINE
8
BLACK
6
CONTINUOUS
10
5.37657
20
-3.9685
11
5.37731
21
-3.95963
0
LINE
8
BLACK
6
CONTINUOUS
10
5.37731
20
-3.95963
11
5.3795
21
-3.95099
0
LINE
8
BLACK
6
CONTINUOUS
10
5.3795
20
-3.95099
11
5.38308
21
-3.94283
0
LINE
8
BLACK
6
CONTINUOUS
10
5.38308
20
-3.94283
11
5.38795
21
-3.93538
0
LINE
8
BLACK
6
CONTINUOUS
10
5.38795
20
-3.93538
11
5.39398
21
-3.92882
0
LINE
8
BLACK
6
CONTINUOUS
10
5.39398
20
-3.92882
11
5.40101
21
-3.92335
0
LINE
8
BLACK
6
CONTINUOUS
10
5.40101
20
-3.92335
11
5.40885
21
-3.91911
0
LINE
8
BLACK
6
CONTINUOUS
10
5.40885
20
-3.91911
11
5.41727
21
-3.91622
0
LINE
8
BLACK
6
CONTINUOUS
10
5.41727
20
-3.91622
11
5.42606
21
-3.91475
0
LINE
8
BLACK
6
CONTINUOUS
10
5.42606
20
-3.91475
11
5.43497
21
-3.91475
0
LINE
8
BLACK
6
CONTINUOUS
10
5.43497
20
-3.91475
11
5.44375
21
-3.91622
0
LINE
8
BLACK
6
CONTINUOUS
10
5.64375
20
-3.91622
11
5.65218
21
-3.91911
0
LINE
8
BLACK
6
CONTINUOUS
10
5.65218
20
-3.91911
11
5.66001
21
-3.92335
0
LINE
8
BLACK
6
CONTINUOUS
10
5.66001
20
-3.92335
11
5.66704
21
-3.92882
0
LINE
8
BLACK
6
CONTINUOUS
10
5.66704
20
-3.92882
11
5.67308
21
-3.93538
0
LINE
8
BLACK
6
CONTINUOUS
10
5.67308
20
-3.93538
11
5.67795
21
-3.94283
0
LINE
8
BLACK
6
CONTINUOUS
10
5.67795
20
-3.94283
11
5.68153
21
-3.95099
0
LINE
8
BLACK
6
CONTINUOUS
10
5.68153
20
-3.95099
11
5.68371
21
-3.95963
0
LINE
8
BLACK
6
CONTINUOUS
10
5.68371
20
-3.95963
11
5.68445
21
-3.9685
0
LINE
8
BLACK
6
CONTINUOUS
10
5.68445
20
-3.9685
11
5.68371
21
-3.97738
0
LINE
8
BLACK
6
CONTINUOUS
10
5.68371
20
-3.97738
11
5.68153
21
-3.98602
0
LINE
8
BLACK
6
CONTINUOUS
10
5.68153
20
-3.98602
11
5.67795
21
-3.99418
0
LINE
8
BLACK
6
CONTINUOUS
10
5.67795
20
-3.99418
11
5.67308
21
-4.00163
0
LINE
8
BLACK
6
CONTINUOUS
10
5.67308
20
-4.00163
11
5.66704
21
-4.00819
0
LINE
8
BLACK
6
CONTINUOUS
10
5.66704
20
-4.00819
11
5.66001
21
-4.01366
0
LINE
8
BLACK
6
CONTINUOUS
10
5.66001
20
-4.01366
11
5.65218
21
-4.0179
0
LINE
8
BLACK
6
CONTINUOUS
10
5.65218
20
-4.0179
11
5.64375
21
-4.02079
0
LINE
8
BLACK
6
CONTINUOUS
10
5.64375
20
-4.02079
11
5.63497
21
-4.02226
0
LINE
8
BLACK
6
CONTINUOUS
10
5.63497
20
-4.02226
11
5.62606
21
-4.02226
0
LINE
8
BLACK
6
CONTINUOUS
10
5.62606
20
-4.02226
11
5.61727
21
-4.02079
0
LINE
8
BLACK
6
CONTINUOUS
10
5.61727
20
-4.02079
11
5.60885
21
-4.0179
0
LINE
8
BLACK
6
CONTINUOUS
10
5.60885
20
-4.0179
11
5.60101
21
-4.01366
0
LINE
8
BLACK
6
CONTINUOUS
10
5.60101
20
-4.01366
11
5.59398
21
-4.00819
0
LINE
8
BLACK
6
CONTINUOUS
10
5.59398
20
-4.00819
11
5.58795
21
-4.00163
0
LINE
8
BLACK
6
CONTINUOUS
10
5.58795
20
-4.00163
11
5.58308
21
-3.99418
0
LINE
8
BLACK
6
CONTINUOUS
10
5.58308
20
-3.99418
11
5.5795
21
-3.98602
0
LINE
8
BLACK
6
CONTINUOUS
10
5.5795
20
-3.98602
11
5.57731
21
-3.97738
0
LINE
8
BLACK
6
CONTINUOUS
10
5.57731
20
-3.97738
11
5.57657
21
-3.9685
0
LINE
8
BLACK
6
CONTINUOUS
10
5.57657
20
-3.9685
11
5.57731
21
-3.95963
0
LINE
8
BLACK
6
CONTINUOUS
10
5.57731
20
-3.95963
11
5.5795
21
-3.95099
0
LINE
8
BLACK
6
CONTINUOUS
10
5.5795
20
-3.95099
11
5.58308
21
-3.94283
0
LINE
8
BLACK
6
CONTINUOUS
10
5.58308
20
-3.94283
11
5.58795
21
-3.93538
0
LINE
8
BLACK
6
CONTINUOUS
10
5.58795
20
-3.93538
11
5.59398
21
-3.92882
0
LINE
8
BLACK
6
CONTINUOUS
10
5.59398
20
-3.92882
11
5.60101
21
-3.92335
0
LINE
8
BLACK
6
CONTINUOUS
10
5.60101
20
-3.92335
11
5.60885
21
-3.91911
0
LINE
8
BLACK
6
CONTINUOUS
10
5.60885
20
-3.91911
11
5.61727
21
-3.91622
0
LINE
8
BLACK
6
CONTINUOUS
10
5.61727
20
-3.91622
11
5.62606
21
-3.91475
0
LINE
8
BLACK
6
CONTINUOUS
10
5.62606
20
-3.91475
11
5.63497
21
-3.91475
0
LINE
8
BLACK
6
CONTINUOUS
10
5.63497
20
-3.91475
11
5.64375
21
-3.91622
0
LINE
8
BLACK
6
CONTINUOUS
10
6.54375
20
-3.91622
11
6.55218
21
-3.91911
0
LINE
8
BLACK
6
CONTINUOUS
10
6.55218
20
-3.91911
11
6.56001
21
-3.92335
0
LINE
8
BLACK
6
CONTINUOUS
10
6.56001
20
-3.92335
11
6.56704
21
-3.92882
0
LINE
8
BLACK
6
CONTINUOUS
10
6.56704
20
-3.92882
11
6.57308
21
-3.93538
0
LINE
8
BLACK
6
CONTINUOUS
10
6.57308
20
-3.93538
11
6.57795
21
-3.94283
0
LINE
8
BLACK
6
CONTINUOUS
10
6.57795
20
-3.94283
11
6.58153
21
-3.95099
0
LINE
8
BLACK
6
CONTINUOUS
10
6.58153
20
-3.95099
11
6.58371
21
-3.95963
0
LINE
8
BLACK
6
CONTINUOUS
10
6.58371
20
-3.95963
11
6.58445
21
-3.9685
0
LINE
8
BLACK
6
CONTINUOUS
10
6.58445
20
-3.9685
11
6.58371
21
-3.97738
0
LINE
8
BLACK
6
CONTINUOUS
10
6.58371
20
-3.97738
11
6.58153
21
-3.98602
0
LINE
8
BLACK
6
CONTINUOUS
10
6.58153
20
-3.98602
11
6.57795
21
-3.99418
0
LINE
8
BLACK
6
CONTINUOUS
10
6.57795
20
-3.99418
11
6.57308
21
-4.00163
0
LINE
8
BLACK
6
CONTINUOUS
10
6.57308
20
-4.00163
11
6.56704
21
-4.00819
0
LINE
8
BLACK
6
CONTINUOUS
10
6.56704
20
-4.00819
11
6.56001
21
-4.01366
0
LINE
8
BLACK
6
CONTINUOUS
10
6.56001
20
-4.01366
11
6.55218
21
-4.0179
0
LINE
8
BLACK
6
CONTINUOUS
10
6.55218
20
-4.0179
11
6.54375
21
-4.02079
0
LINE
8
BLACK
6
CONTINUOUS
10
6.54375
20
-4.02079
11
6.53497
21
-4.02226
0
LINE
8
BLACK
6
CONTINUOUS
10
6.53497
20
-4.02226
11
6.52606
21
-4.02226
0
LINE
8
BLACK
6
CONTINUOUS
10
6.52606
20
-4.02226
11
6.51727
21
-4.02079
0
LINE
8
BLACK
6
CONTINUOUS
10
6.51727
20
-4.02079
11
6.50885
21
-4.0179
0
LINE
8
BLACK
6
CONTINUOUS
10
6.50885
20
-4.0179
11
6.50101
21
-4.01366
0
LINE
8
BLACK
6
CONTINUOUS
10
6.50101
20
-4.01366
11
6.49398
21
-4.00819
0
LINE
8
BLACK
6
CONTINUOUS
10
6.49398
20
-4.00819
11
6.48795
21
-4.00163
0
LINE
8
BLACK
6
CONTINUOUS
10
6.48795
20
-4.00163
11
6.48308
21
-3.99418
0
LINE
8
BLACK
6
CONTINUOUS
10
6.48308
20
-3.99418
11
6.4795
21
-3.98602
0
LINE
8
BLACK
6
CONTINUOUS
10
6.4795
20
-3.98602
11
6.47731
21
-3.97738
0
LINE
8
BLACK
6
CONTINUOUS
10
6.47731
20
-3.97738
11
6.47657
21
-3.9685
0
LINE
8
BLACK
6
CONTINUOUS
10
6.47657
20
-3.9685
11
6.47731
21
-3.95963
0
LINE
8
BLACK
6
CONTINUOUS
10
6.47731
20
-3.95963
11
6.4795
21
-3.95099
0
LINE
8
BLACK
6
CONTINUOUS
10
6.4795
20
-3.95099
11
6.48308
21
-3.94283
0
LINE
8
BLACK
6
CONTINUOUS
10
6.48308
20
-3.94283
11
6.48795
21
-3.93538
0
LINE
8
BLACK
6
CONTINUOUS
10
6.48795
20
-3.93538
11
6.49398
21
-3.92882
0
LINE
8
BLACK
6
CONTINUOUS
10
6.49398
20
-3.92882
11
6.50101
21
-3.92335
0
LINE
8
BLACK
6
CONTINUOUS
10
6.50101
20
-3.92335
11
6.50885
21
-3.91911
0
LINE
8
BLACK
6
CONTINUOUS
10
6.50885
20
-3.91911
11
6.51727
21
-3.91622
0
LINE
8
BLACK
6
CONTINUOUS
10
6.51727
20
-3.91622
11
6.52606
21
-3.91475
0
LINE
8
BLACK
6
CONTINUOUS
10
6.52606
20
-3.91475
11
6.53497
21
-3.91475
0
LINE
8
BLACK
6
CONTINUOUS
10
6.53497
20
-3.91475
11
6.54375
21
-3.91622
0
LINE
8
BLACK
6
CONTINUOUS
10
6.74375
20
-3.91622
11
6.75218
21
-3.91911
0
LINE
8
BLACK
6
CONTINUOUS
10
6.75218
20
-3.91911
11
6.76001
21
-3.92335
0
LINE
8
BLACK
6
CONTINUOUS
10
6.76001
20
-3.92335
11
6.76704
21
-3.92882
0
LINE
8
BLACK
6
CONTINUOUS
10
6.76704
20
-3.92882
11
6.77308
21
-3.93538
0
LINE
8
BLACK
6
CONTINUOUS
10
6.77308
20
-3.93538
11
6.77795
21
-3.94283
0
LINE
8
BLACK
6
CONTINUOUS
10
6.77795
20
-3.94283
11
6.78153
21
-3.95099
0
LINE
8
BLACK
6
CONTINUOUS
10
6.78153
20
-3.95099
11
6.78371
21
-3.95963
0
LINE
8
BLACK
6
CONTINUOUS
10
6.78371
20
-3.95963
11
6.78445
21
-3.9685
0
LINE
8
BLACK
6
CONTINUOUS
10
6.78445
20
-3.9685
11
6.78371
21
-3.97738
0
LINE
8
BLACK
6
CONTINUOUS
10
6.78371
20
-3.97738
11
6.78153
21
-3.98602
0
LINE
8
BLACK
6
CONTINUOUS
10
6.78153
20
-3.98602
11
6.77795
21
-3.99418
0
LINE
8
BLACK
6
CONTINUOUS
10
6.77795
20
-3.99418
11
6.77308
21
-4.00163
0
LINE
8
BLACK
6
CONTINUOUS
10
6.77308
20
-4.00163
11
6.76704
21
-4.00819
0
LINE
8
BLACK
6
CONTINUOUS
10
6.76704
20
-4.00819
11
6.76001
21
-4.01366
0
LINE
8
BLACK
6
CONTINUOUS
10
6.76001
20
-4.01366
11
6.75218
21
-4.0179
0
LINE
8
BLACK
6
CONTINUOUS
10
6.75218
20
-4.0179
11
6.74375
21
-4.02079
0
LINE
8
BLACK
6
CONTINUOUS
10
6.74375
20
-4.02079
11
6.73497
21
-4.02226
0
LINE
8
BLACK
6
CONTINUOUS
10
6.73497
20
-4.02226
11
6.72606
21
-4.02226
0
LINE
8
BLACK
6
CONTINUOUS
10
6.72606
20
-4.02226
11
6.71727
21
-4.02079
0
LINE
8
BLACK
6
CONTINUOUS
10
6.71727
20
-4.02079
11
6.70885
21
-4.0179
0
LINE
8
BLACK
6
CONTINUOUS
10
6.70885
20
-4.0179
11
6.70101
21
-4.01366
0
LINE
8
BLACK
6
CONTINUOUS
10
6.70101
20
-4.01366
11
6.69398
21
-4.00819
0
LINE
8
BLACK
6
CONTINUOUS
10
6.69398
20
-4.00819
11
6.68795
21
-4.00163
0
LINE
8
BLACK
6
CONTINUOUS
10
6.68795
20
-4.00163
11
6.68308
21
-3.99418
0
LINE
8
BLACK
6
CONTINUOUS
10
6.68308
20
-3.99418
11
6.6795
21
-3.98602
0
LINE
8
BLACK
6
CONTINUOUS
10
6.6795
20
-3.98602
11
6.67731
21
-3.97738
0
LINE
8
BLACK
6
CONTINUOUS
10
6.67731
20
-3.97738
11
6.67657
21
-3.9685
0
LINE
8
BLACK
6
CONTINUOUS
10
6.67657
20
-3.9685
11
6.67731
21
-3.95963
0
LINE
8
BLACK
6
CONTINUOUS
10
6.67731
20
-3.95963
11
6.6795
21
-3.95099
0
LINE
8
BLACK
6
CONTINUOUS
10
6.6795
20
-3.95099
11
6.68308
21
-3.94283
0
LINE
8
BLACK
6
CONTINUOUS
10
6.68308
20
-3.94283
11
6.68795
21
-3.93538
0
LINE
8
BLACK
6
CONTINUOUS
10
6.68795
20
-3.93538
11
6.69398
21
-3.92882
0
LINE
8
BLACK
6
CONTINUOUS
10
6.69398
20
-3.92882
11
6.70101
21
-3.92335
0
LINE
8
BLACK
6
CONTINUOUS
10
6.70101
20
-3.92335
11
6.70885
21
-3.91911
0
LINE
8
BLACK
6
CONTINUOUS
10
6.70885
20
-3.91911
11
6.71727
21
-3.91622
0
LINE
8
BLACK
6
CONTINUOUS
10
6.71727
20
-3.91622
11
6.72606
21
-3.91475
0
LINE
8
BLACK
6
CONTINUOUS
10
6.72606
20
-3.91475
11
6.73497
21
-3.91475
0
LINE
8
BLACK
6
CONTINUOUS
10
6.73497
20
-3.91475
11
6.74375
21
-3.91622
0
LINE
8
BLACK
6
CONTINUOUS
10
5.84508
20
-4.00531
11
5.78602
21
-4.00531
0
LINE
8
BLACK
6
CONTINUOUS
10
5.78602
20
-4.00531
11
5.78602
21
-3.98169
0
LINE
8
BLACK
6
CONTINUOUS
10
5.78602
20
-3.98169
11
5.84508
21
-3.98169
0
LINE
8
BLACK
6
CONTINUOUS
10
5.84508
20
-3.98169
11
5.84508
21
-4.00531
0
LINE
8
BLACK
6
CONTINUOUS
10
5.975
20
-4.00531
11
5.91594
21
-4.00531
0
LINE
8
BLACK
6
CONTINUOUS
10
5.91594
20
-4.00531
11
5.91594
21
-3.98169
0
LINE
8
BLACK
6
CONTINUOUS
10
5.91594
20
-3.98169
11
5.975
21
-3.98169
0
LINE
8
BLACK
6
CONTINUOUS
10
5.975
20
-3.98169
11
5.975
21
-4.00531
0
LINE
8
BLACK
6
CONTINUOUS
10
6.24606
20
-3.97028
11
6.19488
21
-3.97028
0
LINE
8
BLACK
6
CONTINUOUS
10
6.19488
20
-3.97028
11
6.19488
21
-3.93484
0
LINE
8
BLACK
6
CONTINUOUS
10
6.19488
20
-3.93484
11
6.24606
21
-3.93484
0
LINE
8
BLACK
6
CONTINUOUS
10
6.24606
20
-3.93484
11
6.24606
21
-3.97028
0
LINE
8
BLACK
6
CONTINUOUS
10
6.45209
20
-3.961
11
6.39709
21
-3.961
0
LINE
8
BLACK
6
CONTINUOUS
10
6.39709
20
-3.961
11
6.39709
21
-3.926
0
LINE
8
BLACK
6
CONTINUOUS
10
6.39709
20
-3.926
11
6.45209
21
-3.926
0
LINE
8
BLACK
6
CONTINUOUS
10
6.45209
20
-3.926
11
6.45209
21
-3.961
0
LINE
8
BLACK
6
CONTINUOUS
10
5.84508
20
-3.95531
11
5.78602
21
-3.95531
0
LINE
8
BLACK
6
CONTINUOUS
10
5.78602
20
-3.95531
11
5.78602
21
-3.93169
0
LINE
8
BLACK
6
CONTINUOUS
10
5.78602
20
-3.93169
11
5.84508
21
-3.93169
0
LINE
8
BLACK
6
CONTINUOUS
10
5.84508
20
-3.93169
11
5.84508
21
-3.95531
0
LINE
8
BLACK
6
CONTINUOUS
10
5.975
20
-3.95531
11
5.91594
21
-3.95531
0
LINE
8
BLACK
6
CONTINUOUS
10
5.91594
20
-3.95531
11
5.91594
21
-3.93169
0
LINE
8
BLACK
6
CONTINUOUS
10
5.91594
20
-3.93169
11
5.975
21
-3.93169
0
LINE
8
BLACK
6
CONTINUOUS
10
5.975
20
-3.93169
11
5.975
21
-3.95531
0
LINE
8
BLACK
6
CONTINUOUS
10
6.18799
20
-3.87579
11
6.24606
21
-3.87579
0
LINE
8
BLACK
6
CONTINUOUS
10
6.24606
20
-3.87579
11
6.24606
21
-3.91122
0
LINE
8
BLACK
6
CONTINUOUS
10
6.24606
20
-3.91122
11
6.18799
21
-3.91122
0
LINE
8
BLACK
6
CONTINUOUS
10
6.18799
20
-3.91122
11
6.18799
21
-3.92762
0
LINE
8
BLACK
6
CONTINUOUS
10
6.18799
20
-3.92762
11
6.06496
21
-3.92762
0
LINE
8
BLACK
6
CONTINUOUS
10
6.06496
20
-3.92762
11
6.06496
21
-3.85939
0
LINE
8
BLACK
6
CONTINUOUS
10
6.06496
20
-3.85939
11
6.18799
21
-3.85939
0
LINE
8
BLACK
6
CONTINUOUS
10
6.18799
20
-3.85939
11
6.18799
21
-3.87579
0
LINE
8
BLACK
6
CONTINUOUS
10
5.54258
20
-3.82609
11
5.55017
21
-3.82903
0
LINE
8
BLACK
6
CONTINUOUS
10
5.55017
20
-3.82903
11
5.55708
21
-3.83332
0
LINE
8
BLACK
6
CONTINUOUS
10
5.55708
20
-3.83332
11
5.5631
21
-3.8388
0
LINE
8
BLACK
6
CONTINUOUS
10
5.5631
20
-3.8388
11
5.568
21
-3.84529
0
LINE
8
BLACK
6
CONTINUOUS
10
5.568
20
-3.84529
11
5.57163
21
-3.85258
0
LINE
8
BLACK
6
CONTINUOUS
10
5.57163
20
-3.85258
11
5.57386
21
-3.8604
0
LINE
8
BLACK
6
CONTINUOUS
10
5.57386
20
-3.8604
11
5.57461
21
-3.8685
0
LINE
8
BLACK
6
CONTINUOUS
10
5.57461
20
-3.8685
11
5.57386
21
-3.87661
0
LINE
8
BLACK
6
CONTINUOUS
10
5.57386
20
-3.87661
11
5.57163
21
-3.88443
0
LINE
8
BLACK
6
CONTINUOUS
10
5.57163
20
-3.88443
11
5.568
21
-3.89172
0
LINE
8
BLACK
6
CONTINUOUS
10
5.568
20
-3.89172
11
5.5631
21
-3.89821
0
LINE
8
BLACK
6
CONTINUOUS
10
5.5631
20
-3.89821
11
5.55708
21
-3.90369
0
LINE
8
BLACK
6
CONTINUOUS
10
5.55708
20
-3.90369
11
5.55017
21
-3.90798
0
LINE
8
BLACK
6
CONTINUOUS
10
5.55017
20
-3.90798
11
5.54258
21
-3.91092
0
LINE
8
BLACK
6
CONTINUOUS
10
5.54258
20
-3.91092
11
5.53458
21
-3.91241
0
LINE
8
BLACK
6
CONTINUOUS
10
5.53458
20
-3.91241
11
5.52644
21
-3.91241
0
LINE
8
BLACK
6
CONTINUOUS
10
5.52644
20
-3.91241
11
5.51844
21
-3.91092
0
LINE
8
BLACK
6
CONTINUOUS
10
5.51844
20
-3.91092
11
5.51086
21
-3.90798
0
LINE
8
BLACK
6
CONTINUOUS
10
5.51086
20
-3.90798
11
5.50394
21
-3.90369
0
LINE
8
BLACK
6
CONTINUOUS
10
5.50394
20
-3.90369
11
5.49793
21
-3.89821
0
LINE
8
BLACK
6
CONTINUOUS
10
5.49793
20
-3.89821
11
5.49302
21
-3.89172
0
LINE
8
BLACK
6
CONTINUOUS
10
5.49302
20
-3.89172
11
5.48939
21
-3.88443
0
LINE
8
BLACK
6
CONTINUOUS
10
5.48939
20
-3.88443
11
5.48717
21
-3.87661
0
LINE
8
BLACK
6
CONTINUOUS
10
5.48717
20
-3.87661
11
5.48642
21
-3.8685
0
LINE
8
BLACK
6
CONTINUOUS
10
5.48642
20
-3.8685
11
5.48717
21
-3.8604
0
LINE
8
BLACK
6
CONTINUOUS
10
5.48717
20
-3.8604
11
5.48939
21
-3.85258
0
LINE
8
BLACK
6
CONTINUOUS
10
5.48939
20
-3.85258
11
5.49302
21
-3.84529
0
LINE
8
BLACK
6
CONTINUOUS
10
5.49302
20
-3.84529
11
5.49793
21
-3.8388
0
LINE
8
BLACK
6
CONTINUOUS
10
5.49793
20
-3.8388
11
5.50394
21
-3.83332
0
LINE
8
BLACK
6
CONTINUOUS
10
5.50394
20
-3.83332
11
5.51086
21
-3.82903
0
LINE
8
BLACK
6
CONTINUOUS
10
5.51086
20
-3.82903
11
5.51844
21
-3.82609
0
LINE
8
BLACK
6
CONTINUOUS
10
5.51844
20
-3.82609
11
5.52644
21
-3.8246
0
LINE
8
BLACK
6
CONTINUOUS
10
5.52644
20
-3.8246
11
5.53458
21
-3.8246
0
LINE
8
BLACK
6
CONTINUOUS
10
5.53458
20
-3.8246
11
5.54258
21
-3.82609
0
LINE
8
BLACK
6
CONTINUOUS
10
6.64258
20
-3.82609
11
6.65017
21
-3.82903
0
LINE
8
BLACK
6
CONTINUOUS
10
6.65017
20
-3.82903
11
6.65708
21
-3.83332
0
LINE
8
BLACK
6
CONTINUOUS
10
6.65708
20
-3.83332
11
6.6631
21
-3.8388
0
LINE
8
BLACK
6
CONTINUOUS
10
6.6631
20
-3.8388
11
6.668
21
-3.84529
0
LINE
8
BLACK
6
CONTINUOUS
10
6.668
20
-3.84529
11
6.67163
21
-3.85258
0
LINE
8
BLACK
6
CONTINUOUS
10
6.67163
20
-3.85258
11
6.67386
21
-3.8604
0
LINE
8
BLACK
6
CONTINUOUS
10
6.67386
20
-3.8604
11
6.67461
21
-3.8685
0
LINE
8
BLACK
6
CONTINUOUS
10
6.67461
20
-3.8685
11
6.67386
21
-3.87661
0
LINE
8
BLACK
6
CONTINUOUS
10
6.67386
20
-3.87661
11
6.67163
21
-3.88443
0
LINE
8
BLACK
6
CONTINUOUS
10
6.67163
20
-3.88443
11
6.668
21
-3.89172
0
LINE
8
BLACK
6
CONTINUOUS
10
6.668
20
-3.89172
11
6.6631
21
-3.89821
0
LINE
8
BLACK
6
CONTINUOUS
10
6.6631
20
-3.89821
11
6.65708
21
-3.90369
0
LINE
8
BLACK
6
CONTINUOUS
10
6.65708
20
-3.90369
11
6.65017
21
-3.90798
0
LINE
8
BLACK
6
CONTINUOUS
10
6.65017
20
-3.90798
11
6.64258
21
-3.91092
0
LINE
8
BLACK
6
CONTINUOUS
10
6.64258
20
-3.91092
11
6.63458
21
-3.91241
0
LINE
8
BLACK
6
CONTINUOUS
10
6.63458
20
-3.91241
11
6.62644
21
-3.91241
0
LINE
8
BLACK
6
CONTINUOUS
10
6.62644
20
-3.91241
11
6.61844
21
-3.91092
0
LINE
8
BLACK
6
CONTINUOUS
10
6.61844
20
-3.91092
11
6.61086
21
-3.90798
0
LINE
8
BLACK
6
CONTINUOUS
10
6.61086
20
-3.90798
11
6.60394
21
-3.90369
0
LINE
8
BLACK
6
CONTINUOUS
10
6.60394
20
-3.90369
11
6.59793
21
-3.89821
0
LINE
8
BLACK
6
CONTINUOUS
10
6.59793
20
-3.89821
11
6.59302
21
-3.89172
0
LINE
8
BLACK
6
CONTINUOUS
10
6.59302
20
-3.89172
11
6.58939
21
-3.88443
0
LINE
8
BLACK
6
CONTINUOUS
10
6.58939
20
-3.88443
11
6.58717
21
-3.87661
0
LINE
8
BLACK
6
CONTINUOUS
10
6.58717
20
-3.87661
11
6.58642
21
-3.8685
0
LINE
8
BLACK
6
CONTINUOUS
10
6.58642
20
-3.8685
11
6.58717
21
-3.8604
0
LINE
8
BLACK
6
CONTINUOUS
10
6.58717
20
-3.8604
11
6.58939
21
-3.85258
0
LINE
8
BLACK
6
CONTINUOUS
10
6.58939
20
-3.85258
11
6.59302
21
-3.84529
0
LINE
8
BLACK
6
CONTINUOUS
10
6.59302
20
-3.84529
11
6.59793
21
-3.8388
0
LINE
8
BLACK
6
CONTINUOUS
10
6.59793
20
-3.8388
11
6.60394
21
-3.83332
0
LINE
8
BLACK
6
CONTINUOUS
10
6.60394
20
-3.83332
11
6.61086
21
-3.82903
0
LINE
8
BLACK
6
CONTINUOUS
10
6.61086
20
-3.82903
11
6.61844
21
-3.82609
0
LINE
8
BLACK
6
CONTINUOUS
10
6.61844
20
-3.82609
11
6.62644
21
-3.8246
0
LINE
8
BLACK
6
CONTINUOUS
10
6.62644
20
-3.8246
11
6.63458
21
-3.8246
0
LINE
8
BLACK
6
CONTINUOUS
10
6.63458
20
-3.8246
11
6.64258
21
-3.82609
0
LINE
8
BLACK
6
CONTINUOUS
10
6.45209
20
-3.886
11
6.39709
21
-3.886
0
LINE
8
BLACK
6
CONTINUOUS
10
6.39709
20
-3.886
11
6.39709
21
-3.851
0
LINE
8
BLACK
6
CONTINUOUS
10
6.39709
20
-3.851
11
6.45209
21
-3.851
0
LINE
8
BLACK
6
CONTINUOUS
10
6.45209
20
-3.851
11
6.45209
21
-3.886
0
LINE
8
BLACK
6
CONTINUOUS
10
6.24606
20
-3.85217
11
6.19488
21
-3.85217
0
LINE
8
BLACK
6
CONTINUOUS
10
6.19488
20
-3.85217
11
6.19488
21
-3.81673
0
LINE
8
BLACK
6
CONTINUOUS
10
6.19488
20
-3.81673
11
6.24606
21
-3.81673
0
LINE
8
BLACK
6
CONTINUOUS
10
6.24606
20
-3.81673
11
6.24606
21
-3.85217
0
LINE
8
BLACK
6
CONTINUOUS
10
5.87485
20
-3.80695
11
5.83596
21
-3.84584
0
LINE
8
BLACK
6
CONTINUOUS
10
5.83596
20
-3.84584
11
5.81121
21
-3.82109
0
LINE
8
BLACK
6
CONTINUOUS
10
5.81121
20
-3.82109
11
5.8501
21
-3.7822
0
LINE
8
BLACK
6
CONTINUOUS
10
5.8501
20
-3.7822
11
5.87485
21
-3.80695
0
LINE
8
BLACK
6
CONTINUOUS
10
5.94676
20
-3.79054
11
5.94955
21
-3.7924
0
LINE
8
BLACK
6
CONTINUOUS
10
5.94955
20
-3.7924
11
5.95142
21
-3.7952
0
LINE
8
BLACK
6
CONTINUOUS
10
5.95142
20
-3.7952
11
5.95207
21
-3.79849
0
LINE
8
BLACK
6
CONTINUOUS
10
5.95207
20
-3.79849
11
5.95207
21
-3.82851
0
LINE
8
BLACK
6
CONTINUOUS
10
5.95207
20
-3.82851
11
5.95142
21
-3.83181
0
LINE
8
BLACK
6
CONTINUOUS
10
5.95142
20
-3.83181
11
5.94955
21
-3.8346
0
LINE
8
BLACK
6
CONTINUOUS
10
5.94955
20
-3.8346
11
5.94676
21
-3.83647
0
LINE
8
BLACK
6
CONTINUOUS
10
5.94676
20
-3.83647
11
5.94346
21
-3.83713
0
LINE
8
BLACK
6
CONTINUOUS
10
5.94346
20
-3.83713
11
5.92624
21
-3.83713
0
LINE
8
BLACK
6
CONTINUOUS
10
5.92624
20
-3.83713
11
5.92294
21
-3.83647
0
LINE
8
BLACK
6
CONTINUOUS
10
5.92294
20
-3.83647
11
5.92015
21
-3.8346
0
LINE
8
BLACK
6
CONTINUOUS
10
5.92015
20
-3.8346
11
5.91828
21
-3.83181
0
LINE
8
BLACK
6
CONTINUOUS
10
5.91828
20
-3.83181
11
5.91763
21
-3.82851
0
LINE
8
BLACK
6
CONTINUOUS
10
5.91763
20
-3.82851
11
5.91763
21
-3.79849
0
LINE
8
BLACK
6
CONTINUOUS
10
5.91763
20
-3.79849
11
5.91828
21
-3.7952
0
LINE
8
BLACK
6
CONTINUOUS
10
5.91828
20
-3.7952
11
5.92015
21
-3.7924
0
LINE
8
BLACK
6
CONTINUOUS
10
5.92015
20
-3.7924
11
5.92294
21
-3.79054
0
LINE
8
BLACK
6
CONTINUOUS
10
5.92294
20
-3.79054
11
5.92624
21
-3.78988
0
LINE
8
BLACK
6
CONTINUOUS
10
5.92624
20
-3.78988
11
5.94346
21
-3.78988
0
LINE
8
BLACK
6
CONTINUOUS
10
5.94346
20
-3.78988
11
5.94676
21
-3.79054
0
LINE
8
BLACK
6
CONTINUOUS
10
6.03042
20
-3.79054
11
6.03321
21
-3.7924
0
LINE
8
BLACK
6
CONTINUOUS
10
6.03321
20
-3.7924
11
6.03508
21
-3.7952
0
LINE
8
BLACK
6
CONTINUOUS
10
6.03508
20
-3.7952
11
6.03574
21
-3.79849
0
LINE
8
BLACK
6
CONTINUOUS
10
6.03574
20
-3.79849
11
6.03574
21
-3.82851
0
LINE
8
BLACK
6
CONTINUOUS
10
6.03574
20
-3.82851
11
6.03508
21
-3.83181
0
LINE
8
BLACK
6
CONTINUOUS
10
6.03508
20
-3.83181
11
6.03321
21
-3.8346
0
LINE
8
BLACK
6
CONTINUOUS
10
6.03321
20
-3.8346
11
6.03042
21
-3.83647
0
LINE
8
BLACK
6
CONTINUOUS
10
6.03042
20
-3.83647
11
6.02712
21
-3.83713
0
LINE
8
BLACK
6
CONTINUOUS
10
6.02712
20
-3.83713
11
6.0099
21
-3.83713
0
LINE
8
BLACK
6
CONTINUOUS
10
6.0099
20
-3.83713
11
6.0066
21
-3.83647
0
LINE
8
BLACK
6
CONTINUOUS
10
6.0066
20
-3.83647
11
6.00381
21
-3.8346
0
LINE
8
BLACK
6
CONTINUOUS
10
6.00381
20
-3.8346
11
6.00194
21
-3.83181
0
LINE
8
BLACK
6
CONTINUOUS
10
6.00194
20
-3.83181
11
6.00129
21
-3.82851
0
LINE
8
BLACK
6
CONTINUOUS
10
6.00129
20
-3.82851
11
6.00129
21
-3.79849
0
LINE
8
BLACK
6
CONTINUOUS
10
6.00129
20
-3.79849
11
6.00194
21
-3.7952
0
LINE
8
BLACK
6
CONTINUOUS
10
6.00194
20
-3.7952
11
6.00381
21
-3.7924
0
LINE
8
BLACK
6
CONTINUOUS
10
6.00381
20
-3.7924
11
6.0066
21
-3.79054
0
LINE
8
BLACK
6
CONTINUOUS
10
6.0066
20
-3.79054
11
6.0099
21
-3.78988
0
LINE
8
BLACK
6
CONTINUOUS
10
6.0099
20
-3.78988
11
6.02712
21
-3.78988
0
LINE
8
BLACK
6
CONTINUOUS
10
6.02712
20
-3.78988
11
6.03042
21
-3.79054
0
LINE
8
BLACK
6
CONTINUOUS
10
6.36872
20
-3.83548
11
6.31372
21
-3.83548
0
LINE
8
BLACK
6
CONTINUOUS
10
6.31372
20
-3.83548
11
6.31372
21
-3.80048
0
LINE
8
BLACK
6
CONTINUOUS
10
6.31372
20
-3.80048
11
6.36872
21
-3.80048
0
LINE
8
BLACK
6
CONTINUOUS
10
6.36872
20
-3.80048
11
6.36872
21
-3.83548
0
LINE
8
BLACK
6
CONTINUOUS
10
5.44375
20
-3.71622
11
5.45218
21
-3.71911
0
LINE
8
BLACK
6
CONTINUOUS
10
5.45218
20
-3.71911
11
5.46001
21
-3.72335
0
LINE
8
BLACK
6
CONTINUOUS
10
5.46001
20
-3.72335
11
5.46704
21
-3.72882
0
LINE
8
BLACK
6
CONTINUOUS
10
5.46704
20
-3.72882
11
5.47308
21
-3.73538
0
LINE
8
BLACK
6
CONTINUOUS
10
5.47308
20
-3.73538
11
5.47795
21
-3.74283
0
LINE
8
BLACK
6
CONTINUOUS
10
5.47795
20
-3.74283
11
5.48153
21
-3.75099
0
LINE
8
BLACK
6
CONTINUOUS
10
5.48153
20
-3.75099
11
5.48371
21
-3.75963
0
LINE
8
BLACK
6
CONTINUOUS
10
5.48371
20
-3.75963
11
5.48445
21
-3.7685
0
LINE
8
BLACK
6
CONTINUOUS
10
5.48445
20
-3.7685
11
5.48371
21
-3.77738
0
LINE
8
BLACK
6
CONTINUOUS
10
5.48371
20
-3.77738
11
5.48153
21
-3.78602
0
LINE
8
BLACK
6
CONTINUOUS
10
5.48153
20
-3.78602
11
5.47795
21
-3.79418
0
LINE
8
BLACK
6
CONTINUOUS
10
5.47795
20
-3.79418
11
5.47308
21
-3.80163
0
LINE
8
BLACK
6
CONTINUOUS
10
5.47308
20
-3.80163
11
5.46704
21
-3.80819
0
LINE
8
BLACK
6
CONTINUOUS
10
5.46704
20
-3.80819
11
5.46001
21
-3.81366
0
LINE
8
BLACK
6
CONTINUOUS
10
5.46001
20
-3.81366
11
5.45218
21
-3.8179
0
LINE
8
BLACK
6
CONTINUOUS
10
5.45218
20
-3.8179
11
5.44375
21
-3.82079
0
LINE
8
BLACK
6
CONTINUOUS
10
5.44375
20
-3.82079
11
5.43497
21
-3.82226
0
LINE
8
BLACK
6
CONTINUOUS
10
5.43497
20
-3.82226
11
5.42606
21
-3.82226
0
LINE
8
BLACK
6
CONTINUOUS
10
5.42606
20
-3.82226
11
5.41727
21
-3.82079
0
LINE
8
BLACK
6
CONTINUOUS
10
5.41727
20
-3.82079
11
5.40885
21
-3.8179
0
LINE
8
BLACK
6
CONTINUOUS
10
5.40885
20
-3.8179
11
5.40101
21
-3.81366
0
LINE
8
BLACK
6
CONTINUOUS
10
5.40101
20
-3.81366
11
5.39398
21
-3.80819
0
LINE
8
BLACK
6
CONTINUOUS
10
5.39398
20
-3.80819
11
5.38795
21
-3.80163
0
LINE
8
BLACK
6
CONTINUOUS
10
5.38795
20
-3.80163
11
5.38308
21
-3.79418
0
LINE
8
BLACK
6
CONTINUOUS
10
5.38308
20
-3.79418
11
5.3795
21
-3.78602
0
LINE
8
BLACK
6
CONTINUOUS
10
5.3795
20
-3.78602
11
5.37731
21
-3.77738
0
LINE
8
BLACK
6
CONTINUOUS
10
5.37731
20
-3.77738
11
5.37657
21
-3.7685
0
LINE
8
BLACK
6
CONTINUOUS
10
5.37657
20
-3.7685
11
5.37731
21
-3.75963
0
LINE
8
BLACK
6
CONTINUOUS
10
5.37731
20
-3.75963
11
5.3795
21
-3.75099
0
LINE
8
BLACK
6
CONTINUOUS
10
5.3795
20
-3.75099
11
5.38308
21
-3.74283
0
LINE
8
BLACK
6
CONTINUOUS
10
5.38308
20
-3.74283
11
5.38795
21
-3.73538
0
LINE
8
BLACK
6
CONTINUOUS
10
5.38795
20
-3.73538
11
5.39398
21
-3.72882
0
LINE
8
BLACK
6
CONTINUOUS
10
5.39398
20
-3.72882
11
5.40101
21
-3.72335
0
LINE
8
BLACK
6
CONTINUOUS
10
5.40101
20
-3.72335
11
5.40885
21
-3.71911
0
LINE
8
BLACK
6
CONTINUOUS
10
5.40885
20
-3.71911
11
5.41727
21
-3.71622
0
LINE
8
BLACK
6
CONTINUOUS
10
5.41727
20
-3.71622
11
5.42606
21
-3.71475
0
LINE
8
BLACK
6
CONTINUOUS
10
5.42606
20
-3.71475
11
5.43497
21
-3.71475
0
LINE
8
BLACK
6
CONTINUOUS
10
5.43497
20
-3.71475
11
5.44375
21
-3.71622
0
LINE
8
BLACK
6
CONTINUOUS
10
5.64375
20
-3.71622
11
5.65218
21
-3.71911
0
LINE
8
BLACK
6
CONTINUOUS
10
5.65218
20
-3.71911
11
5.66001
21
-3.72335
0
LINE
8
BLACK
6
CONTINUOUS
10
5.66001
20
-3.72335
11
5.66704
21
-3.72882
0
LINE
8
BLACK
6
CONTINUOUS
10
5.66704
20
-3.72882
11
5.67308
21
-3.73538
0
LINE
8
BLACK
6
CONTINUOUS
10
5.67308
20
-3.73538
11
5.67795
21
-3.74283
0
LINE
8
BLACK
6
CONTINUOUS
10
5.67795
20
-3.74283
11
5.68153
21
-3.75099
0
LINE
8
BLACK
6
CONTINUOUS
10
5.68153
20
-3.75099
11
5.68371
21
-3.75963
0
LINE
8
BLACK
6
CONTINUOUS
10
5.68371
20
-3.75963
11
5.68445
21
-3.7685
0
LINE
8
BLACK
6
CONTINUOUS
10
5.68445
20
-3.7685
11
5.68371
21
-3.77738
0
LINE
8
BLACK
6
CONTINUOUS
10
5.68371
20
-3.77738
11
5.68153
21
-3.78602
0
LINE
8
BLACK
6
CONTINUOUS
10
5.68153
20
-3.78602
11
5.67795
21
-3.79418
0
LINE
8
BLACK
6
CONTINUOUS
10
5.67795
20
-3.79418
11
5.67308
21
-3.80163
0
LINE
8
BLACK
6
CONTINUOUS
10
5.67308
20
-3.80163
11
5.66704
21
-3.80819
0
LINE
8
BLACK
6
CONTINUOUS
10
5.66704
20
-3.80819
11
5.66001
21
-3.81366
0
LINE
8
BLACK
6
CONTINUOUS
10
5.66001
20
-3.81366
11
5.65218
21
-3.8179
0
LINE
8
BLACK
6
CONTINUOUS
10
5.65218
20
-3.8179
11
5.64375
21
-3.82079
0
LINE
8
BLACK
6
CONTINUOUS
10
5.64375
20
-3.82079
11
5.63497
21
-3.82226
0
LINE
8
BLACK
6
CONTINUOUS
10
5.63497
20
-3.82226
11
5.62606
21
-3.82226
0
LINE
8
BLACK
6
CONTINUOUS
10
5.62606
20
-3.82226
11
5.61727
21
-3.82079
0
LINE
8
BLACK
6
CONTINUOUS
10
5.61727
20
-3.82079
11
5.60885
21
-3.8179
0
LINE
8
BLACK
6
CONTINUOUS
10
5.60885
20
-3.8179
11
5.60101
21
-3.81366
0
LINE
8
BLACK
6
CONTINUOUS
10
5.60101
20
-3.81366
11
5.59398
21
-3.80819
0
LINE
8
BLACK
6
CONTINUOUS
10
5.59398
20
-3.80819
11
5.58795
21
-3.80163
0
LINE
8
BLACK
6
CONTINUOUS
10
5.58795
20
-3.80163
11
5.58308
21
-3.79418
0
LINE
8
BLACK
6
CONTINUOUS
10
5.58308
20
-3.79418
11
5.5795
21
-3.78602
0
LINE
8
BLACK
6
CONTINUOUS
10
5.5795
20
-3.78602
11
5.57731
21
-3.77738
0
LINE
8
BLACK
6
CONTINUOUS
10
5.57731
20
-3.77738
11
5.57657
21
-3.7685
0
LINE
8
BLACK
6
CONTINUOUS
10
5.57657
20
-3.7685
11
5.57731
21
-3.75963
0
LINE
8
BLACK
6
CONTINUOUS
10
5.57731
20
-3.75963
11
5.5795
21
-3.75099
0
LINE
8
BLACK
6
CONTINUOUS
10
5.5795
20
-3.75099
11
5.58308
21
-3.74283
0
LINE
8
BLACK
6
CONTINUOUS
10
5.58308
20
-3.74283
11
5.58795
21
-3.73538
0
LINE
8
BLACK
6
CONTINUOUS
10
5.58795
20
-3.73538
11
5.59398
21
-3.72882
0
LINE
8
BLACK
6
CONTINUOUS
10
5.59398
20
-3.72882
11
5.60101
21
-3.72335
0
LINE
8
BLACK
6
CONTINUOUS
10
5.60101
20
-3.72335
11
5.60885
21
-3.71911
0
LINE
8
BLACK
6
CONTINUOUS
10
5.60885
20
-3.71911
11
5.61727
21
-3.71622
0
LINE
8
BLACK
6
CONTINUOUS
10
5.61727
20
-3.71622
11
5.62606
21
-3.71475
0
LINE
8
BLACK
6
CONTINUOUS
10
5.62606
20
-3.71475
11
5.63497
21
-3.71475
0
LINE
8
BLACK
6
CONTINUOUS
10
5.63497
20
-3.71475
11
5.64375
21
-3.71622
0
LINE
8
BLACK
6
CONTINUOUS
10
6.54375
20
-3.71622
11
6.55218
21
-3.71911
0
LINE
8
BLACK
6
CONTINUOUS
10
6.55218
20
-3.71911
11
6.56001
21
-3.72335
0
LINE
8
BLACK
6
CONTINUOUS
10
6.56001
20
-3.72335
11
6.56704
21
-3.72882
0
LINE
8
BLACK
6
CONTINUOUS
10
6.56704
20
-3.72882
11
6.57308
21
-3.73538
0
LINE
8
BLACK
6
CONTINUOUS
10
6.57308
20
-3.73538
11
6.57795
21
-3.74283
0
LINE
8
BLACK
6
CONTINUOUS
10
6.57795
20
-3.74283
11
6.58153
21
-3.75099
0
LINE
8
BLACK
6
CONTINUOUS
10
6.58153
20
-3.75099
11
6.58371
21
-3.75963
0
LINE
8
BLACK
6
CONTINUOUS
10
6.58371
20
-3.75963
11
6.58445
21
-3.7685
0
LINE
8
BLACK
6
CONTINUOUS
10
6.58445
20
-3.7685
11
6.58371
21
-3.77738
0
LINE
8
BLACK
6
CONTINUOUS
10
6.58371
20
-3.77738
11
6.58153
21
-3.78602
0
LINE
8
BLACK
6
CONTINUOUS
10
6.58153
20
-3.78602
11
6.57795
21
-3.79418
0
LINE
8
BLACK
6
CONTINUOUS
10
6.57795
20
-3.79418
11
6.57308
21
-3.80163
0
LINE
8
BLACK
6
CONTINUOUS
10
6.57308
20
-3.80163
11
6.56704
21
-3.80819
0
LINE
8
BLACK
6
CONTINUOUS
10
6.56704
20
-3.80819
11
6.56001
21
-3.81366
0
LINE
8
BLACK
6
CONTINUOUS
10
6.56001
20
-3.81366
11
6.55218
21
-3.8179
0
LINE
8
BLACK
6
CONTINUOUS
10
6.55218
20
-3.8179
11
6.54375
21
-3.82079
0
LINE
8
BLACK
6
CONTINUOUS
10
6.54375
20
-3.82079
11
6.53497
21
-3.82226
0
LINE
8
BLACK
6
CONTINUOUS
10
6.53497
20
-3.82226
11
6.52606
21
-3.82226
0
LINE
8
BLACK
6
CONTINUOUS
10
6.52606
20
-3.82226
11
6.51727
21
-3.82079
0
LINE
8
BLACK
6
CONTINUOUS
10
6.51727
20
-3.82079
11
6.50885
21
-3.8179
0
LINE
8
BLACK
6
CONTINUOUS
10
6.50885
20
-3.8179
11
6.50101
21
-3.81366
0
LINE
8
BLACK
6
CONTINUOUS
10
6.50101
20
-3.81366
11
6.49398
21
-3.80819
0
LINE
8
BLACK
6
CONTINUOUS
10
6.49398
20
-3.80819
11
6.48795
21
-3.80163
0
LINE
8
BLACK
6
CONTINUOUS
10
6.48795
20
-3.80163
11
6.48308
21
-3.79418
0
LINE
8
BLACK
6
CONTINUOUS
10
6.48308
20
-3.79418
11
6.4795
21
-3.78602
0
LINE
8
BLACK
6
CONTINUOUS
10
6.4795
20
-3.78602
11
6.47731
21
-3.77738
0
LINE
8
BLACK
6
CONTINUOUS
10
6.47731
20
-3.77738
11
6.47657
21
-3.7685
0
LINE
8
BLACK
6
CONTINUOUS
10
6.47657
20
-3.7685
11
6.47731
21
-3.75963
0
LINE
8
BLACK
6
CONTINUOUS
10
6.47731
20
-3.75963
11
6.4795
21
-3.75099
0
LINE
8
BLACK
6
CONTINUOUS
10
6.4795
20
-3.75099
11
6.48308
21
-3.74283
0
LINE
8
BLACK
6
CONTINUOUS
10
6.48308
20
-3.74283
11
6.48795
21
-3.73538
0
LINE
8
BLACK
6
CONTINUOUS
10
6.48795
20
-3.73538
11
6.49398
21
-3.72882
0
LINE
8
BLACK
6
CONTINUOUS
10
6.49398
20
-3.72882
11
6.50101
21
-3.72335
0
LINE
8
BLACK
6
CONTINUOUS
10
6.50101
20
-3.72335
11
6.50885
21
-3.71911
0
LINE
8
BLACK
6
CONTINUOUS
10
6.50885
20
-3.71911
11
6.51727
21
-3.71622
0
LINE
8
BLACK
6
CONTINUOUS
10
6.51727
20
-3.71622
11
6.52606
21
-3.71475
0
LINE
8
BLACK
6
CONTINUOUS
10
6.52606
20
-3.71475
11
6.53497
21
-3.71475
0
LINE
8
BLACK
6
CONTINUOUS
10
6.53497
20
-3.71475
11
6.54375
21
-3.71622
0
LINE
8
BLACK
6
CONTINUOUS
10
6.74375
20
-3.71622
11
6.75218
21
-3.71911
0
LINE
8
BLACK
6
CONTINUOUS
10
6.75218
20
-3.71911
11
6.76001
21
-3.72335
0
LINE
8
BLACK
6
CONTINUOUS
10
6.76001
20
-3.72335
11
6.76704
21
-3.72882
0
LINE
8
BLACK
6
CONTINUOUS
10
6.76704
20
-3.72882
11
6.77308
21
-3.73538
0
LINE
8
BLACK
6
CONTINUOUS
10
6.77308
20
-3.73538
11
6.77795
21
-3.74283
0
LINE
8
BLACK
6
CONTINUOUS
10
6.77795
20
-3.74283
11
6.78153
21
-3.75099
0
LINE
8
BLACK
6
CONTINUOUS
10
6.78153
20
-3.75099
11
6.78371
21
-3.75963
0
LINE
8
BLACK
6
CONTINUOUS
10
6.78371
20
-3.75963
11
6.78445
21
-3.7685
0
LINE
8
BLACK
6
CONTINUOUS
10
6.78445
20
-3.7685
11
6.78371
21
-3.77738
0
LINE
8
BLACK
6
CONTINUOUS
10
6.78371
20
-3.77738
11
6.78153
21
-3.78602
0
LINE
8
BLACK
6
CONTINUOUS
10
6.78153
20
-3.78602
11
6.77795
21
-3.79418
0
LINE
8
BLACK
6
CONTINUOUS
10
6.77795
20
-3.79418
11
6.77308
21
-3.80163
0
LINE
8
BLACK
6
CONTINUOUS
10
6.77308
20
-3.80163
11
6.76704
21
-3.80819
0
LINE
8
BLACK
6
CONTINUOUS
10
6.76704
20
-3.80819
11
6.76001
21
-3.81366
0
LINE
8
BLACK
6
CONTINUOUS
10
6.76001
20
-3.81366
11
6.75218
21
-3.8179
0
LINE
8
BLACK
6
CONTINUOUS
10
6.75218
20
-3.8179
11
6.74375
21
-3.82079
0
LINE
8
BLACK
6
CONTINUOUS
10
6.74375
20
-3.82079
11
6.73497
21
-3.82226
0
LINE
8
BLACK
6
CONTINUOUS
10
6.73497
20
-3.82226
11
6.72606
21
-3.82226
0
LINE
8
BLACK
6
CONTINUOUS
10
6.72606
20
-3.82226
11
6.71727
21
-3.82079
0
LINE
8
BLACK
6
CONTINUOUS
10
6.71727
20
-3.82079
11
6.70885
21
-3.8179
0
LINE
8
BLACK
6
CONTINUOUS
10
6.70885
20
-3.8179
11
6.70101
21
-3.81366
0
LINE
8
BLACK
6
CONTINUOUS
10
6.70101
20
-3.81366
11
6.69398
21
-3.80819
0
LINE
8
BLACK
6
CONTINUOUS
10
6.69398
20
-3.80819
11
6.68795
21
-3.80163
0
LINE
8
BLACK
6
CONTINUOUS
10
6.68795
20
-3.80163
11
6.68308
21
-3.79418
0
LINE
8
BLACK
6
CONTINUOUS
10
6.68308
20
-3.79418
11
6.6795
21
-3.78602
0
LINE
8
BLACK
6
CONTINUOUS
10
6.6795
20
-3.78602
11
6.67731
21
-3.77738
0
LINE
8
BLACK
6
CONTINUOUS
10
6.67731
20
-3.77738
11
6.67657
21
-3.7685
0
LINE
8
BLACK
6
CONTINUOUS
10
6.67657
20
-3.7685
11
6.67731
21
-3.75963
0
LINE
8
BLACK
6
CONTINUOUS
10
6.67731
20
-3.75963
11
6.6795
21
-3.75099
0
LINE
8
BLACK
6
CONTINUOUS
10
6.6795
20
-3.75099
11
6.68308
21
-3.74283
0
LINE
8
BLACK
6
CONTINUOUS
10
6.68308
20
-3.74283
11
6.68795
21
-3.73538
0
LINE
8
BLACK
6
CONTINUOUS
10
6.68795
20
-3.73538
11
6.69398
21
-3.72882
0
LINE
8
BLACK
6
CONTINUOUS
10
6.69398
20
-3.72882
11
6.70101
21
-3.72335
0
LINE
8
BLACK
6
CONTINUOUS
10
6.70101
20
-3.72335
11
6.70885
21
-3.71911
0
LINE
8
BLACK
6
CONTINUOUS
10
6.70885
20
-3.71911
11
6.71727
21
-3.71622
0
LINE
8
BLACK
6
CONTINUOUS
10
6.71727
20
-3.71622
11
6.72606
21
-3.71475
0
LINE
8
BLACK
6
CONTINUOUS
10
6.72606
20
-3.71475
11
6.73497
21
-3.71475
0
LINE
8
BLACK
6
CONTINUOUS
10
6.73497
20
-3.71475
11
6.74375
21
-3.71622
0
LINE
8
BLACK
6
CONTINUOUS
10
5.82182
20
-3.75392
11
5.78292
21
-3.79281
0
LINE
8
BLACK
6
CONTINUOUS
10
5.78292
20
-3.79281
11
5.75818
21
-3.76806
0
LINE
8
BLACK
6
CONTINUOUS
10
5.75818
20
-3.76806
11
5.79707
21
-3.72917
0
LINE
8
BLACK
6
CONTINUOUS
10
5.79707
20
-3.72917
11
5.82182
21
-3.75392
0
LINE
8
BLACK
6
CONTINUOUS
10
6.36872
20
-3.76048
11
6.31372
21
-3.76048
0
LINE
8
BLACK
6
CONTINUOUS
10
6.31372
20
-3.76048
11
6.31372
21
-3.72548
0
LINE
8
BLACK
6
CONTINUOUS
10
6.31372
20
-3.72548
11
6.36872
21
-3.72548
0
LINE
8
BLACK
6
CONTINUOUS
10
6.36872
20
-3.72548
11
6.36872
21
-3.76048
0
LINE
8
BLACK
6
CONTINUOUS
10
5.98301
20
-3.736
11
5.92801
21
-3.736
0
LINE
8
BLACK
6
CONTINUOUS
10
5.92801
20
-3.736
11
5.92801
21
-3.701
0
LINE
8
BLACK
6
CONTINUOUS
10
5.92801
20
-3.701
11
5.98301
21
-3.701
0
LINE
8
BLACK
6
CONTINUOUS
10
5.98301
20
-3.701
11
5.98301
21
-3.736
0
LINE
8
BLACK
6
CONTINUOUS
10
6.20801
20
-3.736
11
6.15301
21
-3.736
0
LINE
8
BLACK
6
CONTINUOUS
10
6.15301
20
-3.736
11
6.15301
21
-3.701
0
LINE
8
BLACK
6
CONTINUOUS
10
6.15301
20
-3.701
11
6.20801
21
-3.701
0
LINE
8
BLACK
6
CONTINUOUS
10
6.20801
20
-3.701
11
6.20801
21
-3.736
0
LINE
8
BLACK
6
CONTINUOUS
10
5.80591
20
-3.67697
11
5.78031
21
-3.67697
0
LINE
8
BLACK
6
CONTINUOUS
10
5.78031
20
-3.67697
11
5.78031
21
-3.66122
0
LINE
8
BLACK
6
CONTINUOUS
10
5.78031
20
-3.66122
11
5.80591
21
-3.66122
0
LINE
8
BLACK
6
CONTINUOUS
10
5.80591
20
-3.66122
11
5.80591
21
-3.67697
0
LINE
8
BLACK
6
CONTINUOUS
10
5.88071
20
-3.67697
11
5.85512
21
-3.67697
0
LINE
8
BLACK
6
CONTINUOUS
10
5.85512
20
-3.67697
11
5.85512
21
-3.66122
0
LINE
8
BLACK
6
CONTINUOUS
10
5.85512
20
-3.66122
11
5.88071
21
-3.66122
0
LINE
8
BLACK
6
CONTINUOUS
10
5.88071
20
-3.66122
11
5.88071
21
-3.67697
0
LINE
8
BLACK
6
CONTINUOUS
10
6.28091
20
-3.67697
11
6.25531
21
-3.67697
0
LINE
8
BLACK
6
CONTINUOUS
10
6.25531
20
-3.67697
11
6.25531
21
-3.66122
0
LINE
8
BLACK
6
CONTINUOUS
10
6.25531
20
-3.66122
11
6.28091
21
-3.66122
0
LINE
8
BLACK
6
CONTINUOUS
10
6.28091
20
-3.66122
11
6.28091
21
-3.67697
0
LINE
8
BLACK
6
CONTINUOUS
10
6.35571
20
-3.67697
11
6.33012
21
-3.67697
0
LINE
8
BLACK
6
CONTINUOUS
10
6.33012
20
-3.67697
11
6.33012
21
-3.66122
0
LINE
8
BLACK
6
CONTINUOUS
10
6.33012
20
-3.66122
11
6.35571
21
-3.66122
0
LINE
8
BLACK
6
CONTINUOUS
10
6.35571
20
-3.66122
11
6.35571
21
-3.67697
0
LINE
8
BLACK
6
CONTINUOUS
10
6.04801
20
-3.671
11
6.01301
21
-3.671
0
LINE
8
BLACK
6
CONTINUOUS
10
6.01301
20
-3.671
11
6.01301
21
-3.616
0
LINE
8
BLACK
6
CONTINUOUS
10
6.01301
20
-3.616
11
6.04801
21
-3.616
0
LINE
8
BLACK
6
CONTINUOUS
10
6.04801
20
-3.616
11
6.04801
21
-3.671
0
LINE
8
BLACK
6
CONTINUOUS
10
6.12301
20
-3.671
11
6.08801
21
-3.671
0
LINE
8
BLACK
6
CONTINUOUS
10
6.08801
20
-3.671
11
6.08801
21
-3.616
0
LINE
8
BLACK
6
CONTINUOUS
10
6.08801
20
-3.616
11
6.12301
21
-3.616
0
LINE
8
BLACK
6
CONTINUOUS
10
6.12301
20
-3.616
11
6.12301
21
-3.671
0
LINE
8
BLACK
6
CONTINUOUS
10
5.98301
20
-3.661
11
5.92801
21
-3.661
0
LINE
8
BLACK
6
CONTINUOUS
10
5.92801
20
-3.661
11
5.92801
21
-3.626
0
LINE
8
BLACK
6
CONTINUOUS
10
5.92801
20
-3.626
11
5.98301
21
-3.626
0
LINE
8
BLACK
6
CONTINUOUS
10
5.98301
20
-3.626
11
5.98301
21
-3.661
0
LINE
8
BLACK
6
CONTINUOUS
10
6.20801
20
-3.661
11
6.15301
21
-3.661
0
LINE
8
BLACK
6
CONTINUOUS
10
6.15301
20
-3.661
11
6.15301
21
-3.626
0
LINE
8
BLACK
6
CONTINUOUS
10
6.15301
20
-3.626
11
6.20801
21
-3.626
0
LINE
8
BLACK
6
CONTINUOUS
10
6.20801
20
-3.626
11
6.20801
21
-3.661
0
LINE
8
BLACK
6
CONTINUOUS
10
5.80591
20
-3.65138
11
5.78031
21
-3.65138
0
LINE
8
BLACK
6
CONTINUOUS
10
5.78031
20
-3.65138
11
5.78031
21
-3.63563
0
LINE
8
BLACK
6
CONTINUOUS
10
5.78031
20
-3.63563
11
5.80591
21
-3.63563
0
LINE
8
BLACK
6
CONTINUOUS
10
5.80591
20
-3.63563
11
5.80591
21
-3.65138
0
LINE
8
BLACK
6
CONTINUOUS
10
5.88071
20
-3.65138
11
5.85512
21
-3.65138
0
LINE
8
BLACK
6
CONTINUOUS
10
5.85512
20
-3.65138
11
5.85512
21
-3.63563
0
LINE
8
BLACK
6
CONTINUOUS
10
5.85512
20
-3.63563
11
5.88071
21
-3.63563
0
LINE
8
BLACK
6
CONTINUOUS
10
5.88071
20
-3.63563
11
5.88071
21
-3.65138
0
LINE
8
BLACK
6
CONTINUOUS
10
6.28091
20
-3.65138
11
6.25531
21
-3.65138
0
LINE
8
BLACK
6
CONTINUOUS
10
6.25531
20
-3.65138
11
6.25531
21
-3.63563
0
LINE
8
BLACK
6
CONTINUOUS
10
6.25531
20
-3.63563
11
6.28091
21
-3.63563
0
LINE
8
BLACK
6
CONTINUOUS
10
6.28091
20
-3.63563
11
6.28091
21
-3.65138
0
LINE
8
BLACK
6
CONTINUOUS
10
6.35571
20
-3.65138
11
6.33012
21
-3.65138
0
LINE
8
BLACK
6
CONTINUOUS
10
6.33012
20
-3.65138
11
6.33012
21
-3.63563
0
LINE
8
BLACK
6
CONTINUOUS
10
6.33012
20
-3.63563
11
6.35571
21
-3.63563
0
LINE
8
BLACK
6
CONTINUOUS
10
6.35571
20
-3.63563
11
6.35571
21
-3.65138
0
LINE
8
BLACK
6
CONTINUOUS
10
5.80591
20
-3.62579
11
5.78031
21
-3.62579
0
LINE
8
BLACK
6
CONTINUOUS
10
5.78031
20
-3.62579
11
5.78031
21
-3.61004
0
LINE
8
BLACK
6
CONTINUOUS
10
5.78031
20
-3.61004
11
5.80591
21
-3.61004
0
LINE
8
BLACK
6
CONTINUOUS
10
5.80591
20
-3.61004
11
5.80591
21
-3.62579
0
LINE
8
BLACK
6
CONTINUOUS
10
5.88071
20
-3.62579
11
5.85512
21
-3.62579
0
LINE
8
BLACK
6
CONTINUOUS
10
5.85512
20
-3.62579
11
5.85512
21
-3.61004
0
LINE
8
BLACK
6
CONTINUOUS
10
5.85512
20
-3.61004
11
5.88071
21
-3.61004
0
LINE
8
BLACK
6
CONTINUOUS
10
5.88071
20
-3.61004
11
5.88071
21
-3.62579
0
LINE
8
BLACK
6
CONTINUOUS
10
6.28091
20
-3.62579
11
6.25531
21
-3.62579
0
LINE
8
BLACK
6
CONTINUOUS
10
6.25531
20
-3.62579
11
6.25531
21
-3.61004
0
LINE
8
BLACK
6
CONTINUOUS
10
6.25531
20
-3.61004
11
6.28091
21
-3.61004
0
LINE
8
BLACK
6
CONTINUOUS
10
6.28091
20
-3.61004
11
6.28091
21
-3.62579
0
LINE
8
BLACK
6
CONTINUOUS
10
6.35571
20
-3.62579
11
6.33012
21
-3.62579
0
LINE
8
BLACK
6
CONTINUOUS
10
6.33012
20
-3.62579
11
6.33012
21
-3.61004
0
LINE
8
BLACK
6
CONTINUOUS
10
6.33012
20
-3.61004
11
6.35571
21
-3.61004
0
LINE
8
BLACK
6
CONTINUOUS
10
6.35571
20
-3.61004
11
6.35571
21
-3.62579
0
LINE
8
BLACK
6
CONTINUOUS
10
5.44375
20
-3.46622
11
5.45218
21
-3.46911
0
LINE
8
BLACK
6
CONTINUOUS
10
5.45218
20
-3.46911
11
5.46001
21
-3.47335
0
LINE
8
BLACK
6
CONTINUOUS
10
5.46001
20
-3.47335
11
5.46704
21
-3.47882
0
LINE
8
BLACK
6
CONTINUOUS
10
5.46704
20
-3.47882
11
5.47308
21
-3.48538
0
LINE
8
BLACK
6
CONTINUOUS
10
5.47308
20
-3.48538
11
5.47795
21
-3.49283
0
LINE
8
BLACK
6
CONTINUOUS
10
5.47795
20
-3.49283
11
5.48153
21
-3.50099
0
LINE
8
BLACK
6
CONTINUOUS
10
5.48153
20
-3.50099
11
5.48371
21
-3.50963
0
LINE
8
BLACK
6
CONTINUOUS
10
5.48371
20
-3.50963
11
5.48445
21
-3.5185
0
LINE
8
BLACK
6
CONTINUOUS
10
5.48445
20
-3.5185
11
5.48371
21
-3.52738
0
LINE
8
BLACK
6
CONTINUOUS
10
5.48371
20
-3.52738
11
5.48153
21
-3.53602
0
LINE
8
BLACK
6
CONTINUOUS
10
5.48153
20
-3.53602
11
5.47795
21
-3.54418
0
LINE
8
BLACK
6
CONTINUOUS
10
5.47795
20
-3.54418
11
5.47308
21
-3.55163
0
LINE
8
BLACK
6
CONTINUOUS
10
5.47308
20
-3.55163
11
5.46704
21
-3.55819
0
LINE
8
BLACK
6
CONTINUOUS
10
5.46704
20
-3.55819
11
5.46001
21
-3.56366
0
LINE
8
BLACK
6
CONTINUOUS
10
5.46001
20
-3.56366
11
5.45218
21
-3.5679
0
LINE
8
BLACK
6
CONTINUOUS
10
5.45218
20
-3.5679
11
5.44375
21
-3.57079
0
LINE
8
BLACK
6
CONTINUOUS
10
5.44375
20
-3.57079
11
5.43497
21
-3.57226
0
LINE
8
BLACK
6
CONTINUOUS
10
5.43497
20
-3.57226
11
5.42606
21
-3.57226
0
LINE
8
BLACK
6
CONTINUOUS
10
5.42606
20
-3.57226
11
5.41727
21
-3.57079
0
LINE
8
BLACK
6
CONTINUOUS
10
5.41727
20
-3.57079
11
5.40885
21
-3.5679
0
LINE
8
BLACK
6
CONTINUOUS
10
5.40885
20
-3.5679
11
5.40101
21
-3.56366
0
LINE
8
BLACK
6
CONTINUOUS
10
5.40101
20
-3.56366
11
5.39398
21
-3.55819
0
LINE
8
BLACK
6
CONTINUOUS
10
5.39398
20
-3.55819
11
5.38795
21
-3.55163
0
LINE
8
BLACK
6
CONTINUOUS
10
5.38795
20
-3.55163
11
5.38308
21
-3.54418
0
LINE
8
BLACK
6
CONTINUOUS
10
5.38308
20
-3.54418
11
5.3795
21
-3.53602
0
LINE
8
BLACK
6
CONTINUOUS
10
5.3795
20
-3.53602
11
5.37731
21
-3.52738
0
LINE
8
BLACK
6
CONTINUOUS
10
5.37731
20
-3.52738
11
5.37657
21
-3.5185
0
LINE
8
BLACK
6
CONTINUOUS
10
5.37657
20
-3.5185
11
5.37731
21
-3.50963
0
LINE
8
BLACK
6
CONTINUOUS
10
5.37731
20
-3.50963
11
5.3795
21
-3.50099
0
LINE
8
BLACK
6
CONTINUOUS
10
5.3795
20
-3.50099
11
5.38308
21
-3.49283
0
LINE
8
BLACK
6
CONTINUOUS
10
5.38308
20
-3.49283
11
5.38795
21
-3.48538
0
LINE
8
BLACK
6
CONTINUOUS
10
5.38795
20
-3.48538
11
5.39398
21
-3.47882
0
LINE
8
BLACK
6
CONTINUOUS
10
5.39398
20
-3.47882
11
5.40101
21
-3.47335
0
LINE
8
BLACK
6
CONTINUOUS
10
5.40101
20
-3.47335
11
5.40885
21
-3.46911
0
LINE
8
BLACK
6
CONTINUOUS
10
5.40885
20
-3.46911
11
5.41727
21
-3.46622
0
LINE
8
BLACK
6
CONTINUOUS
10
5.41727
20
-3.46622
11
5.42606
21
-3.46475
0
LINE
8
BLACK
6
CONTINUOUS
10
5.42606
20
-3.46475
11
5.43497
21
-3.46475
0
LINE
8
BLACK
6
CONTINUOUS
10
5.43497
20
-3.46475
11
5.44375
21
-3.46622
0
LINE
8
BLACK
6
CONTINUOUS
10
5.64375
20
-3.46622
11
5.65218
21
-3.46911
0
LINE
8
BLACK
6
CONTINUOUS
10
5.65218
20
-3.46911
11
5.66001
21
-3.47335
0
LINE
8
BLACK
6
CONTINUOUS
10
5.66001
20
-3.47335
11
5.66704
21
-3.47882
0
LINE
8
BLACK
6
CONTINUOUS
10
5.66704
20
-3.47882
11
5.67308
21
-3.48538
0
LINE
8
BLACK
6
CONTINUOUS
10
5.67308
20
-3.48538
11
5.67795
21
-3.49283
0
LINE
8
BLACK
6
CONTINUOUS
10
5.67795
20
-3.49283
11
5.68153
21
-3.50099
0
LINE
8
BLACK
6
CONTINUOUS
10
5.68153
20
-3.50099
11
5.68371
21
-3.50963
0
LINE
8
BLACK
6
CONTINUOUS
10
5.68371
20
-3.50963
11
5.68445
21
-3.5185
0
LINE
8
BLACK
6
CONTINUOUS
10
5.68445
20
-3.5185
11
5.68371
21
-3.52738
0
LINE
8
BLACK
6
CONTINUOUS
10
5.68371
20
-3.52738
11
5.68153
21
-3.53602
0
LINE
8
BLACK
6
CONTINUOUS
10
5.68153
20
-3.53602
11
5.67795
21
-3.54418
0
LINE
8
BLACK
6
CONTINUOUS
10
5.67795
20
-3.54418
11
5.67308
21
-3.55163
0
LINE
8
BLACK
6
CONTINUOUS
10
5.67308
20
-3.55163
11
5.66704
21
-3.55819
0
LINE
8
BLACK
6
CONTINUOUS
10
5.66704
20
-3.55819
11
5.66001
21
-3.56366
0
LINE
8
BLACK
6
CONTINUOUS
10
5.66001
20
-3.56366
11
5.65218
21
-3.5679
0
LINE
8
BLACK
6
CONTINUOUS
10
5.65218
20
-3.5679
11
5.64375
21
-3.57079
0
LINE
8
BLACK
6
CONTINUOUS
10
5.64375
20
-3.57079
11
5.63497
21
-3.57226
0
LINE
8
BLACK
6
CONTINUOUS
10
5.63497
20
-3.57226
11
5.62606
21
-3.57226
0
LINE
8
BLACK
6
CONTINUOUS
10
5.62606
20
-3.57226
11
5.61727
21
-3.57079
0
LINE
8
BLACK
6
CONTINUOUS
10
5.61727
20
-3.57079
11
5.60885
21
-3.5679
0
LINE
8
BLACK
6
CONTINUOUS
10
5.60885
20
-3.5679
11
5.60101
21
-3.56366
0
LINE
8
BLACK
6
CONTINUOUS
10
5.60101
20
-3.56366
11
5.59398
21
-3.55819
0
LINE
8
BLACK
6
CONTINUOUS
10
5.59398
20
-3.55819
11
5.58795
21
-3.55163
0
LINE
8
BLACK
6
CONTINUOUS
10
5.58795
20
-3.55163
11
5.58308
21
-3.54418
0
LINE
8
BLACK
6
CONTINUOUS
10
5.58308
20
-3.54418
11
5.5795
21
-3.53602
0
LINE
8
BLACK
6
CONTINUOUS
10
5.5795
20
-3.53602
11
5.57731
21
-3.52738
0
LINE
8
BLACK
6
CONTINUOUS
10
5.57731
20
-3.52738
11
5.57657
21
-3.5185
0
LINE
8
BLACK
6
CONTINUOUS
10
5.57657
20
-3.5185
11
5.57731
21
-3.50963
0
LINE
8
BLACK
6
CONTINUOUS
10
5.57731
20
-3.50963
11
5.5795
21
-3.50099
0
LINE
8
BLACK
6
CONTINUOUS
10
5.5795
20
-3.50099
11
5.58308
21
-3.49283
0
LINE
8
BLACK
6
CONTINUOUS
10
5.58308
20
-3.49283
11
5.58795
21
-3.48538
0
LINE
8
BLACK
6
CONTINUOUS
10
5.58795
20
-3.48538
11
5.59398
21
-3.47882
0
LINE
8
BLACK
6
CONTINUOUS
10
5.59398
20
-3.47882
11
5.60101
21
-3.47335
0
LINE
8
BLACK
6
CONTINUOUS
10
5.60101
20
-3.47335
11
5.60885
21
-3.46911
0
LINE
8
BLACK
6
CONTINUOUS
10
5.60885
20
-3.46911
11
5.61727
21
-3.46622
0
LINE
8
BLACK
6
CONTINUOUS
10
5.61727
20
-3.46622
11
5.62606
21
-3.46475
0
LINE
8
BLACK
6
CONTINUOUS
10
5.62606
20
-3.46475
11
5.63497
21
-3.46475
0
LINE
8
BLACK
6
CONTINUOUS
10
5.63497
20
-3.46475
11
5.64375
21
-3.46622
0
LINE
8
BLACK
6
CONTINUOUS
10
6.54375
20
-3.46622
11
6.55218
21
-3.46911
0
LINE
8
BLACK
6
CONTINUOUS
10
6.55218
20
-3.46911
11
6.56001
21
-3.47335
0
LINE
8
BLACK
6
CONTINUOUS
10
6.56001
20
-3.47335
11
6.56704
21
-3.47882
0
LINE
8
BLACK
6
CONTINUOUS
10
6.56704
20
-3.47882
11
6.57308
21
-3.48538
0
LINE
8
BLACK
6
CONTINUOUS
10
6.57308
20
-3.48538
11
6.57795
21
-3.49283
0
LINE
8
BLACK
6
CONTINUOUS
10
6.57795
20
-3.49283
11
6.58153
21
-3.50099
0
LINE
8
BLACK
6
CONTINUOUS
10
6.58153
20
-3.50099
11
6.58371
21
-3.50963
0
LINE
8
BLACK
6
CONTINUOUS
10
6.58371
20
-3.50963
11
6.58445
21
-3.5185
0
LINE
8
BLACK
6
CONTINUOUS
10
6.58445
20
-3.5185
11
6.58371
21
-3.52738
0
LINE
8
BLACK
6
CONTINUOUS
10
6.58371
20
-3.52738
11
6.58153
21
-3.53602
0
LINE
8
BLACK
6
CONTINUOUS
10
6.58153
20
-3.53602
11
6.57795
21
-3.54418
0
LINE
8
BLACK
6
CONTINUOUS
10
6.57795
20
-3.54418
11
6.57308
21
-3.55163
0
LINE
8
BLACK
6
CONTINUOUS
10
6.57308
20
-3.55163
11
6.56704
21
-3.55819
0
LINE
8
BLACK
6
CONTINUOUS
10
6.56704
20
-3.55819
11
6.56001
21
-3.56366
0
LINE
8
BLACK
6
CONTINUOUS
10
6.56001
20
-3.56366
11
6.55218
21
-3.5679
0
LINE
8
BLACK
6
CONTINUOUS
10
6.55218
20
-3.5679
11
6.54375
21
-3.57079
0
LINE
8
BLACK
6
CONTINUOUS
10
6.54375
20
-3.57079
11
6.53497
21
-3.57226
0
LINE
8
BLACK
6
CONTINUOUS
10
6.53497
20
-3.57226
11
6.52606
21
-3.57226
0
LINE
8
BLACK
6
CONTINUOUS
10
6.52606
20
-3.57226
11
6.51727
21
-3.57079
0
LINE
8
BLACK
6
CONTINUOUS
10
6.51727
20
-3.57079
11
6.50885
21
-3.5679
0
LINE
8
BLACK
6
CONTINUOUS
10
6.50885
20
-3.5679
11
6.50101
21
-3.56366
0
LINE
8
BLACK
6
CONTINUOUS
10
6.50101
20
-3.56366
11
6.49398
21
-3.55819
0
LINE
8
BLACK
6
CONTINUOUS
10
6.49398
20
-3.55819
11
6.48795
21
-3.55163
0
LINE
8
BLACK
6
CONTINUOUS
10
6.48795
20
-3.55163
11
6.48308
21
-3.54418
0
LINE
8
BLACK
6
CONTINUOUS
10
6.48308
20
-3.54418
11
6.4795
21
-3.53602
0
LINE
8
BLACK
6
CONTINUOUS
10
6.4795
20
-3.53602
11
6.47731
21
-3.52738
0
LINE
8
BLACK
6
CONTINUOUS
10
6.47731
20
-3.52738
11
6.47657
21
-3.5185
0
LINE
8
BLACK
6
CONTINUOUS
10
6.47657
20
-3.5185
11
6.47731
21
-3.50963
0
LINE
8
BLACK
6
CONTINUOUS
10
6.47731
20
-3.50963
11
6.4795
21
-3.50099
0
LINE
8
BLACK
6
CONTINUOUS
10
6.4795
20
-3.50099
11
6.48308
21
-3.49283
0
LINE
8
BLACK
6
CONTINUOUS
10
6.48308
20
-3.49283
11
6.48795
21
-3.48538
0
LINE
8
BLACK
6
CONTINUOUS
10
6.48795
20
-3.48538
11
6.49398
21
-3.47882
0
LINE
8
BLACK
6
CONTINUOUS
10
6.49398
20
-3.47882
11
6.50101
21
-3.47335
0
LINE
8
BLACK
6
CONTINUOUS
10
6.50101
20
-3.47335
11
6.50885
21
-3.46911
0
LINE
8
BLACK
6
CONTINUOUS
10
6.50885
20
-3.46911
11
6.51727
21
-3.46622
0
LINE
8
BLACK
6
CONTINUOUS
10
6.51727
20
-3.46622
11
6.52606
21
-3.46475
0
LINE
8
BLACK
6
CONTINUOUS
10
6.52606
20
-3.46475
11
6.53497
21
-3.46475
0
LINE
8
BLACK
6
CONTINUOUS
10
6.53497
20
-3.46475
11
6.54375
21
-3.46622
0
LINE
8
BLACK
6
CONTINUOUS
10
6.74375
20
-3.46622
11
6.75218
21
-3.46911
0
LINE
8
BLACK
6
CONTINUOUS
10
6.75218
20
-3.46911
11
6.76001
21
-3.47335
0
LINE
8
BLACK
6
CONTINUOUS
10
6.76001
20
-3.47335
11
6.76704
21
-3.47882
0
LINE
8
BLACK
6
CONTINUOUS
10
6.76704
20
-3.47882
11
6.77308
21
-3.48538
0
LINE
8
BLACK
6
CONTINUOUS
10
6.77308
20
-3.48538
11
6.77795
21
-3.49283
0
LINE
8
BLACK
6
CONTINUOUS
10
6.77795
20
-3.49283
11
6.78153
21
-3.50099
0
LINE
8
BLACK
6
CONTINUOUS
10
6.78153
20
-3.50099
11
6.78371
21
-3.50963
0
LINE
8
BLACK
6
CONTINUOUS
10
6.78371
20
-3.50963
11
6.78445
21
-3.5185
0
LINE
8
BLACK
6
CONTINUOUS
10
6.78445
20
-3.5185
11
6.78371
21
-3.52738
0
LINE
8
BLACK
6
CONTINUOUS
10
6.78371
20
-3.52738
11
6.78153
21
-3.53602
0
LINE
8
BLACK
6
CONTINUOUS
10
6.78153
20
-3.53602
11
6.77795
21
-3.54418
0
LINE
8
BLACK
6
CONTINUOUS
10
6.77795
20
-3.54418
11
6.77308
21
-3.55163
0
LINE
8
BLACK
6
CONTINUOUS
10
6.77308
20
-3.55163
11
6.76704
21
-3.55819
0
LINE
8
BLACK
6
CONTINUOUS
10
6.76704
20
-3.55819
11
6.76001
21
-3.56366
0
LINE
8
BLACK
6
CONTINUOUS
10
6.76001
20
-3.56366
11
6.75218
21
-3.5679
0
LINE
8
BLACK
6
CONTINUOUS
10
6.75218
20
-3.5679
11
6.74375
21
-3.57079
0
LINE
8
BLACK
6
CONTINUOUS
10
6.74375
20
-3.57079
11
6.73497
21
-3.57226
0
LINE
8
BLACK
6
CONTINUOUS
10
6.73497
20
-3.57226
11
6.72606
21
-3.57226
0
LINE
8
BLACK
6
CONTINUOUS
10
6.72606
20
-3.57226
11
6.71727
21
-3.57079
0
LINE
8
BLACK
6
CONTINUOUS
10
6.71727
20
-3.57079
11
6.70885
21
-3.5679
0
LINE
8
BLACK
6
CONTINUOUS
10
6.70885
20
-3.5679
11
6.70101
21
-3.56366
0
LINE
8
BLACK
6
CONTINUOUS
10
6.70101
20
-3.56366
11
6.69398
21
-3.55819
0
LINE
8
BLACK
6
CONTINUOUS
10
6.69398
20
-3.55819
11
6.68795
21
-3.55163
0
LINE
8
BLACK
6
CONTINUOUS
10
6.68795
20
-3.55163
11
6.68308
21
-3.54418
0
LINE
8
BLACK
6
CONTINUOUS
10
6.68308
20
-3.54418
11
6.6795
21
-3.53602
0
LINE
8
BLACK
6
CONTINUOUS
10
6.6795
20
-3.53602
11
6.67731
21
-3.52738
0
LINE
8
BLACK
6
CONTINUOUS
10
6.67731
20
-3.52738
11
6.67657
21
-3.5185
0
LINE
8
BLACK
6
CONTINUOUS
10
6.67657
20
-3.5185
11
6.67731
21
-3.50963
0
LINE
8
BLACK
6
CONTINUOUS
10
6.67731
20
-3.50963
11
6.6795
21
-3.50099
0
LINE
8
BLACK
6
CONTINUOUS
10
6.6795
20
-3.50099
11
6.68308
21
-3.49283
0
LINE
8
BLACK
6
CONTINUOUS
10
6.68308
20
-3.49283
11
6.68795
21
-3.48538
0
LINE
8
BLACK
6
CONTINUOUS
10
6.68795
20
-3.48538
11
6.69398
21
-3.47882
0
LINE
8
BLACK
6
CONTINUOUS
10
6.69398
20
-3.47882
11
6.70101
21
-3.47335
0
LINE
8
BLACK
6
CONTINUOUS
10
6.70101
20
-3.47335
11
6.70885
21
-3.46911
0
LINE
8
BLACK
6
CONTINUOUS
10
6.70885
20
-3.46911
11
6.71727
21
-3.46622
0
LINE
8
BLACK
6
CONTINUOUS
10
6.71727
20
-3.46622
11
6.72606
21
-3.46475
0
LINE
8
BLACK
6
CONTINUOUS
10
6.72606
20
-3.46475
11
6.73497
21
-3.46475
0
LINE
8
BLACK
6
CONTINUOUS
10
6.73497
20
-3.46475
11
6.74375
21
-3.46622
0
LINE
8
BLACK
6
CONTINUOUS
10
6.36825
20
-3.56379
11
6.31325
21
-3.56379
0
LINE
8
BLACK
6
CONTINUOUS
10
6.31325
20
-3.56379
11
6.31325
21
-3.52879
0
LINE
8
BLACK
6
CONTINUOUS
10
6.31325
20
-3.52879
11
6.36825
21
-3.52879
0
LINE
8
BLACK
6
CONTINUOUS
10
6.36825
20
-3.52879
11
6.36825
21
-3.56379
0
LINE
8
BLACK
6
CONTINUOUS
10
6.36825
20
-3.48879
11
6.31325
21
-3.48879
0
LINE
8
BLACK
6
CONTINUOUS
10
6.31325
20
-3.48879
11
6.31325
21
-3.45379
0
LINE
8
BLACK
6
CONTINUOUS
10
6.31325
20
-3.45379
11
6.36825
21
-3.45379
0
LINE
8
BLACK
6
CONTINUOUS
10
6.36825
20
-3.45379
11
6.36825
21
-3.48879
0
LINE
8
BLACK
6
CONTINUOUS
10
5.54258
20
-3.37609
11
5.55017
21
-3.37903
0
LINE
8
BLACK
6
CONTINUOUS
10
5.55017
20
-3.37903
11
5.55708
21
-3.38332
0
LINE
8
BLACK
6
CONTINUOUS
10
5.55708
20
-3.38332
11
5.5631
21
-3.3888
0
LINE
8
BLACK
6
CONTINUOUS
10
5.5631
20
-3.3888
11
5.568
21
-3.39529
0
LINE
8
BLACK
6
CONTINUOUS
10
5.568
20
-3.39529
11
5.57163
21
-3.40258
0
LINE
8
BLACK
6
CONTINUOUS
10
5.57163
20
-3.40258
11
5.57386
21
-3.4104
0
LINE
8
BLACK
6
CONTINUOUS
10
5.57386
20
-3.4104
11
5.57461
21
-3.4185
0
LINE
8
BLACK
6
CONTINUOUS
10
5.57461
20
-3.4185
11
5.57386
21
-3.42661
0
LINE
8
BLACK
6
CONTINUOUS
10
5.57386
20
-3.42661
11
5.57163
21
-3.43443
0
LINE
8
BLACK
6
CONTINUOUS
10
5.57163
20
-3.43443
11
5.568
21
-3.44172
0
LINE
8
BLACK
6
CONTINUOUS
10
5.568
20
-3.44172
11
5.5631
21
-3.44821
0
LINE
8
BLACK
6
CONTINUOUS
10
5.5631
20
-3.44821
11
5.55708
21
-3.45369
0
LINE
8
BLACK
6
CONTINUOUS
10
5.55708
20
-3.45369
11
5.55017
21
-3.45798
0
LINE
8
BLACK
6
CONTINUOUS
10
5.55017
20
-3.45798
11
5.54258
21
-3.46092
0
LINE
8
BLACK
6
CONTINUOUS
10
5.54258
20
-3.46092
11
5.53458
21
-3.46241
0
LINE
8
BLACK
6
CONTINUOUS
10
5.53458
20
-3.46241
11
5.52644
21
-3.46241
0
LINE
8
BLACK
6
CONTINUOUS
10
5.52644
20
-3.46241
11
5.51844
21
-3.46092
0
LINE
8
BLACK
6
CONTINUOUS
10
5.51844
20
-3.46092
11
5.51086
21
-3.45798
0
LINE
8
BLACK
6
CONTINUOUS
10
5.51086
20
-3.45798
11
5.50394
21
-3.45369
0
LINE
8
BLACK
6
CONTINUOUS
10
5.50394
20
-3.45369
11
5.49793
21
-3.44821
0
LINE
8
BLACK
6
CONTINUOUS
10
5.49793
20
-3.44821
11
5.49302
21
-3.44172
0
LINE
8
BLACK
6
CONTINUOUS
10
5.49302
20
-3.44172
11
5.48939
21
-3.43443
0
LINE
8
BLACK
6
CONTINUOUS
10
5.48939
20
-3.43443
11
5.48717
21
-3.42661
0
LINE
8
BLACK
6
CONTINUOUS
10
5.48717
20
-3.42661
11
5.48642
21
-3.4185
0
LINE
8
BLACK
6
CONTINUOUS
10
5.48642
20
-3.4185
11
5.48717
21
-3.4104
0
LINE
8
BLACK
6
CONTINUOUS
10
5.48717
20
-3.4104
11
5.48939
21
-3.40258
0
LINE
8
BLACK
6
CONTINUOUS
10
5.48939
20
-3.40258
11
5.49302
21
-3.39529
0
LINE
8
BLACK
6
CONTINUOUS
10
5.49302
20
-3.39529
11
5.49793
21
-3.3888
0
LINE
8
BLACK
6
CONTINUOUS
10
5.49793
20
-3.3888
11
5.50394
21
-3.38332
0
LINE
8
BLACK
6
CONTINUOUS
10
5.50394
20
-3.38332
11
5.51086
21
-3.37903
0
LINE
8
BLACK
6
CONTINUOUS
10
5.51086
20
-3.37903
11
5.51844
21
-3.37609
0
LINE
8
BLACK
6
CONTINUOUS
10
5.51844
20
-3.37609
11
5.52644
21
-3.3746
0
LINE
8
BLACK
6
CONTINUOUS
10
5.52644
20
-3.3746
11
5.53458
21
-3.3746
0
LINE
8
BLACK
6
CONTINUOUS
10
5.53458
20
-3.3746
11
5.54258
21
-3.37609
0
LINE
8
BLACK
6
CONTINUOUS
10
6.64258
20
-3.37609
11
6.65017
21
-3.37903
0
LINE
8
BLACK
6
CONTINUOUS
10
6.65017
20
-3.37903
11
6.65708
21
-3.38332
0
LINE
8
BLACK
6
CONTINUOUS
10
6.65708
20
-3.38332
11
6.6631
21
-3.3888
0
LINE
8
BLACK
6
CONTINUOUS
10
6.6631
20
-3.3888
11
6.668
21
-3.39529
0
LINE
8
BLACK
6
CONTINUOUS
10
6.668
20
-3.39529
11
6.67163
21
-3.40258
0
LINE
8
BLACK
6
CONTINUOUS
10
6.67163
20
-3.40258
11
6.67386
21
-3.4104
0
LINE
8
BLACK
6
CONTINUOUS
10
6.67386
20
-3.4104
11
6.67461
21
-3.4185
0
LINE
8
BLACK
6
CONTINUOUS
10
6.67461
20
-3.4185
11
6.67386
21
-3.42661
0
LINE
8
BLACK
6
CONTINUOUS
10
6.67386
20
-3.42661
11
6.67163
21
-3.43443
0
LINE
8
BLACK
6
CONTINUOUS
10
6.67163
20
-3.43443
11
6.668
21
-3.44172
0
LINE
8
BLACK
6
CONTINUOUS
10
6.668
20
-3.44172
11
6.6631
21
-3.44821
0
LINE
8
BLACK
6
CONTINUOUS
10
6.6631
20
-3.44821
11
6.65708
21
-3.45369
0
LINE
8
BLACK
6
CONTINUOUS
10
6.65708
20
-3.45369
11
6.65017
21
-3.45798
0
LINE
8
BLACK
6
CONTINUOUS
10
6.65017
20
-3.45798
11
6.64258
21
-3.46092
0
LINE
8
BLACK
6
CONTINUOUS
10
6.64258
20
-3.46092
11
6.63458
21
-3.46241
0
LINE
8
BLACK
6
CONTINUOUS
10
6.63458
20
-3.46241
11
6.62644
21
-3.46241
0
LINE
8
BLACK
6
CONTINUOUS
10
6.62644
20
-3.46241
11
6.61844
21
-3.46092
0
LINE
8
BLACK
6
CONTINUOUS
10
6.61844
20
-3.46092
11
6.61086
21
-3.45798
0
LINE
8
BLACK
6
CONTINUOUS
10
6.61086
20
-3.45798
11
6.60394
21
-3.45369
0
LINE
8
BLACK
6
CONTINUOUS
10
6.60394
20
-3.45369
11
6.59793
21
-3.44821
0
LINE
8
BLACK
6
CONTINUOUS
10
6.59793
20
-3.44821
11
6.59302
21
-3.44172
0
LINE
8
BLACK
6
CONTINUOUS
10
6.59302
20
-3.44172
11
6.58939
21
-3.43443
0
LINE
8
BLACK
6
CONTINUOUS
10
6.58939
20
-3.43443
11
6.58717
21
-3.42661
0
LINE
8
BLACK
6
CONTINUOUS
10
6.58717
20
-3.42661
11
6.58642
21
-3.4185
0
LINE
8
BLACK
6
CONTINUOUS
10
6.58642
20
-3.4185
11
6.58717
21
-3.4104
0
LINE
8
BLACK
6
CONTINUOUS
10
6.58717
20
-3.4104
11
6.58939
21
-3.40258
0
LINE
8
BLACK
6
CONTINUOUS
10
6.58939
20
-3.40258
11
6.59302
21
-3.39529
0
LINE
8
BLACK
6
CONTINUOUS
10
6.59302
20
-3.39529
11
6.59793
21
-3.3888
0
LINE
8
BLACK
6
CONTINUOUS
10
6.59793
20
-3.3888
11
6.60394
21
-3.38332
0
LINE
8
BLACK
6
CONTINUOUS
10
6.60394
20
-3.38332
11
6.61086
21
-3.37903
0
LINE
8
BLACK
6
CONTINUOUS
10
6.61086
20
-3.37903
11
6.61844
21
-3.37609
0
LINE
8
BLACK
6
CONTINUOUS
10
6.61844
20
-3.37609
11
6.62644
21
-3.3746
0
LINE
8
BLACK
6
CONTINUOUS
10
6.62644
20
-3.3746
11
6.63458
21
-3.3746
0
LINE
8
BLACK
6
CONTINUOUS
10
6.63458
20
-3.3746
11
6.64258
21
-3.37609
0
LINE
8
BLACK
6
CONTINUOUS
10
6.15398
20
-3.43909
11
6.08705
21
-3.43909
0
LINE
8
BLACK
6
CONTINUOUS
10
6.08705
20
-3.43909
11
6.08705
21
-3.38791
0
LINE
8
BLACK
6
CONTINUOUS
10
6.08705
20
-3.38791
11
6.15398
21
-3.38791
0
LINE
8
BLACK
6
CONTINUOUS
10
6.15398
20
-3.38791
11
6.15398
21
-3.43909
0
LINE
8
BLACK
6
CONTINUOUS
10
6.28824
20
-3.43846
11
6.22131
21
-3.43846
0
LINE
8
BLACK
6
CONTINUOUS
10
6.22131
20
-3.43846
11
6.22131
21
-3.38728
0
LINE
8
BLACK
6
CONTINUOUS
10
6.22131
20
-3.38728
11
6.28824
21
-3.38728
0
LINE
8
BLACK
6
CONTINUOUS
10
6.28824
20
-3.38728
11
6.28824
21
-3.43846
0
LINE
8
BLACK
6
CONTINUOUS
10
6.45158
20
-3.436
11
6.39658
21
-3.436
0
LINE
8
BLACK
6
CONTINUOUS
10
6.39658
20
-3.436
11
6.39658
21
-3.401
0
LINE
8
BLACK
6
CONTINUOUS
10
6.39658
20
-3.401
11
6.45158
21
-3.401
0
LINE
8
BLACK
6
CONTINUOUS
10
6.45158
20
-3.401
11
6.45158
21
-3.436
0
LINE
8
BLACK
6
CONTINUOUS
10
5.44375
20
-3.26622
11
5.45218
21
-3.26911
0
LINE
8
BLACK
6
CONTINUOUS
10
5.45218
20
-3.26911
11
5.46001
21
-3.27335
0
LINE
8
BLACK
6
CONTINUOUS
10
5.46001
20
-3.27335
11
5.46704
21
-3.27882
0
LINE
8
BLACK
6
CONTINUOUS
10
5.46704
20
-3.27882
11
5.47308
21
-3.28538
0
LINE
8
BLACK
6
CONTINUOUS
10
5.47308
20
-3.28538
11
5.47795
21
-3.29283
0
LINE
8
BLACK
6
CONTINUOUS
10
5.47795
20
-3.29283
11
5.48153
21
-3.30099
0
LINE
8
BLACK
6
CONTINUOUS
10
5.48153
20
-3.30099
11
5.48371
21
-3.30963
0
LINE
8
BLACK
6
CONTINUOUS
10
5.48371
20
-3.30963
11
5.48445
21
-3.3185
0
LINE
8
BLACK
6
CONTINUOUS
10
5.48445
20
-3.3185
11
5.48371
21
-3.32738
0
LINE
8
BLACK
6
CONTINUOUS
10
5.48371
20
-3.32738
11
5.48153
21
-3.33602
0
LINE
8
BLACK
6
CONTINUOUS
10
5.48153
20
-3.33602
11
5.47795
21
-3.34418
0
LINE
8
BLACK
6
CONTINUOUS
10
5.47795
20
-3.34418
11
5.47308
21
-3.35163
0
LINE
8
BLACK
6
CONTINUOUS
10
5.47308
20
-3.35163
11
5.46704
21
-3.35819
0
LINE
8
BLACK
6
CONTINUOUS
10
5.46704
20
-3.35819
11
5.46001
21
-3.36366
0
LINE
8
BLACK
6
CONTINUOUS
10
5.46001
20
-3.36366
11
5.45218
21
-3.3679
0
LINE
8
BLACK
6
CONTINUOUS
10
5.45218
20
-3.3679
11
5.44375
21
-3.37079
0
LINE
8
BLACK
6
CONTINUOUS
10
5.44375
20
-3.37079
11
5.43497
21
-3.37226
0
LINE
8
BLACK
6
CONTINUOUS
10
5.43497
20
-3.37226
11
5.42606
21
-3.37226
0
LINE
8
BLACK
6
CONTINUOUS
10
5.42606
20
-3.37226
11
5.41727
21
-3.37079
0
LINE
8
BLACK
6
CONTINUOUS
10
5.41727
20
-3.37079
11
5.40885
21
-3.3679
0
LINE
8
BLACK
6
CONTINUOUS
10
5.40885
20
-3.3679
11
5.40101
21
-3.36366
0
LINE
8
BLACK
6
CONTINUOUS
10
5.40101
20
-3.36366
11
5.39398
21
-3.35819
0
LINE
8
BLACK
6
CONTINUOUS
10
5.39398
20
-3.35819
11
5.38795
21
-3.35163
0
LINE
8
BLACK
6
CONTINUOUS
10
5.38795
20
-3.35163
11
5.38308
21
-3.34418
0
LINE
8
BLACK
6
CONTINUOUS
10
5.38308
20
-3.34418
11
5.3795
21
-3.33602
0
LINE
8
BLACK
6
CONTINUOUS
10
5.3795
20
-3.33602
11
5.37731
21
-3.32738
0
LINE
8
BLACK
6
CONTINUOUS
10
5.37731
20
-3.32738
11
5.37657
21
-3.3185
0
LINE
8
BLACK
6
CONTINUOUS
10
5.37657
20
-3.3185
11
5.37731
21
-3.30963
0
LINE
8
BLACK
6
CONTINUOUS
10
5.37731
20
-3.30963
11
5.3795
21
-3.30099
0
LINE
8
BLACK
6
CONTINUOUS
10
5.3795
20
-3.30099
11
5.38308
21
-3.29283
0
LINE
8
BLACK
6
CONTINUOUS
10
5.38308
20
-3.29283
11
5.38795
21
-3.28538
0
LINE
8
BLACK
6
CONTINUOUS
10
5.38795
20
-3.28538
11
5.39398
21
-3.27882
0
LINE
8
BLACK
6
CONTINUOUS
10
5.39398
20
-3.27882
11
5.40101
21
-3.27335
0
LINE
8
BLACK
6
CONTINUOUS
10
5.40101
20
-3.27335
11
5.40885
21
-3.26911
0
LINE
8
BLACK
6
CONTINUOUS
10
5.40885
20
-3.26911
11
5.41727
21
-3.26622
0
LINE
8
BLACK
6
CONTINUOUS
10
5.41727
20
-3.26622
11
5.42606
21
-3.26475
0
LINE
8
BLACK
6
CONTINUOUS
10
5.42606
20
-3.26475
11
5.43497
21
-3.26475
0
LINE
8
BLACK
6
CONTINUOUS
10
5.43497
20
-3.26475
11
5.44375
21
-3.26622
0
LINE
8
BLACK
6
CONTINUOUS
10
5.64375
20
-3.26622
11
5.65218
21
-3.26911
0
LINE
8
BLACK
6
CONTINUOUS
10
5.65218
20
-3.26911
11
5.66001
21
-3.27335
0
LINE
8
BLACK
6
CONTINUOUS
10
5.66001
20
-3.27335
11
5.66704
21
-3.27882
0
LINE
8
BLACK
6
CONTINUOUS
10
5.66704
20
-3.27882
11
5.67308
21
-3.28538
0
LINE
8
BLACK
6
CONTINUOUS
10
5.67308
20
-3.28538
11
5.67795
21
-3.29283
0
LINE
8
BLACK
6
CONTINUOUS
10
5.67795
20
-3.29283
11
5.68153
21
-3.30099
0
LINE
8
BLACK
6
CONTINUOUS
10
5.68153
20
-3.30099
11
5.68371
21
-3.30963
0
LINE
8
BLACK
6
CONTINUOUS
10
5.68371
20
-3.30963
11
5.68445
21
-3.3185
0
LINE
8
BLACK
6
CONTINUOUS
10
5.68445
20
-3.3185
11
5.68371
21
-3.32738
0
LINE
8
BLACK
6
CONTINUOUS
10
5.68371
20
-3.32738
11
5.68153
21
-3.33602
0
LINE
8
BLACK
6
CONTINUOUS
10
5.68153
20
-3.33602
11
5.67795
21
-3.34418
0
LINE
8
BLACK
6
CONTINUOUS
10
5.67795
20
-3.34418
11
5.67308
21
-3.35163
0
LINE
8
BLACK
6
CONTINUOUS
10
5.67308
20
-3.35163
11
5.66704
21
-3.35819
0
LINE
8
BLACK
6
CONTINUOUS
10
5.66704
20
-3.35819
11
5.66001
21
-3.36366
0
LINE
8
BLACK
6
CONTINUOUS
10
5.66001
20
-3.36366
11
5.65218
21
-3.3679
0
LINE
8
BLACK
6
CONTINUOUS
10
5.65218
20
-3.3679
11
5.64375
21
-3.37079
0
LINE
8
BLACK
6
CONTINUOUS
10
5.64375
20
-3.37079
11
5.63497
21
-3.37226
0
LINE
8
BLACK
6
CONTINUOUS
10
5.63497
20
-3.37226
11
5.62606
21
-3.37226
0
LINE
8
BLACK
6
CONTINUOUS
10
5.62606
20
-3.37226
11
5.61727
21
-3.37079
0
LINE
8
BLACK
6
CONTINUOUS
10
5.61727
20
-3.37079
11
5.60885
21
-3.3679
0
LINE
8
BLACK
6
CONTINUOUS
10
5.60885
20
-3.3679
11
5.60101
21
-3.36366
0
LINE
8
BLACK
6
CONTINUOUS
10
5.60101
20
-3.36366
11
5.59398
21
-3.35819
0
LINE
8
BLACK
6
CONTINUOUS
10
5.59398
20
-3.35819
11
5.58795
21
-3.35163
0
LINE
8
BLACK
6
CONTINUOUS
10
5.58795
20
-3.35163
11
5.58308
21
-3.34418
0
LINE
8
BLACK
6
CONTINUOUS
10
5.58308
20
-3.34418
11
5.5795
21
-3.33602
0
LINE
8
BLACK
6
CONTINUOUS
10
5.5795
20
-3.33602
11
5.57731
21
-3.32738
0
LINE
8
BLACK
6
CONTINUOUS
10
5.57731
20
-3.32738
11
5.57657
21
-3.3185
0
LINE
8
BLACK
6
CONTINUOUS
10
5.57657
20
-3.3185
11
5.57731
21
-3.30963
0
LINE
8
BLACK
6
CONTINUOUS
10
5.57731
20
-3.30963
11
5.5795
21
-3.30099
0
LINE
8
BLACK
6
CONTINUOUS
10
5.5795
20
-3.30099
11
5.58308
21
-3.29283
0
LINE
8
BLACK
6
CONTINUOUS
10
5.58308
20
-3.29283
11
5.58795
21
-3.28538
0
LINE
8
BLACK
6
CONTINUOUS
10
5.58795
20
-3.28538
11
5.59398
21
-3.27882
0
LINE
8
BLACK
6
CONTINUOUS
10
5.59398
20
-3.27882
11
5.60101
21
-3.27335
0
LINE
8
BLACK
6
CONTINUOUS
10
5.60101
20
-3.27335
11
5.60885
21
-3.26911
0
LINE
8
BLACK
6
CONTINUOUS
10
5.60885
20
-3.26911
11
5.61727
21
-3.26622
0
LINE
8
BLACK
6
CONTINUOUS
10
5.61727
20
-3.26622
11
5.62606
21
-3.26475
0
LINE
8
BLACK
6
CONTINUOUS
10
5.62606
20
-3.26475
11
5.63497
21
-3.26475
0
LINE
8
BLACK
6
CONTINUOUS
10
5.63497
20
-3.26475
11
5.64375
21
-3.26622
0
LINE
8
BLACK
6
CONTINUOUS
10
6.54375
20
-3.26622
11
6.55218
21
-3.26911
0
LINE
8
BLACK
6
CONTINUOUS
10
6.55218
20
-3.26911
11
6.56001
21
-3.27335
0
LINE
8
BLACK
6
CONTINUOUS
10
6.56001
20
-3.27335
11
6.56704
21
-3.27882
0
LINE
8
BLACK
6
CONTINUOUS
10
6.56704
20
-3.27882
11
6.57308
21
-3.28538
0
LINE
8
BLACK
6
CONTINUOUS
10
6.57308
20
-3.28538
11
6.57795
21
-3.29283
0
LINE
8
BLACK
6
CONTINUOUS
10
6.57795
20
-3.29283
11
6.58153
21
-3.30099
0
LINE
8
BLACK
6
CONTINUOUS
10
6.58153
20
-3.30099
11
6.58371
21
-3.30963
0
LINE
8
BLACK
6
CONTINUOUS
10
6.58371
20
-3.30963
11
6.58445
21
-3.3185
0
LINE
8
BLACK
6
CONTINUOUS
10
6.58445
20
-3.3185
11
6.58371
21
-3.32738
0
LINE
8
BLACK
6
CONTINUOUS
10
6.58371
20
-3.32738
11
6.58153
21
-3.33602
0
LINE
8
BLACK
6
CONTINUOUS
10
6.58153
20
-3.33602
11
6.57795
21
-3.34418
0
LINE
8
BLACK
6
CONTINUOUS
10
6.57795
20
-3.34418
11
6.57308
21
-3.35163
0
LINE
8
BLACK
6
CONTINUOUS
10
6.57308
20
-3.35163
11
6.56704
21
-3.35819
0
LINE
8
BLACK
6
CONTINUOUS
10
6.56704
20
-3.35819
11
6.56001
21
-3.36366
0
LINE
8
BLACK
6
CONTINUOUS
10
6.56001
20
-3.36366
11
6.55218
21
-3.3679
0
LINE
8
BLACK
6
CONTINUOUS
10
6.55218
20
-3.3679
11
6.54375
21
-3.37079
0
LINE
8
BLACK
6
CONTINUOUS
10
6.54375
20
-3.37079
11
6.53497
21
-3.37226
0
LINE
8
BLACK
6
CONTINUOUS
10
6.53497
20
-3.37226
11
6.52606
21
-3.37226
0
LINE
8
BLACK
6
CONTINUOUS
10
6.52606
20
-3.37226
11
6.51727
21
-3.37079
0
LINE
8
BLACK
6
CONTINUOUS
10
6.51727
20
-3.37079
11
6.50885
21
-3.3679
0
LINE
8
BLACK
6
CONTINUOUS
10
6.50885
20
-3.3679
11
6.50101
21
-3.36366
0
LINE
8
BLACK
6
CONTINUOUS
10
6.50101
20
-3.36366
11
6.49398
21
-3.35819
0
LINE
8
BLACK
6
CONTINUOUS
10
6.49398
20
-3.35819
11
6.48795
21
-3.35163
0
LINE
8
BLACK
6
CONTINUOUS
10
6.48795
20
-3.35163
11
6.48308
21
-3.34418
0
LINE
8
BLACK
6
CONTINUOUS
10
6.48308
20
-3.34418
11
6.4795
21
-3.33602
0
LINE
8
BLACK
6
CONTINUOUS
10
6.4795
20
-3.33602
11
6.47731
21
-3.32738
0
LINE
8
BLACK
6
CONTINUOUS
10
6.47731
20
-3.32738
11
6.47657
21
-3.3185
0
LINE
8
BLACK
6
CONTINUOUS
10
6.47657
20
-3.3185
11
6.47731
21
-3.30963
0
LINE
8
BLACK
6
CONTINUOUS
10
6.47731
20
-3.30963
11
6.4795
21
-3.30099
0
LINE
8
BLACK
6
CONTINUOUS
10
6.4795
20
-3.30099
11
6.48308
21
-3.29283
0
LINE
8
BLACK
6
CONTINUOUS
10
6.48308
20
-3.29283
11
6.48795
21
-3.28538
0
LINE
8
BLACK
6
CONTINUOUS
10
6.48795
20
-3.28538
11
6.49398
21
-3.27882
0
LINE
8
BLACK
6
CONTINUOUS
10
6.49398
20
-3.27882
11
6.50101
21
-3.27335
0
LINE
8
BLACK
6
CONTINUOUS
10
6.50101
20
-3.27335
11
6.50885
21
-3.26911
0
LINE
8
BLACK
6
CONTINUOUS
10
6.50885
20
-3.26911
11
6.51727
21
-3.26622
0
LINE
8
BLACK
6
CONTINUOUS
10
6.51727
20
-3.26622
11
6.52606
21
-3.26475
0
LINE
8
BLACK
6
CONTINUOUS
10
6.52606
20
-3.26475
11
6.53497
21
-3.26475
0
LINE
8
BLACK
6
CONTINUOUS
10
6.53497
20
-3.26475
11
6.54375
21
-3.26622
0
LINE
8
BLACK
6
CONTINUOUS
10
6.74375
20
-3.26622
11
6.75218
21
-3.26911
0
LINE
8
BLACK
6
CONTINUOUS
10
6.75218
20
-3.26911
11
6.76001
21
-3.27335
0
LINE
8
BLACK
6
CONTINUOUS
10
6.76001
20
-3.27335
11
6.76704
21
-3.27882
0
LINE
8
BLACK
6
CONTINUOUS
10
6.76704
20
-3.27882
11
6.77308
21
-3.28538
0
LINE
8
BLACK
6
CONTINUOUS
10
6.77308
20
-3.28538
11
6.77795
21
-3.29283
0
LINE
8
BLACK
6
CONTINUOUS
10
6.77795
20
-3.29283
11
6.78153
21
-3.30099
0
LINE
8
BLACK
6
CONTINUOUS
10
6.78153
20
-3.30099
11
6.78371
21
-3.30963
0
LINE
8
BLACK
6
CONTINUOUS
10
6.78371
20
-3.30963
11
6.78445
21
-3.3185
0
LINE
8
BLACK
6
CONTINUOUS
10
6.78445
20
-3.3185
11
6.78371
21
-3.32738
0
LINE
8
BLACK
6
CONTINUOUS
10
6.78371
20
-3.32738
11
6.78153
21
-3.33602
0
LINE
8
BLACK
6
CONTINUOUS
10
6.78153
20
-3.33602
11
6.77795
21
-3.34418
0
LINE
8
BLACK
6
CONTINUOUS
10
6.77795
20
-3.34418
11
6.77308
21
-3.35163
0
LINE
8
BLACK
6
CONTINUOUS
10
6.77308
20
-3.35163
11
6.76704
21
-3.35819
0
LINE
8
BLACK
6
CONTINUOUS
10
6.76704
20
-3.35819
11
6.76001
21
-3.36366
0
LINE
8
BLACK
6
CONTINUOUS
10
6.76001
20
-3.36366
11
6.75218
21
-3.3679
0
LINE
8
BLACK
6
CONTINUOUS
10
6.75218
20
-3.3679
11
6.74375
21
-3.37079
0
LINE
8
BLACK
6
CONTINUOUS
10
6.74375
20
-3.37079
11
6.73497
21
-3.37226
0
LINE
8
BLACK
6
CONTINUOUS
10
6.73497
20
-3.37226
11
6.72606
21
-3.37226
0
LINE
8
BLACK
6
CONTINUOUS
10
6.72606
20
-3.37226
11
6.71727
21
-3.37079
0
LINE
8
BLACK
6
CONTINUOUS
10
6.71727
20
-3.37079
11
6.70885
21
-3.3679
0
LINE
8
BLACK
6
CONTINUOUS
10
6.70885
20
-3.3679
11
6.70101
21
-3.36366
0
LINE
8
BLACK
6
CONTINUOUS
10
6.70101
20
-3.36366
11
6.69398
21
-3.35819
0
LINE
8
BLACK
6
CONTINUOUS
10
6.69398
20
-3.35819
11
6.68795
21
-3.35163
0
LINE
8
BLACK
6
CONTINUOUS
10
6.68795
20
-3.35163
11
6.68308
21
-3.34418
0
LINE
8
BLACK
6
CONTINUOUS
10
6.68308
20
-3.34418
11
6.6795
21
-3.33602
0
LINE
8
BLACK
6
CONTINUOUS
10
6.6795
20
-3.33602
11
6.67731
21
-3.32738
0
LINE
8
BLACK
6
CONTINUOUS
10
6.67731
20
-3.32738
11
6.67657
21
-3.3185
0
LINE
8
BLACK
6
CONTINUOUS
10
6.67657
20
-3.3185
11
6.67731
21
-3.30963
0
LINE
8
BLACK
6
CONTINUOUS
10
6.67731
20
-3.30963
11
6.6795
21
-3.30099
0
LINE
8
BLACK
6
CONTINUOUS
10
6.6795
20
-3.30099
11
6.68308
21
-3.29283
0
LINE
8
BLACK
6
CONTINUOUS
10
6.68308
20
-3.29283
11
6.68795
21
-3.28538
0
LINE
8
BLACK
6
CONTINUOUS
10
6.68795
20
-3.28538
11
6.69398
21
-3.27882
0
LINE
8
BLACK
6
CONTINUOUS
10
6.69398
20
-3.27882
11
6.70101
21
-3.27335
0
LINE
8
BLACK
6
CONTINUOUS
10
6.70101
20
-3.27335
11
6.70885
21
-3.26911
0
LINE
8
BLACK
6
CONTINUOUS
10
6.70885
20
-3.26911
11
6.71727
21
-3.26622
0
LINE
8
BLACK
6
CONTINUOUS
10
6.71727
20
-3.26622
11
6.72606
21
-3.26475
0
LINE
8
BLACK
6
CONTINUOUS
10
6.72606
20
-3.26475
11
6.73497
21
-3.26475
0
LINE
8
BLACK
6
CONTINUOUS
10
6.73497
20
-3.26475
11
6.74375
21
-3.26622
0
LINE
8
BLACK
6
CONTINUOUS
10
6.45158
20
-3.361
11
6.39658
21
-3.361
0
LINE
8
BLACK
6
CONTINUOUS
10
6.39658
20
-3.361
11
6.39658
21
-3.326
0
LINE
8
BLACK
6
CONTINUOUS
10
6.39658
20
-3.326
11
6.45158
21
-3.326
0
LINE
8
BLACK
6
CONTINUOUS
10
6.45158
20
-3.326
11
6.45158
21
-3.361
0
LINE
8
BLACK
6
CONTINUOUS
10
6.15398
20
-3.3013
11
6.08705
21
-3.3013
0
LINE
8
BLACK
6
CONTINUOUS
10
6.08705
20
-3.3013
11
6.08705
21
-3.25012
0
LINE
8
BLACK
6
CONTINUOUS
10
6.08705
20
-3.25012
11
6.15398
21
-3.25012
0
LINE
8
BLACK
6
CONTINUOUS
10
6.15398
20
-3.25012
11
6.15398
21
-3.3013
0
LINE
8
BLACK
6
CONTINUOUS
10
6.28824
20
-3.30066
11
6.22131
21
-3.30066
0
LINE
8
BLACK
6
CONTINUOUS
10
6.22131
20
-3.30066
11
6.22131
21
-3.24948
0
LINE
8
BLACK
6
CONTINUOUS
10
6.22131
20
-3.24948
11
6.28824
21
-3.24948
0
LINE
8
BLACK
6
CONTINUOUS
10
6.28824
20
-3.24948
11
6.28824
21
-3.30066
0
LINE
8
BLACK
6
CONTINUOUS
10
5.81548
20
-3.26302
11
5.71706
21
-3.26302
0
LINE
8
BLACK
6
CONTINUOUS
10
5.71706
20
-3.26302
11
5.71706
21
-3.19215
0
LINE
8
BLACK
6
CONTINUOUS
10
5.71706
20
-3.19215
11
5.81548
21
-3.19215
0
LINE
8
BLACK
6
CONTINUOUS
10
5.81548
20
-3.19215
11
5.81548
21
-3.26302
0
LINE
8
BLACK
6
CONTINUOUS
10
5.97296
20
-3.26302
11
5.87454
21
-3.26302
0
LINE
8
BLACK
6
CONTINUOUS
10
5.87454
20
-3.26302
11
5.87454
21
-3.19215
0
LINE
8
BLACK
6
CONTINUOUS
10
5.87454
20
-3.19215
11
5.97296
21
-3.19215
0
LINE
8
BLACK
6
CONTINUOUS
10
5.97296
20
-3.19215
11
5.97296
21
-3.26302
0
LINE
8
BLACK
6
CONTINUOUS
10
6.08551
20
-3.1985
11
6.02551
21
-3.1985
0
LINE
8
BLACK
6
CONTINUOUS
10
6.02551
20
-3.1985
11
6.02551
21
-3.1385
0
LINE
8
BLACK
6
CONTINUOUS
10
6.02551
20
-3.1385
11
6.08551
21
-3.1385
0
LINE
8
BLACK
6
CONTINUOUS
10
6.08551
20
-3.1385
11
6.08551
21
-3.1985
0
LINE
8
BLACK
6
CONTINUOUS
10
6.18551
20
-3.1985
11
6.12551
21
-3.1985
0
LINE
8
BLACK
6
CONTINUOUS
10
6.12551
20
-3.1985
11
6.12551
21
-3.1385
0
LINE
8
BLACK
6
CONTINUOUS
10
6.12551
20
-3.1385
11
6.18551
21
-3.1385
0
LINE
8
BLACK
6
CONTINUOUS
10
6.18551
20
-3.1385
11
6.18551
21
-3.1985
0
LINE
8
BLACK
6
CONTINUOUS
10
6.28551
20
-3.1985
11
6.22551
21
-3.1985
0
LINE
8
BLACK
6
CONTINUOUS
10
6.22551
20
-3.1985
11
6.22551
21
-3.1385
0
LINE
8
BLACK
6
CONTINUOUS
10
6.22551
20
-3.1385
11
6.28551
21
-3.1385
0
LINE
8
BLACK
6
CONTINUOUS
10
6.28551
20
-3.1385
11
6.28551
21
-3.1985
0
LINE
8
BLACK
6
CONTINUOUS
10
6.38551
20
-3.1985
11
6.32551
21
-3.1985
0
LINE
8
BLACK
6
CONTINUOUS
10
6.32551
20
-3.1985
11
6.32551
21
-3.1385
0
LINE
8
BLACK
6
CONTINUOUS
10
6.32551
20
-3.1385
11
6.38551
21
-3.1385
0
LINE
8
BLACK
6
CONTINUOUS
10
6.38551
20
-3.1385
11
6.38551
21
-3.1985
0
LINE
8
BLACK
6
CONTINUOUS
10
5.50102
20
-2.92719
11
5.51439
21
-2.93036
0
LINE
8
BLACK
6
CONTINUOUS
10
5.51439
20
-2.93036
11
5.52729
21
-2.93505
0
LINE
8
BLACK
6
CONTINUOUS
10
5.52729
20
-2.93505
11
5.53957
21
-2.94122
0
LINE
8
BLACK
6
CONTINUOUS
10
5.53957
20
-2.94122
11
5.55104
21
-2.94876
0
LINE
8
BLACK
6
CONTINUOUS
10
5.55104
20
-2.94876
11
5.56156
21
-2.95759
0
LINE
8
BLACK
6
CONTINUOUS
10
5.56156
20
-2.95759
11
5.57099
21
-2.96758
0
LINE
8
BLACK
6
CONTINUOUS
10
5.57099
20
-2.96758
11
5.57919
21
-2.9786
0
LINE
8
BLACK
6
CONTINUOUS
10
5.57919
20
-2.9786
11
5.58606
21
-2.9905
0
LINE
8
BLACK
6
CONTINUOUS
10
5.58606
20
-2.9905
11
5.5915
21
-3.00311
0
LINE
8
BLACK
6
CONTINUOUS
10
5.5915
20
-3.00311
11
5.59544
21
-3.01627
0
LINE
8
BLACK
6
CONTINUOUS
10
5.59544
20
-3.01627
11
5.59782
21
-3.02979
0
LINE
8
BLACK
6
CONTINUOUS
10
5.59782
20
-3.02979
11
5.59862
21
-3.0435
0
LINE
8
BLACK
6
CONTINUOUS
10
5.59862
20
-3.0435
11
5.59782
21
-3.05722
0
LINE
8
BLACK
6
CONTINUOUS
10
5.59782
20
-3.05722
11
5.59544
21
-3.07074
0
LINE
8
BLACK
6
CONTINUOUS
10
5.59544
20
-3.07074
11
5.5915
21
-3.0839
0
LINE
8
BLACK
6
CONTINUOUS
10
5.5915
20
-3.0839
11
5.58606
21
-3.09651
0
LINE
8
BLACK
6
CONTINUOUS
10
5.58606
20
-3.09651
11
5.57919
21
-3.10841
0
LINE
8
BLACK
6
CONTINUOUS
10
5.57919
20
-3.10841
11
5.57099
21
-3.11942
0
LINE
8
BLACK
6
CONTINUOUS
10
5.57099
20
-3.11942
11
5.56156
21
-3.12941
0
LINE
8
BLACK
6
CONTINUOUS
10
5.56156
20
-3.12941
11
5.55104
21
-3.13824
0
LINE
8
BLACK
6
CONTINUOUS
10
5.55104
20
-3.13824
11
5.53957
21
-3.14579
0
LINE
8
BLACK
6
CONTINUOUS
10
5.53957
20
-3.14579
11
5.52729
21
-3.15195
0
LINE
8
BLACK
6
CONTINUOUS
10
5.52729
20
-3.15195
11
5.51439
21
-3.15665
0
LINE
8
BLACK
6
CONTINUOUS
10
5.51439
20
-3.15665
11
5.50102
21
-3.15982
0
LINE
8
BLACK
6
CONTINUOUS
10
5.50102
20
-3.15982
11
5.48738
21
-3.16141
0
LINE
8
BLACK
6
CONTINUOUS
10
5.48738
20
-3.16141
11
5.47364
21
-3.16141
0
LINE
8
BLACK
6
CONTINUOUS
10
5.47364
20
-3.16141
11
5.46
21
-3.15982
0
LINE
8
BLACK
6
CONTINUOUS
10
5.46
20
-3.15982
11
5.44664
21
-3.15665
0
LINE
8
BLACK
6
CONTINUOUS
10
5.44664
20
-3.15665
11
5.43373
21
-3.15195
0
LINE
8
BLACK
6
CONTINUOUS
10
5.43373
20
-3.15195
11
5.42146
21
-3.14579
0
LINE
8
BLACK
6
CONTINUOUS
10
5.42146
20
-3.14579
11
5.40998
21
-3.13824
0
LINE
8
BLACK
6
CONTINUOUS
10
5.40998
20
-3.13824
11
5.39946
21
-3.12941
0
LINE
8
BLACK
6
CONTINUOUS
10
5.39946
20
-3.12941
11
5.39003
21
-3.11942
0
LINE
8
BLACK
6
CONTINUOUS
10
5.39003
20
-3.11942
11
5.38183
21
-3.10841
0
LINE
8
BLACK
6
CONTINUOUS
10
5.38183
20
-3.10841
11
5.37496
21
-3.09651
0
LINE
8
BLACK
6
CONTINUOUS
10
5.37496
20
-3.09651
11
5.36952
21
-3.0839
0
LINE
8
BLACK
6
CONTINUOUS
10
5.36952
20
-3.0839
11
5.36559
21
-3.07074
0
LINE
8
BLACK
6
CONTINUOUS
10
5.36559
20
-3.07074
11
5.3632
21
-3.05722
0
LINE
8
BLACK
6
CONTINUOUS
10
5.3632
20
-3.05722
11
5.3624
21
-3.0435
0
LINE
8
BLACK
6
CONTINUOUS
10
5.3624
20
-3.0435
11
5.3632
21
-3.02979
0
LINE
8
BLACK
6
CONTINUOUS
10
5.3632
20
-3.02979
11
5.36559
21
-3.01627
0
LINE
8
BLACK
6
CONTINUOUS
10
5.36559
20
-3.01627
11
5.36952
21
-3.00311
0
LINE
8
BLACK
6
CONTINUOUS
10
5.36952
20
-3.00311
11
5.37496
21
-2.9905
0
LINE
8
BLACK
6
CONTINUOUS
10
5.37496
20
-2.9905
11
5.38183
21
-2.9786
0
LINE
8
BLACK
6
CONTINUOUS
10
5.38183
20
-2.9786
11
5.39003
21
-2.96758
0
LINE
8
BLACK
6
CONTINUOUS
10
5.39003
20
-2.96758
11
5.39946
21
-2.95759
0
LINE
8
BLACK
6
CONTINUOUS
10
5.39946
20
-2.95759
11
5.40998
21
-2.94876
0
LINE
8
BLACK
6
CONTINUOUS
10
5.40998
20
-2.94876
11
5.42146
21
-2.94122
0
LINE
8
BLACK
6
CONTINUOUS
10
5.42146
20
-2.94122
11
5.43373
21
-2.93505
0
LINE
8
BLACK
6
CONTINUOUS
10
5.43373
20
-2.93505
11
5.44664
21
-2.93036
0
LINE
8
BLACK
6
CONTINUOUS
10
5.44664
20
-2.93036
11
5.46
21
-2.92719
0
LINE
8
BLACK
6
CONTINUOUS
10
5.46
20
-2.92719
11
5.47364
21
-2.92559
0
LINE
8
BLACK
6
CONTINUOUS
10
5.47364
20
-2.92559
11
5.48738
21
-2.92559
0
LINE
8
BLACK
6
CONTINUOUS
10
5.48738
20
-2.92559
11
5.50102
21
-2.92719
0
LINE
8
BLACK
6
CONTINUOUS
10
6.70102
20
-2.92719
11
6.71439
21
-2.93036
0
LINE
8
BLACK
6
CONTINUOUS
10
6.71439
20
-2.93036
11
6.72729
21
-2.93505
0
LINE
8
BLACK
6
CONTINUOUS
10
6.72729
20
-2.93505
11
6.73957
21
-2.94122
0
LINE
8
BLACK
6
CONTINUOUS
10
6.73957
20
-2.94122
11
6.75104
21
-2.94876
0
LINE
8
BLACK
6
CONTINUOUS
10
6.75104
20
-2.94876
11
6.76156
21
-2.95759
0
LINE
8
BLACK
6
CONTINUOUS
10
6.76156
20
-2.95759
11
6.77099
21
-2.96758
0
LINE
8
BLACK
6
CONTINUOUS
10
6.77099
20
-2.96758
11
6.77919
21
-2.9786
0
LINE
8
BLACK
6
CONTINUOUS
10
6.77919
20
-2.9786
11
6.78606
21
-2.9905
0
LINE
8
BLACK
6
CONTINUOUS
10
6.78606
20
-2.9905
11
6.7915
21
-3.00311
0
LINE
8
BLACK
6
CONTINUOUS
10
6.7915
20
-3.00311
11
6.79544
21
-3.01627
0
LINE
8
BLACK
6
CONTINUOUS
10
6.79544
20
-3.01627
11
6.79782
21
-3.02979
0
LINE
8
BLACK
6
CONTINUOUS
10
6.79782
20
-3.02979
11
6.79862
21
-3.0435
0
LINE
8
BLACK
6
CONTINUOUS
10
6.79862
20
-3.0435
11
6.79782
21
-3.05722
0
LINE
8
BLACK
6
CONTINUOUS
10
6.79782
20
-3.05722
11
6.79544
21
-3.07074
0
LINE
8
BLACK
6
CONTINUOUS
10
6.79544
20
-3.07074
11
6.7915
21
-3.0839
0
LINE
8
BLACK
6
CONTINUOUS
10
6.7915
20
-3.0839
11
6.78606
21
-3.09651
0
LINE
8
BLACK
6
CONTINUOUS
10
6.78606
20
-3.09651
11
6.77919
21
-3.10841
0
LINE
8
BLACK
6
CONTINUOUS
10
6.77919
20
-3.10841
11
6.77099
21
-3.11942
0
LINE
8
BLACK
6
CONTINUOUS
10
6.77099
20
-3.11942
11
6.76156
21
-3.12941
0
LINE
8
BLACK
6
CONTINUOUS
10
6.76156
20
-3.12941
11
6.75104
21
-3.13824
0
LINE
8
BLACK
6
CONTINUOUS
10
6.75104
20
-3.13824
11
6.73957
21
-3.14579
0
LINE
8
BLACK
6
CONTINUOUS
10
6.73957
20
-3.14579
11
6.72729
21
-3.15195
0
LINE
8
BLACK
6
CONTINUOUS
10
6.72729
20
-3.15195
11
6.71439
21
-3.15665
0
LINE
8
BLACK
6
CONTINUOUS
10
6.71439
20
-3.15665
11
6.70102
21
-3.15982
0
LINE
8
BLACK
6
CONTINUOUS
10
6.70102
20
-3.15982
11
6.68738
21
-3.16141
0
LINE
8
BLACK
6
CONTINUOUS
10
6.68738
20
-3.16141
11
6.67364
21
-3.16141
0
LINE
8
BLACK
6
CONTINUOUS
10
6.67364
20
-3.16141
11
6.66
21
-3.15982
0
LINE
8
BLACK
6
CONTINUOUS
10
6.66
20
-3.15982
11
6.64664
21
-3.15665
0
LINE
8
BLACK
6
CONTINUOUS
10
6.64664
20
-3.15665
11
6.63373
21
-3.15195
0
LINE
8
BLACK
6
CONTINUOUS
10
6.63373
20
-3.15195
11
6.62146
21
-3.14579
0
LINE
8
BLACK
6
CONTINUOUS
10
6.62146
20
-3.14579
11
6.60998
21
-3.13824
0
LINE
8
BLACK
6
CONTINUOUS
10
6.60998
20
-3.13824
11
6.59946
21
-3.12941
0
LINE
8
BLACK
6
CONTINUOUS
10
6.59946
20
-3.12941
11
6.59003
21
-3.11942
0
LINE
8
BLACK
6
CONTINUOUS
10
6.59003
20
-3.11942
11
6.58183
21
-3.10841
0
LINE
8
BLACK
6
CONTINUOUS
10
6.58183
20
-3.10841
11
6.57496
21
-3.09651
0
LINE
8
BLACK
6
CONTINUOUS
10
6.57496
20
-3.09651
11
6.56952
21
-3.0839
0
LINE
8
BLACK
6
CONTINUOUS
10
6.56952
20
-3.0839
11
6.56559
21
-3.07074
0
LINE
8
BLACK
6
CONTINUOUS
10
6.56559
20
-3.07074
11
6.5632
21
-3.05722
0
LINE
8
BLACK
6
CONTINUOUS
10
6.5632
20
-3.05722
11
6.5624
21
-3.0435
0
LINE
8
BLACK
6
CONTINUOUS
10
6.5624
20
-3.0435
11
6.5632
21
-3.02979
0
LINE
8
BLACK
6
CONTINUOUS
10
6.5632
20
-3.02979
11
6.56559
21
-3.01627
0
LINE
8
BLACK
6
CONTINUOUS
10
6.56559
20
-3.01627
11
6.56952
21
-3.00311
0
LINE
8
BLACK
6
CONTINUOUS
10
6.56952
20
-3.00311
11
6.57496
21
-2.9905
0
LINE
8
BLACK
6
CONTINUOUS
10
6.57496
20
-2.9905
11
6.58183
21
-2.9786
0
LINE
8
BLACK
6
CONTINUOUS
10
6.58183
20
-2.9786
11
6.59003
21
-2.96758
0
LINE
8
BLACK
6
CONTINUOUS
10
6.59003
20
-2.96758
11
6.59946
21
-2.95759
0
LINE
8
BLACK
6
CONTINUOUS
10
6.59946
20
-2.95759
11
6.60998
21
-2.94876
0
LINE
8
BLACK
6
CONTINUOUS
10
6.60998
20
-2.94876
11
6.62146
21
-2.94122
0
LINE
8
BLACK
6
CONTINUOUS
10
6.62146
20
-2.94122
11
6.63373
21
-2.93505
0
LINE
8
BLACK
6
CONTINUOUS
10
6.63373
20
-2.93505
11
6.64664
21
-2.93036
0
LINE
8
BLACK
6
CONTINUOUS
10
6.64664
20
-2.93036
11
6.66
21
-2.92719
0
LINE
8
BLACK
6
CONTINUOUS
10
6.66
20
-2.92719
11
6.67364
21
-2.92559
0
LINE
8
BLACK
6
CONTINUOUS
10
6.67364
20
-2.92559
11
6.68738
21
-2.92559
0
LINE
8
BLACK
6
CONTINUOUS
10
6.68738
20
-2.92559
11
6.70102
21
-2.92719
0
LINE
8
BLACK
6
CONTINUOUS
10
5.76051
20
-3.1235
11
5.70051
21
-3.1235
0
LINE
8
BLACK
6
CONTINUOUS
10
5.70051
20
-3.1235
11
5.70051
21
-3.0635
0
LINE
8
BLACK
6
CONTINUOUS
10
5.70051
20
-3.0635
11
5.76051
21
-3.0635
0
LINE
8
BLACK
6
CONTINUOUS
10
5.76051
20
-3.0635
11
5.76051
21
-3.1235
0
LINE
8
BLACK
6
CONTINUOUS
10
5.86051
20
-3.1235
11
5.80051
21
-3.1235
0
LINE
8
BLACK
6
CONTINUOUS
10
5.80051
20
-3.1235
11
5.80051
21
-3.0635
0
LINE
8
BLACK
6
CONTINUOUS
10
5.80051
20
-3.0635
11
5.86051
21
-3.0635
0
LINE
8
BLACK
6
CONTINUOUS
10
5.86051
20
-3.0635
11
5.86051
21
-3.1235
0
LINE
8
BLACK
6
CONTINUOUS
10
5.96051
20
-3.1235
11
5.90051
21
-3.1235
0
LINE
8
BLACK
6
CONTINUOUS
10
5.90051
20
-3.1235
11
5.90051
21
-3.0635
0
LINE
8
BLACK
6
CONTINUOUS
10
5.90051
20
-3.0635
11
5.96051
21
-3.0635
0
LINE
8
BLACK
6
CONTINUOUS
10
5.96051
20
-3.0635
11
5.96051
21
-3.1235
0
LINE
8
BLACK
6
CONTINUOUS
10
6.08551
20
-3.0985
11
6.02551
21
-3.0985
0
LINE
8
BLACK
6
CONTINUOUS
10
6.02551
20
-3.0985
11
6.02551
21
-3.0385
0
LINE
8
BLACK
6
CONTINUOUS
10
6.02551
20
-3.0385
11
6.08551
21
-3.0385
0
LINE
8
BLACK
6
CONTINUOUS
10
6.08551
20
-3.0385
11
6.08551
21
-3.0985
0
LINE
8
BLACK
6
CONTINUOUS
10
6.18551
20
-3.0985
11
6.12551
21
-3.0985
0
LINE
8
BLACK
6
CONTINUOUS
10
6.12551
20
-3.0985
11
6.12551
21
-3.0385
0
LINE
8
BLACK
6
CONTINUOUS
10
6.12551
20
-3.0385
11
6.18551
21
-3.0385
0
LINE
8
BLACK
6
CONTINUOUS
10
6.18551
20
-3.0385
11
6.18551
21
-3.0985
0
LINE
8
BLACK
6
CONTINUOUS
10
6.28551
20
-3.0985
11
6.22551
21
-3.0985
0
LINE
8
BLACK
6
CONTINUOUS
10
6.22551
20
-3.0985
11
6.22551
21
-3.0385
0
LINE
8
BLACK
6
CONTINUOUS
10
6.22551
20
-3.0385
11
6.28551
21
-3.0385
0
LINE
8
BLACK
6
CONTINUOUS
10
6.28551
20
-3.0385
11
6.28551
21
-3.0985
0
LINE
8
BLACK
6
CONTINUOUS
10
6.38551
20
-3.0985
11
6.32551
21
-3.0985
0
LINE
8
BLACK
6
CONTINUOUS
10
6.32551
20
-3.0985
11
6.32551
21
-3.0385
0
LINE
8
BLACK
6
CONTINUOUS
10
6.32551
20
-3.0385
11
6.38551
21
-3.0385
0
LINE
8
BLACK
6
CONTINUOUS
10
6.38551
20
-3.0385
11
6.38551
21
-3.0985
0
LINE
8
BLACK
6
CONTINUOUS
10
5.76051
20
-3.0235
11
5.70051
21
-3.0235
0
LINE
8
BLACK
6
CONTINUOUS
10
5.70051
20
-3.0235
11
5.70051
21
-2.9635
0
LINE
8
BLACK
6
CONTINUOUS
10
5.70051
20
-2.9635
11
5.76051
21
-2.9635
0
LINE
8
BLACK
6
CONTINUOUS
10
5.76051
20
-2.9635
11
5.76051
21
-3.0235
0
LINE
8
BLACK
6
CONTINUOUS
10
5.86051
20
-3.0235
11
5.80051
21
-3.0235
0
LINE
8
BLACK
6
CONTINUOUS
10
5.80051
20
-3.0235
11
5.80051
21
-2.9635
0
LINE
8
BLACK
6
CONTINUOUS
10
5.80051
20
-2.9635
11
5.86051
21
-2.9635
0
LINE
8
BLACK
6
CONTINUOUS
10
5.86051
20
-2.9635
11
5.86051
21
-3.0235
0
LINE
8
BLACK
6
CONTINUOUS
10
5.96051
20
-3.0235
11
5.90051
21
-3.0235
0
LINE
8
BLACK
6
CONTINUOUS
10
5.90051
20
-3.0235
11
5.90051
21
-2.9635
0
LINE
8
BLACK
6
CONTINUOUS
10
5.90051
20
-2.9635
11
5.96051
21
-2.9635
0
LINE
8
BLACK
6
CONTINUOUS
10
5.96051
20
-2.9635
11
5.96051
21
-3.0235
0
LINE
8
BLACK
6
CONTINUOUS
10
6.08301
20
-3.011
11
6.02801
21
-3.011
0
LINE
8
BLACK
6
CONTINUOUS
10
6.02801
20
-3.011
11
6.02801
21
-2.976
0
LINE
8
BLACK
6
CONTINUOUS
10
6.02801
20
-2.976
11
6.08301
21
-2.976
0
LINE
8
BLACK
6
CONTINUOUS
10
6.08301
20
-2.976
11
6.08301
21
-3.011
0
LINE
8
BLACK
6
CONTINUOUS
10
6.18301
20
-3.011
11
6.12801
21
-3.011
0
LINE
8
BLACK
6
CONTINUOUS
10
6.12801
20
-3.011
11
6.12801
21
-2.976
0
LINE
8
BLACK
6
CONTINUOUS
10
6.12801
20
-2.976
11
6.18301
21
-2.976
0
LINE
8
BLACK
6
CONTINUOUS
10
6.18301
20
-2.976
11
6.18301
21
-3.011
0
LINE
8
BLACK
6
CONTINUOUS
10
6.28301
20
-3.011
11
6.22801
21
-3.011
0
LINE
8
BLACK
6
CONTINUOUS
10
6.22801
20
-3.011
11
6.22801
21
-2.976
0
LINE
8
BLACK
6
CONTINUOUS
10
6.22801
20
-2.976
11
6.28301
21
-2.976
0
LINE
8
BLACK
6
CONTINUOUS
10
6.28301
20
-2.976
11
6.28301
21
-3.011
0
LINE
8
BLACK
6
CONTINUOUS
10
6.38301
20
-3.011
11
6.32801
21
-3.011
0
LINE
8
BLACK
6
CONTINUOUS
10
6.32801
20
-3.011
11
6.32801
21
-2.976
0
LINE
8
BLACK
6
CONTINUOUS
10
6.32801
20
-2.976
11
6.38301
21
-2.976
0
LINE
8
BLACK
6
CONTINUOUS
10
6.38301
20
-2.976
11
6.38301
21
-3.011
0
LINE
8
BLACK
6
CONTINUOUS
10
6.08301
20
-2.936
11
6.02801
21
-2.936
0
LINE
8
BLACK
6
CONTINUOUS
10
6.02801
20
-2.936
11
6.02801
21
-2.901
0
LINE
8
BLACK
6
CONTINUOUS
10
6.02801
20
-2.901
11
6.08301
21
-2.901
0
LINE
8
BLACK
6
CONTINUOUS
10
6.08301
20
-2.901
11
6.08301
21
-2.936
0
LINE
8
BLACK
6
CONTINUOUS
10
6.18301
20
-2.936
11
6.12801
21
-2.936
0
LINE
8
BLACK
6
CONTINUOUS
10
6.12801
20
-2.936
11
6.12801
21
-2.901
0
LINE
8
BLACK
6
CONTINUOUS
10
6.12801
20
-2.901
11
6.18301
21
-2.901
0
LINE
8
BLACK
6
CONTINUOUS
10
6.18301
20
-2.901
11
6.18301
21
-2.936
0
LINE
8
BLACK
6
CONTINUOUS
10
6.28301
20
-2.936
11
6.22801
21
-2.936
0
LINE
8
BLACK
6
CONTINUOUS
10
6.22801
20
-2.936
11
6.22801
21
-2.901
0
LINE
8
BLACK
6
CONTINUOUS
10
6.22801
20
-2.901
11
6.28301
21
-2.901
0
LINE
8
BLACK
6
CONTINUOUS
10
6.28301
20
-2.901
11
6.28301
21
-2.936
0
LINE
8
BLACK
6
CONTINUOUS
10
6.38301
20
-2.936
11
6.32801
21
-2.936
0
LINE
8
BLACK
6
CONTINUOUS
10
6.32801
20
-2.936
11
6.32801
21
-2.901
0
LINE
8
BLACK
6
CONTINUOUS
10
6.32801
20
-2.901
11
6.38301
21
-2.901
0
LINE
8
BLACK
6
CONTINUOUS
10
6.38301
20
-2.901
11
6.38301
21
-2.936
  0
ENDSEC
  0
EOF
