  0
SECTION
  2
HEADER
  9
$ANGBASE
  50
0.0
  9
$ANGDIR
  70
1
  9
$MEASUREMENT
  70
0
  0
ENDSEC
  0
SECTION
  2
TABLES
  0
TABLE
  2
LTYPE
  70
4
  0
LTYPE
  5
40F
  2
CONTINUOUS
  70
0
  3
Solid line
  72
65
  73
0
  40
0.0
  0
LTYPE
  5
410
  2
DASHDOT
 70
0
  3
Dash Dot ____ _ ____ _
 72
65
 73
4
 40
2.0
 49
1.25
 49
-0.25
 49
0.25
 49
-0.25
  0
LTYPE
  5
411
  2
DASHED
 70
0
  3
Dashed __ __ __ __ __
 72
65
 73
2
 40
0.75
 49
0.5
 49
-0.25
  0
LTYPE
  5
43B
  2
DOTTED
 70
0
  3
Dotted .  .  .  .
 72
65
 73
2
 40
0.2
 49
0.0
 49
-0.2
  0
ENDTAB
  0
TABLE
  2
STYLE
  70
4
  0
STYLE
  2
KICAD
  70
0
  40
0
  41
1
  42
1
  50
0
  71
0
  3
isocp.shx
  0
STYLE
  2
KICADB
  70
0
  40
0
  41
1
  42
1
  50
0
  71
0
  3
isocp.shx
  0
STYLE
  2
KICADI
  70
0
  40
0
  41
1
  42
1
  50
15
  71
0
  3
isocp.shx
  0
STYLE
  2
KICADBI
  70
0
  40
0
  41
1
  42
1
  50
15
  71
0
  3
isocp.shx
  0
ENDTAB
  0
TABLE
  2
LAYER
  70
1
  0
LAYER
  2
BLACK
  70
0
  62
7
  6
CONTINUOUS
  0
ENDTAB
  0
ENDSEC
  0
SECTION
  2
ENTITIES
0
LINE
8
BLACK
6
CONTINUOUS
10
5.9185
20
-4.1374
11
5.9192
21
-4.13769
0
LINE
8
BLACK
6
CONTINUOUS
10
5.9192
20
-4.13769
11
5.91949
21
-4.13839
0
LINE
8
BLACK
6
CONTINUOUS
10
5.91949
20
-4.13839
11
5.91949
21
-4.24862
0
LINE
8
BLACK
6
CONTINUOUS
10
5.91949
20
-4.24862
11
5.9192
21
-4.24932
0
LINE
8
BLACK
6
CONTINUOUS
10
5.9192
20
-4.24932
11
5.9185
21
-4.24961
0
LINE
8
BLACK
6
CONTINUOUS
10
5.9185
20
-4.24961
11
5.79252
21
-4.24961
0
LINE
8
BLACK
6
CONTINUOUS
10
5.79252
20
-4.24961
11
5.79182
21
-4.24932
0
LINE
8
BLACK
6
CONTINUOUS
10
5.79182
20
-4.24932
11
5.79154
21
-4.24862
0
LINE
8
BLACK
6
CONTINUOUS
10
5.79154
20
-4.24862
11
5.79154
21
-4.13839
0
LINE
8
BLACK
6
CONTINUOUS
10
5.79154
20
-4.13839
11
5.79182
21
-4.13769
0
LINE
8
BLACK
6
CONTINUOUS
10
5.79182
20
-4.13769
11
5.79252
21
-4.1374
0
LINE
8
BLACK
6
CONTINUOUS
10
5.79252
20
-4.1374
11
5.9185
21
-4.1374
0
LINE
8
BLACK
6
CONTINUOUS
10
5.7935
20
-4.13937
11
5.7935
21
-4.24764
0
LINE
8
BLACK
6
CONTINUOUS
10
5.7935
20
-4.24764
11
5.91752
21
-4.24764
0
LINE
8
BLACK
6
CONTINUOUS
10
5.91752
20
-4.24764
11
5.91752
21
-4.13937
0
LINE
8
BLACK
6
CONTINUOUS
10
5.91752
20
-4.13937
11
5.7935
21
-4.13937
0
LINE
8
BLACK
6
CONTINUOUS
10
6.18258
20
-4.13406
11
6.18327
21
-4.13434
0
LINE
8
BLACK
6
CONTINUOUS
10
6.18327
20
-4.13434
11
6.18356
21
-4.13504
0
LINE
8
BLACK
6
CONTINUOUS
10
6.18356
20
-4.13504
11
6.18356
21
-4.20197
0
LINE
8
BLACK
6
CONTINUOUS
10
6.18356
20
-4.20197
11
6.18327
21
-4.20266
0
LINE
8
BLACK
6
CONTINUOUS
10
6.18327
20
-4.20266
11
6.18258
21
-4.20295
0
LINE
8
BLACK
6
CONTINUOUS
10
6.18258
20
-4.20295
11
6.04478
21
-4.20295
0
LINE
8
BLACK
6
CONTINUOUS
10
6.04478
20
-4.20295
11
6.04409
21
-4.20266
0
LINE
8
BLACK
6
CONTINUOUS
10
6.04409
20
-4.20266
11
6.0438
21
-4.20197
0
LINE
8
BLACK
6
CONTINUOUS
10
6.0438
20
-4.20197
11
6.0438
21
-4.13504
0
LINE
8
BLACK
6
CONTINUOUS
10
6.0438
20
-4.13504
11
6.04409
21
-4.13434
0
LINE
8
BLACK
6
CONTINUOUS
10
6.04409
20
-4.13434
11
6.04478
21
-4.13406
0
LINE
8
BLACK
6
CONTINUOUS
10
6.04478
20
-4.13406
11
6.18258
21
-4.13406
0
LINE
8
BLACK
6
CONTINUOUS
10
6.04577
20
-4.13602
11
6.04577
21
-4.20098
0
LINE
8
BLACK
6
CONTINUOUS
10
6.04577
20
-4.20098
11
6.18159
21
-4.20098
0
LINE
8
BLACK
6
CONTINUOUS
10
6.18159
20
-4.20098
11
6.18159
21
-4.13602
0
LINE
8
BLACK
6
CONTINUOUS
10
6.18159
20
-4.13602
11
6.04577
21
-4.13602
0
LINE
8
BLACK
6
CONTINUOUS
10
6.25591
20
-3.79409
11
6.2566
21
-3.79438
0
LINE
8
BLACK
6
CONTINUOUS
10
6.2566
20
-3.79438
11
6.25689
21
-3.79508
0
LINE
8
BLACK
6
CONTINUOUS
10
6.25689
20
-3.79508
11
6.25689
21
-3.99193
0
LINE
8
BLACK
6
CONTINUOUS
10
6.25689
20
-3.99193
11
6.2566
21
-3.99263
0
LINE
8
BLACK
6
CONTINUOUS
10
6.2566
20
-3.99263
11
6.25591
21
-3.99291
0
LINE
8
BLACK
6
CONTINUOUS
10
6.25591
20
-3.99291
11
6.21253
21
-3.99291
0
LINE
8
BLACK
6
CONTINUOUS
10
6.21253
20
-3.99291
11
6.30959
21
-4.08997
0
LINE
8
BLACK
6
CONTINUOUS
10
6.30959
20
-4.08997
11
6.30959
21
-4.08997
0
LINE
8
BLACK
6
CONTINUOUS
10
6.30959
20
-4.08997
11
6.30988
21
-4.09067
0
LINE
8
BLACK
6
CONTINUOUS
10
6.30988
20
-4.09067
11
6.30959
21
-4.09136
0
LINE
8
BLACK
6
CONTINUOUS
10
6.30959
20
-4.09136
11
6.26226
21
-4.13869
0
LINE
8
BLACK
6
CONTINUOUS
10
6.26226
20
-4.13869
11
6.26157
21
-4.13898
0
LINE
8
BLACK
6
CONTINUOUS
10
6.26157
20
-4.13898
11
6.26087
21
-4.13869
0
LINE
8
BLACK
6
CONTINUOUS
10
6.26087
20
-4.13869
11
6.26087
21
-4.13869
0
LINE
8
BLACK
6
CONTINUOUS
10
6.26087
20
-4.13869
11
6.16343
21
-4.04125
0
LINE
8
BLACK
6
CONTINUOUS
10
6.16343
20
-4.04125
11
6.16315
21
-4.04056
0
LINE
8
BLACK
6
CONTINUOUS
10
6.16315
20
-4.04056
11
6.16343
21
-4.03986
0
LINE
8
BLACK
6
CONTINUOUS
10
6.16343
20
-4.03986
11
6.16343
21
-4.03986
0
LINE
8
BLACK
6
CONTINUOUS
10
6.16343
20
-4.03986
11
6.21038
21
-3.99291
0
LINE
8
BLACK
6
CONTINUOUS
10
6.21038
20
-3.99291
11
6.05512
21
-3.99291
0
LINE
8
BLACK
6
CONTINUOUS
10
6.05512
20
-3.99291
11
6.05442
21
-3.99263
0
LINE
8
BLACK
6
CONTINUOUS
10
6.05442
20
-3.99263
11
6.05413
21
-3.99193
0
LINE
8
BLACK
6
CONTINUOUS
10
6.05413
20
-3.99193
11
6.05413
21
-3.79508
0
LINE
8
BLACK
6
CONTINUOUS
10
6.05413
20
-3.79508
11
6.05442
21
-3.79438
0
LINE
8
BLACK
6
CONTINUOUS
10
6.05442
20
-3.79438
11
6.05512
21
-3.79409
0
LINE
8
BLACK
6
CONTINUOUS
10
6.05512
20
-3.79409
11
6.25591
21
-3.79409
0
LINE
8
BLACK
6
CONTINUOUS
10
6.16552
20
-4.04056
11
6.26157
21
-4.1366
0
LINE
8
BLACK
6
CONTINUOUS
10
6.26157
20
-4.1366
11
6.3075
21
-4.09067
0
LINE
8
BLACK
6
CONTINUOUS
10
6.3075
20
-4.09067
11
6.21146
21
-3.99462
0
LINE
8
BLACK
6
CONTINUOUS
10
6.21146
20
-3.99462
11
6.16552
21
-4.04056
0
LINE
8
BLACK
6
CONTINUOUS
10
6.0561
20
-3.79606
11
6.0561
21
-3.99094
0
LINE
8
BLACK
6
CONTINUOUS
10
6.0561
20
-3.99094
11
6.25492
21
-3.99094
0
LINE
8
BLACK
6
CONTINUOUS
10
6.25492
20
-3.99094
11
6.25492
21
-3.79606
0
LINE
8
BLACK
6
CONTINUOUS
10
6.25492
20
-3.79606
11
6.0561
21
-3.79606
0
LINE
8
BLACK
6
CONTINUOUS
10
5.98051
20
-3.91252
11
5.98121
21
-3.91281
0
LINE
8
BLACK
6
CONTINUOUS
10
5.98121
20
-3.91281
11
5.9815
21
-3.9135
0
LINE
8
BLACK
6
CONTINUOUS
10
5.9815
20
-3.9135
11
5.9815
21
-4.0735
0
LINE
8
BLACK
6
CONTINUOUS
10
5.9815
20
-4.0735
11
5.98121
21
-4.0742
0
LINE
8
BLACK
6
CONTINUOUS
10
5.98121
20
-4.0742
11
5.98051
21
-4.07449
0
LINE
8
BLACK
6
CONTINUOUS
10
5.98051
20
-4.07449
11
5.78051
21
-4.07449
0
LINE
8
BLACK
6
CONTINUOUS
10
5.78051
20
-4.07449
11
5.77982
21
-4.0742
0
LINE
8
BLACK
6
CONTINUOUS
10
5.77982
20
-4.0742
11
5.77953
21
-4.0735
0
LINE
8
BLACK
6
CONTINUOUS
10
5.77953
20
-4.0735
11
5.77953
21
-3.9135
0
LINE
8
BLACK
6
CONTINUOUS
10
5.77953
20
-3.9135
11
5.77982
21
-3.91281
0
LINE
8
BLACK
6
CONTINUOUS
10
5.77982
20
-3.91281
11
5.78051
21
-3.91252
0
LINE
8
BLACK
6
CONTINUOUS
10
5.78051
20
-3.91252
11
5.98051
21
-3.91252
0
LINE
8
BLACK
6
CONTINUOUS
10
5.7815
20
-3.91449
11
5.7815
21
-4.07252
0
LINE
8
BLACK
6
CONTINUOUS
10
5.7815
20
-4.07252
11
5.97953
21
-4.07252
0
LINE
8
BLACK
6
CONTINUOUS
10
5.97953
20
-4.07252
11
5.97953
21
-3.91449
0
LINE
8
BLACK
6
CONTINUOUS
10
5.97953
20
-3.91449
11
5.7815
21
-3.91449
0
LINE
8
BLACK
6
CONTINUOUS
10
5.69783
20
-3.7002
11
5.69853
21
-3.70049
0
LINE
8
BLACK
6
CONTINUOUS
10
5.69853
20
-3.70049
11
5.69882
21
-3.70118
0
LINE
8
BLACK
6
CONTINUOUS
10
5.69882
20
-3.70118
11
5.69882
21
-4.03583
0
LINE
8
BLACK
6
CONTINUOUS
10
5.69882
20
-4.03583
11
5.69853
21
-4.03652
0
LINE
8
BLACK
6
CONTINUOUS
10
5.69853
20
-4.03652
11
5.69783
21
-4.03681
0
LINE
8
BLACK
6
CONTINUOUS
10
5.69783
20
-4.03681
11
5.36319
21
-4.03681
0
LINE
8
BLACK
6
CONTINUOUS
10
5.36319
20
-4.03681
11
5.36249
21
-4.03652
0
LINE
8
BLACK
6
CONTINUOUS
10
5.36249
20
-4.03652
11
5.3622
21
-4.03583
0
LINE
8
BLACK
6
CONTINUOUS
10
5.3622
20
-4.03583
11
5.3622
21
-3.70118
0
LINE
8
BLACK
6
CONTINUOUS
10
5.3622
20
-3.70118
11
5.36249
21
-3.70049
0
LINE
8
BLACK
6
CONTINUOUS
10
5.36249
20
-3.70049
11
5.36319
21
-3.7002
0
LINE
8
BLACK
6
CONTINUOUS
10
5.36319
20
-3.7002
11
5.69783
21
-3.7002
0
LINE
8
BLACK
6
CONTINUOUS
10
5.36417
20
-3.70217
11
5.36417
21
-4.03484
0
LINE
8
BLACK
6
CONTINUOUS
10
5.36417
20
-4.03484
11
5.69685
21
-4.03484
0
LINE
8
BLACK
6
CONTINUOUS
10
5.69685
20
-4.03484
11
5.69685
21
-3.70217
0
LINE
8
BLACK
6
CONTINUOUS
10
5.69685
20
-3.70217
11
5.36417
21
-3.70217
0
LINE
8
BLACK
6
CONTINUOUS
10
6.79783
20
-3.7002
11
6.79853
21
-3.70049
0
LINE
8
BLACK
6
CONTINUOUS
10
6.79853
20
-3.70049
11
6.79882
21
-3.70118
0
LINE
8
BLACK
6
CONTINUOUS
10
6.79882
20
-3.70118
11
6.79882
21
-4.03583
0
LINE
8
BLACK
6
CONTINUOUS
10
6.79882
20
-4.03583
11
6.79853
21
-4.03652
0
LINE
8
BLACK
6
CONTINUOUS
10
6.79853
20
-4.03652
11
6.79783
21
-4.03681
0
LINE
8
BLACK
6
CONTINUOUS
10
6.79783
20
-4.03681
11
6.46319
21
-4.03681
0
LINE
8
BLACK
6
CONTINUOUS
10
6.46319
20
-4.03681
11
6.46249
21
-4.03652
0
LINE
8
BLACK
6
CONTINUOUS
10
6.46249
20
-4.03652
11
6.4622
21
-4.03583
0
LINE
8
BLACK
6
CONTINUOUS
10
6.4622
20
-4.03583
11
6.4622
21
-3.70118
0
LINE
8
BLACK
6
CONTINUOUS
10
6.4622
20
-3.70118
11
6.46249
21
-3.70049
0
LINE
8
BLACK
6
CONTINUOUS
10
6.46249
20
-3.70049
11
6.46319
21
-3.7002
0
LINE
8
BLACK
6
CONTINUOUS
10
6.46319
20
-3.7002
11
6.79783
21
-3.7002
0
LINE
8
BLACK
6
CONTINUOUS
10
6.46417
20
-3.70217
11
6.46417
21
-4.03484
0
LINE
8
BLACK
6
CONTINUOUS
10
6.46417
20
-4.03484
11
6.79685
21
-4.03484
0
LINE
8
BLACK
6
CONTINUOUS
10
6.79685
20
-4.03484
11
6.79685
21
-3.70217
0
LINE
8
BLACK
6
CONTINUOUS
10
6.79685
20
-3.70217
11
6.46417
21
-3.70217
0
LINE
8
BLACK
6
CONTINUOUS
10
6.04558
20
-3.77906
11
6.04627
21
-3.77934
0
LINE
8
BLACK
6
CONTINUOUS
10
6.04627
20
-3.77934
11
6.04656
21
-3.78004
0
LINE
8
BLACK
6
CONTINUOUS
10
6.04656
20
-3.78004
11
6.04656
21
-3.84697
0
LINE
8
BLACK
6
CONTINUOUS
10
6.04656
20
-3.84697
11
6.04627
21
-3.84766
0
LINE
8
BLACK
6
CONTINUOUS
10
6.04627
20
-3.84766
11
6.04558
21
-3.84795
0
LINE
8
BLACK
6
CONTINUOUS
10
6.04558
20
-3.84795
11
5.90778
21
-3.84795
0
LINE
8
BLACK
6
CONTINUOUS
10
5.90778
20
-3.84795
11
5.90709
21
-3.84766
0
LINE
8
BLACK
6
CONTINUOUS
10
5.90709
20
-3.84766
11
5.9068
21
-3.84697
0
LINE
8
BLACK
6
CONTINUOUS
10
5.9068
20
-3.84697
11
5.9068
21
-3.78004
0
LINE
8
BLACK
6
CONTINUOUS
10
5.9068
20
-3.78004
11
5.90709
21
-3.77934
0
LINE
8
BLACK
6
CONTINUOUS
10
5.90709
20
-3.77934
11
5.90778
21
-3.77906
0
LINE
8
BLACK
6
CONTINUOUS
10
5.90778
20
-3.77906
11
6.04558
21
-3.77906
0
LINE
8
BLACK
6
CONTINUOUS
10
5.90877
20
-3.78102
11
5.90877
21
-3.84598
0
LINE
8
BLACK
6
CONTINUOUS
10
5.90877
20
-3.84598
11
6.04459
21
-3.84598
0
LINE
8
BLACK
6
CONTINUOUS
10
6.04459
20
-3.84598
11
6.04459
21
-3.78102
0
LINE
8
BLACK
6
CONTINUOUS
10
6.04459
20
-3.78102
11
5.90877
21
-3.78102
0
LINE
8
BLACK
6
CONTINUOUS
10
5.8935
20
-3.5874
11
5.8942
21
-3.58769
0
LINE
8
BLACK
6
CONTINUOUS
10
5.8942
20
-3.58769
11
5.89449
21
-3.58839
0
LINE
8
BLACK
6
CONTINUOUS
10
5.89449
20
-3.58839
11
5.89449
21
-3.69862
0
LINE
8
BLACK
6
CONTINUOUS
10
5.89449
20
-3.69862
11
5.8942
21
-3.69932
0
LINE
8
BLACK
6
CONTINUOUS
10
5.8942
20
-3.69932
11
5.8935
21
-3.69961
0
LINE
8
BLACK
6
CONTINUOUS
10
5.8935
20
-3.69961
11
5.76752
21
-3.69961
0
LINE
8
BLACK
6
CONTINUOUS
10
5.76752
20
-3.69961
11
5.76682
21
-3.69932
0
LINE
8
BLACK
6
CONTINUOUS
10
5.76682
20
-3.69932
11
5.76654
21
-3.69862
0
LINE
8
BLACK
6
CONTINUOUS
10
5.76654
20
-3.69862
11
5.76654
21
-3.58839
0
LINE
8
BLACK
6
CONTINUOUS
10
5.76654
20
-3.58839
11
5.76682
21
-3.58769
0
LINE
8
BLACK
6
CONTINUOUS
10
5.76682
20
-3.58769
11
5.76752
21
-3.5874
0
LINE
8
BLACK
6
CONTINUOUS
10
5.76752
20
-3.5874
11
5.8935
21
-3.5874
0
LINE
8
BLACK
6
CONTINUOUS
10
5.7685
20
-3.58937
11
5.7685
21
-3.69764
0
LINE
8
BLACK
6
CONTINUOUS
10
5.7685
20
-3.69764
11
5.89252
21
-3.69764
0
LINE
8
BLACK
6
CONTINUOUS
10
5.89252
20
-3.69764
11
5.89252
21
-3.58937
0
LINE
8
BLACK
6
CONTINUOUS
10
5.89252
20
-3.58937
11
5.7685
21
-3.58937
0
LINE
8
BLACK
6
CONTINUOUS
10
6.3685
20
-3.5874
11
6.3692
21
-3.58769
0
LINE
8
BLACK
6
CONTINUOUS
10
6.3692
20
-3.58769
11
6.36949
21
-3.58839
0
LINE
8
BLACK
6
CONTINUOUS
10
6.36949
20
-3.58839
11
6.36949
21
-3.69862
0
LINE
8
BLACK
6
CONTINUOUS
10
6.36949
20
-3.69862
11
6.3692
21
-3.69932
0
LINE
8
BLACK
6
CONTINUOUS
10
6.3692
20
-3.69932
11
6.3685
21
-3.69961
0
LINE
8
BLACK
6
CONTINUOUS
10
6.3685
20
-3.69961
11
6.24252
21
-3.69961
0
LINE
8
BLACK
6
CONTINUOUS
10
6.24252
20
-3.69961
11
6.24182
21
-3.69932
0
LINE
8
BLACK
6
CONTINUOUS
10
6.24182
20
-3.69932
11
6.24154
21
-3.69862
0
LINE
8
BLACK
6
CONTINUOUS
10
6.24154
20
-3.69862
11
6.24154
21
-3.58839
0
LINE
8
BLACK
6
CONTINUOUS
10
6.24154
20
-3.58839
11
6.24182
21
-3.58769
0
LINE
8
BLACK
6
CONTINUOUS
10
6.24182
20
-3.58769
11
6.24252
21
-3.5874
0
LINE
8
BLACK
6
CONTINUOUS
10
6.24252
20
-3.5874
11
6.3685
21
-3.5874
0
LINE
8
BLACK
6
CONTINUOUS
10
6.2435
20
-3.58937
11
6.2435
21
-3.69764
0
LINE
8
BLACK
6
CONTINUOUS
10
6.2435
20
-3.69764
11
6.36752
21
-3.69764
0
LINE
8
BLACK
6
CONTINUOUS
10
6.36752
20
-3.69764
11
6.36752
21
-3.58937
0
LINE
8
BLACK
6
CONTINUOUS
10
6.36752
20
-3.58937
11
6.2435
21
-3.58937
0
LINE
8
BLACK
6
CONTINUOUS
10
5.69783
20
-3.2502
11
5.69853
21
-3.25049
0
LINE
8
BLACK
6
CONTINUOUS
10
5.69853
20
-3.25049
11
5.69882
21
-3.25118
0
LINE
8
BLACK
6
CONTINUOUS
10
5.69882
20
-3.25118
11
5.69882
21
-3.58583
0
LINE
8
BLACK
6
CONTINUOUS
10
5.69882
20
-3.58583
11
5.69853
21
-3.58652
0
LINE
8
BLACK
6
CONTINUOUS
10
5.69853
20
-3.58652
11
5.69783
21
-3.58681
0
LINE
8
BLACK
6
CONTINUOUS
10
5.69783
20
-3.58681
11
5.36319
21
-3.58681
0
LINE
8
BLACK
6
CONTINUOUS
10
5.36319
20
-3.58681
11
5.36249
21
-3.58652
0
LINE
8
BLACK
6
CONTINUOUS
10
5.36249
20
-3.58652
11
5.3622
21
-3.58583
0
LINE
8
BLACK
6
CONTINUOUS
10
5.3622
20
-3.58583
11
5.3622
21
-3.25118
0
LINE
8
BLACK
6
CONTINUOUS
10
5.3622
20
-3.25118
11
5.36249
21
-3.25049
0
LINE
8
BLACK
6
CONTINUOUS
10
5.36249
20
-3.25049
11
5.36319
21
-3.2502
0
LINE
8
BLACK
6
CONTINUOUS
10
5.36319
20
-3.2502
11
5.69783
21
-3.2502
0
LINE
8
BLACK
6
CONTINUOUS
10
5.36417
20
-3.25217
11
5.36417
21
-3.58484
0
LINE
8
BLACK
6
CONTINUOUS
10
5.36417
20
-3.58484
11
5.69685
21
-3.58484
0
LINE
8
BLACK
6
CONTINUOUS
10
5.69685
20
-3.58484
11
5.69685
21
-3.25217
0
LINE
8
BLACK
6
CONTINUOUS
10
5.69685
20
-3.25217
11
5.36417
21
-3.25217
0
LINE
8
BLACK
6
CONTINUOUS
10
6.79783
20
-3.2502
11
6.79853
21
-3.25049
0
LINE
8
BLACK
6
CONTINUOUS
10
6.79853
20
-3.25049
11
6.79882
21
-3.25118
0
LINE
8
BLACK
6
CONTINUOUS
10
6.79882
20
-3.25118
11
6.79882
21
-3.58583
0
LINE
8
BLACK
6
CONTINUOUS
10
6.79882
20
-3.58583
11
6.79853
21
-3.58652
0
LINE
8
BLACK
6
CONTINUOUS
10
6.79853
20
-3.58652
11
6.79783
21
-3.58681
0
LINE
8
BLACK
6
CONTINUOUS
10
6.79783
20
-3.58681
11
6.46319
21
-3.58681
0
LINE
8
BLACK
6
CONTINUOUS
10
6.46319
20
-3.58681
11
6.46249
21
-3.58652
0
LINE
8
BLACK
6
CONTINUOUS
10
6.46249
20
-3.58652
11
6.4622
21
-3.58583
0
LINE
8
BLACK
6
CONTINUOUS
10
6.4622
20
-3.58583
11
6.4622
21
-3.25118
0
LINE
8
BLACK
6
CONTINUOUS
10
6.4622
20
-3.25118
11
6.46249
21
-3.25049
0
LINE
8
BLACK
6
CONTINUOUS
10
6.46249
20
-3.25049
11
6.46319
21
-3.2502
0
LINE
8
BLACK
6
CONTINUOUS
10
6.46319
20
-3.2502
11
6.79783
21
-3.2502
0
LINE
8
BLACK
6
CONTINUOUS
10
6.46417
20
-3.25217
11
6.46417
21
-3.58484
0
LINE
8
BLACK
6
CONTINUOUS
10
6.46417
20
-3.58484
11
6.79685
21
-3.58484
0
LINE
8
BLACK
6
CONTINUOUS
10
6.79685
20
-3.58484
11
6.79685
21
-3.25217
0
LINE
8
BLACK
6
CONTINUOUS
10
6.79685
20
-3.25217
11
6.46417
21
-3.25217
0
LINE
8
BLACK
6
CONTINUOUS
10
6.16382
20
-3.23929
11
6.16451
21
-3.23958
0
LINE
8
BLACK
6
CONTINUOUS
10
6.16451
20
-3.23958
11
6.1648
21
-3.24028
0
LINE
8
BLACK
6
CONTINUOUS
10
6.1648
20
-3.24028
11
6.1648
21
-3.44894
0
LINE
8
BLACK
6
CONTINUOUS
10
6.1648
20
-3.44894
11
6.16451
21
-3.44963
0
LINE
8
BLACK
6
CONTINUOUS
10
6.16451
20
-3.44963
11
6.16382
21
-3.44992
0
LINE
8
BLACK
6
CONTINUOUS
10
6.16382
20
-3.44992
11
6.0772
21
-3.44992
0
LINE
8
BLACK
6
CONTINUOUS
10
6.0772
20
-3.44992
11
6.07651
21
-3.44963
0
LINE
8
BLACK
6
CONTINUOUS
10
6.07651
20
-3.44963
11
6.07622
21
-3.44894
0
LINE
8
BLACK
6
CONTINUOUS
10
6.07622
20
-3.44894
11
6.07622
21
-3.24028
0
LINE
8
BLACK
6
CONTINUOUS
10
6.07622
20
-3.24028
11
6.07651
21
-3.23958
0
LINE
8
BLACK
6
CONTINUOUS
10
6.07651
20
-3.23958
11
6.0772
21
-3.23929
0
LINE
8
BLACK
6
CONTINUOUS
10
6.0772
20
-3.23929
11
6.16382
21
-3.23929
0
LINE
8
BLACK
6
CONTINUOUS
10
6.07819
20
-3.24126
11
6.07819
21
-3.44795
0
LINE
8
BLACK
6
CONTINUOUS
10
6.07819
20
-3.44795
11
6.16283
21
-3.44795
0
LINE
8
BLACK
6
CONTINUOUS
10
6.16283
20
-3.44795
11
6.16283
21
-3.24126
0
LINE
8
BLACK
6
CONTINUOUS
10
6.16283
20
-3.24126
11
6.07819
21
-3.24126
0
LINE
8
BLACK
6
CONTINUOUS
10
6.29808
20
-3.23866
11
6.29878
21
-3.23895
0
LINE
8
BLACK
6
CONTINUOUS
10
6.29878
20
-3.23895
11
6.29907
21
-3.23964
0
LINE
8
BLACK
6
CONTINUOUS
10
6.29907
20
-3.23964
11
6.29907
21
-3.4483
0
LINE
8
BLACK
6
CONTINUOUS
10
6.29907
20
-3.4483
11
6.29878
21
-3.449
0
LINE
8
BLACK
6
CONTINUOUS
10
6.29878
20
-3.449
11
6.29808
21
-3.44929
0
LINE
8
BLACK
6
CONTINUOUS
10
6.29808
20
-3.44929
11
6.21147
21
-3.44929
0
LINE
8
BLACK
6
CONTINUOUS
10
6.21147
20
-3.44929
11
6.21077
21
-3.449
0
LINE
8
BLACK
6
CONTINUOUS
10
6.21077
20
-3.449
11
6.21048
21
-3.4483
0
LINE
8
BLACK
6
CONTINUOUS
10
6.21048
20
-3.4483
11
6.21048
21
-3.4483
0
LINE
8
BLACK
6
CONTINUOUS
10
6.21048
20
-3.4483
11
6.21048
21
-3.23964
0
LINE
8
BLACK
6
CONTINUOUS
10
6.21048
20
-3.23964
11
6.21077
21
-3.23895
0
LINE
8
BLACK
6
CONTINUOUS
10
6.21077
20
-3.23895
11
6.21147
21
-3.23866
0
LINE
8
BLACK
6
CONTINUOUS
10
6.21147
20
-3.23866
11
6.29808
21
-3.23866
0
LINE
8
BLACK
6
CONTINUOUS
10
6.21245
20
-3.24063
11
6.21245
21
-3.44732
0
LINE
8
BLACK
6
CONTINUOUS
10
6.21245
20
-3.44732
11
6.2971
21
-3.44732
0
LINE
8
BLACK
6
CONTINUOUS
10
6.2971
20
-3.44732
11
6.2971
21
-3.24063
0
LINE
8
BLACK
6
CONTINUOUS
10
6.2971
20
-3.24063
11
6.21245
21
-3.24063
0
LINE
8
BLACK
6
CONTINUOUS
10
5.98281
20
-3.1577
11
5.9835
21
-3.15799
0
LINE
8
BLACK
6
CONTINUOUS
10
5.9835
20
-3.15799
11
5.98379
21
-3.15869
0
LINE
8
BLACK
6
CONTINUOUS
10
5.98379
20
-3.15869
11
5.98379
21
-3.29648
0
LINE
8
BLACK
6
CONTINUOUS
10
5.98379
20
-3.29648
11
5.9835
21
-3.29718
0
LINE
8
BLACK
6
CONTINUOUS
10
5.9835
20
-3.29718
11
5.98281
21
-3.29747
0
LINE
8
BLACK
6
CONTINUOUS
10
5.98281
20
-3.29747
11
5.70722
21
-3.29747
0
LINE
8
BLACK
6
CONTINUOUS
10
5.70722
20
-3.29747
11
5.70652
21
-3.29718
0
LINE
8
BLACK
6
CONTINUOUS
10
5.70652
20
-3.29718
11
5.70623
21
-3.29648
0
LINE
8
BLACK
6
CONTINUOUS
10
5.70623
20
-3.29648
11
5.70623
21
-3.29648
0
LINE
8
BLACK
6
CONTINUOUS
10
5.70623
20
-3.29648
11
5.70623
21
-3.15869
0
LINE
8
BLACK
6
CONTINUOUS
10
5.70623
20
-3.15869
11
5.70652
21
-3.15799
0
LINE
8
BLACK
6
CONTINUOUS
10
5.70652
20
-3.15799
11
5.70722
21
-3.1577
0
LINE
8
BLACK
6
CONTINUOUS
10
5.70722
20
-3.1577
11
5.98281
21
-3.1577
0
LINE
8
BLACK
6
CONTINUOUS
10
5.7082
20
-3.15967
11
5.7082
21
-3.2955
0
LINE
8
BLACK
6
CONTINUOUS
10
5.7082
20
-3.2955
11
5.98182
21
-3.2955
0
LINE
8
BLACK
6
CONTINUOUS
10
5.98182
20
-3.2955
11
5.98182
21
-3.15967
0
LINE
8
BLACK
6
CONTINUOUS
10
5.98182
20
-3.15967
11
5.7082
21
-3.15967
  0
ENDSEC
  0
EOF
