  0
SECTION
  2
HEADER
  9
$ANGBASE
  50
0.0
  9
$ANGDIR
  70
1
  9
$MEASUREMENT
  70
0
  0
ENDSEC
  0
SECTION
  2
TABLES
  0
TABLE
  2
LTYPE
  70
4
  0
LTYPE
  5
40F
  2
CONTINUOUS
  70
0
  3
Solid line
  72
65
  73
0
  40
0.0
  0
LTYPE
  5
410
  2
DASHDOT
 70
0
  3
Dash Dot ____ _ ____ _
 72
65
 73
4
 40
2.0
 49
1.25
 49
-0.25
 49
0.25
 49
-0.25
  0
LTYPE
  5
411
  2
DASHED
 70
0
  3
Dashed __ __ __ __ __
 72
65
 73
2
 40
0.75
 49
0.5
 49
-0.25
  0
LTYPE
  5
43B
  2
DOTTED
 70
0
  3
Dotted .  .  .  .
 72
65
 73
2
 40
0.2
 49
0.0
 49
-0.2
  0
ENDTAB
  0
TABLE
  2
STYLE
  70
4
  0
STYLE
  2
KICAD
  70
0
  40
0
  41
1
  42
1
  50
0
  71
0
  3
isocp.shx
  0
STYLE
  2
KICADB
  70
0
  40
0
  41
1
  42
1
  50
0
  71
0
  3
isocp.shx
  0
STYLE
  2
KICADI
  70
0
  40
0
  41
1
  42
1
  50
15
  71
0
  3
isocp.shx
  0
STYLE
  2
KICADBI
  70
0
  40
0
  41
1
  42
1
  50
15
  71
0
  3
isocp.shx
  0
ENDTAB
  0
TABLE
  2
LAYER
  70
1
  0
LAYER
  2
BLACK
  70
0
  62
7
  6
CONTINUOUS
  0
ENDTAB
  0
ENDSEC
  0
SECTION
  2
ENTITIES
0
LINE
8
BLACK
6
CONTINUOUS
10
6.5009
20
-4.13562
11
6.50102
21
-4.1356
0
LINE
8
BLACK
6
CONTINUOUS
10
6.50102
20
-4.1356
11
6.50114
21
-4.13566
0
LINE
8
BLACK
6
CONTINUOUS
10
6.50114
20
-4.13566
11
6.50152
21
-4.13573
0
LINE
8
BLACK
6
CONTINUOUS
10
6.50152
20
-4.13573
11
6.50211
21
-4.13622
0
LINE
8
BLACK
6
CONTINUOUS
10
6.50211
20
-4.13622
11
6.50277
21
-4.13661
0
LINE
8
BLACK
6
CONTINUOUS
10
6.50277
20
-4.13661
11
6.50286
21
-4.13686
0
LINE
8
BLACK
6
CONTINUOUS
10
6.50286
20
-4.13686
11
6.50307
21
-4.13703
0
LINE
8
BLACK
6
CONTINUOUS
10
6.50307
20
-4.13703
11
6.5032
21
-4.13778
0
LINE
8
BLACK
6
CONTINUOUS
10
6.5032
20
-4.13778
11
6.50346
21
-4.1385
0
LINE
8
BLACK
6
CONTINUOUS
10
6.50346
20
-4.1385
11
6.50346
21
-4.3385
0
LINE
8
BLACK
6
CONTINUOUS
10
6.50346
20
-4.3385
11
6.5034
21
-4.33889
0
LINE
8
BLACK
6
CONTINUOUS
10
6.5034
20
-4.33889
11
6.50342
21
-4.33902
0
LINE
8
BLACK
6
CONTINUOUS
10
6.50342
20
-4.33902
11
6.50335
21
-4.33913
0
LINE
8
BLACK
6
CONTINUOUS
10
6.50335
20
-4.33913
11
6.50329
21
-4.33951
0
LINE
8
BLACK
6
CONTINUOUS
10
6.50329
20
-4.33951
11
6.50279
21
-4.3401
0
LINE
8
BLACK
6
CONTINUOUS
10
6.50279
20
-4.3401
11
6.50241
21
-4.34077
0
LINE
8
BLACK
6
CONTINUOUS
10
6.50241
20
-4.34077
11
6.50216
21
-4.34086
0
LINE
8
BLACK
6
CONTINUOUS
10
6.50216
20
-4.34086
11
6.50199
21
-4.34106
0
LINE
8
BLACK
6
CONTINUOUS
10
6.50199
20
-4.34106
11
6.50123
21
-4.34119
0
LINE
8
BLACK
6
CONTINUOUS
10
6.50123
20
-4.34119
11
6.50051
21
-4.34146
0
LINE
8
BLACK
6
CONTINUOUS
10
6.50051
20
-4.34146
11
6.40051
21
-4.34146
0
LINE
8
BLACK
6
CONTINUOUS
10
6.40051
20
-4.34146
11
6.40013
21
-4.34139
0
LINE
8
BLACK
6
CONTINUOUS
10
6.40013
20
-4.34139
11
6.4
21
-4.34141
0
LINE
8
BLACK
6
CONTINUOUS
10
6.4
20
-4.34141
11
6.39989
21
-4.34135
0
LINE
8
BLACK
6
CONTINUOUS
10
6.39989
20
-4.34135
11
6.3995
21
-4.34128
0
LINE
8
BLACK
6
CONTINUOUS
10
6.3995
20
-4.34128
11
6.39891
21
-4.34079
0
LINE
8
BLACK
6
CONTINUOUS
10
6.39891
20
-4.34079
11
6.39825
21
-4.3404
0
LINE
8
BLACK
6
CONTINUOUS
10
6.39825
20
-4.3404
11
6.39816
21
-4.34015
0
LINE
8
BLACK
6
CONTINUOUS
10
6.39816
20
-4.34015
11
6.39795
21
-4.33998
0
LINE
8
BLACK
6
CONTINUOUS
10
6.39795
20
-4.33998
11
6.39782
21
-4.33922
0
LINE
8
BLACK
6
CONTINUOUS
10
6.39782
20
-4.33922
11
6.39756
21
-4.3385
0
LINE
8
BLACK
6
CONTINUOUS
10
6.39756
20
-4.3385
11
6.39756
21
-4.1385
0
LINE
8
BLACK
6
CONTINUOUS
10
6.39756
20
-4.1385
11
6.39763
21
-4.13812
0
LINE
8
BLACK
6
CONTINUOUS
10
6.39763
20
-4.13812
11
6.3976
21
-4.13799
0
LINE
8
BLACK
6
CONTINUOUS
10
6.3976
20
-4.13799
11
6.39767
21
-4.13788
0
LINE
8
BLACK
6
CONTINUOUS
10
6.39767
20
-4.13788
11
6.39774
21
-4.13749
0
LINE
8
BLACK
6
CONTINUOUS
10
6.39774
20
-4.13749
11
6.39823
21
-4.13691
0
LINE
8
BLACK
6
CONTINUOUS
10
6.39823
20
-4.13691
11
6.39861
21
-4.13624
0
LINE
8
BLACK
6
CONTINUOUS
10
6.39861
20
-4.13624
11
6.39886
21
-4.13615
0
LINE
8
BLACK
6
CONTINUOUS
10
6.39886
20
-4.13615
11
6.39904
21
-4.13595
0
LINE
8
BLACK
6
CONTINUOUS
10
6.39904
20
-4.13595
11
6.39979
21
-4.13581
0
LINE
8
BLACK
6
CONTINUOUS
10
6.39979
20
-4.13581
11
6.40051
21
-4.13555
0
LINE
8
BLACK
6
CONTINUOUS
10
6.40051
20
-4.13555
11
6.50051
21
-4.13555
0
LINE
8
BLACK
6
CONTINUOUS
10
6.50051
20
-4.13555
11
6.5009
21
-4.13562
0
LINE
8
BLACK
6
CONTINUOUS
10
6.40346
20
-4.14146
11
6.40346
21
-4.33555
0
LINE
8
BLACK
6
CONTINUOUS
10
6.40346
20
-4.33555
11
6.49756
21
-4.33555
0
LINE
8
BLACK
6
CONTINUOUS
10
6.49756
20
-4.33555
11
6.49756
21
-4.14146
0
LINE
8
BLACK
6
CONTINUOUS
10
6.49756
20
-4.14146
11
6.40346
21
-4.14146
0
LINE
8
BLACK
6
CONTINUOUS
10
6.20746
20
-4.26314
11
6.20815
21
-4.26504
0
LINE
8
BLACK
6
CONTINUOUS
10
6.20815
20
-4.26504
11
6.20815
21
-4.28041
0
LINE
8
BLACK
6
CONTINUOUS
10
6.20815
20
-4.28041
11
6.22561
21
-4.26295
0
LINE
8
BLACK
6
CONTINUOUS
10
6.22561
20
-4.26295
11
6.22645
21
-4.26236
0
LINE
8
BLACK
6
CONTINUOUS
10
6.22645
20
-4.26236
11
6.22846
21
-4.26219
0
LINE
8
BLACK
6
CONTINUOUS
10
6.22846
20
-4.26219
11
6.23012
21
-4.26335
0
LINE
8
BLACK
6
CONTINUOUS
10
6.23012
20
-4.26335
11
6.23064
21
-4.2653
0
LINE
8
BLACK
6
CONTINUOUS
10
6.23064
20
-4.2653
11
6.22979
21
-4.26713
0
LINE
8
BLACK
6
CONTINUOUS
10
6.22979
20
-4.26713
11
6.21472
21
-4.28219
0
LINE
8
BLACK
6
CONTINUOUS
10
6.21472
20
-4.28219
11
6.23006
21
-4.30264
0
LINE
8
BLACK
6
CONTINUOUS
10
6.23006
20
-4.30264
11
6.23052
21
-4.30355
0
LINE
8
BLACK
6
CONTINUOUS
10
6.23052
20
-4.30355
11
6.23041
21
-4.30557
0
LINE
8
BLACK
6
CONTINUOUS
10
6.23041
20
-4.30557
11
6.22903
21
-4.30704
0
LINE
8
BLACK
6
CONTINUOUS
10
6.22903
20
-4.30704
11
6.22703
21
-4.30729
0
LINE
8
BLACK
6
CONTINUOUS
10
6.22703
20
-4.30729
11
6.22534
21
-4.30618
0
LINE
8
BLACK
6
CONTINUOUS
10
6.22534
20
-4.30618
11
6.21051
21
-4.28641
0
LINE
8
BLACK
6
CONTINUOUS
10
6.21051
20
-4.28641
11
6.20815
21
-4.28876
0
LINE
8
BLACK
6
CONTINUOUS
10
6.20815
20
-4.28876
11
6.20815
21
-4.30441
0
LINE
8
BLACK
6
CONTINUOUS
10
6.20815
20
-4.30441
11
6.20798
21
-4.30542
0
LINE
8
BLACK
6
CONTINUOUS
10
6.20798
20
-4.30542
11
6.20668
21
-4.30697
0
LINE
8
BLACK
6
CONTINUOUS
10
6.20668
20
-4.30697
11
6.20469
21
-4.30732
0
LINE
8
BLACK
6
CONTINUOUS
10
6.20469
20
-4.30732
11
6.20294
21
-4.30631
0
LINE
8
BLACK
6
CONTINUOUS
10
6.20294
20
-4.30631
11
6.20225
21
-4.30441
0
LINE
8
BLACK
6
CONTINUOUS
10
6.20225
20
-4.30441
11
6.20225
21
-4.26504
0
LINE
8
BLACK
6
CONTINUOUS
10
6.20225
20
-4.26504
11
6.20243
21
-4.26403
0
LINE
8
BLACK
6
CONTINUOUS
10
6.20243
20
-4.26403
11
6.20372
21
-4.26248
0
LINE
8
BLACK
6
CONTINUOUS
10
6.20372
20
-4.26248
11
6.20571
21
-4.26213
0
LINE
8
BLACK
6
CONTINUOUS
10
6.20571
20
-4.26213
11
6.20746
21
-4.26314
0
LINE
8
BLACK
6
CONTINUOUS
10
5.49764
20
-4.04306
11
5.4977
21
-4.04306
0
LINE
8
BLACK
6
CONTINUOUS
10
5.4977
20
-4.04306
11
5.50332
21
-4.04493
0
LINE
8
BLACK
6
CONTINUOUS
10
5.50332
20
-4.04493
11
5.50423
21
-4.04542
0
LINE
8
BLACK
6
CONTINUOUS
10
5.50423
20
-4.04542
11
5.50528
21
-4.04714
0
LINE
8
BLACK
6
CONTINUOUS
10
5.50528
20
-4.04714
11
5.50499
21
-4.04914
0
LINE
8
BLACK
6
CONTINUOUS
10
5.50499
20
-4.04914
11
5.50348
21
-4.05048
0
LINE
8
BLACK
6
CONTINUOUS
10
5.50348
20
-4.05048
11
5.50146
21
-4.05053
0
LINE
8
BLACK
6
CONTINUOUS
10
5.50146
20
-4.05053
11
5.49629
21
-4.04881
0
LINE
8
BLACK
6
CONTINUOUS
10
5.49629
20
-4.04881
11
5.48809
21
-4.04881
0
LINE
8
BLACK
6
CONTINUOUS
10
5.48809
20
-4.04881
11
5.48539
21
-4.05016
0
LINE
8
BLACK
6
CONTINUOUS
10
5.48539
20
-4.05016
11
5.48419
21
-4.05136
0
LINE
8
BLACK
6
CONTINUOUS
10
5.48419
20
-4.05136
11
5.48285
21
-4.05406
0
LINE
8
BLACK
6
CONTINUOUS
10
5.48285
20
-4.05406
11
5.48285
21
-4.05641
0
LINE
8
BLACK
6
CONTINUOUS
10
5.48285
20
-4.05641
11
5.48419
21
-4.05911
0
LINE
8
BLACK
6
CONTINUOUS
10
5.48419
20
-4.05911
11
5.48539
21
-4.06031
0
LINE
8
BLACK
6
CONTINUOUS
10
5.48539
20
-4.06031
11
5.48842
21
-4.06182
0
LINE
8
BLACK
6
CONTINUOUS
10
5.48842
20
-4.06182
11
5.49561
21
-4.06362
0
LINE
8
BLACK
6
CONTINUOUS
10
5.49561
20
-4.06362
11
5.49607
21
-4.06382
0
LINE
8
BLACK
6
CONTINUOUS
10
5.49607
20
-4.06382
11
5.49621
21
-4.06384
0
LINE
8
BLACK
6
CONTINUOUS
10
5.49621
20
-4.06384
11
5.49996
21
-4.06572
0
LINE
8
BLACK
6
CONTINUOUS
10
5.49996
20
-4.06572
11
5.50067
21
-4.06624
0
LINE
8
BLACK
6
CONTINUOUS
10
5.50067
20
-4.06624
11
5.50073
21
-4.06627
0
LINE
8
BLACK
6
CONTINUOUS
10
5.50073
20
-4.06627
11
5.5026
21
-4.06814
0
LINE
8
BLACK
6
CONTINUOUS
10
5.5026
20
-4.06814
11
5.50311
21
-4.06887
0
LINE
8
BLACK
6
CONTINUOUS
10
5.50311
20
-4.06887
11
5.50316
21
-4.06891
0
LINE
8
BLACK
6
CONTINUOUS
10
5.50316
20
-4.06891
11
5.50503
21
-4.07266
0
LINE
8
BLACK
6
CONTINUOUS
10
5.50503
20
-4.07266
11
5.50532
21
-4.07364
0
LINE
8
BLACK
6
CONTINUOUS
10
5.50532
20
-4.07364
11
5.50528
21
-4.07381
0
LINE
8
BLACK
6
CONTINUOUS
10
5.50528
20
-4.07381
11
5.50534
21
-4.07398
0
LINE
8
BLACK
6
CONTINUOUS
10
5.50534
20
-4.07398
11
5.50534
21
-4.07773
0
LINE
8
BLACK
6
CONTINUOUS
10
5.50534
20
-4.07773
11
5.50516
21
-4.07874
0
LINE
8
BLACK
6
CONTINUOUS
10
5.50516
20
-4.07874
11
5.50505
21
-4.07888
0
LINE
8
BLACK
6
CONTINUOUS
10
5.50505
20
-4.07888
11
5.50503
21
-4.07905
0
LINE
8
BLACK
6
CONTINUOUS
10
5.50503
20
-4.07905
11
5.50316
21
-4.0828
0
LINE
8
BLACK
6
CONTINUOUS
10
5.50316
20
-4.0828
11
5.50263
21
-4.08351
0
LINE
8
BLACK
6
CONTINUOUS
10
5.50263
20
-4.08351
11
5.5026
21
-4.08357
0
LINE
8
BLACK
6
CONTINUOUS
10
5.5026
20
-4.08357
11
5.50073
21
-4.08544
0
LINE
8
BLACK
6
CONTINUOUS
10
5.50073
20
-4.08544
11
5.50001
21
-4.08595
0
LINE
8
BLACK
6
CONTINUOUS
10
5.50001
20
-4.08595
11
5.49996
21
-4.086
0
LINE
8
BLACK
6
CONTINUOUS
10
5.49996
20
-4.086
11
5.49621
21
-4.08787
0
LINE
8
BLACK
6
CONTINUOUS
10
5.49621
20
-4.08787
11
5.49523
21
-4.08816
0
LINE
8
BLACK
6
CONTINUOUS
10
5.49523
20
-4.08816
11
5.49506
21
-4.08812
0
LINE
8
BLACK
6
CONTINUOUS
10
5.49506
20
-4.08812
11
5.49489
21
-4.08818
0
LINE
8
BLACK
6
CONTINUOUS
10
5.49489
20
-4.08818
11
5.48552
21
-4.08818
0
LINE
8
BLACK
6
CONTINUOUS
10
5.48552
20
-4.08818
11
5.48465
21
-4.08803
0
LINE
8
BLACK
6
CONTINUOUS
10
5.48465
20
-4.08803
11
5.48458
21
-4.08803
0
LINE
8
BLACK
6
CONTINUOUS
10
5.48458
20
-4.08803
11
5.47896
21
-4.08616
0
LINE
8
BLACK
6
CONTINUOUS
10
5.47896
20
-4.08616
11
5.47806
21
-4.08567
0
LINE
8
BLACK
6
CONTINUOUS
10
5.47806
20
-4.08567
11
5.477
21
-4.08395
0
LINE
8
BLACK
6
CONTINUOUS
10
5.477
20
-4.08395
11
5.4773
21
-4.08195
0
LINE
8
BLACK
6
CONTINUOUS
10
5.4773
20
-4.08195
11
5.47881
21
-4.08061
0
LINE
8
BLACK
6
CONTINUOUS
10
5.47881
20
-4.08061
11
5.48083
21
-4.08055
0
LINE
8
BLACK
6
CONTINUOUS
10
5.48083
20
-4.08055
11
5.486
21
-4.08228
0
LINE
8
BLACK
6
CONTINUOUS
10
5.486
20
-4.08228
11
5.49419
21
-4.08228
0
LINE
8
BLACK
6
CONTINUOUS
10
5.49419
20
-4.08228
11
5.49689
21
-4.08093
0
LINE
8
BLACK
6
CONTINUOUS
10
5.49689
20
-4.08093
11
5.49809
21
-4.07973
0
LINE
8
BLACK
6
CONTINUOUS
10
5.49809
20
-4.07973
11
5.49944
21
-4.07703
0
LINE
8
BLACK
6
CONTINUOUS
10
5.49944
20
-4.07703
11
5.49944
21
-4.07468
0
LINE
8
BLACK
6
CONTINUOUS
10
5.49944
20
-4.07468
11
5.49809
21
-4.07198
0
LINE
8
BLACK
6
CONTINUOUS
10
5.49809
20
-4.07198
11
5.49689
21
-4.07078
0
LINE
8
BLACK
6
CONTINUOUS
10
5.49689
20
-4.07078
11
5.49386
21
-4.06927
0
LINE
8
BLACK
6
CONTINUOUS
10
5.49386
20
-4.06927
11
5.48668
21
-4.06747
0
LINE
8
BLACK
6
CONTINUOUS
10
5.48668
20
-4.06747
11
5.48621
21
-4.06726
0
LINE
8
BLACK
6
CONTINUOUS
10
5.48621
20
-4.06726
11
5.48607
21
-4.06725
0
LINE
8
BLACK
6
CONTINUOUS
10
5.48607
20
-4.06725
11
5.48232
21
-4.06537
0
LINE
8
BLACK
6
CONTINUOUS
10
5.48232
20
-4.06537
11
5.48161
21
-4.06485
0
LINE
8
BLACK
6
CONTINUOUS
10
5.48161
20
-4.06485
11
5.48155
21
-4.06482
0
LINE
8
BLACK
6
CONTINUOUS
10
5.48155
20
-4.06482
11
5.47968
21
-4.06295
0
LINE
8
BLACK
6
CONTINUOUS
10
5.47968
20
-4.06295
11
5.47917
21
-4.06222
0
LINE
8
BLACK
6
CONTINUOUS
10
5.47917
20
-4.06222
11
5.47913
21
-4.06218
0
LINE
8
BLACK
6
CONTINUOUS
10
5.47913
20
-4.06218
11
5.47725
21
-4.05843
0
LINE
8
BLACK
6
CONTINUOUS
10
5.47725
20
-4.05843
11
5.47696
21
-4.05745
0
LINE
8
BLACK
6
CONTINUOUS
10
5.47696
20
-4.05745
11
5.477
21
-4.05727
0
LINE
8
BLACK
6
CONTINUOUS
10
5.477
20
-4.05727
11
5.47694
21
-4.05711
0
LINE
8
BLACK
6
CONTINUOUS
10
5.47694
20
-4.05711
11
5.47694
21
-4.05336
0
LINE
8
BLACK
6
CONTINUOUS
10
5.47694
20
-4.05336
11
5.47712
21
-4.05235
0
LINE
8
BLACK
6
CONTINUOUS
10
5.47712
20
-4.05235
11
5.47723
21
-4.05221
0
LINE
8
BLACK
6
CONTINUOUS
10
5.47723
20
-4.05221
11
5.47725
21
-4.05204
0
LINE
8
BLACK
6
CONTINUOUS
10
5.47725
20
-4.05204
11
5.47913
21
-4.04829
0
LINE
8
BLACK
6
CONTINUOUS
10
5.47913
20
-4.04829
11
5.47965
21
-4.04758
0
LINE
8
BLACK
6
CONTINUOUS
10
5.47965
20
-4.04758
11
5.47968
21
-4.04752
0
LINE
8
BLACK
6
CONTINUOUS
10
5.47968
20
-4.04752
11
5.48155
21
-4.04565
0
LINE
8
BLACK
6
CONTINUOUS
10
5.48155
20
-4.04565
11
5.48228
21
-4.04514
0
LINE
8
BLACK
6
CONTINUOUS
10
5.48228
20
-4.04514
11
5.48232
21
-4.04509
0
LINE
8
BLACK
6
CONTINUOUS
10
5.48232
20
-4.04509
11
5.48607
21
-4.04322
0
LINE
8
BLACK
6
CONTINUOUS
10
5.48607
20
-4.04322
11
5.48705
21
-4.04293
0
LINE
8
BLACK
6
CONTINUOUS
10
5.48705
20
-4.04293
11
5.48723
21
-4.04297
0
LINE
8
BLACK
6
CONTINUOUS
10
5.48723
20
-4.04297
11
5.48739
21
-4.04291
0
LINE
8
BLACK
6
CONTINUOUS
10
5.48739
20
-4.04291
11
5.49677
21
-4.04291
0
LINE
8
BLACK
6
CONTINUOUS
10
5.49677
20
-4.04291
11
5.49764
21
-4.04306
0
LINE
8
BLACK
6
CONTINUOUS
10
6.59764
20
-4.04306
11
6.5977
21
-4.04306
0
LINE
8
BLACK
6
CONTINUOUS
10
6.5977
20
-4.04306
11
6.60332
21
-4.04493
0
LINE
8
BLACK
6
CONTINUOUS
10
6.60332
20
-4.04493
11
6.60423
21
-4.04542
0
LINE
8
BLACK
6
CONTINUOUS
10
6.60423
20
-4.04542
11
6.60528
21
-4.04714
0
LINE
8
BLACK
6
CONTINUOUS
10
6.60528
20
-4.04714
11
6.60499
21
-4.04914
0
LINE
8
BLACK
6
CONTINUOUS
10
6.60499
20
-4.04914
11
6.60348
21
-4.05048
0
LINE
8
BLACK
6
CONTINUOUS
10
6.60348
20
-4.05048
11
6.60146
21
-4.05053
0
LINE
8
BLACK
6
CONTINUOUS
10
6.60146
20
-4.05053
11
6.59629
21
-4.04881
0
LINE
8
BLACK
6
CONTINUOUS
10
6.59629
20
-4.04881
11
6.58809
21
-4.04881
0
LINE
8
BLACK
6
CONTINUOUS
10
6.58809
20
-4.04881
11
6.58539
21
-4.05016
0
LINE
8
BLACK
6
CONTINUOUS
10
6.58539
20
-4.05016
11
6.58419
21
-4.05136
0
LINE
8
BLACK
6
CONTINUOUS
10
6.58419
20
-4.05136
11
6.58285
21
-4.05406
0
LINE
8
BLACK
6
CONTINUOUS
10
6.58285
20
-4.05406
11
6.58285
21
-4.05641
0
LINE
8
BLACK
6
CONTINUOUS
10
6.58285
20
-4.05641
11
6.58419
21
-4.05911
0
LINE
8
BLACK
6
CONTINUOUS
10
6.58419
20
-4.05911
11
6.58539
21
-4.06031
0
LINE
8
BLACK
6
CONTINUOUS
10
6.58539
20
-4.06031
11
6.58842
21
-4.06182
0
LINE
8
BLACK
6
CONTINUOUS
10
6.58842
20
-4.06182
11
6.59561
21
-4.06362
0
LINE
8
BLACK
6
CONTINUOUS
10
6.59561
20
-4.06362
11
6.59607
21
-4.06382
0
LINE
8
BLACK
6
CONTINUOUS
10
6.59607
20
-4.06382
11
6.59621
21
-4.06384
0
LINE
8
BLACK
6
CONTINUOUS
10
6.59621
20
-4.06384
11
6.59996
21
-4.06572
0
LINE
8
BLACK
6
CONTINUOUS
10
6.59996
20
-4.06572
11
6.60067
21
-4.06624
0
LINE
8
BLACK
6
CONTINUOUS
10
6.60067
20
-4.06624
11
6.60073
21
-4.06627
0
LINE
8
BLACK
6
CONTINUOUS
10
6.60073
20
-4.06627
11
6.6026
21
-4.06814
0
LINE
8
BLACK
6
CONTINUOUS
10
6.6026
20
-4.06814
11
6.60311
21
-4.06887
0
LINE
8
BLACK
6
CONTINUOUS
10
6.60311
20
-4.06887
11
6.60316
21
-4.06891
0
LINE
8
BLACK
6
CONTINUOUS
10
6.60316
20
-4.06891
11
6.60503
21
-4.07266
0
LINE
8
BLACK
6
CONTINUOUS
10
6.60503
20
-4.07266
11
6.60532
21
-4.07364
0
LINE
8
BLACK
6
CONTINUOUS
10
6.60532
20
-4.07364
11
6.60528
21
-4.07381
0
LINE
8
BLACK
6
CONTINUOUS
10
6.60528
20
-4.07381
11
6.60534
21
-4.07398
0
LINE
8
BLACK
6
CONTINUOUS
10
6.60534
20
-4.07398
11
6.60534
21
-4.07773
0
LINE
8
BLACK
6
CONTINUOUS
10
6.60534
20
-4.07773
11
6.60516
21
-4.07874
0
LINE
8
BLACK
6
CONTINUOUS
10
6.60516
20
-4.07874
11
6.60505
21
-4.07888
0
LINE
8
BLACK
6
CONTINUOUS
10
6.60505
20
-4.07888
11
6.60503
21
-4.07905
0
LINE
8
BLACK
6
CONTINUOUS
10
6.60503
20
-4.07905
11
6.60316
21
-4.0828
0
LINE
8
BLACK
6
CONTINUOUS
10
6.60316
20
-4.0828
11
6.60263
21
-4.08351
0
LINE
8
BLACK
6
CONTINUOUS
10
6.60263
20
-4.08351
11
6.6026
21
-4.08357
0
LINE
8
BLACK
6
CONTINUOUS
10
6.6026
20
-4.08357
11
6.60073
21
-4.08544
0
LINE
8
BLACK
6
CONTINUOUS
10
6.60073
20
-4.08544
11
6.60001
21
-4.08595
0
LINE
8
BLACK
6
CONTINUOUS
10
6.60001
20
-4.08595
11
6.59996
21
-4.086
0
LINE
8
BLACK
6
CONTINUOUS
10
6.59996
20
-4.086
11
6.59621
21
-4.08787
0
LINE
8
BLACK
6
CONTINUOUS
10
6.59621
20
-4.08787
11
6.59523
21
-4.08816
0
LINE
8
BLACK
6
CONTINUOUS
10
6.59523
20
-4.08816
11
6.59506
21
-4.08812
0
LINE
8
BLACK
6
CONTINUOUS
10
6.59506
20
-4.08812
11
6.59489
21
-4.08818
0
LINE
8
BLACK
6
CONTINUOUS
10
6.59489
20
-4.08818
11
6.58552
21
-4.08818
0
LINE
8
BLACK
6
CONTINUOUS
10
6.58552
20
-4.08818
11
6.58465
21
-4.08803
0
LINE
8
BLACK
6
CONTINUOUS
10
6.58465
20
-4.08803
11
6.58458
21
-4.08803
0
LINE
8
BLACK
6
CONTINUOUS
10
6.58458
20
-4.08803
11
6.57896
21
-4.08616
0
LINE
8
BLACK
6
CONTINUOUS
10
6.57896
20
-4.08616
11
6.57806
21
-4.08567
0
LINE
8
BLACK
6
CONTINUOUS
10
6.57806
20
-4.08567
11
6.577
21
-4.08395
0
LINE
8
BLACK
6
CONTINUOUS
10
6.577
20
-4.08395
11
6.5773
21
-4.08195
0
LINE
8
BLACK
6
CONTINUOUS
10
6.5773
20
-4.08195
11
6.57881
21
-4.08061
0
LINE
8
BLACK
6
CONTINUOUS
10
6.57881
20
-4.08061
11
6.58083
21
-4.08055
0
LINE
8
BLACK
6
CONTINUOUS
10
6.58083
20
-4.08055
11
6.586
21
-4.08228
0
LINE
8
BLACK
6
CONTINUOUS
10
6.586
20
-4.08228
11
6.59419
21
-4.08228
0
LINE
8
BLACK
6
CONTINUOUS
10
6.59419
20
-4.08228
11
6.59689
21
-4.08093
0
LINE
8
BLACK
6
CONTINUOUS
10
6.59689
20
-4.08093
11
6.59809
21
-4.07973
0
LINE
8
BLACK
6
CONTINUOUS
10
6.59809
20
-4.07973
11
6.59944
21
-4.07703
0
LINE
8
BLACK
6
CONTINUOUS
10
6.59944
20
-4.07703
11
6.59944
21
-4.07468
0
LINE
8
BLACK
6
CONTINUOUS
10
6.59944
20
-4.07468
11
6.59809
21
-4.07198
0
LINE
8
BLACK
6
CONTINUOUS
10
6.59809
20
-4.07198
11
6.59689
21
-4.07078
0
LINE
8
BLACK
6
CONTINUOUS
10
6.59689
20
-4.07078
11
6.59386
21
-4.06927
0
LINE
8
BLACK
6
CONTINUOUS
10
6.59386
20
-4.06927
11
6.58668
21
-4.06747
0
LINE
8
BLACK
6
CONTINUOUS
10
6.58668
20
-4.06747
11
6.58621
21
-4.06726
0
LINE
8
BLACK
6
CONTINUOUS
10
6.58621
20
-4.06726
11
6.58607
21
-4.06725
0
LINE
8
BLACK
6
CONTINUOUS
10
6.58607
20
-4.06725
11
6.58232
21
-4.06537
0
LINE
8
BLACK
6
CONTINUOUS
10
6.58232
20
-4.06537
11
6.58161
21
-4.06485
0
LINE
8
BLACK
6
CONTINUOUS
10
6.58161
20
-4.06485
11
6.58155
21
-4.06482
0
LINE
8
BLACK
6
CONTINUOUS
10
6.58155
20
-4.06482
11
6.57968
21
-4.06295
0
LINE
8
BLACK
6
CONTINUOUS
10
6.57968
20
-4.06295
11
6.57917
21
-4.06222
0
LINE
8
BLACK
6
CONTINUOUS
10
6.57917
20
-4.06222
11
6.57913
21
-4.06218
0
LINE
8
BLACK
6
CONTINUOUS
10
6.57913
20
-4.06218
11
6.57725
21
-4.05843
0
LINE
8
BLACK
6
CONTINUOUS
10
6.57725
20
-4.05843
11
6.57696
21
-4.05745
0
LINE
8
BLACK
6
CONTINUOUS
10
6.57696
20
-4.05745
11
6.577
21
-4.05727
0
LINE
8
BLACK
6
CONTINUOUS
10
6.577
20
-4.05727
11
6.57694
21
-4.05711
0
LINE
8
BLACK
6
CONTINUOUS
10
6.57694
20
-4.05711
11
6.57694
21
-4.05336
0
LINE
8
BLACK
6
CONTINUOUS
10
6.57694
20
-4.05336
11
6.57712
21
-4.05235
0
LINE
8
BLACK
6
CONTINUOUS
10
6.57712
20
-4.05235
11
6.57723
21
-4.05221
0
LINE
8
BLACK
6
CONTINUOUS
10
6.57723
20
-4.05221
11
6.57725
21
-4.05204
0
LINE
8
BLACK
6
CONTINUOUS
10
6.57725
20
-4.05204
11
6.57913
21
-4.04829
0
LINE
8
BLACK
6
CONTINUOUS
10
6.57913
20
-4.04829
11
6.57965
21
-4.04758
0
LINE
8
BLACK
6
CONTINUOUS
10
6.57965
20
-4.04758
11
6.57968
21
-4.04752
0
LINE
8
BLACK
6
CONTINUOUS
10
6.57968
20
-4.04752
11
6.58155
21
-4.04565
0
LINE
8
BLACK
6
CONTINUOUS
10
6.58155
20
-4.04565
11
6.58228
21
-4.04514
0
LINE
8
BLACK
6
CONTINUOUS
10
6.58228
20
-4.04514
11
6.58232
21
-4.04509
0
LINE
8
BLACK
6
CONTINUOUS
10
6.58232
20
-4.04509
11
6.58607
21
-4.04322
0
LINE
8
BLACK
6
CONTINUOUS
10
6.58607
20
-4.04322
11
6.58705
21
-4.04293
0
LINE
8
BLACK
6
CONTINUOUS
10
6.58705
20
-4.04293
11
6.58723
21
-4.04297
0
LINE
8
BLACK
6
CONTINUOUS
10
6.58723
20
-4.04297
11
6.58739
21
-4.04291
0
LINE
8
BLACK
6
CONTINUOUS
10
6.58739
20
-4.04291
11
6.59677
21
-4.04291
0
LINE
8
BLACK
6
CONTINUOUS
10
6.59677
20
-4.04291
11
6.59764
21
-4.04306
0
LINE
8
BLACK
6
CONTINUOUS
10
5.57224
20
-4.04313
11
5.57316
21
-4.04326
0
LINE
8
BLACK
6
CONTINUOUS
10
5.57316
20
-4.04326
11
5.57322
21
-4.04333
0
LINE
8
BLACK
6
CONTINUOUS
10
5.57322
20
-4.04333
11
5.5733
21
-4.04334
0
LINE
8
BLACK
6
CONTINUOUS
10
5.5733
20
-4.04334
11
5.57388
21
-4.04407
0
LINE
8
BLACK
6
CONTINUOUS
10
5.57388
20
-4.04407
11
5.5745
21
-4.04477
0
LINE
8
BLACK
6
CONTINUOUS
10
5.5745
20
-4.04477
11
5.57451
21
-4.04486
0
LINE
8
BLACK
6
CONTINUOUS
10
5.57451
20
-4.04486
11
5.57456
21
-4.04493
0
LINE
8
BLACK
6
CONTINUOUS
10
5.57456
20
-4.04493
11
5.58768
21
-4.0843
0
LINE
8
BLACK
6
CONTINUOUS
10
5.58768
20
-4.0843
11
5.58783
21
-4.08531
0
LINE
8
BLACK
6
CONTINUOUS
10
5.58783
20
-4.08531
11
5.58709
21
-4.08719
0
LINE
8
BLACK
6
CONTINUOUS
10
5.58709
20
-4.08719
11
5.58531
21
-4.08815
0
LINE
8
BLACK
6
CONTINUOUS
10
5.58531
20
-4.08815
11
5.58333
21
-4.08774
0
LINE
8
BLACK
6
CONTINUOUS
10
5.58333
20
-4.08774
11
5.58208
21
-4.08616
0
LINE
8
BLACK
6
CONTINUOUS
10
5.58208
20
-4.08616
11
5.579
21
-4.07693
0
LINE
8
BLACK
6
CONTINUOUS
10
5.579
20
-4.07693
11
5.56451
21
-4.07693
0
LINE
8
BLACK
6
CONTINUOUS
10
5.56451
20
-4.07693
11
5.56143
21
-4.08616
0
LINE
8
BLACK
6
CONTINUOUS
10
5.56143
20
-4.08616
11
5.56095
21
-4.08706
0
LINE
8
BLACK
6
CONTINUOUS
10
5.56095
20
-4.08706
11
5.55923
21
-4.08812
0
LINE
8
BLACK
6
CONTINUOUS
10
5.55923
20
-4.08812
11
5.55723
21
-4.08783
0
LINE
8
BLACK
6
CONTINUOUS
10
5.55723
20
-4.08783
11
5.55589
21
-4.08631
0
LINE
8
BLACK
6
CONTINUOUS
10
5.55589
20
-4.08631
11
5.55583
21
-4.0843
0
LINE
8
BLACK
6
CONTINUOUS
10
5.55583
20
-4.0843
11
5.56896
21
-4.04493
0
LINE
8
BLACK
6
CONTINUOUS
10
5.56896
20
-4.04493
11
5.56944
21
-4.04402
0
LINE
8
BLACK
6
CONTINUOUS
10
5.56944
20
-4.04402
11
5.56952
21
-4.04398
0
LINE
8
BLACK
6
CONTINUOUS
10
5.56952
20
-4.04398
11
5.56955
21
-4.0439
0
LINE
8
BLACK
6
CONTINUOUS
10
5.56955
20
-4.0439
11
5.57037
21
-4.04346
0
LINE
8
BLACK
6
CONTINUOUS
10
5.57037
20
-4.04346
11
5.57116
21
-4.04297
0
LINE
8
BLACK
6
CONTINUOUS
10
5.57116
20
-4.04297
11
5.57125
21
-4.04298
0
LINE
8
BLACK
6
CONTINUOUS
10
5.57125
20
-4.04298
11
5.57132
21
-4.04294
0
LINE
8
BLACK
6
CONTINUOUS
10
5.57132
20
-4.04294
11
5.57224
21
-4.04313
0
LINE
8
BLACK
6
CONTINUOUS
10
5.56648
20
-4.07103
11
5.57703
21
-4.07103
0
LINE
8
BLACK
6
CONTINUOUS
10
5.57703
20
-4.07103
11
5.57176
21
-4.0552
0
LINE
8
BLACK
6
CONTINUOUS
10
5.57176
20
-4.0552
11
5.56648
21
-4.07103
0
LINE
8
BLACK
6
CONTINUOUS
10
6.67224
20
-4.04313
11
6.67316
21
-4.04326
0
LINE
8
BLACK
6
CONTINUOUS
10
6.67316
20
-4.04326
11
6.67322
21
-4.04333
0
LINE
8
BLACK
6
CONTINUOUS
10
6.67322
20
-4.04333
11
6.6733
21
-4.04334
0
LINE
8
BLACK
6
CONTINUOUS
10
6.6733
20
-4.04334
11
6.67388
21
-4.04407
0
LINE
8
BLACK
6
CONTINUOUS
10
6.67388
20
-4.04407
11
6.6745
21
-4.04477
0
LINE
8
BLACK
6
CONTINUOUS
10
6.6745
20
-4.04477
11
6.6745
21
-4.04486
0
LINE
8
BLACK
6
CONTINUOUS
10
6.6745
20
-4.04486
11
6.67456
21
-4.04493
0
LINE
8
BLACK
6
CONTINUOUS
10
6.67456
20
-4.04493
11
6.68768
21
-4.0843
0
LINE
8
BLACK
6
CONTINUOUS
10
6.68768
20
-4.0843
11
6.68783
21
-4.08531
0
LINE
8
BLACK
6
CONTINUOUS
10
6.68783
20
-4.08531
11
6.68709
21
-4.08719
0
LINE
8
BLACK
6
CONTINUOUS
10
6.68709
20
-4.08719
11
6.68531
21
-4.08815
0
LINE
8
BLACK
6
CONTINUOUS
10
6.68531
20
-4.08815
11
6.68333
21
-4.08774
0
LINE
8
BLACK
6
CONTINUOUS
10
6.68333
20
-4.08774
11
6.68208
21
-4.08616
0
LINE
8
BLACK
6
CONTINUOUS
10
6.68208
20
-4.08616
11
6.679
21
-4.07693
0
LINE
8
BLACK
6
CONTINUOUS
10
6.679
20
-4.07693
11
6.66451
21
-4.07693
0
LINE
8
BLACK
6
CONTINUOUS
10
6.66451
20
-4.07693
11
6.66143
21
-4.08616
0
LINE
8
BLACK
6
CONTINUOUS
10
6.66143
20
-4.08616
11
6.66095
21
-4.08706
0
LINE
8
BLACK
6
CONTINUOUS
10
6.66095
20
-4.08706
11
6.65923
21
-4.08812
0
LINE
8
BLACK
6
CONTINUOUS
10
6.65923
20
-4.08812
11
6.65723
21
-4.08783
0
LINE
8
BLACK
6
CONTINUOUS
10
6.65723
20
-4.08783
11
6.65589
21
-4.08631
0
LINE
8
BLACK
6
CONTINUOUS
10
6.65589
20
-4.08631
11
6.65583
21
-4.0843
0
LINE
8
BLACK
6
CONTINUOUS
10
6.65583
20
-4.0843
11
6.66896
21
-4.04493
0
LINE
8
BLACK
6
CONTINUOUS
10
6.66896
20
-4.04493
11
6.66944
21
-4.04402
0
LINE
8
BLACK
6
CONTINUOUS
10
6.66944
20
-4.04402
11
6.66952
21
-4.04398
0
LINE
8
BLACK
6
CONTINUOUS
10
6.66952
20
-4.04398
11
6.66955
21
-4.0439
0
LINE
8
BLACK
6
CONTINUOUS
10
6.66955
20
-4.0439
11
6.67037
21
-4.04346
0
LINE
8
BLACK
6
CONTINUOUS
10
6.67037
20
-4.04346
11
6.67116
21
-4.04297
0
LINE
8
BLACK
6
CONTINUOUS
10
6.67116
20
-4.04297
11
6.67125
21
-4.04298
0
LINE
8
BLACK
6
CONTINUOUS
10
6.67125
20
-4.04298
11
6.67132
21
-4.04294
0
LINE
8
BLACK
6
CONTINUOUS
10
6.67132
20
-4.04294
11
6.67224
21
-4.04313
0
LINE
8
BLACK
6
CONTINUOUS
10
6.66648
20
-4.07103
11
6.67703
21
-4.07103
0
LINE
8
BLACK
6
CONTINUOUS
10
6.67703
20
-4.07103
11
6.67176
21
-4.0552
0
LINE
8
BLACK
6
CONTINUOUS
10
6.67176
20
-4.0552
11
6.66648
21
-4.07103
0
LINE
8
BLACK
6
CONTINUOUS
10
5.54563
20
-4.04302
11
5.54602
21
-4.04295
0
LINE
8
BLACK
6
CONTINUOUS
10
5.54602
20
-4.04295
11
5.54658
21
-4.04327
0
LINE
8
BLACK
6
CONTINUOUS
10
5.54658
20
-4.04327
11
5.5472
21
-4.04344
0
LINE
8
BLACK
6
CONTINUOUS
10
5.5472
20
-4.04344
11
5.54743
21
-4.04376
0
LINE
8
BLACK
6
CONTINUOUS
10
5.54743
20
-4.04376
11
5.54777
21
-4.04396
0
LINE
8
BLACK
6
CONTINUOUS
10
5.54777
20
-4.04396
11
5.54799
21
-4.04457
0
LINE
8
BLACK
6
CONTINUOUS
10
5.54799
20
-4.04457
11
5.54836
21
-4.0451
0
LINE
8
BLACK
6
CONTINUOUS
10
5.54836
20
-4.0451
11
5.54833
21
-4.04549
0
LINE
8
BLACK
6
CONTINUOUS
10
5.54833
20
-4.04549
11
5.54846
21
-4.04586
0
LINE
8
BLACK
6
CONTINUOUS
10
5.54846
20
-4.04586
11
5.54846
21
-4.08523
0
LINE
8
BLACK
6
CONTINUOUS
10
5.54846
20
-4.08523
11
5.54828
21
-4.08624
0
LINE
8
BLACK
6
CONTINUOUS
10
5.54828
20
-4.08624
11
5.54699
21
-4.08779
0
LINE
8
BLACK
6
CONTINUOUS
10
5.54699
20
-4.08779
11
5.545
21
-4.08814
0
LINE
8
BLACK
6
CONTINUOUS
10
5.545
20
-4.08814
11
5.54325
21
-4.08713
0
LINE
8
BLACK
6
CONTINUOUS
10
5.54325
20
-4.08713
11
5.54256
21
-4.08523
0
LINE
8
BLACK
6
CONTINUOUS
10
5.54256
20
-4.08523
11
5.54256
21
-4.05917
0
LINE
8
BLACK
6
CONTINUOUS
10
5.54256
20
-4.05917
11
5.53506
21
-4.07523
0
LINE
8
BLACK
6
CONTINUOUS
10
5.53506
20
-4.07523
11
5.53484
21
-4.07555
0
LINE
8
BLACK
6
CONTINUOUS
10
5.53484
20
-4.07555
11
5.53481
21
-4.07567
0
LINE
8
BLACK
6
CONTINUOUS
10
5.53481
20
-4.07567
11
5.5347
21
-4.07575
0
LINE
8
BLACK
6
CONTINUOUS
10
5.5347
20
-4.07575
11
5.53447
21
-4.07607
0
LINE
8
BLACK
6
CONTINUOUS
10
5.53447
20
-4.07607
11
5.53378
21
-4.07639
0
LINE
8
BLACK
6
CONTINUOUS
10
5.53378
20
-4.07639
11
5.53315
21
-4.07683
0
LINE
8
BLACK
6
CONTINUOUS
10
5.53315
20
-4.07683
11
5.53289
21
-4.07681
0
LINE
8
BLACK
6
CONTINUOUS
10
5.53289
20
-4.07681
11
5.53264
21
-4.07692
0
LINE
8
BLACK
6
CONTINUOUS
10
5.53264
20
-4.07692
11
5.5319
21
-4.07672
0
LINE
8
BLACK
6
CONTINUOUS
10
5.5319
20
-4.07672
11
5.53114
21
-4.07666
0
LINE
8
BLACK
6
CONTINUOUS
10
5.53114
20
-4.07666
11
5.53095
21
-4.07647
0
LINE
8
BLACK
6
CONTINUOUS
10
5.53095
20
-4.07647
11
5.53069
21
-4.0764
0
LINE
8
BLACK
6
CONTINUOUS
10
5.53069
20
-4.0764
11
5.53025
21
-4.07577
0
LINE
8
BLACK
6
CONTINUOUS
10
5.53025
20
-4.07577
11
5.52971
21
-4.07523
0
LINE
8
BLACK
6
CONTINUOUS
10
5.52971
20
-4.07523
11
5.52222
21
-4.05917
0
LINE
8
BLACK
6
CONTINUOUS
10
5.52222
20
-4.05917
11
5.52222
21
-4.08523
0
LINE
8
BLACK
6
CONTINUOUS
10
5.52222
20
-4.08523
11
5.52204
21
-4.08624
0
LINE
8
BLACK
6
CONTINUOUS
10
5.52204
20
-4.08624
11
5.52074
21
-4.08779
0
LINE
8
BLACK
6
CONTINUOUS
10
5.52074
20
-4.08779
11
5.51875
21
-4.08814
0
LINE
8
BLACK
6
CONTINUOUS
10
5.51875
20
-4.08814
11
5.517
21
-4.08713
0
LINE
8
BLACK
6
CONTINUOUS
10
5.517
20
-4.08713
11
5.51631
21
-4.08523
0
LINE
8
BLACK
6
CONTINUOUS
10
5.51631
20
-4.08523
11
5.51631
21
-4.04586
0
LINE
8
BLACK
6
CONTINUOUS
10
5.51631
20
-4.04586
11
5.51649
21
-4.04485
0
LINE
8
BLACK
6
CONTINUOUS
10
5.51649
20
-4.04485
11
5.51674
21
-4.04455
0
LINE
8
BLACK
6
CONTINUOUS
10
5.51674
20
-4.04455
11
5.51684
21
-4.04417
0
LINE
8
BLACK
6
CONTINUOUS
10
5.51684
20
-4.04417
11
5.51737
21
-4.0438
0
LINE
8
BLACK
6
CONTINUOUS
10
5.51737
20
-4.0438
11
5.51779
21
-4.0433
0
LINE
8
BLACK
6
CONTINUOUS
10
5.51779
20
-4.0433
11
5.51818
21
-4.04323
0
LINE
8
BLACK
6
CONTINUOUS
10
5.51818
20
-4.04323
11
5.5185
21
-4.04301
0
LINE
8
BLACK
6
CONTINUOUS
10
5.5185
20
-4.04301
11
5.51914
21
-4.04306
0
LINE
8
BLACK
6
CONTINUOUS
10
5.51914
20
-4.04306
11
5.51978
21
-4.04295
0
LINE
8
BLACK
6
CONTINUOUS
10
5.51978
20
-4.04295
11
5.52012
21
-4.04315
0
LINE
8
BLACK
6
CONTINUOUS
10
5.52012
20
-4.04315
11
5.52051
21
-4.04318
0
LINE
8
BLACK
6
CONTINUOUS
10
5.52051
20
-4.04318
11
5.52097
21
-4.04364
0
LINE
8
BLACK
6
CONTINUOUS
10
5.52097
20
-4.04364
11
5.52153
21
-4.04396
0
LINE
8
BLACK
6
CONTINUOUS
10
5.52153
20
-4.04396
11
5.52166
21
-4.04433
0
LINE
8
BLACK
6
CONTINUOUS
10
5.52166
20
-4.04433
11
5.52194
21
-4.04461
0
LINE
8
BLACK
6
CONTINUOUS
10
5.52194
20
-4.04461
11
5.53239
21
-4.067
0
LINE
8
BLACK
6
CONTINUOUS
10
5.53239
20
-4.067
11
5.54283
21
-4.04461
0
LINE
8
BLACK
6
CONTINUOUS
10
5.54283
20
-4.04461
11
5.54342
21
-4.04377
0
LINE
8
BLACK
6
CONTINUOUS
10
5.54342
20
-4.04377
11
5.54378
21
-4.0436
0
LINE
8
BLACK
6
CONTINUOUS
10
5.54378
20
-4.0436
11
5.54403
21
-4.0433
0
LINE
8
BLACK
6
CONTINUOUS
10
5.54403
20
-4.0433
11
5.54467
21
-4.04319
0
LINE
8
BLACK
6
CONTINUOUS
10
5.54467
20
-4.04319
11
5.54525
21
-4.04292
0
LINE
8
BLACK
6
CONTINUOUS
10
5.54525
20
-4.04292
11
5.54563
21
-4.04302
0
LINE
8
BLACK
6
CONTINUOUS
10
6.64563
20
-4.04302
11
6.64602
21
-4.04295
0
LINE
8
BLACK
6
CONTINUOUS
10
6.64602
20
-4.04295
11
6.64658
21
-4.04327
0
LINE
8
BLACK
6
CONTINUOUS
10
6.64658
20
-4.04327
11
6.6472
21
-4.04344
0
LINE
8
BLACK
6
CONTINUOUS
10
6.6472
20
-4.04344
11
6.64743
21
-4.04376
0
LINE
8
BLACK
6
CONTINUOUS
10
6.64743
20
-4.04376
11
6.64777
21
-4.04396
0
LINE
8
BLACK
6
CONTINUOUS
10
6.64777
20
-4.04396
11
6.64799
21
-4.04457
0
LINE
8
BLACK
6
CONTINUOUS
10
6.64799
20
-4.04457
11
6.64836
21
-4.0451
0
LINE
8
BLACK
6
CONTINUOUS
10
6.64836
20
-4.0451
11
6.64833
21
-4.04549
0
LINE
8
BLACK
6
CONTINUOUS
10
6.64833
20
-4.04549
11
6.64846
21
-4.04586
0
LINE
8
BLACK
6
CONTINUOUS
10
6.64846
20
-4.04586
11
6.64846
21
-4.08523
0
LINE
8
BLACK
6
CONTINUOUS
10
6.64846
20
-4.08523
11
6.64828
21
-4.08624
0
LINE
8
BLACK
6
CONTINUOUS
10
6.64828
20
-4.08624
11
6.64699
21
-4.08779
0
LINE
8
BLACK
6
CONTINUOUS
10
6.64699
20
-4.08779
11
6.645
21
-4.08814
0
LINE
8
BLACK
6
CONTINUOUS
10
6.645
20
-4.08814
11
6.64325
21
-4.08713
0
LINE
8
BLACK
6
CONTINUOUS
10
6.64325
20
-4.08713
11
6.64256
21
-4.08523
0
LINE
8
BLACK
6
CONTINUOUS
10
6.64256
20
-4.08523
11
6.64256
21
-4.05917
0
LINE
8
BLACK
6
CONTINUOUS
10
6.64256
20
-4.05917
11
6.63506
21
-4.07523
0
LINE
8
BLACK
6
CONTINUOUS
10
6.63506
20
-4.07523
11
6.63484
21
-4.07555
0
LINE
8
BLACK
6
CONTINUOUS
10
6.63484
20
-4.07555
11
6.63481
21
-4.07567
0
LINE
8
BLACK
6
CONTINUOUS
10
6.63481
20
-4.07567
11
6.6347
21
-4.07575
0
LINE
8
BLACK
6
CONTINUOUS
10
6.6347
20
-4.07575
11
6.63447
21
-4.07607
0
LINE
8
BLACK
6
CONTINUOUS
10
6.63447
20
-4.07607
11
6.63378
21
-4.07639
0
LINE
8
BLACK
6
CONTINUOUS
10
6.63378
20
-4.07639
11
6.63315
21
-4.07683
0
LINE
8
BLACK
6
CONTINUOUS
10
6.63315
20
-4.07683
11
6.63289
21
-4.07681
0
LINE
8
BLACK
6
CONTINUOUS
10
6.63289
20
-4.07681
11
6.63264
21
-4.07692
0
LINE
8
BLACK
6
CONTINUOUS
10
6.63264
20
-4.07692
11
6.6319
21
-4.07672
0
LINE
8
BLACK
6
CONTINUOUS
10
6.6319
20
-4.07672
11
6.63114
21
-4.07666
0
LINE
8
BLACK
6
CONTINUOUS
10
6.63114
20
-4.07666
11
6.63095
21
-4.07647
0
LINE
8
BLACK
6
CONTINUOUS
10
6.63095
20
-4.07647
11
6.63069
21
-4.0764
0
LINE
8
BLACK
6
CONTINUOUS
10
6.63069
20
-4.0764
11
6.63025
21
-4.07577
0
LINE
8
BLACK
6
CONTINUOUS
10
6.63025
20
-4.07577
11
6.62971
21
-4.07523
0
LINE
8
BLACK
6
CONTINUOUS
10
6.62971
20
-4.07523
11
6.62222
21
-4.05917
0
LINE
8
BLACK
6
CONTINUOUS
10
6.62222
20
-4.05917
11
6.62222
21
-4.08523
0
LINE
8
BLACK
6
CONTINUOUS
10
6.62222
20
-4.08523
11
6.62204
21
-4.08624
0
LINE
8
BLACK
6
CONTINUOUS
10
6.62204
20
-4.08624
11
6.62074
21
-4.08779
0
LINE
8
BLACK
6
CONTINUOUS
10
6.62074
20
-4.08779
11
6.61875
21
-4.08814
0
LINE
8
BLACK
6
CONTINUOUS
10
6.61875
20
-4.08814
11
6.617
21
-4.08713
0
LINE
8
BLACK
6
CONTINUOUS
10
6.617
20
-4.08713
11
6.61631
21
-4.08523
0
LINE
8
BLACK
6
CONTINUOUS
10
6.61631
20
-4.08523
11
6.61631
21
-4.04586
0
LINE
8
BLACK
6
CONTINUOUS
10
6.61631
20
-4.04586
11
6.61649
21
-4.04485
0
LINE
8
BLACK
6
CONTINUOUS
10
6.61649
20
-4.04485
11
6.61674
21
-4.04455
0
LINE
8
BLACK
6
CONTINUOUS
10
6.61674
20
-4.04455
11
6.61684
21
-4.04417
0
LINE
8
BLACK
6
CONTINUOUS
10
6.61684
20
-4.04417
11
6.61737
21
-4.0438
0
LINE
8
BLACK
6
CONTINUOUS
10
6.61737
20
-4.0438
11
6.61779
21
-4.0433
0
LINE
8
BLACK
6
CONTINUOUS
10
6.61779
20
-4.0433
11
6.61818
21
-4.04323
0
LINE
8
BLACK
6
CONTINUOUS
10
6.61818
20
-4.04323
11
6.6185
21
-4.04301
0
LINE
8
BLACK
6
CONTINUOUS
10
6.6185
20
-4.04301
11
6.61914
21
-4.04306
0
LINE
8
BLACK
6
CONTINUOUS
10
6.61914
20
-4.04306
11
6.61978
21
-4.04295
0
LINE
8
BLACK
6
CONTINUOUS
10
6.61978
20
-4.04295
11
6.62012
21
-4.04315
0
LINE
8
BLACK
6
CONTINUOUS
10
6.62012
20
-4.04315
11
6.62051
21
-4.04318
0
LINE
8
BLACK
6
CONTINUOUS
10
6.62051
20
-4.04318
11
6.62097
21
-4.04364
0
LINE
8
BLACK
6
CONTINUOUS
10
6.62097
20
-4.04364
11
6.62153
21
-4.04396
0
LINE
8
BLACK
6
CONTINUOUS
10
6.62153
20
-4.04396
11
6.62166
21
-4.04433
0
LINE
8
BLACK
6
CONTINUOUS
10
6.62166
20
-4.04433
11
6.62194
21
-4.04461
0
LINE
8
BLACK
6
CONTINUOUS
10
6.62194
20
-4.04461
11
6.63239
21
-4.067
0
LINE
8
BLACK
6
CONTINUOUS
10
6.63239
20
-4.067
11
6.64283
21
-4.04461
0
LINE
8
BLACK
6
CONTINUOUS
10
6.64283
20
-4.04461
11
6.64342
21
-4.04377
0
LINE
8
BLACK
6
CONTINUOUS
10
6.64342
20
-4.04377
11
6.64378
21
-4.0436
0
LINE
8
BLACK
6
CONTINUOUS
10
6.64378
20
-4.0436
11
6.64403
21
-4.0433
0
LINE
8
BLACK
6
CONTINUOUS
10
6.64403
20
-4.0433
11
6.64467
21
-4.04319
0
LINE
8
BLACK
6
CONTINUOUS
10
6.64467
20
-4.04319
11
6.64525
21
-4.04292
0
LINE
8
BLACK
6
CONTINUOUS
10
6.64525
20
-4.04292
11
6.64563
21
-4.04302
0
LINE
8
BLACK
6
CONTINUOUS
10
5.51965
20
-3.84514
11
5.52034
21
-3.84704
0
LINE
8
BLACK
6
CONTINUOUS
10
5.52034
20
-3.84704
11
5.52034
21
-3.87516
0
LINE
8
BLACK
6
CONTINUOUS
10
5.52034
20
-3.87516
11
5.52019
21
-3.87603
0
LINE
8
BLACK
6
CONTINUOUS
10
5.52019
20
-3.87603
11
5.52019
21
-3.8761
0
LINE
8
BLACK
6
CONTINUOUS
10
5.52019
20
-3.8761
11
5.51831
21
-3.88172
0
LINE
8
BLACK
6
CONTINUOUS
10
5.51831
20
-3.88172
11
5.51783
21
-3.88262
0
LINE
8
BLACK
6
CONTINUOUS
10
5.51783
20
-3.88262
11
5.51768
21
-3.88271
0
LINE
8
BLACK
6
CONTINUOUS
10
5.51768
20
-3.88271
11
5.5176
21
-3.88287
0
LINE
8
BLACK
6
CONTINUOUS
10
5.5176
20
-3.88287
11
5.51385
21
-3.88662
0
LINE
8
BLACK
6
CONTINUOUS
10
5.51385
20
-3.88662
11
5.51301
21
-3.88721
0
LINE
8
BLACK
6
CONTINUOUS
10
5.51301
20
-3.88721
11
5.51284
21
-3.88723
0
LINE
8
BLACK
6
CONTINUOUS
10
5.51284
20
-3.88723
11
5.5127
21
-3.88734
0
LINE
8
BLACK
6
CONTINUOUS
10
5.5127
20
-3.88734
11
5.50707
21
-3.88921
0
LINE
8
BLACK
6
CONTINUOUS
10
5.50707
20
-3.88921
11
5.5062
21
-3.88934
0
LINE
8
BLACK
6
CONTINUOUS
10
5.5062
20
-3.88934
11
5.50614
21
-3.88936
0
LINE
8
BLACK
6
CONTINUOUS
10
5.50614
20
-3.88936
11
5.50239
21
-3.88936
0
LINE
8
BLACK
6
CONTINUOUS
10
5.50239
20
-3.88936
11
5.50138
21
-3.88918
0
LINE
8
BLACK
6
CONTINUOUS
10
5.50138
20
-3.88918
11
5.49983
21
-3.88789
0
LINE
8
BLACK
6
CONTINUOUS
10
5.49983
20
-3.88789
11
5.49948
21
-3.8859
0
LINE
8
BLACK
6
CONTINUOUS
10
5.49948
20
-3.8859
11
5.50049
21
-3.88415
0
LINE
8
BLACK
6
CONTINUOUS
10
5.50049
20
-3.88415
11
5.50239
21
-3.88346
0
LINE
8
BLACK
6
CONTINUOUS
10
5.50239
20
-3.88346
11
5.50566
21
-3.88346
0
LINE
8
BLACK
6
CONTINUOUS
10
5.50566
20
-3.88346
11
5.51017
21
-3.88195
0
LINE
8
BLACK
6
CONTINUOUS
10
5.51017
20
-3.88195
11
5.51293
21
-3.87919
0
LINE
8
BLACK
6
CONTINUOUS
10
5.51293
20
-3.87919
11
5.51444
21
-3.87468
0
LINE
8
BLACK
6
CONTINUOUS
10
5.51444
20
-3.87468
11
5.51444
21
-3.84704
0
LINE
8
BLACK
6
CONTINUOUS
10
5.51444
20
-3.84704
11
5.51461
21
-3.84603
0
LINE
8
BLACK
6
CONTINUOUS
10
5.51461
20
-3.84603
11
5.51591
21
-3.84448
0
LINE
8
BLACK
6
CONTINUOUS
10
5.51591
20
-3.84448
11
5.5179
21
-3.84413
0
LINE
8
BLACK
6
CONTINUOUS
10
5.5179
20
-3.84413
11
5.51965
21
-3.84514
0
LINE
8
BLACK
6
CONTINUOUS
10
5.5572
20
-3.84416
11
5.55733
21
-3.84414
0
LINE
8
BLACK
6
CONTINUOUS
10
5.55733
20
-3.84414
11
5.55744
21
-3.84421
0
LINE
8
BLACK
6
CONTINUOUS
10
5.55744
20
-3.84421
11
5.55777
21
-3.84427
0
LINE
8
BLACK
6
CONTINUOUS
10
5.55777
20
-3.84427
11
5.55838
21
-3.84478
0
LINE
8
BLACK
6
CONTINUOUS
10
5.55838
20
-3.84478
11
5.55906
21
-3.84519
0
LINE
8
BLACK
6
CONTINUOUS
10
5.55906
20
-3.84519
11
5.55914
21
-3.84541
0
LINE
8
BLACK
6
CONTINUOUS
10
5.55914
20
-3.84541
11
5.55932
21
-3.84556
0
LINE
8
BLACK
6
CONTINUOUS
10
5.55932
20
-3.84556
11
5.55945
21
-3.84635
0
LINE
8
BLACK
6
CONTINUOUS
10
5.55945
20
-3.84635
11
5.55971
21
-3.8471
0
LINE
8
BLACK
6
CONTINUOUS
10
5.55971
20
-3.8471
11
5.55963
21
-3.84732
0
LINE
8
BLACK
6
CONTINUOUS
10
5.55963
20
-3.84732
11
5.55967
21
-3.84755
0
LINE
8
BLACK
6
CONTINUOUS
10
5.55967
20
-3.84755
11
5.55927
21
-3.84824
0
LINE
8
BLACK
6
CONTINUOUS
10
5.55927
20
-3.84824
11
5.55898
21
-3.84898
0
LINE
8
BLACK
6
CONTINUOUS
10
5.55898
20
-3.84898
11
5.55002
21
-3.85922
0
LINE
8
BLACK
6
CONTINUOUS
10
5.55002
20
-3.85922
11
5.55027
21
-3.85926
0
LINE
8
BLACK
6
CONTINUOUS
10
5.55027
20
-3.85926
11
5.5504
21
-3.85938
0
LINE
8
BLACK
6
CONTINUOUS
10
5.5504
20
-3.85938
11
5.55058
21
-3.8594
0
LINE
8
BLACK
6
CONTINUOUS
10
5.55058
20
-3.8594
11
5.55433
21
-3.86127
0
LINE
8
BLACK
6
CONTINUOUS
10
5.55433
20
-3.86127
11
5.55504
21
-3.8618
0
LINE
8
BLACK
6
CONTINUOUS
10
5.55504
20
-3.8618
11
5.5551
21
-3.86183
0
LINE
8
BLACK
6
CONTINUOUS
10
5.5551
20
-3.86183
11
5.55697
21
-3.8637
0
LINE
8
BLACK
6
CONTINUOUS
10
5.55697
20
-3.8637
11
5.55748
21
-3.86442
0
LINE
8
BLACK
6
CONTINUOUS
10
5.55748
20
-3.86442
11
5.55752
21
-3.86447
0
LINE
8
BLACK
6
CONTINUOUS
10
5.55752
20
-3.86447
11
5.5594
21
-3.86822
0
LINE
8
BLACK
6
CONTINUOUS
10
5.5594
20
-3.86822
11
5.55969
21
-3.8692
0
LINE
8
BLACK
6
CONTINUOUS
10
5.55969
20
-3.8692
11
5.55965
21
-3.86937
0
LINE
8
BLACK
6
CONTINUOUS
10
5.55965
20
-3.86937
11
5.55971
21
-3.86954
0
LINE
8
BLACK
6
CONTINUOUS
10
5.55971
20
-3.86954
11
5.55971
21
-3.87891
0
LINE
8
BLACK
6
CONTINUOUS
10
5.55971
20
-3.87891
11
5.55953
21
-3.87992
0
LINE
8
BLACK
6
CONTINUOUS
10
5.55953
20
-3.87992
11
5.55942
21
-3.88006
0
LINE
8
BLACK
6
CONTINUOUS
10
5.55942
20
-3.88006
11
5.5594
21
-3.88023
0
LINE
8
BLACK
6
CONTINUOUS
10
5.5594
20
-3.88023
11
5.55752
21
-3.88398
0
LINE
8
BLACK
6
CONTINUOUS
10
5.55752
20
-3.88398
11
5.557
21
-3.88469
0
LINE
8
BLACK
6
CONTINUOUS
10
5.557
20
-3.88469
11
5.55697
21
-3.88475
0
LINE
8
BLACK
6
CONTINUOUS
10
5.55697
20
-3.88475
11
5.5551
21
-3.88662
0
LINE
8
BLACK
6
CONTINUOUS
10
5.5551
20
-3.88662
11
5.55437
21
-3.88713
0
LINE
8
BLACK
6
CONTINUOUS
10
5.55437
20
-3.88713
11
5.55433
21
-3.88718
0
LINE
8
BLACK
6
CONTINUOUS
10
5.55433
20
-3.88718
11
5.55058
21
-3.88905
0
LINE
8
BLACK
6
CONTINUOUS
10
5.55058
20
-3.88905
11
5.5496
21
-3.88934
0
LINE
8
BLACK
6
CONTINUOUS
10
5.5496
20
-3.88934
11
5.54943
21
-3.8893
0
LINE
8
BLACK
6
CONTINUOUS
10
5.54943
20
-3.8893
11
5.54926
21
-3.88936
0
LINE
8
BLACK
6
CONTINUOUS
10
5.54926
20
-3.88936
11
5.53801
21
-3.88936
0
LINE
8
BLACK
6
CONTINUOUS
10
5.53801
20
-3.88936
11
5.537
21
-3.88918
0
LINE
8
BLACK
6
CONTINUOUS
10
5.537
20
-3.88918
11
5.53687
21
-3.88907
0
LINE
8
BLACK
6
CONTINUOUS
10
5.53687
20
-3.88907
11
5.53669
21
-3.88905
0
LINE
8
BLACK
6
CONTINUOUS
10
5.53669
20
-3.88905
11
5.53294
21
-3.88718
0
LINE
8
BLACK
6
CONTINUOUS
10
5.53294
20
-3.88718
11
5.53223
21
-3.88665
0
LINE
8
BLACK
6
CONTINUOUS
10
5.53223
20
-3.88665
11
5.53217
21
-3.88662
0
LINE
8
BLACK
6
CONTINUOUS
10
5.53217
20
-3.88662
11
5.5303
21
-3.88475
0
LINE
8
BLACK
6
CONTINUOUS
10
5.5303
20
-3.88475
11
5.52971
21
-3.88391
0
LINE
8
BLACK
6
CONTINUOUS
10
5.52971
20
-3.88391
11
5.52953
21
-3.8819
0
LINE
8
BLACK
6
CONTINUOUS
10
5.52953
20
-3.8819
11
5.53069
21
-3.88024
0
LINE
8
BLACK
6
CONTINUOUS
10
5.53069
20
-3.88024
11
5.53264
21
-3.87972
0
LINE
8
BLACK
6
CONTINUOUS
10
5.53264
20
-3.87972
11
5.53447
21
-3.88057
0
LINE
8
BLACK
6
CONTINUOUS
10
5.53447
20
-3.88057
11
5.53601
21
-3.88211
0
LINE
8
BLACK
6
CONTINUOUS
10
5.53601
20
-3.88211
11
5.53871
21
-3.88346
0
LINE
8
BLACK
6
CONTINUOUS
10
5.53871
20
-3.88346
11
5.54856
21
-3.88346
0
LINE
8
BLACK
6
CONTINUOUS
10
5.54856
20
-3.88346
11
5.55126
21
-3.88211
0
LINE
8
BLACK
6
CONTINUOUS
10
5.55126
20
-3.88211
11
5.55246
21
-3.88091
0
LINE
8
BLACK
6
CONTINUOUS
10
5.55246
20
-3.88091
11
5.55381
21
-3.87821
0
LINE
8
BLACK
6
CONTINUOUS
10
5.55381
20
-3.87821
11
5.55381
21
-3.87023
0
LINE
8
BLACK
6
CONTINUOUS
10
5.55381
20
-3.87023
11
5.55246
21
-3.86754
0
LINE
8
BLACK
6
CONTINUOUS
10
5.55246
20
-3.86754
11
5.55126
21
-3.86634
0
LINE
8
BLACK
6
CONTINUOUS
10
5.55126
20
-3.86634
11
5.54856
21
-3.86499
0
LINE
8
BLACK
6
CONTINUOUS
10
5.54856
20
-3.86499
11
5.54364
21
-3.86499
0
LINE
8
BLACK
6
CONTINUOUS
10
5.54364
20
-3.86499
11
5.5432
21
-3.86491
0
LINE
8
BLACK
6
CONTINUOUS
10
5.5432
20
-3.86491
11
5.54306
21
-3.86493
0
LINE
8
BLACK
6
CONTINUOUS
10
5.54306
20
-3.86493
11
5.54296
21
-3.86487
0
LINE
8
BLACK
6
CONTINUOUS
10
5.54296
20
-3.86487
11
5.54263
21
-3.86481
0
LINE
8
BLACK
6
CONTINUOUS
10
5.54263
20
-3.86481
11
5.54202
21
-3.8643
0
LINE
8
BLACK
6
CONTINUOUS
10
5.54202
20
-3.8643
11
5.54133
21
-3.86389
0
LINE
8
BLACK
6
CONTINUOUS
10
5.54133
20
-3.86389
11
5.54126
21
-3.86367
0
LINE
8
BLACK
6
CONTINUOUS
10
5.54126
20
-3.86367
11
5.54108
21
-3.86351
0
LINE
8
BLACK
6
CONTINUOUS
10
5.54108
20
-3.86351
11
5.54094
21
-3.86273
0
LINE
8
BLACK
6
CONTINUOUS
10
5.54094
20
-3.86273
11
5.54068
21
-3.86198
0
LINE
8
BLACK
6
CONTINUOUS
10
5.54068
20
-3.86198
11
5.54077
21
-3.86176
0
LINE
8
BLACK
6
CONTINUOUS
10
5.54077
20
-3.86176
11
5.54073
21
-3.86153
0
LINE
8
BLACK
6
CONTINUOUS
10
5.54073
20
-3.86153
11
5.54113
21
-3.86084
0
LINE
8
BLACK
6
CONTINUOUS
10
5.54113
20
-3.86084
11
5.54141
21
-3.86009
0
LINE
8
BLACK
6
CONTINUOUS
10
5.54141
20
-3.86009
11
5.55025
21
-3.84999
0
LINE
8
BLACK
6
CONTINUOUS
10
5.55025
20
-3.84999
11
5.53239
21
-3.84999
0
LINE
8
BLACK
6
CONTINUOUS
10
5.53239
20
-3.84999
11
5.53138
21
-3.84981
0
LINE
8
BLACK
6
CONTINUOUS
10
5.53138
20
-3.84981
11
5.52983
21
-3.84852
0
LINE
8
BLACK
6
CONTINUOUS
10
5.52983
20
-3.84852
11
5.52948
21
-3.84653
0
LINE
8
BLACK
6
CONTINUOUS
10
5.52948
20
-3.84653
11
5.53049
21
-3.84478
0
LINE
8
BLACK
6
CONTINUOUS
10
5.53049
20
-3.84478
11
5.53239
21
-3.84409
0
LINE
8
BLACK
6
CONTINUOUS
10
5.53239
20
-3.84409
11
5.55676
21
-3.84409
0
LINE
8
BLACK
6
CONTINUOUS
10
5.55676
20
-3.84409
11
5.5572
21
-3.84416
0
LINE
8
BLACK
6
CONTINUOUS
10
5.54932
20
-3.76989
11
5.56154
21
-3.77302
0
LINE
8
BLACK
6
CONTINUOUS
10
5.56154
20
-3.77302
11
5.57326
21
-3.77766
0
LINE
8
BLACK
6
CONTINUOUS
10
5.57326
20
-3.77766
11
5.58431
21
-3.78374
0
LINE
8
BLACK
6
CONTINUOUS
10
5.58431
20
-3.78374
11
5.59451
21
-3.79115
0
LINE
8
BLACK
6
CONTINUOUS
10
5.59451
20
-3.79115
11
5.6037
21
-3.79978
0
LINE
8
BLACK
6
CONTINUOUS
10
5.6037
20
-3.79978
11
5.61173
21
-3.80949
0
LINE
8
BLACK
6
CONTINUOUS
10
5.61173
20
-3.80949
11
5.61849
21
-3.82014
0
LINE
8
BLACK
6
CONTINUOUS
10
5.61849
20
-3.82014
11
5.62386
21
-3.83155
0
LINE
8
BLACK
6
CONTINUOUS
10
5.62386
20
-3.83155
11
5.62775
21
-3.84354
0
LINE
8
BLACK
6
CONTINUOUS
10
5.62775
20
-3.84354
11
5.63011
21
-3.85592
0
LINE
8
BLACK
6
CONTINUOUS
10
5.63011
20
-3.85592
11
5.63091
21
-3.8685
0
LINE
8
BLACK
6
CONTINUOUS
10
5.63091
20
-3.8685
11
5.63011
21
-3.88109
0
LINE
8
BLACK
6
CONTINUOUS
10
5.63011
20
-3.88109
11
5.62775
21
-3.89347
0
LINE
8
BLACK
6
CONTINUOUS
10
5.62775
20
-3.89347
11
5.62386
21
-3.90546
0
LINE
8
BLACK
6
CONTINUOUS
10
5.62386
20
-3.90546
11
5.61849
21
-3.91687
0
LINE
8
BLACK
6
CONTINUOUS
10
5.61849
20
-3.91687
11
5.61173
21
-3.92751
0
LINE
8
BLACK
6
CONTINUOUS
10
5.61173
20
-3.92751
11
5.6037
21
-3.93723
0
LINE
8
BLACK
6
CONTINUOUS
10
5.6037
20
-3.93723
11
5.59451
21
-3.94586
0
LINE
8
BLACK
6
CONTINUOUS
10
5.59451
20
-3.94586
11
5.58431
21
-3.95327
0
LINE
8
BLACK
6
CONTINUOUS
10
5.58431
20
-3.95327
11
5.57326
21
-3.95934
0
LINE
8
BLACK
6
CONTINUOUS
10
5.57326
20
-3.95934
11
5.56154
21
-3.96398
0
LINE
8
BLACK
6
CONTINUOUS
10
5.56154
20
-3.96398
11
5.54932
21
-3.96712
0
LINE
8
BLACK
6
CONTINUOUS
10
5.54932
20
-3.96712
11
5.53682
21
-3.9687
0
LINE
8
BLACK
6
CONTINUOUS
10
5.53682
20
-3.9687
11
5.52421
21
-3.9687
0
LINE
8
BLACK
6
CONTINUOUS
10
5.52421
20
-3.9687
11
5.5117
21
-3.96712
0
LINE
8
BLACK
6
CONTINUOUS
10
5.5117
20
-3.96712
11
5.49949
21
-3.96398
0
LINE
8
BLACK
6
CONTINUOUS
10
5.49949
20
-3.96398
11
5.48777
21
-3.95934
0
LINE
8
BLACK
6
CONTINUOUS
10
5.48777
20
-3.95934
11
5.47672
21
-3.95327
0
LINE
8
BLACK
6
CONTINUOUS
10
5.47672
20
-3.95327
11
5.46652
21
-3.94586
0
LINE
8
BLACK
6
CONTINUOUS
10
5.46652
20
-3.94586
11
5.45733
21
-3.93723
0
LINE
8
BLACK
6
CONTINUOUS
10
5.45733
20
-3.93723
11
5.44929
21
-3.92751
0
LINE
8
BLACK
6
CONTINUOUS
10
5.44929
20
-3.92751
11
5.44254
21
-3.91687
0
LINE
8
BLACK
6
CONTINUOUS
10
5.44254
20
-3.91687
11
5.43717
21
-3.90546
0
LINE
8
BLACK
6
CONTINUOUS
10
5.43717
20
-3.90546
11
5.43327
21
-3.89347
0
LINE
8
BLACK
6
CONTINUOUS
10
5.43327
20
-3.89347
11
5.43091
21
-3.88109
0
LINE
8
BLACK
6
CONTINUOUS
10
5.43091
20
-3.88109
11
5.43012
21
-3.8685
0
LINE
8
BLACK
6
CONTINUOUS
10
5.43012
20
-3.8685
11
5.43091
21
-3.85592
0
LINE
8
BLACK
6
CONTINUOUS
10
5.43091
20
-3.85592
11
5.43327
21
-3.84354
0
LINE
8
BLACK
6
CONTINUOUS
10
5.43327
20
-3.84354
11
5.43717
21
-3.83155
0
LINE
8
BLACK
6
CONTINUOUS
10
5.43717
20
-3.83155
11
5.44254
21
-3.82014
0
LINE
8
BLACK
6
CONTINUOUS
10
5.44254
20
-3.82014
11
5.44929
21
-3.80949
0
LINE
8
BLACK
6
CONTINUOUS
10
5.44929
20
-3.80949
11
5.45733
21
-3.79978
0
LINE
8
BLACK
6
CONTINUOUS
10
5.45733
20
-3.79978
11
5.46652
21
-3.79115
0
LINE
8
BLACK
6
CONTINUOUS
10
5.46652
20
-3.79115
11
5.47672
21
-3.78374
0
LINE
8
BLACK
6
CONTINUOUS
10
5.47672
20
-3.78374
11
5.48777
21
-3.77766
0
LINE
8
BLACK
6
CONTINUOUS
10
5.48777
20
-3.77766
11
5.49949
21
-3.77302
0
LINE
8
BLACK
6
CONTINUOUS
10
5.49949
20
-3.77302
11
5.5117
21
-3.76989
0
LINE
8
BLACK
6
CONTINUOUS
10
5.5117
20
-3.76989
11
5.52421
21
-3.76831
0
LINE
8
BLACK
6
CONTINUOUS
10
5.52421
20
-3.76831
11
5.53682
21
-3.76831
0
LINE
8
BLACK
6
CONTINUOUS
10
5.53682
20
-3.76831
11
5.54932
21
-3.76989
0
LINE
8
BLACK
6
CONTINUOUS
10
5.43463
20
-3.88062
11
5.4369
21
-3.89254
0
LINE
8
BLACK
6
CONTINUOUS
10
5.4369
20
-3.89254
11
5.44065
21
-3.90408
0
LINE
8
BLACK
6
CONTINUOUS
10
5.44065
20
-3.90408
11
5.44582
21
-3.91506
0
LINE
8
BLACK
6
CONTINUOUS
10
5.44582
20
-3.91506
11
5.45232
21
-3.92531
0
LINE
8
BLACK
6
CONTINUOUS
10
5.45232
20
-3.92531
11
5.46006
21
-3.93466
0
LINE
8
BLACK
6
CONTINUOUS
10
5.46006
20
-3.93466
11
5.46891
21
-3.94297
0
LINE
8
BLACK
6
CONTINUOUS
10
5.46891
20
-3.94297
11
5.47873
21
-3.95011
0
LINE
8
BLACK
6
CONTINUOUS
10
5.47873
20
-3.95011
11
5.48936
21
-3.95595
0
LINE
8
BLACK
6
CONTINUOUS
10
5.48936
20
-3.95595
11
5.50065
21
-3.96042
0
LINE
8
BLACK
6
CONTINUOUS
10
5.50065
20
-3.96042
11
5.5124
21
-3.96344
0
LINE
8
BLACK
6
CONTINUOUS
10
5.5124
20
-3.96344
11
5.52444
21
-3.96496
0
LINE
8
BLACK
6
CONTINUOUS
10
5.52444
20
-3.96496
11
5.53658
21
-3.96496
0
LINE
8
BLACK
6
CONTINUOUS
10
5.53658
20
-3.96496
11
5.54862
21
-3.96344
0
LINE
8
BLACK
6
CONTINUOUS
10
5.54862
20
-3.96344
11
5.56038
21
-3.96042
0
LINE
8
BLACK
6
CONTINUOUS
10
5.56038
20
-3.96042
11
5.57166
21
-3.95595
0
LINE
8
BLACK
6
CONTINUOUS
10
5.57166
20
-3.95595
11
5.5823
21
-3.95011
0
LINE
8
BLACK
6
CONTINUOUS
10
5.5823
20
-3.95011
11
5.59212
21
-3.94297
0
LINE
8
BLACK
6
CONTINUOUS
10
5.59212
20
-3.94297
11
5.60096
21
-3.93466
0
LINE
8
BLACK
6
CONTINUOUS
10
5.60096
20
-3.93466
11
5.6087
21
-3.92531
0
LINE
8
BLACK
6
CONTINUOUS
10
5.6087
20
-3.92531
11
5.6152
21
-3.91506
0
LINE
8
BLACK
6
CONTINUOUS
10
5.6152
20
-3.91506
11
5.62037
21
-3.90408
0
LINE
8
BLACK
6
CONTINUOUS
10
5.62037
20
-3.90408
11
5.62412
21
-3.89254
0
LINE
8
BLACK
6
CONTINUOUS
10
5.62412
20
-3.89254
11
5.6264
21
-3.88062
0
LINE
8
BLACK
6
CONTINUOUS
10
5.6264
20
-3.88062
11
5.62716
21
-3.8685
0
LINE
8
BLACK
6
CONTINUOUS
10
5.62716
20
-3.8685
11
5.6264
21
-3.85639
0
LINE
8
BLACK
6
CONTINUOUS
10
5.6264
20
-3.85639
11
5.62412
21
-3.84447
0
LINE
8
BLACK
6
CONTINUOUS
10
5.62412
20
-3.84447
11
5.62037
21
-3.83293
0
LINE
8
BLACK
6
CONTINUOUS
10
5.62037
20
-3.83293
11
5.6152
21
-3.82194
0
LINE
8
BLACK
6
CONTINUOUS
10
5.6152
20
-3.82194
11
5.6087
21
-3.8117
0
LINE
8
BLACK
6
CONTINUOUS
10
5.6087
20
-3.8117
11
5.60096
21
-3.80234
0
LINE
8
BLACK
6
CONTINUOUS
10
5.60096
20
-3.80234
11
5.59212
21
-3.79404
0
LINE
8
BLACK
6
CONTINUOUS
10
5.59212
20
-3.79404
11
5.5823
21
-3.7869
0
LINE
8
BLACK
6
CONTINUOUS
10
5.5823
20
-3.7869
11
5.57166
21
-3.78105
0
LINE
8
BLACK
6
CONTINUOUS
10
5.57166
20
-3.78105
11
5.56038
21
-3.77659
0
LINE
8
BLACK
6
CONTINUOUS
10
5.56038
20
-3.77659
11
5.54862
21
-3.77357
0
LINE
8
BLACK
6
CONTINUOUS
10
5.54862
20
-3.77357
11
5.53658
21
-3.77205
0
LINE
8
BLACK
6
CONTINUOUS
10
5.53658
20
-3.77205
11
5.52444
21
-3.77205
0
LINE
8
BLACK
6
CONTINUOUS
10
5.52444
20
-3.77205
11
5.5124
21
-3.77357
0
LINE
8
BLACK
6
CONTINUOUS
10
5.5124
20
-3.77357
11
5.50065
21
-3.77659
0
LINE
8
BLACK
6
CONTINUOUS
10
5.50065
20
-3.77659
11
5.48936
21
-3.78105
0
LINE
8
BLACK
6
CONTINUOUS
10
5.48936
20
-3.78105
11
5.47873
21
-3.7869
0
LINE
8
BLACK
6
CONTINUOUS
10
5.47873
20
-3.7869
11
5.46891
21
-3.79404
0
LINE
8
BLACK
6
CONTINUOUS
10
5.46891
20
-3.79404
11
5.46006
21
-3.80234
0
LINE
8
BLACK
6
CONTINUOUS
10
5.46006
20
-3.80234
11
5.45232
21
-3.8117
0
LINE
8
BLACK
6
CONTINUOUS
10
5.45232
20
-3.8117
11
5.44582
21
-3.82194
0
LINE
8
BLACK
6
CONTINUOUS
10
5.44582
20
-3.82194
11
5.44065
21
-3.83293
0
LINE
8
BLACK
6
CONTINUOUS
10
5.44065
20
-3.83293
11
5.4369
21
-3.84447
0
LINE
8
BLACK
6
CONTINUOUS
10
5.4369
20
-3.84447
11
5.43463
21
-3.85639
0
LINE
8
BLACK
6
CONTINUOUS
10
5.43463
20
-3.85639
11
5.43386
21
-3.8685
0
LINE
8
BLACK
6
CONTINUOUS
10
5.43386
20
-3.8685
11
5.43463
21
-3.88062
0
LINE
8
BLACK
6
CONTINUOUS
10
5.66634
20
-3.73071
11
5.66773
21
-3.73129
0
LINE
8
BLACK
6
CONTINUOUS
10
5.66773
20
-3.73129
11
5.66831
21
-3.73268
0
LINE
8
BLACK
6
CONTINUOUS
10
5.66831
20
-3.73268
11
5.66831
21
-4.00433
0
LINE
8
BLACK
6
CONTINUOUS
10
5.66831
20
-4.00433
11
5.66773
21
-4.00572
0
LINE
8
BLACK
6
CONTINUOUS
10
5.66773
20
-4.00572
11
5.66634
21
-4.0063
0
LINE
8
BLACK
6
CONTINUOUS
10
5.66634
20
-4.0063
11
5.39469
21
-4.0063
0
LINE
8
BLACK
6
CONTINUOUS
10
5.39469
20
-4.0063
11
5.39329
21
-4.00572
0
LINE
8
BLACK
6
CONTINUOUS
10
5.39329
20
-4.00572
11
5.39272
21
-4.00433
0
LINE
8
BLACK
6
CONTINUOUS
10
5.39272
20
-4.00433
11
5.39272
21
-4.00433
0
LINE
8
BLACK
6
CONTINUOUS
10
5.39272
20
-4.00433
11
5.39272
21
-3.73268
0
LINE
8
BLACK
6
CONTINUOUS
10
5.39272
20
-3.73268
11
5.39329
21
-3.73129
0
LINE
8
BLACK
6
CONTINUOUS
10
5.39329
20
-3.73129
11
5.39469
21
-3.73071
0
LINE
8
BLACK
6
CONTINUOUS
10
5.39469
20
-3.73071
11
5.66634
21
-3.73071
0
LINE
8
BLACK
6
CONTINUOUS
10
5.39665
20
-3.73465
11
5.39665
21
-4.00236
0
LINE
8
BLACK
6
CONTINUOUS
10
5.39665
20
-4.00236
11
5.66437
21
-4.00236
0
LINE
8
BLACK
6
CONTINUOUS
10
5.66437
20
-4.00236
11
5.66437
21
-3.73465
0
LINE
8
BLACK
6
CONTINUOUS
10
5.66437
20
-3.73465
11
5.39665
21
-3.73465
0
LINE
8
BLACK
6
CONTINUOUS
10
6.61965
20
-3.84514
11
6.62034
21
-3.84704
0
LINE
8
BLACK
6
CONTINUOUS
10
6.62034
20
-3.84704
11
6.62034
21
-3.87516
0
LINE
8
BLACK
6
CONTINUOUS
10
6.62034
20
-3.87516
11
6.62019
21
-3.87603
0
LINE
8
BLACK
6
CONTINUOUS
10
6.62019
20
-3.87603
11
6.62019
21
-3.8761
0
LINE
8
BLACK
6
CONTINUOUS
10
6.62019
20
-3.8761
11
6.61831
21
-3.88172
0
LINE
8
BLACK
6
CONTINUOUS
10
6.61831
20
-3.88172
11
6.61783
21
-3.88262
0
LINE
8
BLACK
6
CONTINUOUS
10
6.61783
20
-3.88262
11
6.61768
21
-3.88271
0
LINE
8
BLACK
6
CONTINUOUS
10
6.61768
20
-3.88271
11
6.6176
21
-3.88287
0
LINE
8
BLACK
6
CONTINUOUS
10
6.6176
20
-3.88287
11
6.61385
21
-3.88662
0
LINE
8
BLACK
6
CONTINUOUS
10
6.61385
20
-3.88662
11
6.61301
21
-3.88721
0
LINE
8
BLACK
6
CONTINUOUS
10
6.61301
20
-3.88721
11
6.61284
21
-3.88723
0
LINE
8
BLACK
6
CONTINUOUS
10
6.61284
20
-3.88723
11
6.6127
21
-3.88734
0
LINE
8
BLACK
6
CONTINUOUS
10
6.6127
20
-3.88734
11
6.60707
21
-3.88921
0
LINE
8
BLACK
6
CONTINUOUS
10
6.60707
20
-3.88921
11
6.6062
21
-3.88934
0
LINE
8
BLACK
6
CONTINUOUS
10
6.6062
20
-3.88934
11
6.60614
21
-3.88936
0
LINE
8
BLACK
6
CONTINUOUS
10
6.60614
20
-3.88936
11
6.60239
21
-3.88936
0
LINE
8
BLACK
6
CONTINUOUS
10
6.60239
20
-3.88936
11
6.60138
21
-3.88918
0
LINE
8
BLACK
6
CONTINUOUS
10
6.60138
20
-3.88918
11
6.59983
21
-3.88789
0
LINE
8
BLACK
6
CONTINUOUS
10
6.59983
20
-3.88789
11
6.59948
21
-3.8859
0
LINE
8
BLACK
6
CONTINUOUS
10
6.59948
20
-3.8859
11
6.60049
21
-3.88415
0
LINE
8
BLACK
6
CONTINUOUS
10
6.60049
20
-3.88415
11
6.60239
21
-3.88346
0
LINE
8
BLACK
6
CONTINUOUS
10
6.60239
20
-3.88346
11
6.60566
21
-3.88346
0
LINE
8
BLACK
6
CONTINUOUS
10
6.60566
20
-3.88346
11
6.61017
21
-3.88195
0
LINE
8
BLACK
6
CONTINUOUS
10
6.61017
20
-3.88195
11
6.61293
21
-3.87919
0
LINE
8
BLACK
6
CONTINUOUS
10
6.61293
20
-3.87919
11
6.61444
21
-3.87468
0
LINE
8
BLACK
6
CONTINUOUS
10
6.61444
20
-3.87468
11
6.61444
21
-3.84704
0
LINE
8
BLACK
6
CONTINUOUS
10
6.61444
20
-3.84704
11
6.61461
21
-3.84603
0
LINE
8
BLACK
6
CONTINUOUS
10
6.61461
20
-3.84603
11
6.61591
21
-3.84448
0
LINE
8
BLACK
6
CONTINUOUS
10
6.61591
20
-3.84448
11
6.6179
21
-3.84413
0
LINE
8
BLACK
6
CONTINUOUS
10
6.6179
20
-3.84413
11
6.61965
21
-3.84514
0
LINE
8
BLACK
6
CONTINUOUS
10
6.65027
20
-3.84427
11
6.6504
21
-3.84438
0
LINE
8
BLACK
6
CONTINUOUS
10
6.6504
20
-3.84438
11
6.65058
21
-3.8444
0
LINE
8
BLACK
6
CONTINUOUS
10
6.65058
20
-3.8444
11
6.65433
21
-3.84627
0
LINE
8
BLACK
6
CONTINUOUS
10
6.65433
20
-3.84627
11
6.65504
21
-3.8468
0
LINE
8
BLACK
6
CONTINUOUS
10
6.65504
20
-3.8468
11
6.6551
21
-3.84683
0
LINE
8
BLACK
6
CONTINUOUS
10
6.6551
20
-3.84683
11
6.65697
21
-3.8487
0
LINE
8
BLACK
6
CONTINUOUS
10
6.65697
20
-3.8487
11
6.65748
21
-3.84942
0
LINE
8
BLACK
6
CONTINUOUS
10
6.65748
20
-3.84942
11
6.65752
21
-3.84947
0
LINE
8
BLACK
6
CONTINUOUS
10
6.65752
20
-3.84947
11
6.6594
21
-3.85322
0
LINE
8
BLACK
6
CONTINUOUS
10
6.6594
20
-3.85322
11
6.65969
21
-3.8542
0
LINE
8
BLACK
6
CONTINUOUS
10
6.65969
20
-3.8542
11
6.65965
21
-3.85437
0
LINE
8
BLACK
6
CONTINUOUS
10
6.65965
20
-3.85437
11
6.65971
21
-3.85454
0
LINE
8
BLACK
6
CONTINUOUS
10
6.65971
20
-3.85454
11
6.65971
21
-3.85641
0
LINE
8
BLACK
6
CONTINUOUS
10
6.65971
20
-3.85641
11
6.65953
21
-3.85742
0
LINE
8
BLACK
6
CONTINUOUS
10
6.65953
20
-3.85742
11
6.65942
21
-3.85756
0
LINE
8
BLACK
6
CONTINUOUS
10
6.65942
20
-3.85756
11
6.6594
21
-3.85773
0
LINE
8
BLACK
6
CONTINUOUS
10
6.6594
20
-3.85773
11
6.65752
21
-3.86148
0
LINE
8
BLACK
6
CONTINUOUS
10
6.65752
20
-3.86148
11
6.657
21
-3.86219
0
LINE
8
BLACK
6
CONTINUOUS
10
6.657
20
-3.86219
11
6.65697
21
-3.86225
0
LINE
8
BLACK
6
CONTINUOUS
10
6.65697
20
-3.86225
11
6.65531
21
-3.86391
0
LINE
8
BLACK
6
CONTINUOUS
10
6.65531
20
-3.86391
11
6.65697
21
-3.86557
0
LINE
8
BLACK
6
CONTINUOUS
10
6.65697
20
-3.86557
11
6.65748
21
-3.8663
0
LINE
8
BLACK
6
CONTINUOUS
10
6.65748
20
-3.8663
11
6.65752
21
-3.86634
0
LINE
8
BLACK
6
CONTINUOUS
10
6.65752
20
-3.86634
11
6.6594
21
-3.87009
0
LINE
8
BLACK
6
CONTINUOUS
10
6.6594
20
-3.87009
11
6.65969
21
-3.87107
0
LINE
8
BLACK
6
CONTINUOUS
10
6.65969
20
-3.87107
11
6.65965
21
-3.87125
0
LINE
8
BLACK
6
CONTINUOUS
10
6.65965
20
-3.87125
11
6.65971
21
-3.87141
0
LINE
8
BLACK
6
CONTINUOUS
10
6.65971
20
-3.87141
11
6.65971
21
-3.87891
0
LINE
8
BLACK
6
CONTINUOUS
10
6.65971
20
-3.87891
11
6.65953
21
-3.87992
0
LINE
8
BLACK
6
CONTINUOUS
10
6.65953
20
-3.87992
11
6.65942
21
-3.88006
0
LINE
8
BLACK
6
CONTINUOUS
10
6.65942
20
-3.88006
11
6.6594
21
-3.88023
0
LINE
8
BLACK
6
CONTINUOUS
10
6.6594
20
-3.88023
11
6.65752
21
-3.88398
0
LINE
8
BLACK
6
CONTINUOUS
10
6.65752
20
-3.88398
11
6.657
21
-3.88469
0
LINE
8
BLACK
6
CONTINUOUS
10
6.657
20
-3.88469
11
6.65697
21
-3.88475
0
LINE
8
BLACK
6
CONTINUOUS
10
6.65697
20
-3.88475
11
6.6551
21
-3.88662
0
LINE
8
BLACK
6
CONTINUOUS
10
6.6551
20
-3.88662
11
6.65437
21
-3.88713
0
LINE
8
BLACK
6
CONTINUOUS
10
6.65437
20
-3.88713
11
6.65433
21
-3.88718
0
LINE
8
BLACK
6
CONTINUOUS
10
6.65433
20
-3.88718
11
6.65058
21
-3.88905
0
LINE
8
BLACK
6
CONTINUOUS
10
6.65058
20
-3.88905
11
6.6496
21
-3.88934
0
LINE
8
BLACK
6
CONTINUOUS
10
6.6496
20
-3.88934
11
6.64943
21
-3.8893
0
LINE
8
BLACK
6
CONTINUOUS
10
6.64943
20
-3.8893
11
6.64926
21
-3.88936
0
LINE
8
BLACK
6
CONTINUOUS
10
6.64926
20
-3.88936
11
6.64176
21
-3.88936
0
LINE
8
BLACK
6
CONTINUOUS
10
6.64176
20
-3.88936
11
6.64075
21
-3.88918
0
LINE
8
BLACK
6
CONTINUOUS
10
6.64075
20
-3.88918
11
6.64062
21
-3.88907
0
LINE
8
BLACK
6
CONTINUOUS
10
6.64062
20
-3.88907
11
6.64044
21
-3.88905
0
LINE
8
BLACK
6
CONTINUOUS
10
6.64044
20
-3.88905
11
6.63669
21
-3.88718
0
LINE
8
BLACK
6
CONTINUOUS
10
6.63669
20
-3.88718
11
6.63598
21
-3.88665
0
LINE
8
BLACK
6
CONTINUOUS
10
6.63598
20
-3.88665
11
6.63592
21
-3.88662
0
LINE
8
BLACK
6
CONTINUOUS
10
6.63592
20
-3.88662
11
6.63405
21
-3.88475
0
LINE
8
BLACK
6
CONTINUOUS
10
6.63405
20
-3.88475
11
6.63354
21
-3.88403
0
LINE
8
BLACK
6
CONTINUOUS
10
6.63354
20
-3.88403
11
6.6335
21
-3.88398
0
LINE
8
BLACK
6
CONTINUOUS
10
6.6335
20
-3.88398
11
6.63162
21
-3.88023
0
LINE
8
BLACK
6
CONTINUOUS
10
6.63162
20
-3.88023
11
6.63133
21
-3.87925
0
LINE
8
BLACK
6
CONTINUOUS
10
6.63133
20
-3.87925
11
6.63137
21
-3.87908
0
LINE
8
BLACK
6
CONTINUOUS
10
6.63137
20
-3.87908
11
6.63131
21
-3.87891
0
LINE
8
BLACK
6
CONTINUOUS
10
6.63131
20
-3.87891
11
6.63131
21
-3.87141
0
LINE
8
BLACK
6
CONTINUOUS
10
6.63131
20
-3.87141
11
6.63149
21
-3.8704
0
LINE
8
BLACK
6
CONTINUOUS
10
6.63149
20
-3.8704
11
6.6316
21
-3.87027
0
LINE
8
BLACK
6
CONTINUOUS
10
6.6316
20
-3.87027
11
6.63162
21
-3.87009
0
LINE
8
BLACK
6
CONTINUOUS
10
6.63162
20
-3.87009
11
6.6335
21
-3.86634
0
LINE
8
BLACK
6
CONTINUOUS
10
6.6335
20
-3.86634
11
6.63402
21
-3.86563
0
LINE
8
BLACK
6
CONTINUOUS
10
6.63402
20
-3.86563
11
6.63405
21
-3.86557
0
LINE
8
BLACK
6
CONTINUOUS
10
6.63405
20
-3.86557
11
6.63571
21
-3.86391
0
LINE
8
BLACK
6
CONTINUOUS
10
6.63571
20
-3.86391
11
6.63405
21
-3.86225
0
LINE
8
BLACK
6
CONTINUOUS
10
6.63405
20
-3.86225
11
6.63354
21
-3.86153
0
LINE
8
BLACK
6
CONTINUOUS
10
6.63354
20
-3.86153
11
6.6335
21
-3.86148
0
LINE
8
BLACK
6
CONTINUOUS
10
6.6335
20
-3.86148
11
6.63162
21
-3.85773
0
LINE
8
BLACK
6
CONTINUOUS
10
6.63162
20
-3.85773
11
6.63133
21
-3.85675
0
LINE
8
BLACK
6
CONTINUOUS
10
6.63133
20
-3.85675
11
6.63137
21
-3.85658
0
LINE
8
BLACK
6
CONTINUOUS
10
6.63137
20
-3.85658
11
6.63131
21
-3.85641
0
LINE
8
BLACK
6
CONTINUOUS
10
6.63131
20
-3.85641
11
6.63131
21
-3.85454
0
LINE
8
BLACK
6
CONTINUOUS
10
6.63131
20
-3.85454
11
6.63149
21
-3.85353
0
LINE
8
BLACK
6
CONTINUOUS
10
6.63149
20
-3.85353
11
6.6316
21
-3.85339
0
LINE
8
BLACK
6
CONTINUOUS
10
6.6316
20
-3.85339
11
6.63162
21
-3.85322
0
LINE
8
BLACK
6
CONTINUOUS
10
6.63162
20
-3.85322
11
6.6335
21
-3.84947
0
LINE
8
BLACK
6
CONTINUOUS
10
6.6335
20
-3.84947
11
6.63402
21
-3.84876
0
LINE
8
BLACK
6
CONTINUOUS
10
6.63402
20
-3.84876
11
6.63405
21
-3.8487
0
LINE
8
BLACK
6
CONTINUOUS
10
6.63405
20
-3.8487
11
6.63592
21
-3.84683
0
LINE
8
BLACK
6
CONTINUOUS
10
6.63592
20
-3.84683
11
6.63665
21
-3.84632
0
LINE
8
BLACK
6
CONTINUOUS
10
6.63665
20
-3.84632
11
6.63669
21
-3.84627
0
LINE
8
BLACK
6
CONTINUOUS
10
6.63669
20
-3.84627
11
6.64044
21
-3.8444
0
LINE
8
BLACK
6
CONTINUOUS
10
6.64044
20
-3.8444
11
6.64142
21
-3.84411
0
LINE
8
BLACK
6
CONTINUOUS
10
6.64142
20
-3.84411
11
6.64159
21
-3.84415
0
LINE
8
BLACK
6
CONTINUOUS
10
6.64159
20
-3.84415
11
6.64176
21
-3.84409
0
LINE
8
BLACK
6
CONTINUOUS
10
6.64176
20
-3.84409
11
6.64926
21
-3.84409
0
LINE
8
BLACK
6
CONTINUOUS
10
6.64926
20
-3.84409
11
6.65027
21
-3.84427
0
LINE
8
BLACK
6
CONTINUOUS
10
6.63976
20
-3.86821
11
6.63856
21
-3.86941
0
LINE
8
BLACK
6
CONTINUOUS
10
6.63856
20
-3.86941
11
6.63721
21
-3.87211
0
LINE
8
BLACK
6
CONTINUOUS
10
6.63721
20
-3.87211
11
6.63721
21
-3.87821
0
LINE
8
BLACK
6
CONTINUOUS
10
6.63721
20
-3.87821
11
6.63856
21
-3.88091
0
LINE
8
BLACK
6
CONTINUOUS
10
6.63856
20
-3.88091
11
6.63976
21
-3.88211
0
LINE
8
BLACK
6
CONTINUOUS
10
6.63976
20
-3.88211
11
6.64246
21
-3.88346
0
LINE
8
BLACK
6
CONTINUOUS
10
6.64246
20
-3.88346
11
6.64856
21
-3.88346
0
LINE
8
BLACK
6
CONTINUOUS
10
6.64856
20
-3.88346
11
6.65126
21
-3.88211
0
LINE
8
BLACK
6
CONTINUOUS
10
6.65126
20
-3.88211
11
6.65246
21
-3.88091
0
LINE
8
BLACK
6
CONTINUOUS
10
6.65246
20
-3.88091
11
6.65381
21
-3.87821
0
LINE
8
BLACK
6
CONTINUOUS
10
6.65381
20
-3.87821
11
6.65381
21
-3.87211
0
LINE
8
BLACK
6
CONTINUOUS
10
6.65381
20
-3.87211
11
6.65246
21
-3.86941
0
LINE
8
BLACK
6
CONTINUOUS
10
6.65246
20
-3.86941
11
6.65126
21
-3.86821
0
LINE
8
BLACK
6
CONTINUOUS
10
6.65126
20
-3.86821
11
6.64856
21
-3.86687
0
LINE
8
BLACK
6
CONTINUOUS
10
6.64856
20
-3.86687
11
6.64246
21
-3.86687
0
LINE
8
BLACK
6
CONTINUOUS
10
6.64246
20
-3.86687
11
6.63976
21
-3.86821
0
LINE
8
BLACK
6
CONTINUOUS
10
6.63976
20
-3.85134
11
6.63856
21
-3.85254
0
LINE
8
BLACK
6
CONTINUOUS
10
6.63856
20
-3.85254
11
6.63721
21
-3.85524
0
LINE
8
BLACK
6
CONTINUOUS
10
6.63721
20
-3.85524
11
6.63721
21
-3.85572
0
LINE
8
BLACK
6
CONTINUOUS
10
6.63721
20
-3.85572
11
6.63856
21
-3.85841
0
LINE
8
BLACK
6
CONTINUOUS
10
6.63856
20
-3.85841
11
6.63976
21
-3.85961
0
LINE
8
BLACK
6
CONTINUOUS
10
6.63976
20
-3.85961
11
6.64246
21
-3.86096
0
LINE
8
BLACK
6
CONTINUOUS
10
6.64246
20
-3.86096
11
6.64856
21
-3.86096
0
LINE
8
BLACK
6
CONTINUOUS
10
6.64856
20
-3.86096
11
6.65126
21
-3.85961
0
LINE
8
BLACK
6
CONTINUOUS
10
6.65126
20
-3.85961
11
6.65246
21
-3.85841
0
LINE
8
BLACK
6
CONTINUOUS
10
6.65246
20
-3.85841
11
6.65381
21
-3.85572
0
LINE
8
BLACK
6
CONTINUOUS
10
6.65381
20
-3.85572
11
6.65381
21
-3.85524
0
LINE
8
BLACK
6
CONTINUOUS
10
6.65381
20
-3.85524
11
6.65246
21
-3.85254
0
LINE
8
BLACK
6
CONTINUOUS
10
6.65246
20
-3.85254
11
6.65126
21
-3.85134
0
LINE
8
BLACK
6
CONTINUOUS
10
6.65126
20
-3.85134
11
6.64856
21
-3.84999
0
LINE
8
BLACK
6
CONTINUOUS
10
6.64856
20
-3.84999
11
6.64246
21
-3.84999
0
LINE
8
BLACK
6
CONTINUOUS
10
6.64246
20
-3.84999
11
6.63976
21
-3.85134
0
LINE
8
BLACK
6
CONTINUOUS
10
6.64932
20
-3.76989
11
6.66154
21
-3.77302
0
LINE
8
BLACK
6
CONTINUOUS
10
6.66154
20
-3.77302
11
6.67326
21
-3.77766
0
LINE
8
BLACK
6
CONTINUOUS
10
6.67326
20
-3.77766
11
6.68431
21
-3.78374
0
LINE
8
BLACK
6
CONTINUOUS
10
6.68431
20
-3.78374
11
6.69451
21
-3.79115
0
LINE
8
BLACK
6
CONTINUOUS
10
6.69451
20
-3.79115
11
6.7037
21
-3.79978
0
LINE
8
BLACK
6
CONTINUOUS
10
6.7037
20
-3.79978
11
6.71173
21
-3.80949
0
LINE
8
BLACK
6
CONTINUOUS
10
6.71173
20
-3.80949
11
6.71849
21
-3.82014
0
LINE
8
BLACK
6
CONTINUOUS
10
6.71849
20
-3.82014
11
6.72386
21
-3.83155
0
LINE
8
BLACK
6
CONTINUOUS
10
6.72386
20
-3.83155
11
6.72775
21
-3.84354
0
LINE
8
BLACK
6
CONTINUOUS
10
6.72775
20
-3.84354
11
6.73011
21
-3.85592
0
LINE
8
BLACK
6
CONTINUOUS
10
6.73011
20
-3.85592
11
6.73091
21
-3.8685
0
LINE
8
BLACK
6
CONTINUOUS
10
6.73091
20
-3.8685
11
6.73011
21
-3.88109
0
LINE
8
BLACK
6
CONTINUOUS
10
6.73011
20
-3.88109
11
6.72775
21
-3.89347
0
LINE
8
BLACK
6
CONTINUOUS
10
6.72775
20
-3.89347
11
6.72386
21
-3.90546
0
LINE
8
BLACK
6
CONTINUOUS
10
6.72386
20
-3.90546
11
6.71849
21
-3.91687
0
LINE
8
BLACK
6
CONTINUOUS
10
6.71849
20
-3.91687
11
6.71173
21
-3.92751
0
LINE
8
BLACK
6
CONTINUOUS
10
6.71173
20
-3.92751
11
6.7037
21
-3.93723
0
LINE
8
BLACK
6
CONTINUOUS
10
6.7037
20
-3.93723
11
6.69451
21
-3.94586
0
LINE
8
BLACK
6
CONTINUOUS
10
6.69451
20
-3.94586
11
6.68431
21
-3.95327
0
LINE
8
BLACK
6
CONTINUOUS
10
6.68431
20
-3.95327
11
6.67326
21
-3.95934
0
LINE
8
BLACK
6
CONTINUOUS
10
6.67326
20
-3.95934
11
6.66154
21
-3.96398
0
LINE
8
BLACK
6
CONTINUOUS
10
6.66154
20
-3.96398
11
6.64932
21
-3.96712
0
LINE
8
BLACK
6
CONTINUOUS
10
6.64932
20
-3.96712
11
6.63682
21
-3.9687
0
LINE
8
BLACK
6
CONTINUOUS
10
6.63682
20
-3.9687
11
6.62421
21
-3.9687
0
LINE
8
BLACK
6
CONTINUOUS
10
6.62421
20
-3.9687
11
6.6117
21
-3.96712
0
LINE
8
BLACK
6
CONTINUOUS
10
6.6117
20
-3.96712
11
6.59949
21
-3.96398
0
LINE
8
BLACK
6
CONTINUOUS
10
6.59949
20
-3.96398
11
6.58777
21
-3.95934
0
LINE
8
BLACK
6
CONTINUOUS
10
6.58777
20
-3.95934
11
6.57672
21
-3.95327
0
LINE
8
BLACK
6
CONTINUOUS
10
6.57672
20
-3.95327
11
6.56652
21
-3.94586
0
LINE
8
BLACK
6
CONTINUOUS
10
6.56652
20
-3.94586
11
6.55733
21
-3.93723
0
LINE
8
BLACK
6
CONTINUOUS
10
6.55733
20
-3.93723
11
6.54929
21
-3.92751
0
LINE
8
BLACK
6
CONTINUOUS
10
6.54929
20
-3.92751
11
6.54254
21
-3.91687
0
LINE
8
BLACK
6
CONTINUOUS
10
6.54254
20
-3.91687
11
6.53717
21
-3.90546
0
LINE
8
BLACK
6
CONTINUOUS
10
6.53717
20
-3.90546
11
6.53327
21
-3.89347
0
LINE
8
BLACK
6
CONTINUOUS
10
6.53327
20
-3.89347
11
6.53091
21
-3.88109
0
LINE
8
BLACK
6
CONTINUOUS
10
6.53091
20
-3.88109
11
6.53012
21
-3.8685
0
LINE
8
BLACK
6
CONTINUOUS
10
6.53012
20
-3.8685
11
6.53091
21
-3.85592
0
LINE
8
BLACK
6
CONTINUOUS
10
6.53091
20
-3.85592
11
6.53327
21
-3.84354
0
LINE
8
BLACK
6
CONTINUOUS
10
6.53327
20
-3.84354
11
6.53717
21
-3.83155
0
LINE
8
BLACK
6
CONTINUOUS
10
6.53717
20
-3.83155
11
6.54254
21
-3.82014
0
LINE
8
BLACK
6
CONTINUOUS
10
6.54254
20
-3.82014
11
6.54929
21
-3.80949
0
LINE
8
BLACK
6
CONTINUOUS
10
6.54929
20
-3.80949
11
6.55733
21
-3.79978
0
LINE
8
BLACK
6
CONTINUOUS
10
6.55733
20
-3.79978
11
6.56652
21
-3.79115
0
LINE
8
BLACK
6
CONTINUOUS
10
6.56652
20
-3.79115
11
6.57672
21
-3.78374
0
LINE
8
BLACK
6
CONTINUOUS
10
6.57672
20
-3.78374
11
6.58777
21
-3.77766
0
LINE
8
BLACK
6
CONTINUOUS
10
6.58777
20
-3.77766
11
6.59949
21
-3.77302
0
LINE
8
BLACK
6
CONTINUOUS
10
6.59949
20
-3.77302
11
6.6117
21
-3.76989
0
LINE
8
BLACK
6
CONTINUOUS
10
6.6117
20
-3.76989
11
6.62421
21
-3.76831
0
LINE
8
BLACK
6
CONTINUOUS
10
6.62421
20
-3.76831
11
6.63682
21
-3.76831
0
LINE
8
BLACK
6
CONTINUOUS
10
6.63682
20
-3.76831
11
6.64932
21
-3.76989
0
LINE
8
BLACK
6
CONTINUOUS
10
6.53463
20
-3.88062
11
6.5369
21
-3.89254
0
LINE
8
BLACK
6
CONTINUOUS
10
6.5369
20
-3.89254
11
6.54065
21
-3.90408
0
LINE
8
BLACK
6
CONTINUOUS
10
6.54065
20
-3.90408
11
6.54582
21
-3.91506
0
LINE
8
BLACK
6
CONTINUOUS
10
6.54582
20
-3.91506
11
6.55232
21
-3.92531
0
LINE
8
BLACK
6
CONTINUOUS
10
6.55232
20
-3.92531
11
6.56006
21
-3.93466
0
LINE
8
BLACK
6
CONTINUOUS
10
6.56006
20
-3.93466
11
6.56891
21
-3.94297
0
LINE
8
BLACK
6
CONTINUOUS
10
6.56891
20
-3.94297
11
6.57873
21
-3.95011
0
LINE
8
BLACK
6
CONTINUOUS
10
6.57873
20
-3.95011
11
6.58936
21
-3.95595
0
LINE
8
BLACK
6
CONTINUOUS
10
6.58936
20
-3.95595
11
6.60065
21
-3.96042
0
LINE
8
BLACK
6
CONTINUOUS
10
6.60065
20
-3.96042
11
6.6124
21
-3.96344
0
LINE
8
BLACK
6
CONTINUOUS
10
6.6124
20
-3.96344
11
6.62444
21
-3.96496
0
LINE
8
BLACK
6
CONTINUOUS
10
6.62444
20
-3.96496
11
6.63658
21
-3.96496
0
LINE
8
BLACK
6
CONTINUOUS
10
6.63658
20
-3.96496
11
6.64862
21
-3.96344
0
LINE
8
BLACK
6
CONTINUOUS
10
6.64862
20
-3.96344
11
6.66038
21
-3.96042
0
LINE
8
BLACK
6
CONTINUOUS
10
6.66038
20
-3.96042
11
6.67166
21
-3.95595
0
LINE
8
BLACK
6
CONTINUOUS
10
6.67166
20
-3.95595
11
6.6823
21
-3.95011
0
LINE
8
BLACK
6
CONTINUOUS
10
6.6823
20
-3.95011
11
6.69212
21
-3.94297
0
LINE
8
BLACK
6
CONTINUOUS
10
6.69212
20
-3.94297
11
6.70096
21
-3.93466
0
LINE
8
BLACK
6
CONTINUOUS
10
6.70096
20
-3.93466
11
6.7087
21
-3.92531
0
LINE
8
BLACK
6
CONTINUOUS
10
6.7087
20
-3.92531
11
6.7152
21
-3.91506
0
LINE
8
BLACK
6
CONTINUOUS
10
6.7152
20
-3.91506
11
6.72037
21
-3.90408
0
LINE
8
BLACK
6
CONTINUOUS
10
6.72037
20
-3.90408
11
6.72412
21
-3.89254
0
LINE
8
BLACK
6
CONTINUOUS
10
6.72412
20
-3.89254
11
6.7264
21
-3.88062
0
LINE
8
BLACK
6
CONTINUOUS
10
6.7264
20
-3.88062
11
6.72716
21
-3.8685
0
LINE
8
BLACK
6
CONTINUOUS
10
6.72716
20
-3.8685
11
6.7264
21
-3.85639
0
LINE
8
BLACK
6
CONTINUOUS
10
6.7264
20
-3.85639
11
6.72412
21
-3.84447
0
LINE
8
BLACK
6
CONTINUOUS
10
6.72412
20
-3.84447
11
6.72037
21
-3.83293
0
LINE
8
BLACK
6
CONTINUOUS
10
6.72037
20
-3.83293
11
6.7152
21
-3.82194
0
LINE
8
BLACK
6
CONTINUOUS
10
6.7152
20
-3.82194
11
6.7087
21
-3.8117
0
LINE
8
BLACK
6
CONTINUOUS
10
6.7087
20
-3.8117
11
6.70096
21
-3.80234
0
LINE
8
BLACK
6
CONTINUOUS
10
6.70096
20
-3.80234
11
6.69212
21
-3.79404
0
LINE
8
BLACK
6
CONTINUOUS
10
6.69212
20
-3.79404
11
6.6823
21
-3.7869
0
LINE
8
BLACK
6
CONTINUOUS
10
6.6823
20
-3.7869
11
6.67166
21
-3.78105
0
LINE
8
BLACK
6
CONTINUOUS
10
6.67166
20
-3.78105
11
6.66038
21
-3.77659
0
LINE
8
BLACK
6
CONTINUOUS
10
6.66038
20
-3.77659
11
6.64862
21
-3.77357
0
LINE
8
BLACK
6
CONTINUOUS
10
6.64862
20
-3.77357
11
6.63658
21
-3.77205
0
LINE
8
BLACK
6
CONTINUOUS
10
6.63658
20
-3.77205
11
6.62444
21
-3.77205
0
LINE
8
BLACK
6
CONTINUOUS
10
6.62444
20
-3.77205
11
6.6124
21
-3.77357
0
LINE
8
BLACK
6
CONTINUOUS
10
6.6124
20
-3.77357
11
6.60065
21
-3.77659
0
LINE
8
BLACK
6
CONTINUOUS
10
6.60065
20
-3.77659
11
6.58936
21
-3.78105
0
LINE
8
BLACK
6
CONTINUOUS
10
6.58936
20
-3.78105
11
6.57873
21
-3.7869
0
LINE
8
BLACK
6
CONTINUOUS
10
6.57873
20
-3.7869
11
6.56891
21
-3.79404
0
LINE
8
BLACK
6
CONTINUOUS
10
6.56891
20
-3.79404
11
6.56006
21
-3.80234
0
LINE
8
BLACK
6
CONTINUOUS
10
6.56006
20
-3.80234
11
6.55232
21
-3.8117
0
LINE
8
BLACK
6
CONTINUOUS
10
6.55232
20
-3.8117
11
6.54582
21
-3.82194
0
LINE
8
BLACK
6
CONTINUOUS
10
6.54582
20
-3.82194
11
6.54065
21
-3.83293
0
LINE
8
BLACK
6
CONTINUOUS
10
6.54065
20
-3.83293
11
6.5369
21
-3.84447
0
LINE
8
BLACK
6
CONTINUOUS
10
6.5369
20
-3.84447
11
6.53463
21
-3.85639
0
LINE
8
BLACK
6
CONTINUOUS
10
6.53463
20
-3.85639
11
6.53386
21
-3.8685
0
LINE
8
BLACK
6
CONTINUOUS
10
6.53386
20
-3.8685
11
6.53463
21
-3.88062
0
LINE
8
BLACK
6
CONTINUOUS
10
6.76634
20
-3.73071
11
6.76773
21
-3.73129
0
LINE
8
BLACK
6
CONTINUOUS
10
6.76773
20
-3.73129
11
6.76831
21
-3.73268
0
LINE
8
BLACK
6
CONTINUOUS
10
6.76831
20
-3.73268
11
6.76831
21
-4.00433
0
LINE
8
BLACK
6
CONTINUOUS
10
6.76831
20
-4.00433
11
6.76773
21
-4.00572
0
LINE
8
BLACK
6
CONTINUOUS
10
6.76773
20
-4.00572
11
6.76634
21
-4.0063
0
LINE
8
BLACK
6
CONTINUOUS
10
6.76634
20
-4.0063
11
6.49469
21
-4.0063
0
LINE
8
BLACK
6
CONTINUOUS
10
6.49469
20
-4.0063
11
6.49329
21
-4.00572
0
LINE
8
BLACK
6
CONTINUOUS
10
6.49329
20
-4.00572
11
6.49272
21
-4.00433
0
LINE
8
BLACK
6
CONTINUOUS
10
6.49272
20
-4.00433
11
6.49272
21
-3.73268
0
LINE
8
BLACK
6
CONTINUOUS
10
6.49272
20
-3.73268
11
6.49329
21
-3.73129
0
LINE
8
BLACK
6
CONTINUOUS
10
6.49329
20
-3.73129
11
6.49469
21
-3.73071
0
LINE
8
BLACK
6
CONTINUOUS
10
6.49469
20
-3.73071
11
6.76634
21
-3.73071
0
LINE
8
BLACK
6
CONTINUOUS
10
6.49665
20
-3.73465
11
6.49665
21
-4.00236
0
LINE
8
BLACK
6
CONTINUOUS
10
6.49665
20
-4.00236
11
6.76437
21
-4.00236
0
LINE
8
BLACK
6
CONTINUOUS
10
6.76437
20
-4.00236
11
6.76437
21
-3.73465
0
LINE
8
BLACK
6
CONTINUOUS
10
6.76437
20
-3.73465
11
6.49665
21
-3.73465
0
LINE
8
BLACK
6
CONTINUOUS
10
5.49764
20
-3.59306
11
5.4977
21
-3.59306
0
LINE
8
BLACK
6
CONTINUOUS
10
5.4977
20
-3.59306
11
5.50332
21
-3.59493
0
LINE
8
BLACK
6
CONTINUOUS
10
5.50332
20
-3.59493
11
5.50423
21
-3.59542
0
LINE
8
BLACK
6
CONTINUOUS
10
5.50423
20
-3.59542
11
5.50528
21
-3.59714
0
LINE
8
BLACK
6
CONTINUOUS
10
5.50528
20
-3.59714
11
5.50499
21
-3.59914
0
LINE
8
BLACK
6
CONTINUOUS
10
5.50499
20
-3.59914
11
5.50348
21
-3.60048
0
LINE
8
BLACK
6
CONTINUOUS
10
5.50348
20
-3.60048
11
5.50146
21
-3.60053
0
LINE
8
BLACK
6
CONTINUOUS
10
5.50146
20
-3.60053
11
5.49629
21
-3.59881
0
LINE
8
BLACK
6
CONTINUOUS
10
5.49629
20
-3.59881
11
5.48809
21
-3.59881
0
LINE
8
BLACK
6
CONTINUOUS
10
5.48809
20
-3.59881
11
5.48539
21
-3.60016
0
LINE
8
BLACK
6
CONTINUOUS
10
5.48539
20
-3.60016
11
5.48419
21
-3.60136
0
LINE
8
BLACK
6
CONTINUOUS
10
5.48419
20
-3.60136
11
5.48285
21
-3.60406
0
LINE
8
BLACK
6
CONTINUOUS
10
5.48285
20
-3.60406
11
5.48285
21
-3.60641
0
LINE
8
BLACK
6
CONTINUOUS
10
5.48285
20
-3.60641
11
5.48419
21
-3.60911
0
LINE
8
BLACK
6
CONTINUOUS
10
5.48419
20
-3.60911
11
5.48539
21
-3.61031
0
LINE
8
BLACK
6
CONTINUOUS
10
5.48539
20
-3.61031
11
5.48842
21
-3.61182
0
LINE
8
BLACK
6
CONTINUOUS
10
5.48842
20
-3.61182
11
5.49561
21
-3.61362
0
LINE
8
BLACK
6
CONTINUOUS
10
5.49561
20
-3.61362
11
5.49607
21
-3.61382
0
LINE
8
BLACK
6
CONTINUOUS
10
5.49607
20
-3.61382
11
5.49621
21
-3.61384
0
LINE
8
BLACK
6
CONTINUOUS
10
5.49621
20
-3.61384
11
5.49996
21
-3.61572
0
LINE
8
BLACK
6
CONTINUOUS
10
5.49996
20
-3.61572
11
5.50067
21
-3.61624
0
LINE
8
BLACK
6
CONTINUOUS
10
5.50067
20
-3.61624
11
5.50073
21
-3.61627
0
LINE
8
BLACK
6
CONTINUOUS
10
5.50073
20
-3.61627
11
5.5026
21
-3.61814
0
LINE
8
BLACK
6
CONTINUOUS
10
5.5026
20
-3.61814
11
5.50311
21
-3.61887
0
LINE
8
BLACK
6
CONTINUOUS
10
5.50311
20
-3.61887
11
5.50316
21
-3.61891
0
LINE
8
BLACK
6
CONTINUOUS
10
5.50316
20
-3.61891
11
5.50503
21
-3.62266
0
LINE
8
BLACK
6
CONTINUOUS
10
5.50503
20
-3.62266
11
5.50532
21
-3.62364
0
LINE
8
BLACK
6
CONTINUOUS
10
5.50532
20
-3.62364
11
5.50528
21
-3.62381
0
LINE
8
BLACK
6
CONTINUOUS
10
5.50528
20
-3.62381
11
5.50534
21
-3.62398
0
LINE
8
BLACK
6
CONTINUOUS
10
5.50534
20
-3.62398
11
5.50534
21
-3.62773
0
LINE
8
BLACK
6
CONTINUOUS
10
5.50534
20
-3.62773
11
5.50516
21
-3.62874
0
LINE
8
BLACK
6
CONTINUOUS
10
5.50516
20
-3.62874
11
5.50505
21
-3.62888
0
LINE
8
BLACK
6
CONTINUOUS
10
5.50505
20
-3.62888
11
5.50503
21
-3.62905
0
LINE
8
BLACK
6
CONTINUOUS
10
5.50503
20
-3.62905
11
5.50316
21
-3.6328
0
LINE
8
BLACK
6
CONTINUOUS
10
5.50316
20
-3.6328
11
5.50263
21
-3.63351
0
LINE
8
BLACK
6
CONTINUOUS
10
5.50263
20
-3.63351
11
5.5026
21
-3.63357
0
LINE
8
BLACK
6
CONTINUOUS
10
5.5026
20
-3.63357
11
5.50073
21
-3.63544
0
LINE
8
BLACK
6
CONTINUOUS
10
5.50073
20
-3.63544
11
5.50001
21
-3.63595
0
LINE
8
BLACK
6
CONTINUOUS
10
5.50001
20
-3.63595
11
5.49996
21
-3.636
0
LINE
8
BLACK
6
CONTINUOUS
10
5.49996
20
-3.636
11
5.49621
21
-3.63787
0
LINE
8
BLACK
6
CONTINUOUS
10
5.49621
20
-3.63787
11
5.49523
21
-3.63816
0
LINE
8
BLACK
6
CONTINUOUS
10
5.49523
20
-3.63816
11
5.49506
21
-3.63812
0
LINE
8
BLACK
6
CONTINUOUS
10
5.49506
20
-3.63812
11
5.49489
21
-3.63818
0
LINE
8
BLACK
6
CONTINUOUS
10
5.49489
20
-3.63818
11
5.48552
21
-3.63818
0
LINE
8
BLACK
6
CONTINUOUS
10
5.48552
20
-3.63818
11
5.48465
21
-3.63803
0
LINE
8
BLACK
6
CONTINUOUS
10
5.48465
20
-3.63803
11
5.48458
21
-3.63803
0
LINE
8
BLACK
6
CONTINUOUS
10
5.48458
20
-3.63803
11
5.47896
21
-3.63616
0
LINE
8
BLACK
6
CONTINUOUS
10
5.47896
20
-3.63616
11
5.47806
21
-3.63567
0
LINE
8
BLACK
6
CONTINUOUS
10
5.47806
20
-3.63567
11
5.477
21
-3.63395
0
LINE
8
BLACK
6
CONTINUOUS
10
5.477
20
-3.63395
11
5.4773
21
-3.63195
0
LINE
8
BLACK
6
CONTINUOUS
10
5.4773
20
-3.63195
11
5.47881
21
-3.63061
0
LINE
8
BLACK
6
CONTINUOUS
10
5.47881
20
-3.63061
11
5.48083
21
-3.63055
0
LINE
8
BLACK
6
CONTINUOUS
10
5.48083
20
-3.63055
11
5.486
21
-3.63228
0
LINE
8
BLACK
6
CONTINUOUS
10
5.486
20
-3.63228
11
5.49419
21
-3.63228
0
LINE
8
BLACK
6
CONTINUOUS
10
5.49419
20
-3.63228
11
5.49689
21
-3.63093
0
LINE
8
BLACK
6
CONTINUOUS
10
5.49689
20
-3.63093
11
5.49809
21
-3.62973
0
LINE
8
BLACK
6
CONTINUOUS
10
5.49809
20
-3.62973
11
5.49944
21
-3.62703
0
LINE
8
BLACK
6
CONTINUOUS
10
5.49944
20
-3.62703
11
5.49944
21
-3.62468
0
LINE
8
BLACK
6
CONTINUOUS
10
5.49944
20
-3.62468
11
5.49809
21
-3.62198
0
LINE
8
BLACK
6
CONTINUOUS
10
5.49809
20
-3.62198
11
5.49689
21
-3.62078
0
LINE
8
BLACK
6
CONTINUOUS
10
5.49689
20
-3.62078
11
5.49386
21
-3.61927
0
LINE
8
BLACK
6
CONTINUOUS
10
5.49386
20
-3.61927
11
5.48668
21
-3.61747
0
LINE
8
BLACK
6
CONTINUOUS
10
5.48668
20
-3.61747
11
5.48621
21
-3.61726
0
LINE
8
BLACK
6
CONTINUOUS
10
5.48621
20
-3.61726
11
5.48607
21
-3.61725
0
LINE
8
BLACK
6
CONTINUOUS
10
5.48607
20
-3.61725
11
5.48232
21
-3.61537
0
LINE
8
BLACK
6
CONTINUOUS
10
5.48232
20
-3.61537
11
5.48161
21
-3.61485
0
LINE
8
BLACK
6
CONTINUOUS
10
5.48161
20
-3.61485
11
5.48155
21
-3.61482
0
LINE
8
BLACK
6
CONTINUOUS
10
5.48155
20
-3.61482
11
5.47968
21
-3.61295
0
LINE
8
BLACK
6
CONTINUOUS
10
5.47968
20
-3.61295
11
5.47917
21
-3.61222
0
LINE
8
BLACK
6
CONTINUOUS
10
5.47917
20
-3.61222
11
5.47913
21
-3.61218
0
LINE
8
BLACK
6
CONTINUOUS
10
5.47913
20
-3.61218
11
5.47725
21
-3.60843
0
LINE
8
BLACK
6
CONTINUOUS
10
5.47725
20
-3.60843
11
5.47696
21
-3.60745
0
LINE
8
BLACK
6
CONTINUOUS
10
5.47696
20
-3.60745
11
5.477
21
-3.60727
0
LINE
8
BLACK
6
CONTINUOUS
10
5.477
20
-3.60727
11
5.47694
21
-3.60711
0
LINE
8
BLACK
6
CONTINUOUS
10
5.47694
20
-3.60711
11
5.47694
21
-3.60336
0
LINE
8
BLACK
6
CONTINUOUS
10
5.47694
20
-3.60336
11
5.47712
21
-3.60235
0
LINE
8
BLACK
6
CONTINUOUS
10
5.47712
20
-3.60235
11
5.47723
21
-3.60221
0
LINE
8
BLACK
6
CONTINUOUS
10
5.47723
20
-3.60221
11
5.47725
21
-3.60204
0
LINE
8
BLACK
6
CONTINUOUS
10
5.47725
20
-3.60204
11
5.47913
21
-3.59829
0
LINE
8
BLACK
6
CONTINUOUS
10
5.47913
20
-3.59829
11
5.47965
21
-3.59758
0
LINE
8
BLACK
6
CONTINUOUS
10
5.47965
20
-3.59758
11
5.47968
21
-3.59752
0
LINE
8
BLACK
6
CONTINUOUS
10
5.47968
20
-3.59752
11
5.48155
21
-3.59565
0
LINE
8
BLACK
6
CONTINUOUS
10
5.48155
20
-3.59565
11
5.48228
21
-3.59514
0
LINE
8
BLACK
6
CONTINUOUS
10
5.48228
20
-3.59514
11
5.48232
21
-3.59509
0
LINE
8
BLACK
6
CONTINUOUS
10
5.48232
20
-3.59509
11
5.48607
21
-3.59322
0
LINE
8
BLACK
6
CONTINUOUS
10
5.48607
20
-3.59322
11
5.48705
21
-3.59293
0
LINE
8
BLACK
6
CONTINUOUS
10
5.48705
20
-3.59293
11
5.48723
21
-3.59297
0
LINE
8
BLACK
6
CONTINUOUS
10
5.48723
20
-3.59297
11
5.48739
21
-3.59291
0
LINE
8
BLACK
6
CONTINUOUS
10
5.48739
20
-3.59291
11
5.49677
21
-3.59291
0
LINE
8
BLACK
6
CONTINUOUS
10
5.49677
20
-3.59291
11
5.49764
21
-3.59306
0
LINE
8
BLACK
6
CONTINUOUS
10
6.59764
20
-3.59306
11
6.5977
21
-3.59306
0
LINE
8
BLACK
6
CONTINUOUS
10
6.5977
20
-3.59306
11
6.60332
21
-3.59493
0
LINE
8
BLACK
6
CONTINUOUS
10
6.60332
20
-3.59493
11
6.60423
21
-3.59542
0
LINE
8
BLACK
6
CONTINUOUS
10
6.60423
20
-3.59542
11
6.60528
21
-3.59714
0
LINE
8
BLACK
6
CONTINUOUS
10
6.60528
20
-3.59714
11
6.60499
21
-3.59914
0
LINE
8
BLACK
6
CONTINUOUS
10
6.60499
20
-3.59914
11
6.60348
21
-3.60048
0
LINE
8
BLACK
6
CONTINUOUS
10
6.60348
20
-3.60048
11
6.60146
21
-3.60053
0
LINE
8
BLACK
6
CONTINUOUS
10
6.60146
20
-3.60053
11
6.59629
21
-3.59881
0
LINE
8
BLACK
6
CONTINUOUS
10
6.59629
20
-3.59881
11
6.58809
21
-3.59881
0
LINE
8
BLACK
6
CONTINUOUS
10
6.58809
20
-3.59881
11
6.58539
21
-3.60016
0
LINE
8
BLACK
6
CONTINUOUS
10
6.58539
20
-3.60016
11
6.58419
21
-3.60136
0
LINE
8
BLACK
6
CONTINUOUS
10
6.58419
20
-3.60136
11
6.58285
21
-3.60406
0
LINE
8
BLACK
6
CONTINUOUS
10
6.58285
20
-3.60406
11
6.58285
21
-3.60641
0
LINE
8
BLACK
6
CONTINUOUS
10
6.58285
20
-3.60641
11
6.58419
21
-3.60911
0
LINE
8
BLACK
6
CONTINUOUS
10
6.58419
20
-3.60911
11
6.58539
21
-3.61031
0
LINE
8
BLACK
6
CONTINUOUS
10
6.58539
20
-3.61031
11
6.58842
21
-3.61182
0
LINE
8
BLACK
6
CONTINUOUS
10
6.58842
20
-3.61182
11
6.59561
21
-3.61362
0
LINE
8
BLACK
6
CONTINUOUS
10
6.59561
20
-3.61362
11
6.59607
21
-3.61382
0
LINE
8
BLACK
6
CONTINUOUS
10
6.59607
20
-3.61382
11
6.59621
21
-3.61384
0
LINE
8
BLACK
6
CONTINUOUS
10
6.59621
20
-3.61384
11
6.59996
21
-3.61572
0
LINE
8
BLACK
6
CONTINUOUS
10
6.59996
20
-3.61572
11
6.60067
21
-3.61624
0
LINE
8
BLACK
6
CONTINUOUS
10
6.60067
20
-3.61624
11
6.60073
21
-3.61627
0
LINE
8
BLACK
6
CONTINUOUS
10
6.60073
20
-3.61627
11
6.6026
21
-3.61814
0
LINE
8
BLACK
6
CONTINUOUS
10
6.6026
20
-3.61814
11
6.60311
21
-3.61887
0
LINE
8
BLACK
6
CONTINUOUS
10
6.60311
20
-3.61887
11
6.60316
21
-3.61891
0
LINE
8
BLACK
6
CONTINUOUS
10
6.60316
20
-3.61891
11
6.60503
21
-3.62266
0
LINE
8
BLACK
6
CONTINUOUS
10
6.60503
20
-3.62266
11
6.60532
21
-3.62364
0
LINE
8
BLACK
6
CONTINUOUS
10
6.60532
20
-3.62364
11
6.60528
21
-3.62381
0
LINE
8
BLACK
6
CONTINUOUS
10
6.60528
20
-3.62381
11
6.60534
21
-3.62398
0
LINE
8
BLACK
6
CONTINUOUS
10
6.60534
20
-3.62398
11
6.60534
21
-3.62773
0
LINE
8
BLACK
6
CONTINUOUS
10
6.60534
20
-3.62773
11
6.60516
21
-3.62874
0
LINE
8
BLACK
6
CONTINUOUS
10
6.60516
20
-3.62874
11
6.60505
21
-3.62888
0
LINE
8
BLACK
6
CONTINUOUS
10
6.60505
20
-3.62888
11
6.60503
21
-3.62905
0
LINE
8
BLACK
6
CONTINUOUS
10
6.60503
20
-3.62905
11
6.60316
21
-3.6328
0
LINE
8
BLACK
6
CONTINUOUS
10
6.60316
20
-3.6328
11
6.60263
21
-3.63351
0
LINE
8
BLACK
6
CONTINUOUS
10
6.60263
20
-3.63351
11
6.6026
21
-3.63357
0
LINE
8
BLACK
6
CONTINUOUS
10
6.6026
20
-3.63357
11
6.60073
21
-3.63544
0
LINE
8
BLACK
6
CONTINUOUS
10
6.60073
20
-3.63544
11
6.60001
21
-3.63595
0
LINE
8
BLACK
6
CONTINUOUS
10
6.60001
20
-3.63595
11
6.59996
21
-3.636
0
LINE
8
BLACK
6
CONTINUOUS
10
6.59996
20
-3.636
11
6.59621
21
-3.63787
0
LINE
8
BLACK
6
CONTINUOUS
10
6.59621
20
-3.63787
11
6.59523
21
-3.63816
0
LINE
8
BLACK
6
CONTINUOUS
10
6.59523
20
-3.63816
11
6.59506
21
-3.63812
0
LINE
8
BLACK
6
CONTINUOUS
10
6.59506
20
-3.63812
11
6.59489
21
-3.63818
0
LINE
8
BLACK
6
CONTINUOUS
10
6.59489
20
-3.63818
11
6.58552
21
-3.63818
0
LINE
8
BLACK
6
CONTINUOUS
10
6.58552
20
-3.63818
11
6.58465
21
-3.63803
0
LINE
8
BLACK
6
CONTINUOUS
10
6.58465
20
-3.63803
11
6.58458
21
-3.63803
0
LINE
8
BLACK
6
CONTINUOUS
10
6.58458
20
-3.63803
11
6.57896
21
-3.63616
0
LINE
8
BLACK
6
CONTINUOUS
10
6.57896
20
-3.63616
11
6.57806
21
-3.63567
0
LINE
8
BLACK
6
CONTINUOUS
10
6.57806
20
-3.63567
11
6.577
21
-3.63395
0
LINE
8
BLACK
6
CONTINUOUS
10
6.577
20
-3.63395
11
6.5773
21
-3.63195
0
LINE
8
BLACK
6
CONTINUOUS
10
6.5773
20
-3.63195
11
6.57881
21
-3.63061
0
LINE
8
BLACK
6
CONTINUOUS
10
6.57881
20
-3.63061
11
6.58083
21
-3.63055
0
LINE
8
BLACK
6
CONTINUOUS
10
6.58083
20
-3.63055
11
6.586
21
-3.63228
0
LINE
8
BLACK
6
CONTINUOUS
10
6.586
20
-3.63228
11
6.59419
21
-3.63228
0
LINE
8
BLACK
6
CONTINUOUS
10
6.59419
20
-3.63228
11
6.59689
21
-3.63093
0
LINE
8
BLACK
6
CONTINUOUS
10
6.59689
20
-3.63093
11
6.59809
21
-3.62973
0
LINE
8
BLACK
6
CONTINUOUS
10
6.59809
20
-3.62973
11
6.59944
21
-3.62703
0
LINE
8
BLACK
6
CONTINUOUS
10
6.59944
20
-3.62703
11
6.59944
21
-3.62468
0
LINE
8
BLACK
6
CONTINUOUS
10
6.59944
20
-3.62468
11
6.59809
21
-3.62198
0
LINE
8
BLACK
6
CONTINUOUS
10
6.59809
20
-3.62198
11
6.59689
21
-3.62078
0
LINE
8
BLACK
6
CONTINUOUS
10
6.59689
20
-3.62078
11
6.59386
21
-3.61927
0
LINE
8
BLACK
6
CONTINUOUS
10
6.59386
20
-3.61927
11
6.58668
21
-3.61747
0
LINE
8
BLACK
6
CONTINUOUS
10
6.58668
20
-3.61747
11
6.58621
21
-3.61726
0
LINE
8
BLACK
6
CONTINUOUS
10
6.58621
20
-3.61726
11
6.58607
21
-3.61725
0
LINE
8
BLACK
6
CONTINUOUS
10
6.58607
20
-3.61725
11
6.58232
21
-3.61537
0
LINE
8
BLACK
6
CONTINUOUS
10
6.58232
20
-3.61537
11
6.58161
21
-3.61485
0
LINE
8
BLACK
6
CONTINUOUS
10
6.58161
20
-3.61485
11
6.58155
21
-3.61482
0
LINE
8
BLACK
6
CONTINUOUS
10
6.58155
20
-3.61482
11
6.57968
21
-3.61295
0
LINE
8
BLACK
6
CONTINUOUS
10
6.57968
20
-3.61295
11
6.57917
21
-3.61222
0
LINE
8
BLACK
6
CONTINUOUS
10
6.57917
20
-3.61222
11
6.57913
21
-3.61218
0
LINE
8
BLACK
6
CONTINUOUS
10
6.57913
20
-3.61218
11
6.57725
21
-3.60843
0
LINE
8
BLACK
6
CONTINUOUS
10
6.57725
20
-3.60843
11
6.57696
21
-3.60745
0
LINE
8
BLACK
6
CONTINUOUS
10
6.57696
20
-3.60745
11
6.577
21
-3.60727
0
LINE
8
BLACK
6
CONTINUOUS
10
6.577
20
-3.60727
11
6.57694
21
-3.60711
0
LINE
8
BLACK
6
CONTINUOUS
10
6.57694
20
-3.60711
11
6.57694
21
-3.60336
0
LINE
8
BLACK
6
CONTINUOUS
10
6.57694
20
-3.60336
11
6.57712
21
-3.60235
0
LINE
8
BLACK
6
CONTINUOUS
10
6.57712
20
-3.60235
11
6.57723
21
-3.60221
0
LINE
8
BLACK
6
CONTINUOUS
10
6.57723
20
-3.60221
11
6.57725
21
-3.60204
0
LINE
8
BLACK
6
CONTINUOUS
10
6.57725
20
-3.60204
11
6.57913
21
-3.59829
0
LINE
8
BLACK
6
CONTINUOUS
10
6.57913
20
-3.59829
11
6.57965
21
-3.59758
0
LINE
8
BLACK
6
CONTINUOUS
10
6.57965
20
-3.59758
11
6.57968
21
-3.59752
0
LINE
8
BLACK
6
CONTINUOUS
10
6.57968
20
-3.59752
11
6.58155
21
-3.59565
0
LINE
8
BLACK
6
CONTINUOUS
10
6.58155
20
-3.59565
11
6.58228
21
-3.59514
0
LINE
8
BLACK
6
CONTINUOUS
10
6.58228
20
-3.59514
11
6.58232
21
-3.59509
0
LINE
8
BLACK
6
CONTINUOUS
10
6.58232
20
-3.59509
11
6.58607
21
-3.59322
0
LINE
8
BLACK
6
CONTINUOUS
10
6.58607
20
-3.59322
11
6.58705
21
-3.59293
0
LINE
8
BLACK
6
CONTINUOUS
10
6.58705
20
-3.59293
11
6.58723
21
-3.59297
0
LINE
8
BLACK
6
CONTINUOUS
10
6.58723
20
-3.59297
11
6.58739
21
-3.59291
0
LINE
8
BLACK
6
CONTINUOUS
10
6.58739
20
-3.59291
11
6.59677
21
-3.59291
0
LINE
8
BLACK
6
CONTINUOUS
10
6.59677
20
-3.59291
11
6.59764
21
-3.59306
0
LINE
8
BLACK
6
CONTINUOUS
10
5.57224
20
-3.59313
11
5.57316
21
-3.59326
0
LINE
8
BLACK
6
CONTINUOUS
10
5.57316
20
-3.59326
11
5.57322
21
-3.59333
0
LINE
8
BLACK
6
CONTINUOUS
10
5.57322
20
-3.59333
11
5.5733
21
-3.59334
0
LINE
8
BLACK
6
CONTINUOUS
10
5.5733
20
-3.59334
11
5.57388
21
-3.59407
0
LINE
8
BLACK
6
CONTINUOUS
10
5.57388
20
-3.59407
11
5.5745
21
-3.59477
0
LINE
8
BLACK
6
CONTINUOUS
10
5.5745
20
-3.59477
11
5.57451
21
-3.59486
0
LINE
8
BLACK
6
CONTINUOUS
10
5.57451
20
-3.59486
11
5.57456
21
-3.59493
0
LINE
8
BLACK
6
CONTINUOUS
10
5.57456
20
-3.59493
11
5.58768
21
-3.6343
0
LINE
8
BLACK
6
CONTINUOUS
10
5.58768
20
-3.6343
11
5.58783
21
-3.63531
0
LINE
8
BLACK
6
CONTINUOUS
10
5.58783
20
-3.63531
11
5.58709
21
-3.63719
0
LINE
8
BLACK
6
CONTINUOUS
10
5.58709
20
-3.63719
11
5.58531
21
-3.63815
0
LINE
8
BLACK
6
CONTINUOUS
10
5.58531
20
-3.63815
11
5.58333
21
-3.63774
0
LINE
8
BLACK
6
CONTINUOUS
10
5.58333
20
-3.63774
11
5.58208
21
-3.63616
0
LINE
8
BLACK
6
CONTINUOUS
10
5.58208
20
-3.63616
11
5.579
21
-3.62693
0
LINE
8
BLACK
6
CONTINUOUS
10
5.579
20
-3.62693
11
5.56451
21
-3.62693
0
LINE
8
BLACK
6
CONTINUOUS
10
5.56451
20
-3.62693
11
5.56143
21
-3.63616
0
LINE
8
BLACK
6
CONTINUOUS
10
5.56143
20
-3.63616
11
5.56095
21
-3.63706
0
LINE
8
BLACK
6
CONTINUOUS
10
5.56095
20
-3.63706
11
5.55923
21
-3.63812
0
LINE
8
BLACK
6
CONTINUOUS
10
5.55923
20
-3.63812
11
5.55723
21
-3.63783
0
LINE
8
BLACK
6
CONTINUOUS
10
5.55723
20
-3.63783
11
5.55589
21
-3.63631
0
LINE
8
BLACK
6
CONTINUOUS
10
5.55589
20
-3.63631
11
5.55583
21
-3.6343
0
LINE
8
BLACK
6
CONTINUOUS
10
5.55583
20
-3.6343
11
5.56896
21
-3.59493
0
LINE
8
BLACK
6
CONTINUOUS
10
5.56896
20
-3.59493
11
5.56944
21
-3.59402
0
LINE
8
BLACK
6
CONTINUOUS
10
5.56944
20
-3.59402
11
5.56952
21
-3.59398
0
LINE
8
BLACK
6
CONTINUOUS
10
5.56952
20
-3.59398
11
5.56955
21
-3.5939
0
LINE
8
BLACK
6
CONTINUOUS
10
5.56955
20
-3.5939
11
5.57037
21
-3.59346
0
LINE
8
BLACK
6
CONTINUOUS
10
5.57037
20
-3.59346
11
5.57116
21
-3.59297
0
LINE
8
BLACK
6
CONTINUOUS
10
5.57116
20
-3.59297
11
5.57125
21
-3.59298
0
LINE
8
BLACK
6
CONTINUOUS
10
5.57125
20
-3.59298
11
5.57132
21
-3.59294
0
LINE
8
BLACK
6
CONTINUOUS
10
5.57132
20
-3.59294
11
5.57224
21
-3.59313
0
LINE
8
BLACK
6
CONTINUOUS
10
5.56648
20
-3.62103
11
5.57703
21
-3.62103
0
LINE
8
BLACK
6
CONTINUOUS
10
5.57703
20
-3.62103
11
5.57176
21
-3.6052
0
LINE
8
BLACK
6
CONTINUOUS
10
5.57176
20
-3.6052
11
5.56648
21
-3.62103
0
LINE
8
BLACK
6
CONTINUOUS
10
6.67224
20
-3.59313
11
6.67316
21
-3.59326
0
LINE
8
BLACK
6
CONTINUOUS
10
6.67316
20
-3.59326
11
6.67322
21
-3.59333
0
LINE
8
BLACK
6
CONTINUOUS
10
6.67322
20
-3.59333
11
6.6733
21
-3.59334
0
LINE
8
BLACK
6
CONTINUOUS
10
6.6733
20
-3.59334
11
6.67388
21
-3.59407
0
LINE
8
BLACK
6
CONTINUOUS
10
6.67388
20
-3.59407
11
6.6745
21
-3.59477
0
LINE
8
BLACK
6
CONTINUOUS
10
6.6745
20
-3.59477
11
6.6745
21
-3.59486
0
LINE
8
BLACK
6
CONTINUOUS
10
6.6745
20
-3.59486
11
6.67456
21
-3.59493
0
LINE
8
BLACK
6
CONTINUOUS
10
6.67456
20
-3.59493
11
6.68768
21
-3.6343
0
LINE
8
BLACK
6
CONTINUOUS
10
6.68768
20
-3.6343
11
6.68783
21
-3.63531
0
LINE
8
BLACK
6
CONTINUOUS
10
6.68783
20
-3.63531
11
6.68709
21
-3.63719
0
LINE
8
BLACK
6
CONTINUOUS
10
6.68709
20
-3.63719
11
6.68531
21
-3.63815
0
LINE
8
BLACK
6
CONTINUOUS
10
6.68531
20
-3.63815
11
6.68333
21
-3.63774
0
LINE
8
BLACK
6
CONTINUOUS
10
6.68333
20
-3.63774
11
6.68208
21
-3.63616
0
LINE
8
BLACK
6
CONTINUOUS
10
6.68208
20
-3.63616
11
6.679
21
-3.62693
0
LINE
8
BLACK
6
CONTINUOUS
10
6.679
20
-3.62693
11
6.66451
21
-3.62693
0
LINE
8
BLACK
6
CONTINUOUS
10
6.66451
20
-3.62693
11
6.66143
21
-3.63616
0
LINE
8
BLACK
6
CONTINUOUS
10
6.66143
20
-3.63616
11
6.66095
21
-3.63706
0
LINE
8
BLACK
6
CONTINUOUS
10
6.66095
20
-3.63706
11
6.65923
21
-3.63812
0
LINE
8
BLACK
6
CONTINUOUS
10
6.65923
20
-3.63812
11
6.65723
21
-3.63783
0
LINE
8
BLACK
6
CONTINUOUS
10
6.65723
20
-3.63783
11
6.65589
21
-3.63631
0
LINE
8
BLACK
6
CONTINUOUS
10
6.65589
20
-3.63631
11
6.65583
21
-3.6343
0
LINE
8
BLACK
6
CONTINUOUS
10
6.65583
20
-3.6343
11
6.66896
21
-3.59493
0
LINE
8
BLACK
6
CONTINUOUS
10
6.66896
20
-3.59493
11
6.66944
21
-3.59402
0
LINE
8
BLACK
6
CONTINUOUS
10
6.66944
20
-3.59402
11
6.66952
21
-3.59398
0
LINE
8
BLACK
6
CONTINUOUS
10
6.66952
20
-3.59398
11
6.66955
21
-3.5939
0
LINE
8
BLACK
6
CONTINUOUS
10
6.66955
20
-3.5939
11
6.67037
21
-3.59346
0
LINE
8
BLACK
6
CONTINUOUS
10
6.67037
20
-3.59346
11
6.67116
21
-3.59297
0
LINE
8
BLACK
6
CONTINUOUS
10
6.67116
20
-3.59297
11
6.67125
21
-3.59298
0
LINE
8
BLACK
6
CONTINUOUS
10
6.67125
20
-3.59298
11
6.67132
21
-3.59294
0
LINE
8
BLACK
6
CONTINUOUS
10
6.67132
20
-3.59294
11
6.67224
21
-3.59313
0
LINE
8
BLACK
6
CONTINUOUS
10
6.66648
20
-3.62103
11
6.67703
21
-3.62103
0
LINE
8
BLACK
6
CONTINUOUS
10
6.67703
20
-3.62103
11
6.67176
21
-3.6052
0
LINE
8
BLACK
6
CONTINUOUS
10
6.67176
20
-3.6052
11
6.66648
21
-3.62103
0
LINE
8
BLACK
6
CONTINUOUS
10
5.54563
20
-3.59302
11
5.54602
21
-3.59295
0
LINE
8
BLACK
6
CONTINUOUS
10
5.54602
20
-3.59295
11
5.54658
21
-3.59327
0
LINE
8
BLACK
6
CONTINUOUS
10
5.54658
20
-3.59327
11
5.5472
21
-3.59344
0
LINE
8
BLACK
6
CONTINUOUS
10
5.5472
20
-3.59344
11
5.54743
21
-3.59376
0
LINE
8
BLACK
6
CONTINUOUS
10
5.54743
20
-3.59376
11
5.54777
21
-3.59396
0
LINE
8
BLACK
6
CONTINUOUS
10
5.54777
20
-3.59396
11
5.54799
21
-3.59457
0
LINE
8
BLACK
6
CONTINUOUS
10
5.54799
20
-3.59457
11
5.54836
21
-3.5951
0
LINE
8
BLACK
6
CONTINUOUS
10
5.54836
20
-3.5951
11
5.54833
21
-3.59549
0
LINE
8
BLACK
6
CONTINUOUS
10
5.54833
20
-3.59549
11
5.54846
21
-3.59586
0
LINE
8
BLACK
6
CONTINUOUS
10
5.54846
20
-3.59586
11
5.54846
21
-3.63523
0
LINE
8
BLACK
6
CONTINUOUS
10
5.54846
20
-3.63523
11
5.54828
21
-3.63624
0
LINE
8
BLACK
6
CONTINUOUS
10
5.54828
20
-3.63624
11
5.54699
21
-3.63779
0
LINE
8
BLACK
6
CONTINUOUS
10
5.54699
20
-3.63779
11
5.545
21
-3.63814
0
LINE
8
BLACK
6
CONTINUOUS
10
5.545
20
-3.63814
11
5.54325
21
-3.63713
0
LINE
8
BLACK
6
CONTINUOUS
10
5.54325
20
-3.63713
11
5.54256
21
-3.63523
0
LINE
8
BLACK
6
CONTINUOUS
10
5.54256
20
-3.63523
11
5.54256
21
-3.60917
0
LINE
8
BLACK
6
CONTINUOUS
10
5.54256
20
-3.60917
11
5.53506
21
-3.62523
0
LINE
8
BLACK
6
CONTINUOUS
10
5.53506
20
-3.62523
11
5.53484
21
-3.62555
0
LINE
8
BLACK
6
CONTINUOUS
10
5.53484
20
-3.62555
11
5.53481
21
-3.62567
0
LINE
8
BLACK
6
CONTINUOUS
10
5.53481
20
-3.62567
11
5.5347
21
-3.62575
0
LINE
8
BLACK
6
CONTINUOUS
10
5.5347
20
-3.62575
11
5.53447
21
-3.62607
0
LINE
8
BLACK
6
CONTINUOUS
10
5.53447
20
-3.62607
11
5.53378
21
-3.62639
0
LINE
8
BLACK
6
CONTINUOUS
10
5.53378
20
-3.62639
11
5.53315
21
-3.62683
0
LINE
8
BLACK
6
CONTINUOUS
10
5.53315
20
-3.62683
11
5.53289
21
-3.62681
0
LINE
8
BLACK
6
CONTINUOUS
10
5.53289
20
-3.62681
11
5.53264
21
-3.62692
0
LINE
8
BLACK
6
CONTINUOUS
10
5.53264
20
-3.62692
11
5.5319
21
-3.62672
0
LINE
8
BLACK
6
CONTINUOUS
10
5.5319
20
-3.62672
11
5.53114
21
-3.62666
0
LINE
8
BLACK
6
CONTINUOUS
10
5.53114
20
-3.62666
11
5.53095
21
-3.62647
0
LINE
8
BLACK
6
CONTINUOUS
10
5.53095
20
-3.62647
11
5.53069
21
-3.6264
0
LINE
8
BLACK
6
CONTINUOUS
10
5.53069
20
-3.6264
11
5.53025
21
-3.62577
0
LINE
8
BLACK
6
CONTINUOUS
10
5.53025
20
-3.62577
11
5.52971
21
-3.62523
0
LINE
8
BLACK
6
CONTINUOUS
10
5.52971
20
-3.62523
11
5.52222
21
-3.60917
0
LINE
8
BLACK
6
CONTINUOUS
10
5.52222
20
-3.60917
11
5.52222
21
-3.63523
0
LINE
8
BLACK
6
CONTINUOUS
10
5.52222
20
-3.63523
11
5.52204
21
-3.63624
0
LINE
8
BLACK
6
CONTINUOUS
10
5.52204
20
-3.63624
11
5.52074
21
-3.63779
0
LINE
8
BLACK
6
CONTINUOUS
10
5.52074
20
-3.63779
11
5.51875
21
-3.63814
0
LINE
8
BLACK
6
CONTINUOUS
10
5.51875
20
-3.63814
11
5.517
21
-3.63713
0
LINE
8
BLACK
6
CONTINUOUS
10
5.517
20
-3.63713
11
5.51631
21
-3.63523
0
LINE
8
BLACK
6
CONTINUOUS
10
5.51631
20
-3.63523
11
5.51631
21
-3.59586
0
LINE
8
BLACK
6
CONTINUOUS
10
5.51631
20
-3.59586
11
5.51649
21
-3.59485
0
LINE
8
BLACK
6
CONTINUOUS
10
5.51649
20
-3.59485
11
5.51674
21
-3.59455
0
LINE
8
BLACK
6
CONTINUOUS
10
5.51674
20
-3.59455
11
5.51684
21
-3.59417
0
LINE
8
BLACK
6
CONTINUOUS
10
5.51684
20
-3.59417
11
5.51737
21
-3.5938
0
LINE
8
BLACK
6
CONTINUOUS
10
5.51737
20
-3.5938
11
5.51779
21
-3.5933
0
LINE
8
BLACK
6
CONTINUOUS
10
5.51779
20
-3.5933
11
5.51818
21
-3.59323
0
LINE
8
BLACK
6
CONTINUOUS
10
5.51818
20
-3.59323
11
5.5185
21
-3.59301
0
LINE
8
BLACK
6
CONTINUOUS
10
5.5185
20
-3.59301
11
5.51914
21
-3.59306
0
LINE
8
BLACK
6
CONTINUOUS
10
5.51914
20
-3.59306
11
5.51978
21
-3.59295
0
LINE
8
BLACK
6
CONTINUOUS
10
5.51978
20
-3.59295
11
5.52012
21
-3.59315
0
LINE
8
BLACK
6
CONTINUOUS
10
5.52012
20
-3.59315
11
5.52051
21
-3.59318
0
LINE
8
BLACK
6
CONTINUOUS
10
5.52051
20
-3.59318
11
5.52097
21
-3.59364
0
LINE
8
BLACK
6
CONTINUOUS
10
5.52097
20
-3.59364
11
5.52153
21
-3.59396
0
LINE
8
BLACK
6
CONTINUOUS
10
5.52153
20
-3.59396
11
5.52166
21
-3.59433
0
LINE
8
BLACK
6
CONTINUOUS
10
5.52166
20
-3.59433
11
5.52194
21
-3.59461
0
LINE
8
BLACK
6
CONTINUOUS
10
5.52194
20
-3.59461
11
5.53239
21
-3.617
0
LINE
8
BLACK
6
CONTINUOUS
10
5.53239
20
-3.617
11
5.54283
21
-3.59461
0
LINE
8
BLACK
6
CONTINUOUS
10
5.54283
20
-3.59461
11
5.54342
21
-3.59377
0
LINE
8
BLACK
6
CONTINUOUS
10
5.54342
20
-3.59377
11
5.54378
21
-3.5936
0
LINE
8
BLACK
6
CONTINUOUS
10
5.54378
20
-3.5936
11
5.54403
21
-3.5933
0
LINE
8
BLACK
6
CONTINUOUS
10
5.54403
20
-3.5933
11
5.54467
21
-3.59319
0
LINE
8
BLACK
6
CONTINUOUS
10
5.54467
20
-3.59319
11
5.54525
21
-3.59292
0
LINE
8
BLACK
6
CONTINUOUS
10
5.54525
20
-3.59292
11
5.54563
21
-3.59302
0
LINE
8
BLACK
6
CONTINUOUS
10
6.64563
20
-3.59302
11
6.64602
21
-3.59295
0
LINE
8
BLACK
6
CONTINUOUS
10
6.64602
20
-3.59295
11
6.64658
21
-3.59327
0
LINE
8
BLACK
6
CONTINUOUS
10
6.64658
20
-3.59327
11
6.6472
21
-3.59344
0
LINE
8
BLACK
6
CONTINUOUS
10
6.6472
20
-3.59344
11
6.64743
21
-3.59376
0
LINE
8
BLACK
6
CONTINUOUS
10
6.64743
20
-3.59376
11
6.64777
21
-3.59396
0
LINE
8
BLACK
6
CONTINUOUS
10
6.64777
20
-3.59396
11
6.64799
21
-3.59457
0
LINE
8
BLACK
6
CONTINUOUS
10
6.64799
20
-3.59457
11
6.64836
21
-3.5951
0
LINE
8
BLACK
6
CONTINUOUS
10
6.64836
20
-3.5951
11
6.64833
21
-3.59549
0
LINE
8
BLACK
6
CONTINUOUS
10
6.64833
20
-3.59549
11
6.64846
21
-3.59586
0
LINE
8
BLACK
6
CONTINUOUS
10
6.64846
20
-3.59586
11
6.64846
21
-3.63523
0
LINE
8
BLACK
6
CONTINUOUS
10
6.64846
20
-3.63523
11
6.64828
21
-3.63624
0
LINE
8
BLACK
6
CONTINUOUS
10
6.64828
20
-3.63624
11
6.64699
21
-3.63779
0
LINE
8
BLACK
6
CONTINUOUS
10
6.64699
20
-3.63779
11
6.645
21
-3.63814
0
LINE
8
BLACK
6
CONTINUOUS
10
6.645
20
-3.63814
11
6.64325
21
-3.63713
0
LINE
8
BLACK
6
CONTINUOUS
10
6.64325
20
-3.63713
11
6.64256
21
-3.63523
0
LINE
8
BLACK
6
CONTINUOUS
10
6.64256
20
-3.63523
11
6.64256
21
-3.60917
0
LINE
8
BLACK
6
CONTINUOUS
10
6.64256
20
-3.60917
11
6.63506
21
-3.62523
0
LINE
8
BLACK
6
CONTINUOUS
10
6.63506
20
-3.62523
11
6.63484
21
-3.62555
0
LINE
8
BLACK
6
CONTINUOUS
10
6.63484
20
-3.62555
11
6.63481
21
-3.62567
0
LINE
8
BLACK
6
CONTINUOUS
10
6.63481
20
-3.62567
11
6.6347
21
-3.62575
0
LINE
8
BLACK
6
CONTINUOUS
10
6.6347
20
-3.62575
11
6.63447
21
-3.62607
0
LINE
8
BLACK
6
CONTINUOUS
10
6.63447
20
-3.62607
11
6.63378
21
-3.62639
0
LINE
8
BLACK
6
CONTINUOUS
10
6.63378
20
-3.62639
11
6.63315
21
-3.62683
0
LINE
8
BLACK
6
CONTINUOUS
10
6.63315
20
-3.62683
11
6.63289
21
-3.62681
0
LINE
8
BLACK
6
CONTINUOUS
10
6.63289
20
-3.62681
11
6.63264
21
-3.62692
0
LINE
8
BLACK
6
CONTINUOUS
10
6.63264
20
-3.62692
11
6.6319
21
-3.62672
0
LINE
8
BLACK
6
CONTINUOUS
10
6.6319
20
-3.62672
11
6.63114
21
-3.62666
0
LINE
8
BLACK
6
CONTINUOUS
10
6.63114
20
-3.62666
11
6.63095
21
-3.62647
0
LINE
8
BLACK
6
CONTINUOUS
10
6.63095
20
-3.62647
11
6.63069
21
-3.6264
0
LINE
8
BLACK
6
CONTINUOUS
10
6.63069
20
-3.6264
11
6.63025
21
-3.62577
0
LINE
8
BLACK
6
CONTINUOUS
10
6.63025
20
-3.62577
11
6.62971
21
-3.62523
0
LINE
8
BLACK
6
CONTINUOUS
10
6.62971
20
-3.62523
11
6.62222
21
-3.60917
0
LINE
8
BLACK
6
CONTINUOUS
10
6.62222
20
-3.60917
11
6.62222
21
-3.63523
0
LINE
8
BLACK
6
CONTINUOUS
10
6.62222
20
-3.63523
11
6.62204
21
-3.63624
0
LINE
8
BLACK
6
CONTINUOUS
10
6.62204
20
-3.63624
11
6.62074
21
-3.63779
0
LINE
8
BLACK
6
CONTINUOUS
10
6.62074
20
-3.63779
11
6.61875
21
-3.63814
0
LINE
8
BLACK
6
CONTINUOUS
10
6.61875
20
-3.63814
11
6.617
21
-3.63713
0
LINE
8
BLACK
6
CONTINUOUS
10
6.617
20
-3.63713
11
6.61631
21
-3.63523
0
LINE
8
BLACK
6
CONTINUOUS
10
6.61631
20
-3.63523
11
6.61631
21
-3.59586
0
LINE
8
BLACK
6
CONTINUOUS
10
6.61631
20
-3.59586
11
6.61649
21
-3.59485
0
LINE
8
BLACK
6
CONTINUOUS
10
6.61649
20
-3.59485
11
6.61674
21
-3.59455
0
LINE
8
BLACK
6
CONTINUOUS
10
6.61674
20
-3.59455
11
6.61684
21
-3.59417
0
LINE
8
BLACK
6
CONTINUOUS
10
6.61684
20
-3.59417
11
6.61737
21
-3.5938
0
LINE
8
BLACK
6
CONTINUOUS
10
6.61737
20
-3.5938
11
6.61779
21
-3.5933
0
LINE
8
BLACK
6
CONTINUOUS
10
6.61779
20
-3.5933
11
6.61818
21
-3.59323
0
LINE
8
BLACK
6
CONTINUOUS
10
6.61818
20
-3.59323
11
6.6185
21
-3.59301
0
LINE
8
BLACK
6
CONTINUOUS
10
6.6185
20
-3.59301
11
6.61914
21
-3.59306
0
LINE
8
BLACK
6
CONTINUOUS
10
6.61914
20
-3.59306
11
6.61978
21
-3.59295
0
LINE
8
BLACK
6
CONTINUOUS
10
6.61978
20
-3.59295
11
6.62012
21
-3.59315
0
LINE
8
BLACK
6
CONTINUOUS
10
6.62012
20
-3.59315
11
6.62051
21
-3.59318
0
LINE
8
BLACK
6
CONTINUOUS
10
6.62051
20
-3.59318
11
6.62097
21
-3.59364
0
LINE
8
BLACK
6
CONTINUOUS
10
6.62097
20
-3.59364
11
6.62153
21
-3.59396
0
LINE
8
BLACK
6
CONTINUOUS
10
6.62153
20
-3.59396
11
6.62166
21
-3.59433
0
LINE
8
BLACK
6
CONTINUOUS
10
6.62166
20
-3.59433
11
6.62194
21
-3.59461
0
LINE
8
BLACK
6
CONTINUOUS
10
6.62194
20
-3.59461
11
6.63239
21
-3.617
0
LINE
8
BLACK
6
CONTINUOUS
10
6.63239
20
-3.617
11
6.64283
21
-3.59461
0
LINE
8
BLACK
6
CONTINUOUS
10
6.64283
20
-3.59461
11
6.64342
21
-3.59377
0
LINE
8
BLACK
6
CONTINUOUS
10
6.64342
20
-3.59377
11
6.64378
21
-3.5936
0
LINE
8
BLACK
6
CONTINUOUS
10
6.64378
20
-3.5936
11
6.64403
21
-3.5933
0
LINE
8
BLACK
6
CONTINUOUS
10
6.64403
20
-3.5933
11
6.64467
21
-3.59319
0
LINE
8
BLACK
6
CONTINUOUS
10
6.64467
20
-3.59319
11
6.64525
21
-3.59292
0
LINE
8
BLACK
6
CONTINUOUS
10
6.64525
20
-3.59292
11
6.64563
21
-3.59302
0
LINE
8
BLACK
6
CONTINUOUS
10
5.51965
20
-3.39514
11
5.52034
21
-3.39704
0
LINE
8
BLACK
6
CONTINUOUS
10
5.52034
20
-3.39704
11
5.52034
21
-3.42516
0
LINE
8
BLACK
6
CONTINUOUS
10
5.52034
20
-3.42516
11
5.52019
21
-3.42603
0
LINE
8
BLACK
6
CONTINUOUS
10
5.52019
20
-3.42603
11
5.52019
21
-3.4261
0
LINE
8
BLACK
6
CONTINUOUS
10
5.52019
20
-3.4261
11
5.51831
21
-3.43172
0
LINE
8
BLACK
6
CONTINUOUS
10
5.51831
20
-3.43172
11
5.51783
21
-3.43262
0
LINE
8
BLACK
6
CONTINUOUS
10
5.51783
20
-3.43262
11
5.51768
21
-3.43271
0
LINE
8
BLACK
6
CONTINUOUS
10
5.51768
20
-3.43271
11
5.5176
21
-3.43287
0
LINE
8
BLACK
6
CONTINUOUS
10
5.5176
20
-3.43287
11
5.51385
21
-3.43662
0
LINE
8
BLACK
6
CONTINUOUS
10
5.51385
20
-3.43662
11
5.51301
21
-3.43721
0
LINE
8
BLACK
6
CONTINUOUS
10
5.51301
20
-3.43721
11
5.51284
21
-3.43723
0
LINE
8
BLACK
6
CONTINUOUS
10
5.51284
20
-3.43723
11
5.5127
21
-3.43734
0
LINE
8
BLACK
6
CONTINUOUS
10
5.5127
20
-3.43734
11
5.50707
21
-3.43921
0
LINE
8
BLACK
6
CONTINUOUS
10
5.50707
20
-3.43921
11
5.5062
21
-3.43934
0
LINE
8
BLACK
6
CONTINUOUS
10
5.5062
20
-3.43934
11
5.50614
21
-3.43936
0
LINE
8
BLACK
6
CONTINUOUS
10
5.50614
20
-3.43936
11
5.50239
21
-3.43936
0
LINE
8
BLACK
6
CONTINUOUS
10
5.50239
20
-3.43936
11
5.50138
21
-3.43918
0
LINE
8
BLACK
6
CONTINUOUS
10
5.50138
20
-3.43918
11
5.49983
21
-3.43789
0
LINE
8
BLACK
6
CONTINUOUS
10
5.49983
20
-3.43789
11
5.49948
21
-3.4359
0
LINE
8
BLACK
6
CONTINUOUS
10
5.49948
20
-3.4359
11
5.50049
21
-3.43415
0
LINE
8
BLACK
6
CONTINUOUS
10
5.50049
20
-3.43415
11
5.50239
21
-3.43346
0
LINE
8
BLACK
6
CONTINUOUS
10
5.50239
20
-3.43346
11
5.50566
21
-3.43346
0
LINE
8
BLACK
6
CONTINUOUS
10
5.50566
20
-3.43346
11
5.51017
21
-3.43195
0
LINE
8
BLACK
6
CONTINUOUS
10
5.51017
20
-3.43195
11
5.51293
21
-3.42919
0
LINE
8
BLACK
6
CONTINUOUS
10
5.51293
20
-3.42919
11
5.51444
21
-3.42468
0
LINE
8
BLACK
6
CONTINUOUS
10
5.51444
20
-3.42468
11
5.51444
21
-3.39704
0
LINE
8
BLACK
6
CONTINUOUS
10
5.51444
20
-3.39704
11
5.51461
21
-3.39603
0
LINE
8
BLACK
6
CONTINUOUS
10
5.51461
20
-3.39603
11
5.51591
21
-3.39448
0
LINE
8
BLACK
6
CONTINUOUS
10
5.51591
20
-3.39448
11
5.5179
21
-3.39413
0
LINE
8
BLACK
6
CONTINUOUS
10
5.5179
20
-3.39413
11
5.51965
21
-3.39514
0
LINE
8
BLACK
6
CONTINUOUS
10
5.55027
20
-3.39427
11
5.5504
21
-3.39438
0
LINE
8
BLACK
6
CONTINUOUS
10
5.5504
20
-3.39438
11
5.55058
21
-3.3944
0
LINE
8
BLACK
6
CONTINUOUS
10
5.55058
20
-3.3944
11
5.55433
21
-3.39627
0
LINE
8
BLACK
6
CONTINUOUS
10
5.55433
20
-3.39627
11
5.55504
21
-3.3968
0
LINE
8
BLACK
6
CONTINUOUS
10
5.55504
20
-3.3968
11
5.5551
21
-3.39683
0
LINE
8
BLACK
6
CONTINUOUS
10
5.5551
20
-3.39683
11
5.55697
21
-3.3987
0
LINE
8
BLACK
6
CONTINUOUS
10
5.55697
20
-3.3987
11
5.55748
21
-3.39942
0
LINE
8
BLACK
6
CONTINUOUS
10
5.55748
20
-3.39942
11
5.55752
21
-3.39947
0
LINE
8
BLACK
6
CONTINUOUS
10
5.55752
20
-3.39947
11
5.5594
21
-3.40322
0
LINE
8
BLACK
6
CONTINUOUS
10
5.5594
20
-3.40322
11
5.55969
21
-3.4042
0
LINE
8
BLACK
6
CONTINUOUS
10
5.55969
20
-3.4042
11
5.55965
21
-3.40437
0
LINE
8
BLACK
6
CONTINUOUS
10
5.55965
20
-3.40437
11
5.55971
21
-3.40454
0
LINE
8
BLACK
6
CONTINUOUS
10
5.55971
20
-3.40454
11
5.55971
21
-3.40829
0
LINE
8
BLACK
6
CONTINUOUS
10
5.55971
20
-3.40829
11
5.55956
21
-3.40916
0
LINE
8
BLACK
6
CONTINUOUS
10
5.55956
20
-3.40916
11
5.55956
21
-3.40922
0
LINE
8
BLACK
6
CONTINUOUS
10
5.55956
20
-3.40922
11
5.55768
21
-3.41485
0
LINE
8
BLACK
6
CONTINUOUS
10
5.55768
20
-3.41485
11
5.5572
21
-3.41575
0
LINE
8
BLACK
6
CONTINUOUS
10
5.5572
20
-3.41575
11
5.55705
21
-3.41584
0
LINE
8
BLACK
6
CONTINUOUS
10
5.55705
20
-3.41584
11
5.55697
21
-3.416
0
LINE
8
BLACK
6
CONTINUOUS
10
5.55697
20
-3.416
11
5.53952
21
-3.43346
0
LINE
8
BLACK
6
CONTINUOUS
10
5.53952
20
-3.43346
11
5.55676
21
-3.43346
0
LINE
8
BLACK
6
CONTINUOUS
10
5.55676
20
-3.43346
11
5.55777
21
-3.43364
0
LINE
8
BLACK
6
CONTINUOUS
10
5.55777
20
-3.43364
11
5.55932
21
-3.43493
0
LINE
8
BLACK
6
CONTINUOUS
10
5.55932
20
-3.43493
11
5.55967
21
-3.43692
0
LINE
8
BLACK
6
CONTINUOUS
10
5.55967
20
-3.43692
11
5.55866
21
-3.43867
0
LINE
8
BLACK
6
CONTINUOUS
10
5.55866
20
-3.43867
11
5.55676
21
-3.43936
0
LINE
8
BLACK
6
CONTINUOUS
10
5.55676
20
-3.43936
11
5.53239
21
-3.43936
0
LINE
8
BLACK
6
CONTINUOUS
10
5.53239
20
-3.43936
11
5.53175
21
-3.43925
0
LINE
8
BLACK
6
CONTINUOUS
10
5.53175
20
-3.43925
11
5.53162
21
-3.43926
0
LINE
8
BLACK
6
CONTINUOUS
10
5.53162
20
-3.43926
11
5.53156
21
-3.43922
0
LINE
8
BLACK
6
CONTINUOUS
10
5.53156
20
-3.43922
11
5.53138
21
-3.43918
0
LINE
8
BLACK
6
CONTINUOUS
10
5.53138
20
-3.43918
11
5.5307
21
-3.43861
0
LINE
8
BLACK
6
CONTINUOUS
10
5.5307
20
-3.43861
11
5.52997
21
-3.4381
0
LINE
8
BLACK
6
CONTINUOUS
10
5.52997
20
-3.4381
11
5.52993
21
-3.43797
0
LINE
8
BLACK
6
CONTINUOUS
10
5.52993
20
-3.43797
11
5.52983
21
-3.43789
0
LINE
8
BLACK
6
CONTINUOUS
10
5.52983
20
-3.43789
11
5.52968
21
-3.43701
0
LINE
8
BLACK
6
CONTINUOUS
10
5.52968
20
-3.43701
11
5.52945
21
-3.43615
0
LINE
8
BLACK
6
CONTINUOUS
10
5.52945
20
-3.43615
11
5.5295
21
-3.43603
0
LINE
8
BLACK
6
CONTINUOUS
10
5.5295
20
-3.43603
11
5.52948
21
-3.4359
0
LINE
8
BLACK
6
CONTINUOUS
10
5.52948
20
-3.4359
11
5.52992
21
-3.43513
0
LINE
8
BLACK
6
CONTINUOUS
10
5.52992
20
-3.43513
11
5.5303
21
-3.43432
0
LINE
8
BLACK
6
CONTINUOUS
10
5.5303
20
-3.43432
11
5.5523
21
-3.41232
0
LINE
8
BLACK
6
CONTINUOUS
10
5.5523
20
-3.41232
11
5.55381
21
-3.40781
0
LINE
8
BLACK
6
CONTINUOUS
10
5.55381
20
-3.40781
11
5.55381
21
-3.40524
0
LINE
8
BLACK
6
CONTINUOUS
10
5.55381
20
-3.40524
11
5.55246
21
-3.40254
0
LINE
8
BLACK
6
CONTINUOUS
10
5.55246
20
-3.40254
11
5.55126
21
-3.40134
0
LINE
8
BLACK
6
CONTINUOUS
10
5.55126
20
-3.40134
11
5.54856
21
-3.39999
0
LINE
8
BLACK
6
CONTINUOUS
10
5.54856
20
-3.39999
11
5.54058
21
-3.39999
0
LINE
8
BLACK
6
CONTINUOUS
10
5.54058
20
-3.39999
11
5.53789
21
-3.40134
0
LINE
8
BLACK
6
CONTINUOUS
10
5.53789
20
-3.40134
11
5.53635
21
-3.40288
0
LINE
8
BLACK
6
CONTINUOUS
10
5.53635
20
-3.40288
11
5.53551
21
-3.40347
0
LINE
8
BLACK
6
CONTINUOUS
10
5.53551
20
-3.40347
11
5.5335
21
-3.40364
0
LINE
8
BLACK
6
CONTINUOUS
10
5.5335
20
-3.40364
11
5.53184
21
-3.40248
0
LINE
8
BLACK
6
CONTINUOUS
10
5.53184
20
-3.40248
11
5.53132
21
-3.40053
0
LINE
8
BLACK
6
CONTINUOUS
10
5.53132
20
-3.40053
11
5.53217
21
-3.3987
0
LINE
8
BLACK
6
CONTINUOUS
10
5.53217
20
-3.3987
11
5.53405
21
-3.39683
0
LINE
8
BLACK
6
CONTINUOUS
10
5.53405
20
-3.39683
11
5.53477
21
-3.39632
0
LINE
8
BLACK
6
CONTINUOUS
10
5.53477
20
-3.39632
11
5.53482
21
-3.39627
0
LINE
8
BLACK
6
CONTINUOUS
10
5.53482
20
-3.39627
11
5.53857
21
-3.3944
0
LINE
8
BLACK
6
CONTINUOUS
10
5.53857
20
-3.3944
11
5.53955
21
-3.39411
0
LINE
8
BLACK
6
CONTINUOUS
10
5.53955
20
-3.39411
11
5.53972
21
-3.39415
0
LINE
8
BLACK
6
CONTINUOUS
10
5.53972
20
-3.39415
11
5.53989
21
-3.39409
0
LINE
8
BLACK
6
CONTINUOUS
10
5.53989
20
-3.39409
11
5.54926
21
-3.39409
0
LINE
8
BLACK
6
CONTINUOUS
10
5.54926
20
-3.39409
11
5.55027
21
-3.39427
0
LINE
8
BLACK
6
CONTINUOUS
10
5.54932
20
-3.31989
11
5.56154
21
-3.32302
0
LINE
8
BLACK
6
CONTINUOUS
10
5.56154
20
-3.32302
11
5.57326
21
-3.32767
0
LINE
8
BLACK
6
CONTINUOUS
10
5.57326
20
-3.32767
11
5.58431
21
-3.33374
0
LINE
8
BLACK
6
CONTINUOUS
10
5.58431
20
-3.33374
11
5.59451
21
-3.34115
0
LINE
8
BLACK
6
CONTINUOUS
10
5.59451
20
-3.34115
11
5.6037
21
-3.34978
0
LINE
8
BLACK
6
CONTINUOUS
10
5.6037
20
-3.34978
11
5.61173
21
-3.35949
0
LINE
8
BLACK
6
CONTINUOUS
10
5.61173
20
-3.35949
11
5.61849
21
-3.37014
0
LINE
8
BLACK
6
CONTINUOUS
10
5.61849
20
-3.37014
11
5.62386
21
-3.38155
0
LINE
8
BLACK
6
CONTINUOUS
10
5.62386
20
-3.38155
11
5.62775
21
-3.39354
0
LINE
8
BLACK
6
CONTINUOUS
10
5.62775
20
-3.39354
11
5.63011
21
-3.40592
0
LINE
8
BLACK
6
CONTINUOUS
10
5.63011
20
-3.40592
11
5.63091
21
-3.4185
0
LINE
8
BLACK
6
CONTINUOUS
10
5.63091
20
-3.4185
11
5.63011
21
-3.43109
0
LINE
8
BLACK
6
CONTINUOUS
10
5.63011
20
-3.43109
11
5.62775
21
-3.44347
0
LINE
8
BLACK
6
CONTINUOUS
10
5.62775
20
-3.44347
11
5.62386
21
-3.45546
0
LINE
8
BLACK
6
CONTINUOUS
10
5.62386
20
-3.45546
11
5.61849
21
-3.46687
0
LINE
8
BLACK
6
CONTINUOUS
10
5.61849
20
-3.46687
11
5.61173
21
-3.47751
0
LINE
8
BLACK
6
CONTINUOUS
10
5.61173
20
-3.47751
11
5.6037
21
-3.48723
0
LINE
8
BLACK
6
CONTINUOUS
10
5.6037
20
-3.48723
11
5.59451
21
-3.49586
0
LINE
8
BLACK
6
CONTINUOUS
10
5.59451
20
-3.49586
11
5.58431
21
-3.50327
0
LINE
8
BLACK
6
CONTINUOUS
10
5.58431
20
-3.50327
11
5.57326
21
-3.50934
0
LINE
8
BLACK
6
CONTINUOUS
10
5.57326
20
-3.50934
11
5.56154
21
-3.51398
0
LINE
8
BLACK
6
CONTINUOUS
10
5.56154
20
-3.51398
11
5.54932
21
-3.51712
0
LINE
8
BLACK
6
CONTINUOUS
10
5.54932
20
-3.51712
11
5.53682
21
-3.5187
0
LINE
8
BLACK
6
CONTINUOUS
10
5.53682
20
-3.5187
11
5.52421
21
-3.5187
0
LINE
8
BLACK
6
CONTINUOUS
10
5.52421
20
-3.5187
11
5.5117
21
-3.51712
0
LINE
8
BLACK
6
CONTINUOUS
10
5.5117
20
-3.51712
11
5.49949
21
-3.51398
0
LINE
8
BLACK
6
CONTINUOUS
10
5.49949
20
-3.51398
11
5.48777
21
-3.50934
0
LINE
8
BLACK
6
CONTINUOUS
10
5.48777
20
-3.50934
11
5.47672
21
-3.50327
0
LINE
8
BLACK
6
CONTINUOUS
10
5.47672
20
-3.50327
11
5.46652
21
-3.49586
0
LINE
8
BLACK
6
CONTINUOUS
10
5.46652
20
-3.49586
11
5.45733
21
-3.48723
0
LINE
8
BLACK
6
CONTINUOUS
10
5.45733
20
-3.48723
11
5.44929
21
-3.47751
0
LINE
8
BLACK
6
CONTINUOUS
10
5.44929
20
-3.47751
11
5.44254
21
-3.46687
0
LINE
8
BLACK
6
CONTINUOUS
10
5.44254
20
-3.46687
11
5.43717
21
-3.45546
0
LINE
8
BLACK
6
CONTINUOUS
10
5.43717
20
-3.45546
11
5.43327
21
-3.44347
0
LINE
8
BLACK
6
CONTINUOUS
10
5.43327
20
-3.44347
11
5.43091
21
-3.43109
0
LINE
8
BLACK
6
CONTINUOUS
10
5.43091
20
-3.43109
11
5.43012
21
-3.4185
0
LINE
8
BLACK
6
CONTINUOUS
10
5.43012
20
-3.4185
11
5.43091
21
-3.40592
0
LINE
8
BLACK
6
CONTINUOUS
10
5.43091
20
-3.40592
11
5.43327
21
-3.39354
0
LINE
8
BLACK
6
CONTINUOUS
10
5.43327
20
-3.39354
11
5.43717
21
-3.38155
0
LINE
8
BLACK
6
CONTINUOUS
10
5.43717
20
-3.38155
11
5.44254
21
-3.37014
0
LINE
8
BLACK
6
CONTINUOUS
10
5.44254
20
-3.37014
11
5.44929
21
-3.35949
0
LINE
8
BLACK
6
CONTINUOUS
10
5.44929
20
-3.35949
11
5.45733
21
-3.34978
0
LINE
8
BLACK
6
CONTINUOUS
10
5.45733
20
-3.34978
11
5.46652
21
-3.34115
0
LINE
8
BLACK
6
CONTINUOUS
10
5.46652
20
-3.34115
11
5.47672
21
-3.33374
0
LINE
8
BLACK
6
CONTINUOUS
10
5.47672
20
-3.33374
11
5.48777
21
-3.32767
0
LINE
8
BLACK
6
CONTINUOUS
10
5.48777
20
-3.32767
11
5.49949
21
-3.32302
0
LINE
8
BLACK
6
CONTINUOUS
10
5.49949
20
-3.32302
11
5.5117
21
-3.31989
0
LINE
8
BLACK
6
CONTINUOUS
10
5.5117
20
-3.31989
11
5.52421
21
-3.31831
0
LINE
8
BLACK
6
CONTINUOUS
10
5.52421
20
-3.31831
11
5.53682
21
-3.31831
0
LINE
8
BLACK
6
CONTINUOUS
10
5.53682
20
-3.31831
11
5.54932
21
-3.31989
0
LINE
8
BLACK
6
CONTINUOUS
10
5.43463
20
-3.43062
11
5.4369
21
-3.44254
0
LINE
8
BLACK
6
CONTINUOUS
10
5.4369
20
-3.44254
11
5.44065
21
-3.45408
0
LINE
8
BLACK
6
CONTINUOUS
10
5.44065
20
-3.45408
11
5.44582
21
-3.46506
0
LINE
8
BLACK
6
CONTINUOUS
10
5.44582
20
-3.46506
11
5.45232
21
-3.47531
0
LINE
8
BLACK
6
CONTINUOUS
10
5.45232
20
-3.47531
11
5.46006
21
-3.48466
0
LINE
8
BLACK
6
CONTINUOUS
10
5.46006
20
-3.48466
11
5.46891
21
-3.49297
0
LINE
8
BLACK
6
CONTINUOUS
10
5.46891
20
-3.49297
11
5.47873
21
-3.50011
0
LINE
8
BLACK
6
CONTINUOUS
10
5.47873
20
-3.50011
11
5.48936
21
-3.50595
0
LINE
8
BLACK
6
CONTINUOUS
10
5.48936
20
-3.50595
11
5.50065
21
-3.51042
0
LINE
8
BLACK
6
CONTINUOUS
10
5.50065
20
-3.51042
11
5.5124
21
-3.51344
0
LINE
8
BLACK
6
CONTINUOUS
10
5.5124
20
-3.51344
11
5.52444
21
-3.51496
0
LINE
8
BLACK
6
CONTINUOUS
10
5.52444
20
-3.51496
11
5.53658
21
-3.51496
0
LINE
8
BLACK
6
CONTINUOUS
10
5.53658
20
-3.51496
11
5.54862
21
-3.51344
0
LINE
8
BLACK
6
CONTINUOUS
10
5.54862
20
-3.51344
11
5.56038
21
-3.51042
0
LINE
8
BLACK
6
CONTINUOUS
10
5.56038
20
-3.51042
11
5.57166
21
-3.50595
0
LINE
8
BLACK
6
CONTINUOUS
10
5.57166
20
-3.50595
11
5.5823
21
-3.50011
0
LINE
8
BLACK
6
CONTINUOUS
10
5.5823
20
-3.50011
11
5.59212
21
-3.49297
0
LINE
8
BLACK
6
CONTINUOUS
10
5.59212
20
-3.49297
11
5.60096
21
-3.48466
0
LINE
8
BLACK
6
CONTINUOUS
10
5.60096
20
-3.48466
11
5.6087
21
-3.47531
0
LINE
8
BLACK
6
CONTINUOUS
10
5.6087
20
-3.47531
11
5.6152
21
-3.46506
0
LINE
8
BLACK
6
CONTINUOUS
10
5.6152
20
-3.46506
11
5.62037
21
-3.45408
0
LINE
8
BLACK
6
CONTINUOUS
10
5.62037
20
-3.45408
11
5.62412
21
-3.44254
0
LINE
8
BLACK
6
CONTINUOUS
10
5.62412
20
-3.44254
11
5.6264
21
-3.43062
0
LINE
8
BLACK
6
CONTINUOUS
10
5.6264
20
-3.43062
11
5.62716
21
-3.4185
0
LINE
8
BLACK
6
CONTINUOUS
10
5.62716
20
-3.4185
11
5.6264
21
-3.40639
0
LINE
8
BLACK
6
CONTINUOUS
10
5.6264
20
-3.40639
11
5.62412
21
-3.39447
0
LINE
8
BLACK
6
CONTINUOUS
10
5.62412
20
-3.39447
11
5.62037
21
-3.38293
0
LINE
8
BLACK
6
CONTINUOUS
10
5.62037
20
-3.38293
11
5.6152
21
-3.37194
0
LINE
8
BLACK
6
CONTINUOUS
10
5.6152
20
-3.37194
11
5.6087
21
-3.3617
0
LINE
8
BLACK
6
CONTINUOUS
10
5.6087
20
-3.3617
11
5.60096
21
-3.35234
0
LINE
8
BLACK
6
CONTINUOUS
10
5.60096
20
-3.35234
11
5.59212
21
-3.34404
0
LINE
8
BLACK
6
CONTINUOUS
10
5.59212
20
-3.34404
11
5.5823
21
-3.3369
0
LINE
8
BLACK
6
CONTINUOUS
10
5.5823
20
-3.3369
11
5.57166
21
-3.33105
0
LINE
8
BLACK
6
CONTINUOUS
10
5.57166
20
-3.33105
11
5.56038
21
-3.32659
0
LINE
8
BLACK
6
CONTINUOUS
10
5.56038
20
-3.32659
11
5.54862
21
-3.32357
0
LINE
8
BLACK
6
CONTINUOUS
10
5.54862
20
-3.32357
11
5.53658
21
-3.32205
0
LINE
8
BLACK
6
CONTINUOUS
10
5.53658
20
-3.32205
11
5.52444
21
-3.32205
0
LINE
8
BLACK
6
CONTINUOUS
10
5.52444
20
-3.32205
11
5.5124
21
-3.32357
0
LINE
8
BLACK
6
CONTINUOUS
10
5.5124
20
-3.32357
11
5.50065
21
-3.32659
0
LINE
8
BLACK
6
CONTINUOUS
10
5.50065
20
-3.32659
11
5.48936
21
-3.33105
0
LINE
8
BLACK
6
CONTINUOUS
10
5.48936
20
-3.33105
11
5.47873
21
-3.3369
0
LINE
8
BLACK
6
CONTINUOUS
10
5.47873
20
-3.3369
11
5.46891
21
-3.34404
0
LINE
8
BLACK
6
CONTINUOUS
10
5.46891
20
-3.34404
11
5.46006
21
-3.35234
0
LINE
8
BLACK
6
CONTINUOUS
10
5.46006
20
-3.35234
11
5.45232
21
-3.3617
0
LINE
8
BLACK
6
CONTINUOUS
10
5.45232
20
-3.3617
11
5.44582
21
-3.37194
0
LINE
8
BLACK
6
CONTINUOUS
10
5.44582
20
-3.37194
11
5.44065
21
-3.38293
0
LINE
8
BLACK
6
CONTINUOUS
10
5.44065
20
-3.38293
11
5.4369
21
-3.39447
0
LINE
8
BLACK
6
CONTINUOUS
10
5.4369
20
-3.39447
11
5.43463
21
-3.40639
0
LINE
8
BLACK
6
CONTINUOUS
10
5.43463
20
-3.40639
11
5.43386
21
-3.4185
0
LINE
8
BLACK
6
CONTINUOUS
10
5.43386
20
-3.4185
11
5.43463
21
-3.43062
0
LINE
8
BLACK
6
CONTINUOUS
10
5.66634
20
-3.28071
11
5.66773
21
-3.28129
0
LINE
8
BLACK
6
CONTINUOUS
10
5.66773
20
-3.28129
11
5.66831
21
-3.28268
0
LINE
8
BLACK
6
CONTINUOUS
10
5.66831
20
-3.28268
11
5.66831
21
-3.55433
0
LINE
8
BLACK
6
CONTINUOUS
10
5.66831
20
-3.55433
11
5.66773
21
-3.55572
0
LINE
8
BLACK
6
CONTINUOUS
10
5.66773
20
-3.55572
11
5.66634
21
-3.5563
0
LINE
8
BLACK
6
CONTINUOUS
10
5.66634
20
-3.5563
11
5.39469
21
-3.5563
0
LINE
8
BLACK
6
CONTINUOUS
10
5.39469
20
-3.5563
11
5.39329
21
-3.55572
0
LINE
8
BLACK
6
CONTINUOUS
10
5.39329
20
-3.55572
11
5.39272
21
-3.55433
0
LINE
8
BLACK
6
CONTINUOUS
10
5.39272
20
-3.55433
11
5.39272
21
-3.28268
0
LINE
8
BLACK
6
CONTINUOUS
10
5.39272
20
-3.28268
11
5.39329
21
-3.28129
0
LINE
8
BLACK
6
CONTINUOUS
10
5.39329
20
-3.28129
11
5.39469
21
-3.28071
0
LINE
8
BLACK
6
CONTINUOUS
10
5.39469
20
-3.28071
11
5.66634
21
-3.28071
0
LINE
8
BLACK
6
CONTINUOUS
10
5.39665
20
-3.28465
11
5.39665
21
-3.55236
0
LINE
8
BLACK
6
CONTINUOUS
10
5.39665
20
-3.55236
11
5.66437
21
-3.55236
0
LINE
8
BLACK
6
CONTINUOUS
10
5.66437
20
-3.55236
11
5.66437
21
-3.28465
0
LINE
8
BLACK
6
CONTINUOUS
10
5.66437
20
-3.28465
11
5.39665
21
-3.28465
0
LINE
8
BLACK
6
CONTINUOUS
10
6.61965
20
-3.39514
11
6.62034
21
-3.39704
0
LINE
8
BLACK
6
CONTINUOUS
10
6.62034
20
-3.39704
11
6.62034
21
-3.42516
0
LINE
8
BLACK
6
CONTINUOUS
10
6.62034
20
-3.42516
11
6.62019
21
-3.42603
0
LINE
8
BLACK
6
CONTINUOUS
10
6.62019
20
-3.42603
11
6.62019
21
-3.4261
0
LINE
8
BLACK
6
CONTINUOUS
10
6.62019
20
-3.4261
11
6.61831
21
-3.43172
0
LINE
8
BLACK
6
CONTINUOUS
10
6.61831
20
-3.43172
11
6.61783
21
-3.43262
0
LINE
8
BLACK
6
CONTINUOUS
10
6.61783
20
-3.43262
11
6.61768
21
-3.43271
0
LINE
8
BLACK
6
CONTINUOUS
10
6.61768
20
-3.43271
11
6.6176
21
-3.43287
0
LINE
8
BLACK
6
CONTINUOUS
10
6.6176
20
-3.43287
11
6.61385
21
-3.43662
0
LINE
8
BLACK
6
CONTINUOUS
10
6.61385
20
-3.43662
11
6.61301
21
-3.43721
0
LINE
8
BLACK
6
CONTINUOUS
10
6.61301
20
-3.43721
11
6.61284
21
-3.43723
0
LINE
8
BLACK
6
CONTINUOUS
10
6.61284
20
-3.43723
11
6.6127
21
-3.43734
0
LINE
8
BLACK
6
CONTINUOUS
10
6.6127
20
-3.43734
11
6.60707
21
-3.43921
0
LINE
8
BLACK
6
CONTINUOUS
10
6.60707
20
-3.43921
11
6.6062
21
-3.43934
0
LINE
8
BLACK
6
CONTINUOUS
10
6.6062
20
-3.43934
11
6.60614
21
-3.43936
0
LINE
8
BLACK
6
CONTINUOUS
10
6.60614
20
-3.43936
11
6.60239
21
-3.43936
0
LINE
8
BLACK
6
CONTINUOUS
10
6.60239
20
-3.43936
11
6.60138
21
-3.43918
0
LINE
8
BLACK
6
CONTINUOUS
10
6.60138
20
-3.43918
11
6.59983
21
-3.43789
0
LINE
8
BLACK
6
CONTINUOUS
10
6.59983
20
-3.43789
11
6.59948
21
-3.4359
0
LINE
8
BLACK
6
CONTINUOUS
10
6.59948
20
-3.4359
11
6.60049
21
-3.43415
0
LINE
8
BLACK
6
CONTINUOUS
10
6.60049
20
-3.43415
11
6.60239
21
-3.43346
0
LINE
8
BLACK
6
CONTINUOUS
10
6.60239
20
-3.43346
11
6.60566
21
-3.43346
0
LINE
8
BLACK
6
CONTINUOUS
10
6.60566
20
-3.43346
11
6.61017
21
-3.43195
0
LINE
8
BLACK
6
CONTINUOUS
10
6.61017
20
-3.43195
11
6.61293
21
-3.42919
0
LINE
8
BLACK
6
CONTINUOUS
10
6.61293
20
-3.42919
11
6.61444
21
-3.42468
0
LINE
8
BLACK
6
CONTINUOUS
10
6.61444
20
-3.42468
11
6.61444
21
-3.39704
0
LINE
8
BLACK
6
CONTINUOUS
10
6.61444
20
-3.39704
11
6.61461
21
-3.39603
0
LINE
8
BLACK
6
CONTINUOUS
10
6.61461
20
-3.39603
11
6.61591
21
-3.39448
0
LINE
8
BLACK
6
CONTINUOUS
10
6.61591
20
-3.39448
11
6.6179
21
-3.39413
0
LINE
8
BLACK
6
CONTINUOUS
10
6.6179
20
-3.39413
11
6.61965
21
-3.39514
0
LINE
8
BLACK
6
CONTINUOUS
10
6.65964
20
-3.39427
11
6.65991
21
-3.39449
0
LINE
8
BLACK
6
CONTINUOUS
10
6.65991
20
-3.39449
11
6.66025
21
-3.39457
0
LINE
8
BLACK
6
CONTINUOUS
10
6.66025
20
-3.39457
11
6.66066
21
-3.39512
0
LINE
8
BLACK
6
CONTINUOUS
10
6.66066
20
-3.39512
11
6.66119
21
-3.39556
0
LINE
8
BLACK
6
CONTINUOUS
10
6.66119
20
-3.39556
11
6.66125
21
-3.39591
0
LINE
8
BLACK
6
CONTINUOUS
10
6.66125
20
-3.39591
11
6.66146
21
-3.39619
0
LINE
8
BLACK
6
CONTINUOUS
10
6.66146
20
-3.39619
11
6.66142
21
-3.39687
0
LINE
8
BLACK
6
CONTINUOUS
10
6.66142
20
-3.39687
11
6.66154
21
-3.39755
0
LINE
8
BLACK
6
CONTINUOUS
10
6.66154
20
-3.39755
11
6.66137
21
-3.39785
0
LINE
8
BLACK
6
CONTINUOUS
10
6.66137
20
-3.39785
11
6.66135
21
-3.3982
0
LINE
8
BLACK
6
CONTINUOUS
10
6.66135
20
-3.3982
11
6.64447
21
-3.43757
0
LINE
8
BLACK
6
CONTINUOUS
10
6.64447
20
-3.43757
11
6.64391
21
-3.43843
0
LINE
8
BLACK
6
CONTINUOUS
10
6.64391
20
-3.43843
11
6.64211
21
-3.43934
0
LINE
8
BLACK
6
CONTINUOUS
10
6.64211
20
-3.43934
11
6.64014
21
-3.43888
0
LINE
8
BLACK
6
CONTINUOUS
10
6.64014
20
-3.43888
11
6.63893
21
-3.43726
0
LINE
8
BLACK
6
CONTINUOUS
10
6.63893
20
-3.43726
11
6.63905
21
-3.43525
0
LINE
8
BLACK
6
CONTINUOUS
10
6.63905
20
-3.43525
11
6.65416
21
-3.39999
0
LINE
8
BLACK
6
CONTINUOUS
10
6.65416
20
-3.39999
11
6.63239
21
-3.39999
0
LINE
8
BLACK
6
CONTINUOUS
10
6.63239
20
-3.39999
11
6.63138
21
-3.39981
0
LINE
8
BLACK
6
CONTINUOUS
10
6.63138
20
-3.39981
11
6.62983
21
-3.39852
0
LINE
8
BLACK
6
CONTINUOUS
10
6.62983
20
-3.39852
11
6.62948
21
-3.39653
0
LINE
8
BLACK
6
CONTINUOUS
10
6.62948
20
-3.39653
11
6.63049
21
-3.39478
0
LINE
8
BLACK
6
CONTINUOUS
10
6.63049
20
-3.39478
11
6.63239
21
-3.39409
0
LINE
8
BLACK
6
CONTINUOUS
10
6.63239
20
-3.39409
11
6.65863
21
-3.39409
0
LINE
8
BLACK
6
CONTINUOUS
10
6.65863
20
-3.39409
11
6.65964
21
-3.39427
0
LINE
8
BLACK
6
CONTINUOUS
10
6.64932
20
-3.31989
11
6.66154
21
-3.32302
0
LINE
8
BLACK
6
CONTINUOUS
10
6.66154
20
-3.32302
11
6.67326
21
-3.32767
0
LINE
8
BLACK
6
CONTINUOUS
10
6.67326
20
-3.32767
11
6.68431
21
-3.33374
0
LINE
8
BLACK
6
CONTINUOUS
10
6.68431
20
-3.33374
11
6.69451
21
-3.34115
0
LINE
8
BLACK
6
CONTINUOUS
10
6.69451
20
-3.34115
11
6.7037
21
-3.34978
0
LINE
8
BLACK
6
CONTINUOUS
10
6.7037
20
-3.34978
11
6.71173
21
-3.35949
0
LINE
8
BLACK
6
CONTINUOUS
10
6.71173
20
-3.35949
11
6.71849
21
-3.37014
0
LINE
8
BLACK
6
CONTINUOUS
10
6.71849
20
-3.37014
11
6.72386
21
-3.38155
0
LINE
8
BLACK
6
CONTINUOUS
10
6.72386
20
-3.38155
11
6.72775
21
-3.39354
0
LINE
8
BLACK
6
CONTINUOUS
10
6.72775
20
-3.39354
11
6.73011
21
-3.40592
0
LINE
8
BLACK
6
CONTINUOUS
10
6.73011
20
-3.40592
11
6.73091
21
-3.4185
0
LINE
8
BLACK
6
CONTINUOUS
10
6.73091
20
-3.4185
11
6.73011
21
-3.43109
0
LINE
8
BLACK
6
CONTINUOUS
10
6.73011
20
-3.43109
11
6.72775
21
-3.44347
0
LINE
8
BLACK
6
CONTINUOUS
10
6.72775
20
-3.44347
11
6.72386
21
-3.45546
0
LINE
8
BLACK
6
CONTINUOUS
10
6.72386
20
-3.45546
11
6.71849
21
-3.46687
0
LINE
8
BLACK
6
CONTINUOUS
10
6.71849
20
-3.46687
11
6.71173
21
-3.47751
0
LINE
8
BLACK
6
CONTINUOUS
10
6.71173
20
-3.47751
11
6.7037
21
-3.48723
0
LINE
8
BLACK
6
CONTINUOUS
10
6.7037
20
-3.48723
11
6.69451
21
-3.49586
0
LINE
8
BLACK
6
CONTINUOUS
10
6.69451
20
-3.49586
11
6.68431
21
-3.50327
0
LINE
8
BLACK
6
CONTINUOUS
10
6.68431
20
-3.50327
11
6.67326
21
-3.50934
0
LINE
8
BLACK
6
CONTINUOUS
10
6.67326
20
-3.50934
11
6.66154
21
-3.51398
0
LINE
8
BLACK
6
CONTINUOUS
10
6.66154
20
-3.51398
11
6.64932
21
-3.51712
0
LINE
8
BLACK
6
CONTINUOUS
10
6.64932
20
-3.51712
11
6.63682
21
-3.5187
0
LINE
8
BLACK
6
CONTINUOUS
10
6.63682
20
-3.5187
11
6.62421
21
-3.5187
0
LINE
8
BLACK
6
CONTINUOUS
10
6.62421
20
-3.5187
11
6.6117
21
-3.51712
0
LINE
8
BLACK
6
CONTINUOUS
10
6.6117
20
-3.51712
11
6.59949
21
-3.51398
0
LINE
8
BLACK
6
CONTINUOUS
10
6.59949
20
-3.51398
11
6.58777
21
-3.50934
0
LINE
8
BLACK
6
CONTINUOUS
10
6.58777
20
-3.50934
11
6.57672
21
-3.50327
0
LINE
8
BLACK
6
CONTINUOUS
10
6.57672
20
-3.50327
11
6.56652
21
-3.49586
0
LINE
8
BLACK
6
CONTINUOUS
10
6.56652
20
-3.49586
11
6.55733
21
-3.48723
0
LINE
8
BLACK
6
CONTINUOUS
10
6.55733
20
-3.48723
11
6.54929
21
-3.47751
0
LINE
8
BLACK
6
CONTINUOUS
10
6.54929
20
-3.47751
11
6.54254
21
-3.46687
0
LINE
8
BLACK
6
CONTINUOUS
10
6.54254
20
-3.46687
11
6.53717
21
-3.45546
0
LINE
8
BLACK
6
CONTINUOUS
10
6.53717
20
-3.45546
11
6.53327
21
-3.44347
0
LINE
8
BLACK
6
CONTINUOUS
10
6.53327
20
-3.44347
11
6.53091
21
-3.43109
0
LINE
8
BLACK
6
CONTINUOUS
10
6.53091
20
-3.43109
11
6.53012
21
-3.4185
0
LINE
8
BLACK
6
CONTINUOUS
10
6.53012
20
-3.4185
11
6.53091
21
-3.40592
0
LINE
8
BLACK
6
CONTINUOUS
10
6.53091
20
-3.40592
11
6.53327
21
-3.39354
0
LINE
8
BLACK
6
CONTINUOUS
10
6.53327
20
-3.39354
11
6.53717
21
-3.38155
0
LINE
8
BLACK
6
CONTINUOUS
10
6.53717
20
-3.38155
11
6.54254
21
-3.37014
0
LINE
8
BLACK
6
CONTINUOUS
10
6.54254
20
-3.37014
11
6.54929
21
-3.35949
0
LINE
8
BLACK
6
CONTINUOUS
10
6.54929
20
-3.35949
11
6.55733
21
-3.34978
0
LINE
8
BLACK
6
CONTINUOUS
10
6.55733
20
-3.34978
11
6.56652
21
-3.34115
0
LINE
8
BLACK
6
CONTINUOUS
10
6.56652
20
-3.34115
11
6.57672
21
-3.33374
0
LINE
8
BLACK
6
CONTINUOUS
10
6.57672
20
-3.33374
11
6.58777
21
-3.32767
0
LINE
8
BLACK
6
CONTINUOUS
10
6.58777
20
-3.32767
11
6.59949
21
-3.32302
0
LINE
8
BLACK
6
CONTINUOUS
10
6.59949
20
-3.32302
11
6.6117
21
-3.31989
0
LINE
8
BLACK
6
CONTINUOUS
10
6.6117
20
-3.31989
11
6.62421
21
-3.31831
0
LINE
8
BLACK
6
CONTINUOUS
10
6.62421
20
-3.31831
11
6.63682
21
-3.31831
0
LINE
8
BLACK
6
CONTINUOUS
10
6.63682
20
-3.31831
11
6.64932
21
-3.31989
0
LINE
8
BLACK
6
CONTINUOUS
10
6.53463
20
-3.43062
11
6.5369
21
-3.44254
0
LINE
8
BLACK
6
CONTINUOUS
10
6.5369
20
-3.44254
11
6.54065
21
-3.45408
0
LINE
8
BLACK
6
CONTINUOUS
10
6.54065
20
-3.45408
11
6.54582
21
-3.46506
0
LINE
8
BLACK
6
CONTINUOUS
10
6.54582
20
-3.46506
11
6.55232
21
-3.47531
0
LINE
8
BLACK
6
CONTINUOUS
10
6.55232
20
-3.47531
11
6.56006
21
-3.48466
0
LINE
8
BLACK
6
CONTINUOUS
10
6.56006
20
-3.48466
11
6.56891
21
-3.49297
0
LINE
8
BLACK
6
CONTINUOUS
10
6.56891
20
-3.49297
11
6.57873
21
-3.50011
0
LINE
8
BLACK
6
CONTINUOUS
10
6.57873
20
-3.50011
11
6.58936
21
-3.50595
0
LINE
8
BLACK
6
CONTINUOUS
10
6.58936
20
-3.50595
11
6.60065
21
-3.51042
0
LINE
8
BLACK
6
CONTINUOUS
10
6.60065
20
-3.51042
11
6.6124
21
-3.51344
0
LINE
8
BLACK
6
CONTINUOUS
10
6.6124
20
-3.51344
11
6.62444
21
-3.51496
0
LINE
8
BLACK
6
CONTINUOUS
10
6.62444
20
-3.51496
11
6.63658
21
-3.51496
0
LINE
8
BLACK
6
CONTINUOUS
10
6.63658
20
-3.51496
11
6.64862
21
-3.51344
0
LINE
8
BLACK
6
CONTINUOUS
10
6.64862
20
-3.51344
11
6.66038
21
-3.51042
0
LINE
8
BLACK
6
CONTINUOUS
10
6.66038
20
-3.51042
11
6.67166
21
-3.50595
0
LINE
8
BLACK
6
CONTINUOUS
10
6.67166
20
-3.50595
11
6.6823
21
-3.50011
0
LINE
8
BLACK
6
CONTINUOUS
10
6.6823
20
-3.50011
11
6.69212
21
-3.49297
0
LINE
8
BLACK
6
CONTINUOUS
10
6.69212
20
-3.49297
11
6.70096
21
-3.48466
0
LINE
8
BLACK
6
CONTINUOUS
10
6.70096
20
-3.48466
11
6.7087
21
-3.47531
0
LINE
8
BLACK
6
CONTINUOUS
10
6.7087
20
-3.47531
11
6.7152
21
-3.46506
0
LINE
8
BLACK
6
CONTINUOUS
10
6.7152
20
-3.46506
11
6.72037
21
-3.45408
0
LINE
8
BLACK
6
CONTINUOUS
10
6.72037
20
-3.45408
11
6.72412
21
-3.44254
0
LINE
8
BLACK
6
CONTINUOUS
10
6.72412
20
-3.44254
11
6.7264
21
-3.43062
0
LINE
8
BLACK
6
CONTINUOUS
10
6.7264
20
-3.43062
11
6.72716
21
-3.4185
0
LINE
8
BLACK
6
CONTINUOUS
10
6.72716
20
-3.4185
11
6.7264
21
-3.40639
0
LINE
8
BLACK
6
CONTINUOUS
10
6.7264
20
-3.40639
11
6.72412
21
-3.39447
0
LINE
8
BLACK
6
CONTINUOUS
10
6.72412
20
-3.39447
11
6.72037
21
-3.38293
0
LINE
8
BLACK
6
CONTINUOUS
10
6.72037
20
-3.38293
11
6.7152
21
-3.37194
0
LINE
8
BLACK
6
CONTINUOUS
10
6.7152
20
-3.37194
11
6.7087
21
-3.3617
0
LINE
8
BLACK
6
CONTINUOUS
10
6.7087
20
-3.3617
11
6.70096
21
-3.35234
0
LINE
8
BLACK
6
CONTINUOUS
10
6.70096
20
-3.35234
11
6.69212
21
-3.34404
0
LINE
8
BLACK
6
CONTINUOUS
10
6.69212
20
-3.34404
11
6.6823
21
-3.3369
0
LINE
8
BLACK
6
CONTINUOUS
10
6.6823
20
-3.3369
11
6.67166
21
-3.33105
0
LINE
8
BLACK
6
CONTINUOUS
10
6.67166
20
-3.33105
11
6.66038
21
-3.32659
0
LINE
8
BLACK
6
CONTINUOUS
10
6.66038
20
-3.32659
11
6.64862
21
-3.32357
0
LINE
8
BLACK
6
CONTINUOUS
10
6.64862
20
-3.32357
11
6.63658
21
-3.32205
0
LINE
8
BLACK
6
CONTINUOUS
10
6.63658
20
-3.32205
11
6.62444
21
-3.32205
0
LINE
8
BLACK
6
CONTINUOUS
10
6.62444
20
-3.32205
11
6.6124
21
-3.32357
0
LINE
8
BLACK
6
CONTINUOUS
10
6.6124
20
-3.32357
11
6.60065
21
-3.32659
0
LINE
8
BLACK
6
CONTINUOUS
10
6.60065
20
-3.32659
11
6.58936
21
-3.33105
0
LINE
8
BLACK
6
CONTINUOUS
10
6.58936
20
-3.33105
11
6.57873
21
-3.3369
0
LINE
8
BLACK
6
CONTINUOUS
10
6.57873
20
-3.3369
11
6.56891
21
-3.34404
0
LINE
8
BLACK
6
CONTINUOUS
10
6.56891
20
-3.34404
11
6.56006
21
-3.35234
0
LINE
8
BLACK
6
CONTINUOUS
10
6.56006
20
-3.35234
11
6.55232
21
-3.3617
0
LINE
8
BLACK
6
CONTINUOUS
10
6.55232
20
-3.3617
11
6.54582
21
-3.37194
0
LINE
8
BLACK
6
CONTINUOUS
10
6.54582
20
-3.37194
11
6.54065
21
-3.38293
0
LINE
8
BLACK
6
CONTINUOUS
10
6.54065
20
-3.38293
11
6.5369
21
-3.39447
0
LINE
8
BLACK
6
CONTINUOUS
10
6.5369
20
-3.39447
11
6.53463
21
-3.40639
0
LINE
8
BLACK
6
CONTINUOUS
10
6.53463
20
-3.40639
11
6.53386
21
-3.4185
0
LINE
8
BLACK
6
CONTINUOUS
10
6.53386
20
-3.4185
11
6.53463
21
-3.43062
0
LINE
8
BLACK
6
CONTINUOUS
10
6.76634
20
-3.28071
11
6.76773
21
-3.28129
0
LINE
8
BLACK
6
CONTINUOUS
10
6.76773
20
-3.28129
11
6.76831
21
-3.28268
0
LINE
8
BLACK
6
CONTINUOUS
10
6.76831
20
-3.28268
11
6.76831
21
-3.55433
0
LINE
8
BLACK
6
CONTINUOUS
10
6.76831
20
-3.55433
11
6.76773
21
-3.55572
0
LINE
8
BLACK
6
CONTINUOUS
10
6.76773
20
-3.55572
11
6.76634
21
-3.5563
0
LINE
8
BLACK
6
CONTINUOUS
10
6.76634
20
-3.5563
11
6.49469
21
-3.5563
0
LINE
8
BLACK
6
CONTINUOUS
10
6.49469
20
-3.5563
11
6.49329
21
-3.55572
0
LINE
8
BLACK
6
CONTINUOUS
10
6.49329
20
-3.55572
11
6.49272
21
-3.55433
0
LINE
8
BLACK
6
CONTINUOUS
10
6.49272
20
-3.55433
11
6.49272
21
-3.55433
0
LINE
8
BLACK
6
CONTINUOUS
10
6.49272
20
-3.55433
11
6.49272
21
-3.28268
0
LINE
8
BLACK
6
CONTINUOUS
10
6.49272
20
-3.28268
11
6.49329
21
-3.28129
0
LINE
8
BLACK
6
CONTINUOUS
10
6.49329
20
-3.28129
11
6.49469
21
-3.28071
0
LINE
8
BLACK
6
CONTINUOUS
10
6.49469
20
-3.28071
11
6.76634
21
-3.28071
0
LINE
8
BLACK
6
CONTINUOUS
10
6.49665
20
-3.28465
11
6.49665
21
-3.55236
0
LINE
8
BLACK
6
CONTINUOUS
10
6.49665
20
-3.55236
11
6.76437
21
-3.55236
0
LINE
8
BLACK
6
CONTINUOUS
10
6.76437
20
-3.55236
11
6.76437
21
-3.28465
0
LINE
8
BLACK
6
CONTINUOUS
10
6.76437
20
-3.28465
11
6.49665
21
-3.28465
0
LINE
8
BLACK
6
CONTINUOUS
10
6.10551
20
-3.01555
11
6.20551
21
-3.01555
0
LINE
8
BLACK
6
CONTINUOUS
10
6.20551
20
-3.01555
11
6.30551
21
-3.01555
0
LINE
8
BLACK
6
CONTINUOUS
10
6.30551
20
-3.01555
11
6.40551
21
-3.01555
0
LINE
8
BLACK
6
CONTINUOUS
10
6.40551
20
-3.01555
11
6.4059
21
-3.01562
0
LINE
8
BLACK
6
CONTINUOUS
10
6.4059
20
-3.01562
11
6.40602
21
-3.0156
0
LINE
8
BLACK
6
CONTINUOUS
10
6.40602
20
-3.0156
11
6.40614
21
-3.01566
0
LINE
8
BLACK
6
CONTINUOUS
10
6.40614
20
-3.01566
11
6.40652
21
-3.01573
0
LINE
8
BLACK
6
CONTINUOUS
10
6.40652
20
-3.01573
11
6.40711
21
-3.01622
0
LINE
8
BLACK
6
CONTINUOUS
10
6.40711
20
-3.01622
11
6.40777
21
-3.01661
0
LINE
8
BLACK
6
CONTINUOUS
10
6.40777
20
-3.01661
11
6.40786
21
-3.01686
0
LINE
8
BLACK
6
CONTINUOUS
10
6.40786
20
-3.01686
11
6.40807
21
-3.01703
0
LINE
8
BLACK
6
CONTINUOUS
10
6.40807
20
-3.01703
11
6.4082
21
-3.01778
0
LINE
8
BLACK
6
CONTINUOUS
10
6.4082
20
-3.01778
11
6.40846
21
-3.0185
0
LINE
8
BLACK
6
CONTINUOUS
10
6.40846
20
-3.0185
11
6.40846
21
-3.2185
0
LINE
8
BLACK
6
CONTINUOUS
10
6.40846
20
-3.2185
11
6.4084
21
-3.21889
0
LINE
8
BLACK
6
CONTINUOUS
10
6.4084
20
-3.21889
11
6.40842
21
-3.21902
0
LINE
8
BLACK
6
CONTINUOUS
10
6.40842
20
-3.21902
11
6.40835
21
-3.21913
0
LINE
8
BLACK
6
CONTINUOUS
10
6.40835
20
-3.21913
11
6.40829
21
-3.21951
0
LINE
8
BLACK
6
CONTINUOUS
10
6.40829
20
-3.21951
11
6.40779
21
-3.2201
0
LINE
8
BLACK
6
CONTINUOUS
10
6.40779
20
-3.2201
11
6.40741
21
-3.22077
0
LINE
8
BLACK
6
CONTINUOUS
10
6.40741
20
-3.22077
11
6.40716
21
-3.22086
0
LINE
8
BLACK
6
CONTINUOUS
10
6.40716
20
-3.22086
11
6.40699
21
-3.22106
0
LINE
8
BLACK
6
CONTINUOUS
10
6.40699
20
-3.22106
11
6.40623
21
-3.22119
0
LINE
8
BLACK
6
CONTINUOUS
10
6.40623
20
-3.22119
11
6.40551
21
-3.22146
0
LINE
8
BLACK
6
CONTINUOUS
10
6.40551
20
-3.22146
11
6.30551
21
-3.22146
0
LINE
8
BLACK
6
CONTINUOUS
10
6.30551
20
-3.22146
11
6.20551
21
-3.22146
0
LINE
8
BLACK
6
CONTINUOUS
10
6.20551
20
-3.22146
11
6.10551
21
-3.22146
0
LINE
8
BLACK
6
CONTINUOUS
10
6.10551
20
-3.22146
11
6.00551
21
-3.22146
0
LINE
8
BLACK
6
CONTINUOUS
10
6.00551
20
-3.22146
11
6.00513
21
-3.22139
0
LINE
8
BLACK
6
CONTINUOUS
10
6.00513
20
-3.22139
11
6.005
21
-3.22141
0
LINE
8
BLACK
6
CONTINUOUS
10
6.005
20
-3.22141
11
6.00489
21
-3.22135
0
LINE
8
BLACK
6
CONTINUOUS
10
6.00489
20
-3.22135
11
6.0045
21
-3.22128
0
LINE
8
BLACK
6
CONTINUOUS
10
6.0045
20
-3.22128
11
6.00391
21
-3.22079
0
LINE
8
BLACK
6
CONTINUOUS
10
6.00391
20
-3.22079
11
6.00325
21
-3.2204
0
LINE
8
BLACK
6
CONTINUOUS
10
6.00325
20
-3.2204
11
6.00316
21
-3.22015
0
LINE
8
BLACK
6
CONTINUOUS
10
6.00316
20
-3.22015
11
6.00295
21
-3.21998
0
LINE
8
BLACK
6
CONTINUOUS
10
6.00295
20
-3.21998
11
6.00282
21
-3.21922
0
LINE
8
BLACK
6
CONTINUOUS
10
6.00282
20
-3.21922
11
6.00256
21
-3.2185
0
LINE
8
BLACK
6
CONTINUOUS
10
6.00256
20
-3.2185
11
6.00256
21
-3.0185
0
LINE
8
BLACK
6
CONTINUOUS
10
6.00256
20
-3.0185
11
6.00263
21
-3.01812
0
LINE
8
BLACK
6
CONTINUOUS
10
6.00263
20
-3.01812
11
6.0026
21
-3.01799
0
LINE
8
BLACK
6
CONTINUOUS
10
6.0026
20
-3.01799
11
6.00267
21
-3.01788
0
LINE
8
BLACK
6
CONTINUOUS
10
6.00267
20
-3.01788
11
6.00274
21
-3.01749
0
LINE
8
BLACK
6
CONTINUOUS
10
6.00274
20
-3.01749
11
6.00323
21
-3.01691
0
LINE
8
BLACK
6
CONTINUOUS
10
6.00323
20
-3.01691
11
6.00361
21
-3.01624
0
LINE
8
BLACK
6
CONTINUOUS
10
6.00361
20
-3.01624
11
6.00386
21
-3.01615
0
LINE
8
BLACK
6
CONTINUOUS
10
6.00386
20
-3.01615
11
6.00404
21
-3.01595
0
LINE
8
BLACK
6
CONTINUOUS
10
6.00404
20
-3.01595
11
6.00479
21
-3.01581
0
LINE
8
BLACK
6
CONTINUOUS
10
6.00479
20
-3.01581
11
6.00551
21
-3.01555
0
LINE
8
BLACK
6
CONTINUOUS
10
6.00551
20
-3.01555
11
6.10551
21
-3.01555
0
LINE
8
BLACK
6
CONTINUOUS
10
6.30846
20
-3.02146
11
6.30846
21
-3.21555
0
LINE
8
BLACK
6
CONTINUOUS
10
6.30846
20
-3.21555
11
6.40256
21
-3.21555
0
LINE
8
BLACK
6
CONTINUOUS
10
6.40256
20
-3.21555
11
6.40256
21
-3.02146
0
LINE
8
BLACK
6
CONTINUOUS
10
6.40256
20
-3.02146
11
6.30846
21
-3.02146
0
LINE
8
BLACK
6
CONTINUOUS
10
6.20846
20
-3.02146
11
6.20846
21
-3.21555
0
LINE
8
BLACK
6
CONTINUOUS
10
6.20846
20
-3.21555
11
6.30256
21
-3.21555
0
LINE
8
BLACK
6
CONTINUOUS
10
6.30256
20
-3.21555
11
6.30256
21
-3.02146
0
LINE
8
BLACK
6
CONTINUOUS
10
6.30256
20
-3.02146
11
6.20846
21
-3.02146
0
LINE
8
BLACK
6
CONTINUOUS
10
6.10846
20
-3.02146
11
6.10846
21
-3.21555
0
LINE
8
BLACK
6
CONTINUOUS
10
6.10846
20
-3.21555
11
6.20256
21
-3.21555
0
LINE
8
BLACK
6
CONTINUOUS
10
6.20256
20
-3.21555
11
6.20256
21
-3.02146
0
LINE
8
BLACK
6
CONTINUOUS
10
6.20256
20
-3.02146
11
6.10846
21
-3.02146
0
LINE
8
BLACK
6
CONTINUOUS
10
6.00846
20
-3.02146
11
6.00846
21
-3.21555
0
LINE
8
BLACK
6
CONTINUOUS
10
6.00846
20
-3.21555
11
6.10256
21
-3.21555
0
LINE
8
BLACK
6
CONTINUOUS
10
6.10256
20
-3.21555
11
6.10256
21
-3.02146
0
LINE
8
BLACK
6
CONTINUOUS
10
6.10256
20
-3.02146
11
6.00846
21
-3.02146
0
LINE
8
BLACK
6
CONTINUOUS
10
5.9809
20
-2.94062
11
5.98102
21
-2.9406
0
LINE
8
BLACK
6
CONTINUOUS
10
5.98102
20
-2.9406
11
5.98114
21
-2.94066
0
LINE
8
BLACK
6
CONTINUOUS
10
5.98114
20
-2.94066
11
5.98152
21
-2.94073
0
LINE
8
BLACK
6
CONTINUOUS
10
5.98152
20
-2.94073
11
5.98211
21
-2.94122
0
LINE
8
BLACK
6
CONTINUOUS
10
5.98211
20
-2.94122
11
5.98277
21
-2.94161
0
LINE
8
BLACK
6
CONTINUOUS
10
5.98277
20
-2.94161
11
5.98286
21
-2.94186
0
LINE
8
BLACK
6
CONTINUOUS
10
5.98286
20
-2.94186
11
5.98307
21
-2.94203
0
LINE
8
BLACK
6
CONTINUOUS
10
5.98307
20
-2.94203
11
5.9832
21
-2.94278
0
LINE
8
BLACK
6
CONTINUOUS
10
5.9832
20
-2.94278
11
5.98346
21
-2.9435
0
LINE
8
BLACK
6
CONTINUOUS
10
5.98346
20
-2.9435
11
5.98346
21
-3.1435
0
LINE
8
BLACK
6
CONTINUOUS
10
5.98346
20
-3.1435
11
5.9834
21
-3.14389
0
LINE
8
BLACK
6
CONTINUOUS
10
5.9834
20
-3.14389
11
5.98342
21
-3.14402
0
LINE
8
BLACK
6
CONTINUOUS
10
5.98342
20
-3.14402
11
5.98335
21
-3.14413
0
LINE
8
BLACK
6
CONTINUOUS
10
5.98335
20
-3.14413
11
5.98329
21
-3.14451
0
LINE
8
BLACK
6
CONTINUOUS
10
5.98329
20
-3.14451
11
5.98279
21
-3.1451
0
LINE
8
BLACK
6
CONTINUOUS
10
5.98279
20
-3.1451
11
5.98241
21
-3.14577
0
LINE
8
BLACK
6
CONTINUOUS
10
5.98241
20
-3.14577
11
5.98216
21
-3.14586
0
LINE
8
BLACK
6
CONTINUOUS
10
5.98216
20
-3.14586
11
5.98199
21
-3.14606
0
LINE
8
BLACK
6
CONTINUOUS
10
5.98199
20
-3.14606
11
5.98123
21
-3.14619
0
LINE
8
BLACK
6
CONTINUOUS
10
5.98123
20
-3.14619
11
5.98051
21
-3.14646
0
LINE
8
BLACK
6
CONTINUOUS
10
5.98051
20
-3.14646
11
5.68051
21
-3.14646
0
LINE
8
BLACK
6
CONTINUOUS
10
5.68051
20
-3.14646
11
5.68013
21
-3.14639
0
LINE
8
BLACK
6
CONTINUOUS
10
5.68013
20
-3.14639
11
5.68
21
-3.14641
0
LINE
8
BLACK
6
CONTINUOUS
10
5.68
20
-3.14641
11
5.67989
21
-3.14635
0
LINE
8
BLACK
6
CONTINUOUS
10
5.67989
20
-3.14635
11
5.6795
21
-3.14628
0
LINE
8
BLACK
6
CONTINUOUS
10
5.6795
20
-3.14628
11
5.67891
21
-3.14579
0
LINE
8
BLACK
6
CONTINUOUS
10
5.67891
20
-3.14579
11
5.67825
21
-3.1454
0
LINE
8
BLACK
6
CONTINUOUS
10
5.67825
20
-3.1454
11
5.67816
21
-3.14515
0
LINE
8
BLACK
6
CONTINUOUS
10
5.67816
20
-3.14515
11
5.67795
21
-3.14498
0
LINE
8
BLACK
6
CONTINUOUS
10
5.67795
20
-3.14498
11
5.67782
21
-3.14422
0
LINE
8
BLACK
6
CONTINUOUS
10
5.67782
20
-3.14422
11
5.67756
21
-3.1435
0
LINE
8
BLACK
6
CONTINUOUS
10
5.67756
20
-3.1435
11
5.67756
21
-2.9435
0
LINE
8
BLACK
6
CONTINUOUS
10
5.67756
20
-2.9435
11
5.67763
21
-2.94312
0
LINE
8
BLACK
6
CONTINUOUS
10
5.67763
20
-2.94312
11
5.6776
21
-2.94299
0
LINE
8
BLACK
6
CONTINUOUS
10
5.6776
20
-2.94299
11
5.67767
21
-2.94288
0
LINE
8
BLACK
6
CONTINUOUS
10
5.67767
20
-2.94288
11
5.67774
21
-2.94249
0
LINE
8
BLACK
6
CONTINUOUS
10
5.67774
20
-2.94249
11
5.67823
21
-2.94191
0
LINE
8
BLACK
6
CONTINUOUS
10
5.67823
20
-2.94191
11
5.67861
21
-2.94124
0
LINE
8
BLACK
6
CONTINUOUS
10
5.67861
20
-2.94124
11
5.67886
21
-2.94115
0
LINE
8
BLACK
6
CONTINUOUS
10
5.67886
20
-2.94115
11
5.67904
21
-2.94095
0
LINE
8
BLACK
6
CONTINUOUS
10
5.67904
20
-2.94095
11
5.67979
21
-2.94081
0
LINE
8
BLACK
6
CONTINUOUS
10
5.67979
20
-2.94081
11
5.68051
21
-2.94055
0
LINE
8
BLACK
6
CONTINUOUS
10
5.68051
20
-2.94055
11
5.98051
21
-2.94055
0
LINE
8
BLACK
6
CONTINUOUS
10
5.98051
20
-2.94055
11
5.9809
21
-2.94062
0
LINE
8
BLACK
6
CONTINUOUS
10
5.68346
20
-2.94646
11
5.68346
21
-3.14055
0
LINE
8
BLACK
6
CONTINUOUS
10
5.68346
20
-3.14055
11
5.97756
21
-3.14055
0
LINE
8
BLACK
6
CONTINUOUS
10
5.97756
20
-3.14055
11
5.97756
21
-2.94646
0
LINE
8
BLACK
6
CONTINUOUS
10
5.97756
20
-2.94646
11
5.68346
21
-2.94646
  0
ENDSEC
  0
EOF
