  0
SECTION
  2
HEADER
  9
$ANGBASE
  50
0.0
  9
$ANGDIR
  70
1
  9
$MEASUREMENT
  70
0
  0
ENDSEC
  0
SECTION
  2
TABLES
  0
TABLE
  2
LTYPE
  70
4
  0
LTYPE
  5
40F
  2
CONTINUOUS
  70
0
  3
Solid line
  72
65
  73
0
  40
0.0
  0
LTYPE
  5
410
  2
DASHDOT
 70
0
  3
Dash Dot ____ _ ____ _
 72
65
 73
4
 40
2.0
 49
1.25
 49
-0.25
 49
0.25
 49
-0.25
  0
LTYPE
  5
411
  2
DASHED
 70
0
  3
Dashed __ __ __ __ __
 72
65
 73
2
 40
0.75
 49
0.5
 49
-0.25
  0
LTYPE
  5
43B
  2
DOTTED
 70
0
  3
Dotted .  .  .  .
 72
65
 73
2
 40
0.2
 49
0.0
 49
-0.2
  0
ENDTAB
  0
TABLE
  2
STYLE
  70
4
  0
STYLE
  2
KICAD
  70
0
  40
0
  41
1
  42
1
  50
0
  71
0
  3
isocp.shx
  0
STYLE
  2
KICADB
  70
0
  40
0
  41
1
  42
1
  50
0
  71
0
  3
isocp.shx
  0
STYLE
  2
KICADI
  70
0
  40
0
  41
1
  42
1
  50
15
  71
0
  3
isocp.shx
  0
STYLE
  2
KICADBI
  70
0
  40
0
  41
1
  42
1
  50
15
  71
0
  3
isocp.shx
  0
ENDTAB
  0
TABLE
  2
LAYER
  70
1
  0
LAYER
  2
BLACK
  70
0
  62
7
  6
CONTINUOUS
  0
ENDTAB
  0
ENDSEC
  0
SECTION
  2
ENTITIES
0
LINE
8
BLACK
6
CONTINUOUS
10
5.50102
20
-4.12719
11
5.51439
21
-4.13036
0
LINE
8
BLACK
6
CONTINUOUS
10
5.51439
20
-4.13036
11
5.52729
21
-4.13505
0
LINE
8
BLACK
6
CONTINUOUS
10
5.52729
20
-4.13505
11
5.53957
21
-4.14122
0
LINE
8
BLACK
6
CONTINUOUS
10
5.53957
20
-4.14122
11
5.55104
21
-4.14876
0
LINE
8
BLACK
6
CONTINUOUS
10
5.55104
20
-4.14876
11
5.56156
21
-4.15759
0
LINE
8
BLACK
6
CONTINUOUS
10
5.56156
20
-4.15759
11
5.57099
21
-4.16758
0
LINE
8
BLACK
6
CONTINUOUS
10
5.57099
20
-4.16758
11
5.57919
21
-4.1786
0
LINE
8
BLACK
6
CONTINUOUS
10
5.57919
20
-4.1786
11
5.58606
21
-4.1905
0
LINE
8
BLACK
6
CONTINUOUS
10
5.58606
20
-4.1905
11
5.5915
21
-4.20311
0
LINE
8
BLACK
6
CONTINUOUS
10
5.5915
20
-4.20311
11
5.59544
21
-4.21627
0
LINE
8
BLACK
6
CONTINUOUS
10
5.59544
20
-4.21627
11
5.59782
21
-4.22979
0
LINE
8
BLACK
6
CONTINUOUS
10
5.59782
20
-4.22979
11
5.59862
21
-4.2435
0
LINE
8
BLACK
6
CONTINUOUS
10
5.59862
20
-4.2435
11
5.59782
21
-4.25722
0
LINE
8
BLACK
6
CONTINUOUS
10
5.59782
20
-4.25722
11
5.59544
21
-4.27074
0
LINE
8
BLACK
6
CONTINUOUS
10
5.59544
20
-4.27074
11
5.5915
21
-4.2839
0
LINE
8
BLACK
6
CONTINUOUS
10
5.5915
20
-4.2839
11
5.58606
21
-4.29651
0
LINE
8
BLACK
6
CONTINUOUS
10
5.58606
20
-4.29651
11
5.57919
21
-4.30841
0
LINE
8
BLACK
6
CONTINUOUS
10
5.57919
20
-4.30841
11
5.57099
21
-4.31942
0
LINE
8
BLACK
6
CONTINUOUS
10
5.57099
20
-4.31942
11
5.56156
21
-4.32941
0
LINE
8
BLACK
6
CONTINUOUS
10
5.56156
20
-4.32941
11
5.55104
21
-4.33824
0
LINE
8
BLACK
6
CONTINUOUS
10
5.55104
20
-4.33824
11
5.53957
21
-4.34579
0
LINE
8
BLACK
6
CONTINUOUS
10
5.53957
20
-4.34579
11
5.52729
21
-4.35195
0
LINE
8
BLACK
6
CONTINUOUS
10
5.52729
20
-4.35195
11
5.51439
21
-4.35665
0
LINE
8
BLACK
6
CONTINUOUS
10
5.51439
20
-4.35665
11
5.50102
21
-4.35982
0
LINE
8
BLACK
6
CONTINUOUS
10
5.50102
20
-4.35982
11
5.48738
21
-4.36141
0
LINE
8
BLACK
6
CONTINUOUS
10
5.48738
20
-4.36141
11
5.47364
21
-4.36141
0
LINE
8
BLACK
6
CONTINUOUS
10
5.47364
20
-4.36141
11
5.46
21
-4.35982
0
LINE
8
BLACK
6
CONTINUOUS
10
5.46
20
-4.35982
11
5.44664
21
-4.35665
0
LINE
8
BLACK
6
CONTINUOUS
10
5.44664
20
-4.35665
11
5.43373
21
-4.35195
0
LINE
8
BLACK
6
CONTINUOUS
10
5.43373
20
-4.35195
11
5.42146
21
-4.34579
0
LINE
8
BLACK
6
CONTINUOUS
10
5.42146
20
-4.34579
11
5.40998
21
-4.33824
0
LINE
8
BLACK
6
CONTINUOUS
10
5.40998
20
-4.33824
11
5.39946
21
-4.32941
0
LINE
8
BLACK
6
CONTINUOUS
10
5.39946
20
-4.32941
11
5.39003
21
-4.31942
0
LINE
8
BLACK
6
CONTINUOUS
10
5.39003
20
-4.31942
11
5.38183
21
-4.30841
0
LINE
8
BLACK
6
CONTINUOUS
10
5.38183
20
-4.30841
11
5.37496
21
-4.29651
0
LINE
8
BLACK
6
CONTINUOUS
10
5.37496
20
-4.29651
11
5.36952
21
-4.2839
0
LINE
8
BLACK
6
CONTINUOUS
10
5.36952
20
-4.2839
11
5.36559
21
-4.27074
0
LINE
8
BLACK
6
CONTINUOUS
10
5.36559
20
-4.27074
11
5.3632
21
-4.25722
0
LINE
8
BLACK
6
CONTINUOUS
10
5.3632
20
-4.25722
11
5.3624
21
-4.2435
0
LINE
8
BLACK
6
CONTINUOUS
10
5.3624
20
-4.2435
11
5.3632
21
-4.22979
0
LINE
8
BLACK
6
CONTINUOUS
10
5.3632
20
-4.22979
11
5.36559
21
-4.21627
0
LINE
8
BLACK
6
CONTINUOUS
10
5.36559
20
-4.21627
11
5.36952
21
-4.20311
0
LINE
8
BLACK
6
CONTINUOUS
10
5.36952
20
-4.20311
11
5.37496
21
-4.1905
0
LINE
8
BLACK
6
CONTINUOUS
10
5.37496
20
-4.1905
11
5.38183
21
-4.1786
0
LINE
8
BLACK
6
CONTINUOUS
10
5.38183
20
-4.1786
11
5.39003
21
-4.16758
0
LINE
8
BLACK
6
CONTINUOUS
10
5.39003
20
-4.16758
11
5.39946
21
-4.15759
0
LINE
8
BLACK
6
CONTINUOUS
10
5.39946
20
-4.15759
11
5.40998
21
-4.14876
0
LINE
8
BLACK
6
CONTINUOUS
10
5.40998
20
-4.14876
11
5.42146
21
-4.14122
0
LINE
8
BLACK
6
CONTINUOUS
10
5.42146
20
-4.14122
11
5.43373
21
-4.13505
0
LINE
8
BLACK
6
CONTINUOUS
10
5.43373
20
-4.13505
11
5.44664
21
-4.13036
0
LINE
8
BLACK
6
CONTINUOUS
10
5.44664
20
-4.13036
11
5.46
21
-4.12719
0
LINE
8
BLACK
6
CONTINUOUS
10
5.46
20
-4.12719
11
5.47364
21
-4.12559
0
LINE
8
BLACK
6
CONTINUOUS
10
5.47364
20
-4.12559
11
5.48738
21
-4.12559
0
LINE
8
BLACK
6
CONTINUOUS
10
5.48738
20
-4.12559
11
5.50102
21
-4.12719
0
LINE
8
BLACK
6
CONTINUOUS
10
6.70102
20
-4.12719
11
6.71439
21
-4.13036
0
LINE
8
BLACK
6
CONTINUOUS
10
6.71439
20
-4.13036
11
6.72729
21
-4.13505
0
LINE
8
BLACK
6
CONTINUOUS
10
6.72729
20
-4.13505
11
6.73957
21
-4.14122
0
LINE
8
BLACK
6
CONTINUOUS
10
6.73957
20
-4.14122
11
6.75104
21
-4.14876
0
LINE
8
BLACK
6
CONTINUOUS
10
6.75104
20
-4.14876
11
6.76156
21
-4.15759
0
LINE
8
BLACK
6
CONTINUOUS
10
6.76156
20
-4.15759
11
6.77099
21
-4.16758
0
LINE
8
BLACK
6
CONTINUOUS
10
6.77099
20
-4.16758
11
6.77919
21
-4.1786
0
LINE
8
BLACK
6
CONTINUOUS
10
6.77919
20
-4.1786
11
6.78606
21
-4.1905
0
LINE
8
BLACK
6
CONTINUOUS
10
6.78606
20
-4.1905
11
6.7915
21
-4.20311
0
LINE
8
BLACK
6
CONTINUOUS
10
6.7915
20
-4.20311
11
6.79544
21
-4.21627
0
LINE
8
BLACK
6
CONTINUOUS
10
6.79544
20
-4.21627
11
6.79782
21
-4.22979
0
LINE
8
BLACK
6
CONTINUOUS
10
6.79782
20
-4.22979
11
6.79862
21
-4.2435
0
LINE
8
BLACK
6
CONTINUOUS
10
6.79862
20
-4.2435
11
6.79782
21
-4.25722
0
LINE
8
BLACK
6
CONTINUOUS
10
6.79782
20
-4.25722
11
6.79544
21
-4.27074
0
LINE
8
BLACK
6
CONTINUOUS
10
6.79544
20
-4.27074
11
6.7915
21
-4.2839
0
LINE
8
BLACK
6
CONTINUOUS
10
6.7915
20
-4.2839
11
6.78606
21
-4.29651
0
LINE
8
BLACK
6
CONTINUOUS
10
6.78606
20
-4.29651
11
6.77919
21
-4.30841
0
LINE
8
BLACK
6
CONTINUOUS
10
6.77919
20
-4.30841
11
6.77099
21
-4.31942
0
LINE
8
BLACK
6
CONTINUOUS
10
6.77099
20
-4.31942
11
6.76156
21
-4.32941
0
LINE
8
BLACK
6
CONTINUOUS
10
6.76156
20
-4.32941
11
6.75104
21
-4.33824
0
LINE
8
BLACK
6
CONTINUOUS
10
6.75104
20
-4.33824
11
6.73957
21
-4.34579
0
LINE
8
BLACK
6
CONTINUOUS
10
6.73957
20
-4.34579
11
6.72729
21
-4.35195
0
LINE
8
BLACK
6
CONTINUOUS
10
6.72729
20
-4.35195
11
6.71439
21
-4.35665
0
LINE
8
BLACK
6
CONTINUOUS
10
6.71439
20
-4.35665
11
6.70102
21
-4.35982
0
LINE
8
BLACK
6
CONTINUOUS
10
6.70102
20
-4.35982
11
6.68738
21
-4.36141
0
LINE
8
BLACK
6
CONTINUOUS
10
6.68738
20
-4.36141
11
6.67364
21
-4.36141
0
LINE
8
BLACK
6
CONTINUOUS
10
6.67364
20
-4.36141
11
6.66
21
-4.35982
0
LINE
8
BLACK
6
CONTINUOUS
10
6.66
20
-4.35982
11
6.64664
21
-4.35665
0
LINE
8
BLACK
6
CONTINUOUS
10
6.64664
20
-4.35665
11
6.63373
21
-4.35195
0
LINE
8
BLACK
6
CONTINUOUS
10
6.63373
20
-4.35195
11
6.62146
21
-4.34579
0
LINE
8
BLACK
6
CONTINUOUS
10
6.62146
20
-4.34579
11
6.60998
21
-4.33824
0
LINE
8
BLACK
6
CONTINUOUS
10
6.60998
20
-4.33824
11
6.59946
21
-4.32941
0
LINE
8
BLACK
6
CONTINUOUS
10
6.59946
20
-4.32941
11
6.59003
21
-4.31942
0
LINE
8
BLACK
6
CONTINUOUS
10
6.59003
20
-4.31942
11
6.58183
21
-4.30841
0
LINE
8
BLACK
6
CONTINUOUS
10
6.58183
20
-4.30841
11
6.57496
21
-4.29651
0
LINE
8
BLACK
6
CONTINUOUS
10
6.57496
20
-4.29651
11
6.56952
21
-4.2839
0
LINE
8
BLACK
6
CONTINUOUS
10
6.56952
20
-4.2839
11
6.56559
21
-4.27074
0
LINE
8
BLACK
6
CONTINUOUS
10
6.56559
20
-4.27074
11
6.5632
21
-4.25722
0
LINE
8
BLACK
6
CONTINUOUS
10
6.5632
20
-4.25722
11
6.5624
21
-4.2435
0
LINE
8
BLACK
6
CONTINUOUS
10
6.5624
20
-4.2435
11
6.5632
21
-4.22979
0
LINE
8
BLACK
6
CONTINUOUS
10
6.5632
20
-4.22979
11
6.56559
21
-4.21627
0
LINE
8
BLACK
6
CONTINUOUS
10
6.56559
20
-4.21627
11
6.56952
21
-4.20311
0
LINE
8
BLACK
6
CONTINUOUS
10
6.56952
20
-4.20311
11
6.57496
21
-4.1905
0
LINE
8
BLACK
6
CONTINUOUS
10
6.57496
20
-4.1905
11
6.58183
21
-4.1786
0
LINE
8
BLACK
6
CONTINUOUS
10
6.58183
20
-4.1786
11
6.59003
21
-4.16758
0
LINE
8
BLACK
6
CONTINUOUS
10
6.59003
20
-4.16758
11
6.59946
21
-4.15759
0
LINE
8
BLACK
6
CONTINUOUS
10
6.59946
20
-4.15759
11
6.60998
21
-4.14876
0
LINE
8
BLACK
6
CONTINUOUS
10
6.60998
20
-4.14876
11
6.62146
21
-4.14122
0
LINE
8
BLACK
6
CONTINUOUS
10
6.62146
20
-4.14122
11
6.63373
21
-4.13505
0
LINE
8
BLACK
6
CONTINUOUS
10
6.63373
20
-4.13505
11
6.64664
21
-4.13036
0
LINE
8
BLACK
6
CONTINUOUS
10
6.64664
20
-4.13036
11
6.66
21
-4.12719
0
LINE
8
BLACK
6
CONTINUOUS
10
6.66
20
-4.12719
11
6.67364
21
-4.12559
0
LINE
8
BLACK
6
CONTINUOUS
10
6.67364
20
-4.12559
11
6.68738
21
-4.12559
0
LINE
8
BLACK
6
CONTINUOUS
10
6.68738
20
-4.12559
11
6.70102
21
-4.12719
0
LINE
8
BLACK
6
CONTINUOUS
10
6.14474
20
-4.23616
11
6.15369
21
-4.23856
0
LINE
8
BLACK
6
CONTINUOUS
10
6.15369
20
-4.23856
11
6.16209
21
-4.24248
0
LINE
8
BLACK
6
CONTINUOUS
10
6.16209
20
-4.24248
11
6.16968
21
-4.24779
0
LINE
8
BLACK
6
CONTINUOUS
10
6.16968
20
-4.24779
11
6.17623
21
-4.25434
0
LINE
8
BLACK
6
CONTINUOUS
10
6.17623
20
-4.25434
11
6.18154
21
-4.26193
0
LINE
8
BLACK
6
CONTINUOUS
10
6.18154
20
-4.26193
11
6.18546
21
-4.27033
0
LINE
8
BLACK
6
CONTINUOUS
10
6.18546
20
-4.27033
11
6.18785
21
-4.27927
0
LINE
8
BLACK
6
CONTINUOUS
10
6.18785
20
-4.27927
11
6.18866
21
-4.2885
0
LINE
8
BLACK
6
CONTINUOUS
10
6.18866
20
-4.2885
11
6.18785
21
-4.29773
0
LINE
8
BLACK
6
CONTINUOUS
10
6.18785
20
-4.29773
11
6.18546
21
-4.30668
0
LINE
8
BLACK
6
CONTINUOUS
10
6.18546
20
-4.30668
11
6.18154
21
-4.31508
0
LINE
8
BLACK
6
CONTINUOUS
10
6.18154
20
-4.31508
11
6.17623
21
-4.32267
0
LINE
8
BLACK
6
CONTINUOUS
10
6.17623
20
-4.32267
11
6.16968
21
-4.32922
0
LINE
8
BLACK
6
CONTINUOUS
10
6.16968
20
-4.32922
11
6.16209
21
-4.33453
0
LINE
8
BLACK
6
CONTINUOUS
10
6.16209
20
-4.33453
11
6.15369
21
-4.33845
0
LINE
8
BLACK
6
CONTINUOUS
10
6.15369
20
-4.33845
11
6.14474
21
-4.34085
0
LINE
8
BLACK
6
CONTINUOUS
10
6.14474
20
-4.34085
11
6.13551
21
-4.34165
0
LINE
8
BLACK
6
CONTINUOUS
10
6.13551
20
-4.34165
11
6.12628
21
-4.34085
0
LINE
8
BLACK
6
CONTINUOUS
10
6.12628
20
-4.34085
11
6.11733
21
-4.33845
0
LINE
8
BLACK
6
CONTINUOUS
10
6.11733
20
-4.33845
11
6.10894
21
-4.33453
0
LINE
8
BLACK
6
CONTINUOUS
10
6.10894
20
-4.33453
11
6.10135
21
-4.32922
0
LINE
8
BLACK
6
CONTINUOUS
10
6.10135
20
-4.32922
11
6.0948
21
-4.32267
0
LINE
8
BLACK
6
CONTINUOUS
10
6.0948
20
-4.32267
11
6.08948
21
-4.31508
0
LINE
8
BLACK
6
CONTINUOUS
10
6.08948
20
-4.31508
11
6.08557
21
-4.30668
0
LINE
8
BLACK
6
CONTINUOUS
10
6.08557
20
-4.30668
11
6.08317
21
-4.29773
0
LINE
8
BLACK
6
CONTINUOUS
10
6.08317
20
-4.29773
11
6.08236
21
-4.2885
0
LINE
8
BLACK
6
CONTINUOUS
10
6.08236
20
-4.2885
11
6.08317
21
-4.27927
0
LINE
8
BLACK
6
CONTINUOUS
10
6.08317
20
-4.27927
11
6.08557
21
-4.27033
0
LINE
8
BLACK
6
CONTINUOUS
10
6.08557
20
-4.27033
11
6.08948
21
-4.26193
0
LINE
8
BLACK
6
CONTINUOUS
10
6.08948
20
-4.26193
11
6.0948
21
-4.25434
0
LINE
8
BLACK
6
CONTINUOUS
10
6.0948
20
-4.25434
11
6.10135
21
-4.24779
0
LINE
8
BLACK
6
CONTINUOUS
10
6.10135
20
-4.24779
11
6.10894
21
-4.24248
0
LINE
8
BLACK
6
CONTINUOUS
10
6.10894
20
-4.24248
11
6.11733
21
-4.23856
0
LINE
8
BLACK
6
CONTINUOUS
10
6.11733
20
-4.23856
11
6.12628
21
-4.23616
0
LINE
8
BLACK
6
CONTINUOUS
10
6.12628
20
-4.23616
11
6.13551
21
-4.23535
0
LINE
8
BLACK
6
CONTINUOUS
10
6.13551
20
-4.23535
11
6.14474
21
-4.23616
0
LINE
8
BLACK
6
CONTINUOUS
10
6.48051
20
-4.3185
11
6.42051
21
-4.3185
0
LINE
8
BLACK
6
CONTINUOUS
10
6.42051
20
-4.3185
11
6.42051
21
-4.2585
0
LINE
8
BLACK
6
CONTINUOUS
10
6.42051
20
-4.2585
11
6.48051
21
-4.2585
0
LINE
8
BLACK
6
CONTINUOUS
10
6.48051
20
-4.2585
11
6.48051
21
-4.3185
0
LINE
8
BLACK
6
CONTINUOUS
10
6.48051
20
-4.2185
11
6.42051
21
-4.2185
0
LINE
8
BLACK
6
CONTINUOUS
10
6.42051
20
-4.2185
11
6.42051
21
-4.1585
0
LINE
8
BLACK
6
CONTINUOUS
10
6.42051
20
-4.1585
11
6.48051
21
-4.1585
0
LINE
8
BLACK
6
CONTINUOUS
10
6.48051
20
-4.1585
11
6.48051
21
-4.2185
0
LINE
8
BLACK
6
CONTINUOUS
10
5.44375
20
-3.91622
11
5.45218
21
-3.91911
0
LINE
8
BLACK
6
CONTINUOUS
10
5.45218
20
-3.91911
11
5.46001
21
-3.92335
0
LINE
8
BLACK
6
CONTINUOUS
10
5.46001
20
-3.92335
11
5.46704
21
-3.92882
0
LINE
8
BLACK
6
CONTINUOUS
10
5.46704
20
-3.92882
11
5.47308
21
-3.93538
0
LINE
8
BLACK
6
CONTINUOUS
10
5.47308
20
-3.93538
11
5.47795
21
-3.94283
0
LINE
8
BLACK
6
CONTINUOUS
10
5.47795
20
-3.94283
11
5.48153
21
-3.95099
0
LINE
8
BLACK
6
CONTINUOUS
10
5.48153
20
-3.95099
11
5.48371
21
-3.95963
0
LINE
8
BLACK
6
CONTINUOUS
10
5.48371
20
-3.95963
11
5.48445
21
-3.9685
0
LINE
8
BLACK
6
CONTINUOUS
10
5.48445
20
-3.9685
11
5.48371
21
-3.97738
0
LINE
8
BLACK
6
CONTINUOUS
10
5.48371
20
-3.97738
11
5.48153
21
-3.98602
0
LINE
8
BLACK
6
CONTINUOUS
10
5.48153
20
-3.98602
11
5.47795
21
-3.99418
0
LINE
8
BLACK
6
CONTINUOUS
10
5.47795
20
-3.99418
11
5.47308
21
-4.00163
0
LINE
8
BLACK
6
CONTINUOUS
10
5.47308
20
-4.00163
11
5.46704
21
-4.00819
0
LINE
8
BLACK
6
CONTINUOUS
10
5.46704
20
-4.00819
11
5.46001
21
-4.01366
0
LINE
8
BLACK
6
CONTINUOUS
10
5.46001
20
-4.01366
11
5.45218
21
-4.0179
0
LINE
8
BLACK
6
CONTINUOUS
10
5.45218
20
-4.0179
11
5.44375
21
-4.02079
0
LINE
8
BLACK
6
CONTINUOUS
10
5.44375
20
-4.02079
11
5.43497
21
-4.02226
0
LINE
8
BLACK
6
CONTINUOUS
10
5.43497
20
-4.02226
11
5.42606
21
-4.02226
0
LINE
8
BLACK
6
CONTINUOUS
10
5.42606
20
-4.02226
11
5.41727
21
-4.02079
0
LINE
8
BLACK
6
CONTINUOUS
10
5.41727
20
-4.02079
11
5.40885
21
-4.0179
0
LINE
8
BLACK
6
CONTINUOUS
10
5.40885
20
-4.0179
11
5.40101
21
-4.01366
0
LINE
8
BLACK
6
CONTINUOUS
10
5.40101
20
-4.01366
11
5.39398
21
-4.00819
0
LINE
8
BLACK
6
CONTINUOUS
10
5.39398
20
-4.00819
11
5.38795
21
-4.00163
0
LINE
8
BLACK
6
CONTINUOUS
10
5.38795
20
-4.00163
11
5.38308
21
-3.99418
0
LINE
8
BLACK
6
CONTINUOUS
10
5.38308
20
-3.99418
11
5.3795
21
-3.98602
0
LINE
8
BLACK
6
CONTINUOUS
10
5.3795
20
-3.98602
11
5.37731
21
-3.97738
0
LINE
8
BLACK
6
CONTINUOUS
10
5.37731
20
-3.97738
11
5.37657
21
-3.9685
0
LINE
8
BLACK
6
CONTINUOUS
10
5.37657
20
-3.9685
11
5.37731
21
-3.95963
0
LINE
8
BLACK
6
CONTINUOUS
10
5.37731
20
-3.95963
11
5.3795
21
-3.95099
0
LINE
8
BLACK
6
CONTINUOUS
10
5.3795
20
-3.95099
11
5.38308
21
-3.94283
0
LINE
8
BLACK
6
CONTINUOUS
10
5.38308
20
-3.94283
11
5.38795
21
-3.93538
0
LINE
8
BLACK
6
CONTINUOUS
10
5.38795
20
-3.93538
11
5.39398
21
-3.92882
0
LINE
8
BLACK
6
CONTINUOUS
10
5.39398
20
-3.92882
11
5.40101
21
-3.92335
0
LINE
8
BLACK
6
CONTINUOUS
10
5.40101
20
-3.92335
11
5.40885
21
-3.91911
0
LINE
8
BLACK
6
CONTINUOUS
10
5.40885
20
-3.91911
11
5.41727
21
-3.91622
0
LINE
8
BLACK
6
CONTINUOUS
10
5.41727
20
-3.91622
11
5.42606
21
-3.91475
0
LINE
8
BLACK
6
CONTINUOUS
10
5.42606
20
-3.91475
11
5.43497
21
-3.91475
0
LINE
8
BLACK
6
CONTINUOUS
10
5.43497
20
-3.91475
11
5.44375
21
-3.91622
0
LINE
8
BLACK
6
CONTINUOUS
10
5.64375
20
-3.91622
11
5.65218
21
-3.91911
0
LINE
8
BLACK
6
CONTINUOUS
10
5.65218
20
-3.91911
11
5.66001
21
-3.92335
0
LINE
8
BLACK
6
CONTINUOUS
10
5.66001
20
-3.92335
11
5.66704
21
-3.92882
0
LINE
8
BLACK
6
CONTINUOUS
10
5.66704
20
-3.92882
11
5.67308
21
-3.93538
0
LINE
8
BLACK
6
CONTINUOUS
10
5.67308
20
-3.93538
11
5.67795
21
-3.94283
0
LINE
8
BLACK
6
CONTINUOUS
10
5.67795
20
-3.94283
11
5.68153
21
-3.95099
0
LINE
8
BLACK
6
CONTINUOUS
10
5.68153
20
-3.95099
11
5.68371
21
-3.95963
0
LINE
8
BLACK
6
CONTINUOUS
10
5.68371
20
-3.95963
11
5.68445
21
-3.9685
0
LINE
8
BLACK
6
CONTINUOUS
10
5.68445
20
-3.9685
11
5.68371
21
-3.97738
0
LINE
8
BLACK
6
CONTINUOUS
10
5.68371
20
-3.97738
11
5.68153
21
-3.98602
0
LINE
8
BLACK
6
CONTINUOUS
10
5.68153
20
-3.98602
11
5.67795
21
-3.99418
0
LINE
8
BLACK
6
CONTINUOUS
10
5.67795
20
-3.99418
11
5.67308
21
-4.00163
0
LINE
8
BLACK
6
CONTINUOUS
10
5.67308
20
-4.00163
11
5.66704
21
-4.00819
0
LINE
8
BLACK
6
CONTINUOUS
10
5.66704
20
-4.00819
11
5.66001
21
-4.01366
0
LINE
8
BLACK
6
CONTINUOUS
10
5.66001
20
-4.01366
11
5.65218
21
-4.0179
0
LINE
8
BLACK
6
CONTINUOUS
10
5.65218
20
-4.0179
11
5.64375
21
-4.02079
0
LINE
8
BLACK
6
CONTINUOUS
10
5.64375
20
-4.02079
11
5.63497
21
-4.02226
0
LINE
8
BLACK
6
CONTINUOUS
10
5.63497
20
-4.02226
11
5.62606
21
-4.02226
0
LINE
8
BLACK
6
CONTINUOUS
10
5.62606
20
-4.02226
11
5.61727
21
-4.02079
0
LINE
8
BLACK
6
CONTINUOUS
10
5.61727
20
-4.02079
11
5.60885
21
-4.0179
0
LINE
8
BLACK
6
CONTINUOUS
10
5.60885
20
-4.0179
11
5.60101
21
-4.01366
0
LINE
8
BLACK
6
CONTINUOUS
10
5.60101
20
-4.01366
11
5.59398
21
-4.00819
0
LINE
8
BLACK
6
CONTINUOUS
10
5.59398
20
-4.00819
11
5.58795
21
-4.00163
0
LINE
8
BLACK
6
CONTINUOUS
10
5.58795
20
-4.00163
11
5.58308
21
-3.99418
0
LINE
8
BLACK
6
CONTINUOUS
10
5.58308
20
-3.99418
11
5.5795
21
-3.98602
0
LINE
8
BLACK
6
CONTINUOUS
10
5.5795
20
-3.98602
11
5.57731
21
-3.97738
0
LINE
8
BLACK
6
CONTINUOUS
10
5.57731
20
-3.97738
11
5.57657
21
-3.9685
0
LINE
8
BLACK
6
CONTINUOUS
10
5.57657
20
-3.9685
11
5.57731
21
-3.95963
0
LINE
8
BLACK
6
CONTINUOUS
10
5.57731
20
-3.95963
11
5.5795
21
-3.95099
0
LINE
8
BLACK
6
CONTINUOUS
10
5.5795
20
-3.95099
11
5.58308
21
-3.94283
0
LINE
8
BLACK
6
CONTINUOUS
10
5.58308
20
-3.94283
11
5.58795
21
-3.93538
0
LINE
8
BLACK
6
CONTINUOUS
10
5.58795
20
-3.93538
11
5.59398
21
-3.92882
0
LINE
8
BLACK
6
CONTINUOUS
10
5.59398
20
-3.92882
11
5.60101
21
-3.92335
0
LINE
8
BLACK
6
CONTINUOUS
10
5.60101
20
-3.92335
11
5.60885
21
-3.91911
0
LINE
8
BLACK
6
CONTINUOUS
10
5.60885
20
-3.91911
11
5.61727
21
-3.91622
0
LINE
8
BLACK
6
CONTINUOUS
10
5.61727
20
-3.91622
11
5.62606
21
-3.91475
0
LINE
8
BLACK
6
CONTINUOUS
10
5.62606
20
-3.91475
11
5.63497
21
-3.91475
0
LINE
8
BLACK
6
CONTINUOUS
10
5.63497
20
-3.91475
11
5.64375
21
-3.91622
0
LINE
8
BLACK
6
CONTINUOUS
10
6.54375
20
-3.91622
11
6.55218
21
-3.91911
0
LINE
8
BLACK
6
CONTINUOUS
10
6.55218
20
-3.91911
11
6.56001
21
-3.92335
0
LINE
8
BLACK
6
CONTINUOUS
10
6.56001
20
-3.92335
11
6.56704
21
-3.92882
0
LINE
8
BLACK
6
CONTINUOUS
10
6.56704
20
-3.92882
11
6.57308
21
-3.93538
0
LINE
8
BLACK
6
CONTINUOUS
10
6.57308
20
-3.93538
11
6.57795
21
-3.94283
0
LINE
8
BLACK
6
CONTINUOUS
10
6.57795
20
-3.94283
11
6.58153
21
-3.95099
0
LINE
8
BLACK
6
CONTINUOUS
10
6.58153
20
-3.95099
11
6.58371
21
-3.95963
0
LINE
8
BLACK
6
CONTINUOUS
10
6.58371
20
-3.95963
11
6.58445
21
-3.9685
0
LINE
8
BLACK
6
CONTINUOUS
10
6.58445
20
-3.9685
11
6.58371
21
-3.97738
0
LINE
8
BLACK
6
CONTINUOUS
10
6.58371
20
-3.97738
11
6.58153
21
-3.98602
0
LINE
8
BLACK
6
CONTINUOUS
10
6.58153
20
-3.98602
11
6.57795
21
-3.99418
0
LINE
8
BLACK
6
CONTINUOUS
10
6.57795
20
-3.99418
11
6.57308
21
-4.00163
0
LINE
8
BLACK
6
CONTINUOUS
10
6.57308
20
-4.00163
11
6.56704
21
-4.00819
0
LINE
8
BLACK
6
CONTINUOUS
10
6.56704
20
-4.00819
11
6.56001
21
-4.01366
0
LINE
8
BLACK
6
CONTINUOUS
10
6.56001
20
-4.01366
11
6.55218
21
-4.0179
0
LINE
8
BLACK
6
CONTINUOUS
10
6.55218
20
-4.0179
11
6.54375
21
-4.02079
0
LINE
8
BLACK
6
CONTINUOUS
10
6.54375
20
-4.02079
11
6.53497
21
-4.02226
0
LINE
8
BLACK
6
CONTINUOUS
10
6.53497
20
-4.02226
11
6.52606
21
-4.02226
0
LINE
8
BLACK
6
CONTINUOUS
10
6.52606
20
-4.02226
11
6.51727
21
-4.02079
0
LINE
8
BLACK
6
CONTINUOUS
10
6.51727
20
-4.02079
11
6.50885
21
-4.0179
0
LINE
8
BLACK
6
CONTINUOUS
10
6.50885
20
-4.0179
11
6.50101
21
-4.01366
0
LINE
8
BLACK
6
CONTINUOUS
10
6.50101
20
-4.01366
11
6.49398
21
-4.00819
0
LINE
8
BLACK
6
CONTINUOUS
10
6.49398
20
-4.00819
11
6.48795
21
-4.00163
0
LINE
8
BLACK
6
CONTINUOUS
10
6.48795
20
-4.00163
11
6.48308
21
-3.99418
0
LINE
8
BLACK
6
CONTINUOUS
10
6.48308
20
-3.99418
11
6.4795
21
-3.98602
0
LINE
8
BLACK
6
CONTINUOUS
10
6.4795
20
-3.98602
11
6.47731
21
-3.97738
0
LINE
8
BLACK
6
CONTINUOUS
10
6.47731
20
-3.97738
11
6.47657
21
-3.9685
0
LINE
8
BLACK
6
CONTINUOUS
10
6.47657
20
-3.9685
11
6.47731
21
-3.95963
0
LINE
8
BLACK
6
CONTINUOUS
10
6.47731
20
-3.95963
11
6.4795
21
-3.95099
0
LINE
8
BLACK
6
CONTINUOUS
10
6.4795
20
-3.95099
11
6.48308
21
-3.94283
0
LINE
8
BLACK
6
CONTINUOUS
10
6.48308
20
-3.94283
11
6.48795
21
-3.93538
0
LINE
8
BLACK
6
CONTINUOUS
10
6.48795
20
-3.93538
11
6.49398
21
-3.92882
0
LINE
8
BLACK
6
CONTINUOUS
10
6.49398
20
-3.92882
11
6.50101
21
-3.92335
0
LINE
8
BLACK
6
CONTINUOUS
10
6.50101
20
-3.92335
11
6.50885
21
-3.91911
0
LINE
8
BLACK
6
CONTINUOUS
10
6.50885
20
-3.91911
11
6.51727
21
-3.91622
0
LINE
8
BLACK
6
CONTINUOUS
10
6.51727
20
-3.91622
11
6.52606
21
-3.91475
0
LINE
8
BLACK
6
CONTINUOUS
10
6.52606
20
-3.91475
11
6.53497
21
-3.91475
0
LINE
8
BLACK
6
CONTINUOUS
10
6.53497
20
-3.91475
11
6.54375
21
-3.91622
0
LINE
8
BLACK
6
CONTINUOUS
10
6.74375
20
-3.91622
11
6.75218
21
-3.91911
0
LINE
8
BLACK
6
CONTINUOUS
10
6.75218
20
-3.91911
11
6.76001
21
-3.92335
0
LINE
8
BLACK
6
CONTINUOUS
10
6.76001
20
-3.92335
11
6.76704
21
-3.92882
0
LINE
8
BLACK
6
CONTINUOUS
10
6.76704
20
-3.92882
11
6.77308
21
-3.93538
0
LINE
8
BLACK
6
CONTINUOUS
10
6.77308
20
-3.93538
11
6.77795
21
-3.94283
0
LINE
8
BLACK
6
CONTINUOUS
10
6.77795
20
-3.94283
11
6.78153
21
-3.95099
0
LINE
8
BLACK
6
CONTINUOUS
10
6.78153
20
-3.95099
11
6.78371
21
-3.95963
0
LINE
8
BLACK
6
CONTINUOUS
10
6.78371
20
-3.95963
11
6.78445
21
-3.9685
0
LINE
8
BLACK
6
CONTINUOUS
10
6.78445
20
-3.9685
11
6.78371
21
-3.97738
0
LINE
8
BLACK
6
CONTINUOUS
10
6.78371
20
-3.97738
11
6.78153
21
-3.98602
0
LINE
8
BLACK
6
CONTINUOUS
10
6.78153
20
-3.98602
11
6.77795
21
-3.99418
0
LINE
8
BLACK
6
CONTINUOUS
10
6.77795
20
-3.99418
11
6.77308
21
-4.00163
0
LINE
8
BLACK
6
CONTINUOUS
10
6.77308
20
-4.00163
11
6.76704
21
-4.00819
0
LINE
8
BLACK
6
CONTINUOUS
10
6.76704
20
-4.00819
11
6.76001
21
-4.01366
0
LINE
8
BLACK
6
CONTINUOUS
10
6.76001
20
-4.01366
11
6.75218
21
-4.0179
0
LINE
8
BLACK
6
CONTINUOUS
10
6.75218
20
-4.0179
11
6.74375
21
-4.02079
0
LINE
8
BLACK
6
CONTINUOUS
10
6.74375
20
-4.02079
11
6.73497
21
-4.02226
0
LINE
8
BLACK
6
CONTINUOUS
10
6.73497
20
-4.02226
11
6.72606
21
-4.02226
0
LINE
8
BLACK
6
CONTINUOUS
10
6.72606
20
-4.02226
11
6.71727
21
-4.02079
0
LINE
8
BLACK
6
CONTINUOUS
10
6.71727
20
-4.02079
11
6.70885
21
-4.0179
0
LINE
8
BLACK
6
CONTINUOUS
10
6.70885
20
-4.0179
11
6.70101
21
-4.01366
0
LINE
8
BLACK
6
CONTINUOUS
10
6.70101
20
-4.01366
11
6.69398
21
-4.00819
0
LINE
8
BLACK
6
CONTINUOUS
10
6.69398
20
-4.00819
11
6.68795
21
-4.00163
0
LINE
8
BLACK
6
CONTINUOUS
10
6.68795
20
-4.00163
11
6.68308
21
-3.99418
0
LINE
8
BLACK
6
CONTINUOUS
10
6.68308
20
-3.99418
11
6.6795
21
-3.98602
0
LINE
8
BLACK
6
CONTINUOUS
10
6.6795
20
-3.98602
11
6.67731
21
-3.97738
0
LINE
8
BLACK
6
CONTINUOUS
10
6.67731
20
-3.97738
11
6.67657
21
-3.9685
0
LINE
8
BLACK
6
CONTINUOUS
10
6.67657
20
-3.9685
11
6.67731
21
-3.95963
0
LINE
8
BLACK
6
CONTINUOUS
10
6.67731
20
-3.95963
11
6.6795
21
-3.95099
0
LINE
8
BLACK
6
CONTINUOUS
10
6.6795
20
-3.95099
11
6.68308
21
-3.94283
0
LINE
8
BLACK
6
CONTINUOUS
10
6.68308
20
-3.94283
11
6.68795
21
-3.93538
0
LINE
8
BLACK
6
CONTINUOUS
10
6.68795
20
-3.93538
11
6.69398
21
-3.92882
0
LINE
8
BLACK
6
CONTINUOUS
10
6.69398
20
-3.92882
11
6.70101
21
-3.92335
0
LINE
8
BLACK
6
CONTINUOUS
10
6.70101
20
-3.92335
11
6.70885
21
-3.91911
0
LINE
8
BLACK
6
CONTINUOUS
10
6.70885
20
-3.91911
11
6.71727
21
-3.91622
0
LINE
8
BLACK
6
CONTINUOUS
10
6.71727
20
-3.91622
11
6.72606
21
-3.91475
0
LINE
8
BLACK
6
CONTINUOUS
10
6.72606
20
-3.91475
11
6.73497
21
-3.91475
0
LINE
8
BLACK
6
CONTINUOUS
10
6.73497
20
-3.91475
11
6.74375
21
-3.91622
0
LINE
8
BLACK
6
CONTINUOUS
10
5.54258
20
-3.82609
11
5.55017
21
-3.82903
0
LINE
8
BLACK
6
CONTINUOUS
10
5.55017
20
-3.82903
11
5.55708
21
-3.83332
0
LINE
8
BLACK
6
CONTINUOUS
10
5.55708
20
-3.83332
11
5.5631
21
-3.8388
0
LINE
8
BLACK
6
CONTINUOUS
10
5.5631
20
-3.8388
11
5.568
21
-3.84529
0
LINE
8
BLACK
6
CONTINUOUS
10
5.568
20
-3.84529
11
5.57163
21
-3.85258
0
LINE
8
BLACK
6
CONTINUOUS
10
5.57163
20
-3.85258
11
5.57386
21
-3.8604
0
LINE
8
BLACK
6
CONTINUOUS
10
5.57386
20
-3.8604
11
5.57461
21
-3.8685
0
LINE
8
BLACK
6
CONTINUOUS
10
5.57461
20
-3.8685
11
5.57386
21
-3.87661
0
LINE
8
BLACK
6
CONTINUOUS
10
5.57386
20
-3.87661
11
5.57163
21
-3.88443
0
LINE
8
BLACK
6
CONTINUOUS
10
5.57163
20
-3.88443
11
5.568
21
-3.89172
0
LINE
8
BLACK
6
CONTINUOUS
10
5.568
20
-3.89172
11
5.5631
21
-3.89821
0
LINE
8
BLACK
6
CONTINUOUS
10
5.5631
20
-3.89821
11
5.55708
21
-3.90369
0
LINE
8
BLACK
6
CONTINUOUS
10
5.55708
20
-3.90369
11
5.55017
21
-3.90798
0
LINE
8
BLACK
6
CONTINUOUS
10
5.55017
20
-3.90798
11
5.54258
21
-3.91092
0
LINE
8
BLACK
6
CONTINUOUS
10
5.54258
20
-3.91092
11
5.53458
21
-3.91241
0
LINE
8
BLACK
6
CONTINUOUS
10
5.53458
20
-3.91241
11
5.52644
21
-3.91241
0
LINE
8
BLACK
6
CONTINUOUS
10
5.52644
20
-3.91241
11
5.51844
21
-3.91092
0
LINE
8
BLACK
6
CONTINUOUS
10
5.51844
20
-3.91092
11
5.51086
21
-3.90798
0
LINE
8
BLACK
6
CONTINUOUS
10
5.51086
20
-3.90798
11
5.50394
21
-3.90369
0
LINE
8
BLACK
6
CONTINUOUS
10
5.50394
20
-3.90369
11
5.49793
21
-3.89821
0
LINE
8
BLACK
6
CONTINUOUS
10
5.49793
20
-3.89821
11
5.49302
21
-3.89172
0
LINE
8
BLACK
6
CONTINUOUS
10
5.49302
20
-3.89172
11
5.48939
21
-3.88443
0
LINE
8
BLACK
6
CONTINUOUS
10
5.48939
20
-3.88443
11
5.48717
21
-3.87661
0
LINE
8
BLACK
6
CONTINUOUS
10
5.48717
20
-3.87661
11
5.48642
21
-3.8685
0
LINE
8
BLACK
6
CONTINUOUS
10
5.48642
20
-3.8685
11
5.48717
21
-3.8604
0
LINE
8
BLACK
6
CONTINUOUS
10
5.48717
20
-3.8604
11
5.48939
21
-3.85258
0
LINE
8
BLACK
6
CONTINUOUS
10
5.48939
20
-3.85258
11
5.49302
21
-3.84529
0
LINE
8
BLACK
6
CONTINUOUS
10
5.49302
20
-3.84529
11
5.49793
21
-3.8388
0
LINE
8
BLACK
6
CONTINUOUS
10
5.49793
20
-3.8388
11
5.50394
21
-3.83332
0
LINE
8
BLACK
6
CONTINUOUS
10
5.50394
20
-3.83332
11
5.51086
21
-3.82903
0
LINE
8
BLACK
6
CONTINUOUS
10
5.51086
20
-3.82903
11
5.51844
21
-3.82609
0
LINE
8
BLACK
6
CONTINUOUS
10
5.51844
20
-3.82609
11
5.52644
21
-3.8246
0
LINE
8
BLACK
6
CONTINUOUS
10
5.52644
20
-3.8246
11
5.53458
21
-3.8246
0
LINE
8
BLACK
6
CONTINUOUS
10
5.53458
20
-3.8246
11
5.54258
21
-3.82609
0
LINE
8
BLACK
6
CONTINUOUS
10
6.64258
20
-3.82609
11
6.65017
21
-3.82903
0
LINE
8
BLACK
6
CONTINUOUS
10
6.65017
20
-3.82903
11
6.65708
21
-3.83332
0
LINE
8
BLACK
6
CONTINUOUS
10
6.65708
20
-3.83332
11
6.6631
21
-3.8388
0
LINE
8
BLACK
6
CONTINUOUS
10
6.6631
20
-3.8388
11
6.668
21
-3.84529
0
LINE
8
BLACK
6
CONTINUOUS
10
6.668
20
-3.84529
11
6.67163
21
-3.85258
0
LINE
8
BLACK
6
CONTINUOUS
10
6.67163
20
-3.85258
11
6.67386
21
-3.8604
0
LINE
8
BLACK
6
CONTINUOUS
10
6.67386
20
-3.8604
11
6.67461
21
-3.8685
0
LINE
8
BLACK
6
CONTINUOUS
10
6.67461
20
-3.8685
11
6.67386
21
-3.87661
0
LINE
8
BLACK
6
CONTINUOUS
10
6.67386
20
-3.87661
11
6.67163
21
-3.88443
0
LINE
8
BLACK
6
CONTINUOUS
10
6.67163
20
-3.88443
11
6.668
21
-3.89172
0
LINE
8
BLACK
6
CONTINUOUS
10
6.668
20
-3.89172
11
6.6631
21
-3.89821
0
LINE
8
BLACK
6
CONTINUOUS
10
6.6631
20
-3.89821
11
6.65708
21
-3.90369
0
LINE
8
BLACK
6
CONTINUOUS
10
6.65708
20
-3.90369
11
6.65017
21
-3.90798
0
LINE
8
BLACK
6
CONTINUOUS
10
6.65017
20
-3.90798
11
6.64258
21
-3.91092
0
LINE
8
BLACK
6
CONTINUOUS
10
6.64258
20
-3.91092
11
6.63458
21
-3.91241
0
LINE
8
BLACK
6
CONTINUOUS
10
6.63458
20
-3.91241
11
6.62644
21
-3.91241
0
LINE
8
BLACK
6
CONTINUOUS
10
6.62644
20
-3.91241
11
6.61844
21
-3.91092
0
LINE
8
BLACK
6
CONTINUOUS
10
6.61844
20
-3.91092
11
6.61086
21
-3.90798
0
LINE
8
BLACK
6
CONTINUOUS
10
6.61086
20
-3.90798
11
6.60394
21
-3.90369
0
LINE
8
BLACK
6
CONTINUOUS
10
6.60394
20
-3.90369
11
6.59793
21
-3.89821
0
LINE
8
BLACK
6
CONTINUOUS
10
6.59793
20
-3.89821
11
6.59302
21
-3.89172
0
LINE
8
BLACK
6
CONTINUOUS
10
6.59302
20
-3.89172
11
6.58939
21
-3.88443
0
LINE
8
BLACK
6
CONTINUOUS
10
6.58939
20
-3.88443
11
6.58717
21
-3.87661
0
LINE
8
BLACK
6
CONTINUOUS
10
6.58717
20
-3.87661
11
6.58642
21
-3.8685
0
LINE
8
BLACK
6
CONTINUOUS
10
6.58642
20
-3.8685
11
6.58717
21
-3.8604
0
LINE
8
BLACK
6
CONTINUOUS
10
6.58717
20
-3.8604
11
6.58939
21
-3.85258
0
LINE
8
BLACK
6
CONTINUOUS
10
6.58939
20
-3.85258
11
6.59302
21
-3.84529
0
LINE
8
BLACK
6
CONTINUOUS
10
6.59302
20
-3.84529
11
6.59793
21
-3.8388
0
LINE
8
BLACK
6
CONTINUOUS
10
6.59793
20
-3.8388
11
6.60394
21
-3.83332
0
LINE
8
BLACK
6
CONTINUOUS
10
6.60394
20
-3.83332
11
6.61086
21
-3.82903
0
LINE
8
BLACK
6
CONTINUOUS
10
6.61086
20
-3.82903
11
6.61844
21
-3.82609
0
LINE
8
BLACK
6
CONTINUOUS
10
6.61844
20
-3.82609
11
6.62644
21
-3.8246
0
LINE
8
BLACK
6
CONTINUOUS
10
6.62644
20
-3.8246
11
6.63458
21
-3.8246
0
LINE
8
BLACK
6
CONTINUOUS
10
6.63458
20
-3.8246
11
6.64258
21
-3.82609
0
LINE
8
BLACK
6
CONTINUOUS
10
5.44375
20
-3.71622
11
5.45218
21
-3.71911
0
LINE
8
BLACK
6
CONTINUOUS
10
5.45218
20
-3.71911
11
5.46001
21
-3.72335
0
LINE
8
BLACK
6
CONTINUOUS
10
5.46001
20
-3.72335
11
5.46704
21
-3.72882
0
LINE
8
BLACK
6
CONTINUOUS
10
5.46704
20
-3.72882
11
5.47308
21
-3.73538
0
LINE
8
BLACK
6
CONTINUOUS
10
5.47308
20
-3.73538
11
5.47795
21
-3.74283
0
LINE
8
BLACK
6
CONTINUOUS
10
5.47795
20
-3.74283
11
5.48153
21
-3.75099
0
LINE
8
BLACK
6
CONTINUOUS
10
5.48153
20
-3.75099
11
5.48371
21
-3.75963
0
LINE
8
BLACK
6
CONTINUOUS
10
5.48371
20
-3.75963
11
5.48445
21
-3.7685
0
LINE
8
BLACK
6
CONTINUOUS
10
5.48445
20
-3.7685
11
5.48371
21
-3.77738
0
LINE
8
BLACK
6
CONTINUOUS
10
5.48371
20
-3.77738
11
5.48153
21
-3.78602
0
LINE
8
BLACK
6
CONTINUOUS
10
5.48153
20
-3.78602
11
5.47795
21
-3.79418
0
LINE
8
BLACK
6
CONTINUOUS
10
5.47795
20
-3.79418
11
5.47308
21
-3.80163
0
LINE
8
BLACK
6
CONTINUOUS
10
5.47308
20
-3.80163
11
5.46704
21
-3.80819
0
LINE
8
BLACK
6
CONTINUOUS
10
5.46704
20
-3.80819
11
5.46001
21
-3.81366
0
LINE
8
BLACK
6
CONTINUOUS
10
5.46001
20
-3.81366
11
5.45218
21
-3.8179
0
LINE
8
BLACK
6
CONTINUOUS
10
5.45218
20
-3.8179
11
5.44375
21
-3.82079
0
LINE
8
BLACK
6
CONTINUOUS
10
5.44375
20
-3.82079
11
5.43497
21
-3.82226
0
LINE
8
BLACK
6
CONTINUOUS
10
5.43497
20
-3.82226
11
5.42606
21
-3.82226
0
LINE
8
BLACK
6
CONTINUOUS
10
5.42606
20
-3.82226
11
5.41727
21
-3.82079
0
LINE
8
BLACK
6
CONTINUOUS
10
5.41727
20
-3.82079
11
5.40885
21
-3.8179
0
LINE
8
BLACK
6
CONTINUOUS
10
5.40885
20
-3.8179
11
5.40101
21
-3.81366
0
LINE
8
BLACK
6
CONTINUOUS
10
5.40101
20
-3.81366
11
5.39398
21
-3.80819
0
LINE
8
BLACK
6
CONTINUOUS
10
5.39398
20
-3.80819
11
5.38795
21
-3.80163
0
LINE
8
BLACK
6
CONTINUOUS
10
5.38795
20
-3.80163
11
5.38308
21
-3.79418
0
LINE
8
BLACK
6
CONTINUOUS
10
5.38308
20
-3.79418
11
5.3795
21
-3.78602
0
LINE
8
BLACK
6
CONTINUOUS
10
5.3795
20
-3.78602
11
5.37731
21
-3.77738
0
LINE
8
BLACK
6
CONTINUOUS
10
5.37731
20
-3.77738
11
5.37657
21
-3.7685
0
LINE
8
BLACK
6
CONTINUOUS
10
5.37657
20
-3.7685
11
5.37731
21
-3.75963
0
LINE
8
BLACK
6
CONTINUOUS
10
5.37731
20
-3.75963
11
5.3795
21
-3.75099
0
LINE
8
BLACK
6
CONTINUOUS
10
5.3795
20
-3.75099
11
5.38308
21
-3.74283
0
LINE
8
BLACK
6
CONTINUOUS
10
5.38308
20
-3.74283
11
5.38795
21
-3.73538
0
LINE
8
BLACK
6
CONTINUOUS
10
5.38795
20
-3.73538
11
5.39398
21
-3.72882
0
LINE
8
BLACK
6
CONTINUOUS
10
5.39398
20
-3.72882
11
5.40101
21
-3.72335
0
LINE
8
BLACK
6
CONTINUOUS
10
5.40101
20
-3.72335
11
5.40885
21
-3.71911
0
LINE
8
BLACK
6
CONTINUOUS
10
5.40885
20
-3.71911
11
5.41727
21
-3.71622
0
LINE
8
BLACK
6
CONTINUOUS
10
5.41727
20
-3.71622
11
5.42606
21
-3.71475
0
LINE
8
BLACK
6
CONTINUOUS
10
5.42606
20
-3.71475
11
5.43497
21
-3.71475
0
LINE
8
BLACK
6
CONTINUOUS
10
5.43497
20
-3.71475
11
5.44375
21
-3.71622
0
LINE
8
BLACK
6
CONTINUOUS
10
5.64375
20
-3.71622
11
5.65218
21
-3.71911
0
LINE
8
BLACK
6
CONTINUOUS
10
5.65218
20
-3.71911
11
5.66001
21
-3.72335
0
LINE
8
BLACK
6
CONTINUOUS
10
5.66001
20
-3.72335
11
5.66704
21
-3.72882
0
LINE
8
BLACK
6
CONTINUOUS
10
5.66704
20
-3.72882
11
5.67308
21
-3.73538
0
LINE
8
BLACK
6
CONTINUOUS
10
5.67308
20
-3.73538
11
5.67795
21
-3.74283
0
LINE
8
BLACK
6
CONTINUOUS
10
5.67795
20
-3.74283
11
5.68153
21
-3.75099
0
LINE
8
BLACK
6
CONTINUOUS
10
5.68153
20
-3.75099
11
5.68371
21
-3.75963
0
LINE
8
BLACK
6
CONTINUOUS
10
5.68371
20
-3.75963
11
5.68445
21
-3.7685
0
LINE
8
BLACK
6
CONTINUOUS
10
5.68445
20
-3.7685
11
5.68371
21
-3.77738
0
LINE
8
BLACK
6
CONTINUOUS
10
5.68371
20
-3.77738
11
5.68153
21
-3.78602
0
LINE
8
BLACK
6
CONTINUOUS
10
5.68153
20
-3.78602
11
5.67795
21
-3.79418
0
LINE
8
BLACK
6
CONTINUOUS
10
5.67795
20
-3.79418
11
5.67308
21
-3.80163
0
LINE
8
BLACK
6
CONTINUOUS
10
5.67308
20
-3.80163
11
5.66704
21
-3.80819
0
LINE
8
BLACK
6
CONTINUOUS
10
5.66704
20
-3.80819
11
5.66001
21
-3.81366
0
LINE
8
BLACK
6
CONTINUOUS
10
5.66001
20
-3.81366
11
5.65218
21
-3.8179
0
LINE
8
BLACK
6
CONTINUOUS
10
5.65218
20
-3.8179
11
5.64375
21
-3.82079
0
LINE
8
BLACK
6
CONTINUOUS
10
5.64375
20
-3.82079
11
5.63497
21
-3.82226
0
LINE
8
BLACK
6
CONTINUOUS
10
5.63497
20
-3.82226
11
5.62606
21
-3.82226
0
LINE
8
BLACK
6
CONTINUOUS
10
5.62606
20
-3.82226
11
5.61727
21
-3.82079
0
LINE
8
BLACK
6
CONTINUOUS
10
5.61727
20
-3.82079
11
5.60885
21
-3.8179
0
LINE
8
BLACK
6
CONTINUOUS
10
5.60885
20
-3.8179
11
5.60101
21
-3.81366
0
LINE
8
BLACK
6
CONTINUOUS
10
5.60101
20
-3.81366
11
5.59398
21
-3.80819
0
LINE
8
BLACK
6
CONTINUOUS
10
5.59398
20
-3.80819
11
5.58795
21
-3.80163
0
LINE
8
BLACK
6
CONTINUOUS
10
5.58795
20
-3.80163
11
5.58308
21
-3.79418
0
LINE
8
BLACK
6
CONTINUOUS
10
5.58308
20
-3.79418
11
5.5795
21
-3.78602
0
LINE
8
BLACK
6
CONTINUOUS
10
5.5795
20
-3.78602
11
5.57731
21
-3.77738
0
LINE
8
BLACK
6
CONTINUOUS
10
5.57731
20
-3.77738
11
5.57657
21
-3.7685
0
LINE
8
BLACK
6
CONTINUOUS
10
5.57657
20
-3.7685
11
5.57731
21
-3.75963
0
LINE
8
BLACK
6
CONTINUOUS
10
5.57731
20
-3.75963
11
5.5795
21
-3.75099
0
LINE
8
BLACK
6
CONTINUOUS
10
5.5795
20
-3.75099
11
5.58308
21
-3.74283
0
LINE
8
BLACK
6
CONTINUOUS
10
5.58308
20
-3.74283
11
5.58795
21
-3.73538
0
LINE
8
BLACK
6
CONTINUOUS
10
5.58795
20
-3.73538
11
5.59398
21
-3.72882
0
LINE
8
BLACK
6
CONTINUOUS
10
5.59398
20
-3.72882
11
5.60101
21
-3.72335
0
LINE
8
BLACK
6
CONTINUOUS
10
5.60101
20
-3.72335
11
5.60885
21
-3.71911
0
LINE
8
BLACK
6
CONTINUOUS
10
5.60885
20
-3.71911
11
5.61727
21
-3.71622
0
LINE
8
BLACK
6
CONTINUOUS
10
5.61727
20
-3.71622
11
5.62606
21
-3.71475
0
LINE
8
BLACK
6
CONTINUOUS
10
5.62606
20
-3.71475
11
5.63497
21
-3.71475
0
LINE
8
BLACK
6
CONTINUOUS
10
5.63497
20
-3.71475
11
5.64375
21
-3.71622
0
LINE
8
BLACK
6
CONTINUOUS
10
6.54375
20
-3.71622
11
6.55218
21
-3.71911
0
LINE
8
BLACK
6
CONTINUOUS
10
6.55218
20
-3.71911
11
6.56001
21
-3.72335
0
LINE
8
BLACK
6
CONTINUOUS
10
6.56001
20
-3.72335
11
6.56704
21
-3.72882
0
LINE
8
BLACK
6
CONTINUOUS
10
6.56704
20
-3.72882
11
6.57308
21
-3.73538
0
LINE
8
BLACK
6
CONTINUOUS
10
6.57308
20
-3.73538
11
6.57795
21
-3.74283
0
LINE
8
BLACK
6
CONTINUOUS
10
6.57795
20
-3.74283
11
6.58153
21
-3.75099
0
LINE
8
BLACK
6
CONTINUOUS
10
6.58153
20
-3.75099
11
6.58371
21
-3.75963
0
LINE
8
BLACK
6
CONTINUOUS
10
6.58371
20
-3.75963
11
6.58445
21
-3.7685
0
LINE
8
BLACK
6
CONTINUOUS
10
6.58445
20
-3.7685
11
6.58371
21
-3.77738
0
LINE
8
BLACK
6
CONTINUOUS
10
6.58371
20
-3.77738
11
6.58153
21
-3.78602
0
LINE
8
BLACK
6
CONTINUOUS
10
6.58153
20
-3.78602
11
6.57795
21
-3.79418
0
LINE
8
BLACK
6
CONTINUOUS
10
6.57795
20
-3.79418
11
6.57308
21
-3.80163
0
LINE
8
BLACK
6
CONTINUOUS
10
6.57308
20
-3.80163
11
6.56704
21
-3.80819
0
LINE
8
BLACK
6
CONTINUOUS
10
6.56704
20
-3.80819
11
6.56001
21
-3.81366
0
LINE
8
BLACK
6
CONTINUOUS
10
6.56001
20
-3.81366
11
6.55218
21
-3.8179
0
LINE
8
BLACK
6
CONTINUOUS
10
6.55218
20
-3.8179
11
6.54375
21
-3.82079
0
LINE
8
BLACK
6
CONTINUOUS
10
6.54375
20
-3.82079
11
6.53497
21
-3.82226
0
LINE
8
BLACK
6
CONTINUOUS
10
6.53497
20
-3.82226
11
6.52606
21
-3.82226
0
LINE
8
BLACK
6
CONTINUOUS
10
6.52606
20
-3.82226
11
6.51727
21
-3.82079
0
LINE
8
BLACK
6
CONTINUOUS
10
6.51727
20
-3.82079
11
6.50885
21
-3.8179
0
LINE
8
BLACK
6
CONTINUOUS
10
6.50885
20
-3.8179
11
6.50101
21
-3.81366
0
LINE
8
BLACK
6
CONTINUOUS
10
6.50101
20
-3.81366
11
6.49398
21
-3.80819
0
LINE
8
BLACK
6
CONTINUOUS
10
6.49398
20
-3.80819
11
6.48795
21
-3.80163
0
LINE
8
BLACK
6
CONTINUOUS
10
6.48795
20
-3.80163
11
6.48308
21
-3.79418
0
LINE
8
BLACK
6
CONTINUOUS
10
6.48308
20
-3.79418
11
6.4795
21
-3.78602
0
LINE
8
BLACK
6
CONTINUOUS
10
6.4795
20
-3.78602
11
6.47731
21
-3.77738
0
LINE
8
BLACK
6
CONTINUOUS
10
6.47731
20
-3.77738
11
6.47657
21
-3.7685
0
LINE
8
BLACK
6
CONTINUOUS
10
6.47657
20
-3.7685
11
6.47731
21
-3.75963
0
LINE
8
BLACK
6
CONTINUOUS
10
6.47731
20
-3.75963
11
6.4795
21
-3.75099
0
LINE
8
BLACK
6
CONTINUOUS
10
6.4795
20
-3.75099
11
6.48308
21
-3.74283
0
LINE
8
BLACK
6
CONTINUOUS
10
6.48308
20
-3.74283
11
6.48795
21
-3.73538
0
LINE
8
BLACK
6
CONTINUOUS
10
6.48795
20
-3.73538
11
6.49398
21
-3.72882
0
LINE
8
BLACK
6
CONTINUOUS
10
6.49398
20
-3.72882
11
6.50101
21
-3.72335
0
LINE
8
BLACK
6
CONTINUOUS
10
6.50101
20
-3.72335
11
6.50885
21
-3.71911
0
LINE
8
BLACK
6
CONTINUOUS
10
6.50885
20
-3.71911
11
6.51727
21
-3.71622
0
LINE
8
BLACK
6
CONTINUOUS
10
6.51727
20
-3.71622
11
6.52606
21
-3.71475
0
LINE
8
BLACK
6
CONTINUOUS
10
6.52606
20
-3.71475
11
6.53497
21
-3.71475
0
LINE
8
BLACK
6
CONTINUOUS
10
6.53497
20
-3.71475
11
6.54375
21
-3.71622
0
LINE
8
BLACK
6
CONTINUOUS
10
6.74375
20
-3.71622
11
6.75218
21
-3.71911
0
LINE
8
BLACK
6
CONTINUOUS
10
6.75218
20
-3.71911
11
6.76001
21
-3.72335
0
LINE
8
BLACK
6
CONTINUOUS
10
6.76001
20
-3.72335
11
6.76704
21
-3.72882
0
LINE
8
BLACK
6
CONTINUOUS
10
6.76704
20
-3.72882
11
6.77308
21
-3.73538
0
LINE
8
BLACK
6
CONTINUOUS
10
6.77308
20
-3.73538
11
6.77795
21
-3.74283
0
LINE
8
BLACK
6
CONTINUOUS
10
6.77795
20
-3.74283
11
6.78153
21
-3.75099
0
LINE
8
BLACK
6
CONTINUOUS
10
6.78153
20
-3.75099
11
6.78371
21
-3.75963
0
LINE
8
BLACK
6
CONTINUOUS
10
6.78371
20
-3.75963
11
6.78445
21
-3.7685
0
LINE
8
BLACK
6
CONTINUOUS
10
6.78445
20
-3.7685
11
6.78371
21
-3.77738
0
LINE
8
BLACK
6
CONTINUOUS
10
6.78371
20
-3.77738
11
6.78153
21
-3.78602
0
LINE
8
BLACK
6
CONTINUOUS
10
6.78153
20
-3.78602
11
6.77795
21
-3.79418
0
LINE
8
BLACK
6
CONTINUOUS
10
6.77795
20
-3.79418
11
6.77308
21
-3.80163
0
LINE
8
BLACK
6
CONTINUOUS
10
6.77308
20
-3.80163
11
6.76704
21
-3.80819
0
LINE
8
BLACK
6
CONTINUOUS
10
6.76704
20
-3.80819
11
6.76001
21
-3.81366
0
LINE
8
BLACK
6
CONTINUOUS
10
6.76001
20
-3.81366
11
6.75218
21
-3.8179
0
LINE
8
BLACK
6
CONTINUOUS
10
6.75218
20
-3.8179
11
6.74375
21
-3.82079
0
LINE
8
BLACK
6
CONTINUOUS
10
6.74375
20
-3.82079
11
6.73497
21
-3.82226
0
LINE
8
BLACK
6
CONTINUOUS
10
6.73497
20
-3.82226
11
6.72606
21
-3.82226
0
LINE
8
BLACK
6
CONTINUOUS
10
6.72606
20
-3.82226
11
6.71727
21
-3.82079
0
LINE
8
BLACK
6
CONTINUOUS
10
6.71727
20
-3.82079
11
6.70885
21
-3.8179
0
LINE
8
BLACK
6
CONTINUOUS
10
6.70885
20
-3.8179
11
6.70101
21
-3.81366
0
LINE
8
BLACK
6
CONTINUOUS
10
6.70101
20
-3.81366
11
6.69398
21
-3.80819
0
LINE
8
BLACK
6
CONTINUOUS
10
6.69398
20
-3.80819
11
6.68795
21
-3.80163
0
LINE
8
BLACK
6
CONTINUOUS
10
6.68795
20
-3.80163
11
6.68308
21
-3.79418
0
LINE
8
BLACK
6
CONTINUOUS
10
6.68308
20
-3.79418
11
6.6795
21
-3.78602
0
LINE
8
BLACK
6
CONTINUOUS
10
6.6795
20
-3.78602
11
6.67731
21
-3.77738
0
LINE
8
BLACK
6
CONTINUOUS
10
6.67731
20
-3.77738
11
6.67657
21
-3.7685
0
LINE
8
BLACK
6
CONTINUOUS
10
6.67657
20
-3.7685
11
6.67731
21
-3.75963
0
LINE
8
BLACK
6
CONTINUOUS
10
6.67731
20
-3.75963
11
6.6795
21
-3.75099
0
LINE
8
BLACK
6
CONTINUOUS
10
6.6795
20
-3.75099
11
6.68308
21
-3.74283
0
LINE
8
BLACK
6
CONTINUOUS
10
6.68308
20
-3.74283
11
6.68795
21
-3.73538
0
LINE
8
BLACK
6
CONTINUOUS
10
6.68795
20
-3.73538
11
6.69398
21
-3.72882
0
LINE
8
BLACK
6
CONTINUOUS
10
6.69398
20
-3.72882
11
6.70101
21
-3.72335
0
LINE
8
BLACK
6
CONTINUOUS
10
6.70101
20
-3.72335
11
6.70885
21
-3.71911
0
LINE
8
BLACK
6
CONTINUOUS
10
6.70885
20
-3.71911
11
6.71727
21
-3.71622
0
LINE
8
BLACK
6
CONTINUOUS
10
6.71727
20
-3.71622
11
6.72606
21
-3.71475
0
LINE
8
BLACK
6
CONTINUOUS
10
6.72606
20
-3.71475
11
6.73497
21
-3.71475
0
LINE
8
BLACK
6
CONTINUOUS
10
6.73497
20
-3.71475
11
6.74375
21
-3.71622
0
LINE
8
BLACK
6
CONTINUOUS
10
5.44375
20
-3.46622
11
5.45218
21
-3.46911
0
LINE
8
BLACK
6
CONTINUOUS
10
5.45218
20
-3.46911
11
5.46001
21
-3.47335
0
LINE
8
BLACK
6
CONTINUOUS
10
5.46001
20
-3.47335
11
5.46704
21
-3.47882
0
LINE
8
BLACK
6
CONTINUOUS
10
5.46704
20
-3.47882
11
5.47308
21
-3.48538
0
LINE
8
BLACK
6
CONTINUOUS
10
5.47308
20
-3.48538
11
5.47795
21
-3.49283
0
LINE
8
BLACK
6
CONTINUOUS
10
5.47795
20
-3.49283
11
5.48153
21
-3.50099
0
LINE
8
BLACK
6
CONTINUOUS
10
5.48153
20
-3.50099
11
5.48371
21
-3.50963
0
LINE
8
BLACK
6
CONTINUOUS
10
5.48371
20
-3.50963
11
5.48445
21
-3.5185
0
LINE
8
BLACK
6
CONTINUOUS
10
5.48445
20
-3.5185
11
5.48371
21
-3.52738
0
LINE
8
BLACK
6
CONTINUOUS
10
5.48371
20
-3.52738
11
5.48153
21
-3.53602
0
LINE
8
BLACK
6
CONTINUOUS
10
5.48153
20
-3.53602
11
5.47795
21
-3.54418
0
LINE
8
BLACK
6
CONTINUOUS
10
5.47795
20
-3.54418
11
5.47308
21
-3.55163
0
LINE
8
BLACK
6
CONTINUOUS
10
5.47308
20
-3.55163
11
5.46704
21
-3.55819
0
LINE
8
BLACK
6
CONTINUOUS
10
5.46704
20
-3.55819
11
5.46001
21
-3.56366
0
LINE
8
BLACK
6
CONTINUOUS
10
5.46001
20
-3.56366
11
5.45218
21
-3.5679
0
LINE
8
BLACK
6
CONTINUOUS
10
5.45218
20
-3.5679
11
5.44375
21
-3.57079
0
LINE
8
BLACK
6
CONTINUOUS
10
5.44375
20
-3.57079
11
5.43497
21
-3.57226
0
LINE
8
BLACK
6
CONTINUOUS
10
5.43497
20
-3.57226
11
5.42606
21
-3.57226
0
LINE
8
BLACK
6
CONTINUOUS
10
5.42606
20
-3.57226
11
5.41727
21
-3.57079
0
LINE
8
BLACK
6
CONTINUOUS
10
5.41727
20
-3.57079
11
5.40885
21
-3.5679
0
LINE
8
BLACK
6
CONTINUOUS
10
5.40885
20
-3.5679
11
5.40101
21
-3.56366
0
LINE
8
BLACK
6
CONTINUOUS
10
5.40101
20
-3.56366
11
5.39398
21
-3.55819
0
LINE
8
BLACK
6
CONTINUOUS
10
5.39398
20
-3.55819
11
5.38795
21
-3.55163
0
LINE
8
BLACK
6
CONTINUOUS
10
5.38795
20
-3.55163
11
5.38308
21
-3.54418
0
LINE
8
BLACK
6
CONTINUOUS
10
5.38308
20
-3.54418
11
5.3795
21
-3.53602
0
LINE
8
BLACK
6
CONTINUOUS
10
5.3795
20
-3.53602
11
5.37731
21
-3.52738
0
LINE
8
BLACK
6
CONTINUOUS
10
5.37731
20
-3.52738
11
5.37657
21
-3.5185
0
LINE
8
BLACK
6
CONTINUOUS
10
5.37657
20
-3.5185
11
5.37731
21
-3.50963
0
LINE
8
BLACK
6
CONTINUOUS
10
5.37731
20
-3.50963
11
5.3795
21
-3.50099
0
LINE
8
BLACK
6
CONTINUOUS
10
5.3795
20
-3.50099
11
5.38308
21
-3.49283
0
LINE
8
BLACK
6
CONTINUOUS
10
5.38308
20
-3.49283
11
5.38795
21
-3.48538
0
LINE
8
BLACK
6
CONTINUOUS
10
5.38795
20
-3.48538
11
5.39398
21
-3.47882
0
LINE
8
BLACK
6
CONTINUOUS
10
5.39398
20
-3.47882
11
5.40101
21
-3.47335
0
LINE
8
BLACK
6
CONTINUOUS
10
5.40101
20
-3.47335
11
5.40885
21
-3.46911
0
LINE
8
BLACK
6
CONTINUOUS
10
5.40885
20
-3.46911
11
5.41727
21
-3.46622
0
LINE
8
BLACK
6
CONTINUOUS
10
5.41727
20
-3.46622
11
5.42606
21
-3.46475
0
LINE
8
BLACK
6
CONTINUOUS
10
5.42606
20
-3.46475
11
5.43497
21
-3.46475
0
LINE
8
BLACK
6
CONTINUOUS
10
5.43497
20
-3.46475
11
5.44375
21
-3.46622
0
LINE
8
BLACK
6
CONTINUOUS
10
5.64375
20
-3.46622
11
5.65218
21
-3.46911
0
LINE
8
BLACK
6
CONTINUOUS
10
5.65218
20
-3.46911
11
5.66001
21
-3.47335
0
LINE
8
BLACK
6
CONTINUOUS
10
5.66001
20
-3.47335
11
5.66704
21
-3.47882
0
LINE
8
BLACK
6
CONTINUOUS
10
5.66704
20
-3.47882
11
5.67308
21
-3.48538
0
LINE
8
BLACK
6
CONTINUOUS
10
5.67308
20
-3.48538
11
5.67795
21
-3.49283
0
LINE
8
BLACK
6
CONTINUOUS
10
5.67795
20
-3.49283
11
5.68153
21
-3.50099
0
LINE
8
BLACK
6
CONTINUOUS
10
5.68153
20
-3.50099
11
5.68371
21
-3.50963
0
LINE
8
BLACK
6
CONTINUOUS
10
5.68371
20
-3.50963
11
5.68445
21
-3.5185
0
LINE
8
BLACK
6
CONTINUOUS
10
5.68445
20
-3.5185
11
5.68371
21
-3.52738
0
LINE
8
BLACK
6
CONTINUOUS
10
5.68371
20
-3.52738
11
5.68153
21
-3.53602
0
LINE
8
BLACK
6
CONTINUOUS
10
5.68153
20
-3.53602
11
5.67795
21
-3.54418
0
LINE
8
BLACK
6
CONTINUOUS
10
5.67795
20
-3.54418
11
5.67308
21
-3.55163
0
LINE
8
BLACK
6
CONTINUOUS
10
5.67308
20
-3.55163
11
5.66704
21
-3.55819
0
LINE
8
BLACK
6
CONTINUOUS
10
5.66704
20
-3.55819
11
5.66001
21
-3.56366
0
LINE
8
BLACK
6
CONTINUOUS
10
5.66001
20
-3.56366
11
5.65218
21
-3.5679
0
LINE
8
BLACK
6
CONTINUOUS
10
5.65218
20
-3.5679
11
5.64375
21
-3.57079
0
LINE
8
BLACK
6
CONTINUOUS
10
5.64375
20
-3.57079
11
5.63497
21
-3.57226
0
LINE
8
BLACK
6
CONTINUOUS
10
5.63497
20
-3.57226
11
5.62606
21
-3.57226
0
LINE
8
BLACK
6
CONTINUOUS
10
5.62606
20
-3.57226
11
5.61727
21
-3.57079
0
LINE
8
BLACK
6
CONTINUOUS
10
5.61727
20
-3.57079
11
5.60885
21
-3.5679
0
LINE
8
BLACK
6
CONTINUOUS
10
5.60885
20
-3.5679
11
5.60101
21
-3.56366
0
LINE
8
BLACK
6
CONTINUOUS
10
5.60101
20
-3.56366
11
5.59398
21
-3.55819
0
LINE
8
BLACK
6
CONTINUOUS
10
5.59398
20
-3.55819
11
5.58795
21
-3.55163
0
LINE
8
BLACK
6
CONTINUOUS
10
5.58795
20
-3.55163
11
5.58308
21
-3.54418
0
LINE
8
BLACK
6
CONTINUOUS
10
5.58308
20
-3.54418
11
5.5795
21
-3.53602
0
LINE
8
BLACK
6
CONTINUOUS
10
5.5795
20
-3.53602
11
5.57731
21
-3.52738
0
LINE
8
BLACK
6
CONTINUOUS
10
5.57731
20
-3.52738
11
5.57657
21
-3.5185
0
LINE
8
BLACK
6
CONTINUOUS
10
5.57657
20
-3.5185
11
5.57731
21
-3.50963
0
LINE
8
BLACK
6
CONTINUOUS
10
5.57731
20
-3.50963
11
5.5795
21
-3.50099
0
LINE
8
BLACK
6
CONTINUOUS
10
5.5795
20
-3.50099
11
5.58308
21
-3.49283
0
LINE
8
BLACK
6
CONTINUOUS
10
5.58308
20
-3.49283
11
5.58795
21
-3.48538
0
LINE
8
BLACK
6
CONTINUOUS
10
5.58795
20
-3.48538
11
5.59398
21
-3.47882
0
LINE
8
BLACK
6
CONTINUOUS
10
5.59398
20
-3.47882
11
5.60101
21
-3.47335
0
LINE
8
BLACK
6
CONTINUOUS
10
5.60101
20
-3.47335
11
5.60885
21
-3.46911
0
LINE
8
BLACK
6
CONTINUOUS
10
5.60885
20
-3.46911
11
5.61727
21
-3.46622
0
LINE
8
BLACK
6
CONTINUOUS
10
5.61727
20
-3.46622
11
5.62606
21
-3.46475
0
LINE
8
BLACK
6
CONTINUOUS
10
5.62606
20
-3.46475
11
5.63497
21
-3.46475
0
LINE
8
BLACK
6
CONTINUOUS
10
5.63497
20
-3.46475
11
5.64375
21
-3.46622
0
LINE
8
BLACK
6
CONTINUOUS
10
6.54375
20
-3.46622
11
6.55218
21
-3.46911
0
LINE
8
BLACK
6
CONTINUOUS
10
6.55218
20
-3.46911
11
6.56001
21
-3.47335
0
LINE
8
BLACK
6
CONTINUOUS
10
6.56001
20
-3.47335
11
6.56704
21
-3.47882
0
LINE
8
BLACK
6
CONTINUOUS
10
6.56704
20
-3.47882
11
6.57308
21
-3.48538
0
LINE
8
BLACK
6
CONTINUOUS
10
6.57308
20
-3.48538
11
6.57795
21
-3.49283
0
LINE
8
BLACK
6
CONTINUOUS
10
6.57795
20
-3.49283
11
6.58153
21
-3.50099
0
LINE
8
BLACK
6
CONTINUOUS
10
6.58153
20
-3.50099
11
6.58371
21
-3.50963
0
LINE
8
BLACK
6
CONTINUOUS
10
6.58371
20
-3.50963
11
6.58445
21
-3.5185
0
LINE
8
BLACK
6
CONTINUOUS
10
6.58445
20
-3.5185
11
6.58371
21
-3.52738
0
LINE
8
BLACK
6
CONTINUOUS
10
6.58371
20
-3.52738
11
6.58153
21
-3.53602
0
LINE
8
BLACK
6
CONTINUOUS
10
6.58153
20
-3.53602
11
6.57795
21
-3.54418
0
LINE
8
BLACK
6
CONTINUOUS
10
6.57795
20
-3.54418
11
6.57308
21
-3.55163
0
LINE
8
BLACK
6
CONTINUOUS
10
6.57308
20
-3.55163
11
6.56704
21
-3.55819
0
LINE
8
BLACK
6
CONTINUOUS
10
6.56704
20
-3.55819
11
6.56001
21
-3.56366
0
LINE
8
BLACK
6
CONTINUOUS
10
6.56001
20
-3.56366
11
6.55218
21
-3.5679
0
LINE
8
BLACK
6
CONTINUOUS
10
6.55218
20
-3.5679
11
6.54375
21
-3.57079
0
LINE
8
BLACK
6
CONTINUOUS
10
6.54375
20
-3.57079
11
6.53497
21
-3.57226
0
LINE
8
BLACK
6
CONTINUOUS
10
6.53497
20
-3.57226
11
6.52606
21
-3.57226
0
LINE
8
BLACK
6
CONTINUOUS
10
6.52606
20
-3.57226
11
6.51727
21
-3.57079
0
LINE
8
BLACK
6
CONTINUOUS
10
6.51727
20
-3.57079
11
6.50885
21
-3.5679
0
LINE
8
BLACK
6
CONTINUOUS
10
6.50885
20
-3.5679
11
6.50101
21
-3.56366
0
LINE
8
BLACK
6
CONTINUOUS
10
6.50101
20
-3.56366
11
6.49398
21
-3.55819
0
LINE
8
BLACK
6
CONTINUOUS
10
6.49398
20
-3.55819
11
6.48795
21
-3.55163
0
LINE
8
BLACK
6
CONTINUOUS
10
6.48795
20
-3.55163
11
6.48308
21
-3.54418
0
LINE
8
BLACK
6
CONTINUOUS
10
6.48308
20
-3.54418
11
6.4795
21
-3.53602
0
LINE
8
BLACK
6
CONTINUOUS
10
6.4795
20
-3.53602
11
6.47731
21
-3.52738
0
LINE
8
BLACK
6
CONTINUOUS
10
6.47731
20
-3.52738
11
6.47657
21
-3.5185
0
LINE
8
BLACK
6
CONTINUOUS
10
6.47657
20
-3.5185
11
6.47731
21
-3.50963
0
LINE
8
BLACK
6
CONTINUOUS
10
6.47731
20
-3.50963
11
6.4795
21
-3.50099
0
LINE
8
BLACK
6
CONTINUOUS
10
6.4795
20
-3.50099
11
6.48308
21
-3.49283
0
LINE
8
BLACK
6
CONTINUOUS
10
6.48308
20
-3.49283
11
6.48795
21
-3.48538
0
LINE
8
BLACK
6
CONTINUOUS
10
6.48795
20
-3.48538
11
6.49398
21
-3.47882
0
LINE
8
BLACK
6
CONTINUOUS
10
6.49398
20
-3.47882
11
6.50101
21
-3.47335
0
LINE
8
BLACK
6
CONTINUOUS
10
6.50101
20
-3.47335
11
6.50885
21
-3.46911
0
LINE
8
BLACK
6
CONTINUOUS
10
6.50885
20
-3.46911
11
6.51727
21
-3.46622
0
LINE
8
BLACK
6
CONTINUOUS
10
6.51727
20
-3.46622
11
6.52606
21
-3.46475
0
LINE
8
BLACK
6
CONTINUOUS
10
6.52606
20
-3.46475
11
6.53497
21
-3.46475
0
LINE
8
BLACK
6
CONTINUOUS
10
6.53497
20
-3.46475
11
6.54375
21
-3.46622
0
LINE
8
BLACK
6
CONTINUOUS
10
6.74375
20
-3.46622
11
6.75218
21
-3.46911
0
LINE
8
BLACK
6
CONTINUOUS
10
6.75218
20
-3.46911
11
6.76001
21
-3.47335
0
LINE
8
BLACK
6
CONTINUOUS
10
6.76001
20
-3.47335
11
6.76704
21
-3.47882
0
LINE
8
BLACK
6
CONTINUOUS
10
6.76704
20
-3.47882
11
6.77308
21
-3.48538
0
LINE
8
BLACK
6
CONTINUOUS
10
6.77308
20
-3.48538
11
6.77795
21
-3.49283
0
LINE
8
BLACK
6
CONTINUOUS
10
6.77795
20
-3.49283
11
6.78153
21
-3.50099
0
LINE
8
BLACK
6
CONTINUOUS
10
6.78153
20
-3.50099
11
6.78371
21
-3.50963
0
LINE
8
BLACK
6
CONTINUOUS
10
6.78371
20
-3.50963
11
6.78445
21
-3.5185
0
LINE
8
BLACK
6
CONTINUOUS
10
6.78445
20
-3.5185
11
6.78371
21
-3.52738
0
LINE
8
BLACK
6
CONTINUOUS
10
6.78371
20
-3.52738
11
6.78153
21
-3.53602
0
LINE
8
BLACK
6
CONTINUOUS
10
6.78153
20
-3.53602
11
6.77795
21
-3.54418
0
LINE
8
BLACK
6
CONTINUOUS
10
6.77795
20
-3.54418
11
6.77308
21
-3.55163
0
LINE
8
BLACK
6
CONTINUOUS
10
6.77308
20
-3.55163
11
6.76704
21
-3.55819
0
LINE
8
BLACK
6
CONTINUOUS
10
6.76704
20
-3.55819
11
6.76001
21
-3.56366
0
LINE
8
BLACK
6
CONTINUOUS
10
6.76001
20
-3.56366
11
6.75218
21
-3.5679
0
LINE
8
BLACK
6
CONTINUOUS
10
6.75218
20
-3.5679
11
6.74375
21
-3.57079
0
LINE
8
BLACK
6
CONTINUOUS
10
6.74375
20
-3.57079
11
6.73497
21
-3.57226
0
LINE
8
BLACK
6
CONTINUOUS
10
6.73497
20
-3.57226
11
6.72606
21
-3.57226
0
LINE
8
BLACK
6
CONTINUOUS
10
6.72606
20
-3.57226
11
6.71727
21
-3.57079
0
LINE
8
BLACK
6
CONTINUOUS
10
6.71727
20
-3.57079
11
6.70885
21
-3.5679
0
LINE
8
BLACK
6
CONTINUOUS
10
6.70885
20
-3.5679
11
6.70101
21
-3.56366
0
LINE
8
BLACK
6
CONTINUOUS
10
6.70101
20
-3.56366
11
6.69398
21
-3.55819
0
LINE
8
BLACK
6
CONTINUOUS
10
6.69398
20
-3.55819
11
6.68795
21
-3.55163
0
LINE
8
BLACK
6
CONTINUOUS
10
6.68795
20
-3.55163
11
6.68308
21
-3.54418
0
LINE
8
BLACK
6
CONTINUOUS
10
6.68308
20
-3.54418
11
6.6795
21
-3.53602
0
LINE
8
BLACK
6
CONTINUOUS
10
6.6795
20
-3.53602
11
6.67731
21
-3.52738
0
LINE
8
BLACK
6
CONTINUOUS
10
6.67731
20
-3.52738
11
6.67657
21
-3.5185
0
LINE
8
BLACK
6
CONTINUOUS
10
6.67657
20
-3.5185
11
6.67731
21
-3.50963
0
LINE
8
BLACK
6
CONTINUOUS
10
6.67731
20
-3.50963
11
6.6795
21
-3.50099
0
LINE
8
BLACK
6
CONTINUOUS
10
6.6795
20
-3.50099
11
6.68308
21
-3.49283
0
LINE
8
BLACK
6
CONTINUOUS
10
6.68308
20
-3.49283
11
6.68795
21
-3.48538
0
LINE
8
BLACK
6
CONTINUOUS
10
6.68795
20
-3.48538
11
6.69398
21
-3.47882
0
LINE
8
BLACK
6
CONTINUOUS
10
6.69398
20
-3.47882
11
6.70101
21
-3.47335
0
LINE
8
BLACK
6
CONTINUOUS
10
6.70101
20
-3.47335
11
6.70885
21
-3.46911
0
LINE
8
BLACK
6
CONTINUOUS
10
6.70885
20
-3.46911
11
6.71727
21
-3.46622
0
LINE
8
BLACK
6
CONTINUOUS
10
6.71727
20
-3.46622
11
6.72606
21
-3.46475
0
LINE
8
BLACK
6
CONTINUOUS
10
6.72606
20
-3.46475
11
6.73497
21
-3.46475
0
LINE
8
BLACK
6
CONTINUOUS
10
6.73497
20
-3.46475
11
6.74375
21
-3.46622
0
LINE
8
BLACK
6
CONTINUOUS
10
5.54258
20
-3.37609
11
5.55017
21
-3.37903
0
LINE
8
BLACK
6
CONTINUOUS
10
5.55017
20
-3.37903
11
5.55708
21
-3.38332
0
LINE
8
BLACK
6
CONTINUOUS
10
5.55708
20
-3.38332
11
5.5631
21
-3.3888
0
LINE
8
BLACK
6
CONTINUOUS
10
5.5631
20
-3.3888
11
5.568
21
-3.39529
0
LINE
8
BLACK
6
CONTINUOUS
10
5.568
20
-3.39529
11
5.57163
21
-3.40258
0
LINE
8
BLACK
6
CONTINUOUS
10
5.57163
20
-3.40258
11
5.57386
21
-3.4104
0
LINE
8
BLACK
6
CONTINUOUS
10
5.57386
20
-3.4104
11
5.57461
21
-3.4185
0
LINE
8
BLACK
6
CONTINUOUS
10
5.57461
20
-3.4185
11
5.57386
21
-3.42661
0
LINE
8
BLACK
6
CONTINUOUS
10
5.57386
20
-3.42661
11
5.57163
21
-3.43443
0
LINE
8
BLACK
6
CONTINUOUS
10
5.57163
20
-3.43443
11
5.568
21
-3.44172
0
LINE
8
BLACK
6
CONTINUOUS
10
5.568
20
-3.44172
11
5.5631
21
-3.44821
0
LINE
8
BLACK
6
CONTINUOUS
10
5.5631
20
-3.44821
11
5.55708
21
-3.45369
0
LINE
8
BLACK
6
CONTINUOUS
10
5.55708
20
-3.45369
11
5.55017
21
-3.45798
0
LINE
8
BLACK
6
CONTINUOUS
10
5.55017
20
-3.45798
11
5.54258
21
-3.46092
0
LINE
8
BLACK
6
CONTINUOUS
10
5.54258
20
-3.46092
11
5.53458
21
-3.46241
0
LINE
8
BLACK
6
CONTINUOUS
10
5.53458
20
-3.46241
11
5.52644
21
-3.46241
0
LINE
8
BLACK
6
CONTINUOUS
10
5.52644
20
-3.46241
11
5.51844
21
-3.46092
0
LINE
8
BLACK
6
CONTINUOUS
10
5.51844
20
-3.46092
11
5.51086
21
-3.45798
0
LINE
8
BLACK
6
CONTINUOUS
10
5.51086
20
-3.45798
11
5.50394
21
-3.45369
0
LINE
8
BLACK
6
CONTINUOUS
10
5.50394
20
-3.45369
11
5.49793
21
-3.44821
0
LINE
8
BLACK
6
CONTINUOUS
10
5.49793
20
-3.44821
11
5.49302
21
-3.44172
0
LINE
8
BLACK
6
CONTINUOUS
10
5.49302
20
-3.44172
11
5.48939
21
-3.43443
0
LINE
8
BLACK
6
CONTINUOUS
10
5.48939
20
-3.43443
11
5.48717
21
-3.42661
0
LINE
8
BLACK
6
CONTINUOUS
10
5.48717
20
-3.42661
11
5.48642
21
-3.4185
0
LINE
8
BLACK
6
CONTINUOUS
10
5.48642
20
-3.4185
11
5.48717
21
-3.4104
0
LINE
8
BLACK
6
CONTINUOUS
10
5.48717
20
-3.4104
11
5.48939
21
-3.40258
0
LINE
8
BLACK
6
CONTINUOUS
10
5.48939
20
-3.40258
11
5.49302
21
-3.39529
0
LINE
8
BLACK
6
CONTINUOUS
10
5.49302
20
-3.39529
11
5.49793
21
-3.3888
0
LINE
8
BLACK
6
CONTINUOUS
10
5.49793
20
-3.3888
11
5.50394
21
-3.38332
0
LINE
8
BLACK
6
CONTINUOUS
10
5.50394
20
-3.38332
11
5.51086
21
-3.37903
0
LINE
8
BLACK
6
CONTINUOUS
10
5.51086
20
-3.37903
11
5.51844
21
-3.37609
0
LINE
8
BLACK
6
CONTINUOUS
10
5.51844
20
-3.37609
11
5.52644
21
-3.3746
0
LINE
8
BLACK
6
CONTINUOUS
10
5.52644
20
-3.3746
11
5.53458
21
-3.3746
0
LINE
8
BLACK
6
CONTINUOUS
10
5.53458
20
-3.3746
11
5.54258
21
-3.37609
0
LINE
8
BLACK
6
CONTINUOUS
10
6.64258
20
-3.37609
11
6.65017
21
-3.37903
0
LINE
8
BLACK
6
CONTINUOUS
10
6.65017
20
-3.37903
11
6.65708
21
-3.38332
0
LINE
8
BLACK
6
CONTINUOUS
10
6.65708
20
-3.38332
11
6.6631
21
-3.3888
0
LINE
8
BLACK
6
CONTINUOUS
10
6.6631
20
-3.3888
11
6.668
21
-3.39529
0
LINE
8
BLACK
6
CONTINUOUS
10
6.668
20
-3.39529
11
6.67163
21
-3.40258
0
LINE
8
BLACK
6
CONTINUOUS
10
6.67163
20
-3.40258
11
6.67386
21
-3.4104
0
LINE
8
BLACK
6
CONTINUOUS
10
6.67386
20
-3.4104
11
6.67461
21
-3.4185
0
LINE
8
BLACK
6
CONTINUOUS
10
6.67461
20
-3.4185
11
6.67386
21
-3.42661
0
LINE
8
BLACK
6
CONTINUOUS
10
6.67386
20
-3.42661
11
6.67163
21
-3.43443
0
LINE
8
BLACK
6
CONTINUOUS
10
6.67163
20
-3.43443
11
6.668
21
-3.44172
0
LINE
8
BLACK
6
CONTINUOUS
10
6.668
20
-3.44172
11
6.6631
21
-3.44821
0
LINE
8
BLACK
6
CONTINUOUS
10
6.6631
20
-3.44821
11
6.65708
21
-3.45369
0
LINE
8
BLACK
6
CONTINUOUS
10
6.65708
20
-3.45369
11
6.65017
21
-3.45798
0
LINE
8
BLACK
6
CONTINUOUS
10
6.65017
20
-3.45798
11
6.64258
21
-3.46092
0
LINE
8
BLACK
6
CONTINUOUS
10
6.64258
20
-3.46092
11
6.63458
21
-3.46241
0
LINE
8
BLACK
6
CONTINUOUS
10
6.63458
20
-3.46241
11
6.62644
21
-3.46241
0
LINE
8
BLACK
6
CONTINUOUS
10
6.62644
20
-3.46241
11
6.61844
21
-3.46092
0
LINE
8
BLACK
6
CONTINUOUS
10
6.61844
20
-3.46092
11
6.61086
21
-3.45798
0
LINE
8
BLACK
6
CONTINUOUS
10
6.61086
20
-3.45798
11
6.60394
21
-3.45369
0
LINE
8
BLACK
6
CONTINUOUS
10
6.60394
20
-3.45369
11
6.59793
21
-3.44821
0
LINE
8
BLACK
6
CONTINUOUS
10
6.59793
20
-3.44821
11
6.59302
21
-3.44172
0
LINE
8
BLACK
6
CONTINUOUS
10
6.59302
20
-3.44172
11
6.58939
21
-3.43443
0
LINE
8
BLACK
6
CONTINUOUS
10
6.58939
20
-3.43443
11
6.58717
21
-3.42661
0
LINE
8
BLACK
6
CONTINUOUS
10
6.58717
20
-3.42661
11
6.58642
21
-3.4185
0
LINE
8
BLACK
6
CONTINUOUS
10
6.58642
20
-3.4185
11
6.58717
21
-3.4104
0
LINE
8
BLACK
6
CONTINUOUS
10
6.58717
20
-3.4104
11
6.58939
21
-3.40258
0
LINE
8
BLACK
6
CONTINUOUS
10
6.58939
20
-3.40258
11
6.59302
21
-3.39529
0
LINE
8
BLACK
6
CONTINUOUS
10
6.59302
20
-3.39529
11
6.59793
21
-3.3888
0
LINE
8
BLACK
6
CONTINUOUS
10
6.59793
20
-3.3888
11
6.60394
21
-3.38332
0
LINE
8
BLACK
6
CONTINUOUS
10
6.60394
20
-3.38332
11
6.61086
21
-3.37903
0
LINE
8
BLACK
6
CONTINUOUS
10
6.61086
20
-3.37903
11
6.61844
21
-3.37609
0
LINE
8
BLACK
6
CONTINUOUS
10
6.61844
20
-3.37609
11
6.62644
21
-3.3746
0
LINE
8
BLACK
6
CONTINUOUS
10
6.62644
20
-3.3746
11
6.63458
21
-3.3746
0
LINE
8
BLACK
6
CONTINUOUS
10
6.63458
20
-3.3746
11
6.64258
21
-3.37609
0
LINE
8
BLACK
6
CONTINUOUS
10
5.44375
20
-3.26622
11
5.45218
21
-3.26911
0
LINE
8
BLACK
6
CONTINUOUS
10
5.45218
20
-3.26911
11
5.46001
21
-3.27335
0
LINE
8
BLACK
6
CONTINUOUS
10
5.46001
20
-3.27335
11
5.46704
21
-3.27882
0
LINE
8
BLACK
6
CONTINUOUS
10
5.46704
20
-3.27882
11
5.47308
21
-3.28538
0
LINE
8
BLACK
6
CONTINUOUS
10
5.47308
20
-3.28538
11
5.47795
21
-3.29283
0
LINE
8
BLACK
6
CONTINUOUS
10
5.47795
20
-3.29283
11
5.48153
21
-3.30099
0
LINE
8
BLACK
6
CONTINUOUS
10
5.48153
20
-3.30099
11
5.48371
21
-3.30963
0
LINE
8
BLACK
6
CONTINUOUS
10
5.48371
20
-3.30963
11
5.48445
21
-3.3185
0
LINE
8
BLACK
6
CONTINUOUS
10
5.48445
20
-3.3185
11
5.48371
21
-3.32738
0
LINE
8
BLACK
6
CONTINUOUS
10
5.48371
20
-3.32738
11
5.48153
21
-3.33602
0
LINE
8
BLACK
6
CONTINUOUS
10
5.48153
20
-3.33602
11
5.47795
21
-3.34418
0
LINE
8
BLACK
6
CONTINUOUS
10
5.47795
20
-3.34418
11
5.47308
21
-3.35163
0
LINE
8
BLACK
6
CONTINUOUS
10
5.47308
20
-3.35163
11
5.46704
21
-3.35819
0
LINE
8
BLACK
6
CONTINUOUS
10
5.46704
20
-3.35819
11
5.46001
21
-3.36366
0
LINE
8
BLACK
6
CONTINUOUS
10
5.46001
20
-3.36366
11
5.45218
21
-3.3679
0
LINE
8
BLACK
6
CONTINUOUS
10
5.45218
20
-3.3679
11
5.44375
21
-3.37079
0
LINE
8
BLACK
6
CONTINUOUS
10
5.44375
20
-3.37079
11
5.43497
21
-3.37226
0
LINE
8
BLACK
6
CONTINUOUS
10
5.43497
20
-3.37226
11
5.42606
21
-3.37226
0
LINE
8
BLACK
6
CONTINUOUS
10
5.42606
20
-3.37226
11
5.41727
21
-3.37079
0
LINE
8
BLACK
6
CONTINUOUS
10
5.41727
20
-3.37079
11
5.40885
21
-3.3679
0
LINE
8
BLACK
6
CONTINUOUS
10
5.40885
20
-3.3679
11
5.40101
21
-3.36366
0
LINE
8
BLACK
6
CONTINUOUS
10
5.40101
20
-3.36366
11
5.39398
21
-3.35819
0
LINE
8
BLACK
6
CONTINUOUS
10
5.39398
20
-3.35819
11
5.38795
21
-3.35163
0
LINE
8
BLACK
6
CONTINUOUS
10
5.38795
20
-3.35163
11
5.38308
21
-3.34418
0
LINE
8
BLACK
6
CONTINUOUS
10
5.38308
20
-3.34418
11
5.3795
21
-3.33602
0
LINE
8
BLACK
6
CONTINUOUS
10
5.3795
20
-3.33602
11
5.37731
21
-3.32738
0
LINE
8
BLACK
6
CONTINUOUS
10
5.37731
20
-3.32738
11
5.37657
21
-3.3185
0
LINE
8
BLACK
6
CONTINUOUS
10
5.37657
20
-3.3185
11
5.37731
21
-3.30963
0
LINE
8
BLACK
6
CONTINUOUS
10
5.37731
20
-3.30963
11
5.3795
21
-3.30099
0
LINE
8
BLACK
6
CONTINUOUS
10
5.3795
20
-3.30099
11
5.38308
21
-3.29283
0
LINE
8
BLACK
6
CONTINUOUS
10
5.38308
20
-3.29283
11
5.38795
21
-3.28538
0
LINE
8
BLACK
6
CONTINUOUS
10
5.38795
20
-3.28538
11
5.39398
21
-3.27882
0
LINE
8
BLACK
6
CONTINUOUS
10
5.39398
20
-3.27882
11
5.40101
21
-3.27335
0
LINE
8
BLACK
6
CONTINUOUS
10
5.40101
20
-3.27335
11
5.40885
21
-3.26911
0
LINE
8
BLACK
6
CONTINUOUS
10
5.40885
20
-3.26911
11
5.41727
21
-3.26622
0
LINE
8
BLACK
6
CONTINUOUS
10
5.41727
20
-3.26622
11
5.42606
21
-3.26475
0
LINE
8
BLACK
6
CONTINUOUS
10
5.42606
20
-3.26475
11
5.43497
21
-3.26475
0
LINE
8
BLACK
6
CONTINUOUS
10
5.43497
20
-3.26475
11
5.44375
21
-3.26622
0
LINE
8
BLACK
6
CONTINUOUS
10
5.64375
20
-3.26622
11
5.65218
21
-3.26911
0
LINE
8
BLACK
6
CONTINUOUS
10
5.65218
20
-3.26911
11
5.66001
21
-3.27335
0
LINE
8
BLACK
6
CONTINUOUS
10
5.66001
20
-3.27335
11
5.66704
21
-3.27882
0
LINE
8
BLACK
6
CONTINUOUS
10
5.66704
20
-3.27882
11
5.67308
21
-3.28538
0
LINE
8
BLACK
6
CONTINUOUS
10
5.67308
20
-3.28538
11
5.67795
21
-3.29283
0
LINE
8
BLACK
6
CONTINUOUS
10
5.67795
20
-3.29283
11
5.68153
21
-3.30099
0
LINE
8
BLACK
6
CONTINUOUS
10
5.68153
20
-3.30099
11
5.68371
21
-3.30963
0
LINE
8
BLACK
6
CONTINUOUS
10
5.68371
20
-3.30963
11
5.68445
21
-3.3185
0
LINE
8
BLACK
6
CONTINUOUS
10
5.68445
20
-3.3185
11
5.68371
21
-3.32738
0
LINE
8
BLACK
6
CONTINUOUS
10
5.68371
20
-3.32738
11
5.68153
21
-3.33602
0
LINE
8
BLACK
6
CONTINUOUS
10
5.68153
20
-3.33602
11
5.67795
21
-3.34418
0
LINE
8
BLACK
6
CONTINUOUS
10
5.67795
20
-3.34418
11
5.67308
21
-3.35163
0
LINE
8
BLACK
6
CONTINUOUS
10
5.67308
20
-3.35163
11
5.66704
21
-3.35819
0
LINE
8
BLACK
6
CONTINUOUS
10
5.66704
20
-3.35819
11
5.66001
21
-3.36366
0
LINE
8
BLACK
6
CONTINUOUS
10
5.66001
20
-3.36366
11
5.65218
21
-3.3679
0
LINE
8
BLACK
6
CONTINUOUS
10
5.65218
20
-3.3679
11
5.64375
21
-3.37079
0
LINE
8
BLACK
6
CONTINUOUS
10
5.64375
20
-3.37079
11
5.63497
21
-3.37226
0
LINE
8
BLACK
6
CONTINUOUS
10
5.63497
20
-3.37226
11
5.62606
21
-3.37226
0
LINE
8
BLACK
6
CONTINUOUS
10
5.62606
20
-3.37226
11
5.61727
21
-3.37079
0
LINE
8
BLACK
6
CONTINUOUS
10
5.61727
20
-3.37079
11
5.60885
21
-3.3679
0
LINE
8
BLACK
6
CONTINUOUS
10
5.60885
20
-3.3679
11
5.60101
21
-3.36366
0
LINE
8
BLACK
6
CONTINUOUS
10
5.60101
20
-3.36366
11
5.59398
21
-3.35819
0
LINE
8
BLACK
6
CONTINUOUS
10
5.59398
20
-3.35819
11
5.58795
21
-3.35163
0
LINE
8
BLACK
6
CONTINUOUS
10
5.58795
20
-3.35163
11
5.58308
21
-3.34418
0
LINE
8
BLACK
6
CONTINUOUS
10
5.58308
20
-3.34418
11
5.5795
21
-3.33602
0
LINE
8
BLACK
6
CONTINUOUS
10
5.5795
20
-3.33602
11
5.57731
21
-3.32738
0
LINE
8
BLACK
6
CONTINUOUS
10
5.57731
20
-3.32738
11
5.57657
21
-3.3185
0
LINE
8
BLACK
6
CONTINUOUS
10
5.57657
20
-3.3185
11
5.57731
21
-3.30963
0
LINE
8
BLACK
6
CONTINUOUS
10
5.57731
20
-3.30963
11
5.5795
21
-3.30099
0
LINE
8
BLACK
6
CONTINUOUS
10
5.5795
20
-3.30099
11
5.58308
21
-3.29283
0
LINE
8
BLACK
6
CONTINUOUS
10
5.58308
20
-3.29283
11
5.58795
21
-3.28538
0
LINE
8
BLACK
6
CONTINUOUS
10
5.58795
20
-3.28538
11
5.59398
21
-3.27882
0
LINE
8
BLACK
6
CONTINUOUS
10
5.59398
20
-3.27882
11
5.60101
21
-3.27335
0
LINE
8
BLACK
6
CONTINUOUS
10
5.60101
20
-3.27335
11
5.60885
21
-3.26911
0
LINE
8
BLACK
6
CONTINUOUS
10
5.60885
20
-3.26911
11
5.61727
21
-3.26622
0
LINE
8
BLACK
6
CONTINUOUS
10
5.61727
20
-3.26622
11
5.62606
21
-3.26475
0
LINE
8
BLACK
6
CONTINUOUS
10
5.62606
20
-3.26475
11
5.63497
21
-3.26475
0
LINE
8
BLACK
6
CONTINUOUS
10
5.63497
20
-3.26475
11
5.64375
21
-3.26622
0
LINE
8
BLACK
6
CONTINUOUS
10
6.54375
20
-3.26622
11
6.55218
21
-3.26911
0
LINE
8
BLACK
6
CONTINUOUS
10
6.55218
20
-3.26911
11
6.56001
21
-3.27335
0
LINE
8
BLACK
6
CONTINUOUS
10
6.56001
20
-3.27335
11
6.56704
21
-3.27882
0
LINE
8
BLACK
6
CONTINUOUS
10
6.56704
20
-3.27882
11
6.57308
21
-3.28538
0
LINE
8
BLACK
6
CONTINUOUS
10
6.57308
20
-3.28538
11
6.57795
21
-3.29283
0
LINE
8
BLACK
6
CONTINUOUS
10
6.57795
20
-3.29283
11
6.58153
21
-3.30099
0
LINE
8
BLACK
6
CONTINUOUS
10
6.58153
20
-3.30099
11
6.58371
21
-3.30963
0
LINE
8
BLACK
6
CONTINUOUS
10
6.58371
20
-3.30963
11
6.58445
21
-3.3185
0
LINE
8
BLACK
6
CONTINUOUS
10
6.58445
20
-3.3185
11
6.58371
21
-3.32738
0
LINE
8
BLACK
6
CONTINUOUS
10
6.58371
20
-3.32738
11
6.58153
21
-3.33602
0
LINE
8
BLACK
6
CONTINUOUS
10
6.58153
20
-3.33602
11
6.57795
21
-3.34418
0
LINE
8
BLACK
6
CONTINUOUS
10
6.57795
20
-3.34418
11
6.57308
21
-3.35163
0
LINE
8
BLACK
6
CONTINUOUS
10
6.57308
20
-3.35163
11
6.56704
21
-3.35819
0
LINE
8
BLACK
6
CONTINUOUS
10
6.56704
20
-3.35819
11
6.56001
21
-3.36366
0
LINE
8
BLACK
6
CONTINUOUS
10
6.56001
20
-3.36366
11
6.55218
21
-3.3679
0
LINE
8
BLACK
6
CONTINUOUS
10
6.55218
20
-3.3679
11
6.54375
21
-3.37079
0
LINE
8
BLACK
6
CONTINUOUS
10
6.54375
20
-3.37079
11
6.53497
21
-3.37226
0
LINE
8
BLACK
6
CONTINUOUS
10
6.53497
20
-3.37226
11
6.52606
21
-3.37226
0
LINE
8
BLACK
6
CONTINUOUS
10
6.52606
20
-3.37226
11
6.51727
21
-3.37079
0
LINE
8
BLACK
6
CONTINUOUS
10
6.51727
20
-3.37079
11
6.50885
21
-3.3679
0
LINE
8
BLACK
6
CONTINUOUS
10
6.50885
20
-3.3679
11
6.50101
21
-3.36366
0
LINE
8
BLACK
6
CONTINUOUS
10
6.50101
20
-3.36366
11
6.49398
21
-3.35819
0
LINE
8
BLACK
6
CONTINUOUS
10
6.49398
20
-3.35819
11
6.48795
21
-3.35163
0
LINE
8
BLACK
6
CONTINUOUS
10
6.48795
20
-3.35163
11
6.48308
21
-3.34418
0
LINE
8
BLACK
6
CONTINUOUS
10
6.48308
20
-3.34418
11
6.4795
21
-3.33602
0
LINE
8
BLACK
6
CONTINUOUS
10
6.4795
20
-3.33602
11
6.47731
21
-3.32738
0
LINE
8
BLACK
6
CONTINUOUS
10
6.47731
20
-3.32738
11
6.47657
21
-3.3185
0
LINE
8
BLACK
6
CONTINUOUS
10
6.47657
20
-3.3185
11
6.47731
21
-3.30963
0
LINE
8
BLACK
6
CONTINUOUS
10
6.47731
20
-3.30963
11
6.4795
21
-3.30099
0
LINE
8
BLACK
6
CONTINUOUS
10
6.4795
20
-3.30099
11
6.48308
21
-3.29283
0
LINE
8
BLACK
6
CONTINUOUS
10
6.48308
20
-3.29283
11
6.48795
21
-3.28538
0
LINE
8
BLACK
6
CONTINUOUS
10
6.48795
20
-3.28538
11
6.49398
21
-3.27882
0
LINE
8
BLACK
6
CONTINUOUS
10
6.49398
20
-3.27882
11
6.50101
21
-3.27335
0
LINE
8
BLACK
6
CONTINUOUS
10
6.50101
20
-3.27335
11
6.50885
21
-3.26911
0
LINE
8
BLACK
6
CONTINUOUS
10
6.50885
20
-3.26911
11
6.51727
21
-3.26622
0
LINE
8
BLACK
6
CONTINUOUS
10
6.51727
20
-3.26622
11
6.52606
21
-3.26475
0
LINE
8
BLACK
6
CONTINUOUS
10
6.52606
20
-3.26475
11
6.53497
21
-3.26475
0
LINE
8
BLACK
6
CONTINUOUS
10
6.53497
20
-3.26475
11
6.54375
21
-3.26622
0
LINE
8
BLACK
6
CONTINUOUS
10
6.74375
20
-3.26622
11
6.75218
21
-3.26911
0
LINE
8
BLACK
6
CONTINUOUS
10
6.75218
20
-3.26911
11
6.76001
21
-3.27335
0
LINE
8
BLACK
6
CONTINUOUS
10
6.76001
20
-3.27335
11
6.76704
21
-3.27882
0
LINE
8
BLACK
6
CONTINUOUS
10
6.76704
20
-3.27882
11
6.77308
21
-3.28538
0
LINE
8
BLACK
6
CONTINUOUS
10
6.77308
20
-3.28538
11
6.77795
21
-3.29283
0
LINE
8
BLACK
6
CONTINUOUS
10
6.77795
20
-3.29283
11
6.78153
21
-3.30099
0
LINE
8
BLACK
6
CONTINUOUS
10
6.78153
20
-3.30099
11
6.78371
21
-3.30963
0
LINE
8
BLACK
6
CONTINUOUS
10
6.78371
20
-3.30963
11
6.78445
21
-3.3185
0
LINE
8
BLACK
6
CONTINUOUS
10
6.78445
20
-3.3185
11
6.78371
21
-3.32738
0
LINE
8
BLACK
6
CONTINUOUS
10
6.78371
20
-3.32738
11
6.78153
21
-3.33602
0
LINE
8
BLACK
6
CONTINUOUS
10
6.78153
20
-3.33602
11
6.77795
21
-3.34418
0
LINE
8
BLACK
6
CONTINUOUS
10
6.77795
20
-3.34418
11
6.77308
21
-3.35163
0
LINE
8
BLACK
6
CONTINUOUS
10
6.77308
20
-3.35163
11
6.76704
21
-3.35819
0
LINE
8
BLACK
6
CONTINUOUS
10
6.76704
20
-3.35819
11
6.76001
21
-3.36366
0
LINE
8
BLACK
6
CONTINUOUS
10
6.76001
20
-3.36366
11
6.75218
21
-3.3679
0
LINE
8
BLACK
6
CONTINUOUS
10
6.75218
20
-3.3679
11
6.74375
21
-3.37079
0
LINE
8
BLACK
6
CONTINUOUS
10
6.74375
20
-3.37079
11
6.73497
21
-3.37226
0
LINE
8
BLACK
6
CONTINUOUS
10
6.73497
20
-3.37226
11
6.72606
21
-3.37226
0
LINE
8
BLACK
6
CONTINUOUS
10
6.72606
20
-3.37226
11
6.71727
21
-3.37079
0
LINE
8
BLACK
6
CONTINUOUS
10
6.71727
20
-3.37079
11
6.70885
21
-3.3679
0
LINE
8
BLACK
6
CONTINUOUS
10
6.70885
20
-3.3679
11
6.70101
21
-3.36366
0
LINE
8
BLACK
6
CONTINUOUS
10
6.70101
20
-3.36366
11
6.69398
21
-3.35819
0
LINE
8
BLACK
6
CONTINUOUS
10
6.69398
20
-3.35819
11
6.68795
21
-3.35163
0
LINE
8
BLACK
6
CONTINUOUS
10
6.68795
20
-3.35163
11
6.68308
21
-3.34418
0
LINE
8
BLACK
6
CONTINUOUS
10
6.68308
20
-3.34418
11
6.6795
21
-3.33602
0
LINE
8
BLACK
6
CONTINUOUS
10
6.6795
20
-3.33602
11
6.67731
21
-3.32738
0
LINE
8
BLACK
6
CONTINUOUS
10
6.67731
20
-3.32738
11
6.67657
21
-3.3185
0
LINE
8
BLACK
6
CONTINUOUS
10
6.67657
20
-3.3185
11
6.67731
21
-3.30963
0
LINE
8
BLACK
6
CONTINUOUS
10
6.67731
20
-3.30963
11
6.6795
21
-3.30099
0
LINE
8
BLACK
6
CONTINUOUS
10
6.6795
20
-3.30099
11
6.68308
21
-3.29283
0
LINE
8
BLACK
6
CONTINUOUS
10
6.68308
20
-3.29283
11
6.68795
21
-3.28538
0
LINE
8
BLACK
6
CONTINUOUS
10
6.68795
20
-3.28538
11
6.69398
21
-3.27882
0
LINE
8
BLACK
6
CONTINUOUS
10
6.69398
20
-3.27882
11
6.70101
21
-3.27335
0
LINE
8
BLACK
6
CONTINUOUS
10
6.70101
20
-3.27335
11
6.70885
21
-3.26911
0
LINE
8
BLACK
6
CONTINUOUS
10
6.70885
20
-3.26911
11
6.71727
21
-3.26622
0
LINE
8
BLACK
6
CONTINUOUS
10
6.71727
20
-3.26622
11
6.72606
21
-3.26475
0
LINE
8
BLACK
6
CONTINUOUS
10
6.72606
20
-3.26475
11
6.73497
21
-3.26475
0
LINE
8
BLACK
6
CONTINUOUS
10
6.73497
20
-3.26475
11
6.74375
21
-3.26622
0
LINE
8
BLACK
6
CONTINUOUS
10
6.08551
20
-3.1985
11
6.02551
21
-3.1985
0
LINE
8
BLACK
6
CONTINUOUS
10
6.02551
20
-3.1985
11
6.02551
21
-3.1385
0
LINE
8
BLACK
6
CONTINUOUS
10
6.02551
20
-3.1385
11
6.08551
21
-3.1385
0
LINE
8
BLACK
6
CONTINUOUS
10
6.08551
20
-3.1385
11
6.08551
21
-3.1985
0
LINE
8
BLACK
6
CONTINUOUS
10
6.18551
20
-3.1985
11
6.12551
21
-3.1985
0
LINE
8
BLACK
6
CONTINUOUS
10
6.12551
20
-3.1985
11
6.12551
21
-3.1385
0
LINE
8
BLACK
6
CONTINUOUS
10
6.12551
20
-3.1385
11
6.18551
21
-3.1385
0
LINE
8
BLACK
6
CONTINUOUS
10
6.18551
20
-3.1385
11
6.18551
21
-3.1985
0
LINE
8
BLACK
6
CONTINUOUS
10
6.28551
20
-3.1985
11
6.22551
21
-3.1985
0
LINE
8
BLACK
6
CONTINUOUS
10
6.22551
20
-3.1985
11
6.22551
21
-3.1385
0
LINE
8
BLACK
6
CONTINUOUS
10
6.22551
20
-3.1385
11
6.28551
21
-3.1385
0
LINE
8
BLACK
6
CONTINUOUS
10
6.28551
20
-3.1385
11
6.28551
21
-3.1985
0
LINE
8
BLACK
6
CONTINUOUS
10
6.38551
20
-3.1985
11
6.32551
21
-3.1985
0
LINE
8
BLACK
6
CONTINUOUS
10
6.32551
20
-3.1985
11
6.32551
21
-3.1385
0
LINE
8
BLACK
6
CONTINUOUS
10
6.32551
20
-3.1385
11
6.38551
21
-3.1385
0
LINE
8
BLACK
6
CONTINUOUS
10
6.38551
20
-3.1385
11
6.38551
21
-3.1985
0
LINE
8
BLACK
6
CONTINUOUS
10
5.50102
20
-2.92719
11
5.51439
21
-2.93036
0
LINE
8
BLACK
6
CONTINUOUS
10
5.51439
20
-2.93036
11
5.52729
21
-2.93505
0
LINE
8
BLACK
6
CONTINUOUS
10
5.52729
20
-2.93505
11
5.53957
21
-2.94122
0
LINE
8
BLACK
6
CONTINUOUS
10
5.53957
20
-2.94122
11
5.55104
21
-2.94876
0
LINE
8
BLACK
6
CONTINUOUS
10
5.55104
20
-2.94876
11
5.56156
21
-2.95759
0
LINE
8
BLACK
6
CONTINUOUS
10
5.56156
20
-2.95759
11
5.57099
21
-2.96758
0
LINE
8
BLACK
6
CONTINUOUS
10
5.57099
20
-2.96758
11
5.57919
21
-2.9786
0
LINE
8
BLACK
6
CONTINUOUS
10
5.57919
20
-2.9786
11
5.58606
21
-2.9905
0
LINE
8
BLACK
6
CONTINUOUS
10
5.58606
20
-2.9905
11
5.5915
21
-3.00311
0
LINE
8
BLACK
6
CONTINUOUS
10
5.5915
20
-3.00311
11
5.59544
21
-3.01627
0
LINE
8
BLACK
6
CONTINUOUS
10
5.59544
20
-3.01627
11
5.59782
21
-3.02979
0
LINE
8
BLACK
6
CONTINUOUS
10
5.59782
20
-3.02979
11
5.59862
21
-3.0435
0
LINE
8
BLACK
6
CONTINUOUS
10
5.59862
20
-3.0435
11
5.59782
21
-3.05722
0
LINE
8
BLACK
6
CONTINUOUS
10
5.59782
20
-3.05722
11
5.59544
21
-3.07074
0
LINE
8
BLACK
6
CONTINUOUS
10
5.59544
20
-3.07074
11
5.5915
21
-3.0839
0
LINE
8
BLACK
6
CONTINUOUS
10
5.5915
20
-3.0839
11
5.58606
21
-3.09651
0
LINE
8
BLACK
6
CONTINUOUS
10
5.58606
20
-3.09651
11
5.57919
21
-3.10841
0
LINE
8
BLACK
6
CONTINUOUS
10
5.57919
20
-3.10841
11
5.57099
21
-3.11942
0
LINE
8
BLACK
6
CONTINUOUS
10
5.57099
20
-3.11942
11
5.56156
21
-3.12941
0
LINE
8
BLACK
6
CONTINUOUS
10
5.56156
20
-3.12941
11
5.55104
21
-3.13824
0
LINE
8
BLACK
6
CONTINUOUS
10
5.55104
20
-3.13824
11
5.53957
21
-3.14579
0
LINE
8
BLACK
6
CONTINUOUS
10
5.53957
20
-3.14579
11
5.52729
21
-3.15195
0
LINE
8
BLACK
6
CONTINUOUS
10
5.52729
20
-3.15195
11
5.51439
21
-3.15665
0
LINE
8
BLACK
6
CONTINUOUS
10
5.51439
20
-3.15665
11
5.50102
21
-3.15982
0
LINE
8
BLACK
6
CONTINUOUS
10
5.50102
20
-3.15982
11
5.48738
21
-3.16141
0
LINE
8
BLACK
6
CONTINUOUS
10
5.48738
20
-3.16141
11
5.47364
21
-3.16141
0
LINE
8
BLACK
6
CONTINUOUS
10
5.47364
20
-3.16141
11
5.46
21
-3.15982
0
LINE
8
BLACK
6
CONTINUOUS
10
5.46
20
-3.15982
11
5.44664
21
-3.15665
0
LINE
8
BLACK
6
CONTINUOUS
10
5.44664
20
-3.15665
11
5.43373
21
-3.15195
0
LINE
8
BLACK
6
CONTINUOUS
10
5.43373
20
-3.15195
11
5.42146
21
-3.14579
0
LINE
8
BLACK
6
CONTINUOUS
10
5.42146
20
-3.14579
11
5.40998
21
-3.13824
0
LINE
8
BLACK
6
CONTINUOUS
10
5.40998
20
-3.13824
11
5.39946
21
-3.12941
0
LINE
8
BLACK
6
CONTINUOUS
10
5.39946
20
-3.12941
11
5.39003
21
-3.11942
0
LINE
8
BLACK
6
CONTINUOUS
10
5.39003
20
-3.11942
11
5.38183
21
-3.10841
0
LINE
8
BLACK
6
CONTINUOUS
10
5.38183
20
-3.10841
11
5.37496
21
-3.09651
0
LINE
8
BLACK
6
CONTINUOUS
10
5.37496
20
-3.09651
11
5.36952
21
-3.0839
0
LINE
8
BLACK
6
CONTINUOUS
10
5.36952
20
-3.0839
11
5.36559
21
-3.07074
0
LINE
8
BLACK
6
CONTINUOUS
10
5.36559
20
-3.07074
11
5.3632
21
-3.05722
0
LINE
8
BLACK
6
CONTINUOUS
10
5.3632
20
-3.05722
11
5.3624
21
-3.0435
0
LINE
8
BLACK
6
CONTINUOUS
10
5.3624
20
-3.0435
11
5.3632
21
-3.02979
0
LINE
8
BLACK
6
CONTINUOUS
10
5.3632
20
-3.02979
11
5.36559
21
-3.01627
0
LINE
8
BLACK
6
CONTINUOUS
10
5.36559
20
-3.01627
11
5.36952
21
-3.00311
0
LINE
8
BLACK
6
CONTINUOUS
10
5.36952
20
-3.00311
11
5.37496
21
-2.9905
0
LINE
8
BLACK
6
CONTINUOUS
10
5.37496
20
-2.9905
11
5.38183
21
-2.9786
0
LINE
8
BLACK
6
CONTINUOUS
10
5.38183
20
-2.9786
11
5.39003
21
-2.96758
0
LINE
8
BLACK
6
CONTINUOUS
10
5.39003
20
-2.96758
11
5.39946
21
-2.95759
0
LINE
8
BLACK
6
CONTINUOUS
10
5.39946
20
-2.95759
11
5.40998
21
-2.94876
0
LINE
8
BLACK
6
CONTINUOUS
10
5.40998
20
-2.94876
11
5.42146
21
-2.94122
0
LINE
8
BLACK
6
CONTINUOUS
10
5.42146
20
-2.94122
11
5.43373
21
-2.93505
0
LINE
8
BLACK
6
CONTINUOUS
10
5.43373
20
-2.93505
11
5.44664
21
-2.93036
0
LINE
8
BLACK
6
CONTINUOUS
10
5.44664
20
-2.93036
11
5.46
21
-2.92719
0
LINE
8
BLACK
6
CONTINUOUS
10
5.46
20
-2.92719
11
5.47364
21
-2.92559
0
LINE
8
BLACK
6
CONTINUOUS
10
5.47364
20
-2.92559
11
5.48738
21
-2.92559
0
LINE
8
BLACK
6
CONTINUOUS
10
5.48738
20
-2.92559
11
5.50102
21
-2.92719
0
LINE
8
BLACK
6
CONTINUOUS
10
6.70102
20
-2.92719
11
6.71439
21
-2.93036
0
LINE
8
BLACK
6
CONTINUOUS
10
6.71439
20
-2.93036
11
6.72729
21
-2.93505
0
LINE
8
BLACK
6
CONTINUOUS
10
6.72729
20
-2.93505
11
6.73957
21
-2.94122
0
LINE
8
BLACK
6
CONTINUOUS
10
6.73957
20
-2.94122
11
6.75104
21
-2.94876
0
LINE
8
BLACK
6
CONTINUOUS
10
6.75104
20
-2.94876
11
6.76156
21
-2.95759
0
LINE
8
BLACK
6
CONTINUOUS
10
6.76156
20
-2.95759
11
6.77099
21
-2.96758
0
LINE
8
BLACK
6
CONTINUOUS
10
6.77099
20
-2.96758
11
6.77919
21
-2.9786
0
LINE
8
BLACK
6
CONTINUOUS
10
6.77919
20
-2.9786
11
6.78606
21
-2.9905
0
LINE
8
BLACK
6
CONTINUOUS
10
6.78606
20
-2.9905
11
6.7915
21
-3.00311
0
LINE
8
BLACK
6
CONTINUOUS
10
6.7915
20
-3.00311
11
6.79544
21
-3.01627
0
LINE
8
BLACK
6
CONTINUOUS
10
6.79544
20
-3.01627
11
6.79782
21
-3.02979
0
LINE
8
BLACK
6
CONTINUOUS
10
6.79782
20
-3.02979
11
6.79862
21
-3.0435
0
LINE
8
BLACK
6
CONTINUOUS
10
6.79862
20
-3.0435
11
6.79782
21
-3.05722
0
LINE
8
BLACK
6
CONTINUOUS
10
6.79782
20
-3.05722
11
6.79544
21
-3.07074
0
LINE
8
BLACK
6
CONTINUOUS
10
6.79544
20
-3.07074
11
6.7915
21
-3.0839
0
LINE
8
BLACK
6
CONTINUOUS
10
6.7915
20
-3.0839
11
6.78606
21
-3.09651
0
LINE
8
BLACK
6
CONTINUOUS
10
6.78606
20
-3.09651
11
6.77919
21
-3.10841
0
LINE
8
BLACK
6
CONTINUOUS
10
6.77919
20
-3.10841
11
6.77099
21
-3.11942
0
LINE
8
BLACK
6
CONTINUOUS
10
6.77099
20
-3.11942
11
6.76156
21
-3.12941
0
LINE
8
BLACK
6
CONTINUOUS
10
6.76156
20
-3.12941
11
6.75104
21
-3.13824
0
LINE
8
BLACK
6
CONTINUOUS
10
6.75104
20
-3.13824
11
6.73957
21
-3.14579
0
LINE
8
BLACK
6
CONTINUOUS
10
6.73957
20
-3.14579
11
6.72729
21
-3.15195
0
LINE
8
BLACK
6
CONTINUOUS
10
6.72729
20
-3.15195
11
6.71439
21
-3.15665
0
LINE
8
BLACK
6
CONTINUOUS
10
6.71439
20
-3.15665
11
6.70102
21
-3.15982
0
LINE
8
BLACK
6
CONTINUOUS
10
6.70102
20
-3.15982
11
6.68738
21
-3.16141
0
LINE
8
BLACK
6
CONTINUOUS
10
6.68738
20
-3.16141
11
6.67364
21
-3.16141
0
LINE
8
BLACK
6
CONTINUOUS
10
6.67364
20
-3.16141
11
6.66
21
-3.15982
0
LINE
8
BLACK
6
CONTINUOUS
10
6.66
20
-3.15982
11
6.64664
21
-3.15665
0
LINE
8
BLACK
6
CONTINUOUS
10
6.64664
20
-3.15665
11
6.63373
21
-3.15195
0
LINE
8
BLACK
6
CONTINUOUS
10
6.63373
20
-3.15195
11
6.62146
21
-3.14579
0
LINE
8
BLACK
6
CONTINUOUS
10
6.62146
20
-3.14579
11
6.60998
21
-3.13824
0
LINE
8
BLACK
6
CONTINUOUS
10
6.60998
20
-3.13824
11
6.59946
21
-3.12941
0
LINE
8
BLACK
6
CONTINUOUS
10
6.59946
20
-3.12941
11
6.59003
21
-3.11942
0
LINE
8
BLACK
6
CONTINUOUS
10
6.59003
20
-3.11942
11
6.58183
21
-3.10841
0
LINE
8
BLACK
6
CONTINUOUS
10
6.58183
20
-3.10841
11
6.57496
21
-3.09651
0
LINE
8
BLACK
6
CONTINUOUS
10
6.57496
20
-3.09651
11
6.56952
21
-3.0839
0
LINE
8
BLACK
6
CONTINUOUS
10
6.56952
20
-3.0839
11
6.56559
21
-3.07074
0
LINE
8
BLACK
6
CONTINUOUS
10
6.56559
20
-3.07074
11
6.5632
21
-3.05722
0
LINE
8
BLACK
6
CONTINUOUS
10
6.5632
20
-3.05722
11
6.5624
21
-3.0435
0
LINE
8
BLACK
6
CONTINUOUS
10
6.5624
20
-3.0435
11
6.5632
21
-3.02979
0
LINE
8
BLACK
6
CONTINUOUS
10
6.5632
20
-3.02979
11
6.56559
21
-3.01627
0
LINE
8
BLACK
6
CONTINUOUS
10
6.56559
20
-3.01627
11
6.56952
21
-3.00311
0
LINE
8
BLACK
6
CONTINUOUS
10
6.56952
20
-3.00311
11
6.57496
21
-2.9905
0
LINE
8
BLACK
6
CONTINUOUS
10
6.57496
20
-2.9905
11
6.58183
21
-2.9786
0
LINE
8
BLACK
6
CONTINUOUS
10
6.58183
20
-2.9786
11
6.59003
21
-2.96758
0
LINE
8
BLACK
6
CONTINUOUS
10
6.59003
20
-2.96758
11
6.59946
21
-2.95759
0
LINE
8
BLACK
6
CONTINUOUS
10
6.59946
20
-2.95759
11
6.60998
21
-2.94876
0
LINE
8
BLACK
6
CONTINUOUS
10
6.60998
20
-2.94876
11
6.62146
21
-2.94122
0
LINE
8
BLACK
6
CONTINUOUS
10
6.62146
20
-2.94122
11
6.63373
21
-2.93505
0
LINE
8
BLACK
6
CONTINUOUS
10
6.63373
20
-2.93505
11
6.64664
21
-2.93036
0
LINE
8
BLACK
6
CONTINUOUS
10
6.64664
20
-2.93036
11
6.66
21
-2.92719
0
LINE
8
BLACK
6
CONTINUOUS
10
6.66
20
-2.92719
11
6.67364
21
-2.92559
0
LINE
8
BLACK
6
CONTINUOUS
10
6.67364
20
-2.92559
11
6.68738
21
-2.92559
0
LINE
8
BLACK
6
CONTINUOUS
10
6.68738
20
-2.92559
11
6.70102
21
-2.92719
0
LINE
8
BLACK
6
CONTINUOUS
10
5.76051
20
-3.1235
11
5.70051
21
-3.1235
0
LINE
8
BLACK
6
CONTINUOUS
10
5.70051
20
-3.1235
11
5.70051
21
-3.0635
0
LINE
8
BLACK
6
CONTINUOUS
10
5.70051
20
-3.0635
11
5.76051
21
-3.0635
0
LINE
8
BLACK
6
CONTINUOUS
10
5.76051
20
-3.0635
11
5.76051
21
-3.1235
0
LINE
8
BLACK
6
CONTINUOUS
10
5.86051
20
-3.1235
11
5.80051
21
-3.1235
0
LINE
8
BLACK
6
CONTINUOUS
10
5.80051
20
-3.1235
11
5.80051
21
-3.0635
0
LINE
8
BLACK
6
CONTINUOUS
10
5.80051
20
-3.0635
11
5.86051
21
-3.0635
0
LINE
8
BLACK
6
CONTINUOUS
10
5.86051
20
-3.0635
11
5.86051
21
-3.1235
0
LINE
8
BLACK
6
CONTINUOUS
10
5.96051
20
-3.1235
11
5.90051
21
-3.1235
0
LINE
8
BLACK
6
CONTINUOUS
10
5.90051
20
-3.1235
11
5.90051
21
-3.0635
0
LINE
8
BLACK
6
CONTINUOUS
10
5.90051
20
-3.0635
11
5.96051
21
-3.0635
0
LINE
8
BLACK
6
CONTINUOUS
10
5.96051
20
-3.0635
11
5.96051
21
-3.1235
0
LINE
8
BLACK
6
CONTINUOUS
10
6.08551
20
-3.0985
11
6.02551
21
-3.0985
0
LINE
8
BLACK
6
CONTINUOUS
10
6.02551
20
-3.0985
11
6.02551
21
-3.0385
0
LINE
8
BLACK
6
CONTINUOUS
10
6.02551
20
-3.0385
11
6.08551
21
-3.0385
0
LINE
8
BLACK
6
CONTINUOUS
10
6.08551
20
-3.0385
11
6.08551
21
-3.0985
0
LINE
8
BLACK
6
CONTINUOUS
10
6.18551
20
-3.0985
11
6.12551
21
-3.0985
0
LINE
8
BLACK
6
CONTINUOUS
10
6.12551
20
-3.0985
11
6.12551
21
-3.0385
0
LINE
8
BLACK
6
CONTINUOUS
10
6.12551
20
-3.0385
11
6.18551
21
-3.0385
0
LINE
8
BLACK
6
CONTINUOUS
10
6.18551
20
-3.0385
11
6.18551
21
-3.0985
0
LINE
8
BLACK
6
CONTINUOUS
10
6.28551
20
-3.0985
11
6.22551
21
-3.0985
0
LINE
8
BLACK
6
CONTINUOUS
10
6.22551
20
-3.0985
11
6.22551
21
-3.0385
0
LINE
8
BLACK
6
CONTINUOUS
10
6.22551
20
-3.0385
11
6.28551
21
-3.0385
0
LINE
8
BLACK
6
CONTINUOUS
10
6.28551
20
-3.0385
11
6.28551
21
-3.0985
0
LINE
8
BLACK
6
CONTINUOUS
10
6.38551
20
-3.0985
11
6.32551
21
-3.0985
0
LINE
8
BLACK
6
CONTINUOUS
10
6.32551
20
-3.0985
11
6.32551
21
-3.0385
0
LINE
8
BLACK
6
CONTINUOUS
10
6.32551
20
-3.0385
11
6.38551
21
-3.0385
0
LINE
8
BLACK
6
CONTINUOUS
10
6.38551
20
-3.0385
11
6.38551
21
-3.0985
0
LINE
8
BLACK
6
CONTINUOUS
10
5.76051
20
-3.0235
11
5.70051
21
-3.0235
0
LINE
8
BLACK
6
CONTINUOUS
10
5.70051
20
-3.0235
11
5.70051
21
-2.9635
0
LINE
8
BLACK
6
CONTINUOUS
10
5.70051
20
-2.9635
11
5.76051
21
-2.9635
0
LINE
8
BLACK
6
CONTINUOUS
10
5.76051
20
-2.9635
11
5.76051
21
-3.0235
0
LINE
8
BLACK
6
CONTINUOUS
10
5.86051
20
-3.0235
11
5.80051
21
-3.0235
0
LINE
8
BLACK
6
CONTINUOUS
10
5.80051
20
-3.0235
11
5.80051
21
-2.9635
0
LINE
8
BLACK
6
CONTINUOUS
10
5.80051
20
-2.9635
11
5.86051
21
-2.9635
0
LINE
8
BLACK
6
CONTINUOUS
10
5.86051
20
-2.9635
11
5.86051
21
-3.0235
0
LINE
8
BLACK
6
CONTINUOUS
10
5.96051
20
-3.0235
11
5.90051
21
-3.0235
0
LINE
8
BLACK
6
CONTINUOUS
10
5.90051
20
-3.0235
11
5.90051
21
-2.9635
0
LINE
8
BLACK
6
CONTINUOUS
10
5.90051
20
-2.9635
11
5.96051
21
-2.9635
0
LINE
8
BLACK
6
CONTINUOUS
10
5.96051
20
-2.9635
11
5.96051
21
-3.0235
  0
ENDSEC
  0
EOF
