  0
SECTION
  2
HEADER
  9
$ANGBASE
  50
0.0
  9
$ANGDIR
  70
1
  9
$MEASUREMENT
  70
0
  0
ENDSEC
  0
SECTION
  2
TABLES
  0
TABLE
  2
LTYPE
  70
4
  0
LTYPE
  5
40F
  2
CONTINUOUS
  70
0
  3
Solid line
  72
65
  73
0
  40
0.0
  0
LTYPE
  5
410
  2
DASHDOT
 70
0
  3
Dash Dot ____ _ ____ _
 72
65
 73
4
 40
2.0
 49
1.25
 49
-0.25
 49
0.25
 49
-0.25
  0
LTYPE
  5
411
  2
DASHED
 70
0
  3
Dashed __ __ __ __ __
 72
65
 73
2
 40
0.75
 49
0.5
 49
-0.25
  0
LTYPE
  5
43B
  2
DOTTED
 70
0
  3
Dotted .  .  .  .
 72
65
 73
2
 40
0.2
 49
0.0
 49
-0.2
  0
ENDTAB
  0
TABLE
  2
STYLE
  70
4
  0
STYLE
  2
KICAD
  70
0
  40
0
  41
1
  42
1
  50
0
  71
0
  3
isocp.shx
  0
STYLE
  2
KICADB
  70
0
  40
0
  41
1
  42
1
  50
0
  71
0
  3
isocp.shx
  0
STYLE
  2
KICADI
  70
0
  40
0
  41
1
  42
1
  50
15
  71
0
  3
isocp.shx
  0
STYLE
  2
KICADBI
  70
0
  40
0
  41
1
  42
1
  50
15
  71
0
  3
isocp.shx
  0
ENDTAB
  0
TABLE
  2
LAYER
  70
1
  0
LAYER
  2
BLACK
  70
0
  62
7
  6
CONTINUOUS
  0
ENDTAB
  0
ENDSEC
  0
SECTION
  2
ENTITIES
0
LINE
8
BLACK
6
CONTINUOUS
10
5.918880590551181
20
-4.1374764960629919
11
5.9194132677165356
21
-4.1380091732283466
0
LINE
8
BLACK
6
CONTINUOUS
10
5.9194132677165356
20
-4.1380091732283466
11
5.919488188976378
21
-4.2486220472440941
0
LINE
8
BLACK
6
CONTINUOUS
10
5.919488188976378
20
-4.2486220472440941
11
5.9194132677165356
21
-4.2489987007874017
0
LINE
8
BLACK
6
CONTINUOUS
10
5.9194132677165356
20
-4.2489987007874017
11
5.918880590551181
21
-4.2495313779527555
0
LINE
8
BLACK
6
CONTINUOUS
10
5.918880590551181
20
-4.2495313779527555
11
5.7925196850393696
21
-4.2496062992125987
0
LINE
8
BLACK
6
CONTINUOUS
10
5.7925196850393696
20
-4.2496062992125987
11
5.7921430314960629
21
-4.2495313779527555
0
LINE
8
BLACK
6
CONTINUOUS
10
5.7921430314960629
20
-4.2495313779527555
11
5.7916103543307083
21
-4.2489987007874017
0
LINE
8
BLACK
6
CONTINUOUS
10
5.7916103543307083
20
-4.2489987007874017
11
5.7915354330708659
21
-4.1383858267716533
0
LINE
8
BLACK
6
CONTINUOUS
10
5.7915354330708659
20
-4.1383858267716533
11
5.7916103543307083
21
-4.1380091732283466
0
LINE
8
BLACK
6
CONTINUOUS
10
5.7916103543307083
20
-4.1380091732283466
11
5.7921430314960629
21
-4.1374764960629919
0
LINE
8
BLACK
6
CONTINUOUS
10
5.7921430314960629
20
-4.1374764960629919
11
5.9185039370078742
21
-4.1374015748031496
0
LINE
8
BLACK
6
CONTINUOUS
10
5.9185039370078742
20
-4.1374015748031496
11
5.918880590551181
21
-4.1374764960629919
0
LINE
8
BLACK
6
CONTINUOUS
10
5.7934299212598424
20
-4.1393695275590554
11
5.7935033070866142
21
-4.2477118897637798
0
LINE
8
BLACK
6
CONTINUOUS
10
5.7935033070866142
20
-4.2477118897637798
11
5.9175936614173228
21
-4.2476383070866142
0
LINE
8
BLACK
6
CONTINUOUS
10
5.9175936614173228
20
-4.2476383070866142
11
5.9175202755905509
21
-4.1392959448818898
0
LINE
8
BLACK
6
CONTINUOUS
10
5.9175202755905509
20
-4.1392959448818898
11
5.7934299212598424
21
-4.1393695275590554
0
LINE
8
BLACK
6
CONTINUOUS
10
6.1829553937007873
20
-4.1341300393700786
11
6.1834880708661419
21
-4.1346627165354333
0
LINE
8
BLACK
6
CONTINUOUS
10
6.1834880708661419
20
-4.1346627165354333
11
6.1835629921259843
21
-4.2019685039370076
0
LINE
8
BLACK
6
CONTINUOUS
10
6.1835629921259843
20
-4.2019685039370076
11
6.1834880708661419
21
-4.2023451574803152
0
LINE
8
BLACK
6
CONTINUOUS
10
6.1834880708661419
20
-4.2023451574803152
11
6.1829553937007873
21
-4.202877834645669
0
LINE
8
BLACK
6
CONTINUOUS
10
6.1829553937007873
20
-4.202877834645669
11
6.0447834645669287
21
-4.2029527559055113
0
LINE
8
BLACK
6
CONTINUOUS
10
6.0447834645669287
20
-4.2029527559055113
11
6.044406811023622
21
-4.202877834645669
0
LINE
8
BLACK
6
CONTINUOUS
10
6.044406811023622
20
-4.202877834645669
11
6.0438741338582673
21
-4.2023451574803152
0
LINE
8
BLACK
6
CONTINUOUS
10
6.0438741338582673
20
-4.2023451574803152
11
6.043799212598425
21
-4.13503937007874
0
LINE
8
BLACK
6
CONTINUOUS
10
6.043799212598425
20
-4.13503937007874
11
6.0438741338582673
21
-4.1346627165354333
0
LINE
8
BLACK
6
CONTINUOUS
10
6.0438741338582673
20
-4.1346627165354333
11
6.044406811023622
21
-4.1341300393700786
0
LINE
8
BLACK
6
CONTINUOUS
10
6.044406811023622
20
-4.1341300393700786
11
6.1825787401574805
21
-4.1340551181102363
0
LINE
8
BLACK
6
CONTINUOUS
10
6.1825787401574805
20
-4.1340551181102363
11
6.1829553937007873
21
-4.1341300393700786
0
LINE
8
BLACK
6
CONTINUOUS
10
6.0456942913385827
20
-4.1360231102362199
11
6.0457666929133858
21
-4.2010584251968499
0
LINE
8
BLACK
6
CONTINUOUS
10
6.0457666929133858
20
-4.2010584251968499
11
6.1816678740157478
21
-4.2009847244094489
0
LINE
8
BLACK
6
CONTINUOUS
10
6.1816678740157478
20
-4.2009847244094489
11
6.1815954724409448
21
-4.1359494094488189
0
LINE
8
BLACK
6
CONTINUOUS
10
6.1815954724409448
20
-4.1359494094488189
11
6.0456942913385827
21
-4.1360231102362199
0
LINE
8
BLACK
6
CONTINUOUS
10
6.2562821653543308
20
-3.794169409448819
11
6.2568148425196846
21
-3.7947020866141732
0
LINE
8
BLACK
6
CONTINUOUS
10
6.2568148425196846
20
-3.7947020866141732
11
6.2568897637795278
21
-3.9919291338582674
0
LINE
8
BLACK
6
CONTINUOUS
10
6.2568897637795278
20
-3.9919291338582674
11
6.2568148425196846
21
-3.9923057874015746
0
LINE
8
BLACK
6
CONTINUOUS
10
6.2568148425196846
20
-3.9923057874015746
11
6.2562821653543308
21
-3.9928384645669293
0
LINE
8
BLACK
6
CONTINUOUS
10
6.2562821653543308
20
-3.9928384645669293
11
6.2123687007874011
21
-3.9928548031496063
0
LINE
8
BLACK
6
CONTINUOUS
10
6.2123687007874011
20
-3.9928548031496063
11
6.3095887795275587
21
-4.0899695275590551
0
LINE
8
BLACK
6
CONTINUOUS
10
6.3095887795275587
20
-4.0899695275590551
11
6.3098021653543306
21
-4.0902888582677166
0
LINE
8
BLACK
6
CONTINUOUS
10
6.3098021653543306
20
-4.0902888582677166
11
6.3098021653543306
21
-4.091042165354331
0
LINE
8
BLACK
6
CONTINUOUS
10
6.3098021653543306
20
-4.091042165354331
11
6.2622627559055113
21
-4.1386875590551178
0
LINE
8
BLACK
6
CONTINUOUS
10
6.2622627559055113
20
-4.1386875590551178
11
6.2619434251968507
21
-4.1389009055118109
0
LINE
8
BLACK
6
CONTINUOUS
10
6.2619434251968507
20
-4.1389009055118109
11
6.2611901181102363
21
-4.1389009055118109
0
LINE
8
BLACK
6
CONTINUOUS
10
6.2611901181102363
20
-4.1389009055118109
11
6.163434803149606
21
-4.0412515748031499
0
LINE
8
BLACK
6
CONTINUOUS
10
6.163434803149606
20
-4.0412515748031499
11
6.1632214566929129
21
-4.0409322440944884
0
LINE
8
BLACK
6
CONTINUOUS
10
6.1632214566929129
20
-4.0409322440944884
11
6.1632214566929129
21
-4.040178937007874
0
LINE
8
BLACK
6
CONTINUOUS
10
6.1632214566929129
20
-4.040178937007874
11
6.2104396062992127
21
-3.9928555118110234
0
LINE
8
BLACK
6
CONTINUOUS
10
6.2104396062992127
20
-3.9928555118110234
11
6.0551181102362204
21
-3.9929133858267716
0
LINE
8
BLACK
6
CONTINUOUS
10
6.0551181102362204
20
-3.9929133858267716
11
6.0547414566929136
21
-3.9928384645669293
0
LINE
8
BLACK
6
CONTINUOUS
10
6.0547414566929136
20
-3.9928384645669293
11
6.054208779527559
21
-3.9923057874015746
0
LINE
8
BLACK
6
CONTINUOUS
10
6.054208779527559
20
-3.9923057874015746
11
6.0541338582677167
21
-3.7950787401574804
0
LINE
8
BLACK
6
CONTINUOUS
10
6.0541338582677167
20
-3.7950787401574804
11
6.054208779527559
21
-3.7947020866141732
0
LINE
8
BLACK
6
CONTINUOUS
10
6.054208779527559
20
-3.7947020866141732
11
6.0547414566929136
21
-3.794169409448819
0
LINE
8
BLACK
6
CONTINUOUS
10
6.0547414566929136
20
-3.794169409448819
11
6.2559055118110232
21
-3.7940944881889762
0
LINE
8
BLACK
6
CONTINUOUS
10
6.2559055118110232
20
-3.7940944881889762
11
6.2562821653543308
21
-3.794169409448819
0
LINE
8
BLACK
6
CONTINUOUS
10
6.1654695669291337
20
-4.0406073228346457
11
6.2616183070866143
21
-4.1366518897637796
0
LINE
8
BLACK
6
CONTINUOUS
10
6.2616183070866143
20
-4.1366518897637796
11
6.3075540551181097
21
-4.0906137401574805
0
LINE
8
BLACK
6
CONTINUOUS
10
6.3075540551181097
20
-4.0906137401574805
11
6.2114052755905513
21
-3.9945692125984249
0
LINE
8
BLACK
6
CONTINUOUS
10
6.2114052755905513
20
-3.9945692125984249
11
6.1654695669291337
21
-4.0406073228346457
0
LINE
8
BLACK
6
CONTINUOUS
10
6.0560279527559056
20
-3.7960626377952753
11
6.0561020078740153
21
-3.9910192913385827
0
LINE
8
BLACK
6
CONTINUOUS
10
6.0561020078740153
20
-3.9910192913385827
11
6.2549956299212601
21
-3.9909451968503937
0
LINE
8
BLACK
6
CONTINUOUS
10
6.2549956299212601
20
-3.9909451968503937
11
6.2549215748031495
21
-3.7959885433070863
0
LINE
8
BLACK
6
CONTINUOUS
10
6.2549215748031495
20
-3.7959885433070863
11
6.0560279527559056
21
-3.7960626377952753
0
LINE
8
BLACK
6
CONTINUOUS
10
5.9808884645669291
20
-3.9125946062992125
11
5.9814211417322829
21
-3.9131272834645667
0
LINE
8
BLACK
6
CONTINUOUS
10
5.9814211417322829
20
-3.9131272834645667
11
5.9814960629921261
21
-4.0735039370078736
0
LINE
8
BLACK
6
CONTINUOUS
10
5.9814960629921261
20
-4.0735039370078736
11
5.9814211417322829
21
-4.0738805905511812
0
LINE
8
BLACK
6
CONTINUOUS
10
5.9814211417322829
20
-4.0738805905511812
11
5.9808884645669291
21
-4.074413267716535
0
LINE
8
BLACK
6
CONTINUOUS
10
5.9808884645669291
20
-4.074413267716535
11
5.7805118110236222
21
-4.0744881889763782
0
LINE
8
BLACK
6
CONTINUOUS
10
5.7805118110236222
20
-4.0744881889763782
11
5.7801351574803146
21
-4.074413267716535
0
LINE
8
BLACK
6
CONTINUOUS
10
5.7801351574803146
20
-4.074413267716535
11
5.7796024803149608
21
-4.0738805905511812
0
LINE
8
BLACK
6
CONTINUOUS
10
5.7796024803149608
20
-4.0738805905511812
11
5.7795275590551176
21
-3.9135039370078739
0
LINE
8
BLACK
6
CONTINUOUS
10
5.7795275590551176
20
-3.9135039370078739
11
5.7796024803149608
21
-3.9131272834645667
0
LINE
8
BLACK
6
CONTINUOUS
10
5.7796024803149608
20
-3.9131272834645667
11
5.7801351574803146
21
-3.9125946062992125
0
LINE
8
BLACK
6
CONTINUOUS
10
5.7801351574803146
20
-3.9125946062992125
11
5.9805118110236215
21
-3.9125196850393702
0
LINE
8
BLACK
6
CONTINUOUS
10
5.9805118110236215
20
-3.9125196850393702
11
5.9808884645669291
21
-3.9125946062992125
0
LINE
8
BLACK
6
CONTINUOUS
10
5.7814217716535428
20
-3.9144878346456693
11
5.7814956299212596
21
-4.0725940944881893
0
LINE
8
BLACK
6
CONTINUOUS
10
5.7814956299212596
20
-4.0725940944881893
11
5.9796018110236222
21
-4.0725199999999999
0
LINE
8
BLACK
6
CONTINUOUS
10
5.9796018110236222
20
-4.0725199999999999
11
5.9795279527559053
21
-3.9144137401574803
0
LINE
8
BLACK
6
CONTINUOUS
10
5.9795279527559053
20
-3.9144137401574803
11
5.7814217716535428
21
-3.9144878346456693
0
LINE
8
BLACK
6
CONTINUOUS
10
5.6982112992125984
20
-3.7002717716535432
11
5.698743976377953
21
-3.7008044488188974
0
LINE
8
BLACK
6
CONTINUOUS
10
5.698743976377953
20
-3.7008044488188974
11
5.6988188976377954
21
-4.035826771653543
0
LINE
8
BLACK
6
CONTINUOUS
10
5.6988188976377954
20
-4.035826771653543
11
5.698743976377953
21
-4.0362034251968506
0
LINE
8
BLACK
6
CONTINUOUS
10
5.698743976377953
20
-4.0362034251968506
11
5.6982112992125984
21
-4.0367361023622044
0
LINE
8
BLACK
6
CONTINUOUS
10
5.6982112992125984
20
-4.0367361023622044
11
5.3631889763779528
21
-4.0368110236220476
0
LINE
8
BLACK
6
CONTINUOUS
10
5.3631889763779528
20
-4.0368110236220476
11
5.3628123228346452
21
-4.0367361023622044
0
LINE
8
BLACK
6
CONTINUOUS
10
5.3628123228346452
20
-4.0367361023622044
11
5.3622796456692914
21
-4.0362034251968506
0
LINE
8
BLACK
6
CONTINUOUS
10
5.3622796456692914
20
-4.0362034251968506
11
5.3622047244094491
21
-3.7011811023622045
0
LINE
8
BLACK
6
CONTINUOUS
10
5.3622047244094491
20
-3.7011811023622045
11
5.3622796456692914
21
-3.7008044488188974
0
LINE
8
BLACK
6
CONTINUOUS
10
5.3622796456692914
20
-3.7008044488188974
11
5.3628123228346452
21
-3.7002717716535432
0
LINE
8
BLACK
6
CONTINUOUS
10
5.3628123228346452
20
-3.7002717716535432
11
5.6978346456692908
21
-3.7001968503937008
0
LINE
8
BLACK
6
CONTINUOUS
10
5.6978346456692908
20
-3.7001968503937008
11
5.6982112992125984
21
-3.7002717716535432
0
LINE
8
BLACK
6
CONTINUOUS
10
5.3640985826771654
20
-3.7021651181102362
11
5.364172992125984
21
-4.0349171259842516
0
LINE
8
BLACK
6
CONTINUOUS
10
5.364172992125984
20
-4.0349171259842516
11
5.6969250000000002
21
-4.034842716535433
0
LINE
8
BLACK
6
CONTINUOUS
10
5.6969250000000002
20
-4.034842716535433
11
5.6968505905511808
21
-3.7020907086614172
0
LINE
8
BLACK
6
CONTINUOUS
10
5.6968505905511808
20
-3.7020907086614172
11
5.3640985826771654
21
-3.7021651181102362
0
LINE
8
BLACK
6
CONTINUOUS
10
6.798211299212598
20
-3.7002717716535432
11
6.7987439763779527
21
-3.7008044488188974
0
LINE
8
BLACK
6
CONTINUOUS
10
6.7987439763779527
20
-3.7008044488188974
11
6.798818897637795
21
-4.035826771653543
0
LINE
8
BLACK
6
CONTINUOUS
10
6.798818897637795
20
-4.035826771653543
11
6.7987439763779527
21
-4.0362034251968506
0
LINE
8
BLACK
6
CONTINUOUS
10
6.7987439763779527
20
-4.0362034251968506
11
6.798211299212598
21
-4.0367361023622044
0
LINE
8
BLACK
6
CONTINUOUS
10
6.798211299212598
20
-4.0367361023622044
11
6.4631889763779524
21
-4.0368110236220476
0
LINE
8
BLACK
6
CONTINUOUS
10
6.4631889763779524
20
-4.0368110236220476
11
6.4628123228346457
21
-4.0367361023622044
0
LINE
8
BLACK
6
CONTINUOUS
10
6.4628123228346457
20
-4.0367361023622044
11
6.462279645669291
21
-4.0362034251968506
0
LINE
8
BLACK
6
CONTINUOUS
10
6.462279645669291
20
-4.0362034251968506
11
6.4622047244094487
21
-3.7011811023622045
0
LINE
8
BLACK
6
CONTINUOUS
10
6.4622047244094487
20
-3.7011811023622045
11
6.462279645669291
21
-3.7008044488188974
0
LINE
8
BLACK
6
CONTINUOUS
10
6.462279645669291
20
-3.7008044488188974
11
6.4628123228346457
21
-3.7002717716535432
0
LINE
8
BLACK
6
CONTINUOUS
10
6.4628123228346457
20
-3.7002717716535432
11
6.7978346456692913
21
-3.7001968503937008
0
LINE
8
BLACK
6
CONTINUOUS
10
6.7978346456692913
20
-3.7001968503937008
11
6.798211299212598
21
-3.7002717716535432
0
LINE
8
BLACK
6
CONTINUOUS
10
6.4640985826771651
20
-3.7021651181102362
11
6.4641729921259845
21
-4.0349171259842516
0
LINE
8
BLACK
6
CONTINUOUS
10
6.4641729921259845
20
-4.0349171259842516
11
6.7969249999999999
21
-4.034842716535433
0
LINE
8
BLACK
6
CONTINUOUS
10
6.7969249999999999
20
-4.034842716535433
11
6.7968505905511813
21
-3.7020907086614172
0
LINE
8
BLACK
6
CONTINUOUS
10
6.7968505905511813
20
-3.7020907086614172
11
6.4640985826771651
21
-3.7021651181102362
0
LINE
8
BLACK
6
CONTINUOUS
10
6.0459553937007868
20
-3.7791300393700786
11
6.0464880708661415
21
-3.7796627165354328
0
LINE
8
BLACK
6
CONTINUOUS
10
6.0464880708661415
20
-3.7796627165354328
11
6.0465629921259838
21
-3.8469685039370076
0
LINE
8
BLACK
6
CONTINUOUS
10
6.0465629921259838
20
-3.8469685039370076
11
6.0464880708661415
21
-3.8473451574803148
0
LINE
8
BLACK
6
CONTINUOUS
10
6.0464880708661415
20
-3.8473451574803148
11
6.0459553937007868
21
-3.847877834645669
0
LINE
8
BLACK
6
CONTINUOUS
10
6.0459553937007868
20
-3.847877834645669
11
5.9077834645669292
21
-3.8479527559055118
0
LINE
8
BLACK
6
CONTINUOUS
10
5.9077834645669292
20
-3.8479527559055118
11
5.9074068110236215
21
-3.847877834645669
0
LINE
8
BLACK
6
CONTINUOUS
10
5.9074068110236215
20
-3.847877834645669
11
5.9068741338582678
21
-3.8473451574803148
0
LINE
8
BLACK
6
CONTINUOUS
10
5.9068741338582678
20
-3.8473451574803148
11
5.9067992125984254
21
-3.78003937007874
0
LINE
8
BLACK
6
CONTINUOUS
10
5.9067992125984254
20
-3.78003937007874
11
5.9068741338582678
21
-3.7796627165354328
0
LINE
8
BLACK
6
CONTINUOUS
10
5.9068741338582678
20
-3.7796627165354328
11
5.9074068110236215
21
-3.7791300393700786
0
LINE
8
BLACK
6
CONTINUOUS
10
5.9074068110236215
20
-3.7791300393700786
11
6.0455787401574801
21
-3.7790551181102363
0
LINE
8
BLACK
6
CONTINUOUS
10
6.0455787401574801
20
-3.7790551181102363
11
6.0459553937007868
21
-3.7791300393700786
0
LINE
8
BLACK
6
CONTINUOUS
10
5.9086942913385823
20
-3.7810231102362204
11
5.9087666929133853
21
-3.8460584251968504
0
LINE
8
BLACK
6
CONTINUOUS
10
5.9087666929133853
20
-3.8460584251968504
11
6.0446678740157482
21
-3.8459847244094489
0
LINE
8
BLACK
6
CONTINUOUS
10
6.0446678740157482
20
-3.8459847244094489
11
6.0445954724409443
21
-3.780949409448819
0
LINE
8
BLACK
6
CONTINUOUS
10
6.0445954724409443
20
-3.780949409448819
11
5.9086942913385823
21
-3.7810231102362204
0
LINE
8
BLACK
6
CONTINUOUS
10
5.8938805905511806
20
-3.5874764960629921
11
5.8944132677165353
21
-3.5880091732283463
0
LINE
8
BLACK
6
CONTINUOUS
10
5.8944132677165353
20
-3.5880091732283463
11
5.8944881889763776
21
-3.6986220472440943
0
LINE
8
BLACK
6
CONTINUOUS
10
5.8944881889763776
20
-3.6986220472440943
11
5.8944132677165353
21
-3.6989987007874015
0
LINE
8
BLACK
6
CONTINUOUS
10
5.8944132677165353
20
-3.6989987007874015
11
5.8938805905511806
21
-3.6995313779527557
0
LINE
8
BLACK
6
CONTINUOUS
10
5.8938805905511806
20
-3.6995313779527557
11
5.7675196850393702
21
-3.6996062992125984
0
LINE
8
BLACK
6
CONTINUOUS
10
5.7675196850393702
20
-3.6996062992125984
11
5.7671430314960626
21
-3.6995313779527557
0
LINE
8
BLACK
6
CONTINUOUS
10
5.7671430314960626
20
-3.6995313779527557
11
5.7666103543307088
21
-3.6989987007874015
0
LINE
8
BLACK
6
CONTINUOUS
10
5.7666103543307088
20
-3.6989987007874015
11
5.7665354330708656
21
-3.5883858267716535
0
LINE
8
BLACK
6
CONTINUOUS
10
5.7665354330708656
20
-3.5883858267716535
11
5.7666103543307088
21
-3.5880091732283463
0
LINE
8
BLACK
6
CONTINUOUS
10
5.7666103543307088
20
-3.5880091732283463
11
5.7671430314960626
21
-3.5874764960629921
0
LINE
8
BLACK
6
CONTINUOUS
10
5.7671430314960626
20
-3.5874764960629921
11
5.8935039370078739
21
-3.5874015748031494
0
LINE
8
BLACK
6
CONTINUOUS
10
5.8935039370078739
20
-3.5874015748031494
11
5.8938805905511806
21
-3.5874764960629921
0
LINE
8
BLACK
6
CONTINUOUS
10
5.768429921259842
20
-3.5893695275590551
11
5.7685033070866139
21
-3.6977118897637795
0
LINE
8
BLACK
6
CONTINUOUS
10
5.7685033070866139
20
-3.6977118897637795
11
5.8925936614173224
21
-3.6976383070866139
0
LINE
8
BLACK
6
CONTINUOUS
10
5.8925936614173224
20
-3.6976383070866139
11
5.8925202755905515
21
-3.5892959448818895
0
LINE
8
BLACK
6
CONTINUOUS
10
5.8925202755905515
20
-3.5892959448818895
11
5.768429921259842
21
-3.5893695275590551
0
LINE
8
BLACK
6
CONTINUOUS
10
6.3688805905511812
20
-3.5874764960629921
11
6.3694132677165349
21
-3.5880091732283463
0
LINE
8
BLACK
6
CONTINUOUS
10
6.3694132677165349
20
-3.5880091732283463
11
6.3694881889763781
21
-3.6986220472440943
0
LINE
8
BLACK
6
CONTINUOUS
10
6.3694881889763781
20
-3.6986220472440943
11
6.3694132677165349
21
-3.6989987007874015
0
LINE
8
BLACK
6
CONTINUOUS
10
6.3694132677165349
20
-3.6989987007874015
11
6.3688805905511812
21
-3.6995313779527557
0
LINE
8
BLACK
6
CONTINUOUS
10
6.3688805905511812
20
-3.6995313779527557
11
6.2425196850393698
21
-3.6996062992125984
0
LINE
8
BLACK
6
CONTINUOUS
10
6.2425196850393698
20
-3.6996062992125984
11
6.2421430314960631
21
-3.6995313779527557
0
LINE
8
BLACK
6
CONTINUOUS
10
6.2421430314960631
20
-3.6995313779527557
11
6.2416103543307084
21
-3.6989987007874015
0
LINE
8
BLACK
6
CONTINUOUS
10
6.2416103543307084
20
-3.6989987007874015
11
6.2415354330708661
21
-3.5883858267716535
0
LINE
8
BLACK
6
CONTINUOUS
10
6.2415354330708661
20
-3.5883858267716535
11
6.2416103543307084
21
-3.5880091732283463
0
LINE
8
BLACK
6
CONTINUOUS
10
6.2416103543307084
20
-3.5880091732283463
11
6.2421430314960631
21
-3.5874764960629921
0
LINE
8
BLACK
6
CONTINUOUS
10
6.2421430314960631
20
-3.5874764960629921
11
6.3685039370078735
21
-3.5874015748031494
0
LINE
8
BLACK
6
CONTINUOUS
10
6.3685039370078735
20
-3.5874015748031494
11
6.3688805905511812
21
-3.5874764960629921
0
LINE
8
BLACK
6
CONTINUOUS
10
6.2434299212598425
20
-3.5893695275590551
11
6.2435033070866144
21
-3.6977118897637795
0
LINE
8
BLACK
6
CONTINUOUS
10
6.2435033070866144
20
-3.6977118897637795
11
6.367593661417323
21
-3.6976383070866139
0
LINE
8
BLACK
6
CONTINUOUS
10
6.367593661417323
20
-3.6976383070866139
11
6.3675202755905511
21
-3.5892959448818895
0
LINE
8
BLACK
6
CONTINUOUS
10
6.3675202755905511
20
-3.5892959448818895
11
6.2434299212598425
21
-3.5893695275590551
0
LINE
8
BLACK
6
CONTINUOUS
10
5.6982112992125984
20
-3.2502717716535434
11
5.698743976377953
21
-3.2508044488188976
0
LINE
8
BLACK
6
CONTINUOUS
10
5.698743976377953
20
-3.2508044488188976
11
5.6988188976377954
21
-3.5858267716535432
0
LINE
8
BLACK
6
CONTINUOUS
10
5.6988188976377954
20
-3.5858267716535432
11
5.698743976377953
21
-3.5862034251968504
0
LINE
8
BLACK
6
CONTINUOUS
10
5.698743976377953
20
-3.5862034251968504
11
5.6982112992125984
21
-3.5867361023622046
0
LINE
8
BLACK
6
CONTINUOUS
10
5.6982112992125984
20
-3.5867361023622046
11
5.3631889763779528
21
-3.586811023622047
0
LINE
8
BLACK
6
CONTINUOUS
10
5.3631889763779528
20
-3.586811023622047
11
5.3628123228346452
21
-3.5867361023622046
0
LINE
8
BLACK
6
CONTINUOUS
10
5.3628123228346452
20
-3.5867361023622046
11
5.3622796456692914
21
-3.5862034251968504
0
LINE
8
BLACK
6
CONTINUOUS
10
5.3622796456692914
20
-3.5862034251968504
11
5.3622047244094491
21
-3.2511811023622048
0
LINE
8
BLACK
6
CONTINUOUS
10
5.3622047244094491
20
-3.2511811023622048
11
5.3622796456692914
21
-3.2508044488188976
0
LINE
8
BLACK
6
CONTINUOUS
10
5.3622796456692914
20
-3.2508044488188976
11
5.3628123228346452
21
-3.2502717716535434
0
LINE
8
BLACK
6
CONTINUOUS
10
5.3628123228346452
20
-3.2502717716535434
11
5.6978346456692908
21
-3.2501968503937007
0
LINE
8
BLACK
6
CONTINUOUS
10
5.6978346456692908
20
-3.2501968503937007
11
5.6982112992125984
21
-3.2502717716535434
0
LINE
8
BLACK
6
CONTINUOUS
10
5.3640985826771654
20
-3.252165118110236
11
5.364172992125984
21
-3.5849171259842518
0
LINE
8
BLACK
6
CONTINUOUS
10
5.364172992125984
20
-3.5849171259842518
11
5.6969250000000002
21
-3.5848427165354328
0
LINE
8
BLACK
6
CONTINUOUS
10
5.6969250000000002
20
-3.5848427165354328
11
5.6968505905511808
21
-3.252090708661417
0
LINE
8
BLACK
6
CONTINUOUS
10
5.6968505905511808
20
-3.252090708661417
11
5.3640985826771654
21
-3.252165118110236
0
LINE
8
BLACK
6
CONTINUOUS
10
6.798211299212598
20
-3.2502717716535434
11
6.7987439763779527
21
-3.2508044488188976
0
LINE
8
BLACK
6
CONTINUOUS
10
6.7987439763779527
20
-3.2508044488188976
11
6.798818897637795
21
-3.5858267716535432
0
LINE
8
BLACK
6
CONTINUOUS
10
6.798818897637795
20
-3.5858267716535432
11
6.7987439763779527
21
-3.5862034251968504
0
LINE
8
BLACK
6
CONTINUOUS
10
6.7987439763779527
20
-3.5862034251968504
11
6.798211299212598
21
-3.5867361023622046
0
LINE
8
BLACK
6
CONTINUOUS
10
6.798211299212598
20
-3.5867361023622046
11
6.4631889763779524
21
-3.586811023622047
0
LINE
8
BLACK
6
CONTINUOUS
10
6.4631889763779524
20
-3.586811023622047
11
6.4628123228346457
21
-3.5867361023622046
0
LINE
8
BLACK
6
CONTINUOUS
10
6.4628123228346457
20
-3.5867361023622046
11
6.462279645669291
21
-3.5862034251968504
0
LINE
8
BLACK
6
CONTINUOUS
10
6.462279645669291
20
-3.5862034251968504
11
6.4622047244094487
21
-3.2511811023622048
0
LINE
8
BLACK
6
CONTINUOUS
10
6.4622047244094487
20
-3.2511811023622048
11
6.462279645669291
21
-3.2508044488188976
0
LINE
8
BLACK
6
CONTINUOUS
10
6.462279645669291
20
-3.2508044488188976
11
6.4628123228346457
21
-3.2502717716535434
0
LINE
8
BLACK
6
CONTINUOUS
10
6.4628123228346457
20
-3.2502717716535434
11
6.7978346456692913
21
-3.2501968503937007
0
LINE
8
BLACK
6
CONTINUOUS
10
6.7978346456692913
20
-3.2501968503937007
11
6.798211299212598
21
-3.2502717716535434
0
LINE
8
BLACK
6
CONTINUOUS
10
6.4640985826771651
20
-3.252165118110236
11
6.4641729921259845
21
-3.5849171259842518
0
LINE
8
BLACK
6
CONTINUOUS
10
6.4641729921259845
20
-3.5849171259842518
11
6.7969249999999999
21
-3.5848427165354328
0
LINE
8
BLACK
6
CONTINUOUS
10
6.7969249999999999
20
-3.5848427165354328
11
6.7968505905511813
21
-3.252090708661417
0
LINE
8
BLACK
6
CONTINUOUS
10
6.7968505905511813
20
-3.252090708661417
11
6.4640985826771651
21
-3.252165118110236
0
LINE
8
BLACK
6
CONTINUOUS
10
6.164195551181102
20
-3.2393662598425195
11
6.1647282283464566
21
-3.2398989370078741
0
LINE
8
BLACK
6
CONTINUOUS
10
6.1647282283464566
20
-3.2398989370078741
11
6.1648031496062989
21
-3.4489370078740156
0
LINE
8
BLACK
6
CONTINUOUS
10
6.1648031496062989
20
-3.4489370078740156
11
6.1647282283464566
21
-3.4493136614173228
0
LINE
8
BLACK
6
CONTINUOUS
10
6.1647282283464566
20
-3.4493136614173228
11
6.164195551181102
21
-3.449846338582677
0
LINE
8
BLACK
6
CONTINUOUS
10
6.164195551181102
20
-3.449846338582677
11
6.0772047244094489
21
-3.4499212598425197
0
LINE
8
BLACK
6
CONTINUOUS
10
6.0772047244094489
20
-3.4499212598425197
11
6.0768280708661413
21
-3.449846338582677
0
LINE
8
BLACK
6
CONTINUOUS
10
6.0768280708661413
20
-3.449846338582677
11
6.0762953937007875
21
-3.4493136614173228
0
LINE
8
BLACK
6
CONTINUOUS
10
6.0762953937007875
20
-3.4493136614173228
11
6.0762953937007875
21
-3.4492868110236219
0
LINE
8
BLACK
6
CONTINUOUS
10
6.0762953937007875
20
-3.4492868110236219
11
6.0762204724409443
21
-3.2402755905511809
0
LINE
8
BLACK
6
CONTINUOUS
10
6.0762204724409443
20
-3.2402755905511809
11
6.0762953937007875
21
-3.2398989370078741
0
LINE
8
BLACK
6
CONTINUOUS
10
6.0762953937007875
20
-3.2398989370078741
11
6.0768280708661413
21
-3.2393662598425195
0
LINE
8
BLACK
6
CONTINUOUS
10
6.0768280708661413
20
-3.2393662598425195
11
6.1638188976377952
21
-3.2392913385826771
0
LINE
8
BLACK
6
CONTINUOUS
10
6.1638188976377952
20
-3.2392913385826771
11
6.164195551181102
21
-3.2393662598425195
0
LINE
8
BLACK
6
CONTINUOUS
10
6.0781145275590553
20
-3.24125905511811
11
6.0781886220472439
21
-3.4480264960629921
0
LINE
8
BLACK
6
CONTINUOUS
10
6.0781886220472439
20
-3.4480264960629921
11
6.16290905511811
21
-3.4479535039370077
0
LINE
8
BLACK
6
CONTINUOUS
10
6.16290905511811
20
-3.4479535039370077
11
6.1628349606299215
21
-3.2411860629921261
0
LINE
8
BLACK
6
CONTINUOUS
10
6.1628349606299215
20
-3.2411860629921261
11
6.0781145275590553
21
-3.24125905511811
0
LINE
8
BLACK
6
CONTINUOUS
10
6.2984592913385828
20
-3.2387318110236221
11
6.2989919685039366
21
-3.2392644881889763
0
LINE
8
BLACK
6
CONTINUOUS
10
6.2989919685039366
20
-3.2392644881889763
11
6.2990668897637798
21
-3.4483025590551182
0
LINE
8
BLACK
6
CONTINUOUS
10
6.2990668897637798
20
-3.4483025590551182
11
6.2989919685039366
21
-3.4486792125984249
0
LINE
8
BLACK
6
CONTINUOUS
10
6.2989919685039366
20
-3.4486792125984249
11
6.2984592913385828
21
-3.4492118897637796
0
LINE
8
BLACK
6
CONTINUOUS
10
6.2984592913385828
20
-3.4492118897637796
11
6.2114684645669289
21
-3.4492868110236219
0
LINE
8
BLACK
6
CONTINUOUS
10
6.2114684645669289
20
-3.4492868110236219
11
6.2110918110236222
21
-3.4492118897637796
0
LINE
8
BLACK
6
CONTINUOUS
10
6.2110918110236222
20
-3.4492118897637796
11
6.2105591338582675
21
-3.4486792125984249
0
LINE
8
BLACK
6
CONTINUOUS
10
6.2105591338582675
20
-3.4486792125984249
11
6.2104842125984252
21
-3.2396411417322835
0
LINE
8
BLACK
6
CONTINUOUS
10
6.2104842125984252
20
-3.2396411417322835
11
6.2105591338582675
21
-3.2392644881889763
0
LINE
8
BLACK
6
CONTINUOUS
10
6.2105591338582675
20
-3.2392644881889763
11
6.2110918110236222
21
-3.2387318110236221
0
LINE
8
BLACK
6
CONTINUOUS
10
6.2110918110236222
20
-3.2387318110236221
11
6.2980826377952752
21
-3.2386568897637793
0
LINE
8
BLACK
6
CONTINUOUS
10
6.2980826377952752
20
-3.2386568897637793
11
6.2984592913385828
21
-3.2387318110236221
0
LINE
8
BLACK
6
CONTINUOUS
10
6.2123782677165353
20
-3.2406246062992126
11
6.2124523622047239
21
-3.4473920472440942
0
LINE
8
BLACK
6
CONTINUOUS
10
6.2124523622047239
20
-3.4473920472440942
11
6.29717279527559
21
-3.4473190551181103
0
LINE
8
BLACK
6
CONTINUOUS
10
6.29717279527559
20
-3.4473190551181103
11
6.2970987007874015
21
-3.2405516141732282
0
LINE
8
BLACK
6
CONTINUOUS
10
6.2970987007874015
20
-3.2405516141732282
11
6.2123782677165353
21
-3.2406246062992126
0
LINE
8
BLACK
6
CONTINUOUS
10
5.9831837401574806
20
-3.1577785826771652
11
5.9837164173228343
21
-3.1583112598425198
0
LINE
8
BLACK
6
CONTINUOUS
10
5.9837164173228343
20
-3.1583112598425198
11
5.9837913385826766
21
-3.2964831889763779
0
LINE
8
BLACK
6
CONTINUOUS
10
5.9837913385826766
20
-3.2964831889763779
11
5.9837164173228343
21
-3.2968598425196851
0
LINE
8
BLACK
6
CONTINUOUS
10
5.9837164173228343
20
-3.2968598425196851
11
5.9831837401574806
21
-3.2973925196850393
0
LINE
8
BLACK
6
CONTINUOUS
10
5.9831837401574806
20
-3.2973925196850393
11
5.7072165354330711
21
-3.2974674409448816
0
LINE
8
BLACK
6
CONTINUOUS
10
5.7072165354330711
20
-3.2974674409448816
11
5.7068398818897634
21
-3.2973925196850393
0
LINE
8
BLACK
6
CONTINUOUS
10
5.7068398818897634
20
-3.2973925196850393
11
5.7063072047244097
21
-3.2968598425196851
0
LINE
8
BLACK
6
CONTINUOUS
10
5.7063072047244097
20
-3.2968598425196851
11
5.7062322834645665
21
-3.1586879133858266
0
LINE
8
BLACK
6
CONTINUOUS
10
5.7062322834645665
20
-3.1586879133858266
11
5.7063072047244097
21
-3.1583112598425198
0
LINE
8
BLACK
6
CONTINUOUS
10
5.7063072047244097
20
-3.1583112598425198
11
5.7068398818897634
21
-3.1577785826771652
0
LINE
8
BLACK
6
CONTINUOUS
10
5.7068398818897634
20
-3.1577785826771652
11
5.9828070866141729
21
-3.1577036614173228
0
LINE
8
BLACK
6
CONTINUOUS
10
5.9828070866141729
20
-3.1577036614173228
11
5.9831837401574806
21
-3.1577785826771652
0
LINE
8
BLACK
6
CONTINUOUS
10
5.7081265748031491
20
-3.1596718897637794
11
5.708200275590551
21
-3.295573464566929
0
LINE
8
BLACK
6
CONTINUOUS
10
5.708200275590551
20
-3.295573464566929
11
5.9818970078740152
21
-3.2954991732283463
0
LINE
8
BLACK
6
CONTINUOUS
10
5.9818970078740152
20
-3.2954991732283463
11
5.9818233070866142
21
-3.1595975984251967
0
LINE
8
BLACK
6
CONTINUOUS
10
5.9818233070866142
20
-3.1595975984251967
11
5.7081265748031491
21
-3.1596718897637794
  0
ENDSEC
  0
EOF
