  0
SECTION
  2
HEADER
  9
$ANGBASE
  50
0.0
  9
$ANGDIR
  70
1
  9
$MEASUREMENT
  70
0
  0
ENDSEC
  0
SECTION
  2
TABLES
  0
TABLE
  2
LTYPE
  70
4
  0
LTYPE
  5
40F
  2
CONTINUOUS
  70
0
  3
Solid line
  72
65
  73
0
  40
0.0
  0
LTYPE
  5
410
  2
DASHDOT
 70
0
  3
Dash Dot ____ _ ____ _
 72
65
 73
4
 40
2.0
 49
1.25
 49
-0.25
 49
0.25
 49
-0.25
  0
LTYPE
  5
411
  2
DASHED
 70
0
  3
Dashed __ __ __ __ __
 72
65
 73
2
 40
0.75
 49
0.5
 49
-0.25
  0
LTYPE
  5
43B
  2
DOTTED
 70
0
  3
Dotted .  .  .  .
 72
65
 73
2
 40
0.2
 49
0.0
 49
-0.2
  0
ENDTAB
  0
TABLE
  2
STYLE
  70
4
  0
STYLE
  2
KICAD
  70
0
  40
0
  41
1
  42
1
  50
0
  71
0
  3
isocp.shx
  0
STYLE
  2
KICADB
  70
0
  40
0
  41
1
  42
1
  50
0
  71
0
  3
isocp.shx
  0
STYLE
  2
KICADI
  70
0
  40
0
  41
1
  42
1
  50
15
  71
0
  3
isocp.shx
  0
STYLE
  2
KICADBI
  70
0
  40
0
  41
1
  42
1
  50
15
  71
0
  3
isocp.shx
  0
ENDTAB
  0
TABLE
  2
LAYER
  70
1
  0
LAYER
  2
BLACK
  70
0
  62
7
  6
CONTINUOUS
  0
ENDTAB
  0
ENDSEC
  0
SECTION
  2
ENTITIES
0
LINE
8
BLACK
6
CONTINUOUS
10
5.69783
20
-3.7002
11
5.69853
21
-3.70049
0
LINE
8
BLACK
6
CONTINUOUS
10
5.69853
20
-3.70049
11
5.69882
21
-3.70118
0
LINE
8
BLACK
6
CONTINUOUS
10
5.69882
20
-3.70118
11
5.69882
21
-4.03583
0
LINE
8
BLACK
6
CONTINUOUS
10
5.69882
20
-4.03583
11
5.69853
21
-4.03652
0
LINE
8
BLACK
6
CONTINUOUS
10
5.69853
20
-4.03652
11
5.69783
21
-4.03681
0
LINE
8
BLACK
6
CONTINUOUS
10
5.69783
20
-4.03681
11
5.36319
21
-4.03681
0
LINE
8
BLACK
6
CONTINUOUS
10
5.36319
20
-4.03681
11
5.36249
21
-4.03652
0
LINE
8
BLACK
6
CONTINUOUS
10
5.36249
20
-4.03652
11
5.3622
21
-4.03583
0
LINE
8
BLACK
6
CONTINUOUS
10
5.3622
20
-4.03583
11
5.3622
21
-3.70118
0
LINE
8
BLACK
6
CONTINUOUS
10
5.3622
20
-3.70118
11
5.36249
21
-3.70049
0
LINE
8
BLACK
6
CONTINUOUS
10
5.36249
20
-3.70049
11
5.36319
21
-3.7002
0
LINE
8
BLACK
6
CONTINUOUS
10
5.36319
20
-3.7002
11
5.69783
21
-3.7002
0
LINE
8
BLACK
6
CONTINUOUS
10
5.36417
20
-3.70217
11
5.36417
21
-4.03484
0
LINE
8
BLACK
6
CONTINUOUS
10
5.36417
20
-4.03484
11
5.69685
21
-4.03484
0
LINE
8
BLACK
6
CONTINUOUS
10
5.69685
20
-4.03484
11
5.69685
21
-3.70217
0
LINE
8
BLACK
6
CONTINUOUS
10
5.69685
20
-3.70217
11
5.36417
21
-3.70217
0
LINE
8
BLACK
6
CONTINUOUS
10
6.79783
20
-3.7002
11
6.79853
21
-3.70049
0
LINE
8
BLACK
6
CONTINUOUS
10
6.79853
20
-3.70049
11
6.79882
21
-3.70118
0
LINE
8
BLACK
6
CONTINUOUS
10
6.79882
20
-3.70118
11
6.79882
21
-4.03583
0
LINE
8
BLACK
6
CONTINUOUS
10
6.79882
20
-4.03583
11
6.79853
21
-4.03652
0
LINE
8
BLACK
6
CONTINUOUS
10
6.79853
20
-4.03652
11
6.79783
21
-4.03681
0
LINE
8
BLACK
6
CONTINUOUS
10
6.79783
20
-4.03681
11
6.46319
21
-4.03681
0
LINE
8
BLACK
6
CONTINUOUS
10
6.46319
20
-4.03681
11
6.46249
21
-4.03652
0
LINE
8
BLACK
6
CONTINUOUS
10
6.46249
20
-4.03652
11
6.4622
21
-4.03583
0
LINE
8
BLACK
6
CONTINUOUS
10
6.4622
20
-4.03583
11
6.4622
21
-3.70118
0
LINE
8
BLACK
6
CONTINUOUS
10
6.4622
20
-3.70118
11
6.46249
21
-3.70049
0
LINE
8
BLACK
6
CONTINUOUS
10
6.46249
20
-3.70049
11
6.46319
21
-3.7002
0
LINE
8
BLACK
6
CONTINUOUS
10
6.46319
20
-3.7002
11
6.79783
21
-3.7002
0
LINE
8
BLACK
6
CONTINUOUS
10
6.46417
20
-3.70217
11
6.46417
21
-4.03484
0
LINE
8
BLACK
6
CONTINUOUS
10
6.46417
20
-4.03484
11
6.79685
21
-4.03484
0
LINE
8
BLACK
6
CONTINUOUS
10
6.79685
20
-4.03484
11
6.79685
21
-3.70217
0
LINE
8
BLACK
6
CONTINUOUS
10
6.79685
20
-3.70217
11
6.46417
21
-3.70217
0
LINE
8
BLACK
6
CONTINUOUS
10
5.69783
20
-3.2502
11
5.69853
21
-3.25049
0
LINE
8
BLACK
6
CONTINUOUS
10
5.69853
20
-3.25049
11
5.69882
21
-3.25118
0
LINE
8
BLACK
6
CONTINUOUS
10
5.69882
20
-3.25118
11
5.69882
21
-3.58583
0
LINE
8
BLACK
6
CONTINUOUS
10
5.69882
20
-3.58583
11
5.69853
21
-3.58652
0
LINE
8
BLACK
6
CONTINUOUS
10
5.69853
20
-3.58652
11
5.69783
21
-3.58681
0
LINE
8
BLACK
6
CONTINUOUS
10
5.69783
20
-3.58681
11
5.36319
21
-3.58681
0
LINE
8
BLACK
6
CONTINUOUS
10
5.36319
20
-3.58681
11
5.36249
21
-3.58652
0
LINE
8
BLACK
6
CONTINUOUS
10
5.36249
20
-3.58652
11
5.3622
21
-3.58583
0
LINE
8
BLACK
6
CONTINUOUS
10
5.3622
20
-3.58583
11
5.3622
21
-3.25118
0
LINE
8
BLACK
6
CONTINUOUS
10
5.3622
20
-3.25118
11
5.36249
21
-3.25049
0
LINE
8
BLACK
6
CONTINUOUS
10
5.36249
20
-3.25049
11
5.36319
21
-3.2502
0
LINE
8
BLACK
6
CONTINUOUS
10
5.36319
20
-3.2502
11
5.69783
21
-3.2502
0
LINE
8
BLACK
6
CONTINUOUS
10
5.36417
20
-3.25217
11
5.36417
21
-3.58484
0
LINE
8
BLACK
6
CONTINUOUS
10
5.36417
20
-3.58484
11
5.69685
21
-3.58484
0
LINE
8
BLACK
6
CONTINUOUS
10
5.69685
20
-3.58484
11
5.69685
21
-3.25217
0
LINE
8
BLACK
6
CONTINUOUS
10
5.69685
20
-3.25217
11
5.36417
21
-3.25217
0
LINE
8
BLACK
6
CONTINUOUS
10
6.79783
20
-3.2502
11
6.79853
21
-3.25049
0
LINE
8
BLACK
6
CONTINUOUS
10
6.79853
20
-3.25049
11
6.79882
21
-3.25118
0
LINE
8
BLACK
6
CONTINUOUS
10
6.79882
20
-3.25118
11
6.79882
21
-3.58583
0
LINE
8
BLACK
6
CONTINUOUS
10
6.79882
20
-3.58583
11
6.79853
21
-3.58652
0
LINE
8
BLACK
6
CONTINUOUS
10
6.79853
20
-3.58652
11
6.79783
21
-3.58681
0
LINE
8
BLACK
6
CONTINUOUS
10
6.79783
20
-3.58681
11
6.46319
21
-3.58681
0
LINE
8
BLACK
6
CONTINUOUS
10
6.46319
20
-3.58681
11
6.46249
21
-3.58652
0
LINE
8
BLACK
6
CONTINUOUS
10
6.46249
20
-3.58652
11
6.4622
21
-3.58583
0
LINE
8
BLACK
6
CONTINUOUS
10
6.4622
20
-3.58583
11
6.4622
21
-3.25118
0
LINE
8
BLACK
6
CONTINUOUS
10
6.4622
20
-3.25118
11
6.46249
21
-3.25049
0
LINE
8
BLACK
6
CONTINUOUS
10
6.46249
20
-3.25049
11
6.46319
21
-3.2502
0
LINE
8
BLACK
6
CONTINUOUS
10
6.46319
20
-3.2502
11
6.79783
21
-3.2502
0
LINE
8
BLACK
6
CONTINUOUS
10
6.46417
20
-3.25217
11
6.46417
21
-3.58484
0
LINE
8
BLACK
6
CONTINUOUS
10
6.46417
20
-3.58484
11
6.79685
21
-3.58484
0
LINE
8
BLACK
6
CONTINUOUS
10
6.79685
20
-3.58484
11
6.79685
21
-3.25217
0
LINE
8
BLACK
6
CONTINUOUS
10
6.79685
20
-3.25217
11
6.46417
21
-3.25217
  0
ENDSEC
  0
EOF
