  0
SECTION
  2
HEADER
  9
$ANGBASE
  50
0.0
  9
$ANGDIR
  70
1
  9
$MEASUREMENT
  70
0
  0
ENDSEC
  0
SECTION
  2
TABLES
  0
TABLE
  2
LTYPE
  70
4
  0
LTYPE
  5
40F
  2
CONTINUOUS
  70
0
  3
Solid line
  72
65
  73
0
  40
0.0
  0
LTYPE
  5
410
  2
DASHDOT
 70
0
  3
Dash Dot ____ _ ____ _
 72
65
 73
4
 40
2.0
 49
1.25
 49
-0.25
 49
0.25
 49
-0.25
  0
LTYPE
  5
411
  2
DASHED
 70
0
  3
Dashed __ __ __ __ __
 72
65
 73
2
 40
0.75
 49
0.5
 49
-0.25
  0
LTYPE
  5
43B
  2
DOTTED
 70
0
  3
Dotted .  .  .  .
 72
65
 73
2
 40
0.2
 49
0.0
 49
-0.2
  0
ENDTAB
  0
TABLE
  2
STYLE
  70
4
  0
STYLE
  2
KICAD
  70
0
  40
0
  41
1
  42
1
  50
0
  71
0
  3
isocp.shx
  0
STYLE
  2
KICADB
  70
0
  40
0
  41
1
  42
1
  50
0
  71
0
  3
isocp.shx
  0
STYLE
  2
KICADI
  70
0
  40
0
  41
1
  42
1
  50
15
  71
0
  3
isocp.shx
  0
STYLE
  2
KICADBI
  70
0
  40
0
  41
1
  42
1
  50
15
  71
0
  3
isocp.shx
  0
ENDTAB
  0
TABLE
  2
LAYER
  70
1
  0
LAYER
  2
BLACK
  70
0
  62
7
  6
CONTINUOUS
  0
ENDTAB
  0
ENDSEC
  0
SECTION
  2
ENTITIES
0
LINE
8
BLACK
6
CONTINUOUS
10
5.4945745669291339
20
-4.1186937007874018
11
5.5084604330708657
21
-4.1210529921259837
0
LINE
8
BLACK
6
CONTINUOUS
10
5.5084604330708657
20
-4.1210529921259837
11
5.5219948425196845
21
-4.1249522047244094
0
LINE
8
BLACK
6
CONTINUOUS
10
5.5219948425196845
20
-4.1249522047244094
11
5.5350075984251967
21
-4.1303422440944884
0
LINE
8
BLACK
6
CONTINUOUS
10
5.5350075984251967
20
-4.1303422440944884
11
5.5473350393700782
21
-4.1371553937007874
0
LINE
8
BLACK
6
CONTINUOUS
10
5.5473350393700782
20
-4.1371553937007874
11
5.5588221259842516
21
-4.1453059055118109
0
LINE
8
BLACK
6
CONTINUOUS
10
5.5588221259842516
20
-4.1453059055118109
11
5.5693244094488188
21
-4.1546913385826771
0
LINE
8
BLACK
6
CONTINUOUS
10
5.5693244094488188
20
-4.1546913385826771
11
5.578709842519685
21
-4.1651936220472443
0
LINE
8
BLACK
6
CONTINUOUS
10
5.578709842519685
20
-4.1651936220472443
11
5.5868603543307085
21
-4.1766807086614168
0
LINE
8
BLACK
6
CONTINUOUS
10
5.5868603543307085
20
-4.1766807086614168
11
5.5936735039370076
21
-4.1890081496062992
0
LINE
8
BLACK
6
CONTINUOUS
10
5.5936735039370076
20
-4.1890081496062992
11
5.5990635433070866
21
-4.2020209055118105
0
LINE
8
BLACK
6
CONTINUOUS
10
5.5990635433070866
20
-4.2020209055118105
11
5.6029627559055113
21
-4.2155553149606302
0
LINE
8
BLACK
6
CONTINUOUS
10
5.6029627559055113
20
-4.2155553149606302
11
5.6053220472440941
21
-4.229441181102362
0
LINE
8
BLACK
6
CONTINUOUS
10
5.6053220472440941
20
-4.229441181102362
11
5.6061118110236219
21
-4.2435039370078735
0
LINE
8
BLACK
6
CONTINUOUS
10
5.6061118110236219
20
-4.2435039370078735
11
5.6053220472440941
21
-4.257566692913386
0
LINE
8
BLACK
6
CONTINUOUS
10
5.6053220472440941
20
-4.257566692913386
11
5.6029627559055113
21
-4.2714525590551178
0
LINE
8
BLACK
6
CONTINUOUS
10
5.6029627559055113
20
-4.2714525590551178
11
5.5990635433070866
21
-4.2849869685039366
0
LINE
8
BLACK
6
CONTINUOUS
10
5.5990635433070866
20
-4.2849869685039366
11
5.5936735039370076
21
-4.2979997244094488
0
LINE
8
BLACK
6
CONTINUOUS
10
5.5936735039370076
20
-4.2979997244094488
11
5.5868603543307085
21
-4.3103271653543302
0
LINE
8
BLACK
6
CONTINUOUS
10
5.5868603543307085
20
-4.3103271653543302
11
5.578709842519685
21
-4.3218142519685037
0
LINE
8
BLACK
6
CONTINUOUS
10
5.578709842519685
20
-4.3218142519685037
11
5.5693244094488188
21
-4.3323165354330708
0
LINE
8
BLACK
6
CONTINUOUS
10
5.5693244094488188
20
-4.3323165354330708
11
5.5588221259842516
21
-4.3417019685039371
0
LINE
8
BLACK
6
CONTINUOUS
10
5.5588221259842516
20
-4.3417019685039371
11
5.5473350393700782
21
-4.3498524803149605
0
LINE
8
BLACK
6
CONTINUOUS
10
5.5473350393700782
20
-4.3498524803149605
11
5.5350075984251967
21
-4.3566656299212596
0
LINE
8
BLACK
6
CONTINUOUS
10
5.5350075984251967
20
-4.3566656299212596
11
5.5219948425196845
21
-4.3620556692913386
0
LINE
8
BLACK
6
CONTINUOUS
10
5.5219948425196845
20
-4.3620556692913386
11
5.5084604330708657
21
-4.3659548818897633
0
LINE
8
BLACK
6
CONTINUOUS
10
5.5084604330708657
20
-4.3659548818897633
11
5.4945745669291339
21
-4.3683141732283461
0
LINE
8
BLACK
6
CONTINUOUS
10
5.4945745669291339
20
-4.3683141732283461
11
5.4805118110236215
21
-4.3691039370078739
0
LINE
8
BLACK
6
CONTINUOUS
10
5.4805118110236215
20
-4.3691039370078739
11
5.46644905511811
21
-4.3683141732283461
0
LINE
8
BLACK
6
CONTINUOUS
10
5.46644905511811
20
-4.3683141732283461
11
5.4525631889763782
21
-4.3659548818897633
0
LINE
8
BLACK
6
CONTINUOUS
10
5.4525631889763782
20
-4.3659548818897633
11
5.4390287795275594
21
-4.3620556692913386
0
LINE
8
BLACK
6
CONTINUOUS
10
5.4390287795275594
20
-4.3620556692913386
11
5.4260160236220472
21
-4.3566656299212596
0
LINE
8
BLACK
6
CONTINUOUS
10
5.4260160236220472
20
-4.3566656299212596
11
5.4136885826771648
21
-4.3498524803149605
0
LINE
8
BLACK
6
CONTINUOUS
10
5.4136885826771648
20
-4.3498524803149605
11
5.4022014960629923
21
-4.3417019685039371
0
LINE
8
BLACK
6
CONTINUOUS
10
5.4022014960629923
20
-4.3417019685039371
11
5.3916992125984251
21
-4.3323165354330708
0
LINE
8
BLACK
6
CONTINUOUS
10
5.3916992125984251
20
-4.3323165354330708
11
5.3823137795275589
21
-4.3218142519685037
0
LINE
8
BLACK
6
CONTINUOUS
10
5.3823137795275589
20
-4.3218142519685037
11
5.3741632677165354
21
-4.3103271653543302
0
LINE
8
BLACK
6
CONTINUOUS
10
5.3741632677165354
20
-4.3103271653543302
11
5.3673501181102363
21
-4.2979997244094488
0
LINE
8
BLACK
6
CONTINUOUS
10
5.3673501181102363
20
-4.2979997244094488
11
5.3619600787401573
21
-4.2849869685039366
0
LINE
8
BLACK
6
CONTINUOUS
10
5.3619600787401573
20
-4.2849869685039366
11
5.3580608661417326
21
-4.2714525590551178
0
LINE
8
BLACK
6
CONTINUOUS
10
5.3580608661417326
20
-4.2714525590551178
11
5.3557015748031498
21
-4.257566692913386
0
LINE
8
BLACK
6
CONTINUOUS
10
5.3557015748031498
20
-4.257566692913386
11
5.354911811023622
21
-4.2435039370078735
0
LINE
8
BLACK
6
CONTINUOUS
10
5.354911811023622
20
-4.2435039370078735
11
5.3557015748031498
21
-4.229441181102362
0
LINE
8
BLACK
6
CONTINUOUS
10
5.3557015748031498
20
-4.229441181102362
11
5.3580608661417326
21
-4.2155553149606302
0
LINE
8
BLACK
6
CONTINUOUS
10
5.3580608661417326
20
-4.2155553149606302
11
5.3619600787401573
21
-4.2020209055118105
0
LINE
8
BLACK
6
CONTINUOUS
10
5.3619600787401573
20
-4.2020209055118105
11
5.3673501181102363
21
-4.1890081496062992
0
LINE
8
BLACK
6
CONTINUOUS
10
5.3673501181102363
20
-4.1890081496062992
11
5.3741632677165354
21
-4.1766807086614168
0
LINE
8
BLACK
6
CONTINUOUS
10
5.3741632677165354
20
-4.1766807086614168
11
5.3823137795275589
21
-4.1651936220472443
0
LINE
8
BLACK
6
CONTINUOUS
10
5.3823137795275589
20
-4.1651936220472443
11
5.3916992125984251
21
-4.1546913385826771
0
LINE
8
BLACK
6
CONTINUOUS
10
5.3916992125984251
20
-4.1546913385826771
11
5.4022014960629923
21
-4.1453059055118109
0
LINE
8
BLACK
6
CONTINUOUS
10
5.4022014960629923
20
-4.1453059055118109
11
5.4136885826771648
21
-4.1371553937007874
0
LINE
8
BLACK
6
CONTINUOUS
10
5.4136885826771648
20
-4.1371553937007874
11
5.4260160236220472
21
-4.1303422440944884
0
LINE
8
BLACK
6
CONTINUOUS
10
5.4260160236220472
20
-4.1303422440944884
11
5.4390287795275594
21
-4.1249522047244094
0
LINE
8
BLACK
6
CONTINUOUS
10
5.4390287795275594
20
-4.1249522047244094
11
5.4525631889763782
21
-4.1210529921259837
0
LINE
8
BLACK
6
CONTINUOUS
10
5.4525631889763782
20
-4.1210529921259837
11
5.46644905511811
21
-4.1186937007874018
0
LINE
8
BLACK
6
CONTINUOUS
10
5.46644905511811
20
-4.1186937007874018
11
5.4805118110236215
21
-4.117903937007874
0
LINE
8
BLACK
6
CONTINUOUS
10
5.4805118110236215
20
-4.117903937007874
11
5.4945745669291339
21
-4.1186937007874018
0
LINE
8
BLACK
6
CONTINUOUS
10
5.3704734645669294
20
-4.256365590551181
11
5.3727106692913384
21
-4.2690532677165356
0
LINE
8
BLACK
6
CONTINUOUS
10
5.3727106692913384
20
-4.2690532677165356
11
5.3764056692913389
21
-4.2813954724409449
0
LINE
8
BLACK
6
CONTINUOUS
10
5.3764056692913389
20
-4.2813954724409449
11
5.3815085433070866
21
-4.2932252362204721
0
LINE
8
BLACK
6
CONTINUOUS
10
5.3815085433070866
20
-4.2932252362204721
11
5.3879502362204725
21
-4.3043826377952756
0
LINE
8
BLACK
6
CONTINUOUS
10
5.3879502362204725
20
-4.3043826377952756
11
5.3956437007874012
21
-4.3147167322834648
0
LINE
8
BLACK
6
CONTINUOUS
10
5.3956437007874012
20
-4.3147167322834648
11
5.4044848425196852
21
-4.3240877952755907
0
LINE
8
BLACK
6
CONTINUOUS
10
5.4044848425196852
20
-4.3240877952755907
11
5.4143541338582679
21
-4.3323690944881887
0
LINE
8
BLACK
6
CONTINUOUS
10
5.4143541338582679
20
-4.3323690944881887
11
5.4251180708661417
21
-4.3394486614173227
0
LINE
8
BLACK
6
CONTINUOUS
10
5.4251180708661417
20
-4.3394486614173227
11
5.436631141732283
21
-4.3452307480314962
0
LINE
8
BLACK
6
CONTINUOUS
10
5.436631141732283
20
-4.3452307480314962
11
5.4487375984251969
21
-4.3496371259842519
0
LINE
8
BLACK
6
CONTINUOUS
10
5.4487375984251969
20
-4.3496371259842519
11
5.4612737795275592
21
-4.3526082677165352
0
LINE
8
BLACK
6
CONTINUOUS
10
5.4612737795275592
20
-4.3526082677165352
11
5.4740700787401577
21
-4.3541039370078742
0
LINE
8
BLACK
6
CONTINUOUS
10
5.4740700787401577
20
-4.3541039370078742
11
5.4869535433070862
21
-4.3541039370078742
0
LINE
8
BLACK
6
CONTINUOUS
10
5.4869535433070862
20
-4.3541039370078742
11
5.4997498425196847
21
-4.3526082677165352
0
LINE
8
BLACK
6
CONTINUOUS
10
5.4997498425196847
20
-4.3526082677165352
11
5.512286023622047
21
-4.3496371259842519
0
LINE
8
BLACK
6
CONTINUOUS
10
5.512286023622047
20
-4.3496371259842519
11
5.5243924803149609
21
-4.3452307480314962
0
LINE
8
BLACK
6
CONTINUOUS
10
5.5243924803149609
20
-4.3452307480314962
11
5.5359055511811022
21
-4.3394486614173227
0
LINE
8
BLACK
6
CONTINUOUS
10
5.5359055511811022
20
-4.3394486614173227
11
5.546669488188976
21
-4.3323690944881887
0
LINE
8
BLACK
6
CONTINUOUS
10
5.546669488188976
20
-4.3323690944881887
11
5.5565387795275587
21
-4.3240877952755907
0
LINE
8
BLACK
6
CONTINUOUS
10
5.5565387795275587
20
-4.3240877952755907
11
5.5653799212598427
21
-4.3147167322834648
0
LINE
8
BLACK
6
CONTINUOUS
10
5.5653799212598427
20
-4.3147167322834648
11
5.5730733858267714
21
-4.3043826377952756
0
LINE
8
BLACK
6
CONTINUOUS
10
5.5730733858267714
20
-4.3043826377952756
11
5.5795150787401573
21
-4.2932252362204721
0
LINE
8
BLACK
6
CONTINUOUS
10
5.5795150787401573
20
-4.2932252362204721
11
5.584617952755905
21
-4.2813954724409449
0
LINE
8
BLACK
6
CONTINUOUS
10
5.584617952755905
20
-4.2813954724409449
11
5.5883129527559054
21
-4.2690532677165356
0
LINE
8
BLACK
6
CONTINUOUS
10
5.5883129527559054
20
-4.2690532677165356
11
5.5905501574803145
21
-4.256365590551181
0
LINE
8
BLACK
6
CONTINUOUS
10
5.5905501574803145
20
-4.256365590551181
11
5.5912992519685041
21
-4.2435039370078735
0
LINE
8
BLACK
6
CONTINUOUS
10
5.5912992519685041
20
-4.2435039370078735
11
5.5905501574803145
21
-4.2306422834645669
0
LINE
8
BLACK
6
CONTINUOUS
10
5.5905501574803145
20
-4.2306422834645669
11
5.5883129527559054
21
-4.2179546062992124
0
LINE
8
BLACK
6
CONTINUOUS
10
5.5883129527559054
20
-4.2179546062992124
11
5.584617952755905
21
-4.2056124015748031
0
LINE
8
BLACK
6
CONTINUOUS
10
5.584617952755905
20
-4.2056124015748031
11
5.5795150787401573
21
-4.1937826377952758
0
LINE
8
BLACK
6
CONTINUOUS
10
5.5795150787401573
20
-4.1937826377952758
11
5.5730733858267714
21
-4.1826252362204723
0
LINE
8
BLACK
6
CONTINUOUS
10
5.5730733858267714
20
-4.1826252362204723
11
5.5653799212598427
21
-4.1722911417322832
0
LINE
8
BLACK
6
CONTINUOUS
10
5.5653799212598427
20
-4.1722911417322832
11
5.5565387795275587
21
-4.1629200787401572
0
LINE
8
BLACK
6
CONTINUOUS
10
5.5565387795275587
20
-4.1629200787401572
11
5.546669488188976
21
-4.1546387795275592
0
LINE
8
BLACK
6
CONTINUOUS
10
5.546669488188976
20
-4.1546387795275592
11
5.5359055511811022
21
-4.1475592125984253
0
LINE
8
BLACK
6
CONTINUOUS
10
5.5359055511811022
20
-4.1475592125984253
11
5.5243924803149609
21
-4.1417771259842517
0
LINE
8
BLACK
6
CONTINUOUS
10
5.5243924803149609
20
-4.1417771259842517
11
5.512286023622047
21
-4.1373707480314961
0
LINE
8
BLACK
6
CONTINUOUS
10
5.512286023622047
20
-4.1373707480314961
11
5.4997498425196847
21
-4.1343996062992128
0
LINE
8
BLACK
6
CONTINUOUS
10
5.4997498425196847
20
-4.1343996062992128
11
5.4869535433070862
21
-4.1329039370078737
0
LINE
8
BLACK
6
CONTINUOUS
10
5.4869535433070862
20
-4.1329039370078737
11
5.4740700787401577
21
-4.1329039370078737
0
LINE
8
BLACK
6
CONTINUOUS
10
5.4740700787401577
20
-4.1329039370078737
11
5.4612737795275592
21
-4.1343996062992128
0
LINE
8
BLACK
6
CONTINUOUS
10
5.4612737795275592
20
-4.1343996062992128
11
5.4487375984251969
21
-4.1373707480314961
0
LINE
8
BLACK
6
CONTINUOUS
10
5.4487375984251969
20
-4.1373707480314961
11
5.436631141732283
21
-4.1417771259842517
0
LINE
8
BLACK
6
CONTINUOUS
10
5.436631141732283
20
-4.1417771259842517
11
5.4251180708661417
21
-4.1475592125984253
0
LINE
8
BLACK
6
CONTINUOUS
10
5.4251180708661417
20
-4.1475592125984253
11
5.4143541338582679
21
-4.1546387795275592
0
LINE
8
BLACK
6
CONTINUOUS
10
5.4143541338582679
20
-4.1546387795275592
11
5.4044848425196852
21
-4.1629200787401572
0
LINE
8
BLACK
6
CONTINUOUS
10
5.4044848425196852
20
-4.1629200787401572
11
5.3956437007874012
21
-4.1722911417322832
0
LINE
8
BLACK
6
CONTINUOUS
10
5.3956437007874012
20
-4.1722911417322832
11
5.3879502362204725
21
-4.1826252362204723
0
LINE
8
BLACK
6
CONTINUOUS
10
5.3879502362204725
20
-4.1826252362204723
11
5.3815085433070866
21
-4.1937826377952758
0
LINE
8
BLACK
6
CONTINUOUS
10
5.3815085433070866
20
-4.1937826377952758
11
5.3764056692913389
21
-4.2056124015748031
0
LINE
8
BLACK
6
CONTINUOUS
10
5.3764056692913389
20
-4.2056124015748031
11
5.3727106692913384
21
-4.2179546062992124
0
LINE
8
BLACK
6
CONTINUOUS
10
5.3727106692913384
20
-4.2179546062992124
11
5.3704734645669294
21
-4.2306422834645669
0
LINE
8
BLACK
6
CONTINUOUS
10
5.3704734645669294
20
-4.2306422834645669
11
5.3697243700787398
21
-4.2435039370078735
0
LINE
8
BLACK
6
CONTINUOUS
10
5.3697243700787398
20
-4.2435039370078735
11
5.3704734645669294
21
-4.256365590551181
0
LINE
8
BLACK
6
CONTINUOUS
10
6.6945745669291341
20
-4.1186937007874018
11
6.7084604330708659
21
-4.1210529921259837
0
LINE
8
BLACK
6
CONTINUOUS
10
6.7084604330708659
20
-4.1210529921259837
11
6.7219948425196847
21
-4.1249522047244094
0
LINE
8
BLACK
6
CONTINUOUS
10
6.7219948425196847
20
-4.1249522047244094
11
6.7350075984251969
21
-4.1303422440944884
0
LINE
8
BLACK
6
CONTINUOUS
10
6.7350075984251969
20
-4.1303422440944884
11
6.7473350393700784
21
-4.1371553937007874
0
LINE
8
BLACK
6
CONTINUOUS
10
6.7473350393700784
20
-4.1371553937007874
11
6.7588221259842518
21
-4.1453059055118109
0
LINE
8
BLACK
6
CONTINUOUS
10
6.7588221259842518
20
-4.1453059055118109
11
6.769324409448819
21
-4.1546913385826771
0
LINE
8
BLACK
6
CONTINUOUS
10
6.769324409448819
20
-4.1546913385826771
11
6.7787098425196852
21
-4.1651936220472443
0
LINE
8
BLACK
6
CONTINUOUS
10
6.7787098425196852
20
-4.1651936220472443
11
6.7868603543307087
21
-4.1766807086614168
0
LINE
8
BLACK
6
CONTINUOUS
10
6.7868603543307087
20
-4.1766807086614168
11
6.7936735039370078
21
-4.1890081496062992
0
LINE
8
BLACK
6
CONTINUOUS
10
6.7936735039370078
20
-4.1890081496062992
11
6.7990635433070867
21
-4.2020209055118105
0
LINE
8
BLACK
6
CONTINUOUS
10
6.7990635433070867
20
-4.2020209055118105
11
6.8029627559055115
21
-4.2155553149606302
0
LINE
8
BLACK
6
CONTINUOUS
10
6.8029627559055115
20
-4.2155553149606302
11
6.8053220472440943
21
-4.229441181102362
0
LINE
8
BLACK
6
CONTINUOUS
10
6.8053220472440943
20
-4.229441181102362
11
6.8061118110236221
21
-4.2435039370078735
0
LINE
8
BLACK
6
CONTINUOUS
10
6.8061118110236221
20
-4.2435039370078735
11
6.8053220472440943
21
-4.257566692913386
0
LINE
8
BLACK
6
CONTINUOUS
10
6.8053220472440943
20
-4.257566692913386
11
6.8029627559055115
21
-4.2714525590551178
0
LINE
8
BLACK
6
CONTINUOUS
10
6.8029627559055115
20
-4.2714525590551178
11
6.7990635433070867
21
-4.2849869685039366
0
LINE
8
BLACK
6
CONTINUOUS
10
6.7990635433070867
20
-4.2849869685039366
11
6.7936735039370078
21
-4.2979997244094488
0
LINE
8
BLACK
6
CONTINUOUS
10
6.7936735039370078
20
-4.2979997244094488
11
6.7868603543307087
21
-4.3103271653543302
0
LINE
8
BLACK
6
CONTINUOUS
10
6.7868603543307087
20
-4.3103271653543302
11
6.7787098425196852
21
-4.3218142519685037
0
LINE
8
BLACK
6
CONTINUOUS
10
6.7787098425196852
20
-4.3218142519685037
11
6.769324409448819
21
-4.3323165354330708
0
LINE
8
BLACK
6
CONTINUOUS
10
6.769324409448819
20
-4.3323165354330708
11
6.7588221259842518
21
-4.3417019685039371
0
LINE
8
BLACK
6
CONTINUOUS
10
6.7588221259842518
20
-4.3417019685039371
11
6.7473350393700784
21
-4.3498524803149605
0
LINE
8
BLACK
6
CONTINUOUS
10
6.7473350393700784
20
-4.3498524803149605
11
6.7350075984251969
21
-4.3566656299212596
0
LINE
8
BLACK
6
CONTINUOUS
10
6.7350075984251969
20
-4.3566656299212596
11
6.7219948425196847
21
-4.3620556692913386
0
LINE
8
BLACK
6
CONTINUOUS
10
6.7219948425196847
20
-4.3620556692913386
11
6.7084604330708659
21
-4.3659548818897633
0
LINE
8
BLACK
6
CONTINUOUS
10
6.7084604330708659
20
-4.3659548818897633
11
6.6945745669291341
21
-4.3683141732283461
0
LINE
8
BLACK
6
CONTINUOUS
10
6.6945745669291341
20
-4.3683141732283461
11
6.6805118110236217
21
-4.3691039370078739
0
LINE
8
BLACK
6
CONTINUOUS
10
6.6805118110236217
20
-4.3691039370078739
11
6.6664490551181101
21
-4.3683141732283461
0
LINE
8
BLACK
6
CONTINUOUS
10
6.6664490551181101
20
-4.3683141732283461
11
6.6525631889763774
21
-4.3659548818897633
0
LINE
8
BLACK
6
CONTINUOUS
10
6.6525631889763774
20
-4.3659548818897633
11
6.6390287795275587
21
-4.3620556692913386
0
LINE
8
BLACK
6
CONTINUOUS
10
6.6390287795275587
20
-4.3620556692913386
11
6.6260160236220473
21
-4.3566656299212596
0
LINE
8
BLACK
6
CONTINUOUS
10
6.6260160236220473
20
-4.3566656299212596
11
6.613688582677165
21
-4.3498524803149605
0
LINE
8
BLACK
6
CONTINUOUS
10
6.613688582677165
20
-4.3498524803149605
11
6.6022014960629916
21
-4.3417019685039371
0
LINE
8
BLACK
6
CONTINUOUS
10
6.6022014960629916
20
-4.3417019685039371
11
6.5916992125984253
21
-4.3323165354330708
0
LINE
8
BLACK
6
CONTINUOUS
10
6.5916992125984253
20
-4.3323165354330708
11
6.582313779527559
21
-4.3218142519685037
0
LINE
8
BLACK
6
CONTINUOUS
10
6.582313779527559
20
-4.3218142519685037
11
6.5741632677165356
21
-4.3103271653543302
0
LINE
8
BLACK
6
CONTINUOUS
10
6.5741632677165356
20
-4.3103271653543302
11
6.5673501181102365
21
-4.2979997244094488
0
LINE
8
BLACK
6
CONTINUOUS
10
6.5673501181102365
20
-4.2979997244094488
11
6.5619600787401575
21
-4.2849869685039366
0
LINE
8
BLACK
6
CONTINUOUS
10
6.5619600787401575
20
-4.2849869685039366
11
6.5580608661417319
21
-4.2714525590551178
0
LINE
8
BLACK
6
CONTINUOUS
10
6.5580608661417319
20
-4.2714525590551178
11
6.5557015748031491
21
-4.257566692913386
0
LINE
8
BLACK
6
CONTINUOUS
10
6.5557015748031491
20
-4.257566692913386
11
6.5549118110236222
21
-4.2435039370078735
0
LINE
8
BLACK
6
CONTINUOUS
10
6.5549118110236222
20
-4.2435039370078735
11
6.5557015748031491
21
-4.229441181102362
0
LINE
8
BLACK
6
CONTINUOUS
10
6.5557015748031491
20
-4.229441181102362
11
6.5580608661417319
21
-4.2155553149606302
0
LINE
8
BLACK
6
CONTINUOUS
10
6.5580608661417319
20
-4.2155553149606302
11
6.5619600787401575
21
-4.2020209055118105
0
LINE
8
BLACK
6
CONTINUOUS
10
6.5619600787401575
20
-4.2020209055118105
11
6.5673501181102365
21
-4.1890081496062992
0
LINE
8
BLACK
6
CONTINUOUS
10
6.5673501181102365
20
-4.1890081496062992
11
6.5741632677165356
21
-4.1766807086614168
0
LINE
8
BLACK
6
CONTINUOUS
10
6.5741632677165356
20
-4.1766807086614168
11
6.582313779527559
21
-4.1651936220472443
0
LINE
8
BLACK
6
CONTINUOUS
10
6.582313779527559
20
-4.1651936220472443
11
6.5916992125984253
21
-4.1546913385826771
0
LINE
8
BLACK
6
CONTINUOUS
10
6.5916992125984253
20
-4.1546913385826771
11
6.6022014960629916
21
-4.1453059055118109
0
LINE
8
BLACK
6
CONTINUOUS
10
6.6022014960629916
20
-4.1453059055118109
11
6.613688582677165
21
-4.1371553937007874
0
LINE
8
BLACK
6
CONTINUOUS
10
6.613688582677165
20
-4.1371553937007874
11
6.6260160236220473
21
-4.1303422440944884
0
LINE
8
BLACK
6
CONTINUOUS
10
6.6260160236220473
20
-4.1303422440944884
11
6.6390287795275587
21
-4.1249522047244094
0
LINE
8
BLACK
6
CONTINUOUS
10
6.6390287795275587
20
-4.1249522047244094
11
6.6525631889763774
21
-4.1210529921259837
0
LINE
8
BLACK
6
CONTINUOUS
10
6.6525631889763774
20
-4.1210529921259837
11
6.6664490551181101
21
-4.1186937007874018
0
LINE
8
BLACK
6
CONTINUOUS
10
6.6664490551181101
20
-4.1186937007874018
11
6.6805118110236217
21
-4.117903937007874
0
LINE
8
BLACK
6
CONTINUOUS
10
6.6805118110236217
20
-4.117903937007874
11
6.6945745669291341
21
-4.1186937007874018
0
LINE
8
BLACK
6
CONTINUOUS
10
6.5704734645669287
20
-4.256365590551181
11
6.5727106692913386
21
-4.2690532677165356
0
LINE
8
BLACK
6
CONTINUOUS
10
6.5727106692913386
20
-4.2690532677165356
11
6.5764056692913382
21
-4.2813954724409449
0
LINE
8
BLACK
6
CONTINUOUS
10
6.5764056692913382
20
-4.2813954724409449
11
6.5815085433070868
21
-4.2932252362204721
0
LINE
8
BLACK
6
CONTINUOUS
10
6.5815085433070868
20
-4.2932252362204721
11
6.5879502362204727
21
-4.3043826377952756
0
LINE
8
BLACK
6
CONTINUOUS
10
6.5879502362204727
20
-4.3043826377952756
11
6.5956437007874014
21
-4.3147167322834648
0
LINE
8
BLACK
6
CONTINUOUS
10
6.5956437007874014
20
-4.3147167322834648
11
6.6044848425196845
21
-4.3240877952755907
0
LINE
8
BLACK
6
CONTINUOUS
10
6.6044848425196845
20
-4.3240877952755907
11
6.6143541338582672
21
-4.3323690944881887
0
LINE
8
BLACK
6
CONTINUOUS
10
6.6143541338582672
20
-4.3323690944881887
11
6.6251180708661419
21
-4.3394486614173227
0
LINE
8
BLACK
6
CONTINUOUS
10
6.6251180708661419
20
-4.3394486614173227
11
6.6366311417322832
21
-4.3452307480314962
0
LINE
8
BLACK
6
CONTINUOUS
10
6.6366311417322832
20
-4.3452307480314962
11
6.6487375984251971
21
-4.3496371259842519
0
LINE
8
BLACK
6
CONTINUOUS
10
6.6487375984251971
20
-4.3496371259842519
11
6.6612737795275585
21
-4.3526082677165352
0
LINE
8
BLACK
6
CONTINUOUS
10
6.6612737795275585
20
-4.3526082677165352
11
6.674070078740157
21
-4.3541039370078742
0
LINE
8
BLACK
6
CONTINUOUS
10
6.674070078740157
20
-4.3541039370078742
11
6.6869535433070864
21
-4.3541039370078742
0
LINE
8
BLACK
6
CONTINUOUS
10
6.6869535433070864
20
-4.3541039370078742
11
6.6997498425196849
21
-4.3526082677165352
0
LINE
8
BLACK
6
CONTINUOUS
10
6.6997498425196849
20
-4.3526082677165352
11
6.7122860236220472
21
-4.3496371259842519
0
LINE
8
BLACK
6
CONTINUOUS
10
6.7122860236220472
20
-4.3496371259842519
11
6.7243924803149602
21
-4.3452307480314962
0
LINE
8
BLACK
6
CONTINUOUS
10
6.7243924803149602
20
-4.3452307480314962
11
6.7359055511811023
21
-4.3394486614173227
0
LINE
8
BLACK
6
CONTINUOUS
10
6.7359055511811023
20
-4.3394486614173227
11
6.7466694881889762
21
-4.3323690944881887
0
LINE
8
BLACK
6
CONTINUOUS
10
6.7466694881889762
20
-4.3323690944881887
11
6.7565387795275589
21
-4.3240877952755907
0
LINE
8
BLACK
6
CONTINUOUS
10
6.7565387795275589
20
-4.3240877952755907
11
6.765379921259842
21
-4.3147167322834648
0
LINE
8
BLACK
6
CONTINUOUS
10
6.765379921259842
20
-4.3147167322834648
11
6.7730733858267715
21
-4.3043826377952756
0
LINE
8
BLACK
6
CONTINUOUS
10
6.7730733858267715
20
-4.3043826377952756
11
6.7795150787401575
21
-4.2932252362204721
0
LINE
8
BLACK
6
CONTINUOUS
10
6.7795150787401575
20
-4.2932252362204721
11
6.7846179527559052
21
-4.2813954724409449
0
LINE
8
BLACK
6
CONTINUOUS
10
6.7846179527559052
20
-4.2813954724409449
11
6.7883129527559056
21
-4.2690532677165356
0
LINE
8
BLACK
6
CONTINUOUS
10
6.7883129527559056
20
-4.2690532677165356
11
6.7905501574803147
21
-4.256365590551181
0
LINE
8
BLACK
6
CONTINUOUS
10
6.7905501574803147
20
-4.256365590551181
11
6.7912992519685034
21
-4.2435039370078735
0
LINE
8
BLACK
6
CONTINUOUS
10
6.7912992519685034
20
-4.2435039370078735
11
6.7905501574803147
21
-4.2306422834645669
0
LINE
8
BLACK
6
CONTINUOUS
10
6.7905501574803147
20
-4.2306422834645669
11
6.7883129527559056
21
-4.2179546062992124
0
LINE
8
BLACK
6
CONTINUOUS
10
6.7883129527559056
20
-4.2179546062992124
11
6.7846179527559052
21
-4.2056124015748031
0
LINE
8
BLACK
6
CONTINUOUS
10
6.7846179527559052
20
-4.2056124015748031
11
6.7795150787401575
21
-4.1937826377952758
0
LINE
8
BLACK
6
CONTINUOUS
10
6.7795150787401575
20
-4.1937826377952758
11
6.7730733858267715
21
-4.1826252362204723
0
LINE
8
BLACK
6
CONTINUOUS
10
6.7730733858267715
20
-4.1826252362204723
11
6.765379921259842
21
-4.1722911417322832
0
LINE
8
BLACK
6
CONTINUOUS
10
6.765379921259842
20
-4.1722911417322832
11
6.7565387795275589
21
-4.1629200787401572
0
LINE
8
BLACK
6
CONTINUOUS
10
6.7565387795275589
20
-4.1629200787401572
11
6.7466694881889762
21
-4.1546387795275592
0
LINE
8
BLACK
6
CONTINUOUS
10
6.7466694881889762
20
-4.1546387795275592
11
6.7359055511811023
21
-4.1475592125984253
0
LINE
8
BLACK
6
CONTINUOUS
10
6.7359055511811023
20
-4.1475592125984253
11
6.7243924803149602
21
-4.1417771259842517
0
LINE
8
BLACK
6
CONTINUOUS
10
6.7243924803149602
20
-4.1417771259842517
11
6.7122860236220472
21
-4.1373707480314961
0
LINE
8
BLACK
6
CONTINUOUS
10
6.7122860236220472
20
-4.1373707480314961
11
6.6997498425196849
21
-4.1343996062992128
0
LINE
8
BLACK
6
CONTINUOUS
10
6.6997498425196849
20
-4.1343996062992128
11
6.6869535433070864
21
-4.1329039370078737
0
LINE
8
BLACK
6
CONTINUOUS
10
6.6869535433070864
20
-4.1329039370078737
11
6.674070078740157
21
-4.1329039370078737
0
LINE
8
BLACK
6
CONTINUOUS
10
6.674070078740157
20
-4.1329039370078737
11
6.6612737795275585
21
-4.1343996062992128
0
LINE
8
BLACK
6
CONTINUOUS
10
6.6612737795275585
20
-4.1343996062992128
11
6.6487375984251971
21
-4.1373707480314961
0
LINE
8
BLACK
6
CONTINUOUS
10
6.6487375984251971
20
-4.1373707480314961
11
6.6366311417322832
21
-4.1417771259842517
0
LINE
8
BLACK
6
CONTINUOUS
10
6.6366311417322832
20
-4.1417771259842517
11
6.6251180708661419
21
-4.1475592125984253
0
LINE
8
BLACK
6
CONTINUOUS
10
6.6251180708661419
20
-4.1475592125984253
11
6.6143541338582672
21
-4.1546387795275592
0
LINE
8
BLACK
6
CONTINUOUS
10
6.6143541338582672
20
-4.1546387795275592
11
6.6044848425196845
21
-4.1629200787401572
0
LINE
8
BLACK
6
CONTINUOUS
10
6.6044848425196845
20
-4.1629200787401572
11
6.5956437007874014
21
-4.1722911417322832
0
LINE
8
BLACK
6
CONTINUOUS
10
6.5956437007874014
20
-4.1722911417322832
11
6.5879502362204727
21
-4.1826252362204723
0
LINE
8
BLACK
6
CONTINUOUS
10
6.5879502362204727
20
-4.1826252362204723
11
6.5815085433070868
21
-4.1937826377952758
0
LINE
8
BLACK
6
CONTINUOUS
10
6.5815085433070868
20
-4.1937826377952758
11
6.5764056692913382
21
-4.2056124015748031
0
LINE
8
BLACK
6
CONTINUOUS
10
6.5764056692913382
20
-4.2056124015748031
11
6.5727106692913386
21
-4.2179546062992124
0
LINE
8
BLACK
6
CONTINUOUS
10
6.5727106692913386
20
-4.2179546062992124
11
6.5704734645669287
21
-4.2306422834645669
0
LINE
8
BLACK
6
CONTINUOUS
10
6.5704734645669287
20
-4.2306422834645669
11
6.56972437007874
21
-4.2435039370078735
0
LINE
8
BLACK
6
CONTINUOUS
10
6.56972437007874
20
-4.2435039370078735
11
6.5704734645669287
21
-4.256365590551181
0
LINE
8
BLACK
6
CONTINUOUS
10
5.4945745669291339
20
-2.9186937007874016
11
5.5084604330708657
21
-2.921052992125984
0
LINE
8
BLACK
6
CONTINUOUS
10
5.5084604330708657
20
-2.921052992125984
11
5.5219948425196845
21
-2.9249522047244092
0
LINE
8
BLACK
6
CONTINUOUS
10
5.5219948425196845
20
-2.9249522047244092
11
5.5350075984251967
21
-2.9303422440944882
0
LINE
8
BLACK
6
CONTINUOUS
10
5.5350075984251967
20
-2.9303422440944882
11
5.5473350393700782
21
-2.9371553937007873
0
LINE
8
BLACK
6
CONTINUOUS
10
5.5473350393700782
20
-2.9371553937007873
11
5.5588221259842516
21
-2.9453059055118112
0
LINE
8
BLACK
6
CONTINUOUS
10
5.5588221259842516
20
-2.9453059055118112
11
5.5693244094488188
21
-2.954691338582677
0
LINE
8
BLACK
6
CONTINUOUS
10
5.5693244094488188
20
-2.954691338582677
11
5.578709842519685
21
-2.9651936220472441
0
LINE
8
BLACK
6
CONTINUOUS
10
5.578709842519685
20
-2.9651936220472441
11
5.5868603543307085
21
-2.9766807086614171
0
LINE
8
BLACK
6
CONTINUOUS
10
5.5868603543307085
20
-2.9766807086614171
11
5.5936735039370076
21
-2.989008149606299
0
LINE
8
BLACK
6
CONTINUOUS
10
5.5936735039370076
20
-2.989008149606299
11
5.5990635433070866
21
-3.0020209055118108
0
LINE
8
BLACK
6
CONTINUOUS
10
5.5990635433070866
20
-3.0020209055118108
11
5.6029627559055113
21
-3.01555531496063
0
LINE
8
BLACK
6
CONTINUOUS
10
5.6029627559055113
20
-3.01555531496063
11
5.6053220472440941
21
-3.0294411811023623
0
LINE
8
BLACK
6
CONTINUOUS
10
5.6053220472440941
20
-3.0294411811023623
11
5.6061118110236219
21
-3.0435039370078738
0
LINE
8
BLACK
6
CONTINUOUS
10
5.6061118110236219
20
-3.0435039370078738
11
5.6053220472440941
21
-3.0575666929133858
0
LINE
8
BLACK
6
CONTINUOUS
10
5.6053220472440941
20
-3.0575666929133858
11
5.6029627559055113
21
-3.071452559055118
0
LINE
8
BLACK
6
CONTINUOUS
10
5.6029627559055113
20
-3.071452559055118
11
5.5990635433070866
21
-3.0849869685039368
0
LINE
8
BLACK
6
CONTINUOUS
10
5.5990635433070866
20
-3.0849869685039368
11
5.5936735039370076
21
-3.0979997244094486
0
LINE
8
BLACK
6
CONTINUOUS
10
5.5936735039370076
20
-3.0979997244094486
11
5.5868603543307085
21
-3.1103271653543305
0
LINE
8
BLACK
6
CONTINUOUS
10
5.5868603543307085
20
-3.1103271653543305
11
5.578709842519685
21
-3.1218142519685039
0
LINE
8
BLACK
6
CONTINUOUS
10
5.578709842519685
20
-3.1218142519685039
11
5.5693244094488188
21
-3.1323165354330706
0
LINE
8
BLACK
6
CONTINUOUS
10
5.5693244094488188
20
-3.1323165354330706
11
5.5588221259842516
21
-3.1417019685039369
0
LINE
8
BLACK
6
CONTINUOUS
10
5.5588221259842516
20
-3.1417019685039369
11
5.5473350393700782
21
-3.1498524803149603
0
LINE
8
BLACK
6
CONTINUOUS
10
5.5473350393700782
20
-3.1498524803149603
11
5.5350075984251967
21
-3.1566656299212599
0
LINE
8
BLACK
6
CONTINUOUS
10
5.5350075984251967
20
-3.1566656299212599
11
5.5219948425196845
21
-3.1620556692913384
0
LINE
8
BLACK
6
CONTINUOUS
10
5.5219948425196845
20
-3.1620556692913384
11
5.5084604330708657
21
-3.1659548818897636
0
LINE
8
BLACK
6
CONTINUOUS
10
5.5084604330708657
20
-3.1659548818897636
11
5.4945745669291339
21
-3.1683141732283464
0
LINE
8
BLACK
6
CONTINUOUS
10
5.4945745669291339
20
-3.1683141732283464
11
5.4805118110236215
21
-3.1691039370078737
0
LINE
8
BLACK
6
CONTINUOUS
10
5.4805118110236215
20
-3.1691039370078737
11
5.46644905511811
21
-3.1683141732283464
0
LINE
8
BLACK
6
CONTINUOUS
10
5.46644905511811
20
-3.1683141732283464
11
5.4525631889763782
21
-3.1659548818897636
0
LINE
8
BLACK
6
CONTINUOUS
10
5.4525631889763782
20
-3.1659548818897636
11
5.4390287795275594
21
-3.1620556692913384
0
LINE
8
BLACK
6
CONTINUOUS
10
5.4390287795275594
20
-3.1620556692913384
11
5.4260160236220472
21
-3.1566656299212599
0
LINE
8
BLACK
6
CONTINUOUS
10
5.4260160236220472
20
-3.1566656299212599
11
5.4136885826771648
21
-3.1498524803149603
0
LINE
8
BLACK
6
CONTINUOUS
10
5.4136885826771648
20
-3.1498524803149603
11
5.4022014960629923
21
-3.1417019685039369
0
LINE
8
BLACK
6
CONTINUOUS
10
5.4022014960629923
20
-3.1417019685039369
11
5.3916992125984251
21
-3.1323165354330706
0
LINE
8
BLACK
6
CONTINUOUS
10
5.3916992125984251
20
-3.1323165354330706
11
5.3823137795275589
21
-3.1218142519685039
0
LINE
8
BLACK
6
CONTINUOUS
10
5.3823137795275589
20
-3.1218142519685039
11
5.3741632677165354
21
-3.1103271653543305
0
LINE
8
BLACK
6
CONTINUOUS
10
5.3741632677165354
20
-3.1103271653543305
11
5.3673501181102363
21
-3.0979997244094486
0
LINE
8
BLACK
6
CONTINUOUS
10
5.3673501181102363
20
-3.0979997244094486
11
5.3619600787401573
21
-3.0849869685039368
0
LINE
8
BLACK
6
CONTINUOUS
10
5.3619600787401573
20
-3.0849869685039368
11
5.3580608661417326
21
-3.071452559055118
0
LINE
8
BLACK
6
CONTINUOUS
10
5.3580608661417326
20
-3.071452559055118
11
5.3557015748031498
21
-3.0575666929133858
0
LINE
8
BLACK
6
CONTINUOUS
10
5.3557015748031498
20
-3.0575666929133858
11
5.354911811023622
21
-3.0435039370078738
0
LINE
8
BLACK
6
CONTINUOUS
10
5.354911811023622
20
-3.0435039370078738
11
5.3557015748031498
21
-3.0294411811023623
0
LINE
8
BLACK
6
CONTINUOUS
10
5.3557015748031498
20
-3.0294411811023623
11
5.3580608661417326
21
-3.01555531496063
0
LINE
8
BLACK
6
CONTINUOUS
10
5.3580608661417326
20
-3.01555531496063
11
5.3619600787401573
21
-3.0020209055118108
0
LINE
8
BLACK
6
CONTINUOUS
10
5.3619600787401573
20
-3.0020209055118108
11
5.3673501181102363
21
-2.989008149606299
0
LINE
8
BLACK
6
CONTINUOUS
10
5.3673501181102363
20
-2.989008149606299
11
5.3741632677165354
21
-2.9766807086614171
0
LINE
8
BLACK
6
CONTINUOUS
10
5.3741632677165354
20
-2.9766807086614171
11
5.3823137795275589
21
-2.9651936220472441
0
LINE
8
BLACK
6
CONTINUOUS
10
5.3823137795275589
20
-2.9651936220472441
11
5.3916992125984251
21
-2.954691338582677
0
LINE
8
BLACK
6
CONTINUOUS
10
5.3916992125984251
20
-2.954691338582677
11
5.4022014960629923
21
-2.9453059055118112
0
LINE
8
BLACK
6
CONTINUOUS
10
5.4022014960629923
20
-2.9453059055118112
11
5.4136885826771648
21
-2.9371553937007873
0
LINE
8
BLACK
6
CONTINUOUS
10
5.4136885826771648
20
-2.9371553937007873
11
5.4260160236220472
21
-2.9303422440944882
0
LINE
8
BLACK
6
CONTINUOUS
10
5.4260160236220472
20
-2.9303422440944882
11
5.4390287795275594
21
-2.9249522047244092
0
LINE
8
BLACK
6
CONTINUOUS
10
5.4390287795275594
20
-2.9249522047244092
11
5.4525631889763782
21
-2.921052992125984
0
LINE
8
BLACK
6
CONTINUOUS
10
5.4525631889763782
20
-2.921052992125984
11
5.46644905511811
21
-2.9186937007874016
0
LINE
8
BLACK
6
CONTINUOUS
10
5.46644905511811
20
-2.9186937007874016
11
5.4805118110236215
21
-2.9179039370078739
0
LINE
8
BLACK
6
CONTINUOUS
10
5.4805118110236215
20
-2.9179039370078739
11
5.4945745669291339
21
-2.9186937007874016
0
LINE
8
BLACK
6
CONTINUOUS
10
5.3704734645669294
20
-3.0563655905511808
11
5.3727106692913384
21
-3.0690532677165354
0
LINE
8
BLACK
6
CONTINUOUS
10
5.3727106692913384
20
-3.0690532677165354
11
5.3764056692913389
21
-3.0813954724409447
0
LINE
8
BLACK
6
CONTINUOUS
10
5.3764056692913389
20
-3.0813954724409447
11
5.3815085433070866
21
-3.0932252362204724
0
LINE
8
BLACK
6
CONTINUOUS
10
5.3815085433070866
20
-3.0932252362204724
11
5.3879502362204725
21
-3.1043826377952755
0
LINE
8
BLACK
6
CONTINUOUS
10
5.3879502362204725
20
-3.1043826377952755
11
5.3956437007874012
21
-3.1147167322834646
0
LINE
8
BLACK
6
CONTINUOUS
10
5.3956437007874012
20
-3.1147167322834646
11
5.4044848425196852
21
-3.1240877952755906
0
LINE
8
BLACK
6
CONTINUOUS
10
5.4044848425196852
20
-3.1240877952755906
11
5.4143541338582679
21
-3.132369094488189
0
LINE
8
BLACK
6
CONTINUOUS
10
5.4143541338582679
20
-3.132369094488189
11
5.4251180708661417
21
-3.1394486614173229
0
LINE
8
BLACK
6
CONTINUOUS
10
5.4251180708661417
20
-3.1394486614173229
11
5.436631141732283
21
-3.145230748031496
0
LINE
8
BLACK
6
CONTINUOUS
10
5.436631141732283
20
-3.145230748031496
11
5.4487375984251969
21
-3.1496371259842517
0
LINE
8
BLACK
6
CONTINUOUS
10
5.4487375984251969
20
-3.1496371259842517
11
5.4612737795275592
21
-3.1526082677165355
0
LINE
8
BLACK
6
CONTINUOUS
10
5.4612737795275592
20
-3.1526082677165355
11
5.4740700787401577
21
-3.1541039370078741
0
LINE
8
BLACK
6
CONTINUOUS
10
5.4740700787401577
20
-3.1541039370078741
11
5.4869535433070862
21
-3.1541039370078741
0
LINE
8
BLACK
6
CONTINUOUS
10
5.4869535433070862
20
-3.1541039370078741
11
5.4997498425196847
21
-3.1526082677165355
0
LINE
8
BLACK
6
CONTINUOUS
10
5.4997498425196847
20
-3.1526082677165355
11
5.512286023622047
21
-3.1496371259842517
0
LINE
8
BLACK
6
CONTINUOUS
10
5.512286023622047
20
-3.1496371259842517
11
5.5243924803149609
21
-3.145230748031496
0
LINE
8
BLACK
6
CONTINUOUS
10
5.5243924803149609
20
-3.145230748031496
11
5.5359055511811022
21
-3.1394486614173229
0
LINE
8
BLACK
6
CONTINUOUS
10
5.5359055511811022
20
-3.1394486614173229
11
5.546669488188976
21
-3.132369094488189
0
LINE
8
BLACK
6
CONTINUOUS
10
5.546669488188976
20
-3.132369094488189
11
5.5565387795275587
21
-3.1240877952755906
0
LINE
8
BLACK
6
CONTINUOUS
10
5.5565387795275587
20
-3.1240877952755906
11
5.5653799212598427
21
-3.1147167322834646
0
LINE
8
BLACK
6
CONTINUOUS
10
5.5653799212598427
20
-3.1147167322834646
11
5.5730733858267714
21
-3.1043826377952755
0
LINE
8
BLACK
6
CONTINUOUS
10
5.5730733858267714
20
-3.1043826377952755
11
5.5795150787401573
21
-3.0932252362204724
0
LINE
8
BLACK
6
CONTINUOUS
10
5.5795150787401573
20
-3.0932252362204724
11
5.584617952755905
21
-3.0813954724409447
0
LINE
8
BLACK
6
CONTINUOUS
10
5.584617952755905
20
-3.0813954724409447
11
5.5883129527559054
21
-3.0690532677165354
0
LINE
8
BLACK
6
CONTINUOUS
10
5.5883129527559054
20
-3.0690532677165354
11
5.5905501574803145
21
-3.0563655905511808
0
LINE
8
BLACK
6
CONTINUOUS
10
5.5905501574803145
20
-3.0563655905511808
11
5.5912992519685041
21
-3.0435039370078738
0
LINE
8
BLACK
6
CONTINUOUS
10
5.5912992519685041
20
-3.0435039370078738
11
5.5905501574803145
21
-3.0306422834645668
0
LINE
8
BLACK
6
CONTINUOUS
10
5.5905501574803145
20
-3.0306422834645668
11
5.5883129527559054
21
-3.0179546062992126
0
LINE
8
BLACK
6
CONTINUOUS
10
5.5883129527559054
20
-3.0179546062992126
11
5.584617952755905
21
-3.0056124015748029
0
LINE
8
BLACK
6
CONTINUOUS
10
5.584617952755905
20
-3.0056124015748029
11
5.5795150787401573
21
-2.9937826377952756
0
LINE
8
BLACK
6
CONTINUOUS
10
5.5795150787401573
20
-2.9937826377952756
11
5.5730733858267714
21
-2.9826252362204722
0
LINE
8
BLACK
6
CONTINUOUS
10
5.5730733858267714
20
-2.9826252362204722
11
5.5653799212598427
21
-2.9722911417322835
0
LINE
8
BLACK
6
CONTINUOUS
10
5.5653799212598427
20
-2.9722911417322835
11
5.5565387795275587
21
-2.9629200787401575
0
LINE
8
BLACK
6
CONTINUOUS
10
5.5565387795275587
20
-2.9629200787401575
11
5.546669488188976
21
-2.954638779527559
0
LINE
8
BLACK
6
CONTINUOUS
10
5.546669488188976
20
-2.954638779527559
11
5.5359055511811022
21
-2.9475592125984251
0
LINE
8
BLACK
6
CONTINUOUS
10
5.5359055511811022
20
-2.9475592125984251
11
5.5243924803149609
21
-2.941777125984252
0
LINE
8
BLACK
6
CONTINUOUS
10
5.5243924803149609
20
-2.941777125984252
11
5.512286023622047
21
-2.9373707480314959
0
LINE
8
BLACK
6
CONTINUOUS
10
5.512286023622047
20
-2.9373707480314959
11
5.4997498425196847
21
-2.9343996062992126
0
LINE
8
BLACK
6
CONTINUOUS
10
5.4997498425196847
20
-2.9343996062992126
11
5.4869535433070862
21
-2.932903937007874
0
LINE
8
BLACK
6
CONTINUOUS
10
5.4869535433070862
20
-2.932903937007874
11
5.4740700787401577
21
-2.932903937007874
0
LINE
8
BLACK
6
CONTINUOUS
10
5.4740700787401577
20
-2.932903937007874
11
5.4612737795275592
21
-2.9343996062992126
0
LINE
8
BLACK
6
CONTINUOUS
10
5.4612737795275592
20
-2.9343996062992126
11
5.4487375984251969
21
-2.9373707480314959
0
LINE
8
BLACK
6
CONTINUOUS
10
5.4487375984251969
20
-2.9373707480314959
11
5.436631141732283
21
-2.941777125984252
0
LINE
8
BLACK
6
CONTINUOUS
10
5.436631141732283
20
-2.941777125984252
11
5.4251180708661417
21
-2.9475592125984251
0
LINE
8
BLACK
6
CONTINUOUS
10
5.4251180708661417
20
-2.9475592125984251
11
5.4143541338582679
21
-2.954638779527559
0
LINE
8
BLACK
6
CONTINUOUS
10
5.4143541338582679
20
-2.954638779527559
11
5.4044848425196852
21
-2.9629200787401575
0
LINE
8
BLACK
6
CONTINUOUS
10
5.4044848425196852
20
-2.9629200787401575
11
5.3956437007874012
21
-2.9722911417322835
0
LINE
8
BLACK
6
CONTINUOUS
10
5.3956437007874012
20
-2.9722911417322835
11
5.3879502362204725
21
-2.9826252362204722
0
LINE
8
BLACK
6
CONTINUOUS
10
5.3879502362204725
20
-2.9826252362204722
11
5.3815085433070866
21
-2.9937826377952756
0
LINE
8
BLACK
6
CONTINUOUS
10
5.3815085433070866
20
-2.9937826377952756
11
5.3764056692913389
21
-3.0056124015748029
0
LINE
8
BLACK
6
CONTINUOUS
10
5.3764056692913389
20
-3.0056124015748029
11
5.3727106692913384
21
-3.0179546062992126
0
LINE
8
BLACK
6
CONTINUOUS
10
5.3727106692913384
20
-3.0179546062992126
11
5.3704734645669294
21
-3.0306422834645668
0
LINE
8
BLACK
6
CONTINUOUS
10
5.3704734645669294
20
-3.0306422834645668
11
5.3697243700787398
21
-3.0435039370078738
0
LINE
8
BLACK
6
CONTINUOUS
10
5.3697243700787398
20
-3.0435039370078738
11
5.3704734645669294
21
-3.0563655905511808
0
LINE
8
BLACK
6
CONTINUOUS
10
6.6945745669291341
20
-2.9186937007874016
11
6.7084604330708659
21
-2.921052992125984
0
LINE
8
BLACK
6
CONTINUOUS
10
6.7084604330708659
20
-2.921052992125984
11
6.7219948425196847
21
-2.9249522047244092
0
LINE
8
BLACK
6
CONTINUOUS
10
6.7219948425196847
20
-2.9249522047244092
11
6.7350075984251969
21
-2.9303422440944882
0
LINE
8
BLACK
6
CONTINUOUS
10
6.7350075984251969
20
-2.9303422440944882
11
6.7473350393700784
21
-2.9371553937007873
0
LINE
8
BLACK
6
CONTINUOUS
10
6.7473350393700784
20
-2.9371553937007873
11
6.7588221259842518
21
-2.9453059055118112
0
LINE
8
BLACK
6
CONTINUOUS
10
6.7588221259842518
20
-2.9453059055118112
11
6.769324409448819
21
-2.954691338582677
0
LINE
8
BLACK
6
CONTINUOUS
10
6.769324409448819
20
-2.954691338582677
11
6.7787098425196852
21
-2.9651936220472441
0
LINE
8
BLACK
6
CONTINUOUS
10
6.7787098425196852
20
-2.9651936220472441
11
6.7868603543307087
21
-2.9766807086614171
0
LINE
8
BLACK
6
CONTINUOUS
10
6.7868603543307087
20
-2.9766807086614171
11
6.7936735039370078
21
-2.989008149606299
0
LINE
8
BLACK
6
CONTINUOUS
10
6.7936735039370078
20
-2.989008149606299
11
6.7990635433070867
21
-3.0020209055118108
0
LINE
8
BLACK
6
CONTINUOUS
10
6.7990635433070867
20
-3.0020209055118108
11
6.8029627559055115
21
-3.01555531496063
0
LINE
8
BLACK
6
CONTINUOUS
10
6.8029627559055115
20
-3.01555531496063
11
6.8053220472440943
21
-3.0294411811023623
0
LINE
8
BLACK
6
CONTINUOUS
10
6.8053220472440943
20
-3.0294411811023623
11
6.8061118110236221
21
-3.0435039370078738
0
LINE
8
BLACK
6
CONTINUOUS
10
6.8061118110236221
20
-3.0435039370078738
11
6.8053220472440943
21
-3.0575666929133858
0
LINE
8
BLACK
6
CONTINUOUS
10
6.8053220472440943
20
-3.0575666929133858
11
6.8029627559055115
21
-3.071452559055118
0
LINE
8
BLACK
6
CONTINUOUS
10
6.8029627559055115
20
-3.071452559055118
11
6.7990635433070867
21
-3.0849869685039368
0
LINE
8
BLACK
6
CONTINUOUS
10
6.7990635433070867
20
-3.0849869685039368
11
6.7936735039370078
21
-3.0979997244094486
0
LINE
8
BLACK
6
CONTINUOUS
10
6.7936735039370078
20
-3.0979997244094486
11
6.7868603543307087
21
-3.1103271653543305
0
LINE
8
BLACK
6
CONTINUOUS
10
6.7868603543307087
20
-3.1103271653543305
11
6.7787098425196852
21
-3.1218142519685039
0
LINE
8
BLACK
6
CONTINUOUS
10
6.7787098425196852
20
-3.1218142519685039
11
6.769324409448819
21
-3.1323165354330706
0
LINE
8
BLACK
6
CONTINUOUS
10
6.769324409448819
20
-3.1323165354330706
11
6.7588221259842518
21
-3.1417019685039369
0
LINE
8
BLACK
6
CONTINUOUS
10
6.7588221259842518
20
-3.1417019685039369
11
6.7473350393700784
21
-3.1498524803149603
0
LINE
8
BLACK
6
CONTINUOUS
10
6.7473350393700784
20
-3.1498524803149603
11
6.7350075984251969
21
-3.1566656299212599
0
LINE
8
BLACK
6
CONTINUOUS
10
6.7350075984251969
20
-3.1566656299212599
11
6.7219948425196847
21
-3.1620556692913384
0
LINE
8
BLACK
6
CONTINUOUS
10
6.7219948425196847
20
-3.1620556692913384
11
6.7084604330708659
21
-3.1659548818897636
0
LINE
8
BLACK
6
CONTINUOUS
10
6.7084604330708659
20
-3.1659548818897636
11
6.6945745669291341
21
-3.1683141732283464
0
LINE
8
BLACK
6
CONTINUOUS
10
6.6945745669291341
20
-3.1683141732283464
11
6.6805118110236217
21
-3.1691039370078737
0
LINE
8
BLACK
6
CONTINUOUS
10
6.6805118110236217
20
-3.1691039370078737
11
6.6664490551181101
21
-3.1683141732283464
0
LINE
8
BLACK
6
CONTINUOUS
10
6.6664490551181101
20
-3.1683141732283464
11
6.6525631889763774
21
-3.1659548818897636
0
LINE
8
BLACK
6
CONTINUOUS
10
6.6525631889763774
20
-3.1659548818897636
11
6.6390287795275587
21
-3.1620556692913384
0
LINE
8
BLACK
6
CONTINUOUS
10
6.6390287795275587
20
-3.1620556692913384
11
6.6260160236220473
21
-3.1566656299212599
0
LINE
8
BLACK
6
CONTINUOUS
10
6.6260160236220473
20
-3.1566656299212599
11
6.613688582677165
21
-3.1498524803149603
0
LINE
8
BLACK
6
CONTINUOUS
10
6.613688582677165
20
-3.1498524803149603
11
6.6022014960629916
21
-3.1417019685039369
0
LINE
8
BLACK
6
CONTINUOUS
10
6.6022014960629916
20
-3.1417019685039369
11
6.5916992125984253
21
-3.1323165354330706
0
LINE
8
BLACK
6
CONTINUOUS
10
6.5916992125984253
20
-3.1323165354330706
11
6.582313779527559
21
-3.1218142519685039
0
LINE
8
BLACK
6
CONTINUOUS
10
6.582313779527559
20
-3.1218142519685039
11
6.5741632677165356
21
-3.1103271653543305
0
LINE
8
BLACK
6
CONTINUOUS
10
6.5741632677165356
20
-3.1103271653543305
11
6.5673501181102365
21
-3.0979997244094486
0
LINE
8
BLACK
6
CONTINUOUS
10
6.5673501181102365
20
-3.0979997244094486
11
6.5619600787401575
21
-3.0849869685039368
0
LINE
8
BLACK
6
CONTINUOUS
10
6.5619600787401575
20
-3.0849869685039368
11
6.5580608661417319
21
-3.071452559055118
0
LINE
8
BLACK
6
CONTINUOUS
10
6.5580608661417319
20
-3.071452559055118
11
6.5557015748031491
21
-3.0575666929133858
0
LINE
8
BLACK
6
CONTINUOUS
10
6.5557015748031491
20
-3.0575666929133858
11
6.5549118110236222
21
-3.0435039370078738
0
LINE
8
BLACK
6
CONTINUOUS
10
6.5549118110236222
20
-3.0435039370078738
11
6.5557015748031491
21
-3.0294411811023623
0
LINE
8
BLACK
6
CONTINUOUS
10
6.5557015748031491
20
-3.0294411811023623
11
6.5580608661417319
21
-3.01555531496063
0
LINE
8
BLACK
6
CONTINUOUS
10
6.5580608661417319
20
-3.01555531496063
11
6.5619600787401575
21
-3.0020209055118108
0
LINE
8
BLACK
6
CONTINUOUS
10
6.5619600787401575
20
-3.0020209055118108
11
6.5673501181102365
21
-2.989008149606299
0
LINE
8
BLACK
6
CONTINUOUS
10
6.5673501181102365
20
-2.989008149606299
11
6.5741632677165356
21
-2.9766807086614171
0
LINE
8
BLACK
6
CONTINUOUS
10
6.5741632677165356
20
-2.9766807086614171
11
6.582313779527559
21
-2.9651936220472441
0
LINE
8
BLACK
6
CONTINUOUS
10
6.582313779527559
20
-2.9651936220472441
11
6.5916992125984253
21
-2.954691338582677
0
LINE
8
BLACK
6
CONTINUOUS
10
6.5916992125984253
20
-2.954691338582677
11
6.6022014960629916
21
-2.9453059055118112
0
LINE
8
BLACK
6
CONTINUOUS
10
6.6022014960629916
20
-2.9453059055118112
11
6.613688582677165
21
-2.9371553937007873
0
LINE
8
BLACK
6
CONTINUOUS
10
6.613688582677165
20
-2.9371553937007873
11
6.6260160236220473
21
-2.9303422440944882
0
LINE
8
BLACK
6
CONTINUOUS
10
6.6260160236220473
20
-2.9303422440944882
11
6.6390287795275587
21
-2.9249522047244092
0
LINE
8
BLACK
6
CONTINUOUS
10
6.6390287795275587
20
-2.9249522047244092
11
6.6525631889763774
21
-2.921052992125984
0
LINE
8
BLACK
6
CONTINUOUS
10
6.6525631889763774
20
-2.921052992125984
11
6.6664490551181101
21
-2.9186937007874016
0
LINE
8
BLACK
6
CONTINUOUS
10
6.6664490551181101
20
-2.9186937007874016
11
6.6805118110236217
21
-2.9179039370078739
0
LINE
8
BLACK
6
CONTINUOUS
10
6.6805118110236217
20
-2.9179039370078739
11
6.6945745669291341
21
-2.9186937007874016
0
LINE
8
BLACK
6
CONTINUOUS
10
6.5704734645669287
20
-3.0563655905511808
11
6.5727106692913386
21
-3.0690532677165354
0
LINE
8
BLACK
6
CONTINUOUS
10
6.5727106692913386
20
-3.0690532677165354
11
6.5764056692913382
21
-3.0813954724409447
0
LINE
8
BLACK
6
CONTINUOUS
10
6.5764056692913382
20
-3.0813954724409447
11
6.5815085433070868
21
-3.0932252362204724
0
LINE
8
BLACK
6
CONTINUOUS
10
6.5815085433070868
20
-3.0932252362204724
11
6.5879502362204727
21
-3.1043826377952755
0
LINE
8
BLACK
6
CONTINUOUS
10
6.5879502362204727
20
-3.1043826377952755
11
6.5956437007874014
21
-3.1147167322834646
0
LINE
8
BLACK
6
CONTINUOUS
10
6.5956437007874014
20
-3.1147167322834646
11
6.6044848425196845
21
-3.1240877952755906
0
LINE
8
BLACK
6
CONTINUOUS
10
6.6044848425196845
20
-3.1240877952755906
11
6.6143541338582672
21
-3.132369094488189
0
LINE
8
BLACK
6
CONTINUOUS
10
6.6143541338582672
20
-3.132369094488189
11
6.6251180708661419
21
-3.1394486614173229
0
LINE
8
BLACK
6
CONTINUOUS
10
6.6251180708661419
20
-3.1394486614173229
11
6.6366311417322832
21
-3.145230748031496
0
LINE
8
BLACK
6
CONTINUOUS
10
6.6366311417322832
20
-3.145230748031496
11
6.6487375984251971
21
-3.1496371259842517
0
LINE
8
BLACK
6
CONTINUOUS
10
6.6487375984251971
20
-3.1496371259842517
11
6.6612737795275585
21
-3.1526082677165355
0
LINE
8
BLACK
6
CONTINUOUS
10
6.6612737795275585
20
-3.1526082677165355
11
6.674070078740157
21
-3.1541039370078741
0
LINE
8
BLACK
6
CONTINUOUS
10
6.674070078740157
20
-3.1541039370078741
11
6.6869535433070864
21
-3.1541039370078741
0
LINE
8
BLACK
6
CONTINUOUS
10
6.6869535433070864
20
-3.1541039370078741
11
6.6997498425196849
21
-3.1526082677165355
0
LINE
8
BLACK
6
CONTINUOUS
10
6.6997498425196849
20
-3.1526082677165355
11
6.7122860236220472
21
-3.1496371259842517
0
LINE
8
BLACK
6
CONTINUOUS
10
6.7122860236220472
20
-3.1496371259842517
11
6.7243924803149602
21
-3.145230748031496
0
LINE
8
BLACK
6
CONTINUOUS
10
6.7243924803149602
20
-3.145230748031496
11
6.7359055511811023
21
-3.1394486614173229
0
LINE
8
BLACK
6
CONTINUOUS
10
6.7359055511811023
20
-3.1394486614173229
11
6.7466694881889762
21
-3.132369094488189
0
LINE
8
BLACK
6
CONTINUOUS
10
6.7466694881889762
20
-3.132369094488189
11
6.7565387795275589
21
-3.1240877952755906
0
LINE
8
BLACK
6
CONTINUOUS
10
6.7565387795275589
20
-3.1240877952755906
11
6.765379921259842
21
-3.1147167322834646
0
LINE
8
BLACK
6
CONTINUOUS
10
6.765379921259842
20
-3.1147167322834646
11
6.7730733858267715
21
-3.1043826377952755
0
LINE
8
BLACK
6
CONTINUOUS
10
6.7730733858267715
20
-3.1043826377952755
11
6.7795150787401575
21
-3.0932252362204724
0
LINE
8
BLACK
6
CONTINUOUS
10
6.7795150787401575
20
-3.0932252362204724
11
6.7846179527559052
21
-3.0813954724409447
0
LINE
8
BLACK
6
CONTINUOUS
10
6.7846179527559052
20
-3.0813954724409447
11
6.7883129527559056
21
-3.0690532677165354
0
LINE
8
BLACK
6
CONTINUOUS
10
6.7883129527559056
20
-3.0690532677165354
11
6.7905501574803147
21
-3.0563655905511808
0
LINE
8
BLACK
6
CONTINUOUS
10
6.7905501574803147
20
-3.0563655905511808
11
6.7912992519685034
21
-3.0435039370078738
0
LINE
8
BLACK
6
CONTINUOUS
10
6.7912992519685034
20
-3.0435039370078738
11
6.7905501574803147
21
-3.0306422834645668
0
LINE
8
BLACK
6
CONTINUOUS
10
6.7905501574803147
20
-3.0306422834645668
11
6.7883129527559056
21
-3.0179546062992126
0
LINE
8
BLACK
6
CONTINUOUS
10
6.7883129527559056
20
-3.0179546062992126
11
6.7846179527559052
21
-3.0056124015748029
0
LINE
8
BLACK
6
CONTINUOUS
10
6.7846179527559052
20
-3.0056124015748029
11
6.7795150787401575
21
-2.9937826377952756
0
LINE
8
BLACK
6
CONTINUOUS
10
6.7795150787401575
20
-2.9937826377952756
11
6.7730733858267715
21
-2.9826252362204722
0
LINE
8
BLACK
6
CONTINUOUS
10
6.7730733858267715
20
-2.9826252362204722
11
6.765379921259842
21
-2.9722911417322835
0
LINE
8
BLACK
6
CONTINUOUS
10
6.765379921259842
20
-2.9722911417322835
11
6.7565387795275589
21
-2.9629200787401575
0
LINE
8
BLACK
6
CONTINUOUS
10
6.7565387795275589
20
-2.9629200787401575
11
6.7466694881889762
21
-2.954638779527559
0
LINE
8
BLACK
6
CONTINUOUS
10
6.7466694881889762
20
-2.954638779527559
11
6.7359055511811023
21
-2.9475592125984251
0
LINE
8
BLACK
6
CONTINUOUS
10
6.7359055511811023
20
-2.9475592125984251
11
6.7243924803149602
21
-2.941777125984252
0
LINE
8
BLACK
6
CONTINUOUS
10
6.7243924803149602
20
-2.941777125984252
11
6.7122860236220472
21
-2.9373707480314959
0
LINE
8
BLACK
6
CONTINUOUS
10
6.7122860236220472
20
-2.9373707480314959
11
6.6997498425196849
21
-2.9343996062992126
0
LINE
8
BLACK
6
CONTINUOUS
10
6.6997498425196849
20
-2.9343996062992126
11
6.6869535433070864
21
-2.932903937007874
0
LINE
8
BLACK
6
CONTINUOUS
10
6.6869535433070864
20
-2.932903937007874
11
6.674070078740157
21
-2.932903937007874
0
LINE
8
BLACK
6
CONTINUOUS
10
6.674070078740157
20
-2.932903937007874
11
6.6612737795275585
21
-2.9343996062992126
0
LINE
8
BLACK
6
CONTINUOUS
10
6.6612737795275585
20
-2.9343996062992126
11
6.6487375984251971
21
-2.9373707480314959
0
LINE
8
BLACK
6
CONTINUOUS
10
6.6487375984251971
20
-2.9373707480314959
11
6.6366311417322832
21
-2.941777125984252
0
LINE
8
BLACK
6
CONTINUOUS
10
6.6366311417322832
20
-2.941777125984252
11
6.6251180708661419
21
-2.9475592125984251
0
LINE
8
BLACK
6
CONTINUOUS
10
6.6251180708661419
20
-2.9475592125984251
11
6.6143541338582672
21
-2.954638779527559
0
LINE
8
BLACK
6
CONTINUOUS
10
6.6143541338582672
20
-2.954638779527559
11
6.6044848425196845
21
-2.9629200787401575
0
LINE
8
BLACK
6
CONTINUOUS
10
6.6044848425196845
20
-2.9629200787401575
11
6.5956437007874014
21
-2.9722911417322835
0
LINE
8
BLACK
6
CONTINUOUS
10
6.5956437007874014
20
-2.9722911417322835
11
6.5879502362204727
21
-2.9826252362204722
0
LINE
8
BLACK
6
CONTINUOUS
10
6.5879502362204727
20
-2.9826252362204722
11
6.5815085433070868
21
-2.9937826377952756
0
LINE
8
BLACK
6
CONTINUOUS
10
6.5815085433070868
20
-2.9937826377952756
11
6.5764056692913382
21
-3.0056124015748029
0
LINE
8
BLACK
6
CONTINUOUS
10
6.5764056692913382
20
-3.0056124015748029
11
6.5727106692913386
21
-3.0179546062992126
0
LINE
8
BLACK
6
CONTINUOUS
10
6.5727106692913386
20
-3.0179546062992126
11
6.5704734645669287
21
-3.0306422834645668
0
LINE
8
BLACK
6
CONTINUOUS
10
6.5704734645669287
20
-3.0306422834645668
11
6.56972437007874
21
-3.0435039370078738
0
LINE
8
BLACK
6
CONTINUOUS
10
6.56972437007874
20
-3.0435039370078738
11
6.5704734645669287
21
-3.0563655905511808
  0
ENDSEC
  0
EOF
