  0
SECTION
  2
HEADER
  9
$ANGBASE
  50
0.0
  9
$ANGDIR
  70
1
  9
$MEASUREMENT
  70
0
  0
ENDSEC
  0
SECTION
  2
TABLES
  0
TABLE
  2
LTYPE
  70
4
  0
LTYPE
  5
40F
  2
CONTINUOUS
  70
0
  3
Solid line
  72
65
  73
0
  40
0.0
  0
LTYPE
  5
410
  2
DASHDOT
 70
0
  3
Dash Dot ____ _ ____ _
 72
65
 73
4
 40
2.0
 49
1.25
 49
-0.25
 49
0.25
 49
-0.25
  0
LTYPE
  5
411
  2
DASHED
 70
0
  3
Dashed __ __ __ __ __
 72
65
 73
2
 40
0.75
 49
0.5
 49
-0.25
  0
LTYPE
  5
43B
  2
DOTTED
 70
0
  3
Dotted .  .  .  .
 72
65
 73
2
 40
0.2
 49
0.0
 49
-0.2
  0
ENDTAB
  0
TABLE
  2
STYLE
  70
4
  0
STYLE
  2
KICAD
  70
0
  40
0
  41
1
  42
1
  50
0
  71
0
  3
isocp.shx
  0
STYLE
  2
KICADB
  70
0
  40
0
  41
1
  42
1
  50
0
  71
0
  3
isocp.shx
  0
STYLE
  2
KICADI
  70
0
  40
0
  41
1
  42
1
  50
15
  71
0
  3
isocp.shx
  0
STYLE
  2
KICADBI
  70
0
  40
0
  41
1
  42
1
  50
15
  71
0
  3
isocp.shx
  0
ENDTAB
  0
TABLE
  2
LAYER
  70
1
  0
LAYER
  2
BLACK
  70
0
  62
7
  6
CONTINUOUS
  0
ENDTAB
  0
ENDSEC
  0
SECTION
  2
ENTITIES
0
LINE
8
BLACK
6
CONTINUOUS
10
5.6982112992125984
20
-3.7002717716535432
11
5.698743976377953
21
-3.7008044488188974
0
LINE
8
BLACK
6
CONTINUOUS
10
5.698743976377953
20
-3.7008044488188974
11
5.6988188976377954
21
-4.035826771653543
0
LINE
8
BLACK
6
CONTINUOUS
10
5.6988188976377954
20
-4.035826771653543
11
5.698743976377953
21
-4.0362034251968506
0
LINE
8
BLACK
6
CONTINUOUS
10
5.698743976377953
20
-4.0362034251968506
11
5.6982112992125984
21
-4.0367361023622044
0
LINE
8
BLACK
6
CONTINUOUS
10
5.6982112992125984
20
-4.0367361023622044
11
5.3631889763779528
21
-4.0368110236220476
0
LINE
8
BLACK
6
CONTINUOUS
10
5.3631889763779528
20
-4.0368110236220476
11
5.3628123228346452
21
-4.0367361023622044
0
LINE
8
BLACK
6
CONTINUOUS
10
5.3628123228346452
20
-4.0367361023622044
11
5.3622796456692914
21
-4.0362034251968506
0
LINE
8
BLACK
6
CONTINUOUS
10
5.3622796456692914
20
-4.0362034251968506
11
5.3622047244094491
21
-3.7011811023622045
0
LINE
8
BLACK
6
CONTINUOUS
10
5.3622047244094491
20
-3.7011811023622045
11
5.3622796456692914
21
-3.7008044488188974
0
LINE
8
BLACK
6
CONTINUOUS
10
5.3622796456692914
20
-3.7008044488188974
11
5.3628123228346452
21
-3.7002717716535432
0
LINE
8
BLACK
6
CONTINUOUS
10
5.3628123228346452
20
-3.7002717716535432
11
5.6978346456692908
21
-3.7001968503937008
0
LINE
8
BLACK
6
CONTINUOUS
10
5.6978346456692908
20
-3.7001968503937008
11
5.6982112992125984
21
-3.7002717716535432
0
LINE
8
BLACK
6
CONTINUOUS
10
5.3640985826771654
20
-3.7021651181102362
11
5.364172992125984
21
-4.0349171259842516
0
LINE
8
BLACK
6
CONTINUOUS
10
5.364172992125984
20
-4.0349171259842516
11
5.6969250000000002
21
-4.034842716535433
0
LINE
8
BLACK
6
CONTINUOUS
10
5.6969250000000002
20
-4.034842716535433
11
5.6968505905511808
21
-3.7020907086614172
0
LINE
8
BLACK
6
CONTINUOUS
10
5.6968505905511808
20
-3.7020907086614172
11
5.3640985826771654
21
-3.7021651181102362
0
LINE
8
BLACK
6
CONTINUOUS
10
6.798211299212598
20
-3.7002717716535432
11
6.7987439763779527
21
-3.7008044488188974
0
LINE
8
BLACK
6
CONTINUOUS
10
6.7987439763779527
20
-3.7008044488188974
11
6.798818897637795
21
-4.035826771653543
0
LINE
8
BLACK
6
CONTINUOUS
10
6.798818897637795
20
-4.035826771653543
11
6.7987439763779527
21
-4.0362034251968506
0
LINE
8
BLACK
6
CONTINUOUS
10
6.7987439763779527
20
-4.0362034251968506
11
6.798211299212598
21
-4.0367361023622044
0
LINE
8
BLACK
6
CONTINUOUS
10
6.798211299212598
20
-4.0367361023622044
11
6.4631889763779524
21
-4.0368110236220476
0
LINE
8
BLACK
6
CONTINUOUS
10
6.4631889763779524
20
-4.0368110236220476
11
6.4628123228346457
21
-4.0367361023622044
0
LINE
8
BLACK
6
CONTINUOUS
10
6.4628123228346457
20
-4.0367361023622044
11
6.462279645669291
21
-4.0362034251968506
0
LINE
8
BLACK
6
CONTINUOUS
10
6.462279645669291
20
-4.0362034251968506
11
6.4622047244094487
21
-3.7011811023622045
0
LINE
8
BLACK
6
CONTINUOUS
10
6.4622047244094487
20
-3.7011811023622045
11
6.462279645669291
21
-3.7008044488188974
0
LINE
8
BLACK
6
CONTINUOUS
10
6.462279645669291
20
-3.7008044488188974
11
6.4628123228346457
21
-3.7002717716535432
0
LINE
8
BLACK
6
CONTINUOUS
10
6.4628123228346457
20
-3.7002717716535432
11
6.7978346456692913
21
-3.7001968503937008
0
LINE
8
BLACK
6
CONTINUOUS
10
6.7978346456692913
20
-3.7001968503937008
11
6.798211299212598
21
-3.7002717716535432
0
LINE
8
BLACK
6
CONTINUOUS
10
6.4640985826771651
20
-3.7021651181102362
11
6.4641729921259845
21
-4.0349171259842516
0
LINE
8
BLACK
6
CONTINUOUS
10
6.4641729921259845
20
-4.0349171259842516
11
6.7969249999999999
21
-4.034842716535433
0
LINE
8
BLACK
6
CONTINUOUS
10
6.7969249999999999
20
-4.034842716535433
11
6.7968505905511813
21
-3.7020907086614172
0
LINE
8
BLACK
6
CONTINUOUS
10
6.7968505905511813
20
-3.7020907086614172
11
6.4640985826771651
21
-3.7021651181102362
0
LINE
8
BLACK
6
CONTINUOUS
10
5.6982112992125984
20
-3.2502717716535434
11
5.698743976377953
21
-3.2508044488188976
0
LINE
8
BLACK
6
CONTINUOUS
10
5.698743976377953
20
-3.2508044488188976
11
5.6988188976377954
21
-3.5858267716535432
0
LINE
8
BLACK
6
CONTINUOUS
10
5.6988188976377954
20
-3.5858267716535432
11
5.698743976377953
21
-3.5862034251968504
0
LINE
8
BLACK
6
CONTINUOUS
10
5.698743976377953
20
-3.5862034251968504
11
5.6982112992125984
21
-3.5867361023622046
0
LINE
8
BLACK
6
CONTINUOUS
10
5.6982112992125984
20
-3.5867361023622046
11
5.3631889763779528
21
-3.586811023622047
0
LINE
8
BLACK
6
CONTINUOUS
10
5.3631889763779528
20
-3.586811023622047
11
5.3628123228346452
21
-3.5867361023622046
0
LINE
8
BLACK
6
CONTINUOUS
10
5.3628123228346452
20
-3.5867361023622046
11
5.3622796456692914
21
-3.5862034251968504
0
LINE
8
BLACK
6
CONTINUOUS
10
5.3622796456692914
20
-3.5862034251968504
11
5.3622047244094491
21
-3.2511811023622048
0
LINE
8
BLACK
6
CONTINUOUS
10
5.3622047244094491
20
-3.2511811023622048
11
5.3622796456692914
21
-3.2508044488188976
0
LINE
8
BLACK
6
CONTINUOUS
10
5.3622796456692914
20
-3.2508044488188976
11
5.3628123228346452
21
-3.2502717716535434
0
LINE
8
BLACK
6
CONTINUOUS
10
5.3628123228346452
20
-3.2502717716535434
11
5.6978346456692908
21
-3.2501968503937007
0
LINE
8
BLACK
6
CONTINUOUS
10
5.6978346456692908
20
-3.2501968503937007
11
5.6982112992125984
21
-3.2502717716535434
0
LINE
8
BLACK
6
CONTINUOUS
10
5.3640985826771654
20
-3.252165118110236
11
5.364172992125984
21
-3.5849171259842518
0
LINE
8
BLACK
6
CONTINUOUS
10
5.364172992125984
20
-3.5849171259842518
11
5.6969250000000002
21
-3.5848427165354328
0
LINE
8
BLACK
6
CONTINUOUS
10
5.6969250000000002
20
-3.5848427165354328
11
5.6968505905511808
21
-3.252090708661417
0
LINE
8
BLACK
6
CONTINUOUS
10
5.6968505905511808
20
-3.252090708661417
11
5.3640985826771654
21
-3.252165118110236
0
LINE
8
BLACK
6
CONTINUOUS
10
6.798211299212598
20
-3.2502717716535434
11
6.7987439763779527
21
-3.2508044488188976
0
LINE
8
BLACK
6
CONTINUOUS
10
6.7987439763779527
20
-3.2508044488188976
11
6.798818897637795
21
-3.5858267716535432
0
LINE
8
BLACK
6
CONTINUOUS
10
6.798818897637795
20
-3.5858267716535432
11
6.7987439763779527
21
-3.5862034251968504
0
LINE
8
BLACK
6
CONTINUOUS
10
6.7987439763779527
20
-3.5862034251968504
11
6.798211299212598
21
-3.5867361023622046
0
LINE
8
BLACK
6
CONTINUOUS
10
6.798211299212598
20
-3.5867361023622046
11
6.4631889763779524
21
-3.586811023622047
0
LINE
8
BLACK
6
CONTINUOUS
10
6.4631889763779524
20
-3.586811023622047
11
6.4628123228346457
21
-3.5867361023622046
0
LINE
8
BLACK
6
CONTINUOUS
10
6.4628123228346457
20
-3.5867361023622046
11
6.462279645669291
21
-3.5862034251968504
0
LINE
8
BLACK
6
CONTINUOUS
10
6.462279645669291
20
-3.5862034251968504
11
6.4622047244094487
21
-3.2511811023622048
0
LINE
8
BLACK
6
CONTINUOUS
10
6.4622047244094487
20
-3.2511811023622048
11
6.462279645669291
21
-3.2508044488188976
0
LINE
8
BLACK
6
CONTINUOUS
10
6.462279645669291
20
-3.2508044488188976
11
6.4628123228346457
21
-3.2502717716535434
0
LINE
8
BLACK
6
CONTINUOUS
10
6.4628123228346457
20
-3.2502717716535434
11
6.7978346456692913
21
-3.2501968503937007
0
LINE
8
BLACK
6
CONTINUOUS
10
6.7978346456692913
20
-3.2501968503937007
11
6.798211299212598
21
-3.2502717716535434
0
LINE
8
BLACK
6
CONTINUOUS
10
6.4640985826771651
20
-3.252165118110236
11
6.4641729921259845
21
-3.5849171259842518
0
LINE
8
BLACK
6
CONTINUOUS
10
6.4641729921259845
20
-3.5849171259842518
11
6.7969249999999999
21
-3.5848427165354328
0
LINE
8
BLACK
6
CONTINUOUS
10
6.7969249999999999
20
-3.5848427165354328
11
6.7968505905511813
21
-3.252090708661417
0
LINE
8
BLACK
6
CONTINUOUS
10
6.7968505905511813
20
-3.252090708661417
11
6.4640985826771651
21
-3.252165118110236
  0
ENDSEC
  0
EOF
