  0
SECTION
  2
HEADER
  9
$ANGBASE
  50
0.0
  9
$ANGDIR
  70
1
  9
$MEASUREMENT
  70
0
  0
ENDSEC
  0
SECTION
  2
TABLES
  0
TABLE
  2
LTYPE
  70
4
  0
LTYPE
  5
40F
  2
CONTINUOUS
  70
0
  3
Solid line
  72
65
  73
0
  40
0.0
  0
LTYPE
  5
410
  2
DASHDOT
 70
0
  3
Dash Dot ____ _ ____ _
 72
65
 73
4
 40
2.0
 49
1.25
 49
-0.25
 49
0.25
 49
-0.25
  0
LTYPE
  5
411
  2
DASHED
 70
0
  3
Dashed __ __ __ __ __
 72
65
 73
2
 40
0.75
 49
0.5
 49
-0.25
  0
LTYPE
  5
43B
  2
DOTTED
 70
0
  3
Dotted .  .  .  .
 72
65
 73
2
 40
0.2
 49
0.0
 49
-0.2
  0
ENDTAB
  0
TABLE
  2
STYLE
  70
4
  0
STYLE
  2
KICAD
  70
0
  40
0
  41
1
  42
1
  50
0
  71
0
  3
isocp.shx
  0
STYLE
  2
KICADB
  70
0
  40
0
  41
1
  42
1
  50
0
  71
0
  3
isocp.shx
  0
STYLE
  2
KICADI
  70
0
  40
0
  41
1
  42
1
  50
15
  71
0
  3
isocp.shx
  0
STYLE
  2
KICADBI
  70
0
  40
0
  41
1
  42
1
  50
15
  71
0
  3
isocp.shx
  0
ENDTAB
  0
TABLE
  2
LAYER
  70
1
  0
LAYER
  2
BLACK
  70
0
  62
7
  6
CONTINUOUS
  0
ENDTAB
  0
ENDSEC
  0
SECTION
  2
ENTITIES
0
LINE
8
BLACK
6
CONTINUOUS
10
6.3030118110236222
20
-4.3710039370078739
11
6.268011811023622
21
-4.3710039370078739
0
LINE
8
BLACK
6
CONTINUOUS
10
6.268011811023622
20
-4.3710039370078739
11
6.268011811023622
21
-4.3160039370078742
0
LINE
8
BLACK
6
CONTINUOUS
10
6.268011811023622
20
-4.3160039370078742
11
6.3030118110236222
21
-4.3160039370078742
0
LINE
8
BLACK
6
CONTINUOUS
10
6.3030118110236222
20
-4.3160039370078742
11
6.3030118110236222
21
-4.3710039370078739
0
LINE
8
BLACK
6
CONTINUOUS
10
6.3780118110236215
20
-4.3710039370078739
11
6.3430118110236222
21
-4.3710039370078739
0
LINE
8
BLACK
6
CONTINUOUS
10
6.3430118110236222
20
-4.3710039370078739
11
6.3430118110236222
21
-4.3160039370078742
0
LINE
8
BLACK
6
CONTINUOUS
10
6.3430118110236222
20
-4.3160039370078742
11
6.3780118110236215
21
-4.3160039370078742
0
LINE
8
BLACK
6
CONTINUOUS
10
6.3780118110236215
20
-4.3160039370078742
11
6.3780118110236215
21
-4.3710039370078739
0
LINE
8
BLACK
6
CONTINUOUS
10
5.8707991732283462
20
-4.3430039370078743
11
5.8357991732283461
21
-4.3430039370078743
0
LINE
8
BLACK
6
CONTINUOUS
10
5.8357991732283461
20
-4.3430039370078743
11
5.8357991732283461
21
-4.2880039370078737
0
LINE
8
BLACK
6
CONTINUOUS
10
5.8357991732283461
20
-4.2880039370078737
11
5.8707991732283462
21
-4.2880039370078737
0
LINE
8
BLACK
6
CONTINUOUS
10
5.8707991732283462
20
-4.2880039370078737
11
5.8707991732283462
21
-4.3430039370078743
0
LINE
8
BLACK
6
CONTINUOUS
10
5.9457991732283464
20
-4.3430039370078743
11
5.9107991732283462
21
-4.3430039370078743
0
LINE
8
BLACK
6
CONTINUOUS
10
5.9107991732283462
20
-4.3430039370078743
11
5.9107991732283462
21
-4.2880039370078737
0
LINE
8
BLACK
6
CONTINUOUS
10
5.9107991732283462
20
-4.2880039370078737
11
5.9457991732283464
21
-4.2880039370078737
0
LINE
8
BLACK
6
CONTINUOUS
10
5.9457991732283464
20
-4.2880039370078737
11
5.9457991732283464
21
-4.3430039370078743
0
LINE
8
BLACK
6
CONTINUOUS
10
6.0725196850393699
20
-4.318031496062992
11
6.0351181102362199
21
-4.318031496062992
0
LINE
8
BLACK
6
CONTINUOUS
10
6.0351181102362199
20
-4.318031496062992
11
6.0351181102362199
21
-4.2589763779527559
0
LINE
8
BLACK
6
CONTINUOUS
10
6.0351181102362199
20
-4.2589763779527559
11
6.0725196850393699
21
-4.2589763779527559
0
LINE
8
BLACK
6
CONTINUOUS
10
6.0725196850393699
20
-4.2589763779527559
11
6.0725196850393699
21
-4.318031496062992
0
LINE
8
BLACK
6
CONTINUOUS
10
6.2359055118110236
20
-4.318031496062992
11
6.1985039370078736
21
-4.318031496062992
0
LINE
8
BLACK
6
CONTINUOUS
10
6.1985039370078736
20
-4.318031496062992
11
6.1985039370078736
21
-4.2589763779527559
0
LINE
8
BLACK
6
CONTINUOUS
10
6.1985039370078736
20
-4.2589763779527559
11
6.2359055118110236
21
-4.2589763779527559
0
LINE
8
BLACK
6
CONTINUOUS
10
6.2359055118110236
20
-4.2589763779527559
11
6.2359055118110236
21
-4.318031496062992
0
LINE
8
BLACK
6
CONTINUOUS
10
6.3030118110236222
20
-4.286003937007874
11
6.268011811023622
21
-4.286003937007874
0
LINE
8
BLACK
6
CONTINUOUS
10
6.268011811023622
20
-4.286003937007874
11
6.268011811023622
21
-4.2310039370078742
0
LINE
8
BLACK
6
CONTINUOUS
10
6.268011811023622
20
-4.2310039370078742
11
6.3030118110236222
21
-4.2310039370078742
0
LINE
8
BLACK
6
CONTINUOUS
10
6.3030118110236222
20
-4.2310039370078742
11
6.3030118110236222
21
-4.286003937007874
0
LINE
8
BLACK
6
CONTINUOUS
10
6.3780118110236215
20
-4.286003937007874
11
6.3430118110236222
21
-4.286003937007874
0
LINE
8
BLACK
6
CONTINUOUS
10
6.3430118110236222
20
-4.286003937007874
11
6.3430118110236222
21
-4.2310039370078742
0
LINE
8
BLACK
6
CONTINUOUS
10
6.3430118110236222
20
-4.2310039370078742
11
6.3780118110236215
21
-4.2310039370078742
0
LINE
8
BLACK
6
CONTINUOUS
10
6.3780118110236215
20
-4.2310039370078742
11
6.3780118110236215
21
-4.286003937007874
0
LINE
8
BLACK
6
CONTINUOUS
10
6.0080118110236223
20
-4.2610039370078736
11
5.9530118110236216
21
-4.2610039370078736
0
LINE
8
BLACK
6
CONTINUOUS
10
5.9530118110236216
20
-4.2610039370078736
11
5.9530118110236216
21
-4.2260039370078744
0
LINE
8
BLACK
6
CONTINUOUS
10
5.9530118110236216
20
-4.2260039370078744
11
6.0080118110236223
21
-4.2260039370078744
0
LINE
8
BLACK
6
CONTINUOUS
10
6.0080118110236223
20
-4.2260039370078744
11
6.0080118110236223
21
-4.2610039370078736
0
LINE
8
BLACK
6
CONTINUOUS
10
5.8309055118110233
20
-4.226968503937008
11
5.8053149606299215
21
-4.226968503937008
0
LINE
8
BLACK
6
CONTINUOUS
10
5.8053149606299215
20
-4.226968503937008
11
5.8053149606299215
21
-4.211220472440945
0
LINE
8
BLACK
6
CONTINUOUS
10
5.8053149606299215
20
-4.211220472440945
11
5.8309055118110233
21
-4.211220472440945
0
LINE
8
BLACK
6
CONTINUOUS
10
5.8309055118110233
20
-4.211220472440945
11
5.8309055118110233
21
-4.226968503937008
0
LINE
8
BLACK
6
CONTINUOUS
10
5.9057086614173224
20
-4.226968503937008
11
5.8801181102362206
21
-4.226968503937008
0
LINE
8
BLACK
6
CONTINUOUS
10
5.8801181102362206
20
-4.226968503937008
11
5.8801181102362206
21
-4.211220472440945
0
LINE
8
BLACK
6
CONTINUOUS
10
5.8801181102362206
20
-4.211220472440945
11
5.9057086614173224
21
-4.211220472440945
0
LINE
8
BLACK
6
CONTINUOUS
10
5.9057086614173224
20
-4.211220472440945
11
5.9057086614173224
21
-4.226968503937008
0
LINE
8
BLACK
6
CONTINUOUS
10
6.3030118110236222
20
-4.2060039370078739
11
6.268011811023622
21
-4.2060039370078739
0
LINE
8
BLACK
6
CONTINUOUS
10
6.268011811023622
20
-4.2060039370078739
11
6.268011811023622
21
-4.1510039370078742
0
LINE
8
BLACK
6
CONTINUOUS
10
6.268011811023622
20
-4.1510039370078742
11
6.3030118110236222
21
-4.1510039370078742
0
LINE
8
BLACK
6
CONTINUOUS
10
6.3030118110236222
20
-4.1510039370078742
11
6.3030118110236222
21
-4.2060039370078739
0
LINE
8
BLACK
6
CONTINUOUS
10
6.3780118110236215
20
-4.2060039370078739
11
6.3430118110236222
21
-4.2060039370078739
0
LINE
8
BLACK
6
CONTINUOUS
10
6.3430118110236222
20
-4.2060039370078739
11
6.3430118110236222
21
-4.1510039370078742
0
LINE
8
BLACK
6
CONTINUOUS
10
6.3430118110236222
20
-4.1510039370078742
11
6.3780118110236215
21
-4.1510039370078742
0
LINE
8
BLACK
6
CONTINUOUS
10
6.3780118110236215
20
-4.1510039370078742
11
6.3780118110236215
21
-4.2060039370078739
0
LINE
8
BLACK
6
CONTINUOUS
10
5.9057086614173224
20
-4.2013779527559052
11
5.8801181102362206
21
-4.2013779527559052
0
LINE
8
BLACK
6
CONTINUOUS
10
5.8801181102362206
20
-4.2013779527559052
11
5.8801181102362206
21
-4.1856299212598422
0
LINE
8
BLACK
6
CONTINUOUS
10
5.8801181102362206
20
-4.1856299212598422
11
5.9057086614173224
21
-4.1856299212598422
0
LINE
8
BLACK
6
CONTINUOUS
10
5.9057086614173224
20
-4.1856299212598422
11
5.9057086614173224
21
-4.2013779527559052
0
LINE
8
BLACK
6
CONTINUOUS
10
6.0837583464566931
20
-4.1455374409448815
11
6.0865523622047242
21
-4.1474043307086612
0
LINE
8
BLACK
6
CONTINUOUS
10
6.0865523622047242
20
-4.1474043307086612
11
6.0884192519685039
21
-4.1501983464566932
0
LINE
8
BLACK
6
CONTINUOUS
10
6.0884192519685039
20
-4.1501983464566932
11
6.0890748031496065
21
-4.1534940944881891
0
LINE
8
BLACK
6
CONTINUOUS
10
6.0890748031496065
20
-4.1534940944881891
11
6.0890748031496065
21
-4.1835137795275585
0
LINE
8
BLACK
6
CONTINUOUS
10
6.0890748031496065
20
-4.1835137795275585
11
6.0884192519685039
21
-4.1868095275590553
0
LINE
8
BLACK
6
CONTINUOUS
10
6.0884192519685039
20
-4.1868095275590553
11
6.0865523622047242
21
-4.1896035433070864
0
LINE
8
BLACK
6
CONTINUOUS
10
6.0865523622047242
20
-4.1896035433070864
11
6.0837583464566931
21
-4.1914704330708661
0
LINE
8
BLACK
6
CONTINUOUS
10
6.0837583464566931
20
-4.1914704330708661
11
6.0804625984251963
21
-4.1921259842519687
0
LINE
8
BLACK
6
CONTINUOUS
10
6.0804625984251963
20
-4.1921259842519687
11
6.0632381889763778
21
-4.1921259842519687
0
LINE
8
BLACK
6
CONTINUOUS
10
6.0632381889763778
20
-4.1921259842519687
11
6.0599424409448819
21
-4.1914704330708661
0
LINE
8
BLACK
6
CONTINUOUS
10
6.0599424409448819
20
-4.1914704330708661
11
6.0571484251968499
21
-4.1896035433070864
0
LINE
8
BLACK
6
CONTINUOUS
10
6.0571484251968499
20
-4.1896035433070864
11
6.0552815354330711
21
-4.1868095275590553
0
LINE
8
BLACK
6
CONTINUOUS
10
6.0552815354330711
20
-4.1868095275590553
11
6.0546259842519685
21
-4.1835137795275585
0
LINE
8
BLACK
6
CONTINUOUS
10
6.0546259842519685
20
-4.1835137795275585
11
6.0546259842519685
21
-4.1534940944881891
0
LINE
8
BLACK
6
CONTINUOUS
10
6.0546259842519685
20
-4.1534940944881891
11
6.0552815354330711
21
-4.1501983464566932
0
LINE
8
BLACK
6
CONTINUOUS
10
6.0552815354330711
20
-4.1501983464566932
11
6.0571484251968499
21
-4.1474043307086612
0
LINE
8
BLACK
6
CONTINUOUS
10
6.0571484251968499
20
-4.1474043307086612
11
6.0599424409448819
21
-4.1455374409448815
0
LINE
8
BLACK
6
CONTINUOUS
10
6.0599424409448819
20
-4.1455374409448815
11
6.0632381889763778
21
-4.1448818897637798
0
LINE
8
BLACK
6
CONTINUOUS
10
6.0632381889763778
20
-4.1448818897637798
11
6.0804625984251963
21
-4.1448818897637798
0
LINE
8
BLACK
6
CONTINUOUS
10
6.0804625984251963
20
-4.1448818897637798
11
6.0837583464566931
21
-4.1455374409448815
0
LINE
8
BLACK
6
CONTINUOUS
10
6.1674197637795274
20
-4.1455374409448815
11
6.1702137795275593
21
-4.1474043307086612
0
LINE
8
BLACK
6
CONTINUOUS
10
6.1702137795275593
20
-4.1474043307086612
11
6.1720806692913381
21
-4.1501983464566932
0
LINE
8
BLACK
6
CONTINUOUS
10
6.1720806692913381
20
-4.1501983464566932
11
6.1727362204724407
21
-4.1534940944881891
0
LINE
8
BLACK
6
CONTINUOUS
10
6.1727362204724407
20
-4.1534940944881891
11
6.1727362204724407
21
-4.1835137795275585
0
LINE
8
BLACK
6
CONTINUOUS
10
6.1727362204724407
20
-4.1835137795275585
11
6.1720806692913381
21
-4.1868095275590553
0
LINE
8
BLACK
6
CONTINUOUS
10
6.1720806692913381
20
-4.1868095275590553
11
6.1702137795275593
21
-4.1896035433070864
0
LINE
8
BLACK
6
CONTINUOUS
10
6.1702137795275593
20
-4.1896035433070864
11
6.1674197637795274
21
-4.1914704330708661
0
LINE
8
BLACK
6
CONTINUOUS
10
6.1674197637795274
20
-4.1914704330708661
11
6.1641240157480315
21
-4.1921259842519687
0
LINE
8
BLACK
6
CONTINUOUS
10
6.1641240157480315
20
-4.1921259842519687
11
6.1468996062992121
21
-4.1921259842519687
0
LINE
8
BLACK
6
CONTINUOUS
10
6.1468996062992121
20
-4.1921259842519687
11
6.1436038582677162
21
-4.1914704330708661
0
LINE
8
BLACK
6
CONTINUOUS
10
6.1436038582677162
20
-4.1914704330708661
11
6.1408098425196851
21
-4.1896035433070864
0
LINE
8
BLACK
6
CONTINUOUS
10
6.1408098425196851
20
-4.1896035433070864
11
6.1389429527559054
21
-4.1868095275590553
0
LINE
8
BLACK
6
CONTINUOUS
10
6.1389429527559054
20
-4.1868095275590553
11
6.1382874015748028
21
-4.1835137795275585
0
LINE
8
BLACK
6
CONTINUOUS
10
6.1382874015748028
20
-4.1835137795275585
11
6.1382874015748028
21
-4.1534940944881891
0
LINE
8
BLACK
6
CONTINUOUS
10
6.1382874015748028
20
-4.1534940944881891
11
6.1389429527559054
21
-4.1501983464566932
0
LINE
8
BLACK
6
CONTINUOUS
10
6.1389429527559054
20
-4.1501983464566932
11
6.1408098425196851
21
-4.1474043307086612
0
LINE
8
BLACK
6
CONTINUOUS
10
6.1408098425196851
20
-4.1474043307086612
11
6.1436038582677162
21
-4.1455374409448815
0
LINE
8
BLACK
6
CONTINUOUS
10
6.1436038582677162
20
-4.1455374409448815
11
6.1468996062992121
21
-4.1448818897637798
0
LINE
8
BLACK
6
CONTINUOUS
10
6.1468996062992121
20
-4.1448818897637798
11
6.1641240157480315
21
-4.1448818897637798
0
LINE
8
BLACK
6
CONTINUOUS
10
6.1641240157480315
20
-4.1448818897637798
11
6.1674197637795274
21
-4.1455374409448815
0
LINE
8
BLACK
6
CONTINUOUS
10
6.0080118110236223
20
-4.1860039370078743
11
5.9530118110236216
21
-4.1860039370078743
0
LINE
8
BLACK
6
CONTINUOUS
10
5.9530118110236216
20
-4.1860039370078743
11
5.9530118110236216
21
-4.1510039370078742
0
LINE
8
BLACK
6
CONTINUOUS
10
5.9530118110236216
20
-4.1510039370078742
11
6.0080118110236223
21
-4.1510039370078742
0
LINE
8
BLACK
6
CONTINUOUS
10
6.0080118110236223
20
-4.1510039370078742
11
6.0080118110236223
21
-4.1860039370078743
0
LINE
8
BLACK
6
CONTINUOUS
10
5.7220118110236218
20
-4.1845039370078743
11
5.6670118110236221
21
-4.1845039370078743
0
LINE
8
BLACK
6
CONTINUOUS
10
5.6670118110236221
20
-4.1845039370078743
11
5.6670118110236221
21
-4.1495039370078741
0
LINE
8
BLACK
6
CONTINUOUS
10
5.6670118110236221
20
-4.1495039370078741
11
5.7220118110236218
21
-4.1495039370078741
0
LINE
8
BLACK
6
CONTINUOUS
10
5.7220118110236218
20
-4.1495039370078741
11
5.7220118110236218
21
-4.1845039370078743
0
LINE
8
BLACK
6
CONTINUOUS
10
5.8309055118110233
20
-4.1757874015748033
11
5.8053149606299215
21
-4.1757874015748033
0
LINE
8
BLACK
6
CONTINUOUS
10
5.8053149606299215
20
-4.1757874015748033
11
5.8053149606299215
21
-4.1600393700787404
0
LINE
8
BLACK
6
CONTINUOUS
10
5.8053149606299215
20
-4.1600393700787404
11
5.8309055118110233
21
-4.1600393700787404
0
LINE
8
BLACK
6
CONTINUOUS
10
5.8309055118110233
20
-4.1600393700787404
11
5.8309055118110233
21
-4.1757874015748033
0
LINE
8
BLACK
6
CONTINUOUS
10
5.9057086614173224
20
-4.1757874015748033
11
5.8801181102362206
21
-4.1757874015748033
0
LINE
8
BLACK
6
CONTINUOUS
10
5.8801181102362206
20
-4.1757874015748033
11
5.8801181102362206
21
-4.1600393700787404
0
LINE
8
BLACK
6
CONTINUOUS
10
5.8801181102362206
20
-4.1600393700787404
11
5.9057086614173224
21
-4.1600393700787404
0
LINE
8
BLACK
6
CONTINUOUS
10
5.9057086614173224
20
-4.1600393700787404
11
5.9057086614173224
21
-4.1757874015748033
0
LINE
8
BLACK
6
CONTINUOUS
10
6.2739101574803149
20
-4.0705293700787397
11
6.2767041338582672
21
-4.0723962598425194
0
LINE
8
BLACK
6
CONTINUOUS
10
6.2767041338582672
20
-4.0723962598425194
11
6.2888836614173229
21
-4.0845757874015751
0
LINE
8
BLACK
6
CONTINUOUS
10
6.2888836614173229
20
-4.0845757874015751
11
6.2907505511811026
21
-4.0873697637795274
0
LINE
8
BLACK
6
CONTINUOUS
10
6.2907505511811026
20
-4.0873697637795274
11
6.2914061417322831
21
-4.0906655118110233
0
LINE
8
BLACK
6
CONTINUOUS
10
6.2914061417322831
20
-4.0906655118110233
11
6.2907505511811026
21
-4.0939612598425192
0
LINE
8
BLACK
6
CONTINUOUS
10
6.2907505511811026
20
-4.0939612598425192
11
6.2888836614173229
21
-4.0967552755905512
0
LINE
8
BLACK
6
CONTINUOUS
10
6.2888836614173229
20
-4.0967552755905512
11
6.2676565354330709
21
-4.1179824015748032
0
LINE
8
BLACK
6
CONTINUOUS
10
6.2676565354330709
20
-4.1179824015748032
11
6.2648625196850389
21
-4.1198492913385829
0
LINE
8
BLACK
6
CONTINUOUS
10
6.2648625196850389
20
-4.1198492913385829
11
6.261566771653543
21
-4.1205048818897634
0
LINE
8
BLACK
6
CONTINUOUS
10
6.261566771653543
20
-4.1205048818897634
11
6.2582710236220471
21
-4.1198492913385829
0
LINE
8
BLACK
6
CONTINUOUS
10
6.2582710236220471
20
-4.1198492913385829
11
6.2554770472440939
21
-4.1179824015748032
0
LINE
8
BLACK
6
CONTINUOUS
10
6.2554770472440939
20
-4.1179824015748032
11
6.2432975196850391
21
-4.1058028740157475
0
LINE
8
BLACK
6
CONTINUOUS
10
6.2432975196850391
20
-4.1058028740157475
11
6.2414306299212594
21
-4.1030088976377952
0
LINE
8
BLACK
6
CONTINUOUS
10
6.2414306299212594
20
-4.1030088976377952
11
6.2407750393700789
21
-4.0997131496062993
0
LINE
8
BLACK
6
CONTINUOUS
10
6.2407750393700789
20
-4.0997131496062993
11
6.2414306299212594
21
-4.0964174015748034
0
LINE
8
BLACK
6
CONTINUOUS
10
6.2414306299212594
20
-4.0964174015748034
11
6.2432975196850391
21
-4.0936233858267714
0
LINE
8
BLACK
6
CONTINUOUS
10
6.2432975196850391
20
-4.0936233858267714
11
6.2645246456692911
21
-4.0723962598425194
0
LINE
8
BLACK
6
CONTINUOUS
10
6.2645246456692911
20
-4.0723962598425194
11
6.2673186614173231
21
-4.0705293700787397
0
LINE
8
BLACK
6
CONTINUOUS
10
6.2673186614173231
20
-4.0705293700787397
11
6.270614409448819
21
-4.0698737795275592
0
LINE
8
BLACK
6
CONTINUOUS
10
6.270614409448819
20
-4.0698737795275592
11
6.2739101574803149
21
-4.0705293700787397
0
LINE
8
BLACK
6
CONTINUOUS
10
5.7220118110236218
20
-4.1095039370078741
11
5.6670118110236221
21
-4.1095039370078741
0
LINE
8
BLACK
6
CONTINUOUS
10
5.6670118110236221
20
-4.1095039370078741
11
5.6670118110236221
21
-4.0745039370078739
0
LINE
8
BLACK
6
CONTINUOUS
10
5.6670118110236221
20
-4.0745039370078739
11
5.7220118110236218
21
-4.0745039370078739
0
LINE
8
BLACK
6
CONTINUOUS
10
5.7220118110236218
20
-4.0745039370078739
11
5.7220118110236218
21
-4.1095039370078741
0
LINE
8
BLACK
6
CONTINUOUS
10
6.0555118110236217
20
-4.0735039370078736
11
6.0205118110236215
21
-4.0735039370078736
0
LINE
8
BLACK
6
CONTINUOUS
10
6.0205118110236215
20
-4.0735039370078736
11
6.0205118110236215
21
-4.0185039370078739
0
LINE
8
BLACK
6
CONTINUOUS
10
6.0205118110236215
20
-4.0185039370078739
11
6.0555118110236217
21
-4.0185039370078739
0
LINE
8
BLACK
6
CONTINUOUS
10
6.0555118110236217
20
-4.0185039370078739
11
6.0555118110236217
21
-4.0735039370078736
0
LINE
8
BLACK
6
CONTINUOUS
10
6.1305118110236219
20
-4.0735039370078736
11
6.0955118110236217
21
-4.0735039370078736
0
LINE
8
BLACK
6
CONTINUOUS
10
6.0955118110236217
20
-4.0735039370078736
11
6.0955118110236217
21
-4.0185039370078739
0
LINE
8
BLACK
6
CONTINUOUS
10
6.0955118110236217
20
-4.0185039370078739
11
6.1305118110236219
21
-4.0185039370078739
0
LINE
8
BLACK
6
CONTINUOUS
10
6.1305118110236219
20
-4.0185039370078739
11
6.1305118110236219
21
-4.0735039370078736
0
LINE
8
BLACK
6
CONTINUOUS
10
6.2147525984251963
20
-4.0113718110236221
11
6.2175465748031495
21
-4.0132387007874017
0
LINE
8
BLACK
6
CONTINUOUS
10
6.2175465748031495
20
-4.0132387007874017
11
6.2297261023622044
21
-4.0254182283464566
0
LINE
8
BLACK
6
CONTINUOUS
10
6.2297261023622044
20
-4.0254182283464566
11
6.2315929921259841
21
-4.0282122047244098
0
LINE
8
BLACK
6
CONTINUOUS
10
6.2315929921259841
20
-4.0282122047244098
11
6.2322485826771654
21
-4.0315079527559057
0
LINE
8
BLACK
6
CONTINUOUS
10
6.2322485826771654
20
-4.0315079527559057
11
6.2315929921259841
21
-4.0348037007874016
0
LINE
8
BLACK
6
CONTINUOUS
10
6.2315929921259841
20
-4.0348037007874016
11
6.2297261023622044
21
-4.0375977165354326
0
LINE
8
BLACK
6
CONTINUOUS
10
6.2297261023622044
20
-4.0375977165354326
11
6.2084989763779523
21
-4.0588248425196847
0
LINE
8
BLACK
6
CONTINUOUS
10
6.2084989763779523
20
-4.0588248425196847
11
6.2057049606299213
21
-4.0606917322834644
0
LINE
8
BLACK
6
CONTINUOUS
10
6.2057049606299213
20
-4.0606917322834644
11
6.2024092125984254
21
-4.0613473228346457
0
LINE
8
BLACK
6
CONTINUOUS
10
6.2024092125984254
20
-4.0613473228346457
11
6.1991134645669286
21
-4.0606917322834644
0
LINE
8
BLACK
6
CONTINUOUS
10
6.1991134645669286
20
-4.0606917322834644
11
6.1963194881889763
21
-4.0588248425196847
0
LINE
8
BLACK
6
CONTINUOUS
10
6.1963194881889763
20
-4.0588248425196847
11
6.1841399606299214
21
-4.0466453149606298
0
LINE
8
BLACK
6
CONTINUOUS
10
6.1841399606299214
20
-4.0466453149606298
11
6.1822730708661418
21
-4.0438513385826766
0
LINE
8
BLACK
6
CONTINUOUS
10
6.1822730708661418
20
-4.0438513385826766
11
6.1816174803149604
21
-4.0405555905511807
0
LINE
8
BLACK
6
CONTINUOUS
10
6.1816174803149604
20
-4.0405555905511807
11
6.1822730708661418
21
-4.0372598425196848
0
LINE
8
BLACK
6
CONTINUOUS
10
6.1822730708661418
20
-4.0372598425196848
11
6.1841399606299214
21
-4.0344658267716538
0
LINE
8
BLACK
6
CONTINUOUS
10
6.1841399606299214
20
-4.0344658267716538
11
6.2053670866141735
21
-4.0132387007874017
0
LINE
8
BLACK
6
CONTINUOUS
10
6.2053670866141735
20
-4.0132387007874017
11
6.2081611023622045
21
-4.0113718110236221
0
LINE
8
BLACK
6
CONTINUOUS
10
6.2081611023622045
20
-4.0113718110236221
11
6.2114568503937004
21
-4.0107162204724407
0
LINE
8
BLACK
6
CONTINUOUS
10
6.2114568503937004
20
-4.0107162204724407
11
6.2147525984251963
21
-4.0113718110236221
0
LINE
8
BLACK
6
CONTINUOUS
10
5.8450787401574802
20
-4.0553149606299215
11
5.7860236220472441
21
-4.0553149606299215
0
LINE
8
BLACK
6
CONTINUOUS
10
5.7860236220472441
20
-4.0553149606299215
11
5.7860236220472441
21
-4.031692913385827
0
LINE
8
BLACK
6
CONTINUOUS
10
5.7860236220472441
20
-4.031692913385827
11
5.8450787401574802
21
-4.031692913385827
0
LINE
8
BLACK
6
CONTINUOUS
10
5.8450787401574802
20
-4.031692913385827
11
5.8450787401574802
21
-4.0553149606299215
0
LINE
8
BLACK
6
CONTINUOUS
10
5.9749999999999996
20
-4.0553149606299215
11
5.9159448818897635
21
-4.0553149606299215
0
LINE
8
BLACK
6
CONTINUOUS
10
5.9159448818897635
20
-4.0553149606299215
11
5.9159448818897635
21
-4.031692913385827
0
LINE
8
BLACK
6
CONTINUOUS
10
5.9159448818897635
20
-4.031692913385827
11
5.9749999999999996
21
-4.031692913385827
0
LINE
8
BLACK
6
CONTINUOUS
10
5.9749999999999996
20
-4.031692913385827
11
5.9749999999999996
21
-4.0553149606299215
0
LINE
8
BLACK
6
CONTINUOUS
10
5.8450787401574802
20
-4.0053149606299208
11
5.7860236220472441
21
-4.0053149606299208
0
LINE
8
BLACK
6
CONTINUOUS
10
5.7860236220472441
20
-4.0053149606299208
11
5.7860236220472441
21
-3.9816929133858268
0
LINE
8
BLACK
6
CONTINUOUS
10
5.7860236220472441
20
-3.9816929133858268
11
5.8450787401574802
21
-3.9816929133858268
0
LINE
8
BLACK
6
CONTINUOUS
10
5.8450787401574802
20
-3.9816929133858268
11
5.8450787401574802
21
-4.0053149606299208
0
LINE
8
BLACK
6
CONTINUOUS
10
5.9749999999999996
20
-4.0053149606299208
11
5.9159448818897635
21
-4.0053149606299208
0
LINE
8
BLACK
6
CONTINUOUS
10
5.9159448818897635
20
-4.0053149606299208
11
5.9159448818897635
21
-3.9816929133858268
0
LINE
8
BLACK
6
CONTINUOUS
10
5.9159448818897635
20
-3.9816929133858268
11
5.9749999999999996
21
-3.9816929133858268
0
LINE
8
BLACK
6
CONTINUOUS
10
5.9749999999999996
20
-3.9816929133858268
11
5.9749999999999996
21
-4.0053149606299208
0
LINE
8
BLACK
6
CONTINUOUS
10
6.2460629921259843
20
-3.9702755905511808
11
6.1948818897637796
21
-3.9702755905511808
0
LINE
8
BLACK
6
CONTINUOUS
10
6.1948818897637796
20
-3.9702755905511808
11
6.1948818897637796
21
-3.9348425196850392
0
LINE
8
BLACK
6
CONTINUOUS
10
6.1948818897637796
20
-3.9348425196850392
11
6.2460629921259843
21
-3.9348425196850392
0
LINE
8
BLACK
6
CONTINUOUS
10
6.2460629921259843
20
-3.9348425196850392
11
6.2460629921259843
21
-3.9702755905511808
0
LINE
8
BLACK
6
CONTINUOUS
10
6.4520903543307089
20
-3.9610039370078738
11
6.3970903543307083
21
-3.9610039370078738
0
LINE
8
BLACK
6
CONTINUOUS
10
6.3970903543307083
20
-3.9610039370078738
11
6.3970903543307083
21
-3.9260039370078741
0
LINE
8
BLACK
6
CONTINUOUS
10
6.3970903543307083
20
-3.9260039370078741
11
6.4520903543307089
21
-3.9260039370078741
0
LINE
8
BLACK
6
CONTINUOUS
10
6.4520903543307089
20
-3.9260039370078741
11
6.4520903543307089
21
-3.9610039370078738
0
LINE
8
BLACK
6
CONTINUOUS
10
5.8450787401574802
20
-3.9553149606299214
11
5.7860236220472441
21
-3.9553149606299214
0
LINE
8
BLACK
6
CONTINUOUS
10
5.7860236220472441
20
-3.9553149606299214
11
5.7860236220472441
21
-3.9316929133858265
0
LINE
8
BLACK
6
CONTINUOUS
10
5.7860236220472441
20
-3.9316929133858265
11
5.8450787401574802
21
-3.9316929133858265
0
LINE
8
BLACK
6
CONTINUOUS
10
5.8450787401574802
20
-3.9316929133858265
11
5.8450787401574802
21
-3.9553149606299214
0
LINE
8
BLACK
6
CONTINUOUS
10
5.9749999999999996
20
-3.9553149606299214
11
5.9159448818897635
21
-3.9553149606299214
0
LINE
8
BLACK
6
CONTINUOUS
10
5.9159448818897635
20
-3.9553149606299214
11
5.9159448818897635
21
-3.9316929133858265
0
LINE
8
BLACK
6
CONTINUOUS
10
5.9159448818897635
20
-3.9316929133858265
11
5.9749999999999996
21
-3.9316929133858265
0
LINE
8
BLACK
6
CONTINUOUS
10
5.9749999999999996
20
-3.9316929133858265
11
5.9749999999999996
21
-3.9553149606299214
0
LINE
8
BLACK
6
CONTINUOUS
10
6.1879921259842519
20
-3.8757874015748031
11
6.2460629921259843
21
-3.8757874015748031
0
LINE
8
BLACK
6
CONTINUOUS
10
6.2460629921259843
20
-3.8757874015748031
11
6.2460629921259843
21
-3.9112204724409447
0
LINE
8
BLACK
6
CONTINUOUS
10
6.2460629921259843
20
-3.9112204724409447
11
6.1879921259842519
21
-3.9112204724409447
0
LINE
8
BLACK
6
CONTINUOUS
10
6.1879921259842519
20
-3.9112204724409447
11
6.1879921259842519
21
-3.9276181102362204
0
LINE
8
BLACK
6
CONTINUOUS
10
6.1879921259842519
20
-3.9276181102362204
11
6.0649606299212593
21
-3.9276181102362204
0
LINE
8
BLACK
6
CONTINUOUS
10
6.0649606299212593
20
-3.9276181102362204
11
6.0649606299212593
21
-3.8593897637795274
0
LINE
8
BLACK
6
CONTINUOUS
10
6.0649606299212593
20
-3.8593897637795274
11
6.1879921259842519
21
-3.8593897637795274
0
LINE
8
BLACK
6
CONTINUOUS
10
6.1879921259842519
20
-3.8593897637795274
11
6.1879921259842519
21
-3.8757874015748031
0
LINE
8
BLACK
6
CONTINUOUS
10
6.4520903543307089
20
-3.8860039370078741
11
6.3970903543307083
21
-3.8860039370078741
0
LINE
8
BLACK
6
CONTINUOUS
10
6.3970903543307083
20
-3.8860039370078741
11
6.3970903543307083
21
-3.8510039370078739
0
LINE
8
BLACK
6
CONTINUOUS
10
6.3970903543307083
20
-3.8510039370078739
11
6.4520903543307089
21
-3.8510039370078739
0
LINE
8
BLACK
6
CONTINUOUS
10
6.4520903543307089
20
-3.8510039370078739
11
6.4520903543307089
21
-3.8860039370078741
0
LINE
8
BLACK
6
CONTINUOUS
10
6.2460629921259843
20
-3.8521653543307086
11
6.1948818897637796
21
-3.8521653543307086
0
LINE
8
BLACK
6
CONTINUOUS
10
6.1948818897637796
20
-3.8521653543307086
11
6.1948818897637796
21
-3.8167322834645669
0
LINE
8
BLACK
6
CONTINUOUS
10
6.1948818897637796
20
-3.8167322834645669
11
6.2460629921259843
21
-3.8167322834645669
0
LINE
8
BLACK
6
CONTINUOUS
10
6.2460629921259843
20
-3.8167322834645669
11
6.2460629921259843
21
-3.8521653543307086
0
LINE
8
BLACK
6
CONTINUOUS
10
5.8748481102362202
20
-3.80694937007874
11
5.8359572440944882
21
-3.8458402362204724
0
LINE
8
BLACK
6
CONTINUOUS
10
5.8359572440944882
20
-3.8458402362204724
11
5.8112085039370074
21
-3.821091496062992
0
LINE
8
BLACK
6
CONTINUOUS
10
5.8112085039370074
20
-3.821091496062992
11
5.8500993700787403
21
-3.7822006299212596
0
LINE
8
BLACK
6
CONTINUOUS
10
5.8500993700787403
20
-3.7822006299212596
11
5.8748481102362202
21
-3.80694937007874
0
LINE
8
BLACK
6
CONTINUOUS
10
5.9467583464566927
20
-3.790537440944882
11
5.9495523622047246
21
-3.7924043307086612
0
LINE
8
BLACK
6
CONTINUOUS
10
5.9495523622047246
20
-3.7924043307086612
11
5.9514192519685034
21
-3.7951983464566927
0
LINE
8
BLACK
6
CONTINUOUS
10
5.9514192519685034
20
-3.7951983464566927
11
5.952074803149606
21
-3.7984940944881891
0
LINE
8
BLACK
6
CONTINUOUS
10
5.952074803149606
20
-3.7984940944881891
11
5.952074803149606
21
-3.828513779527559
0
LINE
8
BLACK
6
CONTINUOUS
10
5.952074803149606
20
-3.828513779527559
11
5.9514192519685034
21
-3.8318095275590549
0
LINE
8
BLACK
6
CONTINUOUS
10
5.9514192519685034
20
-3.8318095275590549
11
5.9495523622047246
21
-3.8346035433070864
0
LINE
8
BLACK
6
CONTINUOUS
10
5.9495523622047246
20
-3.8346035433070864
11
5.9467583464566927
21
-3.8364704330708661
0
LINE
8
BLACK
6
CONTINUOUS
10
5.9467583464566927
20
-3.8364704330708661
11
5.9434625984251968
21
-3.8371259842519683
0
LINE
8
BLACK
6
CONTINUOUS
10
5.9434625984251968
20
-3.8371259842519683
11
5.9262381889763782
21
-3.8371259842519683
0
LINE
8
BLACK
6
CONTINUOUS
10
5.9262381889763782
20
-3.8371259842519683
11
5.9229424409448814
21
-3.8364704330708661
0
LINE
8
BLACK
6
CONTINUOUS
10
5.9229424409448814
20
-3.8364704330708661
11
5.9201484251968504
21
-3.8346035433070864
0
LINE
8
BLACK
6
CONTINUOUS
10
5.9201484251968504
20
-3.8346035433070864
11
5.9182815354330707
21
-3.8318095275590549
0
LINE
8
BLACK
6
CONTINUOUS
10
5.9182815354330707
20
-3.8318095275590549
11
5.9176259842519681
21
-3.828513779527559
0
LINE
8
BLACK
6
CONTINUOUS
10
5.9176259842519681
20
-3.828513779527559
11
5.9176259842519681
21
-3.7984940944881891
0
LINE
8
BLACK
6
CONTINUOUS
10
5.9176259842519681
20
-3.7984940944881891
11
5.9182815354330707
21
-3.7951983464566927
0
LINE
8
BLACK
6
CONTINUOUS
10
5.9182815354330707
20
-3.7951983464566927
11
5.9201484251968504
21
-3.7924043307086612
0
LINE
8
BLACK
6
CONTINUOUS
10
5.9201484251968504
20
-3.7924043307086612
11
5.9229424409448814
21
-3.790537440944882
0
LINE
8
BLACK
6
CONTINUOUS
10
5.9229424409448814
20
-3.790537440944882
11
5.9262381889763782
21
-3.7898818897637794
0
LINE
8
BLACK
6
CONTINUOUS
10
5.9262381889763782
20
-3.7898818897637794
11
5.9434625984251968
21
-3.7898818897637794
0
LINE
8
BLACK
6
CONTINUOUS
10
5.9434625984251968
20
-3.7898818897637794
11
5.9467583464566927
21
-3.790537440944882
0
LINE
8
BLACK
6
CONTINUOUS
10
6.0304197637795278
20
-3.790537440944882
11
6.0332137795275589
21
-3.7924043307086612
0
LINE
8
BLACK
6
CONTINUOUS
10
6.0332137795275589
20
-3.7924043307086612
11
6.0350806692913386
21
-3.7951983464566927
0
LINE
8
BLACK
6
CONTINUOUS
10
6.0350806692913386
20
-3.7951983464566927
11
6.0357362204724412
21
-3.7984940944881891
0
LINE
8
BLACK
6
CONTINUOUS
10
6.0357362204724412
20
-3.7984940944881891
11
6.0357362204724412
21
-3.828513779527559
0
LINE
8
BLACK
6
CONTINUOUS
10
6.0357362204724412
20
-3.828513779527559
11
6.0350806692913386
21
-3.8318095275590549
0
LINE
8
BLACK
6
CONTINUOUS
10
6.0350806692913386
20
-3.8318095275590549
11
6.0332137795275589
21
-3.8346035433070864
0
LINE
8
BLACK
6
CONTINUOUS
10
6.0332137795275589
20
-3.8346035433070864
11
6.0304197637795278
21
-3.8364704330708661
0
LINE
8
BLACK
6
CONTINUOUS
10
6.0304197637795278
20
-3.8364704330708661
11
6.027124015748031
21
-3.8371259842519683
0
LINE
8
BLACK
6
CONTINUOUS
10
6.027124015748031
20
-3.8371259842519683
11
6.0098996062992125
21
-3.8371259842519683
0
LINE
8
BLACK
6
CONTINUOUS
10
6.0098996062992125
20
-3.8371259842519683
11
6.0066038582677166
21
-3.8364704330708661
0
LINE
8
BLACK
6
CONTINUOUS
10
6.0066038582677166
20
-3.8364704330708661
11
6.0038098425196846
21
-3.8346035433070864
0
LINE
8
BLACK
6
CONTINUOUS
10
6.0038098425196846
20
-3.8346035433070864
11
6.0019429527559049
21
-3.8318095275590549
0
LINE
8
BLACK
6
CONTINUOUS
10
6.0019429527559049
20
-3.8318095275590549
11
6.0012874015748032
21
-3.828513779527559
0
LINE
8
BLACK
6
CONTINUOUS
10
6.0012874015748032
20
-3.828513779527559
11
6.0012874015748032
21
-3.7984940944881891
0
LINE
8
BLACK
6
CONTINUOUS
10
6.0012874015748032
20
-3.7984940944881891
11
6.0019429527559049
21
-3.7951983464566927
0
LINE
8
BLACK
6
CONTINUOUS
10
6.0019429527559049
20
-3.7951983464566927
11
6.0038098425196846
21
-3.7924043307086612
0
LINE
8
BLACK
6
CONTINUOUS
10
6.0038098425196846
20
-3.7924043307086612
11
6.0066038582677166
21
-3.790537440944882
0
LINE
8
BLACK
6
CONTINUOUS
10
6.0066038582677166
20
-3.790537440944882
11
6.0098996062992125
21
-3.7898818897637794
0
LINE
8
BLACK
6
CONTINUOUS
10
6.0098996062992125
20
-3.7898818897637794
11
6.027124015748031
21
-3.7898818897637794
0
LINE
8
BLACK
6
CONTINUOUS
10
6.027124015748031
20
-3.7898818897637794
11
6.0304197637795278
21
-3.790537440944882
0
LINE
8
BLACK
6
CONTINUOUS
10
6.3687167322834641
20
-3.8354770472440944
11
6.3137167322834644
21
-3.8354770472440944
0
LINE
8
BLACK
6
CONTINUOUS
10
6.3137167322834644
20
-3.8354770472440944
11
6.3137167322834644
21
-3.8004770472440943
0
LINE
8
BLACK
6
CONTINUOUS
10
6.3137167322834644
20
-3.8004770472440943
11
6.3687167322834641
21
-3.8004770472440943
0
LINE
8
BLACK
6
CONTINUOUS
10
6.3687167322834641
20
-3.8004770472440943
11
6.3687167322834641
21
-3.8354770472440944
0
LINE
8
BLACK
6
CONTINUOUS
10
5.8218151181102362
20
-3.753916377952756
11
5.7829242519685042
21
-3.792807244094488
0
LINE
8
BLACK
6
CONTINUOUS
10
5.7829242519685042
20
-3.792807244094488
11
5.7581755118110234
21
-3.7680585039370076
0
LINE
8
BLACK
6
CONTINUOUS
10
5.7581755118110234
20
-3.7680585039370076
11
5.7970663779527554
21
-3.7291676377952756
0
LINE
8
BLACK
6
CONTINUOUS
10
5.7970663779527554
20
-3.7291676377952756
11
5.8218151181102362
21
-3.753916377952756
0
LINE
8
BLACK
6
CONTINUOUS
10
6.3687167322834641
20
-3.7604770472440943
11
6.3137167322834644
21
-3.7604770472440943
0
LINE
8
BLACK
6
CONTINUOUS
10
6.3137167322834644
20
-3.7604770472440943
11
6.3137167322834644
21
-3.7254770472440946
0
LINE
8
BLACK
6
CONTINUOUS
10
6.3137167322834644
20
-3.7254770472440946
11
6.3687167322834641
21
-3.7254770472440946
0
LINE
8
BLACK
6
CONTINUOUS
10
6.3687167322834641
20
-3.7254770472440946
11
6.3687167322834641
21
-3.7604770472440943
0
LINE
8
BLACK
6
CONTINUOUS
10
5.9830118110236219
20
-3.7360039370078741
11
5.9280118110236222
21
-3.7360039370078741
0
LINE
8
BLACK
6
CONTINUOUS
10
5.9280118110236222
20
-3.7360039370078741
11
5.9280118110236222
21
-3.701003937007874
0
LINE
8
BLACK
6
CONTINUOUS
10
5.9280118110236222
20
-3.701003937007874
11
5.9830118110236219
21
-3.701003937007874
0
LINE
8
BLACK
6
CONTINUOUS
10
5.9830118110236219
20
-3.701003937007874
11
5.9830118110236219
21
-3.7360039370078741
0
LINE
8
BLACK
6
CONTINUOUS
10
6.2080118110236215
20
-3.7360039370078741
11
6.1530118110236218
21
-3.7360039370078741
0
LINE
8
BLACK
6
CONTINUOUS
10
6.1530118110236218
20
-3.7360039370078741
11
6.1530118110236218
21
-3.701003937007874
0
LINE
8
BLACK
6
CONTINUOUS
10
6.1530118110236218
20
-3.701003937007874
11
6.2080118110236215
21
-3.701003937007874
0
LINE
8
BLACK
6
CONTINUOUS
10
6.2080118110236215
20
-3.701003937007874
11
6.2080118110236215
21
-3.7360039370078741
0
LINE
8
BLACK
6
CONTINUOUS
10
5.8059055118110239
20
-3.6769685039370077
11
5.7803149606299211
21
-3.6769685039370077
0
LINE
8
BLACK
6
CONTINUOUS
10
5.7803149606299211
20
-3.6769685039370077
11
5.7803149606299211
21
-3.6612204724409447
0
LINE
8
BLACK
6
CONTINUOUS
10
5.7803149606299211
20
-3.6612204724409447
11
5.8059055118110239
21
-3.6612204724409447
0
LINE
8
BLACK
6
CONTINUOUS
10
5.8059055118110239
20
-3.6612204724409447
11
5.8059055118110239
21
-3.6769685039370077
0
LINE
8
BLACK
6
CONTINUOUS
10
5.880708661417323
20
-3.6769685039370077
11
5.8551181102362202
21
-3.6769685039370077
0
LINE
8
BLACK
6
CONTINUOUS
10
5.8551181102362202
20
-3.6769685039370077
11
5.8551181102362202
21
-3.6612204724409447
0
LINE
8
BLACK
6
CONTINUOUS
10
5.8551181102362202
20
-3.6612204724409447
11
5.880708661417323
21
-3.6612204724409447
0
LINE
8
BLACK
6
CONTINUOUS
10
5.880708661417323
20
-3.6612204724409447
11
5.880708661417323
21
-3.6769685039370077
0
LINE
8
BLACK
6
CONTINUOUS
10
6.2809055118110235
20
-3.6769685039370077
11
6.2553149606299208
21
-3.6769685039370077
0
LINE
8
BLACK
6
CONTINUOUS
10
6.2553149606299208
20
-3.6769685039370077
11
6.2553149606299208
21
-3.6612204724409447
0
LINE
8
BLACK
6
CONTINUOUS
10
6.2553149606299208
20
-3.6612204724409447
11
6.2809055118110235
21
-3.6612204724409447
0
LINE
8
BLACK
6
CONTINUOUS
10
6.2809055118110235
20
-3.6612204724409447
11
6.2809055118110235
21
-3.6769685039370077
0
LINE
8
BLACK
6
CONTINUOUS
10
6.3557086614173226
20
-3.6769685039370077
11
6.3301181102362207
21
-3.6769685039370077
0
LINE
8
BLACK
6
CONTINUOUS
10
6.3301181102362207
20
-3.6769685039370077
11
6.3301181102362207
21
-3.6612204724409447
0
LINE
8
BLACK
6
CONTINUOUS
10
6.3301181102362207
20
-3.6612204724409447
11
6.3557086614173226
21
-3.6612204724409447
0
LINE
8
BLACK
6
CONTINUOUS
10
6.3557086614173226
20
-3.6612204724409447
11
6.3557086614173226
21
-3.6769685039370077
0
LINE
8
BLACK
6
CONTINUOUS
10
6.0480118110236223
20
-3.6710039370078738
11
6.0130118110236221
21
-3.6710039370078738
0
LINE
8
BLACK
6
CONTINUOUS
10
6.0130118110236221
20
-3.6710039370078738
11
6.0130118110236221
21
-3.616003937007874
0
LINE
8
BLACK
6
CONTINUOUS
10
6.0130118110236221
20
-3.616003937007874
11
6.0480118110236223
21
-3.616003937007874
0
LINE
8
BLACK
6
CONTINUOUS
10
6.0480118110236223
20
-3.616003937007874
11
6.0480118110236223
21
-3.6710039370078738
0
LINE
8
BLACK
6
CONTINUOUS
10
6.1230118110236216
20
-3.6710039370078738
11
6.0880118110236223
21
-3.6710039370078738
0
LINE
8
BLACK
6
CONTINUOUS
10
6.0880118110236223
20
-3.6710039370078738
11
6.0880118110236223
21
-3.616003937007874
0
LINE
8
BLACK
6
CONTINUOUS
10
6.0880118110236223
20
-3.616003937007874
11
6.1230118110236216
21
-3.616003937007874
0
LINE
8
BLACK
6
CONTINUOUS
10
6.1230118110236216
20
-3.616003937007874
11
6.1230118110236216
21
-3.6710039370078738
0
LINE
8
BLACK
6
CONTINUOUS
10
5.9830118110236219
20
-3.661003937007874
11
5.9280118110236222
21
-3.661003937007874
0
LINE
8
BLACK
6
CONTINUOUS
10
5.9280118110236222
20
-3.661003937007874
11
5.9280118110236222
21
-3.6260039370078738
0
LINE
8
BLACK
6
CONTINUOUS
10
5.9280118110236222
20
-3.6260039370078738
11
5.9830118110236219
21
-3.6260039370078738
0
LINE
8
BLACK
6
CONTINUOUS
10
5.9830118110236219
20
-3.6260039370078738
11
5.9830118110236219
21
-3.661003937007874
0
LINE
8
BLACK
6
CONTINUOUS
10
6.2080118110236215
20
-3.661003937007874
11
6.1530118110236218
21
-3.661003937007874
0
LINE
8
BLACK
6
CONTINUOUS
10
6.1530118110236218
20
-3.661003937007874
11
6.1530118110236218
21
-3.6260039370078738
0
LINE
8
BLACK
6
CONTINUOUS
10
6.1530118110236218
20
-3.6260039370078738
11
6.2080118110236215
21
-3.6260039370078738
0
LINE
8
BLACK
6
CONTINUOUS
10
6.2080118110236215
20
-3.6260039370078738
11
6.2080118110236215
21
-3.661003937007874
0
LINE
8
BLACK
6
CONTINUOUS
10
5.8059055118110239
20
-3.6513779527559054
11
5.7803149606299211
21
-3.6513779527559054
0
LINE
8
BLACK
6
CONTINUOUS
10
5.7803149606299211
20
-3.6513779527559054
11
5.7803149606299211
21
-3.6356299212598424
0
LINE
8
BLACK
6
CONTINUOUS
10
5.7803149606299211
20
-3.6356299212598424
11
5.8059055118110239
21
-3.6356299212598424
0
LINE
8
BLACK
6
CONTINUOUS
10
5.8059055118110239
20
-3.6356299212598424
11
5.8059055118110239
21
-3.6513779527559054
0
LINE
8
BLACK
6
CONTINUOUS
10
5.880708661417323
20
-3.6513779527559054
11
5.8551181102362202
21
-3.6513779527559054
0
LINE
8
BLACK
6
CONTINUOUS
10
5.8551181102362202
20
-3.6513779527559054
11
5.8551181102362202
21
-3.6356299212598424
0
LINE
8
BLACK
6
CONTINUOUS
10
5.8551181102362202
20
-3.6356299212598424
11
5.880708661417323
21
-3.6356299212598424
0
LINE
8
BLACK
6
CONTINUOUS
10
5.880708661417323
20
-3.6356299212598424
11
5.880708661417323
21
-3.6513779527559054
0
LINE
8
BLACK
6
CONTINUOUS
10
6.2809055118110235
20
-3.6513779527559054
11
6.2553149606299208
21
-3.6513779527559054
0
LINE
8
BLACK
6
CONTINUOUS
10
6.2553149606299208
20
-3.6513779527559054
11
6.2553149606299208
21
-3.6356299212598424
0
LINE
8
BLACK
6
CONTINUOUS
10
6.2553149606299208
20
-3.6356299212598424
11
6.2809055118110235
21
-3.6356299212598424
0
LINE
8
BLACK
6
CONTINUOUS
10
6.2809055118110235
20
-3.6356299212598424
11
6.2809055118110235
21
-3.6513779527559054
0
LINE
8
BLACK
6
CONTINUOUS
10
6.3557086614173226
20
-3.6513779527559054
11
6.3301181102362207
21
-3.6513779527559054
0
LINE
8
BLACK
6
CONTINUOUS
10
6.3301181102362207
20
-3.6513779527559054
11
6.3301181102362207
21
-3.6356299212598424
0
LINE
8
BLACK
6
CONTINUOUS
10
6.3301181102362207
20
-3.6356299212598424
11
6.3557086614173226
21
-3.6356299212598424
0
LINE
8
BLACK
6
CONTINUOUS
10
6.3557086614173226
20
-3.6356299212598424
11
6.3557086614173226
21
-3.6513779527559054
0
LINE
8
BLACK
6
CONTINUOUS
10
5.8059055118110239
20
-3.6257874015748031
11
5.7803149606299211
21
-3.6257874015748031
0
LINE
8
BLACK
6
CONTINUOUS
10
5.7803149606299211
20
-3.6257874015748031
11
5.7803149606299211
21
-3.6100393700787401
0
LINE
8
BLACK
6
CONTINUOUS
10
5.7803149606299211
20
-3.6100393700787401
11
5.8059055118110239
21
-3.6100393700787401
0
LINE
8
BLACK
6
CONTINUOUS
10
5.8059055118110239
20
-3.6100393700787401
11
5.8059055118110239
21
-3.6257874015748031
0
LINE
8
BLACK
6
CONTINUOUS
10
5.880708661417323
20
-3.6257874015748031
11
5.8551181102362202
21
-3.6257874015748031
0
LINE
8
BLACK
6
CONTINUOUS
10
5.8551181102362202
20
-3.6257874015748031
11
5.8551181102362202
21
-3.6100393700787401
0
LINE
8
BLACK
6
CONTINUOUS
10
5.8551181102362202
20
-3.6100393700787401
11
5.880708661417323
21
-3.6100393700787401
0
LINE
8
BLACK
6
CONTINUOUS
10
5.880708661417323
20
-3.6100393700787401
11
5.880708661417323
21
-3.6257874015748031
0
LINE
8
BLACK
6
CONTINUOUS
10
6.2809055118110235
20
-3.6257874015748031
11
6.2553149606299208
21
-3.6257874015748031
0
LINE
8
BLACK
6
CONTINUOUS
10
6.2553149606299208
20
-3.6257874015748031
11
6.2553149606299208
21
-3.6100393700787401
0
LINE
8
BLACK
6
CONTINUOUS
10
6.2553149606299208
20
-3.6100393700787401
11
6.2809055118110235
21
-3.6100393700787401
0
LINE
8
BLACK
6
CONTINUOUS
10
6.2809055118110235
20
-3.6100393700787401
11
6.2809055118110235
21
-3.6257874015748031
0
LINE
8
BLACK
6
CONTINUOUS
10
6.3557086614173226
20
-3.6257874015748031
11
6.3301181102362207
21
-3.6257874015748031
0
LINE
8
BLACK
6
CONTINUOUS
10
6.3301181102362207
20
-3.6257874015748031
11
6.3301181102362207
21
-3.6100393700787401
0
LINE
8
BLACK
6
CONTINUOUS
10
6.3301181102362207
20
-3.6100393700787401
11
6.3557086614173226
21
-3.6100393700787401
0
LINE
8
BLACK
6
CONTINUOUS
10
6.3557086614173226
20
-3.6100393700787401
11
6.3557086614173226
21
-3.6257874015748031
0
LINE
8
BLACK
6
CONTINUOUS
10
6.368247716535433
20
-3.5637924803149605
11
6.3132477165354333
21
-3.5637924803149605
0
LINE
8
BLACK
6
CONTINUOUS
10
6.3132477165354333
20
-3.5637924803149605
11
6.3132477165354333
21
-3.5287924803149604
0
LINE
8
BLACK
6
CONTINUOUS
10
6.3132477165354333
20
-3.5287924803149604
11
6.368247716535433
21
-3.5287924803149604
0
LINE
8
BLACK
6
CONTINUOUS
10
6.368247716535433
20
-3.5287924803149604
11
6.368247716535433
21
-3.5637924803149605
0
LINE
8
BLACK
6
CONTINUOUS
10
6.368247716535433
20
-3.4887924803149604
11
6.3132477165354333
21
-3.4887924803149604
0
LINE
8
BLACK
6
CONTINUOUS
10
6.3132477165354333
20
-3.4887924803149604
11
6.3132477165354333
21
-3.4537924803149607
0
LINE
8
BLACK
6
CONTINUOUS
10
6.3132477165354333
20
-3.4537924803149607
11
6.368247716535433
21
-3.4537924803149607
0
LINE
8
BLACK
6
CONTINUOUS
10
6.368247716535433
20
-3.4537924803149607
11
6.368247716535433
21
-3.4887924803149604
0
LINE
8
BLACK
6
CONTINUOUS
10
6.1539763779527554
20
-3.4390944881889762
11
6.0870472440944878
21
-3.4390944881889762
0
LINE
8
BLACK
6
CONTINUOUS
10
6.0870472440944878
20
-3.4390944881889762
11
6.0870472440944878
21
-3.3879133858267716
0
LINE
8
BLACK
6
CONTINUOUS
10
6.0870472440944878
20
-3.3879133858267716
11
6.1539763779527554
21
-3.3879133858267716
0
LINE
8
BLACK
6
CONTINUOUS
10
6.1539763779527554
20
-3.3879133858267716
11
6.1539763779527554
21
-3.4390944881889762
0
LINE
8
BLACK
6
CONTINUOUS
10
6.2882401181102363
20
-3.4384600393700788
11
6.2213109842519687
21
-3.4384600393700788
0
LINE
8
BLACK
6
CONTINUOUS
10
6.2213109842519687
20
-3.4384600393700788
11
6.2213109842519687
21
-3.3872789370078737
0
LINE
8
BLACK
6
CONTINUOUS
10
6.2213109842519687
20
-3.3872789370078737
11
6.2882401181102363
21
-3.3872789370078737
0
LINE
8
BLACK
6
CONTINUOUS
10
6.2882401181102363
20
-3.3872789370078737
11
6.2882401181102363
21
-3.4384600393700788
0
LINE
8
BLACK
6
CONTINUOUS
10
6.4515802755905511
20
-3.4360039370078739
11
6.3965802755905514
21
-3.4360039370078739
0
LINE
8
BLACK
6
CONTINUOUS
10
6.3965802755905514
20
-3.4360039370078739
11
6.3965802755905514
21
-3.4010039370078737
0
LINE
8
BLACK
6
CONTINUOUS
10
6.3965802755905514
20
-3.4010039370078737
11
6.4515802755905511
21
-3.4010039370078737
0
LINE
8
BLACK
6
CONTINUOUS
10
6.4515802755905511
20
-3.4010039370078737
11
6.4515802755905511
21
-3.4360039370078739
0
LINE
8
BLACK
6
CONTINUOUS
10
6.4515802755905511
20
-3.3610039370078741
11
6.3965802755905514
21
-3.3610039370078741
0
LINE
8
BLACK
6
CONTINUOUS
10
6.3965802755905514
20
-3.3610039370078741
11
6.3965802755905514
21
-3.326003937007874
0
LINE
8
BLACK
6
CONTINUOUS
10
6.3965802755905514
20
-3.326003937007874
11
6.4515802755905511
21
-3.326003937007874
0
LINE
8
BLACK
6
CONTINUOUS
10
6.4515802755905511
20
-3.326003937007874
11
6.4515802755905511
21
-3.3610039370078741
0
LINE
8
BLACK
6
CONTINUOUS
10
6.1539763779527554
20
-3.3012992125984253
11
6.0870472440944878
21
-3.3012992125984253
0
LINE
8
BLACK
6
CONTINUOUS
10
6.0870472440944878
20
-3.3012992125984253
11
6.0870472440944878
21
-3.2501181102362202
0
LINE
8
BLACK
6
CONTINUOUS
10
6.0870472440944878
20
-3.2501181102362202
11
6.1539763779527554
21
-3.2501181102362202
0
LINE
8
BLACK
6
CONTINUOUS
10
6.1539763779527554
20
-3.2501181102362202
11
6.1539763779527554
21
-3.3012992125984253
0
LINE
8
BLACK
6
CONTINUOUS
10
6.2882401181102363
20
-3.3006647637795274
11
6.2213109842519687
21
-3.3006647637795274
0
LINE
8
BLACK
6
CONTINUOUS
10
6.2213109842519687
20
-3.3006647637795274
11
6.2213109842519687
21
-3.2494836614173228
0
LINE
8
BLACK
6
CONTINUOUS
10
6.2213109842519687
20
-3.2494836614173228
11
6.2882401181102363
21
-3.2494836614173228
0
LINE
8
BLACK
6
CONTINUOUS
10
6.2882401181102363
20
-3.2494836614173228
11
6.2882401181102363
21
-3.3006647637795274
0
LINE
8
BLACK
6
CONTINUOUS
10
5.8154842519685035
20
-3.2630186220472441
11
5.71705905511811
21
-3.2630186220472441
0
LINE
8
BLACK
6
CONTINUOUS
10
5.71705905511811
20
-3.2630186220472441
11
5.71705905511811
21
-3.1921524803149603
0
LINE
8
BLACK
6
CONTINUOUS
10
5.71705905511811
20
-3.1921524803149603
11
5.8154842519685035
21
-3.1921524803149603
0
LINE
8
BLACK
6
CONTINUOUS
10
5.8154842519685035
20
-3.1921524803149603
11
5.8154842519685035
21
-3.2630186220472441
0
LINE
8
BLACK
6
CONTINUOUS
10
5.972964566929134
20
-3.2630186220472441
11
5.8745393700787396
21
-3.2630186220472441
0
LINE
8
BLACK
6
CONTINUOUS
10
5.8745393700787396
20
-3.2630186220472441
11
5.8745393700787396
21
-3.1921524803149603
0
LINE
8
BLACK
6
CONTINUOUS
10
5.8745393700787396
20
-3.1921524803149603
11
5.972964566929134
21
-3.1921524803149603
0
LINE
8
BLACK
6
CONTINUOUS
10
5.972964566929134
20
-3.1921524803149603
11
5.972964566929134
21
-3.2630186220472441
0
LINE
8
BLACK
6
CONTINUOUS
10
6.0830118110236215
20
-3.0110039370078741
11
6.0280118110236218
21
-3.0110039370078741
0
LINE
8
BLACK
6
CONTINUOUS
10
6.0280118110236218
20
-3.0110039370078741
11
6.0280118110236218
21
-2.9760039370078739
0
LINE
8
BLACK
6
CONTINUOUS
10
6.0280118110236218
20
-2.9760039370078739
11
6.0830118110236215
21
-2.9760039370078739
0
LINE
8
BLACK
6
CONTINUOUS
10
6.0830118110236215
20
-2.9760039370078739
11
6.0830118110236215
21
-3.0110039370078741
0
LINE
8
BLACK
6
CONTINUOUS
10
6.1830118110236221
20
-3.0110039370078741
11
6.1280118110236215
21
-3.0110039370078741
0
LINE
8
BLACK
6
CONTINUOUS
10
6.1280118110236215
20
-3.0110039370078741
11
6.1280118110236215
21
-2.9760039370078739
0
LINE
8
BLACK
6
CONTINUOUS
10
6.1280118110236215
20
-2.9760039370078739
11
6.1830118110236221
21
-2.9760039370078739
0
LINE
8
BLACK
6
CONTINUOUS
10
6.1830118110236221
20
-2.9760039370078739
11
6.1830118110236221
21
-3.0110039370078741
0
LINE
8
BLACK
6
CONTINUOUS
10
6.2830118110236217
20
-3.0110039370078741
11
6.228011811023622
21
-3.0110039370078741
0
LINE
8
BLACK
6
CONTINUOUS
10
6.228011811023622
20
-3.0110039370078741
11
6.228011811023622
21
-2.9760039370078739
0
LINE
8
BLACK
6
CONTINUOUS
10
6.228011811023622
20
-2.9760039370078739
11
6.2830118110236217
21
-2.9760039370078739
0
LINE
8
BLACK
6
CONTINUOUS
10
6.2830118110236217
20
-2.9760039370078739
11
6.2830118110236217
21
-3.0110039370078741
0
LINE
8
BLACK
6
CONTINUOUS
10
6.3830118110236223
20
-3.0110039370078741
11
6.3280118110236216
21
-3.0110039370078741
0
LINE
8
BLACK
6
CONTINUOUS
10
6.3280118110236216
20
-3.0110039370078741
11
6.3280118110236216
21
-2.9760039370078739
0
LINE
8
BLACK
6
CONTINUOUS
10
6.3280118110236216
20
-2.9760039370078739
11
6.3830118110236223
21
-2.9760039370078739
0
LINE
8
BLACK
6
CONTINUOUS
10
6.3830118110236223
20
-2.9760039370078739
11
6.3830118110236223
21
-3.0110039370078741
0
LINE
8
BLACK
6
CONTINUOUS
10
6.0830118110236215
20
-2.9360039370078739
11
6.0280118110236218
21
-2.9360039370078739
0
LINE
8
BLACK
6
CONTINUOUS
10
6.0280118110236218
20
-2.9360039370078739
11
6.0280118110236218
21
-2.9010039370078737
0
LINE
8
BLACK
6
CONTINUOUS
10
6.0280118110236218
20
-2.9010039370078737
11
6.0830118110236215
21
-2.9010039370078737
0
LINE
8
BLACK
6
CONTINUOUS
10
6.0830118110236215
20
-2.9010039370078737
11
6.0830118110236215
21
-2.9360039370078739
0
LINE
8
BLACK
6
CONTINUOUS
10
6.1830118110236221
20
-2.9360039370078739
11
6.1280118110236215
21
-2.9360039370078739
0
LINE
8
BLACK
6
CONTINUOUS
10
6.1280118110236215
20
-2.9360039370078739
11
6.1280118110236215
21
-2.9010039370078737
0
LINE
8
BLACK
6
CONTINUOUS
10
6.1280118110236215
20
-2.9010039370078737
11
6.1830118110236221
21
-2.9010039370078737
0
LINE
8
BLACK
6
CONTINUOUS
10
6.1830118110236221
20
-2.9010039370078737
11
6.1830118110236221
21
-2.9360039370078739
0
LINE
8
BLACK
6
CONTINUOUS
10
6.2830118110236217
20
-2.9360039370078739
11
6.228011811023622
21
-2.9360039370078739
0
LINE
8
BLACK
6
CONTINUOUS
10
6.228011811023622
20
-2.9360039370078739
11
6.228011811023622
21
-2.9010039370078737
0
LINE
8
BLACK
6
CONTINUOUS
10
6.228011811023622
20
-2.9010039370078737
11
6.2830118110236217
21
-2.9010039370078737
0
LINE
8
BLACK
6
CONTINUOUS
10
6.2830118110236217
20
-2.9010039370078737
11
6.2830118110236217
21
-2.9360039370078739
0
LINE
8
BLACK
6
CONTINUOUS
10
6.3830118110236223
20
-2.9360039370078739
11
6.3280118110236216
21
-2.9360039370078739
0
LINE
8
BLACK
6
CONTINUOUS
10
6.3280118110236216
20
-2.9360039370078739
11
6.3280118110236216
21
-2.9010039370078737
0
LINE
8
BLACK
6
CONTINUOUS
10
6.3280118110236216
20
-2.9010039370078737
11
6.3830118110236223
21
-2.9010039370078737
0
LINE
8
BLACK
6
CONTINUOUS
10
6.3830118110236223
20
-2.9010039370078737
11
6.3830118110236223
21
-2.9360039370078739
  0
ENDSEC
  0
EOF
