  0
SECTION
  2
HEADER
  9
$ANGBASE
  50
0.0
  9
$ANGDIR
  70
1
  9
$MEASUREMENT
  70
0
  0
ENDSEC
  0
SECTION
  2
TABLES
  0
TABLE
  2
LTYPE
  70
4
  0
LTYPE
  5
40F
  2
CONTINUOUS
  70
0
  3
Solid line
  72
65
  73
0
  40
0.0
  0
LTYPE
  5
410
  2
DASHDOT
 70
0
  3
Dash Dot ____ _ ____ _
 72
65
 73
4
 40
2.0
 49
1.25
 49
-0.25
 49
0.25
 49
-0.25
  0
LTYPE
  5
411
  2
DASHED
 70
0
  3
Dashed __ __ __ __ __
 72
65
 73
2
 40
0.75
 49
0.5
 49
-0.25
  0
LTYPE
  5
43B
  2
DOTTED
 70
0
  3
Dotted .  .  .  .
 72
65
 73
2
 40
0.2
 49
0.0
 49
-0.2
  0
ENDTAB
  0
TABLE
  2
STYLE
  70
4
  0
STYLE
  2
KICAD
  70
0
  40
0
  41
1
  42
1
  50
0
  71
0
  3
isocp.shx
  0
STYLE
  2
KICADB
  70
0
  40
0
  41
1
  42
1
  50
0
  71
0
  3
isocp.shx
  0
STYLE
  2
KICADI
  70
0
  40
0
  41
1
  42
1
  50
15
  71
0
  3
isocp.shx
  0
STYLE
  2
KICADBI
  70
0
  40
0
  41
1
  42
1
  50
15
  71
0
  3
isocp.shx
  0
ENDTAB
  0
TABLE
  2
LAYER
  70
1
  0
LAYER
  2
BLACK
  70
0
  62
7
  6
CONTINUOUS
  0
ENDTAB
  0
ENDSEC
  0
SECTION
  2
ENTITIES
0
LINE
8
BLACK
6
CONTINUOUS
10
5.5010214566929134
20
-4.1271880708661417
11
5.5143862204724412
21
-4.1303555511811023
0
LINE
8
BLACK
6
CONTINUOUS
10
5.5143862204724412
20
-4.1303555511811023
11
5.5272928740157479
21
-4.1350532283464565
0
LINE
8
BLACK
6
CONTINUOUS
10
5.5272928740157479
20
-4.1350532283464565
11
5.5395669291338585
21
-4.1412174803149604
0
LINE
8
BLACK
6
CONTINUOUS
10
5.5395669291338585
20
-4.1412174803149604
11
5.5510423622047247
21
-4.1487649606299213
0
LINE
8
BLACK
6
CONTINUOUS
10
5.5510423622047247
20
-4.1487649606299213
11
5.5615639763779523
21
-4.157593661417323
0
LINE
8
BLACK
6
CONTINUOUS
10
5.5615639763779523
20
-4.157593661417323
11
5.5709894881889763
21
-4.1675841338582673
0
LINE
8
BLACK
6
CONTINUOUS
10
5.5709894881889763
20
-4.1675841338582673
11
5.5791914566929135
21
-4.1786012992125983
0
LINE
8
BLACK
6
CONTINUOUS
10
5.5791914566929135
20
-4.1786012992125983
11
5.5860589763779522
21
-4.1904961417322832
0
LINE
8
BLACK
6
CONTINUOUS
10
5.5860589763779522
20
-4.1904961417322832
11
5.5914991338582674
21
-4.2031078740157479
0
LINE
8
BLACK
6
CONTINUOUS
10
5.5914991338582674
20
-4.2031078740157479
11
5.5954383858267711
21
-4.2162658267716537
0
LINE
8
BLACK
6
CONTINUOUS
10
5.5954383858267711
20
-4.2162658267716537
11
5.5978234251968502
21
-4.2297921653543309
0
LINE
8
BLACK
6
CONTINUOUS
10
5.5978234251968502
20
-4.2297921653543309
11
5.5986220472440946
21
-4.2435039370078735
0
LINE
8
BLACK
6
CONTINUOUS
10
5.5986220472440946
20
-4.2435039370078735
11
5.5978234251968502
21
-4.2572157086614171
0
LINE
8
BLACK
6
CONTINUOUS
10
5.5978234251968502
20
-4.2572157086614171
11
5.5954383858267711
21
-4.2707420472440942
0
LINE
8
BLACK
6
CONTINUOUS
10
5.5954383858267711
20
-4.2707420472440942
11
5.5914991338582674
21
-4.2839
0
LINE
8
BLACK
6
CONTINUOUS
10
5.5914991338582674
20
-4.2839
11
5.5860589763779522
21
-4.2965117322834647
0
LINE
8
BLACK
6
CONTINUOUS
10
5.5860589763779522
20
-4.2965117322834647
11
5.5791914566929135
21
-4.3084065748031497
0
LINE
8
BLACK
6
CONTINUOUS
10
5.5791914566929135
20
-4.3084065748031497
11
5.5709894881889763
21
-4.3194237401574807
0
LINE
8
BLACK
6
CONTINUOUS
10
5.5709894881889763
20
-4.3194237401574807
11
5.5615639763779523
21
-4.329414212598425
0
LINE
8
BLACK
6
CONTINUOUS
10
5.5615639763779523
20
-4.329414212598425
11
5.5510423622047247
21
-4.3382429133858267
0
LINE
8
BLACK
6
CONTINUOUS
10
5.5510423622047247
20
-4.3382429133858267
11
5.5395669291338585
21
-4.3457903937007876
0
LINE
8
BLACK
6
CONTINUOUS
10
5.5395669291338585
20
-4.3457903937007876
11
5.5272928740157479
21
-4.3519546456692915
0
LINE
8
BLACK
6
CONTINUOUS
10
5.5272928740157479
20
-4.3519546456692915
11
5.5143862204724412
21
-4.3566523228346457
0
LINE
8
BLACK
6
CONTINUOUS
10
5.5143862204724412
20
-4.3566523228346457
11
5.5010214566929134
21
-4.3598198031496063
0
LINE
8
BLACK
6
CONTINUOUS
10
5.5010214566929134
20
-4.3598198031496063
11
5.4873792913385824
21
-4.3614143307086612
0
LINE
8
BLACK
6
CONTINUOUS
10
5.4873792913385824
20
-4.3614143307086612
11
5.4736443307086615
21
-4.3614143307086612
0
LINE
8
BLACK
6
CONTINUOUS
10
5.4736443307086615
20
-4.3614143307086612
11
5.4600021653543305
21
-4.3598198031496063
0
LINE
8
BLACK
6
CONTINUOUS
10
5.4600021653543305
20
-4.3598198031496063
11
5.4466374015748027
21
-4.3566523228346457
0
LINE
8
BLACK
6
CONTINUOUS
10
5.4466374015748027
20
-4.3566523228346457
11
5.433730748031496
21
-4.3519546456692915
0
LINE
8
BLACK
6
CONTINUOUS
10
5.433730748031496
20
-4.3519546456692915
11
5.4214566929133854
21
-4.3457903937007876
0
LINE
8
BLACK
6
CONTINUOUS
10
5.4214566929133854
20
-4.3457903937007876
11
5.4099812598425192
21
-4.3382429133858267
0
LINE
8
BLACK
6
CONTINUOUS
10
5.4099812598425192
20
-4.3382429133858267
11
5.3994596456692916
21
-4.329414212598425
0
LINE
8
BLACK
6
CONTINUOUS
10
5.3994596456692916
20
-4.329414212598425
11
5.3900341338582676
21
-4.3194237401574807
0
LINE
8
BLACK
6
CONTINUOUS
10
5.3900341338582676
20
-4.3194237401574807
11
5.3818321653543304
21
-4.3084065748031497
0
LINE
8
BLACK
6
CONTINUOUS
10
5.3818321653543304
20
-4.3084065748031497
11
5.3749646456692908
21
-4.2965117322834647
0
LINE
8
BLACK
6
CONTINUOUS
10
5.3749646456692908
20
-4.2965117322834647
11
5.3695244881889765
21
-4.2839
0
LINE
8
BLACK
6
CONTINUOUS
10
5.3695244881889765
20
-4.2839
11
5.3655852362204719
21
-4.2707420472440942
0
LINE
8
BLACK
6
CONTINUOUS
10
5.3655852362204719
20
-4.2707420472440942
11
5.3632001968503937
21
-4.2572157086614171
0
LINE
8
BLACK
6
CONTINUOUS
10
5.3632001968503937
20
-4.2572157086614171
11
5.3624015748031493
21
-4.2435039370078735
0
LINE
8
BLACK
6
CONTINUOUS
10
5.3624015748031493
20
-4.2435039370078735
11
5.3632001968503937
21
-4.2297921653543309
0
LINE
8
BLACK
6
CONTINUOUS
10
5.3632001968503937
20
-4.2297921653543309
11
5.3655852362204719
21
-4.2162658267716537
0
LINE
8
BLACK
6
CONTINUOUS
10
5.3655852362204719
20
-4.2162658267716537
11
5.3695244881889765
21
-4.2031078740157479
0
LINE
8
BLACK
6
CONTINUOUS
10
5.3695244881889765
20
-4.2031078740157479
11
5.3749646456692908
21
-4.1904961417322832
0
LINE
8
BLACK
6
CONTINUOUS
10
5.3749646456692908
20
-4.1904961417322832
11
5.3818321653543304
21
-4.1786012992125983
0
LINE
8
BLACK
6
CONTINUOUS
10
5.3818321653543304
20
-4.1786012992125983
11
5.3900341338582676
21
-4.1675841338582673
0
LINE
8
BLACK
6
CONTINUOUS
10
5.3900341338582676
20
-4.1675841338582673
11
5.3994596456692916
21
-4.157593661417323
0
LINE
8
BLACK
6
CONTINUOUS
10
5.3994596456692916
20
-4.157593661417323
11
5.4099812598425192
21
-4.1487649606299213
0
LINE
8
BLACK
6
CONTINUOUS
10
5.4099812598425192
20
-4.1487649606299213
11
5.4214566929133854
21
-4.1412174803149604
0
LINE
8
BLACK
6
CONTINUOUS
10
5.4214566929133854
20
-4.1412174803149604
11
5.433730748031496
21
-4.1350532283464565
0
LINE
8
BLACK
6
CONTINUOUS
10
5.433730748031496
20
-4.1350532283464565
11
5.4466374015748027
21
-4.1303555511811023
0
LINE
8
BLACK
6
CONTINUOUS
10
5.4466374015748027
20
-4.1303555511811023
11
5.4600021653543305
21
-4.1271880708661417
0
LINE
8
BLACK
6
CONTINUOUS
10
5.4600021653543305
20
-4.1271880708661417
11
5.4736443307086615
21
-4.1255935433070867
0
LINE
8
BLACK
6
CONTINUOUS
10
5.4736443307086615
20
-4.1255935433070867
11
5.4873792913385824
21
-4.1255935433070867
0
LINE
8
BLACK
6
CONTINUOUS
10
5.4873792913385824
20
-4.1255935433070867
11
5.5010214566929134
21
-4.1271880708661417
0
LINE
8
BLACK
6
CONTINUOUS
10
6.7010214566929136
20
-4.1271880708661417
11
6.7143862204724405
21
-4.1303555511811023
0
LINE
8
BLACK
6
CONTINUOUS
10
6.7143862204724405
20
-4.1303555511811023
11
6.727292874015748
21
-4.1350532283464565
0
LINE
8
BLACK
6
CONTINUOUS
10
6.727292874015748
20
-4.1350532283464565
11
6.7395669291338578
21
-4.1412174803149604
0
LINE
8
BLACK
6
CONTINUOUS
10
6.7395669291338578
20
-4.1412174803149604
11
6.751042362204724
21
-4.1487649606299213
0
LINE
8
BLACK
6
CONTINUOUS
10
6.751042362204724
20
-4.1487649606299213
11
6.7615639763779525
21
-4.157593661417323
0
LINE
8
BLACK
6
CONTINUOUS
10
6.7615639763779525
20
-4.157593661417323
11
6.7709894881889765
21
-4.1675841338582673
0
LINE
8
BLACK
6
CONTINUOUS
10
6.7709894881889765
20
-4.1675841338582673
11
6.7791914566929137
21
-4.1786012992125983
0
LINE
8
BLACK
6
CONTINUOUS
10
6.7791914566929137
20
-4.1786012992125983
11
6.7860589763779524
21
-4.1904961417322832
0
LINE
8
BLACK
6
CONTINUOUS
10
6.7860589763779524
20
-4.1904961417322832
11
6.7914991338582675
21
-4.2031078740157479
0
LINE
8
BLACK
6
CONTINUOUS
10
6.7914991338582675
20
-4.2031078740157479
11
6.7954383858267713
21
-4.2162658267716537
0
LINE
8
BLACK
6
CONTINUOUS
10
6.7954383858267713
20
-4.2162658267716537
11
6.7978234251968503
21
-4.2297921653543309
0
LINE
8
BLACK
6
CONTINUOUS
10
6.7978234251968503
20
-4.2297921653543309
11
6.7986220472440939
21
-4.2435039370078735
0
LINE
8
BLACK
6
CONTINUOUS
10
6.7986220472440939
20
-4.2435039370078735
11
6.7978234251968503
21
-4.2572157086614171
0
LINE
8
BLACK
6
CONTINUOUS
10
6.7978234251968503
20
-4.2572157086614171
11
6.7954383858267713
21
-4.2707420472440942
0
LINE
8
BLACK
6
CONTINUOUS
10
6.7954383858267713
20
-4.2707420472440942
11
6.7914991338582675
21
-4.2839
0
LINE
8
BLACK
6
CONTINUOUS
10
6.7914991338582675
20
-4.2839
11
6.7860589763779524
21
-4.2965117322834647
0
LINE
8
BLACK
6
CONTINUOUS
10
6.7860589763779524
20
-4.2965117322834647
11
6.7791914566929137
21
-4.3084065748031497
0
LINE
8
BLACK
6
CONTINUOUS
10
6.7791914566929137
20
-4.3084065748031497
11
6.7709894881889765
21
-4.3194237401574807
0
LINE
8
BLACK
6
CONTINUOUS
10
6.7709894881889765
20
-4.3194237401574807
11
6.7615639763779525
21
-4.329414212598425
0
LINE
8
BLACK
6
CONTINUOUS
10
6.7615639763779525
20
-4.329414212598425
11
6.751042362204724
21
-4.3382429133858267
0
LINE
8
BLACK
6
CONTINUOUS
10
6.751042362204724
20
-4.3382429133858267
11
6.7395669291338578
21
-4.3457903937007876
0
LINE
8
BLACK
6
CONTINUOUS
10
6.7395669291338578
20
-4.3457903937007876
11
6.727292874015748
21
-4.3519546456692915
0
LINE
8
BLACK
6
CONTINUOUS
10
6.727292874015748
20
-4.3519546456692915
11
6.7143862204724405
21
-4.3566523228346457
0
LINE
8
BLACK
6
CONTINUOUS
10
6.7143862204724405
20
-4.3566523228346457
11
6.7010214566929136
21
-4.3598198031496063
0
LINE
8
BLACK
6
CONTINUOUS
10
6.7010214566929136
20
-4.3598198031496063
11
6.6873792913385826
21
-4.3614143307086612
0
LINE
8
BLACK
6
CONTINUOUS
10
6.6873792913385826
20
-4.3614143307086612
11
6.6736443307086617
21
-4.3614143307086612
0
LINE
8
BLACK
6
CONTINUOUS
10
6.6736443307086617
20
-4.3614143307086612
11
6.6600021653543306
21
-4.3598198031496063
0
LINE
8
BLACK
6
CONTINUOUS
10
6.6600021653543306
20
-4.3598198031496063
11
6.6466374015748029
21
-4.3566523228346457
0
LINE
8
BLACK
6
CONTINUOUS
10
6.6466374015748029
20
-4.3566523228346457
11
6.6337307480314962
21
-4.3519546456692915
0
LINE
8
BLACK
6
CONTINUOUS
10
6.6337307480314962
20
-4.3519546456692915
11
6.6214566929133856
21
-4.3457903937007876
0
LINE
8
BLACK
6
CONTINUOUS
10
6.6214566929133856
20
-4.3457903937007876
11
6.6099812598425194
21
-4.3382429133858267
0
LINE
8
BLACK
6
CONTINUOUS
10
6.6099812598425194
20
-4.3382429133858267
11
6.5994596456692909
21
-4.329414212598425
0
LINE
8
BLACK
6
CONTINUOUS
10
6.5994596456692909
20
-4.329414212598425
11
6.5900341338582678
21
-4.3194237401574807
0
LINE
8
BLACK
6
CONTINUOUS
10
6.5900341338582678
20
-4.3194237401574807
11
6.5818321653543306
21
-4.3084065748031497
0
LINE
8
BLACK
6
CONTINUOUS
10
6.5818321653543306
20
-4.3084065748031497
11
6.574964645669291
21
-4.2965117322834647
0
LINE
8
BLACK
6
CONTINUOUS
10
6.574964645669291
20
-4.2965117322834647
11
6.5695244881889758
21
-4.2839
0
LINE
8
BLACK
6
CONTINUOUS
10
6.5695244881889758
20
-4.2839
11
6.5655852362204721
21
-4.2707420472440942
0
LINE
8
BLACK
6
CONTINUOUS
10
6.5655852362204721
20
-4.2707420472440942
11
6.5632001968503939
21
-4.2572157086614171
0
LINE
8
BLACK
6
CONTINUOUS
10
6.5632001968503939
20
-4.2572157086614171
11
6.5624015748031495
21
-4.2435039370078735
0
LINE
8
BLACK
6
CONTINUOUS
10
6.5624015748031495
20
-4.2435039370078735
11
6.5632001968503939
21
-4.2297921653543309
0
LINE
8
BLACK
6
CONTINUOUS
10
6.5632001968503939
20
-4.2297921653543309
11
6.5655852362204721
21
-4.2162658267716537
0
LINE
8
BLACK
6
CONTINUOUS
10
6.5655852362204721
20
-4.2162658267716537
11
6.5695244881889758
21
-4.2031078740157479
0
LINE
8
BLACK
6
CONTINUOUS
10
6.5695244881889758
20
-4.2031078740157479
11
6.574964645669291
21
-4.1904961417322832
0
LINE
8
BLACK
6
CONTINUOUS
10
6.574964645669291
20
-4.1904961417322832
11
6.5818321653543306
21
-4.1786012992125983
0
LINE
8
BLACK
6
CONTINUOUS
10
6.5818321653543306
20
-4.1786012992125983
11
6.5900341338582678
21
-4.1675841338582673
0
LINE
8
BLACK
6
CONTINUOUS
10
6.5900341338582678
20
-4.1675841338582673
11
6.5994596456692909
21
-4.157593661417323
0
LINE
8
BLACK
6
CONTINUOUS
10
6.5994596456692909
20
-4.157593661417323
11
6.6099812598425194
21
-4.1487649606299213
0
LINE
8
BLACK
6
CONTINUOUS
10
6.6099812598425194
20
-4.1487649606299213
11
6.6214566929133856
21
-4.1412174803149604
0
LINE
8
BLACK
6
CONTINUOUS
10
6.6214566929133856
20
-4.1412174803149604
11
6.6337307480314962
21
-4.1350532283464565
0
LINE
8
BLACK
6
CONTINUOUS
10
6.6337307480314962
20
-4.1350532283464565
11
6.6466374015748029
21
-4.1303555511811023
0
LINE
8
BLACK
6
CONTINUOUS
10
6.6466374015748029
20
-4.1303555511811023
11
6.6600021653543306
21
-4.1271880708661417
0
LINE
8
BLACK
6
CONTINUOUS
10
6.6600021653543306
20
-4.1271880708661417
11
6.6736443307086617
21
-4.1255935433070867
0
LINE
8
BLACK
6
CONTINUOUS
10
6.6736443307086617
20
-4.1255935433070867
11
6.6873792913385826
21
-4.1255935433070867
0
LINE
8
BLACK
6
CONTINUOUS
10
6.6873792913385826
20
-4.1255935433070867
11
6.7010214566929136
21
-4.1271880708661417
0
LINE
8
BLACK
6
CONTINUOUS
10
6.1447411417322835
20
-4.2361618110236217
11
6.1536900393700789
21
-4.2385596456692909
0
LINE
8
BLACK
6
CONTINUOUS
10
6.1536900393700789
20
-4.2385596456692909
11
6.1620866141732282
21
-4.2424750393700785
0
LINE
8
BLACK
6
CONTINUOUS
10
6.1620866141732282
20
-4.2424750393700785
11
6.1696757086614173
21
-4.2477889763779526
0
LINE
8
BLACK
6
CONTINUOUS
10
6.1696757086614173
20
-4.2477889763779526
11
6.1762267716535435
21
-4.2543400393700788
0
LINE
8
BLACK
6
CONTINUOUS
10
6.1762267716535435
20
-4.2543400393700788
11
6.1815407086614176
21
-4.2619291338582679
0
LINE
8
BLACK
6
CONTINUOUS
10
6.1815407086614176
20
-4.2619291338582679
11
6.1854561023622043
21
-4.2703257086614173
0
LINE
8
BLACK
6
CONTINUOUS
10
6.1854561023622043
20
-4.2703257086614173
11
6.1878539370078736
21
-4.2792746062992126
0
LINE
8
BLACK
6
CONTINUOUS
10
6.1878539370078736
20
-4.2792746062992126
11
6.1886614173228347
21
-4.2885039370078744
0
LINE
8
BLACK
6
CONTINUOUS
10
6.1886614173228347
20
-4.2885039370078744
11
6.1878539370078736
21
-4.2977332677165352
0
LINE
8
BLACK
6
CONTINUOUS
10
6.1878539370078736
20
-4.2977332677165352
11
6.1854561023622043
21
-4.3066821653543306
0
LINE
8
BLACK
6
CONTINUOUS
10
6.1854561023622043
20
-4.3066821653543306
11
6.1815407086614176
21
-4.3150787401574799
0
LINE
8
BLACK
6
CONTINUOUS
10
6.1815407086614176
20
-4.3150787401574799
11
6.1762267716535435
21
-4.3226678346456691
0
LINE
8
BLACK
6
CONTINUOUS
10
6.1762267716535435
20
-4.3226678346456691
11
6.1696757086614173
21
-4.3292188976377952
0
LINE
8
BLACK
6
CONTINUOUS
10
6.1696757086614173
20
-4.3292188976377952
11
6.1620866141732282
21
-4.3345328346456693
0
LINE
8
BLACK
6
CONTINUOUS
10
6.1620866141732282
20
-4.3345328346456693
11
6.1536900393700789
21
-4.3384482283464569
0
LINE
8
BLACK
6
CONTINUOUS
10
6.1536900393700789
20
-4.3384482283464569
11
6.1447411417322835
21
-4.3408460629921262
0
LINE
8
BLACK
6
CONTINUOUS
10
6.1447411417322835
20
-4.3408460629921262
11
6.1355118110236218
21
-4.3416535433070864
0
LINE
8
BLACK
6
CONTINUOUS
10
6.1355118110236218
20
-4.3416535433070864
11
6.1262824803149609
21
-4.3408460629921262
0
LINE
8
BLACK
6
CONTINUOUS
10
6.1262824803149609
20
-4.3408460629921262
11
6.1173335826771655
21
-4.3384482283464569
0
LINE
8
BLACK
6
CONTINUOUS
10
6.1173335826771655
20
-4.3384482283464569
11
6.1089370078740153
21
-4.3345328346456693
0
LINE
8
BLACK
6
CONTINUOUS
10
6.1089370078740153
20
-4.3345328346456693
11
6.101347913385827
21
-4.3292188976377952
0
LINE
8
BLACK
6
CONTINUOUS
10
6.101347913385827
20
-4.3292188976377952
11
6.0947968503937009
21
-4.3226678346456691
0
LINE
8
BLACK
6
CONTINUOUS
10
6.0947968503937009
20
-4.3226678346456691
11
6.0894829133858268
21
-4.3150787401574799
0
LINE
8
BLACK
6
CONTINUOUS
10
6.0894829133858268
20
-4.3150787401574799
11
6.0855675196850392
21
-4.3066821653543306
0
LINE
8
BLACK
6
CONTINUOUS
10
6.0855675196850392
20
-4.3066821653543306
11
6.0831696850393699
21
-4.2977332677165352
0
LINE
8
BLACK
6
CONTINUOUS
10
6.0831696850393699
20
-4.2977332677165352
11
6.0823622047244097
21
-4.2885039370078744
0
LINE
8
BLACK
6
CONTINUOUS
10
6.0823622047244097
20
-4.2885039370078744
11
6.0831696850393699
21
-4.2792746062992126
0
LINE
8
BLACK
6
CONTINUOUS
10
6.0831696850393699
20
-4.2792746062992126
11
6.0855675196850392
21
-4.2703257086614173
0
LINE
8
BLACK
6
CONTINUOUS
10
6.0855675196850392
20
-4.2703257086614173
11
6.0894829133858268
21
-4.2619291338582679
0
LINE
8
BLACK
6
CONTINUOUS
10
6.0894829133858268
20
-4.2619291338582679
11
6.0947968503937009
21
-4.2543400393700788
0
LINE
8
BLACK
6
CONTINUOUS
10
6.0947968503937009
20
-4.2543400393700788
11
6.101347913385827
21
-4.2477889763779526
0
LINE
8
BLACK
6
CONTINUOUS
10
6.101347913385827
20
-4.2477889763779526
11
6.1089370078740153
21
-4.2424750393700785
0
LINE
8
BLACK
6
CONTINUOUS
10
6.1089370078740153
20
-4.2424750393700785
11
6.1173335826771655
21
-4.2385596456692909
0
LINE
8
BLACK
6
CONTINUOUS
10
6.1173335826771655
20
-4.2385596456692909
11
6.1262824803149609
21
-4.2361618110236217
0
LINE
8
BLACK
6
CONTINUOUS
10
6.1262824803149609
20
-4.2361618110236217
11
6.1355118110236218
21
-4.2353543307086614
0
LINE
8
BLACK
6
CONTINUOUS
10
6.1355118110236218
20
-4.2353543307086614
11
6.1447411417322835
21
-4.2361618110236217
0
LINE
8
BLACK
6
CONTINUOUS
10
6.4805118110236215
20
-4.3185039370078737
11
6.4205118110236219
21
-4.3185039370078737
0
LINE
8
BLACK
6
CONTINUOUS
10
6.4205118110236219
20
-4.3185039370078737
11
6.4205118110236219
21
-4.2585039370078741
0
LINE
8
BLACK
6
CONTINUOUS
10
6.4205118110236219
20
-4.2585039370078741
11
6.4805118110236215
21
-4.2585039370078741
0
LINE
8
BLACK
6
CONTINUOUS
10
6.4805118110236215
20
-4.2585039370078741
11
6.4805118110236215
21
-4.3185039370078737
0
LINE
8
BLACK
6
CONTINUOUS
10
6.4805118110236215
20
-4.2185039370078741
11
6.4205118110236219
21
-4.2185039370078741
0
LINE
8
BLACK
6
CONTINUOUS
10
6.4205118110236219
20
-4.2185039370078741
11
6.4205118110236219
21
-4.1585039370078736
0
LINE
8
BLACK
6
CONTINUOUS
10
6.4205118110236219
20
-4.1585039370078736
11
6.4805118110236215
21
-4.1585039370078736
0
LINE
8
BLACK
6
CONTINUOUS
10
6.4805118110236215
20
-4.1585039370078736
11
6.4805118110236215
21
-4.2185039370078741
0
LINE
8
BLACK
6
CONTINUOUS
10
5.4437525590551177
20
-3.9162174015748032
11
5.4521780708661414
21
-3.9191098818897636
0
LINE
8
BLACK
6
CONTINUOUS
10
5.4521780708661414
20
-3.9191098818897636
11
5.4600125590551176
21
-3.9233496850393701
0
LINE
8
BLACK
6
CONTINUOUS
10
5.4600125590551176
20
-3.9233496850393701
11
5.4670423622047242
21
-3.9288211811023621
0
LINE
8
BLACK
6
CONTINUOUS
10
5.4670423622047242
20
-3.9288211811023621
11
5.4730756692913385
21
-3.9353751574803151
0
LINE
8
BLACK
6
CONTINUOUS
10
5.4730756692913385
20
-3.9353751574803151
11
5.4779479921259844
21
-3.9428327559055116
0
LINE
8
BLACK
6
CONTINUOUS
10
5.4779479921259844
20
-3.9428327559055116
11
5.4815263779527559
21
-3.9509906299212596
0
LINE
8
BLACK
6
CONTINUOUS
10
5.4815263779527559
20
-3.9509906299212596
11
5.4837131889763775
21
-3.9596261811023621
0
LINE
8
BLACK
6
CONTINUOUS
10
5.4837131889763775
20
-3.9596261811023621
11
5.4844488188976372
21
-3.9685039370078741
0
LINE
8
BLACK
6
CONTINUOUS
10
5.4844488188976372
20
-3.9685039370078741
11
5.4837131889763775
21
-3.9773816929133856
0
LINE
8
BLACK
6
CONTINUOUS
10
5.4837131889763775
20
-3.9773816929133856
11
5.4815263779527559
21
-3.9860172440944881
0
LINE
8
BLACK
6
CONTINUOUS
10
5.4815263779527559
20
-3.9860172440944881
11
5.4779479921259844
21
-3.9941751181102361
0
LINE
8
BLACK
6
CONTINUOUS
10
5.4779479921259844
20
-3.9941751181102361
11
5.4730756692913385
21
-4.0016327165354326
0
LINE
8
BLACK
6
CONTINUOUS
10
5.4730756692913385
20
-4.0016327165354326
11
5.4670423622047242
21
-4.0081866929133856
0
LINE
8
BLACK
6
CONTINUOUS
10
5.4670423622047242
20
-4.0081866929133856
11
5.4600125590551176
21
-4.013658188976378
0
LINE
8
BLACK
6
CONTINUOUS
10
5.4600125590551176
20
-4.013658188976378
11
5.4521780708661414
21
-4.0178979921259845
0
LINE
8
BLACK
6
CONTINUOUS
10
5.4521780708661414
20
-4.0178979921259845
11
5.4437525590551177
21
-4.0207904724409449
0
LINE
8
BLACK
6
CONTINUOUS
10
5.4437525590551177
20
-4.0207904724409449
11
5.4349659055118105
21
-4.0222567322834646
0
LINE
8
BLACK
6
CONTINUOUS
10
5.4349659055118105
20
-4.0222567322834646
11
5.4260577165354329
21
-4.0222567322834646
0
LINE
8
BLACK
6
CONTINUOUS
10
5.4260577165354329
20
-4.0222567322834646
11
5.4172710629921257
21
-4.0207904724409449
0
LINE
8
BLACK
6
CONTINUOUS
10
5.4172710629921257
20
-4.0207904724409449
11
5.408845551181102
21
-4.0178979921259845
0
LINE
8
BLACK
6
CONTINUOUS
10
5.408845551181102
20
-4.0178979921259845
11
5.4010110629921257
21
-4.013658188976378
0
LINE
8
BLACK
6
CONTINUOUS
10
5.4010110629921257
20
-4.013658188976378
11
5.3939812598425192
21
-4.0081866929133856
0
LINE
8
BLACK
6
CONTINUOUS
10
5.3939812598425192
20
-4.0081866929133856
11
5.3879479527559058
21
-4.0016327165354326
0
LINE
8
BLACK
6
CONTINUOUS
10
5.3879479527559058
20
-4.0016327165354326
11
5.3830756299212599
21
-3.9941751181102361
0
LINE
8
BLACK
6
CONTINUOUS
10
5.3830756299212599
20
-3.9941751181102361
11
5.3794972440944884
21
-3.9860172440944881
0
LINE
8
BLACK
6
CONTINUOUS
10
5.3794972440944884
20
-3.9860172440944881
11
5.3773104330708659
21
-3.9773816929133856
0
LINE
8
BLACK
6
CONTINUOUS
10
5.3773104330708659
20
-3.9773816929133856
11
5.3765748031496061
21
-3.9685039370078741
0
LINE
8
BLACK
6
CONTINUOUS
10
5.3765748031496061
20
-3.9685039370078741
11
5.3773104330708659
21
-3.9596261811023621
0
LINE
8
BLACK
6
CONTINUOUS
10
5.3773104330708659
20
-3.9596261811023621
11
5.3794972440944884
21
-3.9509906299212596
0
LINE
8
BLACK
6
CONTINUOUS
10
5.3794972440944884
20
-3.9509906299212596
11
5.3830756299212599
21
-3.9428327559055116
0
LINE
8
BLACK
6
CONTINUOUS
10
5.3830756299212599
20
-3.9428327559055116
11
5.3879479527559058
21
-3.9353751574803151
0
LINE
8
BLACK
6
CONTINUOUS
10
5.3879479527559058
20
-3.9353751574803151
11
5.3939812598425192
21
-3.9288211811023621
0
LINE
8
BLACK
6
CONTINUOUS
10
5.3939812598425192
20
-3.9288211811023621
11
5.4010110629921257
21
-3.9233496850393701
0
LINE
8
BLACK
6
CONTINUOUS
10
5.4010110629921257
20
-3.9233496850393701
11
5.408845551181102
21
-3.9191098818897636
0
LINE
8
BLACK
6
CONTINUOUS
10
5.408845551181102
20
-3.9191098818897636
11
5.4172710629921257
21
-3.9162174015748032
0
LINE
8
BLACK
6
CONTINUOUS
10
5.4172710629921257
20
-3.9162174015748032
11
5.4260577165354329
21
-3.9147511417322836
0
LINE
8
BLACK
6
CONTINUOUS
10
5.4260577165354329
20
-3.9147511417322836
11
5.4349659055118105
21
-3.9147511417322836
0
LINE
8
BLACK
6
CONTINUOUS
10
5.4349659055118105
20
-3.9147511417322836
11
5.4437525590551177
21
-3.9162174015748032
0
LINE
8
BLACK
6
CONTINUOUS
10
5.6437525590551179
20
-3.9162174015748032
11
5.6521780708661415
21
-3.9191098818897636
0
LINE
8
BLACK
6
CONTINUOUS
10
5.6521780708661415
20
-3.9191098818897636
11
5.6600125590551178
21
-3.9233496850393701
0
LINE
8
BLACK
6
CONTINUOUS
10
5.6600125590551178
20
-3.9233496850393701
11
5.6670423622047243
21
-3.9288211811023621
0
LINE
8
BLACK
6
CONTINUOUS
10
5.6670423622047243
20
-3.9288211811023621
11
5.6730756692913387
21
-3.9353751574803151
0
LINE
8
BLACK
6
CONTINUOUS
10
5.6730756692913387
20
-3.9353751574803151
11
5.6779479921259846
21
-3.9428327559055116
0
LINE
8
BLACK
6
CONTINUOUS
10
5.6779479921259846
20
-3.9428327559055116
11
5.6815263779527561
21
-3.9509906299212596
0
LINE
8
BLACK
6
CONTINUOUS
10
5.6815263779527561
20
-3.9509906299212596
11
5.6837131889763777
21
-3.9596261811023621
0
LINE
8
BLACK
6
CONTINUOUS
10
5.6837131889763777
20
-3.9596261811023621
11
5.6844488188976374
21
-3.9685039370078741
0
LINE
8
BLACK
6
CONTINUOUS
10
5.6844488188976374
20
-3.9685039370078741
11
5.6837131889763777
21
-3.9773816929133856
0
LINE
8
BLACK
6
CONTINUOUS
10
5.6837131889763777
20
-3.9773816929133856
11
5.6815263779527561
21
-3.9860172440944881
0
LINE
8
BLACK
6
CONTINUOUS
10
5.6815263779527561
20
-3.9860172440944881
11
5.6779479921259846
21
-3.9941751181102361
0
LINE
8
BLACK
6
CONTINUOUS
10
5.6779479921259846
20
-3.9941751181102361
11
5.6730756692913387
21
-4.0016327165354326
0
LINE
8
BLACK
6
CONTINUOUS
10
5.6730756692913387
20
-4.0016327165354326
11
5.6670423622047243
21
-4.0081866929133856
0
LINE
8
BLACK
6
CONTINUOUS
10
5.6670423622047243
20
-4.0081866929133856
11
5.6600125590551178
21
-4.013658188976378
0
LINE
8
BLACK
6
CONTINUOUS
10
5.6600125590551178
20
-4.013658188976378
11
5.6521780708661415
21
-4.0178979921259845
0
LINE
8
BLACK
6
CONTINUOUS
10
5.6521780708661415
20
-4.0178979921259845
11
5.6437525590551179
21
-4.0207904724409449
0
LINE
8
BLACK
6
CONTINUOUS
10
5.6437525590551179
20
-4.0207904724409449
11
5.6349659055118106
21
-4.0222567322834646
0
LINE
8
BLACK
6
CONTINUOUS
10
5.6349659055118106
20
-4.0222567322834646
11
5.6260577165354331
21
-4.0222567322834646
0
LINE
8
BLACK
6
CONTINUOUS
10
5.6260577165354331
20
-4.0222567322834646
11
5.6172710629921259
21
-4.0207904724409449
0
LINE
8
BLACK
6
CONTINUOUS
10
5.6172710629921259
20
-4.0207904724409449
11
5.6088455511811022
21
-4.0178979921259845
0
LINE
8
BLACK
6
CONTINUOUS
10
5.6088455511811022
20
-4.0178979921259845
11
5.6010110629921259
21
-4.013658188976378
0
LINE
8
BLACK
6
CONTINUOUS
10
5.6010110629921259
20
-4.013658188976378
11
5.5939812598425194
21
-4.0081866929133856
0
LINE
8
BLACK
6
CONTINUOUS
10
5.5939812598425194
20
-4.0081866929133856
11
5.5879479527559051
21
-4.0016327165354326
0
LINE
8
BLACK
6
CONTINUOUS
10
5.5879479527559051
20
-4.0016327165354326
11
5.5830756299212601
21
-3.9941751181102361
0
LINE
8
BLACK
6
CONTINUOUS
10
5.5830756299212601
20
-3.9941751181102361
11
5.5794972440944877
21
-3.9860172440944881
0
LINE
8
BLACK
6
CONTINUOUS
10
5.5794972440944877
20
-3.9860172440944881
11
5.577310433070866
21
-3.9773816929133856
0
LINE
8
BLACK
6
CONTINUOUS
10
5.577310433070866
20
-3.9773816929133856
11
5.5765748031496063
21
-3.9685039370078741
0
LINE
8
BLACK
6
CONTINUOUS
10
5.5765748031496063
20
-3.9685039370078741
11
5.577310433070866
21
-3.9596261811023621
0
LINE
8
BLACK
6
CONTINUOUS
10
5.577310433070866
20
-3.9596261811023621
11
5.5794972440944877
21
-3.9509906299212596
0
LINE
8
BLACK
6
CONTINUOUS
10
5.5794972440944877
20
-3.9509906299212596
11
5.5830756299212601
21
-3.9428327559055116
0
LINE
8
BLACK
6
CONTINUOUS
10
5.5830756299212601
20
-3.9428327559055116
11
5.5879479527559051
21
-3.9353751574803151
0
LINE
8
BLACK
6
CONTINUOUS
10
5.5879479527559051
20
-3.9353751574803151
11
5.5939812598425194
21
-3.9288211811023621
0
LINE
8
BLACK
6
CONTINUOUS
10
5.5939812598425194
20
-3.9288211811023621
11
5.6010110629921259
21
-3.9233496850393701
0
LINE
8
BLACK
6
CONTINUOUS
10
5.6010110629921259
20
-3.9233496850393701
11
5.6088455511811022
21
-3.9191098818897636
0
LINE
8
BLACK
6
CONTINUOUS
10
5.6088455511811022
20
-3.9191098818897636
11
5.6172710629921259
21
-3.9162174015748032
0
LINE
8
BLACK
6
CONTINUOUS
10
5.6172710629921259
20
-3.9162174015748032
11
5.6260577165354331
21
-3.9147511417322836
0
LINE
8
BLACK
6
CONTINUOUS
10
5.6260577165354331
20
-3.9147511417322836
11
5.6349659055118106
21
-3.9147511417322836
0
LINE
8
BLACK
6
CONTINUOUS
10
5.6349659055118106
20
-3.9147511417322836
11
5.6437525590551179
21
-3.9162174015748032
0
LINE
8
BLACK
6
CONTINUOUS
10
6.5437525590551182
20
-3.9162174015748032
11
6.5521780708661419
21
-3.9191098818897636
0
LINE
8
BLACK
6
CONTINUOUS
10
6.5521780708661419
20
-3.9191098818897636
11
6.5600125590551182
21
-3.9233496850393701
0
LINE
8
BLACK
6
CONTINUOUS
10
6.5600125590551182
20
-3.9233496850393701
11
6.5670423622047247
21
-3.9288211811023621
0
LINE
8
BLACK
6
CONTINUOUS
10
6.5670423622047247
20
-3.9288211811023621
11
6.5730756692913381
21
-3.9353751574803151
0
LINE
8
BLACK
6
CONTINUOUS
10
6.5730756692913381
20
-3.9353751574803151
11
6.577947992125984
21
-3.9428327559055116
0
LINE
8
BLACK
6
CONTINUOUS
10
6.577947992125984
20
-3.9428327559055116
11
6.5815263779527555
21
-3.9509906299212596
0
LINE
8
BLACK
6
CONTINUOUS
10
6.5815263779527555
20
-3.9509906299212596
11
6.583713188976378
21
-3.9596261811023621
0
LINE
8
BLACK
6
CONTINUOUS
10
6.583713188976378
20
-3.9596261811023621
11
6.5844488188976378
21
-3.9685039370078741
0
LINE
8
BLACK
6
CONTINUOUS
10
6.5844488188976378
20
-3.9685039370078741
11
6.583713188976378
21
-3.9773816929133856
0
LINE
8
BLACK
6
CONTINUOUS
10
6.583713188976378
20
-3.9773816929133856
11
6.5815263779527555
21
-3.9860172440944881
0
LINE
8
BLACK
6
CONTINUOUS
10
6.5815263779527555
20
-3.9860172440944881
11
6.577947992125984
21
-3.9941751181102361
0
LINE
8
BLACK
6
CONTINUOUS
10
6.577947992125984
20
-3.9941751181102361
11
6.5730756692913381
21
-4.0016327165354326
0
LINE
8
BLACK
6
CONTINUOUS
10
6.5730756692913381
20
-4.0016327165354326
11
6.5670423622047247
21
-4.0081866929133856
0
LINE
8
BLACK
6
CONTINUOUS
10
6.5670423622047247
20
-4.0081866929133856
11
6.5600125590551182
21
-4.013658188976378
0
LINE
8
BLACK
6
CONTINUOUS
10
6.5600125590551182
20
-4.013658188976378
11
6.5521780708661419
21
-4.0178979921259845
0
LINE
8
BLACK
6
CONTINUOUS
10
6.5521780708661419
20
-4.0178979921259845
11
6.5437525590551182
21
-4.0207904724409449
0
LINE
8
BLACK
6
CONTINUOUS
10
6.5437525590551182
20
-4.0207904724409449
11
6.534965905511811
21
-4.0222567322834646
0
LINE
8
BLACK
6
CONTINUOUS
10
6.534965905511811
20
-4.0222567322834646
11
6.5260577165354325
21
-4.0222567322834646
0
LINE
8
BLACK
6
CONTINUOUS
10
6.5260577165354325
20
-4.0222567322834646
11
6.5172710629921262
21
-4.0207904724409449
0
LINE
8
BLACK
6
CONTINUOUS
10
6.5172710629921262
20
-4.0207904724409449
11
6.5088455511811025
21
-4.0178979921259845
0
LINE
8
BLACK
6
CONTINUOUS
10
6.5088455511811025
20
-4.0178979921259845
11
6.5010110629921263
21
-4.013658188976378
0
LINE
8
BLACK
6
CONTINUOUS
10
6.5010110629921263
20
-4.013658188976378
11
6.4939812598425197
21
-4.0081866929133856
0
LINE
8
BLACK
6
CONTINUOUS
10
6.4939812598425197
20
-4.0081866929133856
11
6.4879479527559054
21
-4.0016327165354326
0
LINE
8
BLACK
6
CONTINUOUS
10
6.4879479527559054
20
-4.0016327165354326
11
6.4830756299212595
21
-3.9941751181102361
0
LINE
8
BLACK
6
CONTINUOUS
10
6.4830756299212595
20
-3.9941751181102361
11
6.479497244094488
21
-3.9860172440944881
0
LINE
8
BLACK
6
CONTINUOUS
10
6.479497244094488
20
-3.9860172440944881
11
6.4773104330708664
21
-3.9773816929133856
0
LINE
8
BLACK
6
CONTINUOUS
10
6.4773104330708664
20
-3.9773816929133856
11
6.4765748031496058
21
-3.9685039370078741
0
LINE
8
BLACK
6
CONTINUOUS
10
6.4765748031496058
20
-3.9685039370078741
11
6.4773104330708664
21
-3.9596261811023621
0
LINE
8
BLACK
6
CONTINUOUS
10
6.4773104330708664
20
-3.9596261811023621
11
6.479497244094488
21
-3.9509906299212596
0
LINE
8
BLACK
6
CONTINUOUS
10
6.479497244094488
20
-3.9509906299212596
11
6.4830756299212595
21
-3.9428327559055116
0
LINE
8
BLACK
6
CONTINUOUS
10
6.4830756299212595
20
-3.9428327559055116
11
6.4879479527559054
21
-3.9353751574803151
0
LINE
8
BLACK
6
CONTINUOUS
10
6.4879479527559054
20
-3.9353751574803151
11
6.4939812598425197
21
-3.9288211811023621
0
LINE
8
BLACK
6
CONTINUOUS
10
6.4939812598425197
20
-3.9288211811023621
11
6.5010110629921263
21
-3.9233496850393701
0
LINE
8
BLACK
6
CONTINUOUS
10
6.5010110629921263
20
-3.9233496850393701
11
6.5088455511811025
21
-3.9191098818897636
0
LINE
8
BLACK
6
CONTINUOUS
10
6.5088455511811025
20
-3.9191098818897636
11
6.5172710629921262
21
-3.9162174015748032
0
LINE
8
BLACK
6
CONTINUOUS
10
6.5172710629921262
20
-3.9162174015748032
11
6.5260577165354325
21
-3.9147511417322836
0
LINE
8
BLACK
6
CONTINUOUS
10
6.5260577165354325
20
-3.9147511417322836
11
6.534965905511811
21
-3.9147511417322836
0
LINE
8
BLACK
6
CONTINUOUS
10
6.534965905511811
20
-3.9147511417322836
11
6.5437525590551182
21
-3.9162174015748032
0
LINE
8
BLACK
6
CONTINUOUS
10
6.7437525590551184
20
-3.9162174015748032
11
6.7521780708661412
21
-3.9191098818897636
0
LINE
8
BLACK
6
CONTINUOUS
10
6.7521780708661412
20
-3.9191098818897636
11
6.7600125590551183
21
-3.9233496850393701
0
LINE
8
BLACK
6
CONTINUOUS
10
6.7600125590551183
20
-3.9233496850393701
11
6.767042362204724
21
-3.9288211811023621
0
LINE
8
BLACK
6
CONTINUOUS
10
6.767042362204724
20
-3.9288211811023621
11
6.7730756692913383
21
-3.9353751574803151
0
LINE
8
BLACK
6
CONTINUOUS
10
6.7730756692913383
20
-3.9353751574803151
11
6.7779479921259842
21
-3.9428327559055116
0
LINE
8
BLACK
6
CONTINUOUS
10
6.7779479921259842
20
-3.9428327559055116
11
6.7815263779527557
21
-3.9509906299212596
0
LINE
8
BLACK
6
CONTINUOUS
10
6.7815263779527557
20
-3.9509906299212596
11
6.7837131889763782
21
-3.9596261811023621
0
LINE
8
BLACK
6
CONTINUOUS
10
6.7837131889763782
20
-3.9596261811023621
11
6.784448818897638
21
-3.9685039370078741
0
LINE
8
BLACK
6
CONTINUOUS
10
6.784448818897638
20
-3.9685039370078741
11
6.7837131889763782
21
-3.9773816929133856
0
LINE
8
BLACK
6
CONTINUOUS
10
6.7837131889763782
20
-3.9773816929133856
11
6.7815263779527557
21
-3.9860172440944881
0
LINE
8
BLACK
6
CONTINUOUS
10
6.7815263779527557
20
-3.9860172440944881
11
6.7779479921259842
21
-3.9941751181102361
0
LINE
8
BLACK
6
CONTINUOUS
10
6.7779479921259842
20
-3.9941751181102361
11
6.7730756692913383
21
-4.0016327165354326
0
LINE
8
BLACK
6
CONTINUOUS
10
6.7730756692913383
20
-4.0016327165354326
11
6.767042362204724
21
-4.0081866929133856
0
LINE
8
BLACK
6
CONTINUOUS
10
6.767042362204724
20
-4.0081866929133856
11
6.7600125590551183
21
-4.013658188976378
0
LINE
8
BLACK
6
CONTINUOUS
10
6.7600125590551183
20
-4.013658188976378
11
6.7521780708661412
21
-4.0178979921259845
0
LINE
8
BLACK
6
CONTINUOUS
10
6.7521780708661412
20
-4.0178979921259845
11
6.7437525590551184
21
-4.0207904724409449
0
LINE
8
BLACK
6
CONTINUOUS
10
6.7437525590551184
20
-4.0207904724409449
11
6.7349659055118112
21
-4.0222567322834646
0
LINE
8
BLACK
6
CONTINUOUS
10
6.7349659055118112
20
-4.0222567322834646
11
6.7260577165354327
21
-4.0222567322834646
0
LINE
8
BLACK
6
CONTINUOUS
10
6.7260577165354327
20
-4.0222567322834646
11
6.7172710629921255
21
-4.0207904724409449
0
LINE
8
BLACK
6
CONTINUOUS
10
6.7172710629921255
20
-4.0207904724409449
11
6.7088455511811018
21
-4.0178979921259845
0
LINE
8
BLACK
6
CONTINUOUS
10
6.7088455511811018
20
-4.0178979921259845
11
6.7010110629921256
21
-4.013658188976378
0
LINE
8
BLACK
6
CONTINUOUS
10
6.7010110629921256
20
-4.013658188976378
11
6.6939812598425199
21
-4.0081866929133856
0
LINE
8
BLACK
6
CONTINUOUS
10
6.6939812598425199
20
-4.0081866929133856
11
6.6879479527559056
21
-4.0016327165354326
0
LINE
8
BLACK
6
CONTINUOUS
10
6.6879479527559056
20
-4.0016327165354326
11
6.6830756299212597
21
-3.9941751181102361
0
LINE
8
BLACK
6
CONTINUOUS
10
6.6830756299212597
20
-3.9941751181102361
11
6.6794972440944882
21
-3.9860172440944881
0
LINE
8
BLACK
6
CONTINUOUS
10
6.6794972440944882
20
-3.9860172440944881
11
6.6773104330708657
21
-3.9773816929133856
0
LINE
8
BLACK
6
CONTINUOUS
10
6.6773104330708657
20
-3.9773816929133856
11
6.6765748031496059
21
-3.9685039370078741
0
LINE
8
BLACK
6
CONTINUOUS
10
6.6765748031496059
20
-3.9685039370078741
11
6.6773104330708657
21
-3.9596261811023621
0
LINE
8
BLACK
6
CONTINUOUS
10
6.6773104330708657
20
-3.9596261811023621
11
6.6794972440944882
21
-3.9509906299212596
0
LINE
8
BLACK
6
CONTINUOUS
10
6.6794972440944882
20
-3.9509906299212596
11
6.6830756299212597
21
-3.9428327559055116
0
LINE
8
BLACK
6
CONTINUOUS
10
6.6830756299212597
20
-3.9428327559055116
11
6.6879479527559056
21
-3.9353751574803151
0
LINE
8
BLACK
6
CONTINUOUS
10
6.6879479527559056
20
-3.9353751574803151
11
6.6939812598425199
21
-3.9288211811023621
0
LINE
8
BLACK
6
CONTINUOUS
10
6.6939812598425199
20
-3.9288211811023621
11
6.7010110629921256
21
-3.9233496850393701
0
LINE
8
BLACK
6
CONTINUOUS
10
6.7010110629921256
20
-3.9233496850393701
11
6.7088455511811018
21
-3.9191098818897636
0
LINE
8
BLACK
6
CONTINUOUS
10
6.7088455511811018
20
-3.9191098818897636
11
6.7172710629921255
21
-3.9162174015748032
0
LINE
8
BLACK
6
CONTINUOUS
10
6.7172710629921255
20
-3.9162174015748032
11
6.7260577165354327
21
-3.9147511417322836
0
LINE
8
BLACK
6
CONTINUOUS
10
6.7260577165354327
20
-3.9147511417322836
11
6.7349659055118112
21
-3.9147511417322836
0
LINE
8
BLACK
6
CONTINUOUS
10
6.7349659055118112
20
-3.9147511417322836
11
6.7437525590551184
21
-3.9162174015748032
0
LINE
8
BLACK
6
CONTINUOUS
10
5.5425788582677162
20
-3.8260927165354328
11
5.5501664173228349
21
-3.8290321653543304
0
LINE
8
BLACK
6
CONTINUOUS
10
5.5501664173228349
20
-3.8290321653543304
11
5.5570846850393698
21
-3.8333157874015749
0
LINE
8
BLACK
6
CONTINUOUS
10
5.5570846850393698
20
-3.8333157874015749
11
5.5630980314960627
21
-3.838797677165354
0
LINE
8
BLACK
6
CONTINUOUS
10
5.5630980314960627
20
-3.838797677165354
11
5.568001692913386
21
-3.845291181102362
0
LINE
8
BLACK
6
CONTINUOUS
10
5.568001692913386
20
-3.845291181102362
11
5.571628700787401
21
-3.8525751574803149
0
LINE
8
BLACK
6
CONTINUOUS
10
5.571628700787401
20
-3.8525751574803149
11
5.5738555118110238
21
-3.8604016141732282
0
LINE
8
BLACK
6
CONTINUOUS
10
5.5738555118110238
20
-3.8604016141732282
11
5.574606299212598
21
-3.868503937007874
0
LINE
8
BLACK
6
CONTINUOUS
10
5.574606299212598
20
-3.868503937007874
11
5.5738555118110238
21
-3.8766062598425197
0
LINE
8
BLACK
6
CONTINUOUS
10
5.5738555118110238
20
-3.8766062598425197
11
5.571628700787401
21
-3.8844327165354331
0
LINE
8
BLACK
6
CONTINUOUS
10
5.571628700787401
20
-3.8844327165354331
11
5.568001692913386
21
-3.891716692913386
0
LINE
8
BLACK
6
CONTINUOUS
10
5.568001692913386
20
-3.891716692913386
11
5.5630980314960627
21
-3.8982101968503935
0
LINE
8
BLACK
6
CONTINUOUS
10
5.5630980314960627
20
-3.8982101968503935
11
5.5570846850393698
21
-3.9036920866141731
0
LINE
8
BLACK
6
CONTINUOUS
10
5.5570846850393698
20
-3.9036920866141731
11
5.5501664173228349
21
-3.9079757086614171
0
LINE
8
BLACK
6
CONTINUOUS
10
5.5501664173228349
20
-3.9079757086614171
11
5.5425788582677162
21
-3.9109151574803147
0
LINE
8
BLACK
6
CONTINUOUS
10
5.5425788582677162
20
-3.9109151574803147
11
5.5345803543307088
21
-3.91241031496063
0
LINE
8
BLACK
6
CONTINUOUS
10
5.5345803543307088
20
-3.91241031496063
11
5.5264432677165356
21
-3.91241031496063
0
LINE
8
BLACK
6
CONTINUOUS
10
5.5264432677165356
20
-3.91241031496063
11
5.5184447637795273
21
-3.9109151574803147
0
LINE
8
BLACK
6
CONTINUOUS
10
5.5184447637795273
20
-3.9109151574803147
11
5.5108572047244095
21
-3.9079757086614171
0
LINE
8
BLACK
6
CONTINUOUS
10
5.5108572047244095
20
-3.9079757086614171
11
5.5039389370078737
21
-3.9036920866141731
0
LINE
8
BLACK
6
CONTINUOUS
10
5.5039389370078737
20
-3.9036920866141731
11
5.4979255905511808
21
-3.8982101968503935
0
LINE
8
BLACK
6
CONTINUOUS
10
5.4979255905511808
20
-3.8982101968503935
11
5.4930219291338584
21
-3.891716692913386
0
LINE
8
BLACK
6
CONTINUOUS
10
5.4930219291338584
20
-3.891716692913386
11
5.4893949212598425
21
-3.8844327165354331
0
LINE
8
BLACK
6
CONTINUOUS
10
5.4893949212598425
20
-3.8844327165354331
11
5.4871681102362206
21
-3.8766062598425197
0
LINE
8
BLACK
6
CONTINUOUS
10
5.4871681102362206
20
-3.8766062598425197
11
5.4864173228346456
21
-3.868503937007874
0
LINE
8
BLACK
6
CONTINUOUS
10
5.4864173228346456
20
-3.868503937007874
11
5.4871681102362206
21
-3.8604016141732282
0
LINE
8
BLACK
6
CONTINUOUS
10
5.4871681102362206
20
-3.8604016141732282
11
5.4893949212598425
21
-3.8525751574803149
0
LINE
8
BLACK
6
CONTINUOUS
10
5.4893949212598425
20
-3.8525751574803149
11
5.4930219291338584
21
-3.845291181102362
0
LINE
8
BLACK
6
CONTINUOUS
10
5.4930219291338584
20
-3.845291181102362
11
5.4979255905511808
21
-3.838797677165354
0
LINE
8
BLACK
6
CONTINUOUS
10
5.4979255905511808
20
-3.838797677165354
11
5.5039389370078737
21
-3.8333157874015749
0
LINE
8
BLACK
6
CONTINUOUS
10
5.5039389370078737
20
-3.8333157874015749
11
5.5108572047244095
21
-3.8290321653543304
0
LINE
8
BLACK
6
CONTINUOUS
10
5.5108572047244095
20
-3.8290321653543304
11
5.5184447637795273
21
-3.8260927165354328
0
LINE
8
BLACK
6
CONTINUOUS
10
5.5184447637795273
20
-3.8260927165354328
11
5.5264432677165356
21
-3.824597559055118
0
LINE
8
BLACK
6
CONTINUOUS
10
5.5264432677165356
20
-3.824597559055118
11
5.5345803543307088
21
-3.824597559055118
0
LINE
8
BLACK
6
CONTINUOUS
10
5.5345803543307088
20
-3.824597559055118
11
5.5425788582677162
21
-3.8260927165354328
0
LINE
8
BLACK
6
CONTINUOUS
10
6.6425788582677168
20
-3.8260927165354328
11
6.6501664173228345
21
-3.8290321653543304
0
LINE
8
BLACK
6
CONTINUOUS
10
6.6501664173228345
20
-3.8290321653543304
11
6.6570846850393703
21
-3.8333157874015749
0
LINE
8
BLACK
6
CONTINUOUS
10
6.6570846850393703
20
-3.8333157874015749
11
6.6630980314960633
21
-3.838797677165354
0
LINE
8
BLACK
6
CONTINUOUS
10
6.6630980314960633
20
-3.838797677165354
11
6.6680016929133856
21
-3.845291181102362
0
LINE
8
BLACK
6
CONTINUOUS
10
6.6680016929133856
20
-3.845291181102362
11
6.6716287007874016
21
-3.8525751574803149
0
LINE
8
BLACK
6
CONTINUOUS
10
6.6716287007874016
20
-3.8525751574803149
11
6.6738555118110234
21
-3.8604016141732282
0
LINE
8
BLACK
6
CONTINUOUS
10
6.6738555118110234
20
-3.8604016141732282
11
6.6746062992125985
21
-3.868503937007874
0
LINE
8
BLACK
6
CONTINUOUS
10
6.6746062992125985
20
-3.868503937007874
11
6.6738555118110234
21
-3.8766062598425197
0
LINE
8
BLACK
6
CONTINUOUS
10
6.6738555118110234
20
-3.8766062598425197
11
6.6716287007874016
21
-3.8844327165354331
0
LINE
8
BLACK
6
CONTINUOUS
10
6.6716287007874016
20
-3.8844327165354331
11
6.6680016929133856
21
-3.891716692913386
0
LINE
8
BLACK
6
CONTINUOUS
10
6.6680016929133856
20
-3.891716692913386
11
6.6630980314960633
21
-3.8982101968503935
0
LINE
8
BLACK
6
CONTINUOUS
10
6.6630980314960633
20
-3.8982101968503935
11
6.6570846850393703
21
-3.9036920866141731
0
LINE
8
BLACK
6
CONTINUOUS
10
6.6570846850393703
20
-3.9036920866141731
11
6.6501664173228345
21
-3.9079757086614171
0
LINE
8
BLACK
6
CONTINUOUS
10
6.6501664173228345
20
-3.9079757086614171
11
6.6425788582677168
21
-3.9109151574803147
0
LINE
8
BLACK
6
CONTINUOUS
10
6.6425788582677168
20
-3.9109151574803147
11
6.6345803543307085
21
-3.91241031496063
0
LINE
8
BLACK
6
CONTINUOUS
10
6.6345803543307085
20
-3.91241031496063
11
6.6264432677165352
21
-3.91241031496063
0
LINE
8
BLACK
6
CONTINUOUS
10
6.6264432677165352
20
-3.91241031496063
11
6.6184447637795278
21
-3.9109151574803147
0
LINE
8
BLACK
6
CONTINUOUS
10
6.6184447637795278
20
-3.9109151574803147
11
6.6108572047244092
21
-3.9079757086614171
0
LINE
8
BLACK
6
CONTINUOUS
10
6.6108572047244092
20
-3.9079757086614171
11
6.6039389370078743
21
-3.9036920866141731
0
LINE
8
BLACK
6
CONTINUOUS
10
6.6039389370078743
20
-3.9036920866141731
11
6.5979255905511813
21
-3.8982101968503935
0
LINE
8
BLACK
6
CONTINUOUS
10
6.5979255905511813
20
-3.8982101968503935
11
6.5930219291338581
21
-3.891716692913386
0
LINE
8
BLACK
6
CONTINUOUS
10
6.5930219291338581
20
-3.891716692913386
11
6.5893949212598422
21
-3.8844327165354331
0
LINE
8
BLACK
6
CONTINUOUS
10
6.5893949212598422
20
-3.8844327165354331
11
6.5871681102362203
21
-3.8766062598425197
0
LINE
8
BLACK
6
CONTINUOUS
10
6.5871681102362203
20
-3.8766062598425197
11
6.5864173228346452
21
-3.868503937007874
0
LINE
8
BLACK
6
CONTINUOUS
10
6.5864173228346452
20
-3.868503937007874
11
6.5871681102362203
21
-3.8604016141732282
0
LINE
8
BLACK
6
CONTINUOUS
10
6.5871681102362203
20
-3.8604016141732282
11
6.5893949212598422
21
-3.8525751574803149
0
LINE
8
BLACK
6
CONTINUOUS
10
6.5893949212598422
20
-3.8525751574803149
11
6.5930219291338581
21
-3.845291181102362
0
LINE
8
BLACK
6
CONTINUOUS
10
6.5930219291338581
20
-3.845291181102362
11
6.5979255905511813
21
-3.838797677165354
0
LINE
8
BLACK
6
CONTINUOUS
10
6.5979255905511813
20
-3.838797677165354
11
6.6039389370078743
21
-3.8333157874015749
0
LINE
8
BLACK
6
CONTINUOUS
10
6.6039389370078743
20
-3.8333157874015749
11
6.6108572047244092
21
-3.8290321653543304
0
LINE
8
BLACK
6
CONTINUOUS
10
6.6108572047244092
20
-3.8290321653543304
11
6.6184447637795278
21
-3.8260927165354328
0
LINE
8
BLACK
6
CONTINUOUS
10
6.6184447637795278
20
-3.8260927165354328
11
6.6264432677165352
21
-3.824597559055118
0
LINE
8
BLACK
6
CONTINUOUS
10
6.6264432677165352
20
-3.824597559055118
11
6.6345803543307085
21
-3.824597559055118
0
LINE
8
BLACK
6
CONTINUOUS
10
6.6345803543307085
20
-3.824597559055118
11
6.6425788582677168
21
-3.8260927165354328
0
LINE
8
BLACK
6
CONTINUOUS
10
5.4437525590551177
20
-3.7162174015748031
11
5.4521780708661414
21
-3.7191098818897639
0
LINE
8
BLACK
6
CONTINUOUS
10
5.4521780708661414
20
-3.7191098818897639
11
5.4600125590551176
21
-3.7233496850393699
0
LINE
8
BLACK
6
CONTINUOUS
10
5.4600125590551176
20
-3.7233496850393699
11
5.4670423622047242
21
-3.7288211811023619
0
LINE
8
BLACK
6
CONTINUOUS
10
5.4670423622047242
20
-3.7288211811023619
11
5.4730756692913385
21
-3.7353751574803149
0
LINE
8
BLACK
6
CONTINUOUS
10
5.4730756692913385
20
-3.7353751574803149
11
5.4779479921259844
21
-3.7428327559055119
0
LINE
8
BLACK
6
CONTINUOUS
10
5.4779479921259844
20
-3.7428327559055119
11
5.4815263779527559
21
-3.7509906299212599
0
LINE
8
BLACK
6
CONTINUOUS
10
5.4815263779527559
20
-3.7509906299212599
11
5.4837131889763775
21
-3.7596261811023619
0
LINE
8
BLACK
6
CONTINUOUS
10
5.4837131889763775
20
-3.7596261811023619
11
5.4844488188976372
21
-3.7685039370078739
0
LINE
8
BLACK
6
CONTINUOUS
10
5.4844488188976372
20
-3.7685039370078739
11
5.4837131889763775
21
-3.7773816929133859
0
LINE
8
BLACK
6
CONTINUOUS
10
5.4837131889763775
20
-3.7773816929133859
11
5.4815263779527559
21
-3.7860172440944879
0
LINE
8
BLACK
6
CONTINUOUS
10
5.4815263779527559
20
-3.7860172440944879
11
5.4779479921259844
21
-3.7941751181102363
0
LINE
8
BLACK
6
CONTINUOUS
10
5.4779479921259844
20
-3.7941751181102363
11
5.4730756692913385
21
-3.8016327165354329
0
LINE
8
BLACK
6
CONTINUOUS
10
5.4730756692913385
20
-3.8016327165354329
11
5.4670423622047242
21
-3.8081866929133859
0
LINE
8
BLACK
6
CONTINUOUS
10
5.4670423622047242
20
-3.8081866929133859
11
5.4600125590551176
21
-3.8136581889763779
0
LINE
8
BLACK
6
CONTINUOUS
10
5.4600125590551176
20
-3.8136581889763779
11
5.4521780708661414
21
-3.8178979921259844
0
LINE
8
BLACK
6
CONTINUOUS
10
5.4521780708661414
20
-3.8178979921259844
11
5.4437525590551177
21
-3.8207904724409447
0
LINE
8
BLACK
6
CONTINUOUS
10
5.4437525590551177
20
-3.8207904724409447
11
5.4349659055118105
21
-3.8222567322834644
0
LINE
8
BLACK
6
CONTINUOUS
10
5.4349659055118105
20
-3.8222567322834644
11
5.4260577165354329
21
-3.8222567322834644
0
LINE
8
BLACK
6
CONTINUOUS
10
5.4260577165354329
20
-3.8222567322834644
11
5.4172710629921257
21
-3.8207904724409447
0
LINE
8
BLACK
6
CONTINUOUS
10
5.4172710629921257
20
-3.8207904724409447
11
5.408845551181102
21
-3.8178979921259844
0
LINE
8
BLACK
6
CONTINUOUS
10
5.408845551181102
20
-3.8178979921259844
11
5.4010110629921257
21
-3.8136581889763779
0
LINE
8
BLACK
6
CONTINUOUS
10
5.4010110629921257
20
-3.8136581889763779
11
5.3939812598425192
21
-3.8081866929133859
0
LINE
8
BLACK
6
CONTINUOUS
10
5.3939812598425192
20
-3.8081866929133859
11
5.3879479527559058
21
-3.8016327165354329
0
LINE
8
BLACK
6
CONTINUOUS
10
5.3879479527559058
20
-3.8016327165354329
11
5.3830756299212599
21
-3.7941751181102363
0
LINE
8
BLACK
6
CONTINUOUS
10
5.3830756299212599
20
-3.7941751181102363
11
5.3794972440944884
21
-3.7860172440944879
0
LINE
8
BLACK
6
CONTINUOUS
10
5.3794972440944884
20
-3.7860172440944879
11
5.3773104330708659
21
-3.7773816929133859
0
LINE
8
BLACK
6
CONTINUOUS
10
5.3773104330708659
20
-3.7773816929133859
11
5.3765748031496061
21
-3.7685039370078739
0
LINE
8
BLACK
6
CONTINUOUS
10
5.3765748031496061
20
-3.7685039370078739
11
5.3773104330708659
21
-3.7596261811023619
0
LINE
8
BLACK
6
CONTINUOUS
10
5.3773104330708659
20
-3.7596261811023619
11
5.3794972440944884
21
-3.7509906299212599
0
LINE
8
BLACK
6
CONTINUOUS
10
5.3794972440944884
20
-3.7509906299212599
11
5.3830756299212599
21
-3.7428327559055119
0
LINE
8
BLACK
6
CONTINUOUS
10
5.3830756299212599
20
-3.7428327559055119
11
5.3879479527559058
21
-3.7353751574803149
0
LINE
8
BLACK
6
CONTINUOUS
10
5.3879479527559058
20
-3.7353751574803149
11
5.3939812598425192
21
-3.7288211811023619
0
LINE
8
BLACK
6
CONTINUOUS
10
5.3939812598425192
20
-3.7288211811023619
11
5.4010110629921257
21
-3.7233496850393699
0
LINE
8
BLACK
6
CONTINUOUS
10
5.4010110629921257
20
-3.7233496850393699
11
5.408845551181102
21
-3.7191098818897639
0
LINE
8
BLACK
6
CONTINUOUS
10
5.408845551181102
20
-3.7191098818897639
11
5.4172710629921257
21
-3.7162174015748031
0
LINE
8
BLACK
6
CONTINUOUS
10
5.4172710629921257
20
-3.7162174015748031
11
5.4260577165354329
21
-3.7147511417322834
0
LINE
8
BLACK
6
CONTINUOUS
10
5.4260577165354329
20
-3.7147511417322834
11
5.4349659055118105
21
-3.7147511417322834
0
LINE
8
BLACK
6
CONTINUOUS
10
5.4349659055118105
20
-3.7147511417322834
11
5.4437525590551177
21
-3.7162174015748031
0
LINE
8
BLACK
6
CONTINUOUS
10
5.6437525590551179
20
-3.7162174015748031
11
5.6521780708661415
21
-3.7191098818897639
0
LINE
8
BLACK
6
CONTINUOUS
10
5.6521780708661415
20
-3.7191098818897639
11
5.6600125590551178
21
-3.7233496850393699
0
LINE
8
BLACK
6
CONTINUOUS
10
5.6600125590551178
20
-3.7233496850393699
11
5.6670423622047243
21
-3.7288211811023619
0
LINE
8
BLACK
6
CONTINUOUS
10
5.6670423622047243
20
-3.7288211811023619
11
5.6730756692913387
21
-3.7353751574803149
0
LINE
8
BLACK
6
CONTINUOUS
10
5.6730756692913387
20
-3.7353751574803149
11
5.6779479921259846
21
-3.7428327559055119
0
LINE
8
BLACK
6
CONTINUOUS
10
5.6779479921259846
20
-3.7428327559055119
11
5.6815263779527561
21
-3.7509906299212599
0
LINE
8
BLACK
6
CONTINUOUS
10
5.6815263779527561
20
-3.7509906299212599
11
5.6837131889763777
21
-3.7596261811023619
0
LINE
8
BLACK
6
CONTINUOUS
10
5.6837131889763777
20
-3.7596261811023619
11
5.6844488188976374
21
-3.7685039370078739
0
LINE
8
BLACK
6
CONTINUOUS
10
5.6844488188976374
20
-3.7685039370078739
11
5.6837131889763777
21
-3.7773816929133859
0
LINE
8
BLACK
6
CONTINUOUS
10
5.6837131889763777
20
-3.7773816929133859
11
5.6815263779527561
21
-3.7860172440944879
0
LINE
8
BLACK
6
CONTINUOUS
10
5.6815263779527561
20
-3.7860172440944879
11
5.6779479921259846
21
-3.7941751181102363
0
LINE
8
BLACK
6
CONTINUOUS
10
5.6779479921259846
20
-3.7941751181102363
11
5.6730756692913387
21
-3.8016327165354329
0
LINE
8
BLACK
6
CONTINUOUS
10
5.6730756692913387
20
-3.8016327165354329
11
5.6670423622047243
21
-3.8081866929133859
0
LINE
8
BLACK
6
CONTINUOUS
10
5.6670423622047243
20
-3.8081866929133859
11
5.6600125590551178
21
-3.8136581889763779
0
LINE
8
BLACK
6
CONTINUOUS
10
5.6600125590551178
20
-3.8136581889763779
11
5.6521780708661415
21
-3.8178979921259844
0
LINE
8
BLACK
6
CONTINUOUS
10
5.6521780708661415
20
-3.8178979921259844
11
5.6437525590551179
21
-3.8207904724409447
0
LINE
8
BLACK
6
CONTINUOUS
10
5.6437525590551179
20
-3.8207904724409447
11
5.6349659055118106
21
-3.8222567322834644
0
LINE
8
BLACK
6
CONTINUOUS
10
5.6349659055118106
20
-3.8222567322834644
11
5.6260577165354331
21
-3.8222567322834644
0
LINE
8
BLACK
6
CONTINUOUS
10
5.6260577165354331
20
-3.8222567322834644
11
5.6172710629921259
21
-3.8207904724409447
0
LINE
8
BLACK
6
CONTINUOUS
10
5.6172710629921259
20
-3.8207904724409447
11
5.6088455511811022
21
-3.8178979921259844
0
LINE
8
BLACK
6
CONTINUOUS
10
5.6088455511811022
20
-3.8178979921259844
11
5.6010110629921259
21
-3.8136581889763779
0
LINE
8
BLACK
6
CONTINUOUS
10
5.6010110629921259
20
-3.8136581889763779
11
5.5939812598425194
21
-3.8081866929133859
0
LINE
8
BLACK
6
CONTINUOUS
10
5.5939812598425194
20
-3.8081866929133859
11
5.5879479527559051
21
-3.8016327165354329
0
LINE
8
BLACK
6
CONTINUOUS
10
5.5879479527559051
20
-3.8016327165354329
11
5.5830756299212601
21
-3.7941751181102363
0
LINE
8
BLACK
6
CONTINUOUS
10
5.5830756299212601
20
-3.7941751181102363
11
5.5794972440944877
21
-3.7860172440944879
0
LINE
8
BLACK
6
CONTINUOUS
10
5.5794972440944877
20
-3.7860172440944879
11
5.577310433070866
21
-3.7773816929133859
0
LINE
8
BLACK
6
CONTINUOUS
10
5.577310433070866
20
-3.7773816929133859
11
5.5765748031496063
21
-3.7685039370078739
0
LINE
8
BLACK
6
CONTINUOUS
10
5.5765748031496063
20
-3.7685039370078739
11
5.577310433070866
21
-3.7596261811023619
0
LINE
8
BLACK
6
CONTINUOUS
10
5.577310433070866
20
-3.7596261811023619
11
5.5794972440944877
21
-3.7509906299212599
0
LINE
8
BLACK
6
CONTINUOUS
10
5.5794972440944877
20
-3.7509906299212599
11
5.5830756299212601
21
-3.7428327559055119
0
LINE
8
BLACK
6
CONTINUOUS
10
5.5830756299212601
20
-3.7428327559055119
11
5.5879479527559051
21
-3.7353751574803149
0
LINE
8
BLACK
6
CONTINUOUS
10
5.5879479527559051
20
-3.7353751574803149
11
5.5939812598425194
21
-3.7288211811023619
0
LINE
8
BLACK
6
CONTINUOUS
10
5.5939812598425194
20
-3.7288211811023619
11
5.6010110629921259
21
-3.7233496850393699
0
LINE
8
BLACK
6
CONTINUOUS
10
5.6010110629921259
20
-3.7233496850393699
11
5.6088455511811022
21
-3.7191098818897639
0
LINE
8
BLACK
6
CONTINUOUS
10
5.6088455511811022
20
-3.7191098818897639
11
5.6172710629921259
21
-3.7162174015748031
0
LINE
8
BLACK
6
CONTINUOUS
10
5.6172710629921259
20
-3.7162174015748031
11
5.6260577165354331
21
-3.7147511417322834
0
LINE
8
BLACK
6
CONTINUOUS
10
5.6260577165354331
20
-3.7147511417322834
11
5.6349659055118106
21
-3.7147511417322834
0
LINE
8
BLACK
6
CONTINUOUS
10
5.6349659055118106
20
-3.7147511417322834
11
5.6437525590551179
21
-3.7162174015748031
0
LINE
8
BLACK
6
CONTINUOUS
10
6.5437525590551182
20
-3.7162174015748031
11
6.5521780708661419
21
-3.7191098818897639
0
LINE
8
BLACK
6
CONTINUOUS
10
6.5521780708661419
20
-3.7191098818897639
11
6.5600125590551182
21
-3.7233496850393699
0
LINE
8
BLACK
6
CONTINUOUS
10
6.5600125590551182
20
-3.7233496850393699
11
6.5670423622047247
21
-3.7288211811023619
0
LINE
8
BLACK
6
CONTINUOUS
10
6.5670423622047247
20
-3.7288211811023619
11
6.5730756692913381
21
-3.7353751574803149
0
LINE
8
BLACK
6
CONTINUOUS
10
6.5730756692913381
20
-3.7353751574803149
11
6.577947992125984
21
-3.7428327559055119
0
LINE
8
BLACK
6
CONTINUOUS
10
6.577947992125984
20
-3.7428327559055119
11
6.5815263779527555
21
-3.7509906299212599
0
LINE
8
BLACK
6
CONTINUOUS
10
6.5815263779527555
20
-3.7509906299212599
11
6.583713188976378
21
-3.7596261811023619
0
LINE
8
BLACK
6
CONTINUOUS
10
6.583713188976378
20
-3.7596261811023619
11
6.5844488188976378
21
-3.7685039370078739
0
LINE
8
BLACK
6
CONTINUOUS
10
6.5844488188976378
20
-3.7685039370078739
11
6.583713188976378
21
-3.7773816929133859
0
LINE
8
BLACK
6
CONTINUOUS
10
6.583713188976378
20
-3.7773816929133859
11
6.5815263779527555
21
-3.7860172440944879
0
LINE
8
BLACK
6
CONTINUOUS
10
6.5815263779527555
20
-3.7860172440944879
11
6.577947992125984
21
-3.7941751181102363
0
LINE
8
BLACK
6
CONTINUOUS
10
6.577947992125984
20
-3.7941751181102363
11
6.5730756692913381
21
-3.8016327165354329
0
LINE
8
BLACK
6
CONTINUOUS
10
6.5730756692913381
20
-3.8016327165354329
11
6.5670423622047247
21
-3.8081866929133859
0
LINE
8
BLACK
6
CONTINUOUS
10
6.5670423622047247
20
-3.8081866929133859
11
6.5600125590551182
21
-3.8136581889763779
0
LINE
8
BLACK
6
CONTINUOUS
10
6.5600125590551182
20
-3.8136581889763779
11
6.5521780708661419
21
-3.8178979921259844
0
LINE
8
BLACK
6
CONTINUOUS
10
6.5521780708661419
20
-3.8178979921259844
11
6.5437525590551182
21
-3.8207904724409447
0
LINE
8
BLACK
6
CONTINUOUS
10
6.5437525590551182
20
-3.8207904724409447
11
6.534965905511811
21
-3.8222567322834644
0
LINE
8
BLACK
6
CONTINUOUS
10
6.534965905511811
20
-3.8222567322834644
11
6.5260577165354325
21
-3.8222567322834644
0
LINE
8
BLACK
6
CONTINUOUS
10
6.5260577165354325
20
-3.8222567322834644
11
6.5172710629921262
21
-3.8207904724409447
0
LINE
8
BLACK
6
CONTINUOUS
10
6.5172710629921262
20
-3.8207904724409447
11
6.5088455511811025
21
-3.8178979921259844
0
LINE
8
BLACK
6
CONTINUOUS
10
6.5088455511811025
20
-3.8178979921259844
11
6.5010110629921263
21
-3.8136581889763779
0
LINE
8
BLACK
6
CONTINUOUS
10
6.5010110629921263
20
-3.8136581889763779
11
6.4939812598425197
21
-3.8081866929133859
0
LINE
8
BLACK
6
CONTINUOUS
10
6.4939812598425197
20
-3.8081866929133859
11
6.4879479527559054
21
-3.8016327165354329
0
LINE
8
BLACK
6
CONTINUOUS
10
6.4879479527559054
20
-3.8016327165354329
11
6.4830756299212595
21
-3.7941751181102363
0
LINE
8
BLACK
6
CONTINUOUS
10
6.4830756299212595
20
-3.7941751181102363
11
6.479497244094488
21
-3.7860172440944879
0
LINE
8
BLACK
6
CONTINUOUS
10
6.479497244094488
20
-3.7860172440944879
11
6.4773104330708664
21
-3.7773816929133859
0
LINE
8
BLACK
6
CONTINUOUS
10
6.4773104330708664
20
-3.7773816929133859
11
6.4765748031496058
21
-3.7685039370078739
0
LINE
8
BLACK
6
CONTINUOUS
10
6.4765748031496058
20
-3.7685039370078739
11
6.4773104330708664
21
-3.7596261811023619
0
LINE
8
BLACK
6
CONTINUOUS
10
6.4773104330708664
20
-3.7596261811023619
11
6.479497244094488
21
-3.7509906299212599
0
LINE
8
BLACK
6
CONTINUOUS
10
6.479497244094488
20
-3.7509906299212599
11
6.4830756299212595
21
-3.7428327559055119
0
LINE
8
BLACK
6
CONTINUOUS
10
6.4830756299212595
20
-3.7428327559055119
11
6.4879479527559054
21
-3.7353751574803149
0
LINE
8
BLACK
6
CONTINUOUS
10
6.4879479527559054
20
-3.7353751574803149
11
6.4939812598425197
21
-3.7288211811023619
0
LINE
8
BLACK
6
CONTINUOUS
10
6.4939812598425197
20
-3.7288211811023619
11
6.5010110629921263
21
-3.7233496850393699
0
LINE
8
BLACK
6
CONTINUOUS
10
6.5010110629921263
20
-3.7233496850393699
11
6.5088455511811025
21
-3.7191098818897639
0
LINE
8
BLACK
6
CONTINUOUS
10
6.5088455511811025
20
-3.7191098818897639
11
6.5172710629921262
21
-3.7162174015748031
0
LINE
8
BLACK
6
CONTINUOUS
10
6.5172710629921262
20
-3.7162174015748031
11
6.5260577165354325
21
-3.7147511417322834
0
LINE
8
BLACK
6
CONTINUOUS
10
6.5260577165354325
20
-3.7147511417322834
11
6.534965905511811
21
-3.7147511417322834
0
LINE
8
BLACK
6
CONTINUOUS
10
6.534965905511811
20
-3.7147511417322834
11
6.5437525590551182
21
-3.7162174015748031
0
LINE
8
BLACK
6
CONTINUOUS
10
6.7437525590551184
20
-3.7162174015748031
11
6.7521780708661412
21
-3.7191098818897639
0
LINE
8
BLACK
6
CONTINUOUS
10
6.7521780708661412
20
-3.7191098818897639
11
6.7600125590551183
21
-3.7233496850393699
0
LINE
8
BLACK
6
CONTINUOUS
10
6.7600125590551183
20
-3.7233496850393699
11
6.767042362204724
21
-3.7288211811023619
0
LINE
8
BLACK
6
CONTINUOUS
10
6.767042362204724
20
-3.7288211811023619
11
6.7730756692913383
21
-3.7353751574803149
0
LINE
8
BLACK
6
CONTINUOUS
10
6.7730756692913383
20
-3.7353751574803149
11
6.7779479921259842
21
-3.7428327559055119
0
LINE
8
BLACK
6
CONTINUOUS
10
6.7779479921259842
20
-3.7428327559055119
11
6.7815263779527557
21
-3.7509906299212599
0
LINE
8
BLACK
6
CONTINUOUS
10
6.7815263779527557
20
-3.7509906299212599
11
6.7837131889763782
21
-3.7596261811023619
0
LINE
8
BLACK
6
CONTINUOUS
10
6.7837131889763782
20
-3.7596261811023619
11
6.784448818897638
21
-3.7685039370078739
0
LINE
8
BLACK
6
CONTINUOUS
10
6.784448818897638
20
-3.7685039370078739
11
6.7837131889763782
21
-3.7773816929133859
0
LINE
8
BLACK
6
CONTINUOUS
10
6.7837131889763782
20
-3.7773816929133859
11
6.7815263779527557
21
-3.7860172440944879
0
LINE
8
BLACK
6
CONTINUOUS
10
6.7815263779527557
20
-3.7860172440944879
11
6.7779479921259842
21
-3.7941751181102363
0
LINE
8
BLACK
6
CONTINUOUS
10
6.7779479921259842
20
-3.7941751181102363
11
6.7730756692913383
21
-3.8016327165354329
0
LINE
8
BLACK
6
CONTINUOUS
10
6.7730756692913383
20
-3.8016327165354329
11
6.767042362204724
21
-3.8081866929133859
0
LINE
8
BLACK
6
CONTINUOUS
10
6.767042362204724
20
-3.8081866929133859
11
6.7600125590551183
21
-3.8136581889763779
0
LINE
8
BLACK
6
CONTINUOUS
10
6.7600125590551183
20
-3.8136581889763779
11
6.7521780708661412
21
-3.8178979921259844
0
LINE
8
BLACK
6
CONTINUOUS
10
6.7521780708661412
20
-3.8178979921259844
11
6.7437525590551184
21
-3.8207904724409447
0
LINE
8
BLACK
6
CONTINUOUS
10
6.7437525590551184
20
-3.8207904724409447
11
6.7349659055118112
21
-3.8222567322834644
0
LINE
8
BLACK
6
CONTINUOUS
10
6.7349659055118112
20
-3.8222567322834644
11
6.7260577165354327
21
-3.8222567322834644
0
LINE
8
BLACK
6
CONTINUOUS
10
6.7260577165354327
20
-3.8222567322834644
11
6.7172710629921255
21
-3.8207904724409447
0
LINE
8
BLACK
6
CONTINUOUS
10
6.7172710629921255
20
-3.8207904724409447
11
6.7088455511811018
21
-3.8178979921259844
0
LINE
8
BLACK
6
CONTINUOUS
10
6.7088455511811018
20
-3.8178979921259844
11
6.7010110629921256
21
-3.8136581889763779
0
LINE
8
BLACK
6
CONTINUOUS
10
6.7010110629921256
20
-3.8136581889763779
11
6.6939812598425199
21
-3.8081866929133859
0
LINE
8
BLACK
6
CONTINUOUS
10
6.6939812598425199
20
-3.8081866929133859
11
6.6879479527559056
21
-3.8016327165354329
0
LINE
8
BLACK
6
CONTINUOUS
10
6.6879479527559056
20
-3.8016327165354329
11
6.6830756299212597
21
-3.7941751181102363
0
LINE
8
BLACK
6
CONTINUOUS
10
6.6830756299212597
20
-3.7941751181102363
11
6.6794972440944882
21
-3.7860172440944879
0
LINE
8
BLACK
6
CONTINUOUS
10
6.6794972440944882
20
-3.7860172440944879
11
6.6773104330708657
21
-3.7773816929133859
0
LINE
8
BLACK
6
CONTINUOUS
10
6.6773104330708657
20
-3.7773816929133859
11
6.6765748031496059
21
-3.7685039370078739
0
LINE
8
BLACK
6
CONTINUOUS
10
6.6765748031496059
20
-3.7685039370078739
11
6.6773104330708657
21
-3.7596261811023619
0
LINE
8
BLACK
6
CONTINUOUS
10
6.6773104330708657
20
-3.7596261811023619
11
6.6794972440944882
21
-3.7509906299212599
0
LINE
8
BLACK
6
CONTINUOUS
10
6.6794972440944882
20
-3.7509906299212599
11
6.6830756299212597
21
-3.7428327559055119
0
LINE
8
BLACK
6
CONTINUOUS
10
6.6830756299212597
20
-3.7428327559055119
11
6.6879479527559056
21
-3.7353751574803149
0
LINE
8
BLACK
6
CONTINUOUS
10
6.6879479527559056
20
-3.7353751574803149
11
6.6939812598425199
21
-3.7288211811023619
0
LINE
8
BLACK
6
CONTINUOUS
10
6.6939812598425199
20
-3.7288211811023619
11
6.7010110629921256
21
-3.7233496850393699
0
LINE
8
BLACK
6
CONTINUOUS
10
6.7010110629921256
20
-3.7233496850393699
11
6.7088455511811018
21
-3.7191098818897639
0
LINE
8
BLACK
6
CONTINUOUS
10
6.7088455511811018
20
-3.7191098818897639
11
6.7172710629921255
21
-3.7162174015748031
0
LINE
8
BLACK
6
CONTINUOUS
10
6.7172710629921255
20
-3.7162174015748031
11
6.7260577165354327
21
-3.7147511417322834
0
LINE
8
BLACK
6
CONTINUOUS
10
6.7260577165354327
20
-3.7147511417322834
11
6.7349659055118112
21
-3.7147511417322834
0
LINE
8
BLACK
6
CONTINUOUS
10
6.7349659055118112
20
-3.7147511417322834
11
6.7437525590551184
21
-3.7162174015748031
0
LINE
8
BLACK
6
CONTINUOUS
10
5.4437525590551177
20
-3.4662174015748031
11
5.4521780708661414
21
-3.4691098818897639
0
LINE
8
BLACK
6
CONTINUOUS
10
5.4521780708661414
20
-3.4691098818897639
11
5.4600125590551176
21
-3.4733496850393699
0
LINE
8
BLACK
6
CONTINUOUS
10
5.4600125590551176
20
-3.4733496850393699
11
5.4670423622047242
21
-3.4788211811023619
0
LINE
8
BLACK
6
CONTINUOUS
10
5.4670423622047242
20
-3.4788211811023619
11
5.4730756692913385
21
-3.4853751574803149
0
LINE
8
BLACK
6
CONTINUOUS
10
5.4730756692913385
20
-3.4853751574803149
11
5.4779479921259844
21
-3.4928327559055119
0
LINE
8
BLACK
6
CONTINUOUS
10
5.4779479921259844
20
-3.4928327559055119
11
5.4815263779527559
21
-3.5009906299212599
0
LINE
8
BLACK
6
CONTINUOUS
10
5.4815263779527559
20
-3.5009906299212599
11
5.4837131889763775
21
-3.5096261811023619
0
LINE
8
BLACK
6
CONTINUOUS
10
5.4837131889763775
20
-3.5096261811023619
11
5.4844488188976372
21
-3.5185039370078739
0
LINE
8
BLACK
6
CONTINUOUS
10
5.4844488188976372
20
-3.5185039370078739
11
5.4837131889763775
21
-3.5273816929133859
0
LINE
8
BLACK
6
CONTINUOUS
10
5.4837131889763775
20
-3.5273816929133859
11
5.4815263779527559
21
-3.5360172440944879
0
LINE
8
BLACK
6
CONTINUOUS
10
5.4815263779527559
20
-3.5360172440944879
11
5.4779479921259844
21
-3.5441751181102363
0
LINE
8
BLACK
6
CONTINUOUS
10
5.4779479921259844
20
-3.5441751181102363
11
5.4730756692913385
21
-3.5516327165354329
0
LINE
8
BLACK
6
CONTINUOUS
10
5.4730756692913385
20
-3.5516327165354329
11
5.4670423622047242
21
-3.5581866929133859
0
LINE
8
BLACK
6
CONTINUOUS
10
5.4670423622047242
20
-3.5581866929133859
11
5.4600125590551176
21
-3.5636581889763779
0
LINE
8
BLACK
6
CONTINUOUS
10
5.4600125590551176
20
-3.5636581889763779
11
5.4521780708661414
21
-3.5678979921259844
0
LINE
8
BLACK
6
CONTINUOUS
10
5.4521780708661414
20
-3.5678979921259844
11
5.4437525590551177
21
-3.5707904724409447
0
LINE
8
BLACK
6
CONTINUOUS
10
5.4437525590551177
20
-3.5707904724409447
11
5.4349659055118105
21
-3.5722567322834644
0
LINE
8
BLACK
6
CONTINUOUS
10
5.4349659055118105
20
-3.5722567322834644
11
5.4260577165354329
21
-3.5722567322834644
0
LINE
8
BLACK
6
CONTINUOUS
10
5.4260577165354329
20
-3.5722567322834644
11
5.4172710629921257
21
-3.5707904724409447
0
LINE
8
BLACK
6
CONTINUOUS
10
5.4172710629921257
20
-3.5707904724409447
11
5.408845551181102
21
-3.5678979921259844
0
LINE
8
BLACK
6
CONTINUOUS
10
5.408845551181102
20
-3.5678979921259844
11
5.4010110629921257
21
-3.5636581889763779
0
LINE
8
BLACK
6
CONTINUOUS
10
5.4010110629921257
20
-3.5636581889763779
11
5.3939812598425192
21
-3.5581866929133859
0
LINE
8
BLACK
6
CONTINUOUS
10
5.3939812598425192
20
-3.5581866929133859
11
5.3879479527559058
21
-3.5516327165354329
0
LINE
8
BLACK
6
CONTINUOUS
10
5.3879479527559058
20
-3.5516327165354329
11
5.3830756299212599
21
-3.5441751181102363
0
LINE
8
BLACK
6
CONTINUOUS
10
5.3830756299212599
20
-3.5441751181102363
11
5.3794972440944884
21
-3.5360172440944879
0
LINE
8
BLACK
6
CONTINUOUS
10
5.3794972440944884
20
-3.5360172440944879
11
5.3773104330708659
21
-3.5273816929133859
0
LINE
8
BLACK
6
CONTINUOUS
10
5.3773104330708659
20
-3.5273816929133859
11
5.3765748031496061
21
-3.5185039370078739
0
LINE
8
BLACK
6
CONTINUOUS
10
5.3765748031496061
20
-3.5185039370078739
11
5.3773104330708659
21
-3.5096261811023619
0
LINE
8
BLACK
6
CONTINUOUS
10
5.3773104330708659
20
-3.5096261811023619
11
5.3794972440944884
21
-3.5009906299212599
0
LINE
8
BLACK
6
CONTINUOUS
10
5.3794972440944884
20
-3.5009906299212599
11
5.3830756299212599
21
-3.4928327559055119
0
LINE
8
BLACK
6
CONTINUOUS
10
5.3830756299212599
20
-3.4928327559055119
11
5.3879479527559058
21
-3.4853751574803149
0
LINE
8
BLACK
6
CONTINUOUS
10
5.3879479527559058
20
-3.4853751574803149
11
5.3939812598425192
21
-3.4788211811023619
0
LINE
8
BLACK
6
CONTINUOUS
10
5.3939812598425192
20
-3.4788211811023619
11
5.4010110629921257
21
-3.4733496850393699
0
LINE
8
BLACK
6
CONTINUOUS
10
5.4010110629921257
20
-3.4733496850393699
11
5.408845551181102
21
-3.4691098818897639
0
LINE
8
BLACK
6
CONTINUOUS
10
5.408845551181102
20
-3.4691098818897639
11
5.4172710629921257
21
-3.4662174015748031
0
LINE
8
BLACK
6
CONTINUOUS
10
5.4172710629921257
20
-3.4662174015748031
11
5.4260577165354329
21
-3.4647511417322834
0
LINE
8
BLACK
6
CONTINUOUS
10
5.4260577165354329
20
-3.4647511417322834
11
5.4349659055118105
21
-3.4647511417322834
0
LINE
8
BLACK
6
CONTINUOUS
10
5.4349659055118105
20
-3.4647511417322834
11
5.4437525590551177
21
-3.4662174015748031
0
LINE
8
BLACK
6
CONTINUOUS
10
5.6437525590551179
20
-3.4662174015748031
11
5.6521780708661415
21
-3.4691098818897639
0
LINE
8
BLACK
6
CONTINUOUS
10
5.6521780708661415
20
-3.4691098818897639
11
5.6600125590551178
21
-3.4733496850393699
0
LINE
8
BLACK
6
CONTINUOUS
10
5.6600125590551178
20
-3.4733496850393699
11
5.6670423622047243
21
-3.4788211811023619
0
LINE
8
BLACK
6
CONTINUOUS
10
5.6670423622047243
20
-3.4788211811023619
11
5.6730756692913387
21
-3.4853751574803149
0
LINE
8
BLACK
6
CONTINUOUS
10
5.6730756692913387
20
-3.4853751574803149
11
5.6779479921259846
21
-3.4928327559055119
0
LINE
8
BLACK
6
CONTINUOUS
10
5.6779479921259846
20
-3.4928327559055119
11
5.6815263779527561
21
-3.5009906299212599
0
LINE
8
BLACK
6
CONTINUOUS
10
5.6815263779527561
20
-3.5009906299212599
11
5.6837131889763777
21
-3.5096261811023619
0
LINE
8
BLACK
6
CONTINUOUS
10
5.6837131889763777
20
-3.5096261811023619
11
5.6844488188976374
21
-3.5185039370078739
0
LINE
8
BLACK
6
CONTINUOUS
10
5.6844488188976374
20
-3.5185039370078739
11
5.6837131889763777
21
-3.5273816929133859
0
LINE
8
BLACK
6
CONTINUOUS
10
5.6837131889763777
20
-3.5273816929133859
11
5.6815263779527561
21
-3.5360172440944879
0
LINE
8
BLACK
6
CONTINUOUS
10
5.6815263779527561
20
-3.5360172440944879
11
5.6779479921259846
21
-3.5441751181102363
0
LINE
8
BLACK
6
CONTINUOUS
10
5.6779479921259846
20
-3.5441751181102363
11
5.6730756692913387
21
-3.5516327165354329
0
LINE
8
BLACK
6
CONTINUOUS
10
5.6730756692913387
20
-3.5516327165354329
11
5.6670423622047243
21
-3.5581866929133859
0
LINE
8
BLACK
6
CONTINUOUS
10
5.6670423622047243
20
-3.5581866929133859
11
5.6600125590551178
21
-3.5636581889763779
0
LINE
8
BLACK
6
CONTINUOUS
10
5.6600125590551178
20
-3.5636581889763779
11
5.6521780708661415
21
-3.5678979921259844
0
LINE
8
BLACK
6
CONTINUOUS
10
5.6521780708661415
20
-3.5678979921259844
11
5.6437525590551179
21
-3.5707904724409447
0
LINE
8
BLACK
6
CONTINUOUS
10
5.6437525590551179
20
-3.5707904724409447
11
5.6349659055118106
21
-3.5722567322834644
0
LINE
8
BLACK
6
CONTINUOUS
10
5.6349659055118106
20
-3.5722567322834644
11
5.6260577165354331
21
-3.5722567322834644
0
LINE
8
BLACK
6
CONTINUOUS
10
5.6260577165354331
20
-3.5722567322834644
11
5.6172710629921259
21
-3.5707904724409447
0
LINE
8
BLACK
6
CONTINUOUS
10
5.6172710629921259
20
-3.5707904724409447
11
5.6088455511811022
21
-3.5678979921259844
0
LINE
8
BLACK
6
CONTINUOUS
10
5.6088455511811022
20
-3.5678979921259844
11
5.6010110629921259
21
-3.5636581889763779
0
LINE
8
BLACK
6
CONTINUOUS
10
5.6010110629921259
20
-3.5636581889763779
11
5.5939812598425194
21
-3.5581866929133859
0
LINE
8
BLACK
6
CONTINUOUS
10
5.5939812598425194
20
-3.5581866929133859
11
5.5879479527559051
21
-3.5516327165354329
0
LINE
8
BLACK
6
CONTINUOUS
10
5.5879479527559051
20
-3.5516327165354329
11
5.5830756299212601
21
-3.5441751181102363
0
LINE
8
BLACK
6
CONTINUOUS
10
5.5830756299212601
20
-3.5441751181102363
11
5.5794972440944877
21
-3.5360172440944879
0
LINE
8
BLACK
6
CONTINUOUS
10
5.5794972440944877
20
-3.5360172440944879
11
5.577310433070866
21
-3.5273816929133859
0
LINE
8
BLACK
6
CONTINUOUS
10
5.577310433070866
20
-3.5273816929133859
11
5.5765748031496063
21
-3.5185039370078739
0
LINE
8
BLACK
6
CONTINUOUS
10
5.5765748031496063
20
-3.5185039370078739
11
5.577310433070866
21
-3.5096261811023619
0
LINE
8
BLACK
6
CONTINUOUS
10
5.577310433070866
20
-3.5096261811023619
11
5.5794972440944877
21
-3.5009906299212599
0
LINE
8
BLACK
6
CONTINUOUS
10
5.5794972440944877
20
-3.5009906299212599
11
5.5830756299212601
21
-3.4928327559055119
0
LINE
8
BLACK
6
CONTINUOUS
10
5.5830756299212601
20
-3.4928327559055119
11
5.5879479527559051
21
-3.4853751574803149
0
LINE
8
BLACK
6
CONTINUOUS
10
5.5879479527559051
20
-3.4853751574803149
11
5.5939812598425194
21
-3.4788211811023619
0
LINE
8
BLACK
6
CONTINUOUS
10
5.5939812598425194
20
-3.4788211811023619
11
5.6010110629921259
21
-3.4733496850393699
0
LINE
8
BLACK
6
CONTINUOUS
10
5.6010110629921259
20
-3.4733496850393699
11
5.6088455511811022
21
-3.4691098818897639
0
LINE
8
BLACK
6
CONTINUOUS
10
5.6088455511811022
20
-3.4691098818897639
11
5.6172710629921259
21
-3.4662174015748031
0
LINE
8
BLACK
6
CONTINUOUS
10
5.6172710629921259
20
-3.4662174015748031
11
5.6260577165354331
21
-3.4647511417322834
0
LINE
8
BLACK
6
CONTINUOUS
10
5.6260577165354331
20
-3.4647511417322834
11
5.6349659055118106
21
-3.4647511417322834
0
LINE
8
BLACK
6
CONTINUOUS
10
5.6349659055118106
20
-3.4647511417322834
11
5.6437525590551179
21
-3.4662174015748031
0
LINE
8
BLACK
6
CONTINUOUS
10
6.5437525590551182
20
-3.4662174015748031
11
6.5521780708661419
21
-3.4691098818897639
0
LINE
8
BLACK
6
CONTINUOUS
10
6.5521780708661419
20
-3.4691098818897639
11
6.5600125590551182
21
-3.4733496850393699
0
LINE
8
BLACK
6
CONTINUOUS
10
6.5600125590551182
20
-3.4733496850393699
11
6.5670423622047247
21
-3.4788211811023619
0
LINE
8
BLACK
6
CONTINUOUS
10
6.5670423622047247
20
-3.4788211811023619
11
6.5730756692913381
21
-3.4853751574803149
0
LINE
8
BLACK
6
CONTINUOUS
10
6.5730756692913381
20
-3.4853751574803149
11
6.577947992125984
21
-3.4928327559055119
0
LINE
8
BLACK
6
CONTINUOUS
10
6.577947992125984
20
-3.4928327559055119
11
6.5815263779527555
21
-3.5009906299212599
0
LINE
8
BLACK
6
CONTINUOUS
10
6.5815263779527555
20
-3.5009906299212599
11
6.583713188976378
21
-3.5096261811023619
0
LINE
8
BLACK
6
CONTINUOUS
10
6.583713188976378
20
-3.5096261811023619
11
6.5844488188976378
21
-3.5185039370078739
0
LINE
8
BLACK
6
CONTINUOUS
10
6.5844488188976378
20
-3.5185039370078739
11
6.583713188976378
21
-3.5273816929133859
0
LINE
8
BLACK
6
CONTINUOUS
10
6.583713188976378
20
-3.5273816929133859
11
6.5815263779527555
21
-3.5360172440944879
0
LINE
8
BLACK
6
CONTINUOUS
10
6.5815263779527555
20
-3.5360172440944879
11
6.577947992125984
21
-3.5441751181102363
0
LINE
8
BLACK
6
CONTINUOUS
10
6.577947992125984
20
-3.5441751181102363
11
6.5730756692913381
21
-3.5516327165354329
0
LINE
8
BLACK
6
CONTINUOUS
10
6.5730756692913381
20
-3.5516327165354329
11
6.5670423622047247
21
-3.5581866929133859
0
LINE
8
BLACK
6
CONTINUOUS
10
6.5670423622047247
20
-3.5581866929133859
11
6.5600125590551182
21
-3.5636581889763779
0
LINE
8
BLACK
6
CONTINUOUS
10
6.5600125590551182
20
-3.5636581889763779
11
6.5521780708661419
21
-3.5678979921259844
0
LINE
8
BLACK
6
CONTINUOUS
10
6.5521780708661419
20
-3.5678979921259844
11
6.5437525590551182
21
-3.5707904724409447
0
LINE
8
BLACK
6
CONTINUOUS
10
6.5437525590551182
20
-3.5707904724409447
11
6.534965905511811
21
-3.5722567322834644
0
LINE
8
BLACK
6
CONTINUOUS
10
6.534965905511811
20
-3.5722567322834644
11
6.5260577165354325
21
-3.5722567322834644
0
LINE
8
BLACK
6
CONTINUOUS
10
6.5260577165354325
20
-3.5722567322834644
11
6.5172710629921262
21
-3.5707904724409447
0
LINE
8
BLACK
6
CONTINUOUS
10
6.5172710629921262
20
-3.5707904724409447
11
6.5088455511811025
21
-3.5678979921259844
0
LINE
8
BLACK
6
CONTINUOUS
10
6.5088455511811025
20
-3.5678979921259844
11
6.5010110629921263
21
-3.5636581889763779
0
LINE
8
BLACK
6
CONTINUOUS
10
6.5010110629921263
20
-3.5636581889763779
11
6.4939812598425197
21
-3.5581866929133859
0
LINE
8
BLACK
6
CONTINUOUS
10
6.4939812598425197
20
-3.5581866929133859
11
6.4879479527559054
21
-3.5516327165354329
0
LINE
8
BLACK
6
CONTINUOUS
10
6.4879479527559054
20
-3.5516327165354329
11
6.4830756299212595
21
-3.5441751181102363
0
LINE
8
BLACK
6
CONTINUOUS
10
6.4830756299212595
20
-3.5441751181102363
11
6.479497244094488
21
-3.5360172440944879
0
LINE
8
BLACK
6
CONTINUOUS
10
6.479497244094488
20
-3.5360172440944879
11
6.4773104330708664
21
-3.5273816929133859
0
LINE
8
BLACK
6
CONTINUOUS
10
6.4773104330708664
20
-3.5273816929133859
11
6.4765748031496058
21
-3.5185039370078739
0
LINE
8
BLACK
6
CONTINUOUS
10
6.4765748031496058
20
-3.5185039370078739
11
6.4773104330708664
21
-3.5096261811023619
0
LINE
8
BLACK
6
CONTINUOUS
10
6.4773104330708664
20
-3.5096261811023619
11
6.479497244094488
21
-3.5009906299212599
0
LINE
8
BLACK
6
CONTINUOUS
10
6.479497244094488
20
-3.5009906299212599
11
6.4830756299212595
21
-3.4928327559055119
0
LINE
8
BLACK
6
CONTINUOUS
10
6.4830756299212595
20
-3.4928327559055119
11
6.4879479527559054
21
-3.4853751574803149
0
LINE
8
BLACK
6
CONTINUOUS
10
6.4879479527559054
20
-3.4853751574803149
11
6.4939812598425197
21
-3.4788211811023619
0
LINE
8
BLACK
6
CONTINUOUS
10
6.4939812598425197
20
-3.4788211811023619
11
6.5010110629921263
21
-3.4733496850393699
0
LINE
8
BLACK
6
CONTINUOUS
10
6.5010110629921263
20
-3.4733496850393699
11
6.5088455511811025
21
-3.4691098818897639
0
LINE
8
BLACK
6
CONTINUOUS
10
6.5088455511811025
20
-3.4691098818897639
11
6.5172710629921262
21
-3.4662174015748031
0
LINE
8
BLACK
6
CONTINUOUS
10
6.5172710629921262
20
-3.4662174015748031
11
6.5260577165354325
21
-3.4647511417322834
0
LINE
8
BLACK
6
CONTINUOUS
10
6.5260577165354325
20
-3.4647511417322834
11
6.534965905511811
21
-3.4647511417322834
0
LINE
8
BLACK
6
CONTINUOUS
10
6.534965905511811
20
-3.4647511417322834
11
6.5437525590551182
21
-3.4662174015748031
0
LINE
8
BLACK
6
CONTINUOUS
10
6.7437525590551184
20
-3.4662174015748031
11
6.7521780708661412
21
-3.4691098818897639
0
LINE
8
BLACK
6
CONTINUOUS
10
6.7521780708661412
20
-3.4691098818897639
11
6.7600125590551183
21
-3.4733496850393699
0
LINE
8
BLACK
6
CONTINUOUS
10
6.7600125590551183
20
-3.4733496850393699
11
6.767042362204724
21
-3.4788211811023619
0
LINE
8
BLACK
6
CONTINUOUS
10
6.767042362204724
20
-3.4788211811023619
11
6.7730756692913383
21
-3.4853751574803149
0
LINE
8
BLACK
6
CONTINUOUS
10
6.7730756692913383
20
-3.4853751574803149
11
6.7779479921259842
21
-3.4928327559055119
0
LINE
8
BLACK
6
CONTINUOUS
10
6.7779479921259842
20
-3.4928327559055119
11
6.7815263779527557
21
-3.5009906299212599
0
LINE
8
BLACK
6
CONTINUOUS
10
6.7815263779527557
20
-3.5009906299212599
11
6.7837131889763782
21
-3.5096261811023619
0
LINE
8
BLACK
6
CONTINUOUS
10
6.7837131889763782
20
-3.5096261811023619
11
6.784448818897638
21
-3.5185039370078739
0
LINE
8
BLACK
6
CONTINUOUS
10
6.784448818897638
20
-3.5185039370078739
11
6.7837131889763782
21
-3.5273816929133859
0
LINE
8
BLACK
6
CONTINUOUS
10
6.7837131889763782
20
-3.5273816929133859
11
6.7815263779527557
21
-3.5360172440944879
0
LINE
8
BLACK
6
CONTINUOUS
10
6.7815263779527557
20
-3.5360172440944879
11
6.7779479921259842
21
-3.5441751181102363
0
LINE
8
BLACK
6
CONTINUOUS
10
6.7779479921259842
20
-3.5441751181102363
11
6.7730756692913383
21
-3.5516327165354329
0
LINE
8
BLACK
6
CONTINUOUS
10
6.7730756692913383
20
-3.5516327165354329
11
6.767042362204724
21
-3.5581866929133859
0
LINE
8
BLACK
6
CONTINUOUS
10
6.767042362204724
20
-3.5581866929133859
11
6.7600125590551183
21
-3.5636581889763779
0
LINE
8
BLACK
6
CONTINUOUS
10
6.7600125590551183
20
-3.5636581889763779
11
6.7521780708661412
21
-3.5678979921259844
0
LINE
8
BLACK
6
CONTINUOUS
10
6.7521780708661412
20
-3.5678979921259844
11
6.7437525590551184
21
-3.5707904724409447
0
LINE
8
BLACK
6
CONTINUOUS
10
6.7437525590551184
20
-3.5707904724409447
11
6.7349659055118112
21
-3.5722567322834644
0
LINE
8
BLACK
6
CONTINUOUS
10
6.7349659055118112
20
-3.5722567322834644
11
6.7260577165354327
21
-3.5722567322834644
0
LINE
8
BLACK
6
CONTINUOUS
10
6.7260577165354327
20
-3.5722567322834644
11
6.7172710629921255
21
-3.5707904724409447
0
LINE
8
BLACK
6
CONTINUOUS
10
6.7172710629921255
20
-3.5707904724409447
11
6.7088455511811018
21
-3.5678979921259844
0
LINE
8
BLACK
6
CONTINUOUS
10
6.7088455511811018
20
-3.5678979921259844
11
6.7010110629921256
21
-3.5636581889763779
0
LINE
8
BLACK
6
CONTINUOUS
10
6.7010110629921256
20
-3.5636581889763779
11
6.6939812598425199
21
-3.5581866929133859
0
LINE
8
BLACK
6
CONTINUOUS
10
6.6939812598425199
20
-3.5581866929133859
11
6.6879479527559056
21
-3.5516327165354329
0
LINE
8
BLACK
6
CONTINUOUS
10
6.6879479527559056
20
-3.5516327165354329
11
6.6830756299212597
21
-3.5441751181102363
0
LINE
8
BLACK
6
CONTINUOUS
10
6.6830756299212597
20
-3.5441751181102363
11
6.6794972440944882
21
-3.5360172440944879
0
LINE
8
BLACK
6
CONTINUOUS
10
6.6794972440944882
20
-3.5360172440944879
11
6.6773104330708657
21
-3.5273816929133859
0
LINE
8
BLACK
6
CONTINUOUS
10
6.6773104330708657
20
-3.5273816929133859
11
6.6765748031496059
21
-3.5185039370078739
0
LINE
8
BLACK
6
CONTINUOUS
10
6.6765748031496059
20
-3.5185039370078739
11
6.6773104330708657
21
-3.5096261811023619
0
LINE
8
BLACK
6
CONTINUOUS
10
6.6773104330708657
20
-3.5096261811023619
11
6.6794972440944882
21
-3.5009906299212599
0
LINE
8
BLACK
6
CONTINUOUS
10
6.6794972440944882
20
-3.5009906299212599
11
6.6830756299212597
21
-3.4928327559055119
0
LINE
8
BLACK
6
CONTINUOUS
10
6.6830756299212597
20
-3.4928327559055119
11
6.6879479527559056
21
-3.4853751574803149
0
LINE
8
BLACK
6
CONTINUOUS
10
6.6879479527559056
20
-3.4853751574803149
11
6.6939812598425199
21
-3.4788211811023619
0
LINE
8
BLACK
6
CONTINUOUS
10
6.6939812598425199
20
-3.4788211811023619
11
6.7010110629921256
21
-3.4733496850393699
0
LINE
8
BLACK
6
CONTINUOUS
10
6.7010110629921256
20
-3.4733496850393699
11
6.7088455511811018
21
-3.4691098818897639
0
LINE
8
BLACK
6
CONTINUOUS
10
6.7088455511811018
20
-3.4691098818897639
11
6.7172710629921255
21
-3.4662174015748031
0
LINE
8
BLACK
6
CONTINUOUS
10
6.7172710629921255
20
-3.4662174015748031
11
6.7260577165354327
21
-3.4647511417322834
0
LINE
8
BLACK
6
CONTINUOUS
10
6.7260577165354327
20
-3.4647511417322834
11
6.7349659055118112
21
-3.4647511417322834
0
LINE
8
BLACK
6
CONTINUOUS
10
6.7349659055118112
20
-3.4647511417322834
11
6.7437525590551184
21
-3.4662174015748031
0
LINE
8
BLACK
6
CONTINUOUS
10
5.5425788582677162
20
-3.3760927165354331
11
5.5501664173228349
21
-3.3790321653543307
0
LINE
8
BLACK
6
CONTINUOUS
10
5.5501664173228349
20
-3.3790321653543307
11
5.5570846850393698
21
-3.3833157874015747
0
LINE
8
BLACK
6
CONTINUOUS
10
5.5570846850393698
20
-3.3833157874015747
11
5.5630980314960627
21
-3.3887976771653543
0
LINE
8
BLACK
6
CONTINUOUS
10
5.5630980314960627
20
-3.3887976771653543
11
5.568001692913386
21
-3.3952911811023623
0
LINE
8
BLACK
6
CONTINUOUS
10
5.568001692913386
20
-3.3952911811023623
11
5.571628700787401
21
-3.4025751574803147
0
LINE
8
BLACK
6
CONTINUOUS
10
5.571628700787401
20
-3.4025751574803147
11
5.5738555118110238
21
-3.4104016141732281
0
LINE
8
BLACK
6
CONTINUOUS
10
5.5738555118110238
20
-3.4104016141732281
11
5.574606299212598
21
-3.4185039370078738
0
LINE
8
BLACK
6
CONTINUOUS
10
5.574606299212598
20
-3.4185039370078738
11
5.5738555118110238
21
-3.4266062598425195
0
LINE
8
BLACK
6
CONTINUOUS
10
5.5738555118110238
20
-3.4266062598425195
11
5.571628700787401
21
-3.4344327165354329
0
LINE
8
BLACK
6
CONTINUOUS
10
5.571628700787401
20
-3.4344327165354329
11
5.568001692913386
21
-3.4417166929133858
0
LINE
8
BLACK
6
CONTINUOUS
10
5.568001692913386
20
-3.4417166929133858
11
5.5630980314960627
21
-3.4482101968503938
0
LINE
8
BLACK
6
CONTINUOUS
10
5.5630980314960627
20
-3.4482101968503938
11
5.5570846850393698
21
-3.4536920866141729
0
LINE
8
BLACK
6
CONTINUOUS
10
5.5570846850393698
20
-3.4536920866141729
11
5.5501664173228349
21
-3.4579757086614173
0
LINE
8
BLACK
6
CONTINUOUS
10
5.5501664173228349
20
-3.4579757086614173
11
5.5425788582677162
21
-3.460915157480315
0
LINE
8
BLACK
6
CONTINUOUS
10
5.5425788582677162
20
-3.460915157480315
11
5.5345803543307088
21
-3.4624103149606298
0
LINE
8
BLACK
6
CONTINUOUS
10
5.5345803543307088
20
-3.4624103149606298
11
5.5264432677165356
21
-3.4624103149606298
0
LINE
8
BLACK
6
CONTINUOUS
10
5.5264432677165356
20
-3.4624103149606298
11
5.5184447637795273
21
-3.460915157480315
0
LINE
8
BLACK
6
CONTINUOUS
10
5.5184447637795273
20
-3.460915157480315
11
5.5108572047244095
21
-3.4579757086614173
0
LINE
8
BLACK
6
CONTINUOUS
10
5.5108572047244095
20
-3.4579757086614173
11
5.5039389370078737
21
-3.4536920866141729
0
LINE
8
BLACK
6
CONTINUOUS
10
5.5039389370078737
20
-3.4536920866141729
11
5.4979255905511808
21
-3.4482101968503938
0
LINE
8
BLACK
6
CONTINUOUS
10
5.4979255905511808
20
-3.4482101968503938
11
5.4930219291338584
21
-3.4417166929133858
0
LINE
8
BLACK
6
CONTINUOUS
10
5.4930219291338584
20
-3.4417166929133858
11
5.4893949212598425
21
-3.4344327165354329
0
LINE
8
BLACK
6
CONTINUOUS
10
5.4893949212598425
20
-3.4344327165354329
11
5.4871681102362206
21
-3.4266062598425195
0
LINE
8
BLACK
6
CONTINUOUS
10
5.4871681102362206
20
-3.4266062598425195
11
5.4864173228346456
21
-3.4185039370078738
0
LINE
8
BLACK
6
CONTINUOUS
10
5.4864173228346456
20
-3.4185039370078738
11
5.4871681102362206
21
-3.4104016141732281
0
LINE
8
BLACK
6
CONTINUOUS
10
5.4871681102362206
20
-3.4104016141732281
11
5.4893949212598425
21
-3.4025751574803147
0
LINE
8
BLACK
6
CONTINUOUS
10
5.4893949212598425
20
-3.4025751574803147
11
5.4930219291338584
21
-3.3952911811023623
0
LINE
8
BLACK
6
CONTINUOUS
10
5.4930219291338584
20
-3.3952911811023623
11
5.4979255905511808
21
-3.3887976771653543
0
LINE
8
BLACK
6
CONTINUOUS
10
5.4979255905511808
20
-3.3887976771653543
11
5.5039389370078737
21
-3.3833157874015747
0
LINE
8
BLACK
6
CONTINUOUS
10
5.5039389370078737
20
-3.3833157874015747
11
5.5108572047244095
21
-3.3790321653543307
0
LINE
8
BLACK
6
CONTINUOUS
10
5.5108572047244095
20
-3.3790321653543307
11
5.5184447637795273
21
-3.3760927165354331
0
LINE
8
BLACK
6
CONTINUOUS
10
5.5184447637795273
20
-3.3760927165354331
11
5.5264432677165356
21
-3.3745975590551178
0
LINE
8
BLACK
6
CONTINUOUS
10
5.5264432677165356
20
-3.3745975590551178
11
5.5345803543307088
21
-3.3745975590551178
0
LINE
8
BLACK
6
CONTINUOUS
10
5.5345803543307088
20
-3.3745975590551178
11
5.5425788582677162
21
-3.3760927165354331
0
LINE
8
BLACK
6
CONTINUOUS
10
6.6425788582677168
20
-3.3760927165354331
11
6.6501664173228345
21
-3.3790321653543307
0
LINE
8
BLACK
6
CONTINUOUS
10
6.6501664173228345
20
-3.3790321653543307
11
6.6570846850393703
21
-3.3833157874015747
0
LINE
8
BLACK
6
CONTINUOUS
10
6.6570846850393703
20
-3.3833157874015747
11
6.6630980314960633
21
-3.3887976771653543
0
LINE
8
BLACK
6
CONTINUOUS
10
6.6630980314960633
20
-3.3887976771653543
11
6.6680016929133856
21
-3.3952911811023623
0
LINE
8
BLACK
6
CONTINUOUS
10
6.6680016929133856
20
-3.3952911811023623
11
6.6716287007874016
21
-3.4025751574803147
0
LINE
8
BLACK
6
CONTINUOUS
10
6.6716287007874016
20
-3.4025751574803147
11
6.6738555118110234
21
-3.4104016141732281
0
LINE
8
BLACK
6
CONTINUOUS
10
6.6738555118110234
20
-3.4104016141732281
11
6.6746062992125985
21
-3.4185039370078738
0
LINE
8
BLACK
6
CONTINUOUS
10
6.6746062992125985
20
-3.4185039370078738
11
6.6738555118110234
21
-3.4266062598425195
0
LINE
8
BLACK
6
CONTINUOUS
10
6.6738555118110234
20
-3.4266062598425195
11
6.6716287007874016
21
-3.4344327165354329
0
LINE
8
BLACK
6
CONTINUOUS
10
6.6716287007874016
20
-3.4344327165354329
11
6.6680016929133856
21
-3.4417166929133858
0
LINE
8
BLACK
6
CONTINUOUS
10
6.6680016929133856
20
-3.4417166929133858
11
6.6630980314960633
21
-3.4482101968503938
0
LINE
8
BLACK
6
CONTINUOUS
10
6.6630980314960633
20
-3.4482101968503938
11
6.6570846850393703
21
-3.4536920866141729
0
LINE
8
BLACK
6
CONTINUOUS
10
6.6570846850393703
20
-3.4536920866141729
11
6.6501664173228345
21
-3.4579757086614173
0
LINE
8
BLACK
6
CONTINUOUS
10
6.6501664173228345
20
-3.4579757086614173
11
6.6425788582677168
21
-3.460915157480315
0
LINE
8
BLACK
6
CONTINUOUS
10
6.6425788582677168
20
-3.460915157480315
11
6.6345803543307085
21
-3.4624103149606298
0
LINE
8
BLACK
6
CONTINUOUS
10
6.6345803543307085
20
-3.4624103149606298
11
6.6264432677165352
21
-3.4624103149606298
0
LINE
8
BLACK
6
CONTINUOUS
10
6.6264432677165352
20
-3.4624103149606298
11
6.6184447637795278
21
-3.460915157480315
0
LINE
8
BLACK
6
CONTINUOUS
10
6.6184447637795278
20
-3.460915157480315
11
6.6108572047244092
21
-3.4579757086614173
0
LINE
8
BLACK
6
CONTINUOUS
10
6.6108572047244092
20
-3.4579757086614173
11
6.6039389370078743
21
-3.4536920866141729
0
LINE
8
BLACK
6
CONTINUOUS
10
6.6039389370078743
20
-3.4536920866141729
11
6.5979255905511813
21
-3.4482101968503938
0
LINE
8
BLACK
6
CONTINUOUS
10
6.5979255905511813
20
-3.4482101968503938
11
6.5930219291338581
21
-3.4417166929133858
0
LINE
8
BLACK
6
CONTINUOUS
10
6.5930219291338581
20
-3.4417166929133858
11
6.5893949212598422
21
-3.4344327165354329
0
LINE
8
BLACK
6
CONTINUOUS
10
6.5893949212598422
20
-3.4344327165354329
11
6.5871681102362203
21
-3.4266062598425195
0
LINE
8
BLACK
6
CONTINUOUS
10
6.5871681102362203
20
-3.4266062598425195
11
6.5864173228346452
21
-3.4185039370078738
0
LINE
8
BLACK
6
CONTINUOUS
10
6.5864173228346452
20
-3.4185039370078738
11
6.5871681102362203
21
-3.4104016141732281
0
LINE
8
BLACK
6
CONTINUOUS
10
6.5871681102362203
20
-3.4104016141732281
11
6.5893949212598422
21
-3.4025751574803147
0
LINE
8
BLACK
6
CONTINUOUS
10
6.5893949212598422
20
-3.4025751574803147
11
6.5930219291338581
21
-3.3952911811023623
0
LINE
8
BLACK
6
CONTINUOUS
10
6.5930219291338581
20
-3.3952911811023623
11
6.5979255905511813
21
-3.3887976771653543
0
LINE
8
BLACK
6
CONTINUOUS
10
6.5979255905511813
20
-3.3887976771653543
11
6.6039389370078743
21
-3.3833157874015747
0
LINE
8
BLACK
6
CONTINUOUS
10
6.6039389370078743
20
-3.3833157874015747
11
6.6108572047244092
21
-3.3790321653543307
0
LINE
8
BLACK
6
CONTINUOUS
10
6.6108572047244092
20
-3.3790321653543307
11
6.6184447637795278
21
-3.3760927165354331
0
LINE
8
BLACK
6
CONTINUOUS
10
6.6184447637795278
20
-3.3760927165354331
11
6.6264432677165352
21
-3.3745975590551178
0
LINE
8
BLACK
6
CONTINUOUS
10
6.6264432677165352
20
-3.3745975590551178
11
6.6345803543307085
21
-3.3745975590551178
0
LINE
8
BLACK
6
CONTINUOUS
10
6.6345803543307085
20
-3.3745975590551178
11
6.6425788582677168
21
-3.3760927165354331
0
LINE
8
BLACK
6
CONTINUOUS
10
5.4437525590551177
20
-3.2662174015748029
11
5.4521780708661414
21
-3.2691098818897637
0
LINE
8
BLACK
6
CONTINUOUS
10
5.4521780708661414
20
-3.2691098818897637
11
5.4600125590551176
21
-3.2733496850393702
0
LINE
8
BLACK
6
CONTINUOUS
10
5.4600125590551176
20
-3.2733496850393702
11
5.4670423622047242
21
-3.2788211811023622
0
LINE
8
BLACK
6
CONTINUOUS
10
5.4670423622047242
20
-3.2788211811023622
11
5.4730756692913385
21
-3.2853751574803147
0
LINE
8
BLACK
6
CONTINUOUS
10
5.4730756692913385
20
-3.2853751574803147
11
5.4779479921259844
21
-3.2928327559055117
0
LINE
8
BLACK
6
CONTINUOUS
10
5.4779479921259844
20
-3.2928327559055117
11
5.4815263779527559
21
-3.3009906299212597
0
LINE
8
BLACK
6
CONTINUOUS
10
5.4815263779527559
20
-3.3009906299212597
11
5.4837131889763775
21
-3.3096261811023622
0
LINE
8
BLACK
6
CONTINUOUS
10
5.4837131889763775
20
-3.3096261811023622
11
5.4844488188976372
21
-3.3185039370078742
0
LINE
8
BLACK
6
CONTINUOUS
10
5.4844488188976372
20
-3.3185039370078742
11
5.4837131889763775
21
-3.3273816929133857
0
LINE
8
BLACK
6
CONTINUOUS
10
5.4837131889763775
20
-3.3273816929133857
11
5.4815263779527559
21
-3.3360172440944882
0
LINE
8
BLACK
6
CONTINUOUS
10
5.4815263779527559
20
-3.3360172440944882
11
5.4779479921259844
21
-3.3441751181102362
0
LINE
8
BLACK
6
CONTINUOUS
10
5.4779479921259844
20
-3.3441751181102362
11
5.4730756692913385
21
-3.3516327165354332
0
LINE
8
BLACK
6
CONTINUOUS
10
5.4730756692913385
20
-3.3516327165354332
11
5.4670423622047242
21
-3.3581866929133857
0
LINE
8
BLACK
6
CONTINUOUS
10
5.4670423622047242
20
-3.3581866929133857
11
5.4600125590551176
21
-3.3636581889763777
0
LINE
8
BLACK
6
CONTINUOUS
10
5.4600125590551176
20
-3.3636581889763777
11
5.4521780708661414
21
-3.3678979921259842
0
LINE
8
BLACK
6
CONTINUOUS
10
5.4521780708661414
20
-3.3678979921259842
11
5.4437525590551177
21
-3.370790472440945
0
LINE
8
BLACK
6
CONTINUOUS
10
5.4437525590551177
20
-3.370790472440945
11
5.4349659055118105
21
-3.3722567322834647
0
LINE
8
BLACK
6
CONTINUOUS
10
5.4349659055118105
20
-3.3722567322834647
11
5.4260577165354329
21
-3.3722567322834647
0
LINE
8
BLACK
6
CONTINUOUS
10
5.4260577165354329
20
-3.3722567322834647
11
5.4172710629921257
21
-3.370790472440945
0
LINE
8
BLACK
6
CONTINUOUS
10
5.4172710629921257
20
-3.370790472440945
11
5.408845551181102
21
-3.3678979921259842
0
LINE
8
BLACK
6
CONTINUOUS
10
5.408845551181102
20
-3.3678979921259842
11
5.4010110629921257
21
-3.3636581889763777
0
LINE
8
BLACK
6
CONTINUOUS
10
5.4010110629921257
20
-3.3636581889763777
11
5.3939812598425192
21
-3.3581866929133857
0
LINE
8
BLACK
6
CONTINUOUS
10
5.3939812598425192
20
-3.3581866929133857
11
5.3879479527559058
21
-3.3516327165354332
0
LINE
8
BLACK
6
CONTINUOUS
10
5.3879479527559058
20
-3.3516327165354332
11
5.3830756299212599
21
-3.3441751181102362
0
LINE
8
BLACK
6
CONTINUOUS
10
5.3830756299212599
20
-3.3441751181102362
11
5.3794972440944884
21
-3.3360172440944882
0
LINE
8
BLACK
6
CONTINUOUS
10
5.3794972440944884
20
-3.3360172440944882
11
5.3773104330708659
21
-3.3273816929133857
0
LINE
8
BLACK
6
CONTINUOUS
10
5.3773104330708659
20
-3.3273816929133857
11
5.3765748031496061
21
-3.3185039370078742
0
LINE
8
BLACK
6
CONTINUOUS
10
5.3765748031496061
20
-3.3185039370078742
11
5.3773104330708659
21
-3.3096261811023622
0
LINE
8
BLACK
6
CONTINUOUS
10
5.3773104330708659
20
-3.3096261811023622
11
5.3794972440944884
21
-3.3009906299212597
0
LINE
8
BLACK
6
CONTINUOUS
10
5.3794972440944884
20
-3.3009906299212597
11
5.3830756299212599
21
-3.2928327559055117
0
LINE
8
BLACK
6
CONTINUOUS
10
5.3830756299212599
20
-3.2928327559055117
11
5.3879479527559058
21
-3.2853751574803147
0
LINE
8
BLACK
6
CONTINUOUS
10
5.3879479527559058
20
-3.2853751574803147
11
5.3939812598425192
21
-3.2788211811023622
0
LINE
8
BLACK
6
CONTINUOUS
10
5.3939812598425192
20
-3.2788211811023622
11
5.4010110629921257
21
-3.2733496850393702
0
LINE
8
BLACK
6
CONTINUOUS
10
5.4010110629921257
20
-3.2733496850393702
11
5.408845551181102
21
-3.2691098818897637
0
LINE
8
BLACK
6
CONTINUOUS
10
5.408845551181102
20
-3.2691098818897637
11
5.4172710629921257
21
-3.2662174015748029
0
LINE
8
BLACK
6
CONTINUOUS
10
5.4172710629921257
20
-3.2662174015748029
11
5.4260577165354329
21
-3.2647511417322832
0
LINE
8
BLACK
6
CONTINUOUS
10
5.4260577165354329
20
-3.2647511417322832
11
5.4349659055118105
21
-3.2647511417322832
0
LINE
8
BLACK
6
CONTINUOUS
10
5.4349659055118105
20
-3.2647511417322832
11
5.4437525590551177
21
-3.2662174015748029
0
LINE
8
BLACK
6
CONTINUOUS
10
5.6437525590551179
20
-3.2662174015748029
11
5.6521780708661415
21
-3.2691098818897637
0
LINE
8
BLACK
6
CONTINUOUS
10
5.6521780708661415
20
-3.2691098818897637
11
5.6600125590551178
21
-3.2733496850393702
0
LINE
8
BLACK
6
CONTINUOUS
10
5.6600125590551178
20
-3.2733496850393702
11
5.6670423622047243
21
-3.2788211811023622
0
LINE
8
BLACK
6
CONTINUOUS
10
5.6670423622047243
20
-3.2788211811023622
11
5.6730756692913387
21
-3.2853751574803147
0
LINE
8
BLACK
6
CONTINUOUS
10
5.6730756692913387
20
-3.2853751574803147
11
5.6779479921259846
21
-3.2928327559055117
0
LINE
8
BLACK
6
CONTINUOUS
10
5.6779479921259846
20
-3.2928327559055117
11
5.6815263779527561
21
-3.3009906299212597
0
LINE
8
BLACK
6
CONTINUOUS
10
5.6815263779527561
20
-3.3009906299212597
11
5.6837131889763777
21
-3.3096261811023622
0
LINE
8
BLACK
6
CONTINUOUS
10
5.6837131889763777
20
-3.3096261811023622
11
5.6844488188976374
21
-3.3185039370078742
0
LINE
8
BLACK
6
CONTINUOUS
10
5.6844488188976374
20
-3.3185039370078742
11
5.6837131889763777
21
-3.3273816929133857
0
LINE
8
BLACK
6
CONTINUOUS
10
5.6837131889763777
20
-3.3273816929133857
11
5.6815263779527561
21
-3.3360172440944882
0
LINE
8
BLACK
6
CONTINUOUS
10
5.6815263779527561
20
-3.3360172440944882
11
5.6779479921259846
21
-3.3441751181102362
0
LINE
8
BLACK
6
CONTINUOUS
10
5.6779479921259846
20
-3.3441751181102362
11
5.6730756692913387
21
-3.3516327165354332
0
LINE
8
BLACK
6
CONTINUOUS
10
5.6730756692913387
20
-3.3516327165354332
11
5.6670423622047243
21
-3.3581866929133857
0
LINE
8
BLACK
6
CONTINUOUS
10
5.6670423622047243
20
-3.3581866929133857
11
5.6600125590551178
21
-3.3636581889763777
0
LINE
8
BLACK
6
CONTINUOUS
10
5.6600125590551178
20
-3.3636581889763777
11
5.6521780708661415
21
-3.3678979921259842
0
LINE
8
BLACK
6
CONTINUOUS
10
5.6521780708661415
20
-3.3678979921259842
11
5.6437525590551179
21
-3.370790472440945
0
LINE
8
BLACK
6
CONTINUOUS
10
5.6437525590551179
20
-3.370790472440945
11
5.6349659055118106
21
-3.3722567322834647
0
LINE
8
BLACK
6
CONTINUOUS
10
5.6349659055118106
20
-3.3722567322834647
11
5.6260577165354331
21
-3.3722567322834647
0
LINE
8
BLACK
6
CONTINUOUS
10
5.6260577165354331
20
-3.3722567322834647
11
5.6172710629921259
21
-3.370790472440945
0
LINE
8
BLACK
6
CONTINUOUS
10
5.6172710629921259
20
-3.370790472440945
11
5.6088455511811022
21
-3.3678979921259842
0
LINE
8
BLACK
6
CONTINUOUS
10
5.6088455511811022
20
-3.3678979921259842
11
5.6010110629921259
21
-3.3636581889763777
0
LINE
8
BLACK
6
CONTINUOUS
10
5.6010110629921259
20
-3.3636581889763777
11
5.5939812598425194
21
-3.3581866929133857
0
LINE
8
BLACK
6
CONTINUOUS
10
5.5939812598425194
20
-3.3581866929133857
11
5.5879479527559051
21
-3.3516327165354332
0
LINE
8
BLACK
6
CONTINUOUS
10
5.5879479527559051
20
-3.3516327165354332
11
5.5830756299212601
21
-3.3441751181102362
0
LINE
8
BLACK
6
CONTINUOUS
10
5.5830756299212601
20
-3.3441751181102362
11
5.5794972440944877
21
-3.3360172440944882
0
LINE
8
BLACK
6
CONTINUOUS
10
5.5794972440944877
20
-3.3360172440944882
11
5.577310433070866
21
-3.3273816929133857
0
LINE
8
BLACK
6
CONTINUOUS
10
5.577310433070866
20
-3.3273816929133857
11
5.5765748031496063
21
-3.3185039370078742
0
LINE
8
BLACK
6
CONTINUOUS
10
5.5765748031496063
20
-3.3185039370078742
11
5.577310433070866
21
-3.3096261811023622
0
LINE
8
BLACK
6
CONTINUOUS
10
5.577310433070866
20
-3.3096261811023622
11
5.5794972440944877
21
-3.3009906299212597
0
LINE
8
BLACK
6
CONTINUOUS
10
5.5794972440944877
20
-3.3009906299212597
11
5.5830756299212601
21
-3.2928327559055117
0
LINE
8
BLACK
6
CONTINUOUS
10
5.5830756299212601
20
-3.2928327559055117
11
5.5879479527559051
21
-3.2853751574803147
0
LINE
8
BLACK
6
CONTINUOUS
10
5.5879479527559051
20
-3.2853751574803147
11
5.5939812598425194
21
-3.2788211811023622
0
LINE
8
BLACK
6
CONTINUOUS
10
5.5939812598425194
20
-3.2788211811023622
11
5.6010110629921259
21
-3.2733496850393702
0
LINE
8
BLACK
6
CONTINUOUS
10
5.6010110629921259
20
-3.2733496850393702
11
5.6088455511811022
21
-3.2691098818897637
0
LINE
8
BLACK
6
CONTINUOUS
10
5.6088455511811022
20
-3.2691098818897637
11
5.6172710629921259
21
-3.2662174015748029
0
LINE
8
BLACK
6
CONTINUOUS
10
5.6172710629921259
20
-3.2662174015748029
11
5.6260577165354331
21
-3.2647511417322832
0
LINE
8
BLACK
6
CONTINUOUS
10
5.6260577165354331
20
-3.2647511417322832
11
5.6349659055118106
21
-3.2647511417322832
0
LINE
8
BLACK
6
CONTINUOUS
10
5.6349659055118106
20
-3.2647511417322832
11
5.6437525590551179
21
-3.2662174015748029
0
LINE
8
BLACK
6
CONTINUOUS
10
6.5437525590551182
20
-3.2662174015748029
11
6.5521780708661419
21
-3.2691098818897637
0
LINE
8
BLACK
6
CONTINUOUS
10
6.5521780708661419
20
-3.2691098818897637
11
6.5600125590551182
21
-3.2733496850393702
0
LINE
8
BLACK
6
CONTINUOUS
10
6.5600125590551182
20
-3.2733496850393702
11
6.5670423622047247
21
-3.2788211811023622
0
LINE
8
BLACK
6
CONTINUOUS
10
6.5670423622047247
20
-3.2788211811023622
11
6.5730756692913381
21
-3.2853751574803147
0
LINE
8
BLACK
6
CONTINUOUS
10
6.5730756692913381
20
-3.2853751574803147
11
6.577947992125984
21
-3.2928327559055117
0
LINE
8
BLACK
6
CONTINUOUS
10
6.577947992125984
20
-3.2928327559055117
11
6.5815263779527555
21
-3.3009906299212597
0
LINE
8
BLACK
6
CONTINUOUS
10
6.5815263779527555
20
-3.3009906299212597
11
6.583713188976378
21
-3.3096261811023622
0
LINE
8
BLACK
6
CONTINUOUS
10
6.583713188976378
20
-3.3096261811023622
11
6.5844488188976378
21
-3.3185039370078742
0
LINE
8
BLACK
6
CONTINUOUS
10
6.5844488188976378
20
-3.3185039370078742
11
6.583713188976378
21
-3.3273816929133857
0
LINE
8
BLACK
6
CONTINUOUS
10
6.583713188976378
20
-3.3273816929133857
11
6.5815263779527555
21
-3.3360172440944882
0
LINE
8
BLACK
6
CONTINUOUS
10
6.5815263779527555
20
-3.3360172440944882
11
6.577947992125984
21
-3.3441751181102362
0
LINE
8
BLACK
6
CONTINUOUS
10
6.577947992125984
20
-3.3441751181102362
11
6.5730756692913381
21
-3.3516327165354332
0
LINE
8
BLACK
6
CONTINUOUS
10
6.5730756692913381
20
-3.3516327165354332
11
6.5670423622047247
21
-3.3581866929133857
0
LINE
8
BLACK
6
CONTINUOUS
10
6.5670423622047247
20
-3.3581866929133857
11
6.5600125590551182
21
-3.3636581889763777
0
LINE
8
BLACK
6
CONTINUOUS
10
6.5600125590551182
20
-3.3636581889763777
11
6.5521780708661419
21
-3.3678979921259842
0
LINE
8
BLACK
6
CONTINUOUS
10
6.5521780708661419
20
-3.3678979921259842
11
6.5437525590551182
21
-3.370790472440945
0
LINE
8
BLACK
6
CONTINUOUS
10
6.5437525590551182
20
-3.370790472440945
11
6.534965905511811
21
-3.3722567322834647
0
LINE
8
BLACK
6
CONTINUOUS
10
6.534965905511811
20
-3.3722567322834647
11
6.5260577165354325
21
-3.3722567322834647
0
LINE
8
BLACK
6
CONTINUOUS
10
6.5260577165354325
20
-3.3722567322834647
11
6.5172710629921262
21
-3.370790472440945
0
LINE
8
BLACK
6
CONTINUOUS
10
6.5172710629921262
20
-3.370790472440945
11
6.5088455511811025
21
-3.3678979921259842
0
LINE
8
BLACK
6
CONTINUOUS
10
6.5088455511811025
20
-3.3678979921259842
11
6.5010110629921263
21
-3.3636581889763777
0
LINE
8
BLACK
6
CONTINUOUS
10
6.5010110629921263
20
-3.3636581889763777
11
6.4939812598425197
21
-3.3581866929133857
0
LINE
8
BLACK
6
CONTINUOUS
10
6.4939812598425197
20
-3.3581866929133857
11
6.4879479527559054
21
-3.3516327165354332
0
LINE
8
BLACK
6
CONTINUOUS
10
6.4879479527559054
20
-3.3516327165354332
11
6.4830756299212595
21
-3.3441751181102362
0
LINE
8
BLACK
6
CONTINUOUS
10
6.4830756299212595
20
-3.3441751181102362
11
6.479497244094488
21
-3.3360172440944882
0
LINE
8
BLACK
6
CONTINUOUS
10
6.479497244094488
20
-3.3360172440944882
11
6.4773104330708664
21
-3.3273816929133857
0
LINE
8
BLACK
6
CONTINUOUS
10
6.4773104330708664
20
-3.3273816929133857
11
6.4765748031496058
21
-3.3185039370078742
0
LINE
8
BLACK
6
CONTINUOUS
10
6.4765748031496058
20
-3.3185039370078742
11
6.4773104330708664
21
-3.3096261811023622
0
LINE
8
BLACK
6
CONTINUOUS
10
6.4773104330708664
20
-3.3096261811023622
11
6.479497244094488
21
-3.3009906299212597
0
LINE
8
BLACK
6
CONTINUOUS
10
6.479497244094488
20
-3.3009906299212597
11
6.4830756299212595
21
-3.2928327559055117
0
LINE
8
BLACK
6
CONTINUOUS
10
6.4830756299212595
20
-3.2928327559055117
11
6.4879479527559054
21
-3.2853751574803147
0
LINE
8
BLACK
6
CONTINUOUS
10
6.4879479527559054
20
-3.2853751574803147
11
6.4939812598425197
21
-3.2788211811023622
0
LINE
8
BLACK
6
CONTINUOUS
10
6.4939812598425197
20
-3.2788211811023622
11
6.5010110629921263
21
-3.2733496850393702
0
LINE
8
BLACK
6
CONTINUOUS
10
6.5010110629921263
20
-3.2733496850393702
11
6.5088455511811025
21
-3.2691098818897637
0
LINE
8
BLACK
6
CONTINUOUS
10
6.5088455511811025
20
-3.2691098818897637
11
6.5172710629921262
21
-3.2662174015748029
0
LINE
8
BLACK
6
CONTINUOUS
10
6.5172710629921262
20
-3.2662174015748029
11
6.5260577165354325
21
-3.2647511417322832
0
LINE
8
BLACK
6
CONTINUOUS
10
6.5260577165354325
20
-3.2647511417322832
11
6.534965905511811
21
-3.2647511417322832
0
LINE
8
BLACK
6
CONTINUOUS
10
6.534965905511811
20
-3.2647511417322832
11
6.5437525590551182
21
-3.2662174015748029
0
LINE
8
BLACK
6
CONTINUOUS
10
6.7437525590551184
20
-3.2662174015748029
11
6.7521780708661412
21
-3.2691098818897637
0
LINE
8
BLACK
6
CONTINUOUS
10
6.7521780708661412
20
-3.2691098818897637
11
6.7600125590551183
21
-3.2733496850393702
0
LINE
8
BLACK
6
CONTINUOUS
10
6.7600125590551183
20
-3.2733496850393702
11
6.767042362204724
21
-3.2788211811023622
0
LINE
8
BLACK
6
CONTINUOUS
10
6.767042362204724
20
-3.2788211811023622
11
6.7730756692913383
21
-3.2853751574803147
0
LINE
8
BLACK
6
CONTINUOUS
10
6.7730756692913383
20
-3.2853751574803147
11
6.7779479921259842
21
-3.2928327559055117
0
LINE
8
BLACK
6
CONTINUOUS
10
6.7779479921259842
20
-3.2928327559055117
11
6.7815263779527557
21
-3.3009906299212597
0
LINE
8
BLACK
6
CONTINUOUS
10
6.7815263779527557
20
-3.3009906299212597
11
6.7837131889763782
21
-3.3096261811023622
0
LINE
8
BLACK
6
CONTINUOUS
10
6.7837131889763782
20
-3.3096261811023622
11
6.784448818897638
21
-3.3185039370078742
0
LINE
8
BLACK
6
CONTINUOUS
10
6.784448818897638
20
-3.3185039370078742
11
6.7837131889763782
21
-3.3273816929133857
0
LINE
8
BLACK
6
CONTINUOUS
10
6.7837131889763782
20
-3.3273816929133857
11
6.7815263779527557
21
-3.3360172440944882
0
LINE
8
BLACK
6
CONTINUOUS
10
6.7815263779527557
20
-3.3360172440944882
11
6.7779479921259842
21
-3.3441751181102362
0
LINE
8
BLACK
6
CONTINUOUS
10
6.7779479921259842
20
-3.3441751181102362
11
6.7730756692913383
21
-3.3516327165354332
0
LINE
8
BLACK
6
CONTINUOUS
10
6.7730756692913383
20
-3.3516327165354332
11
6.767042362204724
21
-3.3581866929133857
0
LINE
8
BLACK
6
CONTINUOUS
10
6.767042362204724
20
-3.3581866929133857
11
6.7600125590551183
21
-3.3636581889763777
0
LINE
8
BLACK
6
CONTINUOUS
10
6.7600125590551183
20
-3.3636581889763777
11
6.7521780708661412
21
-3.3678979921259842
0
LINE
8
BLACK
6
CONTINUOUS
10
6.7521780708661412
20
-3.3678979921259842
11
6.7437525590551184
21
-3.370790472440945
0
LINE
8
BLACK
6
CONTINUOUS
10
6.7437525590551184
20
-3.370790472440945
11
6.7349659055118112
21
-3.3722567322834647
0
LINE
8
BLACK
6
CONTINUOUS
10
6.7349659055118112
20
-3.3722567322834647
11
6.7260577165354327
21
-3.3722567322834647
0
LINE
8
BLACK
6
CONTINUOUS
10
6.7260577165354327
20
-3.3722567322834647
11
6.7172710629921255
21
-3.370790472440945
0
LINE
8
BLACK
6
CONTINUOUS
10
6.7172710629921255
20
-3.370790472440945
11
6.7088455511811018
21
-3.3678979921259842
0
LINE
8
BLACK
6
CONTINUOUS
10
6.7088455511811018
20
-3.3678979921259842
11
6.7010110629921256
21
-3.3636581889763777
0
LINE
8
BLACK
6
CONTINUOUS
10
6.7010110629921256
20
-3.3636581889763777
11
6.6939812598425199
21
-3.3581866929133857
0
LINE
8
BLACK
6
CONTINUOUS
10
6.6939812598425199
20
-3.3581866929133857
11
6.6879479527559056
21
-3.3516327165354332
0
LINE
8
BLACK
6
CONTINUOUS
10
6.6879479527559056
20
-3.3516327165354332
11
6.6830756299212597
21
-3.3441751181102362
0
LINE
8
BLACK
6
CONTINUOUS
10
6.6830756299212597
20
-3.3441751181102362
11
6.6794972440944882
21
-3.3360172440944882
0
LINE
8
BLACK
6
CONTINUOUS
10
6.6794972440944882
20
-3.3360172440944882
11
6.6773104330708657
21
-3.3273816929133857
0
LINE
8
BLACK
6
CONTINUOUS
10
6.6773104330708657
20
-3.3273816929133857
11
6.6765748031496059
21
-3.3185039370078742
0
LINE
8
BLACK
6
CONTINUOUS
10
6.6765748031496059
20
-3.3185039370078742
11
6.6773104330708657
21
-3.3096261811023622
0
LINE
8
BLACK
6
CONTINUOUS
10
6.6773104330708657
20
-3.3096261811023622
11
6.6794972440944882
21
-3.3009906299212597
0
LINE
8
BLACK
6
CONTINUOUS
10
6.6794972440944882
20
-3.3009906299212597
11
6.6830756299212597
21
-3.2928327559055117
0
LINE
8
BLACK
6
CONTINUOUS
10
6.6830756299212597
20
-3.2928327559055117
11
6.6879479527559056
21
-3.2853751574803147
0
LINE
8
BLACK
6
CONTINUOUS
10
6.6879479527559056
20
-3.2853751574803147
11
6.6939812598425199
21
-3.2788211811023622
0
LINE
8
BLACK
6
CONTINUOUS
10
6.6939812598425199
20
-3.2788211811023622
11
6.7010110629921256
21
-3.2733496850393702
0
LINE
8
BLACK
6
CONTINUOUS
10
6.7010110629921256
20
-3.2733496850393702
11
6.7088455511811018
21
-3.2691098818897637
0
LINE
8
BLACK
6
CONTINUOUS
10
6.7088455511811018
20
-3.2691098818897637
11
6.7172710629921255
21
-3.2662174015748029
0
LINE
8
BLACK
6
CONTINUOUS
10
6.7172710629921255
20
-3.2662174015748029
11
6.7260577165354327
21
-3.2647511417322832
0
LINE
8
BLACK
6
CONTINUOUS
10
6.7260577165354327
20
-3.2647511417322832
11
6.7349659055118112
21
-3.2647511417322832
0
LINE
8
BLACK
6
CONTINUOUS
10
6.7349659055118112
20
-3.2647511417322832
11
6.7437525590551184
21
-3.2662174015748029
0
LINE
8
BLACK
6
CONTINUOUS
10
6.0855118110236219
20
-3.1985039370078741
11
6.0255118110236223
21
-3.1985039370078741
0
LINE
8
BLACK
6
CONTINUOUS
10
6.0255118110236223
20
-3.1985039370078741
11
6.0255118110236223
21
-3.138503937007874
0
LINE
8
BLACK
6
CONTINUOUS
10
6.0255118110236223
20
-3.138503937007874
11
6.0855118110236219
21
-3.138503937007874
0
LINE
8
BLACK
6
CONTINUOUS
10
6.0855118110236219
20
-3.138503937007874
11
6.0855118110236219
21
-3.1985039370078741
0
LINE
8
BLACK
6
CONTINUOUS
10
6.1855118110236216
20
-3.1985039370078741
11
6.125511811023622
21
-3.1985039370078741
0
LINE
8
BLACK
6
CONTINUOUS
10
6.125511811023622
20
-3.1985039370078741
11
6.125511811023622
21
-3.138503937007874
0
LINE
8
BLACK
6
CONTINUOUS
10
6.125511811023622
20
-3.138503937007874
11
6.1855118110236216
21
-3.138503937007874
0
LINE
8
BLACK
6
CONTINUOUS
10
6.1855118110236216
20
-3.138503937007874
11
6.1855118110236216
21
-3.1985039370078741
0
LINE
8
BLACK
6
CONTINUOUS
10
6.2855118110236221
20
-3.1985039370078741
11
6.2255118110236216
21
-3.1985039370078741
0
LINE
8
BLACK
6
CONTINUOUS
10
6.2255118110236216
20
-3.1985039370078741
11
6.2255118110236216
21
-3.138503937007874
0
LINE
8
BLACK
6
CONTINUOUS
10
6.2255118110236216
20
-3.138503937007874
11
6.2855118110236221
21
-3.138503937007874
0
LINE
8
BLACK
6
CONTINUOUS
10
6.2855118110236221
20
-3.138503937007874
11
6.2855118110236221
21
-3.1985039370078741
0
LINE
8
BLACK
6
CONTINUOUS
10
6.3855118110236218
20
-3.1985039370078741
11
6.3255118110236221
21
-3.1985039370078741
0
LINE
8
BLACK
6
CONTINUOUS
10
6.3255118110236221
20
-3.1985039370078741
11
6.3255118110236221
21
-3.138503937007874
0
LINE
8
BLACK
6
CONTINUOUS
10
6.3255118110236221
20
-3.138503937007874
11
6.3855118110236218
21
-3.138503937007874
0
LINE
8
BLACK
6
CONTINUOUS
10
6.3855118110236218
20
-3.138503937007874
11
6.3855118110236218
21
-3.1985039370078741
0
LINE
8
BLACK
6
CONTINUOUS
10
5.5010214566929134
20
-2.9271880708661415
11
5.5143862204724412
21
-2.9303555511811021
0
LINE
8
BLACK
6
CONTINUOUS
10
5.5143862204724412
20
-2.9303555511811021
11
5.5272928740157479
21
-2.9350532283464568
0
LINE
8
BLACK
6
CONTINUOUS
10
5.5272928740157479
20
-2.9350532283464568
11
5.5395669291338585
21
-2.9412174803149607
0
LINE
8
BLACK
6
CONTINUOUS
10
5.5395669291338585
20
-2.9412174803149607
11
5.5510423622047247
21
-2.9487649606299211
0
LINE
8
BLACK
6
CONTINUOUS
10
5.5510423622047247
20
-2.9487649606299211
11
5.5615639763779523
21
-2.9575936614173228
0
LINE
8
BLACK
6
CONTINUOUS
10
5.5615639763779523
20
-2.9575936614173228
11
5.5709894881889763
21
-2.9675841338582676
0
LINE
8
BLACK
6
CONTINUOUS
10
5.5709894881889763
20
-2.9675841338582676
11
5.5791914566929135
21
-2.9786012992125985
0
LINE
8
BLACK
6
CONTINUOUS
10
5.5791914566929135
20
-2.9786012992125985
11
5.5860589763779522
21
-2.9904961417322835
0
LINE
8
BLACK
6
CONTINUOUS
10
5.5860589763779522
20
-2.9904961417322835
11
5.5914991338582674
21
-3.0031078740157477
0
LINE
8
BLACK
6
CONTINUOUS
10
5.5914991338582674
20
-3.0031078740157477
11
5.5954383858267711
21
-3.0162658267716536
0
LINE
8
BLACK
6
CONTINUOUS
10
5.5954383858267711
20
-3.0162658267716536
11
5.5978234251968502
21
-3.0297921653543307
0
LINE
8
BLACK
6
CONTINUOUS
10
5.5978234251968502
20
-3.0297921653543307
11
5.5986220472440946
21
-3.0435039370078738
0
LINE
8
BLACK
6
CONTINUOUS
10
5.5986220472440946
20
-3.0435039370078738
11
5.5978234251968502
21
-3.0572157086614173
0
LINE
8
BLACK
6
CONTINUOUS
10
5.5978234251968502
20
-3.0572157086614173
11
5.5954383858267711
21
-3.0707420472440945
0
LINE
8
BLACK
6
CONTINUOUS
10
5.5954383858267711
20
-3.0707420472440945
11
5.5914991338582674
21
-3.0838999999999999
0
LINE
8
BLACK
6
CONTINUOUS
10
5.5914991338582674
20
-3.0838999999999999
11
5.5860589763779522
21
-3.0965117322834645
0
LINE
8
BLACK
6
CONTINUOUS
10
5.5860589763779522
20
-3.0965117322834645
11
5.5791914566929135
21
-3.1084065748031495
0
LINE
8
BLACK
6
CONTINUOUS
10
5.5791914566929135
20
-3.1084065748031495
11
5.5709894881889763
21
-3.11942374015748
0
LINE
8
BLACK
6
CONTINUOUS
10
5.5709894881889763
20
-3.11942374015748
11
5.5615639763779523
21
-3.1294142125984252
0
LINE
8
BLACK
6
CONTINUOUS
10
5.5615639763779523
20
-3.1294142125984252
11
5.5510423622047247
21
-3.1382429133858265
0
LINE
8
BLACK
6
CONTINUOUS
10
5.5510423622047247
20
-3.1382429133858265
11
5.5395669291338585
21
-3.1457903937007874
0
LINE
8
BLACK
6
CONTINUOUS
10
5.5395669291338585
20
-3.1457903937007874
11
5.5272928740157479
21
-3.1519546456692913
0
LINE
8
BLACK
6
CONTINUOUS
10
5.5272928740157479
20
-3.1519546456692913
11
5.5143862204724412
21
-3.1566523228346455
0
LINE
8
BLACK
6
CONTINUOUS
10
5.5143862204724412
20
-3.1566523228346455
11
5.5010214566929134
21
-3.1598198031496061
0
LINE
8
BLACK
6
CONTINUOUS
10
5.5010214566929134
20
-3.1598198031496061
11
5.4873792913385824
21
-3.1614143307086615
0
LINE
8
BLACK
6
CONTINUOUS
10
5.4873792913385824
20
-3.1614143307086615
11
5.4736443307086615
21
-3.1614143307086615
0
LINE
8
BLACK
6
CONTINUOUS
10
5.4736443307086615
20
-3.1614143307086615
11
5.4600021653543305
21
-3.1598198031496061
0
LINE
8
BLACK
6
CONTINUOUS
10
5.4600021653543305
20
-3.1598198031496061
11
5.4466374015748027
21
-3.1566523228346455
0
LINE
8
BLACK
6
CONTINUOUS
10
5.4466374015748027
20
-3.1566523228346455
11
5.433730748031496
21
-3.1519546456692913
0
LINE
8
BLACK
6
CONTINUOUS
10
5.433730748031496
20
-3.1519546456692913
11
5.4214566929133854
21
-3.1457903937007874
0
LINE
8
BLACK
6
CONTINUOUS
10
5.4214566929133854
20
-3.1457903937007874
11
5.4099812598425192
21
-3.1382429133858265
0
LINE
8
BLACK
6
CONTINUOUS
10
5.4099812598425192
20
-3.1382429133858265
11
5.3994596456692916
21
-3.1294142125984252
0
LINE
8
BLACK
6
CONTINUOUS
10
5.3994596456692916
20
-3.1294142125984252
11
5.3900341338582676
21
-3.11942374015748
0
LINE
8
BLACK
6
CONTINUOUS
10
5.3900341338582676
20
-3.11942374015748
11
5.3818321653543304
21
-3.1084065748031495
0
LINE
8
BLACK
6
CONTINUOUS
10
5.3818321653543304
20
-3.1084065748031495
11
5.3749646456692908
21
-3.0965117322834645
0
LINE
8
BLACK
6
CONTINUOUS
10
5.3749646456692908
20
-3.0965117322834645
11
5.3695244881889765
21
-3.0838999999999999
0
LINE
8
BLACK
6
CONTINUOUS
10
5.3695244881889765
20
-3.0838999999999999
11
5.3655852362204719
21
-3.0707420472440945
0
LINE
8
BLACK
6
CONTINUOUS
10
5.3655852362204719
20
-3.0707420472440945
11
5.3632001968503937
21
-3.0572157086614173
0
LINE
8
BLACK
6
CONTINUOUS
10
5.3632001968503937
20
-3.0572157086614173
11
5.3624015748031493
21
-3.0435039370078738
0
LINE
8
BLACK
6
CONTINUOUS
10
5.3624015748031493
20
-3.0435039370078738
11
5.3632001968503937
21
-3.0297921653543307
0
LINE
8
BLACK
6
CONTINUOUS
10
5.3632001968503937
20
-3.0297921653543307
11
5.3655852362204719
21
-3.0162658267716536
0
LINE
8
BLACK
6
CONTINUOUS
10
5.3655852362204719
20
-3.0162658267716536
11
5.3695244881889765
21
-3.0031078740157477
0
LINE
8
BLACK
6
CONTINUOUS
10
5.3695244881889765
20
-3.0031078740157477
11
5.3749646456692908
21
-2.9904961417322835
0
LINE
8
BLACK
6
CONTINUOUS
10
5.3749646456692908
20
-2.9904961417322835
11
5.3818321653543304
21
-2.9786012992125985
0
LINE
8
BLACK
6
CONTINUOUS
10
5.3818321653543304
20
-2.9786012992125985
11
5.3900341338582676
21
-2.9675841338582676
0
LINE
8
BLACK
6
CONTINUOUS
10
5.3900341338582676
20
-2.9675841338582676
11
5.3994596456692916
21
-2.9575936614173228
0
LINE
8
BLACK
6
CONTINUOUS
10
5.3994596456692916
20
-2.9575936614173228
11
5.4099812598425192
21
-2.9487649606299211
0
LINE
8
BLACK
6
CONTINUOUS
10
5.4099812598425192
20
-2.9487649606299211
11
5.4214566929133854
21
-2.9412174803149607
0
LINE
8
BLACK
6
CONTINUOUS
10
5.4214566929133854
20
-2.9412174803149607
11
5.433730748031496
21
-2.9350532283464568
0
LINE
8
BLACK
6
CONTINUOUS
10
5.433730748031496
20
-2.9350532283464568
11
5.4466374015748027
21
-2.9303555511811021
0
LINE
8
BLACK
6
CONTINUOUS
10
5.4466374015748027
20
-2.9303555511811021
11
5.4600021653543305
21
-2.9271880708661415
0
LINE
8
BLACK
6
CONTINUOUS
10
5.4600021653543305
20
-2.9271880708661415
11
5.4736443307086615
21
-2.9255935433070865
0
LINE
8
BLACK
6
CONTINUOUS
10
5.4736443307086615
20
-2.9255935433070865
11
5.4873792913385824
21
-2.9255935433070865
0
LINE
8
BLACK
6
CONTINUOUS
10
5.4873792913385824
20
-2.9255935433070865
11
5.5010214566929134
21
-2.9271880708661415
0
LINE
8
BLACK
6
CONTINUOUS
10
6.7010214566929136
20
-2.9271880708661415
11
6.7143862204724405
21
-2.9303555511811021
0
LINE
8
BLACK
6
CONTINUOUS
10
6.7143862204724405
20
-2.9303555511811021
11
6.727292874015748
21
-2.9350532283464568
0
LINE
8
BLACK
6
CONTINUOUS
10
6.727292874015748
20
-2.9350532283464568
11
6.7395669291338578
21
-2.9412174803149607
0
LINE
8
BLACK
6
CONTINUOUS
10
6.7395669291338578
20
-2.9412174803149607
11
6.751042362204724
21
-2.9487649606299211
0
LINE
8
BLACK
6
CONTINUOUS
10
6.751042362204724
20
-2.9487649606299211
11
6.7615639763779525
21
-2.9575936614173228
0
LINE
8
BLACK
6
CONTINUOUS
10
6.7615639763779525
20
-2.9575936614173228
11
6.7709894881889765
21
-2.9675841338582676
0
LINE
8
BLACK
6
CONTINUOUS
10
6.7709894881889765
20
-2.9675841338582676
11
6.7791914566929137
21
-2.9786012992125985
0
LINE
8
BLACK
6
CONTINUOUS
10
6.7791914566929137
20
-2.9786012992125985
11
6.7860589763779524
21
-2.9904961417322835
0
LINE
8
BLACK
6
CONTINUOUS
10
6.7860589763779524
20
-2.9904961417322835
11
6.7914991338582675
21
-3.0031078740157477
0
LINE
8
BLACK
6
CONTINUOUS
10
6.7914991338582675
20
-3.0031078740157477
11
6.7954383858267713
21
-3.0162658267716536
0
LINE
8
BLACK
6
CONTINUOUS
10
6.7954383858267713
20
-3.0162658267716536
11
6.7978234251968503
21
-3.0297921653543307
0
LINE
8
BLACK
6
CONTINUOUS
10
6.7978234251968503
20
-3.0297921653543307
11
6.7986220472440939
21
-3.0435039370078738
0
LINE
8
BLACK
6
CONTINUOUS
10
6.7986220472440939
20
-3.0435039370078738
11
6.7978234251968503
21
-3.0572157086614173
0
LINE
8
BLACK
6
CONTINUOUS
10
6.7978234251968503
20
-3.0572157086614173
11
6.7954383858267713
21
-3.0707420472440945
0
LINE
8
BLACK
6
CONTINUOUS
10
6.7954383858267713
20
-3.0707420472440945
11
6.7914991338582675
21
-3.0838999999999999
0
LINE
8
BLACK
6
CONTINUOUS
10
6.7914991338582675
20
-3.0838999999999999
11
6.7860589763779524
21
-3.0965117322834645
0
LINE
8
BLACK
6
CONTINUOUS
10
6.7860589763779524
20
-3.0965117322834645
11
6.7791914566929137
21
-3.1084065748031495
0
LINE
8
BLACK
6
CONTINUOUS
10
6.7791914566929137
20
-3.1084065748031495
11
6.7709894881889765
21
-3.11942374015748
0
LINE
8
BLACK
6
CONTINUOUS
10
6.7709894881889765
20
-3.11942374015748
11
6.7615639763779525
21
-3.1294142125984252
0
LINE
8
BLACK
6
CONTINUOUS
10
6.7615639763779525
20
-3.1294142125984252
11
6.751042362204724
21
-3.1382429133858265
0
LINE
8
BLACK
6
CONTINUOUS
10
6.751042362204724
20
-3.1382429133858265
11
6.7395669291338578
21
-3.1457903937007874
0
LINE
8
BLACK
6
CONTINUOUS
10
6.7395669291338578
20
-3.1457903937007874
11
6.727292874015748
21
-3.1519546456692913
0
LINE
8
BLACK
6
CONTINUOUS
10
6.727292874015748
20
-3.1519546456692913
11
6.7143862204724405
21
-3.1566523228346455
0
LINE
8
BLACK
6
CONTINUOUS
10
6.7143862204724405
20
-3.1566523228346455
11
6.7010214566929136
21
-3.1598198031496061
0
LINE
8
BLACK
6
CONTINUOUS
10
6.7010214566929136
20
-3.1598198031496061
11
6.6873792913385826
21
-3.1614143307086615
0
LINE
8
BLACK
6
CONTINUOUS
10
6.6873792913385826
20
-3.1614143307086615
11
6.6736443307086617
21
-3.1614143307086615
0
LINE
8
BLACK
6
CONTINUOUS
10
6.6736443307086617
20
-3.1614143307086615
11
6.6600021653543306
21
-3.1598198031496061
0
LINE
8
BLACK
6
CONTINUOUS
10
6.6600021653543306
20
-3.1598198031496061
11
6.6466374015748029
21
-3.1566523228346455
0
LINE
8
BLACK
6
CONTINUOUS
10
6.6466374015748029
20
-3.1566523228346455
11
6.6337307480314962
21
-3.1519546456692913
0
LINE
8
BLACK
6
CONTINUOUS
10
6.6337307480314962
20
-3.1519546456692913
11
6.6214566929133856
21
-3.1457903937007874
0
LINE
8
BLACK
6
CONTINUOUS
10
6.6214566929133856
20
-3.1457903937007874
11
6.6099812598425194
21
-3.1382429133858265
0
LINE
8
BLACK
6
CONTINUOUS
10
6.6099812598425194
20
-3.1382429133858265
11
6.5994596456692909
21
-3.1294142125984252
0
LINE
8
BLACK
6
CONTINUOUS
10
6.5994596456692909
20
-3.1294142125984252
11
6.5900341338582678
21
-3.11942374015748
0
LINE
8
BLACK
6
CONTINUOUS
10
6.5900341338582678
20
-3.11942374015748
11
6.5818321653543306
21
-3.1084065748031495
0
LINE
8
BLACK
6
CONTINUOUS
10
6.5818321653543306
20
-3.1084065748031495
11
6.574964645669291
21
-3.0965117322834645
0
LINE
8
BLACK
6
CONTINUOUS
10
6.574964645669291
20
-3.0965117322834645
11
6.5695244881889758
21
-3.0838999999999999
0
LINE
8
BLACK
6
CONTINUOUS
10
6.5695244881889758
20
-3.0838999999999999
11
6.5655852362204721
21
-3.0707420472440945
0
LINE
8
BLACK
6
CONTINUOUS
10
6.5655852362204721
20
-3.0707420472440945
11
6.5632001968503939
21
-3.0572157086614173
0
LINE
8
BLACK
6
CONTINUOUS
10
6.5632001968503939
20
-3.0572157086614173
11
6.5624015748031495
21
-3.0435039370078738
0
LINE
8
BLACK
6
CONTINUOUS
10
6.5624015748031495
20
-3.0435039370078738
11
6.5632001968503939
21
-3.0297921653543307
0
LINE
8
BLACK
6
CONTINUOUS
10
6.5632001968503939
20
-3.0297921653543307
11
6.5655852362204721
21
-3.0162658267716536
0
LINE
8
BLACK
6
CONTINUOUS
10
6.5655852362204721
20
-3.0162658267716536
11
6.5695244881889758
21
-3.0031078740157477
0
LINE
8
BLACK
6
CONTINUOUS
10
6.5695244881889758
20
-3.0031078740157477
11
6.574964645669291
21
-2.9904961417322835
0
LINE
8
BLACK
6
CONTINUOUS
10
6.574964645669291
20
-2.9904961417322835
11
6.5818321653543306
21
-2.9786012992125985
0
LINE
8
BLACK
6
CONTINUOUS
10
6.5818321653543306
20
-2.9786012992125985
11
6.5900341338582678
21
-2.9675841338582676
0
LINE
8
BLACK
6
CONTINUOUS
10
6.5900341338582678
20
-2.9675841338582676
11
6.5994596456692909
21
-2.9575936614173228
0
LINE
8
BLACK
6
CONTINUOUS
10
6.5994596456692909
20
-2.9575936614173228
11
6.6099812598425194
21
-2.9487649606299211
0
LINE
8
BLACK
6
CONTINUOUS
10
6.6099812598425194
20
-2.9487649606299211
11
6.6214566929133856
21
-2.9412174803149607
0
LINE
8
BLACK
6
CONTINUOUS
10
6.6214566929133856
20
-2.9412174803149607
11
6.6337307480314962
21
-2.9350532283464568
0
LINE
8
BLACK
6
CONTINUOUS
10
6.6337307480314962
20
-2.9350532283464568
11
6.6466374015748029
21
-2.9303555511811021
0
LINE
8
BLACK
6
CONTINUOUS
10
6.6466374015748029
20
-2.9303555511811021
11
6.6600021653543306
21
-2.9271880708661415
0
LINE
8
BLACK
6
CONTINUOUS
10
6.6600021653543306
20
-2.9271880708661415
11
6.6736443307086617
21
-2.9255935433070865
0
LINE
8
BLACK
6
CONTINUOUS
10
6.6736443307086617
20
-2.9255935433070865
11
6.6873792913385826
21
-2.9255935433070865
0
LINE
8
BLACK
6
CONTINUOUS
10
6.6873792913385826
20
-2.9255935433070865
11
6.7010214566929136
21
-2.9271880708661415
0
LINE
8
BLACK
6
CONTINUOUS
10
5.7605118110236218
20
-3.1235039370078739
11
5.7005118110236221
21
-3.1235039370078739
0
LINE
8
BLACK
6
CONTINUOUS
10
5.7005118110236221
20
-3.1235039370078739
11
5.7005118110236221
21
-3.0635039370078738
0
LINE
8
BLACK
6
CONTINUOUS
10
5.7005118110236221
20
-3.0635039370078738
11
5.7605118110236218
21
-3.0635039370078738
0
LINE
8
BLACK
6
CONTINUOUS
10
5.7605118110236218
20
-3.0635039370078738
11
5.7605118110236218
21
-3.1235039370078739
0
LINE
8
BLACK
6
CONTINUOUS
10
5.8605118110236223
20
-3.1235039370078739
11
5.8005118110236218
21
-3.1235039370078739
0
LINE
8
BLACK
6
CONTINUOUS
10
5.8005118110236218
20
-3.1235039370078739
11
5.8005118110236218
21
-3.0635039370078738
0
LINE
8
BLACK
6
CONTINUOUS
10
5.8005118110236218
20
-3.0635039370078738
11
5.8605118110236223
21
-3.0635039370078738
0
LINE
8
BLACK
6
CONTINUOUS
10
5.8605118110236223
20
-3.0635039370078738
11
5.8605118110236223
21
-3.1235039370078739
0
LINE
8
BLACK
6
CONTINUOUS
10
5.9605118110236219
20
-3.1235039370078739
11
5.9005118110236223
21
-3.1235039370078739
0
LINE
8
BLACK
6
CONTINUOUS
10
5.9005118110236223
20
-3.1235039370078739
11
5.9005118110236223
21
-3.0635039370078738
0
LINE
8
BLACK
6
CONTINUOUS
10
5.9005118110236223
20
-3.0635039370078738
11
5.9605118110236219
21
-3.0635039370078738
0
LINE
8
BLACK
6
CONTINUOUS
10
5.9605118110236219
20
-3.0635039370078738
11
5.9605118110236219
21
-3.1235039370078739
0
LINE
8
BLACK
6
CONTINUOUS
10
6.0855118110236219
20
-3.098503937007874
11
6.0255118110236223
21
-3.098503937007874
0
LINE
8
BLACK
6
CONTINUOUS
10
6.0255118110236223
20
-3.098503937007874
11
6.0255118110236223
21
-3.0385039370078739
0
LINE
8
BLACK
6
CONTINUOUS
10
6.0255118110236223
20
-3.0385039370078739
11
6.0855118110236219
21
-3.0385039370078739
0
LINE
8
BLACK
6
CONTINUOUS
10
6.0855118110236219
20
-3.0385039370078739
11
6.0855118110236219
21
-3.098503937007874
0
LINE
8
BLACK
6
CONTINUOUS
10
6.1855118110236216
20
-3.098503937007874
11
6.125511811023622
21
-3.098503937007874
0
LINE
8
BLACK
6
CONTINUOUS
10
6.125511811023622
20
-3.098503937007874
11
6.125511811023622
21
-3.0385039370078739
0
LINE
8
BLACK
6
CONTINUOUS
10
6.125511811023622
20
-3.0385039370078739
11
6.1855118110236216
21
-3.0385039370078739
0
LINE
8
BLACK
6
CONTINUOUS
10
6.1855118110236216
20
-3.0385039370078739
11
6.1855118110236216
21
-3.098503937007874
0
LINE
8
BLACK
6
CONTINUOUS
10
6.2855118110236221
20
-3.098503937007874
11
6.2255118110236216
21
-3.098503937007874
0
LINE
8
BLACK
6
CONTINUOUS
10
6.2255118110236216
20
-3.098503937007874
11
6.2255118110236216
21
-3.0385039370078739
0
LINE
8
BLACK
6
CONTINUOUS
10
6.2255118110236216
20
-3.0385039370078739
11
6.2855118110236221
21
-3.0385039370078739
0
LINE
8
BLACK
6
CONTINUOUS
10
6.2855118110236221
20
-3.0385039370078739
11
6.2855118110236221
21
-3.098503937007874
0
LINE
8
BLACK
6
CONTINUOUS
10
6.3855118110236218
20
-3.098503937007874
11
6.3255118110236221
21
-3.098503937007874
0
LINE
8
BLACK
6
CONTINUOUS
10
6.3255118110236221
20
-3.098503937007874
11
6.3255118110236221
21
-3.0385039370078739
0
LINE
8
BLACK
6
CONTINUOUS
10
6.3255118110236221
20
-3.0385039370078739
11
6.3855118110236218
21
-3.0385039370078739
0
LINE
8
BLACK
6
CONTINUOUS
10
6.3855118110236218
20
-3.0385039370078739
11
6.3855118110236218
21
-3.098503937007874
0
LINE
8
BLACK
6
CONTINUOUS
10
5.7605118110236218
20
-3.0235039370078738
11
5.7005118110236221
21
-3.0235039370078738
0
LINE
8
BLACK
6
CONTINUOUS
10
5.7005118110236221
20
-3.0235039370078738
11
5.7005118110236221
21
-2.9635039370078737
0
LINE
8
BLACK
6
CONTINUOUS
10
5.7005118110236221
20
-2.9635039370078737
11
5.7605118110236218
21
-2.9635039370078737
0
LINE
8
BLACK
6
CONTINUOUS
10
5.7605118110236218
20
-2.9635039370078737
11
5.7605118110236218
21
-3.0235039370078738
0
LINE
8
BLACK
6
CONTINUOUS
10
5.8605118110236223
20
-3.0235039370078738
11
5.8005118110236218
21
-3.0235039370078738
0
LINE
8
BLACK
6
CONTINUOUS
10
5.8005118110236218
20
-3.0235039370078738
11
5.8005118110236218
21
-2.9635039370078737
0
LINE
8
BLACK
6
CONTINUOUS
10
5.8005118110236218
20
-2.9635039370078737
11
5.8605118110236223
21
-2.9635039370078737
0
LINE
8
BLACK
6
CONTINUOUS
10
5.8605118110236223
20
-2.9635039370078737
11
5.8605118110236223
21
-3.0235039370078738
0
LINE
8
BLACK
6
CONTINUOUS
10
5.9605118110236219
20
-3.0235039370078738
11
5.9005118110236223
21
-3.0235039370078738
0
LINE
8
BLACK
6
CONTINUOUS
10
5.9005118110236223
20
-3.0235039370078738
11
5.9005118110236223
21
-2.9635039370078737
0
LINE
8
BLACK
6
CONTINUOUS
10
5.9005118110236223
20
-2.9635039370078737
11
5.9605118110236219
21
-2.9635039370078737
0
LINE
8
BLACK
6
CONTINUOUS
10
5.9605118110236219
20
-2.9635039370078737
11
5.9605118110236219
21
-3.0235039370078738
  0
ENDSEC
  0
EOF
