  0
SECTION
  2
HEADER
  9
$ANGBASE
  50
0.0
  9
$ANGDIR
  70
1
  9
$MEASUREMENT
  70
0
  0
ENDSEC
  0
SECTION
  2
TABLES
  0
TABLE
  2
LTYPE
  70
4
  0
LTYPE
  5
40F
  2
CONTINUOUS
  70
0
  3
Solid line
  72
65
  73
0
  40
0.0
  0
LTYPE
  5
410
  2
DASHDOT
 70
0
  3
Dash Dot ____ _ ____ _
 72
65
 73
4
 40
2.0
 49
1.25
 49
-0.25
 49
0.25
 49
-0.25
  0
LTYPE
  5
411
  2
DASHED
 70
0
  3
Dashed __ __ __ __ __
 72
65
 73
2
 40
0.75
 49
0.5
 49
-0.25
  0
LTYPE
  5
43B
  2
DOTTED
 70
0
  3
Dotted .  .  .  .
 72
65
 73
2
 40
0.2
 49
0.0
 49
-0.2
  0
ENDTAB
  0
TABLE
  2
STYLE
  70
4
  0
STYLE
  2
KICAD
  70
0
  40
0
  41
1
  42
1
  50
0
  71
0
  3
isocp.shx
  0
STYLE
  2
KICADB
  70
0
  40
0
  41
1
  42
1
  50
0
  71
0
  3
isocp.shx
  0
STYLE
  2
KICADI
  70
0
  40
0
  41
1
  42
1
  50
15
  71
0
  3
isocp.shx
  0
STYLE
  2
KICADBI
  70
0
  40
0
  41
1
  42
1
  50
15
  71
0
  3
isocp.shx
  0
ENDTAB
  0
TABLE
  2
LAYER
  70
1
  0
LAYER
  2
BLACK
  70
0
  62
7
  6
CONTINUOUS
  0
ENDTAB
  0
ENDSEC
  0
SECTION
  2
ENTITIES
0
LINE
8
BLACK
6
CONTINUOUS
10
5.6978346456692908
20
-3.7001968503937008
11
5.6985306299212599
21
-3.7004851181102363
0
LINE
8
BLACK
6
CONTINUOUS
10
5.6985306299212599
20
-3.7004851181102363
11
5.6988188976377954
21
-3.7011811023622045
0
LINE
8
BLACK
6
CONTINUOUS
10
5.6988188976377954
20
-3.7011811023622045
11
5.6988188976377954
21
-4.035826771653543
0
LINE
8
BLACK
6
CONTINUOUS
10
5.6988188976377954
20
-4.035826771653543
11
5.6985306299212599
21
-4.0365227559055121
0
LINE
8
BLACK
6
CONTINUOUS
10
5.6985306299212599
20
-4.0365227559055121
11
5.6978346456692908
21
-4.0368110236220476
0
LINE
8
BLACK
6
CONTINUOUS
10
5.6978346456692908
20
-4.0368110236220476
11
5.3631889763779528
21
-4.0368110236220476
0
LINE
8
BLACK
6
CONTINUOUS
10
5.3631889763779528
20
-4.0368110236220476
11
5.3624929921259845
21
-4.0365227559055121
0
LINE
8
BLACK
6
CONTINUOUS
10
5.3624929921259845
20
-4.0365227559055121
11
5.3622047244094491
21
-4.035826771653543
0
LINE
8
BLACK
6
CONTINUOUS
10
5.3622047244094491
20
-4.035826771653543
11
5.3622047244094491
21
-3.7011811023622045
0
LINE
8
BLACK
6
CONTINUOUS
10
5.3622047244094491
20
-3.7011811023622045
11
5.3624929921259845
21
-3.7004851181102363
0
LINE
8
BLACK
6
CONTINUOUS
10
5.3624929921259845
20
-3.7004851181102363
11
5.3631889763779528
21
-3.7001968503937008
0
LINE
8
BLACK
6
CONTINUOUS
10
5.3631889763779528
20
-3.7001968503937008
11
5.6978346456692908
21
-3.7001968503937008
0
LINE
8
BLACK
6
CONTINUOUS
10
5.3641732283464565
20
-3.7021653543307087
11
5.3641732283464565
21
-4.0348425196850393
0
LINE
8
BLACK
6
CONTINUOUS
10
5.3641732283464565
20
-4.0348425196850393
11
5.6968503937007871
21
-4.0348425196850393
0
LINE
8
BLACK
6
CONTINUOUS
10
5.6968503937007871
20
-4.0348425196850393
11
5.6968503937007871
21
-3.7021653543307087
0
LINE
8
BLACK
6
CONTINUOUS
10
5.6968503937007871
20
-3.7021653543307087
11
5.3641732283464565
21
-3.7021653543307087
0
LINE
8
BLACK
6
CONTINUOUS
10
6.7978346456692913
20
-3.7001968503937008
11
6.7985306299212596
21
-3.7004851181102363
0
LINE
8
BLACK
6
CONTINUOUS
10
6.7985306299212596
20
-3.7004851181102363
11
6.798818897637795
21
-3.7011811023622045
0
LINE
8
BLACK
6
CONTINUOUS
10
6.798818897637795
20
-3.7011811023622045
11
6.798818897637795
21
-4.035826771653543
0
LINE
8
BLACK
6
CONTINUOUS
10
6.798818897637795
20
-4.035826771653543
11
6.7985306299212596
21
-4.0365227559055121
0
LINE
8
BLACK
6
CONTINUOUS
10
6.7985306299212596
20
-4.0365227559055121
11
6.7978346456692913
21
-4.0368110236220476
0
LINE
8
BLACK
6
CONTINUOUS
10
6.7978346456692913
20
-4.0368110236220476
11
6.4631889763779524
21
-4.0368110236220476
0
LINE
8
BLACK
6
CONTINUOUS
10
6.4631889763779524
20
-4.0368110236220476
11
6.4624929921259842
21
-4.0365227559055121
0
LINE
8
BLACK
6
CONTINUOUS
10
6.4624929921259842
20
-4.0365227559055121
11
6.4622047244094487
21
-4.035826771653543
0
LINE
8
BLACK
6
CONTINUOUS
10
6.4622047244094487
20
-4.035826771653543
11
6.4622047244094487
21
-3.7011811023622045
0
LINE
8
BLACK
6
CONTINUOUS
10
6.4622047244094487
20
-3.7011811023622045
11
6.4624929921259842
21
-3.7004851181102363
0
LINE
8
BLACK
6
CONTINUOUS
10
6.4624929921259842
20
-3.7004851181102363
11
6.4631889763779524
21
-3.7001968503937008
0
LINE
8
BLACK
6
CONTINUOUS
10
6.4631889763779524
20
-3.7001968503937008
11
6.7978346456692913
21
-3.7001968503937008
0
LINE
8
BLACK
6
CONTINUOUS
10
6.4641732283464561
20
-3.7021653543307087
11
6.4641732283464561
21
-4.0348425196850393
0
LINE
8
BLACK
6
CONTINUOUS
10
6.4641732283464561
20
-4.0348425196850393
11
6.7968503937007876
21
-4.0348425196850393
0
LINE
8
BLACK
6
CONTINUOUS
10
6.7968503937007876
20
-4.0348425196850393
11
6.7968503937007876
21
-3.7021653543307087
0
LINE
8
BLACK
6
CONTINUOUS
10
6.7968503937007876
20
-3.7021653543307087
11
6.4641732283464561
21
-3.7021653543307087
0
LINE
8
BLACK
6
CONTINUOUS
10
5.6978346456692908
20
-3.2501968503937007
11
5.6985306299212599
21
-3.2504851181102361
0
LINE
8
BLACK
6
CONTINUOUS
10
5.6985306299212599
20
-3.2504851181102361
11
5.6988188976377954
21
-3.2511811023622048
0
LINE
8
BLACK
6
CONTINUOUS
10
5.6988188976377954
20
-3.2511811023622048
11
5.6988188976377954
21
-3.5858267716535432
0
LINE
8
BLACK
6
CONTINUOUS
10
5.6988188976377954
20
-3.5858267716535432
11
5.6985306299212599
21
-3.5865227559055119
0
LINE
8
BLACK
6
CONTINUOUS
10
5.6985306299212599
20
-3.5865227559055119
11
5.6978346456692908
21
-3.586811023622047
0
LINE
8
BLACK
6
CONTINUOUS
10
5.6978346456692908
20
-3.586811023622047
11
5.3631889763779528
21
-3.586811023622047
0
LINE
8
BLACK
6
CONTINUOUS
10
5.3631889763779528
20
-3.586811023622047
11
5.3624929921259845
21
-3.5865227559055119
0
LINE
8
BLACK
6
CONTINUOUS
10
5.3624929921259845
20
-3.5865227559055119
11
5.3622047244094491
21
-3.5858267716535432
0
LINE
8
BLACK
6
CONTINUOUS
10
5.3622047244094491
20
-3.5858267716535432
11
5.3622047244094491
21
-3.2511811023622048
0
LINE
8
BLACK
6
CONTINUOUS
10
5.3622047244094491
20
-3.2511811023622048
11
5.3624929921259845
21
-3.2504851181102361
0
LINE
8
BLACK
6
CONTINUOUS
10
5.3624929921259845
20
-3.2504851181102361
11
5.3631889763779528
21
-3.2501968503937007
0
LINE
8
BLACK
6
CONTINUOUS
10
5.3631889763779528
20
-3.2501968503937007
11
5.6978346456692908
21
-3.2501968503937007
0
LINE
8
BLACK
6
CONTINUOUS
10
5.3641732283464565
20
-3.2521653543307085
11
5.3641732283464565
21
-3.5848425196850391
0
LINE
8
BLACK
6
CONTINUOUS
10
5.3641732283464565
20
-3.5848425196850391
11
5.6968503937007871
21
-3.5848425196850391
0
LINE
8
BLACK
6
CONTINUOUS
10
5.6968503937007871
20
-3.5848425196850391
11
5.6968503937007871
21
-3.2521653543307085
0
LINE
8
BLACK
6
CONTINUOUS
10
5.6968503937007871
20
-3.2521653543307085
11
5.3641732283464565
21
-3.2521653543307085
0
LINE
8
BLACK
6
CONTINUOUS
10
6.7978346456692913
20
-3.2501968503937007
11
6.7985306299212596
21
-3.2504851181102361
0
LINE
8
BLACK
6
CONTINUOUS
10
6.7985306299212596
20
-3.2504851181102361
11
6.798818897637795
21
-3.2511811023622048
0
LINE
8
BLACK
6
CONTINUOUS
10
6.798818897637795
20
-3.2511811023622048
11
6.798818897637795
21
-3.5858267716535432
0
LINE
8
BLACK
6
CONTINUOUS
10
6.798818897637795
20
-3.5858267716535432
11
6.7985306299212596
21
-3.5865227559055119
0
LINE
8
BLACK
6
CONTINUOUS
10
6.7985306299212596
20
-3.5865227559055119
11
6.7978346456692913
21
-3.586811023622047
0
LINE
8
BLACK
6
CONTINUOUS
10
6.7978346456692913
20
-3.586811023622047
11
6.4631889763779524
21
-3.586811023622047
0
LINE
8
BLACK
6
CONTINUOUS
10
6.4631889763779524
20
-3.586811023622047
11
6.4624929921259842
21
-3.5865227559055119
0
LINE
8
BLACK
6
CONTINUOUS
10
6.4624929921259842
20
-3.5865227559055119
11
6.4622047244094487
21
-3.5858267716535432
0
LINE
8
BLACK
6
CONTINUOUS
10
6.4622047244094487
20
-3.5858267716535432
11
6.4622047244094487
21
-3.2511811023622048
0
LINE
8
BLACK
6
CONTINUOUS
10
6.4622047244094487
20
-3.2511811023622048
11
6.4624929921259842
21
-3.2504851181102361
0
LINE
8
BLACK
6
CONTINUOUS
10
6.4624929921259842
20
-3.2504851181102361
11
6.4631889763779524
21
-3.2501968503937007
0
LINE
8
BLACK
6
CONTINUOUS
10
6.4631889763779524
20
-3.2501968503937007
11
6.7978346456692913
21
-3.2501968503937007
0
LINE
8
BLACK
6
CONTINUOUS
10
6.4641732283464561
20
-3.2521653543307085
11
6.4641732283464561
21
-3.5848425196850391
0
LINE
8
BLACK
6
CONTINUOUS
10
6.4641732283464561
20
-3.5848425196850391
11
6.7968503937007876
21
-3.5848425196850391
0
LINE
8
BLACK
6
CONTINUOUS
10
6.7968503937007876
20
-3.5848425196850391
11
6.7968503937007876
21
-3.2521653543307085
0
LINE
8
BLACK
6
CONTINUOUS
10
6.7968503937007876
20
-3.2521653543307085
11
6.4641732283464561
21
-3.2521653543307085
  0
ENDSEC
  0
EOF
