  0
SECTION
  2
HEADER
  9
$ANGBASE
  50
0.0
  9
$ANGDIR
  70
1
  9
$MEASUREMENT
  70
0
  0
ENDSEC
  0
SECTION
  2
TABLES
  0
TABLE
  2
LTYPE
  70
4
  0
LTYPE
  5
40F
  2
CONTINUOUS
  70
0
  3
Solid line
  72
65
  73
0
  40
0.0
  0
LTYPE
  5
410
  2
DASHDOT
 70
0
  3
Dash Dot ____ _ ____ _
 72
65
 73
4
 40
2.0
 49
1.25
 49
-0.25
 49
0.25
 49
-0.25
  0
LTYPE
  5
411
  2
DASHED
 70
0
  3
Dashed __ __ __ __ __
 72
65
 73
2
 40
0.75
 49
0.5
 49
-0.25
  0
LTYPE
  5
43B
  2
DOTTED
 70
0
  3
Dotted .  .  .  .
 72
65
 73
2
 40
0.2
 49
0.0
 49
-0.2
  0
ENDTAB
  0
TABLE
  2
STYLE
  70
4
  0
STYLE
  2
KICAD
  70
0
  40
0
  41
1
  42
1
  50
0
  71
0
  3
isocp.shx
  0
STYLE
  2
KICADB
  70
0
  40
0
  41
1
  42
1
  50
0
  71
0
  3
isocp.shx
  0
STYLE
  2
KICADI
  70
0
  40
0
  41
1
  42
1
  50
15
  71
0
  3
isocp.shx
  0
STYLE
  2
KICADBI
  70
0
  40
0
  41
1
  42
1
  50
15
  71
0
  3
isocp.shx
  0
ENDTAB
  0
TABLE
  2
LAYER
  70
1
  0
LAYER
  2
BLACK
  70
0
  62
7
  6
CONTINUOUS
  0
ENDTAB
  0
ENDSEC
  0
SECTION
  2
ENTITIES
0
LINE
8
BLACK
6
CONTINUOUS
10
5.5010214566929134
20
-4.1271880708661417
11
5.5143862204724412
21
-4.1303555511811023
0
LINE
8
BLACK
6
CONTINUOUS
10
5.5143862204724412
20
-4.1303555511811023
11
5.5272928740157479
21
-4.1350532283464565
0
LINE
8
BLACK
6
CONTINUOUS
10
5.5272928740157479
20
-4.1350532283464565
11
5.5395669291338585
21
-4.1412174803149604
0
LINE
8
BLACK
6
CONTINUOUS
10
5.5395669291338585
20
-4.1412174803149604
11
5.5510423622047247
21
-4.1487649606299213
0
LINE
8
BLACK
6
CONTINUOUS
10
5.5510423622047247
20
-4.1487649606299213
11
5.5615639763779523
21
-4.157593661417323
0
LINE
8
BLACK
6
CONTINUOUS
10
5.5615639763779523
20
-4.157593661417323
11
5.5709894881889763
21
-4.1675841338582673
0
LINE
8
BLACK
6
CONTINUOUS
10
5.5709894881889763
20
-4.1675841338582673
11
5.5791914566929135
21
-4.1786012992125983
0
LINE
8
BLACK
6
CONTINUOUS
10
5.5791914566929135
20
-4.1786012992125983
11
5.5860589763779522
21
-4.1904961417322832
0
LINE
8
BLACK
6
CONTINUOUS
10
5.5860589763779522
20
-4.1904961417322832
11
5.5914991338582674
21
-4.2031078740157479
0
LINE
8
BLACK
6
CONTINUOUS
10
5.5914991338582674
20
-4.2031078740157479
11
5.5954383858267711
21
-4.2162658267716537
0
LINE
8
BLACK
6
CONTINUOUS
10
5.5954383858267711
20
-4.2162658267716537
11
5.5978234251968502
21
-4.2297921653543309
0
LINE
8
BLACK
6
CONTINUOUS
10
5.5978234251968502
20
-4.2297921653543309
11
5.5986220472440946
21
-4.2435039370078735
0
LINE
8
BLACK
6
CONTINUOUS
10
5.5986220472440946
20
-4.2435039370078735
11
5.5978234251968502
21
-4.2572157086614171
0
LINE
8
BLACK
6
CONTINUOUS
10
5.5978234251968502
20
-4.2572157086614171
11
5.5954383858267711
21
-4.2707420472440942
0
LINE
8
BLACK
6
CONTINUOUS
10
5.5954383858267711
20
-4.2707420472440942
11
5.5914991338582674
21
-4.2839
0
LINE
8
BLACK
6
CONTINUOUS
10
5.5914991338582674
20
-4.2839
11
5.5860589763779522
21
-4.2965117322834647
0
LINE
8
BLACK
6
CONTINUOUS
10
5.5860589763779522
20
-4.2965117322834647
11
5.5791914566929135
21
-4.3084065748031497
0
LINE
8
BLACK
6
CONTINUOUS
10
5.5791914566929135
20
-4.3084065748031497
11
5.5709894881889763
21
-4.3194237401574807
0
LINE
8
BLACK
6
CONTINUOUS
10
5.5709894881889763
20
-4.3194237401574807
11
5.5615639763779523
21
-4.329414212598425
0
LINE
8
BLACK
6
CONTINUOUS
10
5.5615639763779523
20
-4.329414212598425
11
5.5510423622047247
21
-4.3382429133858267
0
LINE
8
BLACK
6
CONTINUOUS
10
5.5510423622047247
20
-4.3382429133858267
11
5.5395669291338585
21
-4.3457903937007876
0
LINE
8
BLACK
6
CONTINUOUS
10
5.5395669291338585
20
-4.3457903937007876
11
5.5272928740157479
21
-4.3519546456692915
0
LINE
8
BLACK
6
CONTINUOUS
10
5.5272928740157479
20
-4.3519546456692915
11
5.5143862204724412
21
-4.3566523228346457
0
LINE
8
BLACK
6
CONTINUOUS
10
5.5143862204724412
20
-4.3566523228346457
11
5.5010214566929134
21
-4.3598198031496063
0
LINE
8
BLACK
6
CONTINUOUS
10
5.5010214566929134
20
-4.3598198031496063
11
5.4873792913385824
21
-4.3614143307086612
0
LINE
8
BLACK
6
CONTINUOUS
10
5.4873792913385824
20
-4.3614143307086612
11
5.4736443307086615
21
-4.3614143307086612
0
LINE
8
BLACK
6
CONTINUOUS
10
5.4736443307086615
20
-4.3614143307086612
11
5.4600021653543305
21
-4.3598198031496063
0
LINE
8
BLACK
6
CONTINUOUS
10
5.4600021653543305
20
-4.3598198031496063
11
5.4466374015748027
21
-4.3566523228346457
0
LINE
8
BLACK
6
CONTINUOUS
10
5.4466374015748027
20
-4.3566523228346457
11
5.433730748031496
21
-4.3519546456692915
0
LINE
8
BLACK
6
CONTINUOUS
10
5.433730748031496
20
-4.3519546456692915
11
5.4214566929133854
21
-4.3457903937007876
0
LINE
8
BLACK
6
CONTINUOUS
10
5.4214566929133854
20
-4.3457903937007876
11
5.4099812598425192
21
-4.3382429133858267
0
LINE
8
BLACK
6
CONTINUOUS
10
5.4099812598425192
20
-4.3382429133858267
11
5.3994596456692916
21
-4.329414212598425
0
LINE
8
BLACK
6
CONTINUOUS
10
5.3994596456692916
20
-4.329414212598425
11
5.3900341338582676
21
-4.3194237401574807
0
LINE
8
BLACK
6
CONTINUOUS
10
5.3900341338582676
20
-4.3194237401574807
11
5.3818321653543304
21
-4.3084065748031497
0
LINE
8
BLACK
6
CONTINUOUS
10
5.3818321653543304
20
-4.3084065748031497
11
5.3749646456692908
21
-4.2965117322834647
0
LINE
8
BLACK
6
CONTINUOUS
10
5.3749646456692908
20
-4.2965117322834647
11
5.3695244881889765
21
-4.2839
0
LINE
8
BLACK
6
CONTINUOUS
10
5.3695244881889765
20
-4.2839
11
5.3655852362204719
21
-4.2707420472440942
0
LINE
8
BLACK
6
CONTINUOUS
10
5.3655852362204719
20
-4.2707420472440942
11
5.3632001968503937
21
-4.2572157086614171
0
LINE
8
BLACK
6
CONTINUOUS
10
5.3632001968503937
20
-4.2572157086614171
11
5.3624015748031493
21
-4.2435039370078735
0
LINE
8
BLACK
6
CONTINUOUS
10
5.3624015748031493
20
-4.2435039370078735
11
5.3632001968503937
21
-4.2297921653543309
0
LINE
8
BLACK
6
CONTINUOUS
10
5.3632001968503937
20
-4.2297921653543309
11
5.3655852362204719
21
-4.2162658267716537
0
LINE
8
BLACK
6
CONTINUOUS
10
5.3655852362204719
20
-4.2162658267716537
11
5.3695244881889765
21
-4.2031078740157479
0
LINE
8
BLACK
6
CONTINUOUS
10
5.3695244881889765
20
-4.2031078740157479
11
5.3749646456692908
21
-4.1904961417322832
0
LINE
8
BLACK
6
CONTINUOUS
10
5.3749646456692908
20
-4.1904961417322832
11
5.3818321653543304
21
-4.1786012992125983
0
LINE
8
BLACK
6
CONTINUOUS
10
5.3818321653543304
20
-4.1786012992125983
11
5.3900341338582676
21
-4.1675841338582673
0
LINE
8
BLACK
6
CONTINUOUS
10
5.3900341338582676
20
-4.1675841338582673
11
5.3994596456692916
21
-4.157593661417323
0
LINE
8
BLACK
6
CONTINUOUS
10
5.3994596456692916
20
-4.157593661417323
11
5.4099812598425192
21
-4.1487649606299213
0
LINE
8
BLACK
6
CONTINUOUS
10
5.4099812598425192
20
-4.1487649606299213
11
5.4214566929133854
21
-4.1412174803149604
0
LINE
8
BLACK
6
CONTINUOUS
10
5.4214566929133854
20
-4.1412174803149604
11
5.433730748031496
21
-4.1350532283464565
0
LINE
8
BLACK
6
CONTINUOUS
10
5.433730748031496
20
-4.1350532283464565
11
5.4466374015748027
21
-4.1303555511811023
0
LINE
8
BLACK
6
CONTINUOUS
10
5.4466374015748027
20
-4.1303555511811023
11
5.4600021653543305
21
-4.1271880708661417
0
LINE
8
BLACK
6
CONTINUOUS
10
5.4600021653543305
20
-4.1271880708661417
11
5.4736443307086615
21
-4.1255935433070867
0
LINE
8
BLACK
6
CONTINUOUS
10
5.4736443307086615
20
-4.1255935433070867
11
5.4873792913385824
21
-4.1255935433070867
0
LINE
8
BLACK
6
CONTINUOUS
10
5.4873792913385824
20
-4.1255935433070867
11
5.5010214566929134
21
-4.1271880708661417
0
LINE
8
BLACK
6
CONTINUOUS
10
6.7010214566929136
20
-4.1271880708661417
11
6.7143862204724405
21
-4.1303555511811023
0
LINE
8
BLACK
6
CONTINUOUS
10
6.7143862204724405
20
-4.1303555511811023
11
6.727292874015748
21
-4.1350532283464565
0
LINE
8
BLACK
6
CONTINUOUS
10
6.727292874015748
20
-4.1350532283464565
11
6.7395669291338578
21
-4.1412174803149604
0
LINE
8
BLACK
6
CONTINUOUS
10
6.7395669291338578
20
-4.1412174803149604
11
6.751042362204724
21
-4.1487649606299213
0
LINE
8
BLACK
6
CONTINUOUS
10
6.751042362204724
20
-4.1487649606299213
11
6.7615639763779525
21
-4.157593661417323
0
LINE
8
BLACK
6
CONTINUOUS
10
6.7615639763779525
20
-4.157593661417323
11
6.7709894881889765
21
-4.1675841338582673
0
LINE
8
BLACK
6
CONTINUOUS
10
6.7709894881889765
20
-4.1675841338582673
11
6.7791914566929137
21
-4.1786012992125983
0
LINE
8
BLACK
6
CONTINUOUS
10
6.7791914566929137
20
-4.1786012992125983
11
6.7860589763779524
21
-4.1904961417322832
0
LINE
8
BLACK
6
CONTINUOUS
10
6.7860589763779524
20
-4.1904961417322832
11
6.7914991338582675
21
-4.2031078740157479
0
LINE
8
BLACK
6
CONTINUOUS
10
6.7914991338582675
20
-4.2031078740157479
11
6.7954383858267713
21
-4.2162658267716537
0
LINE
8
BLACK
6
CONTINUOUS
10
6.7954383858267713
20
-4.2162658267716537
11
6.7978234251968503
21
-4.2297921653543309
0
LINE
8
BLACK
6
CONTINUOUS
10
6.7978234251968503
20
-4.2297921653543309
11
6.7986220472440939
21
-4.2435039370078735
0
LINE
8
BLACK
6
CONTINUOUS
10
6.7986220472440939
20
-4.2435039370078735
11
6.7978234251968503
21
-4.2572157086614171
0
LINE
8
BLACK
6
CONTINUOUS
10
6.7978234251968503
20
-4.2572157086614171
11
6.7954383858267713
21
-4.2707420472440942
0
LINE
8
BLACK
6
CONTINUOUS
10
6.7954383858267713
20
-4.2707420472440942
11
6.7914991338582675
21
-4.2839
0
LINE
8
BLACK
6
CONTINUOUS
10
6.7914991338582675
20
-4.2839
11
6.7860589763779524
21
-4.2965117322834647
0
LINE
8
BLACK
6
CONTINUOUS
10
6.7860589763779524
20
-4.2965117322834647
11
6.7791914566929137
21
-4.3084065748031497
0
LINE
8
BLACK
6
CONTINUOUS
10
6.7791914566929137
20
-4.3084065748031497
11
6.7709894881889765
21
-4.3194237401574807
0
LINE
8
BLACK
6
CONTINUOUS
10
6.7709894881889765
20
-4.3194237401574807
11
6.7615639763779525
21
-4.329414212598425
0
LINE
8
BLACK
6
CONTINUOUS
10
6.7615639763779525
20
-4.329414212598425
11
6.751042362204724
21
-4.3382429133858267
0
LINE
8
BLACK
6
CONTINUOUS
10
6.751042362204724
20
-4.3382429133858267
11
6.7395669291338578
21
-4.3457903937007876
0
LINE
8
BLACK
6
CONTINUOUS
10
6.7395669291338578
20
-4.3457903937007876
11
6.727292874015748
21
-4.3519546456692915
0
LINE
8
BLACK
6
CONTINUOUS
10
6.727292874015748
20
-4.3519546456692915
11
6.7143862204724405
21
-4.3566523228346457
0
LINE
8
BLACK
6
CONTINUOUS
10
6.7143862204724405
20
-4.3566523228346457
11
6.7010214566929136
21
-4.3598198031496063
0
LINE
8
BLACK
6
CONTINUOUS
10
6.7010214566929136
20
-4.3598198031496063
11
6.6873792913385826
21
-4.3614143307086612
0
LINE
8
BLACK
6
CONTINUOUS
10
6.6873792913385826
20
-4.3614143307086612
11
6.6736443307086617
21
-4.3614143307086612
0
LINE
8
BLACK
6
CONTINUOUS
10
6.6736443307086617
20
-4.3614143307086612
11
6.6600021653543306
21
-4.3598198031496063
0
LINE
8
BLACK
6
CONTINUOUS
10
6.6600021653543306
20
-4.3598198031496063
11
6.6466374015748029
21
-4.3566523228346457
0
LINE
8
BLACK
6
CONTINUOUS
10
6.6466374015748029
20
-4.3566523228346457
11
6.6337307480314962
21
-4.3519546456692915
0
LINE
8
BLACK
6
CONTINUOUS
10
6.6337307480314962
20
-4.3519546456692915
11
6.6214566929133856
21
-4.3457903937007876
0
LINE
8
BLACK
6
CONTINUOUS
10
6.6214566929133856
20
-4.3457903937007876
11
6.6099812598425194
21
-4.3382429133858267
0
LINE
8
BLACK
6
CONTINUOUS
10
6.6099812598425194
20
-4.3382429133858267
11
6.5994596456692909
21
-4.329414212598425
0
LINE
8
BLACK
6
CONTINUOUS
10
6.5994596456692909
20
-4.329414212598425
11
6.5900341338582678
21
-4.3194237401574807
0
LINE
8
BLACK
6
CONTINUOUS
10
6.5900341338582678
20
-4.3194237401574807
11
6.5818321653543306
21
-4.3084065748031497
0
LINE
8
BLACK
6
CONTINUOUS
10
6.5818321653543306
20
-4.3084065748031497
11
6.574964645669291
21
-4.2965117322834647
0
LINE
8
BLACK
6
CONTINUOUS
10
6.574964645669291
20
-4.2965117322834647
11
6.5695244881889758
21
-4.2839
0
LINE
8
BLACK
6
CONTINUOUS
10
6.5695244881889758
20
-4.2839
11
6.5655852362204721
21
-4.2707420472440942
0
LINE
8
BLACK
6
CONTINUOUS
10
6.5655852362204721
20
-4.2707420472440942
11
6.5632001968503939
21
-4.2572157086614171
0
LINE
8
BLACK
6
CONTINUOUS
10
6.5632001968503939
20
-4.2572157086614171
11
6.5624015748031495
21
-4.2435039370078735
0
LINE
8
BLACK
6
CONTINUOUS
10
6.5624015748031495
20
-4.2435039370078735
11
6.5632001968503939
21
-4.2297921653543309
0
LINE
8
BLACK
6
CONTINUOUS
10
6.5632001968503939
20
-4.2297921653543309
11
6.5655852362204721
21
-4.2162658267716537
0
LINE
8
BLACK
6
CONTINUOUS
10
6.5655852362204721
20
-4.2162658267716537
11
6.5695244881889758
21
-4.2031078740157479
0
LINE
8
BLACK
6
CONTINUOUS
10
6.5695244881889758
20
-4.2031078740157479
11
6.574964645669291
21
-4.1904961417322832
0
LINE
8
BLACK
6
CONTINUOUS
10
6.574964645669291
20
-4.1904961417322832
11
6.5818321653543306
21
-4.1786012992125983
0
LINE
8
BLACK
6
CONTINUOUS
10
6.5818321653543306
20
-4.1786012992125983
11
6.5900341338582678
21
-4.1675841338582673
0
LINE
8
BLACK
6
CONTINUOUS
10
6.5900341338582678
20
-4.1675841338582673
11
6.5994596456692909
21
-4.157593661417323
0
LINE
8
BLACK
6
CONTINUOUS
10
6.5994596456692909
20
-4.157593661417323
11
6.6099812598425194
21
-4.1487649606299213
0
LINE
8
BLACK
6
CONTINUOUS
10
6.6099812598425194
20
-4.1487649606299213
11
6.6214566929133856
21
-4.1412174803149604
0
LINE
8
BLACK
6
CONTINUOUS
10
6.6214566929133856
20
-4.1412174803149604
11
6.6337307480314962
21
-4.1350532283464565
0
LINE
8
BLACK
6
CONTINUOUS
10
6.6337307480314962
20
-4.1350532283464565
11
6.6466374015748029
21
-4.1303555511811023
0
LINE
8
BLACK
6
CONTINUOUS
10
6.6466374015748029
20
-4.1303555511811023
11
6.6600021653543306
21
-4.1271880708661417
0
LINE
8
BLACK
6
CONTINUOUS
10
6.6600021653543306
20
-4.1271880708661417
11
6.6736443307086617
21
-4.1255935433070867
0
LINE
8
BLACK
6
CONTINUOUS
10
6.6736443307086617
20
-4.1255935433070867
11
6.6873792913385826
21
-4.1255935433070867
0
LINE
8
BLACK
6
CONTINUOUS
10
6.6873792913385826
20
-4.1255935433070867
11
6.7010214566929136
21
-4.1271880708661417
0
LINE
8
BLACK
6
CONTINUOUS
10
5.5010214566929134
20
-2.9271880708661415
11
5.5143862204724412
21
-2.9303555511811021
0
LINE
8
BLACK
6
CONTINUOUS
10
5.5143862204724412
20
-2.9303555511811021
11
5.5272928740157479
21
-2.9350532283464568
0
LINE
8
BLACK
6
CONTINUOUS
10
5.5272928740157479
20
-2.9350532283464568
11
5.5395669291338585
21
-2.9412174803149607
0
LINE
8
BLACK
6
CONTINUOUS
10
5.5395669291338585
20
-2.9412174803149607
11
5.5510423622047247
21
-2.9487649606299211
0
LINE
8
BLACK
6
CONTINUOUS
10
5.5510423622047247
20
-2.9487649606299211
11
5.5615639763779523
21
-2.9575936614173228
0
LINE
8
BLACK
6
CONTINUOUS
10
5.5615639763779523
20
-2.9575936614173228
11
5.5709894881889763
21
-2.9675841338582676
0
LINE
8
BLACK
6
CONTINUOUS
10
5.5709894881889763
20
-2.9675841338582676
11
5.5791914566929135
21
-2.9786012992125985
0
LINE
8
BLACK
6
CONTINUOUS
10
5.5791914566929135
20
-2.9786012992125985
11
5.5860589763779522
21
-2.9904961417322835
0
LINE
8
BLACK
6
CONTINUOUS
10
5.5860589763779522
20
-2.9904961417322835
11
5.5914991338582674
21
-3.0031078740157477
0
LINE
8
BLACK
6
CONTINUOUS
10
5.5914991338582674
20
-3.0031078740157477
11
5.5954383858267711
21
-3.0162658267716536
0
LINE
8
BLACK
6
CONTINUOUS
10
5.5954383858267711
20
-3.0162658267716536
11
5.5978234251968502
21
-3.0297921653543307
0
LINE
8
BLACK
6
CONTINUOUS
10
5.5978234251968502
20
-3.0297921653543307
11
5.5986220472440946
21
-3.0435039370078738
0
LINE
8
BLACK
6
CONTINUOUS
10
5.5986220472440946
20
-3.0435039370078738
11
5.5978234251968502
21
-3.0572157086614173
0
LINE
8
BLACK
6
CONTINUOUS
10
5.5978234251968502
20
-3.0572157086614173
11
5.5954383858267711
21
-3.0707420472440945
0
LINE
8
BLACK
6
CONTINUOUS
10
5.5954383858267711
20
-3.0707420472440945
11
5.5914991338582674
21
-3.0838999999999999
0
LINE
8
BLACK
6
CONTINUOUS
10
5.5914991338582674
20
-3.0838999999999999
11
5.5860589763779522
21
-3.0965117322834645
0
LINE
8
BLACK
6
CONTINUOUS
10
5.5860589763779522
20
-3.0965117322834645
11
5.5791914566929135
21
-3.1084065748031495
0
LINE
8
BLACK
6
CONTINUOUS
10
5.5791914566929135
20
-3.1084065748031495
11
5.5709894881889763
21
-3.11942374015748
0
LINE
8
BLACK
6
CONTINUOUS
10
5.5709894881889763
20
-3.11942374015748
11
5.5615639763779523
21
-3.1294142125984252
0
LINE
8
BLACK
6
CONTINUOUS
10
5.5615639763779523
20
-3.1294142125984252
11
5.5510423622047247
21
-3.1382429133858265
0
LINE
8
BLACK
6
CONTINUOUS
10
5.5510423622047247
20
-3.1382429133858265
11
5.5395669291338585
21
-3.1457903937007874
0
LINE
8
BLACK
6
CONTINUOUS
10
5.5395669291338585
20
-3.1457903937007874
11
5.5272928740157479
21
-3.1519546456692913
0
LINE
8
BLACK
6
CONTINUOUS
10
5.5272928740157479
20
-3.1519546456692913
11
5.5143862204724412
21
-3.1566523228346455
0
LINE
8
BLACK
6
CONTINUOUS
10
5.5143862204724412
20
-3.1566523228346455
11
5.5010214566929134
21
-3.1598198031496061
0
LINE
8
BLACK
6
CONTINUOUS
10
5.5010214566929134
20
-3.1598198031496061
11
5.4873792913385824
21
-3.1614143307086615
0
LINE
8
BLACK
6
CONTINUOUS
10
5.4873792913385824
20
-3.1614143307086615
11
5.4736443307086615
21
-3.1614143307086615
0
LINE
8
BLACK
6
CONTINUOUS
10
5.4736443307086615
20
-3.1614143307086615
11
5.4600021653543305
21
-3.1598198031496061
0
LINE
8
BLACK
6
CONTINUOUS
10
5.4600021653543305
20
-3.1598198031496061
11
5.4466374015748027
21
-3.1566523228346455
0
LINE
8
BLACK
6
CONTINUOUS
10
5.4466374015748027
20
-3.1566523228346455
11
5.433730748031496
21
-3.1519546456692913
0
LINE
8
BLACK
6
CONTINUOUS
10
5.433730748031496
20
-3.1519546456692913
11
5.4214566929133854
21
-3.1457903937007874
0
LINE
8
BLACK
6
CONTINUOUS
10
5.4214566929133854
20
-3.1457903937007874
11
5.4099812598425192
21
-3.1382429133858265
0
LINE
8
BLACK
6
CONTINUOUS
10
5.4099812598425192
20
-3.1382429133858265
11
5.3994596456692916
21
-3.1294142125984252
0
LINE
8
BLACK
6
CONTINUOUS
10
5.3994596456692916
20
-3.1294142125984252
11
5.3900341338582676
21
-3.11942374015748
0
LINE
8
BLACK
6
CONTINUOUS
10
5.3900341338582676
20
-3.11942374015748
11
5.3818321653543304
21
-3.1084065748031495
0
LINE
8
BLACK
6
CONTINUOUS
10
5.3818321653543304
20
-3.1084065748031495
11
5.3749646456692908
21
-3.0965117322834645
0
LINE
8
BLACK
6
CONTINUOUS
10
5.3749646456692908
20
-3.0965117322834645
11
5.3695244881889765
21
-3.0838999999999999
0
LINE
8
BLACK
6
CONTINUOUS
10
5.3695244881889765
20
-3.0838999999999999
11
5.3655852362204719
21
-3.0707420472440945
0
LINE
8
BLACK
6
CONTINUOUS
10
5.3655852362204719
20
-3.0707420472440945
11
5.3632001968503937
21
-3.0572157086614173
0
LINE
8
BLACK
6
CONTINUOUS
10
5.3632001968503937
20
-3.0572157086614173
11
5.3624015748031493
21
-3.0435039370078738
0
LINE
8
BLACK
6
CONTINUOUS
10
5.3624015748031493
20
-3.0435039370078738
11
5.3632001968503937
21
-3.0297921653543307
0
LINE
8
BLACK
6
CONTINUOUS
10
5.3632001968503937
20
-3.0297921653543307
11
5.3655852362204719
21
-3.0162658267716536
0
LINE
8
BLACK
6
CONTINUOUS
10
5.3655852362204719
20
-3.0162658267716536
11
5.3695244881889765
21
-3.0031078740157477
0
LINE
8
BLACK
6
CONTINUOUS
10
5.3695244881889765
20
-3.0031078740157477
11
5.3749646456692908
21
-2.9904961417322835
0
LINE
8
BLACK
6
CONTINUOUS
10
5.3749646456692908
20
-2.9904961417322835
11
5.3818321653543304
21
-2.9786012992125985
0
LINE
8
BLACK
6
CONTINUOUS
10
5.3818321653543304
20
-2.9786012992125985
11
5.3900341338582676
21
-2.9675841338582676
0
LINE
8
BLACK
6
CONTINUOUS
10
5.3900341338582676
20
-2.9675841338582676
11
5.3994596456692916
21
-2.9575936614173228
0
LINE
8
BLACK
6
CONTINUOUS
10
5.3994596456692916
20
-2.9575936614173228
11
5.4099812598425192
21
-2.9487649606299211
0
LINE
8
BLACK
6
CONTINUOUS
10
5.4099812598425192
20
-2.9487649606299211
11
5.4214566929133854
21
-2.9412174803149607
0
LINE
8
BLACK
6
CONTINUOUS
10
5.4214566929133854
20
-2.9412174803149607
11
5.433730748031496
21
-2.9350532283464568
0
LINE
8
BLACK
6
CONTINUOUS
10
5.433730748031496
20
-2.9350532283464568
11
5.4466374015748027
21
-2.9303555511811021
0
LINE
8
BLACK
6
CONTINUOUS
10
5.4466374015748027
20
-2.9303555511811021
11
5.4600021653543305
21
-2.9271880708661415
0
LINE
8
BLACK
6
CONTINUOUS
10
5.4600021653543305
20
-2.9271880708661415
11
5.4736443307086615
21
-2.9255935433070865
0
LINE
8
BLACK
6
CONTINUOUS
10
5.4736443307086615
20
-2.9255935433070865
11
5.4873792913385824
21
-2.9255935433070865
0
LINE
8
BLACK
6
CONTINUOUS
10
5.4873792913385824
20
-2.9255935433070865
11
5.5010214566929134
21
-2.9271880708661415
0
LINE
8
BLACK
6
CONTINUOUS
10
6.7010214566929136
20
-2.9271880708661415
11
6.7143862204724405
21
-2.9303555511811021
0
LINE
8
BLACK
6
CONTINUOUS
10
6.7143862204724405
20
-2.9303555511811021
11
6.727292874015748
21
-2.9350532283464568
0
LINE
8
BLACK
6
CONTINUOUS
10
6.727292874015748
20
-2.9350532283464568
11
6.7395669291338578
21
-2.9412174803149607
0
LINE
8
BLACK
6
CONTINUOUS
10
6.7395669291338578
20
-2.9412174803149607
11
6.751042362204724
21
-2.9487649606299211
0
LINE
8
BLACK
6
CONTINUOUS
10
6.751042362204724
20
-2.9487649606299211
11
6.7615639763779525
21
-2.9575936614173228
0
LINE
8
BLACK
6
CONTINUOUS
10
6.7615639763779525
20
-2.9575936614173228
11
6.7709894881889765
21
-2.9675841338582676
0
LINE
8
BLACK
6
CONTINUOUS
10
6.7709894881889765
20
-2.9675841338582676
11
6.7791914566929137
21
-2.9786012992125985
0
LINE
8
BLACK
6
CONTINUOUS
10
6.7791914566929137
20
-2.9786012992125985
11
6.7860589763779524
21
-2.9904961417322835
0
LINE
8
BLACK
6
CONTINUOUS
10
6.7860589763779524
20
-2.9904961417322835
11
6.7914991338582675
21
-3.0031078740157477
0
LINE
8
BLACK
6
CONTINUOUS
10
6.7914991338582675
20
-3.0031078740157477
11
6.7954383858267713
21
-3.0162658267716536
0
LINE
8
BLACK
6
CONTINUOUS
10
6.7954383858267713
20
-3.0162658267716536
11
6.7978234251968503
21
-3.0297921653543307
0
LINE
8
BLACK
6
CONTINUOUS
10
6.7978234251968503
20
-3.0297921653543307
11
6.7986220472440939
21
-3.0435039370078738
0
LINE
8
BLACK
6
CONTINUOUS
10
6.7986220472440939
20
-3.0435039370078738
11
6.7978234251968503
21
-3.0572157086614173
0
LINE
8
BLACK
6
CONTINUOUS
10
6.7978234251968503
20
-3.0572157086614173
11
6.7954383858267713
21
-3.0707420472440945
0
LINE
8
BLACK
6
CONTINUOUS
10
6.7954383858267713
20
-3.0707420472440945
11
6.7914991338582675
21
-3.0838999999999999
0
LINE
8
BLACK
6
CONTINUOUS
10
6.7914991338582675
20
-3.0838999999999999
11
6.7860589763779524
21
-3.0965117322834645
0
LINE
8
BLACK
6
CONTINUOUS
10
6.7860589763779524
20
-3.0965117322834645
11
6.7791914566929137
21
-3.1084065748031495
0
LINE
8
BLACK
6
CONTINUOUS
10
6.7791914566929137
20
-3.1084065748031495
11
6.7709894881889765
21
-3.11942374015748
0
LINE
8
BLACK
6
CONTINUOUS
10
6.7709894881889765
20
-3.11942374015748
11
6.7615639763779525
21
-3.1294142125984252
0
LINE
8
BLACK
6
CONTINUOUS
10
6.7615639763779525
20
-3.1294142125984252
11
6.751042362204724
21
-3.1382429133858265
0
LINE
8
BLACK
6
CONTINUOUS
10
6.751042362204724
20
-3.1382429133858265
11
6.7395669291338578
21
-3.1457903937007874
0
LINE
8
BLACK
6
CONTINUOUS
10
6.7395669291338578
20
-3.1457903937007874
11
6.727292874015748
21
-3.1519546456692913
0
LINE
8
BLACK
6
CONTINUOUS
10
6.727292874015748
20
-3.1519546456692913
11
6.7143862204724405
21
-3.1566523228346455
0
LINE
8
BLACK
6
CONTINUOUS
10
6.7143862204724405
20
-3.1566523228346455
11
6.7010214566929136
21
-3.1598198031496061
0
LINE
8
BLACK
6
CONTINUOUS
10
6.7010214566929136
20
-3.1598198031496061
11
6.6873792913385826
21
-3.1614143307086615
0
LINE
8
BLACK
6
CONTINUOUS
10
6.6873792913385826
20
-3.1614143307086615
11
6.6736443307086617
21
-3.1614143307086615
0
LINE
8
BLACK
6
CONTINUOUS
10
6.6736443307086617
20
-3.1614143307086615
11
6.6600021653543306
21
-3.1598198031496061
0
LINE
8
BLACK
6
CONTINUOUS
10
6.6600021653543306
20
-3.1598198031496061
11
6.6466374015748029
21
-3.1566523228346455
0
LINE
8
BLACK
6
CONTINUOUS
10
6.6466374015748029
20
-3.1566523228346455
11
6.6337307480314962
21
-3.1519546456692913
0
LINE
8
BLACK
6
CONTINUOUS
10
6.6337307480314962
20
-3.1519546456692913
11
6.6214566929133856
21
-3.1457903937007874
0
LINE
8
BLACK
6
CONTINUOUS
10
6.6214566929133856
20
-3.1457903937007874
11
6.6099812598425194
21
-3.1382429133858265
0
LINE
8
BLACK
6
CONTINUOUS
10
6.6099812598425194
20
-3.1382429133858265
11
6.5994596456692909
21
-3.1294142125984252
0
LINE
8
BLACK
6
CONTINUOUS
10
6.5994596456692909
20
-3.1294142125984252
11
6.5900341338582678
21
-3.11942374015748
0
LINE
8
BLACK
6
CONTINUOUS
10
6.5900341338582678
20
-3.11942374015748
11
6.5818321653543306
21
-3.1084065748031495
0
LINE
8
BLACK
6
CONTINUOUS
10
6.5818321653543306
20
-3.1084065748031495
11
6.574964645669291
21
-3.0965117322834645
0
LINE
8
BLACK
6
CONTINUOUS
10
6.574964645669291
20
-3.0965117322834645
11
6.5695244881889758
21
-3.0838999999999999
0
LINE
8
BLACK
6
CONTINUOUS
10
6.5695244881889758
20
-3.0838999999999999
11
6.5655852362204721
21
-3.0707420472440945
0
LINE
8
BLACK
6
CONTINUOUS
10
6.5655852362204721
20
-3.0707420472440945
11
6.5632001968503939
21
-3.0572157086614173
0
LINE
8
BLACK
6
CONTINUOUS
10
6.5632001968503939
20
-3.0572157086614173
11
6.5624015748031495
21
-3.0435039370078738
0
LINE
8
BLACK
6
CONTINUOUS
10
6.5624015748031495
20
-3.0435039370078738
11
6.5632001968503939
21
-3.0297921653543307
0
LINE
8
BLACK
6
CONTINUOUS
10
6.5632001968503939
20
-3.0297921653543307
11
6.5655852362204721
21
-3.0162658267716536
0
LINE
8
BLACK
6
CONTINUOUS
10
6.5655852362204721
20
-3.0162658267716536
11
6.5695244881889758
21
-3.0031078740157477
0
LINE
8
BLACK
6
CONTINUOUS
10
6.5695244881889758
20
-3.0031078740157477
11
6.574964645669291
21
-2.9904961417322835
0
LINE
8
BLACK
6
CONTINUOUS
10
6.574964645669291
20
-2.9904961417322835
11
6.5818321653543306
21
-2.9786012992125985
0
LINE
8
BLACK
6
CONTINUOUS
10
6.5818321653543306
20
-2.9786012992125985
11
6.5900341338582678
21
-2.9675841338582676
0
LINE
8
BLACK
6
CONTINUOUS
10
6.5900341338582678
20
-2.9675841338582676
11
6.5994596456692909
21
-2.9575936614173228
0
LINE
8
BLACK
6
CONTINUOUS
10
6.5994596456692909
20
-2.9575936614173228
11
6.6099812598425194
21
-2.9487649606299211
0
LINE
8
BLACK
6
CONTINUOUS
10
6.6099812598425194
20
-2.9487649606299211
11
6.6214566929133856
21
-2.9412174803149607
0
LINE
8
BLACK
6
CONTINUOUS
10
6.6214566929133856
20
-2.9412174803149607
11
6.6337307480314962
21
-2.9350532283464568
0
LINE
8
BLACK
6
CONTINUOUS
10
6.6337307480314962
20
-2.9350532283464568
11
6.6466374015748029
21
-2.9303555511811021
0
LINE
8
BLACK
6
CONTINUOUS
10
6.6466374015748029
20
-2.9303555511811021
11
6.6600021653543306
21
-2.9271880708661415
0
LINE
8
BLACK
6
CONTINUOUS
10
6.6600021653543306
20
-2.9271880708661415
11
6.6736443307086617
21
-2.9255935433070865
0
LINE
8
BLACK
6
CONTINUOUS
10
6.6736443307086617
20
-2.9255935433070865
11
6.6873792913385826
21
-2.9255935433070865
0
LINE
8
BLACK
6
CONTINUOUS
10
6.6873792913385826
20
-2.9255935433070865
11
6.7010214566929136
21
-2.9271880708661415
  0
ENDSEC
  0
EOF
