  0
SECTION
  2
HEADER
  9
$ANGBASE
  50
0.0
  9
$ANGDIR
  70
1
  9
$MEASUREMENT
  70
0
  0
ENDSEC
  0
SECTION
  2
TABLES
  0
TABLE
  2
LTYPE
  70
4
  0
LTYPE
  5
40F
  2
CONTINUOUS
  70
0
  3
Solid line
  72
65
  73
0
  40
0.0
  0
LTYPE
  5
410
  2
DASHDOT
 70
0
  3
Dash Dot ____ _ ____ _
 72
65
 73
4
 40
2.0
 49
1.25
 49
-0.25
 49
0.25
 49
-0.25
  0
LTYPE
  5
411
  2
DASHED
 70
0
  3
Dashed __ __ __ __ __
 72
65
 73
2
 40
0.75
 49
0.5
 49
-0.25
  0
LTYPE
  5
43B
  2
DOTTED
 70
0
  3
Dotted .  .  .  .
 72
65
 73
2
 40
0.2
 49
0.0
 49
-0.2
  0
ENDTAB
  0
TABLE
  2
STYLE
  70
4
  0
STYLE
  2
KICAD
  70
0
  40
0
  41
1
  42
1
  50
0
  71
0
  3
isocp.shx
  0
STYLE
  2
KICADB
  70
0
  40
0
  41
1
  42
1
  50
0
  71
0
  3
isocp.shx
  0
STYLE
  2
KICADI
  70
0
  40
0
  41
1
  42
1
  50
15
  71
0
  3
isocp.shx
  0
STYLE
  2
KICADBI
  70
0
  40
0
  41
1
  42
1
  50
15
  71
0
  3
isocp.shx
  0
ENDTAB
  0
TABLE
  2
LAYER
  70
1
  0
LAYER
  2
BLACK
  70
0
  62
7
  6
CONTINUOUS
  0
ENDTAB
  0
ENDSEC
  0
SECTION
  2
ENTITIES
0
LINE
8
BLACK
6
CONTINUOUS
10
6.26527
20
-4.31161
11
6.26596
21
-4.3135
0
LINE
8
BLACK
6
CONTINUOUS
10
6.26596
20
-4.3135
11
6.26596
21
-4.3735
0
LINE
8
BLACK
6
CONTINUOUS
10
6.26596
20
-4.3735
11
6.26579
21
-4.37451
0
LINE
8
BLACK
6
CONTINUOUS
10
6.26579
20
-4.37451
11
6.26449
21
-4.37606
0
LINE
8
BLACK
6
CONTINUOUS
10
6.26449
20
-4.37606
11
6.2625
21
-4.37641
0
LINE
8
BLACK
6
CONTINUOUS
10
6.2625
20
-4.37641
11
6.26075
21
-4.3754
0
LINE
8
BLACK
6
CONTINUOUS
10
6.26075
20
-4.3754
11
6.26006
21
-4.3735
0
LINE
8
BLACK
6
CONTINUOUS
10
6.26006
20
-4.3735
11
6.26006
21
-4.3135
0
LINE
8
BLACK
6
CONTINUOUS
10
6.26006
20
-4.3135
11
6.26024
21
-4.31249
0
LINE
8
BLACK
6
CONTINUOUS
10
6.26024
20
-4.31249
11
6.26154
21
-4.31095
0
LINE
8
BLACK
6
CONTINUOUS
10
6.26154
20
-4.31095
11
6.26352
21
-4.3106
0
LINE
8
BLACK
6
CONTINUOUS
10
6.26352
20
-4.3106
11
6.26527
21
-4.31161
0
LINE
8
BLACK
6
CONTINUOUS
10
6.38527
20
-4.31161
11
6.38596
21
-4.3135
0
LINE
8
BLACK
6
CONTINUOUS
10
6.38596
20
-4.3135
11
6.38596
21
-4.3735
0
LINE
8
BLACK
6
CONTINUOUS
10
6.38596
20
-4.3735
11
6.38579
21
-4.37451
0
LINE
8
BLACK
6
CONTINUOUS
10
6.38579
20
-4.37451
11
6.38449
21
-4.37606
0
LINE
8
BLACK
6
CONTINUOUS
10
6.38449
20
-4.37606
11
6.3825
21
-4.37641
0
LINE
8
BLACK
6
CONTINUOUS
10
6.3825
20
-4.37641
11
6.38075
21
-4.3754
0
LINE
8
BLACK
6
CONTINUOUS
10
6.38075
20
-4.3754
11
6.38006
21
-4.3735
0
LINE
8
BLACK
6
CONTINUOUS
10
6.38006
20
-4.3735
11
6.38006
21
-4.3135
0
LINE
8
BLACK
6
CONTINUOUS
10
6.38006
20
-4.3135
11
6.38024
21
-4.31249
0
LINE
8
BLACK
6
CONTINUOUS
10
6.38024
20
-4.31249
11
6.38154
21
-4.31095
0
LINE
8
BLACK
6
CONTINUOUS
10
6.38154
20
-4.31095
11
6.38352
21
-4.3106
0
LINE
8
BLACK
6
CONTINUOUS
10
6.38352
20
-4.3106
11
6.38527
21
-4.31161
0
LINE
8
BLACK
6
CONTINUOUS
10
6.33968
20
-4.37183
11
6.34037
21
-4.3735
0
LINE
8
BLACK
6
CONTINUOUS
10
6.34037
20
-4.3735
11
6.33968
21
-4.37517
0
LINE
8
BLACK
6
CONTINUOUS
10
6.33968
20
-4.37517
11
6.33801
21
-4.37587
0
LINE
8
BLACK
6
CONTINUOUS
10
6.33801
20
-4.37587
11
6.30801
21
-4.37587
0
LINE
8
BLACK
6
CONTINUOUS
10
6.30801
20
-4.37587
11
6.30634
21
-4.37517
0
LINE
8
BLACK
6
CONTINUOUS
10
6.30634
20
-4.37517
11
6.30565
21
-4.3735
0
LINE
8
BLACK
6
CONTINUOUS
10
6.30565
20
-4.3735
11
6.30634
21
-4.37183
0
LINE
8
BLACK
6
CONTINUOUS
10
6.30634
20
-4.37183
11
6.30801
21
-4.37114
0
LINE
8
BLACK
6
CONTINUOUS
10
6.30801
20
-4.37114
11
6.33801
21
-4.37114
0
LINE
8
BLACK
6
CONTINUOUS
10
6.33801
20
-4.37114
11
6.33968
21
-4.37183
0
LINE
8
BLACK
6
CONTINUOUS
10
5.83306
20
-4.28361
11
5.83375
21
-4.2855
0
LINE
8
BLACK
6
CONTINUOUS
10
5.83375
20
-4.2855
11
5.83375
21
-4.3455
0
LINE
8
BLACK
6
CONTINUOUS
10
5.83375
20
-4.3455
11
5.83357
21
-4.34651
0
LINE
8
BLACK
6
CONTINUOUS
10
5.83357
20
-4.34651
11
5.83228
21
-4.34806
0
LINE
8
BLACK
6
CONTINUOUS
10
5.83228
20
-4.34806
11
5.83029
21
-4.34841
0
LINE
8
BLACK
6
CONTINUOUS
10
5.83029
20
-4.34841
11
5.82854
21
-4.3474
0
LINE
8
BLACK
6
CONTINUOUS
10
5.82854
20
-4.3474
11
5.82785
21
-4.3455
0
LINE
8
BLACK
6
CONTINUOUS
10
5.82785
20
-4.3455
11
5.82785
21
-4.2855
0
LINE
8
BLACK
6
CONTINUOUS
10
5.82785
20
-4.2855
11
5.82802
21
-4.28449
0
LINE
8
BLACK
6
CONTINUOUS
10
5.82802
20
-4.28449
11
5.82932
21
-4.28295
0
LINE
8
BLACK
6
CONTINUOUS
10
5.82932
20
-4.28295
11
5.83131
21
-4.2826
0
LINE
8
BLACK
6
CONTINUOUS
10
5.83131
20
-4.2826
11
5.83306
21
-4.28361
0
LINE
8
BLACK
6
CONTINUOUS
10
5.95306
20
-4.28361
11
5.95375
21
-4.2855
0
LINE
8
BLACK
6
CONTINUOUS
10
5.95375
20
-4.2855
11
5.95375
21
-4.3455
0
LINE
8
BLACK
6
CONTINUOUS
10
5.95375
20
-4.3455
11
5.95357
21
-4.34651
0
LINE
8
BLACK
6
CONTINUOUS
10
5.95357
20
-4.34651
11
5.95228
21
-4.34806
0
LINE
8
BLACK
6
CONTINUOUS
10
5.95228
20
-4.34806
11
5.95029
21
-4.34841
0
LINE
8
BLACK
6
CONTINUOUS
10
5.95029
20
-4.34841
11
5.94854
21
-4.3474
0
LINE
8
BLACK
6
CONTINUOUS
10
5.94854
20
-4.3474
11
5.94785
21
-4.3455
0
LINE
8
BLACK
6
CONTINUOUS
10
5.94785
20
-4.3455
11
5.94785
21
-4.2855
0
LINE
8
BLACK
6
CONTINUOUS
10
5.94785
20
-4.2855
11
5.94802
21
-4.28449
0
LINE
8
BLACK
6
CONTINUOUS
10
5.94802
20
-4.28449
11
5.94932
21
-4.28295
0
LINE
8
BLACK
6
CONTINUOUS
10
5.94932
20
-4.28295
11
5.95131
21
-4.2826
0
LINE
8
BLACK
6
CONTINUOUS
10
5.95131
20
-4.2826
11
5.95306
21
-4.28361
0
LINE
8
BLACK
6
CONTINUOUS
10
5.90747
20
-4.34383
11
5.90816
21
-4.3455
0
LINE
8
BLACK
6
CONTINUOUS
10
5.90816
20
-4.3455
11
5.90747
21
-4.34717
0
LINE
8
BLACK
6
CONTINUOUS
10
5.90747
20
-4.34717
11
5.9058
21
-4.34787
0
LINE
8
BLACK
6
CONTINUOUS
10
5.9058
20
-4.34787
11
5.8758
21
-4.34787
0
LINE
8
BLACK
6
CONTINUOUS
10
5.8758
20
-4.34787
11
5.87413
21
-4.34717
0
LINE
8
BLACK
6
CONTINUOUS
10
5.87413
20
-4.34717
11
5.87344
21
-4.3455
0
LINE
8
BLACK
6
CONTINUOUS
10
5.87344
20
-4.3455
11
5.87413
21
-4.34383
0
LINE
8
BLACK
6
CONTINUOUS
10
5.87413
20
-4.34383
11
5.8758
21
-4.34314
0
LINE
8
BLACK
6
CONTINUOUS
10
5.8758
20
-4.34314
11
5.9058
21
-4.34314
0
LINE
8
BLACK
6
CONTINUOUS
10
5.9058
20
-4.34314
11
5.90747
21
-4.34383
0
LINE
8
BLACK
6
CONTINUOUS
10
6.33968
20
-4.31183
11
6.34037
21
-4.3135
0
LINE
8
BLACK
6
CONTINUOUS
10
6.34037
20
-4.3135
11
6.33968
21
-4.31517
0
LINE
8
BLACK
6
CONTINUOUS
10
6.33968
20
-4.31517
11
6.33801
21
-4.31587
0
LINE
8
BLACK
6
CONTINUOUS
10
6.33801
20
-4.31587
11
6.30801
21
-4.31587
0
LINE
8
BLACK
6
CONTINUOUS
10
6.30801
20
-4.31587
11
6.30634
21
-4.31517
0
LINE
8
BLACK
6
CONTINUOUS
10
6.30634
20
-4.31517
11
6.30565
21
-4.3135
0
LINE
8
BLACK
6
CONTINUOUS
10
6.30565
20
-4.3135
11
6.30634
21
-4.31183
0
LINE
8
BLACK
6
CONTINUOUS
10
6.30634
20
-4.31183
11
6.30801
21
-4.31114
0
LINE
8
BLACK
6
CONTINUOUS
10
6.30801
20
-4.31114
11
6.33801
21
-4.31114
0
LINE
8
BLACK
6
CONTINUOUS
10
6.33801
20
-4.31114
11
6.33968
21
-4.31183
0
LINE
8
BLACK
6
CONTINUOUS
10
5.73855
20
-4.25122
11
5.73872
21
-4.25121
0
LINE
8
BLACK
6
CONTINUOUS
10
5.73872
20
-4.25121
11
5.73941
21
-4.25171
0
LINE
8
BLACK
6
CONTINUOUS
10
5.73941
20
-4.25171
11
5.74015
21
-4.25214
0
LINE
8
BLACK
6
CONTINUOUS
10
5.74015
20
-4.25214
11
5.74021
21
-4.2523
0
LINE
8
BLACK
6
CONTINUOUS
10
5.74021
20
-4.2523
11
5.74035
21
-4.2524
0
LINE
8
BLACK
6
CONTINUOUS
10
5.74035
20
-4.2524
11
5.74393
21
-4.25778
0
LINE
8
BLACK
6
CONTINUOUS
10
5.74393
20
-4.25778
11
5.74714
21
-4.26099
0
LINE
8
BLACK
6
CONTINUOUS
10
5.74714
20
-4.26099
11
5.75046
21
-4.26265
0
LINE
8
BLACK
6
CONTINUOUS
10
5.75046
20
-4.26265
11
5.75128
21
-4.26326
0
LINE
8
BLACK
6
CONTINUOUS
10
5.75128
20
-4.26326
11
5.75209
21
-4.26511
0
LINE
8
BLACK
6
CONTINUOUS
10
5.75209
20
-4.26511
11
5.75151
21
-4.26705
0
LINE
8
BLACK
6
CONTINUOUS
10
5.75151
20
-4.26705
11
5.74982
21
-4.26816
0
LINE
8
BLACK
6
CONTINUOUS
10
5.74982
20
-4.26816
11
5.74782
21
-4.26793
0
LINE
8
BLACK
6
CONTINUOUS
10
5.74782
20
-4.26793
11
5.74407
21
-4.26605
0
LINE
8
BLACK
6
CONTINUOUS
10
5.74407
20
-4.26605
11
5.74336
21
-4.26553
0
LINE
8
BLACK
6
CONTINUOUS
10
5.74336
20
-4.26553
11
5.7433
21
-4.2655
0
LINE
8
BLACK
6
CONTINUOUS
10
5.7433
20
-4.2655
11
5.74084
21
-4.26304
0
LINE
8
BLACK
6
CONTINUOUS
10
5.74084
20
-4.26304
11
5.74084
21
-4.29046
0
LINE
8
BLACK
6
CONTINUOUS
10
5.74084
20
-4.29046
11
5.74914
21
-4.29046
0
LINE
8
BLACK
6
CONTINUOUS
10
5.74914
20
-4.29046
11
5.75015
21
-4.29064
0
LINE
8
BLACK
6
CONTINUOUS
10
5.75015
20
-4.29064
11
5.7517
21
-4.29193
0
LINE
8
BLACK
6
CONTINUOUS
10
5.7517
20
-4.29193
11
5.75205
21
-4.29392
0
LINE
8
BLACK
6
CONTINUOUS
10
5.75205
20
-4.29392
11
5.75104
21
-4.29567
0
LINE
8
BLACK
6
CONTINUOUS
10
5.75104
20
-4.29567
11
5.74914
21
-4.29636
0
LINE
8
BLACK
6
CONTINUOUS
10
5.74914
20
-4.29636
11
5.72664
21
-4.29636
0
LINE
8
BLACK
6
CONTINUOUS
10
5.72664
20
-4.29636
11
5.72563
21
-4.29618
0
LINE
8
BLACK
6
CONTINUOUS
10
5.72563
20
-4.29618
11
5.72408
21
-4.29489
0
LINE
8
BLACK
6
CONTINUOUS
10
5.72408
20
-4.29489
11
5.72373
21
-4.2929
0
LINE
8
BLACK
6
CONTINUOUS
10
5.72373
20
-4.2929
11
5.72474
21
-4.29115
0
LINE
8
BLACK
6
CONTINUOUS
10
5.72474
20
-4.29115
11
5.72664
21
-4.29046
0
LINE
8
BLACK
6
CONTINUOUS
10
5.72664
20
-4.29046
11
5.73494
21
-4.29046
0
LINE
8
BLACK
6
CONTINUOUS
10
5.73494
20
-4.29046
11
5.73494
21
-4.25404
0
LINE
8
BLACK
6
CONTINUOUS
10
5.73494
20
-4.25404
11
5.73511
21
-4.25303
0
LINE
8
BLACK
6
CONTINUOUS
10
5.73511
20
-4.25303
11
5.73522
21
-4.2529
0
LINE
8
BLACK
6
CONTINUOUS
10
5.73522
20
-4.2529
11
5.73524
21
-4.25273
0
LINE
8
BLACK
6
CONTINUOUS
10
5.73524
20
-4.25273
11
5.73586
21
-4.25214
0
LINE
8
BLACK
6
CONTINUOUS
10
5.73586
20
-4.25214
11
5.73641
21
-4.25148
0
LINE
8
BLACK
6
CONTINUOUS
10
5.73641
20
-4.25148
11
5.73658
21
-4.25145
0
LINE
8
BLACK
6
CONTINUOUS
10
5.73658
20
-4.25145
11
5.7367
21
-4.25134
0
LINE
8
BLACK
6
CONTINUOUS
10
5.7367
20
-4.25134
11
5.73756
21
-4.25128
0
LINE
8
BLACK
6
CONTINUOUS
10
5.73756
20
-4.25128
11
5.7384
21
-4.25113
0
LINE
8
BLACK
6
CONTINUOUS
10
5.7384
20
-4.25113
11
5.73855
21
-4.25122
0
LINE
8
BLACK
6
CONTINUOUS
10
5.79077
20
-4.25214
11
5.79146
21
-4.25404
0
LINE
8
BLACK
6
CONTINUOUS
10
5.79146
20
-4.25404
11
5.79146
21
-4.28591
0
LINE
8
BLACK
6
CONTINUOUS
10
5.79146
20
-4.28591
11
5.79128
21
-4.28692
0
LINE
8
BLACK
6
CONTINUOUS
10
5.79128
20
-4.28692
11
5.79117
21
-4.28706
0
LINE
8
BLACK
6
CONTINUOUS
10
5.79117
20
-4.28706
11
5.79115
21
-4.28723
0
LINE
8
BLACK
6
CONTINUOUS
10
5.79115
20
-4.28723
11
5.78927
21
-4.29098
0
LINE
8
BLACK
6
CONTINUOUS
10
5.78927
20
-4.29098
11
5.78875
21
-4.29169
0
LINE
8
BLACK
6
CONTINUOUS
10
5.78875
20
-4.29169
11
5.78872
21
-4.29175
0
LINE
8
BLACK
6
CONTINUOUS
10
5.78872
20
-4.29175
11
5.78685
21
-4.29362
0
LINE
8
BLACK
6
CONTINUOUS
10
5.78685
20
-4.29362
11
5.78612
21
-4.29413
0
LINE
8
BLACK
6
CONTINUOUS
10
5.78612
20
-4.29413
11
5.78608
21
-4.29418
0
LINE
8
BLACK
6
CONTINUOUS
10
5.78608
20
-4.29418
11
5.78233
21
-4.29605
0
LINE
8
BLACK
6
CONTINUOUS
10
5.78233
20
-4.29605
11
5.78135
21
-4.29634
0
LINE
8
BLACK
6
CONTINUOUS
10
5.78135
20
-4.29634
11
5.78117
21
-4.2963
0
LINE
8
BLACK
6
CONTINUOUS
10
5.78117
20
-4.2963
11
5.78101
21
-4.29636
0
LINE
8
BLACK
6
CONTINUOUS
10
5.78101
20
-4.29636
11
5.77351
21
-4.29636
0
LINE
8
BLACK
6
CONTINUOUS
10
5.77351
20
-4.29636
11
5.7725
21
-4.29618
0
LINE
8
BLACK
6
CONTINUOUS
10
5.7725
20
-4.29618
11
5.77236
21
-4.29607
0
LINE
8
BLACK
6
CONTINUOUS
10
5.77236
20
-4.29607
11
5.77219
21
-4.29605
0
LINE
8
BLACK
6
CONTINUOUS
10
5.77219
20
-4.29605
11
5.76844
21
-4.29418
0
LINE
8
BLACK
6
CONTINUOUS
10
5.76844
20
-4.29418
11
5.76773
21
-4.29365
0
LINE
8
BLACK
6
CONTINUOUS
10
5.76773
20
-4.29365
11
5.76767
21
-4.29362
0
LINE
8
BLACK
6
CONTINUOUS
10
5.76767
20
-4.29362
11
5.7658
21
-4.29175
0
LINE
8
BLACK
6
CONTINUOUS
10
5.7658
20
-4.29175
11
5.76529
21
-4.29103
0
LINE
8
BLACK
6
CONTINUOUS
10
5.76529
20
-4.29103
11
5.76524
21
-4.29098
0
LINE
8
BLACK
6
CONTINUOUS
10
5.76524
20
-4.29098
11
5.76337
21
-4.28723
0
LINE
8
BLACK
6
CONTINUOUS
10
5.76337
20
-4.28723
11
5.76308
21
-4.28625
0
LINE
8
BLACK
6
CONTINUOUS
10
5.76308
20
-4.28625
11
5.76312
21
-4.28608
0
LINE
8
BLACK
6
CONTINUOUS
10
5.76312
20
-4.28608
11
5.76306
21
-4.28591
0
LINE
8
BLACK
6
CONTINUOUS
10
5.76306
20
-4.28591
11
5.76306
21
-4.25404
0
LINE
8
BLACK
6
CONTINUOUS
10
5.76306
20
-4.25404
11
5.76324
21
-4.25303
0
LINE
8
BLACK
6
CONTINUOUS
10
5.76324
20
-4.25303
11
5.76453
21
-4.25148
0
LINE
8
BLACK
6
CONTINUOUS
10
5.76453
20
-4.25148
11
5.76652
21
-4.25113
0
LINE
8
BLACK
6
CONTINUOUS
10
5.76652
20
-4.25113
11
5.76827
21
-4.25214
0
LINE
8
BLACK
6
CONTINUOUS
10
5.76827
20
-4.25214
11
5.76896
21
-4.25404
0
LINE
8
BLACK
6
CONTINUOUS
10
5.76896
20
-4.25404
11
5.76896
21
-4.28521
0
LINE
8
BLACK
6
CONTINUOUS
10
5.76896
20
-4.28521
11
5.77031
21
-4.28791
0
LINE
8
BLACK
6
CONTINUOUS
10
5.77031
20
-4.28791
11
5.77151
21
-4.28911
0
LINE
8
BLACK
6
CONTINUOUS
10
5.77151
20
-4.28911
11
5.77421
21
-4.29046
0
LINE
8
BLACK
6
CONTINUOUS
10
5.77421
20
-4.29046
11
5.78031
21
-4.29046
0
LINE
8
BLACK
6
CONTINUOUS
10
5.78031
20
-4.29046
11
5.78301
21
-4.28911
0
LINE
8
BLACK
6
CONTINUOUS
10
5.78301
20
-4.28911
11
5.78421
21
-4.28791
0
LINE
8
BLACK
6
CONTINUOUS
10
5.78421
20
-4.28791
11
5.78556
21
-4.28521
0
LINE
8
BLACK
6
CONTINUOUS
10
5.78556
20
-4.28521
11
5.78556
21
-4.25404
0
LINE
8
BLACK
6
CONTINUOUS
10
5.78556
20
-4.25404
11
5.78573
21
-4.25303
0
LINE
8
BLACK
6
CONTINUOUS
10
5.78573
20
-4.25303
11
5.78703
21
-4.25148
0
LINE
8
BLACK
6
CONTINUOUS
10
5.78703
20
-4.25148
11
5.78902
21
-4.25113
0
LINE
8
BLACK
6
CONTINUOUS
10
5.78902
20
-4.25113
11
5.79077
21
-4.25214
0
LINE
8
BLACK
6
CONTINUOUS
10
6.26527
20
-4.22661
11
6.26596
21
-4.2285
0
LINE
8
BLACK
6
CONTINUOUS
10
6.26596
20
-4.2285
11
6.26596
21
-4.2885
0
LINE
8
BLACK
6
CONTINUOUS
10
6.26596
20
-4.2885
11
6.26579
21
-4.28951
0
LINE
8
BLACK
6
CONTINUOUS
10
6.26579
20
-4.28951
11
6.26449
21
-4.29106
0
LINE
8
BLACK
6
CONTINUOUS
10
6.26449
20
-4.29106
11
6.2625
21
-4.29141
0
LINE
8
BLACK
6
CONTINUOUS
10
6.2625
20
-4.29141
11
6.26075
21
-4.2904
0
LINE
8
BLACK
6
CONTINUOUS
10
6.26075
20
-4.2904
11
6.26006
21
-4.2885
0
LINE
8
BLACK
6
CONTINUOUS
10
6.26006
20
-4.2885
11
6.26006
21
-4.2285
0
LINE
8
BLACK
6
CONTINUOUS
10
6.26006
20
-4.2285
11
6.26024
21
-4.22749
0
LINE
8
BLACK
6
CONTINUOUS
10
6.26024
20
-4.22749
11
6.26154
21
-4.22595
0
LINE
8
BLACK
6
CONTINUOUS
10
6.26154
20
-4.22595
11
6.26352
21
-4.2256
0
LINE
8
BLACK
6
CONTINUOUS
10
6.26352
20
-4.2256
11
6.26527
21
-4.22661
0
LINE
8
BLACK
6
CONTINUOUS
10
6.38527
20
-4.22661
11
6.38596
21
-4.2285
0
LINE
8
BLACK
6
CONTINUOUS
10
6.38596
20
-4.2285
11
6.38596
21
-4.2885
0
LINE
8
BLACK
6
CONTINUOUS
10
6.38596
20
-4.2885
11
6.38579
21
-4.28951
0
LINE
8
BLACK
6
CONTINUOUS
10
6.38579
20
-4.28951
11
6.38449
21
-4.29106
0
LINE
8
BLACK
6
CONTINUOUS
10
6.38449
20
-4.29106
11
6.3825
21
-4.29141
0
LINE
8
BLACK
6
CONTINUOUS
10
6.3825
20
-4.29141
11
6.38075
21
-4.2904
0
LINE
8
BLACK
6
CONTINUOUS
10
6.38075
20
-4.2904
11
6.38006
21
-4.2885
0
LINE
8
BLACK
6
CONTINUOUS
10
6.38006
20
-4.2885
11
6.38006
21
-4.2285
0
LINE
8
BLACK
6
CONTINUOUS
10
6.38006
20
-4.2285
11
6.38024
21
-4.22749
0
LINE
8
BLACK
6
CONTINUOUS
10
6.38024
20
-4.22749
11
6.38154
21
-4.22595
0
LINE
8
BLACK
6
CONTINUOUS
10
6.38154
20
-4.22595
11
6.38352
21
-4.2256
0
LINE
8
BLACK
6
CONTINUOUS
10
6.38352
20
-4.2256
11
6.38527
21
-4.22661
0
LINE
8
BLACK
6
CONTINUOUS
10
6.33968
20
-4.28683
11
6.34037
21
-4.2885
0
LINE
8
BLACK
6
CONTINUOUS
10
6.34037
20
-4.2885
11
6.33968
21
-4.29017
0
LINE
8
BLACK
6
CONTINUOUS
10
6.33968
20
-4.29017
11
6.33801
21
-4.29087
0
LINE
8
BLACK
6
CONTINUOUS
10
6.33801
20
-4.29087
11
6.30801
21
-4.29087
0
LINE
8
BLACK
6
CONTINUOUS
10
6.30801
20
-4.29087
11
6.30634
21
-4.29017
0
LINE
8
BLACK
6
CONTINUOUS
10
6.30634
20
-4.29017
11
6.30565
21
-4.2885
0
LINE
8
BLACK
6
CONTINUOUS
10
6.30565
20
-4.2885
11
6.30634
21
-4.28683
0
LINE
8
BLACK
6
CONTINUOUS
10
6.30634
20
-4.28683
11
6.30801
21
-4.28614
0
LINE
8
BLACK
6
CONTINUOUS
10
6.30801
20
-4.28614
11
6.33801
21
-4.28614
0
LINE
8
BLACK
6
CONTINUOUS
10
6.33801
20
-4.28614
11
6.33968
21
-4.28683
0
LINE
8
BLACK
6
CONTINUOUS
10
5.90747
20
-4.28383
11
5.90816
21
-4.2855
0
LINE
8
BLACK
6
CONTINUOUS
10
5.90816
20
-4.2855
11
5.90747
21
-4.28717
0
LINE
8
BLACK
6
CONTINUOUS
10
5.90747
20
-4.28717
11
5.9058
21
-4.28787
0
LINE
8
BLACK
6
CONTINUOUS
10
5.9058
20
-4.28787
11
5.8758
21
-4.28787
0
LINE
8
BLACK
6
CONTINUOUS
10
5.8758
20
-4.28787
11
5.87413
21
-4.28717
0
LINE
8
BLACK
6
CONTINUOUS
10
5.87413
20
-4.28717
11
5.87344
21
-4.2855
0
LINE
8
BLACK
6
CONTINUOUS
10
5.87344
20
-4.2855
11
5.87413
21
-4.28383
0
LINE
8
BLACK
6
CONTINUOUS
10
5.87413
20
-4.28383
11
5.8758
21
-4.28314
0
LINE
8
BLACK
6
CONTINUOUS
10
5.8758
20
-4.28314
11
5.9058
21
-4.28314
0
LINE
8
BLACK
6
CONTINUOUS
10
5.9058
20
-4.28314
11
5.90747
21
-4.28383
0
LINE
8
BLACK
6
CONTINUOUS
10
6.01152
20
-4.26323
11
6.01307
21
-4.26453
0
LINE
8
BLACK
6
CONTINUOUS
10
6.01307
20
-4.26453
11
6.01342
21
-4.26652
0
LINE
8
BLACK
6
CONTINUOUS
10
6.01342
20
-4.26652
11
6.01241
21
-4.26827
0
LINE
8
BLACK
6
CONTINUOUS
10
6.01241
20
-4.26827
11
6.01051
21
-4.26896
0
LINE
8
BLACK
6
CONTINUOUS
10
6.01051
20
-4.26896
11
5.95051
21
-4.26896
0
LINE
8
BLACK
6
CONTINUOUS
10
5.95051
20
-4.26896
11
5.9495
21
-4.26878
0
LINE
8
BLACK
6
CONTINUOUS
10
5.9495
20
-4.26878
11
5.94795
21
-4.26748
0
LINE
8
BLACK
6
CONTINUOUS
10
5.94795
20
-4.26748
11
5.9476
21
-4.26549
0
LINE
8
BLACK
6
CONTINUOUS
10
5.9476
20
-4.26549
11
5.94861
21
-4.26374
0
LINE
8
BLACK
6
CONTINUOUS
10
5.94861
20
-4.26374
11
5.95051
21
-4.26305
0
LINE
8
BLACK
6
CONTINUOUS
10
5.95051
20
-4.26305
11
6.01051
21
-4.26305
0
LINE
8
BLACK
6
CONTINUOUS
10
6.01051
20
-4.26305
11
6.01152
21
-4.26323
0
LINE
8
BLACK
6
CONTINUOUS
10
5.88474
20
-4.2375
11
5.88543
21
-4.23917
0
LINE
8
BLACK
6
CONTINUOUS
10
5.88543
20
-4.23917
11
5.88474
21
-4.24084
0
LINE
8
BLACK
6
CONTINUOUS
10
5.88474
20
-4.24084
11
5.88307
21
-4.24154
0
LINE
8
BLACK
6
CONTINUOUS
10
5.88307
20
-4.24154
11
5.82795
21
-4.24154
0
LINE
8
BLACK
6
CONTINUOUS
10
5.82795
20
-4.24154
11
5.82628
21
-4.24084
0
LINE
8
BLACK
6
CONTINUOUS
10
5.82628
20
-4.24084
11
5.82559
21
-4.23917
0
LINE
8
BLACK
6
CONTINUOUS
10
5.82559
20
-4.23917
11
5.82628
21
-4.2375
0
LINE
8
BLACK
6
CONTINUOUS
10
5.82628
20
-4.2375
11
5.82795
21
-4.23681
0
LINE
8
BLACK
6
CONTINUOUS
10
5.82795
20
-4.23681
11
5.88307
21
-4.23681
0
LINE
8
BLACK
6
CONTINUOUS
10
5.88307
20
-4.23681
11
5.88474
21
-4.2375
0
LINE
8
BLACK
6
CONTINUOUS
10
6.33968
20
-4.22683
11
6.34037
21
-4.2285
0
LINE
8
BLACK
6
CONTINUOUS
10
6.34037
20
-4.2285
11
6.33968
21
-4.23017
0
LINE
8
BLACK
6
CONTINUOUS
10
6.33968
20
-4.23017
11
6.33801
21
-4.23087
0
LINE
8
BLACK
6
CONTINUOUS
10
6.33801
20
-4.23087
11
6.30801
21
-4.23087
0
LINE
8
BLACK
6
CONTINUOUS
10
6.30801
20
-4.23087
11
6.30634
21
-4.23017
0
LINE
8
BLACK
6
CONTINUOUS
10
6.30634
20
-4.23017
11
6.30565
21
-4.2285
0
LINE
8
BLACK
6
CONTINUOUS
10
6.30565
20
-4.2285
11
6.30634
21
-4.22683
0
LINE
8
BLACK
6
CONTINUOUS
10
6.30634
20
-4.22683
11
6.30801
21
-4.22614
0
LINE
8
BLACK
6
CONTINUOUS
10
6.30801
20
-4.22614
11
6.33801
21
-4.22614
0
LINE
8
BLACK
6
CONTINUOUS
10
6.33801
20
-4.22614
11
6.33968
21
-4.22683
0
LINE
8
BLACK
6
CONTINUOUS
10
6.19124
20
-4.17922
11
6.19141
21
-4.17921
0
LINE
8
BLACK
6
CONTINUOUS
10
6.19141
20
-4.17921
11
6.1921
21
-4.17971
0
LINE
8
BLACK
6
CONTINUOUS
10
6.1921
20
-4.17971
11
6.19284
21
-4.18014
0
LINE
8
BLACK
6
CONTINUOUS
10
6.19284
20
-4.18014
11
6.1929
21
-4.1803
0
LINE
8
BLACK
6
CONTINUOUS
10
6.1929
20
-4.1803
11
6.19303
21
-4.1804
0
LINE
8
BLACK
6
CONTINUOUS
10
6.19303
20
-4.1804
11
6.19662
21
-4.18578
0
LINE
8
BLACK
6
CONTINUOUS
10
6.19662
20
-4.18578
11
6.19982
21
-4.18899
0
LINE
8
BLACK
6
CONTINUOUS
10
6.19982
20
-4.18899
11
6.20315
21
-4.19065
0
LINE
8
BLACK
6
CONTINUOUS
10
6.20315
20
-4.19065
11
6.20397
21
-4.19126
0
LINE
8
BLACK
6
CONTINUOUS
10
6.20397
20
-4.19126
11
6.20477
21
-4.19311
0
LINE
8
BLACK
6
CONTINUOUS
10
6.20477
20
-4.19311
11
6.2042
21
-4.19505
0
LINE
8
BLACK
6
CONTINUOUS
10
6.2042
20
-4.19505
11
6.20251
21
-4.19616
0
LINE
8
BLACK
6
CONTINUOUS
10
6.20251
20
-4.19616
11
6.2005
21
-4.19593
0
LINE
8
BLACK
6
CONTINUOUS
10
6.2005
20
-4.19593
11
6.19675
21
-4.19405
0
LINE
8
BLACK
6
CONTINUOUS
10
6.19675
20
-4.19405
11
6.19605
21
-4.19353
0
LINE
8
BLACK
6
CONTINUOUS
10
6.19605
20
-4.19353
11
6.19599
21
-4.1935
0
LINE
8
BLACK
6
CONTINUOUS
10
6.19599
20
-4.1935
11
6.19353
21
-4.19104
0
LINE
8
BLACK
6
CONTINUOUS
10
6.19353
20
-4.19104
11
6.19353
21
-4.21846
0
LINE
8
BLACK
6
CONTINUOUS
10
6.19353
20
-4.21846
11
6.20182
21
-4.21846
0
LINE
8
BLACK
6
CONTINUOUS
10
6.20182
20
-4.21846
11
6.20283
21
-4.21864
0
LINE
8
BLACK
6
CONTINUOUS
10
6.20283
20
-4.21864
11
6.20438
21
-4.21993
0
LINE
8
BLACK
6
CONTINUOUS
10
6.20438
20
-4.21993
11
6.20473
21
-4.22192
0
LINE
8
BLACK
6
CONTINUOUS
10
6.20473
20
-4.22192
11
6.20372
21
-4.22367
0
LINE
8
BLACK
6
CONTINUOUS
10
6.20372
20
-4.22367
11
6.20182
21
-4.22436
0
LINE
8
BLACK
6
CONTINUOUS
10
6.20182
20
-4.22436
11
6.17933
21
-4.22436
0
LINE
8
BLACK
6
CONTINUOUS
10
6.17933
20
-4.22436
11
6.17832
21
-4.22418
0
LINE
8
BLACK
6
CONTINUOUS
10
6.17832
20
-4.22418
11
6.17677
21
-4.22289
0
LINE
8
BLACK
6
CONTINUOUS
10
6.17677
20
-4.22289
11
6.17642
21
-4.2209
0
LINE
8
BLACK
6
CONTINUOUS
10
6.17642
20
-4.2209
11
6.17743
21
-4.21915
0
LINE
8
BLACK
6
CONTINUOUS
10
6.17743
20
-4.21915
11
6.17933
21
-4.21846
0
LINE
8
BLACK
6
CONTINUOUS
10
6.17933
20
-4.21846
11
6.18762
21
-4.21846
0
LINE
8
BLACK
6
CONTINUOUS
10
6.18762
20
-4.21846
11
6.18762
21
-4.18204
0
LINE
8
BLACK
6
CONTINUOUS
10
6.18762
20
-4.18204
11
6.1878
21
-4.18103
0
LINE
8
BLACK
6
CONTINUOUS
10
6.1878
20
-4.18103
11
6.18791
21
-4.1809
0
LINE
8
BLACK
6
CONTINUOUS
10
6.18791
20
-4.1809
11
6.18793
21
-4.18073
0
LINE
8
BLACK
6
CONTINUOUS
10
6.18793
20
-4.18073
11
6.18855
21
-4.18014
0
LINE
8
BLACK
6
CONTINUOUS
10
6.18855
20
-4.18014
11
6.1891
21
-4.17948
0
LINE
8
BLACK
6
CONTINUOUS
10
6.1891
20
-4.17948
11
6.18927
21
-4.17945
0
LINE
8
BLACK
6
CONTINUOUS
10
6.18927
20
-4.17945
11
6.18939
21
-4.17934
0
LINE
8
BLACK
6
CONTINUOUS
10
6.18939
20
-4.17934
11
6.19024
21
-4.17928
0
LINE
8
BLACK
6
CONTINUOUS
10
6.19024
20
-4.17928
11
6.19109
21
-4.17913
0
LINE
8
BLACK
6
CONTINUOUS
10
6.19109
20
-4.17913
11
6.19124
21
-4.17922
0
LINE
8
BLACK
6
CONTINUOUS
10
6.23408
20
-4.18014
11
6.23477
21
-4.18204
0
LINE
8
BLACK
6
CONTINUOUS
10
6.23477
20
-4.18204
11
6.23477
21
-4.22141
0
LINE
8
BLACK
6
CONTINUOUS
10
6.23477
20
-4.22141
11
6.23471
21
-4.22179
0
LINE
8
BLACK
6
CONTINUOUS
10
6.23471
20
-4.22179
11
6.23473
21
-4.22192
0
LINE
8
BLACK
6
CONTINUOUS
10
6.23473
20
-4.22192
11
6.23466
21
-4.22204
0
LINE
8
BLACK
6
CONTINUOUS
10
6.23466
20
-4.22204
11
6.2346
21
-4.22242
0
LINE
8
BLACK
6
CONTINUOUS
10
6.2346
20
-4.22242
11
6.2341
21
-4.22301
0
LINE
8
BLACK
6
CONTINUOUS
10
6.2341
20
-4.22301
11
6.23372
21
-4.22367
0
LINE
8
BLACK
6
CONTINUOUS
10
6.23372
20
-4.22367
11
6.23347
21
-4.22376
0
LINE
8
BLACK
6
CONTINUOUS
10
6.23347
20
-4.22376
11
6.2333
21
-4.22397
0
LINE
8
BLACK
6
CONTINUOUS
10
6.2333
20
-4.22397
11
6.23254
21
-4.2241
0
LINE
8
BLACK
6
CONTINUOUS
10
6.23254
20
-4.2241
11
6.23182
21
-4.22436
0
LINE
8
BLACK
6
CONTINUOUS
10
6.23182
20
-4.22436
11
6.21307
21
-4.22436
0
LINE
8
BLACK
6
CONTINUOUS
10
6.21307
20
-4.22436
11
6.21206
21
-4.22418
0
LINE
8
BLACK
6
CONTINUOUS
10
6.21206
20
-4.22418
11
6.21052
21
-4.22289
0
LINE
8
BLACK
6
CONTINUOUS
10
6.21052
20
-4.22289
11
6.21017
21
-4.2209
0
LINE
8
BLACK
6
CONTINUOUS
10
6.21017
20
-4.2209
11
6.21118
21
-4.21915
0
LINE
8
BLACK
6
CONTINUOUS
10
6.21118
20
-4.21915
11
6.21307
21
-4.21846
0
LINE
8
BLACK
6
CONTINUOUS
10
6.21307
20
-4.21846
11
6.22887
21
-4.21846
0
LINE
8
BLACK
6
CONTINUOUS
10
6.22887
20
-4.21846
11
6.22887
21
-4.18204
0
LINE
8
BLACK
6
CONTINUOUS
10
6.22887
20
-4.18204
11
6.22905
21
-4.18103
0
LINE
8
BLACK
6
CONTINUOUS
10
6.22905
20
-4.18103
11
6.23034
21
-4.17948
0
LINE
8
BLACK
6
CONTINUOUS
10
6.23034
20
-4.17948
11
6.23233
21
-4.17913
0
LINE
8
BLACK
6
CONTINUOUS
10
6.23233
20
-4.17913
11
6.23408
21
-4.18014
0
LINE
8
BLACK
6
CONTINUOUS
10
5.95218
20
-4.18933
11
5.95287
21
-4.191
0
LINE
8
BLACK
6
CONTINUOUS
10
5.95287
20
-4.191
11
5.95287
21
-4.221
0
LINE
8
BLACK
6
CONTINUOUS
10
5.95287
20
-4.221
11
5.95218
21
-4.22267
0
LINE
8
BLACK
6
CONTINUOUS
10
5.95218
20
-4.22267
11
5.95051
21
-4.22337
0
LINE
8
BLACK
6
CONTINUOUS
10
5.95051
20
-4.22337
11
5.94884
21
-4.22267
0
LINE
8
BLACK
6
CONTINUOUS
10
5.94884
20
-4.22267
11
5.94815
21
-4.221
0
LINE
8
BLACK
6
CONTINUOUS
10
5.94815
20
-4.221
11
5.94815
21
-4.191
0
LINE
8
BLACK
6
CONTINUOUS
10
5.94815
20
-4.191
11
5.94884
21
-4.18933
0
LINE
8
BLACK
6
CONTINUOUS
10
5.94884
20
-4.18933
11
5.95051
21
-4.18864
0
LINE
8
BLACK
6
CONTINUOUS
10
5.95051
20
-4.18864
11
5.95218
21
-4.18933
0
LINE
8
BLACK
6
CONTINUOUS
10
6.01218
20
-4.18933
11
6.01287
21
-4.191
0
LINE
8
BLACK
6
CONTINUOUS
10
6.01287
20
-4.191
11
6.01287
21
-4.221
0
LINE
8
BLACK
6
CONTINUOUS
10
6.01287
20
-4.221
11
6.01218
21
-4.22267
0
LINE
8
BLACK
6
CONTINUOUS
10
6.01218
20
-4.22267
11
6.01051
21
-4.22337
0
LINE
8
BLACK
6
CONTINUOUS
10
6.01051
20
-4.22337
11
6.00884
21
-4.22267
0
LINE
8
BLACK
6
CONTINUOUS
10
6.00884
20
-4.22267
11
6.00815
21
-4.221
0
LINE
8
BLACK
6
CONTINUOUS
10
6.00815
20
-4.221
11
6.00815
21
-4.191
0
LINE
8
BLACK
6
CONTINUOUS
10
6.00815
20
-4.191
11
6.00884
21
-4.18933
0
LINE
8
BLACK
6
CONTINUOUS
10
6.00884
20
-4.18933
11
6.01051
21
-4.18864
0
LINE
8
BLACK
6
CONTINUOUS
10
6.01051
20
-4.18864
11
6.01218
21
-4.18933
0
LINE
8
BLACK
6
CONTINUOUS
10
6.26527
20
-4.14661
11
6.26596
21
-4.1485
0
LINE
8
BLACK
6
CONTINUOUS
10
6.26596
20
-4.1485
11
6.26596
21
-4.2085
0
LINE
8
BLACK
6
CONTINUOUS
10
6.26596
20
-4.2085
11
6.26579
21
-4.20951
0
LINE
8
BLACK
6
CONTINUOUS
10
6.26579
20
-4.20951
11
6.26449
21
-4.21106
0
LINE
8
BLACK
6
CONTINUOUS
10
6.26449
20
-4.21106
11
6.2625
21
-4.21141
0
LINE
8
BLACK
6
CONTINUOUS
10
6.2625
20
-4.21141
11
6.26075
21
-4.2104
0
LINE
8
BLACK
6
CONTINUOUS
10
6.26075
20
-4.2104
11
6.26006
21
-4.2085
0
LINE
8
BLACK
6
CONTINUOUS
10
6.26006
20
-4.2085
11
6.26006
21
-4.1485
0
LINE
8
BLACK
6
CONTINUOUS
10
6.26006
20
-4.1485
11
6.26024
21
-4.14749
0
LINE
8
BLACK
6
CONTINUOUS
10
6.26024
20
-4.14749
11
6.26154
21
-4.14595
0
LINE
8
BLACK
6
CONTINUOUS
10
6.26154
20
-4.14595
11
6.26352
21
-4.1456
0
LINE
8
BLACK
6
CONTINUOUS
10
6.26352
20
-4.1456
11
6.26527
21
-4.14661
0
LINE
8
BLACK
6
CONTINUOUS
10
6.38527
20
-4.14661
11
6.38596
21
-4.1485
0
LINE
8
BLACK
6
CONTINUOUS
10
6.38596
20
-4.1485
11
6.38596
21
-4.2085
0
LINE
8
BLACK
6
CONTINUOUS
10
6.38596
20
-4.2085
11
6.38579
21
-4.20951
0
LINE
8
BLACK
6
CONTINUOUS
10
6.38579
20
-4.20951
11
6.38449
21
-4.21106
0
LINE
8
BLACK
6
CONTINUOUS
10
6.38449
20
-4.21106
11
6.3825
21
-4.21141
0
LINE
8
BLACK
6
CONTINUOUS
10
6.3825
20
-4.21141
11
6.38075
21
-4.2104
0
LINE
8
BLACK
6
CONTINUOUS
10
6.38075
20
-4.2104
11
6.38006
21
-4.2085
0
LINE
8
BLACK
6
CONTINUOUS
10
6.38006
20
-4.2085
11
6.38006
21
-4.1485
0
LINE
8
BLACK
6
CONTINUOUS
10
6.38006
20
-4.1485
11
6.38024
21
-4.14749
0
LINE
8
BLACK
6
CONTINUOUS
10
6.38024
20
-4.14749
11
6.38154
21
-4.14595
0
LINE
8
BLACK
6
CONTINUOUS
10
6.38154
20
-4.14595
11
6.38352
21
-4.1456
0
LINE
8
BLACK
6
CONTINUOUS
10
6.38352
20
-4.1456
11
6.38527
21
-4.14661
0
LINE
8
BLACK
6
CONTINUOUS
10
6.33968
20
-4.20683
11
6.34037
21
-4.2085
0
LINE
8
BLACK
6
CONTINUOUS
10
6.34037
20
-4.2085
11
6.33968
21
-4.21017
0
LINE
8
BLACK
6
CONTINUOUS
10
6.33968
20
-4.21017
11
6.33801
21
-4.21087
0
LINE
8
BLACK
6
CONTINUOUS
10
6.33801
20
-4.21087
11
6.30801
21
-4.21087
0
LINE
8
BLACK
6
CONTINUOUS
10
6.30801
20
-4.21087
11
6.30634
21
-4.21017
0
LINE
8
BLACK
6
CONTINUOUS
10
6.30634
20
-4.21017
11
6.30565
21
-4.2085
0
LINE
8
BLACK
6
CONTINUOUS
10
6.30565
20
-4.2085
11
6.30634
21
-4.20683
0
LINE
8
BLACK
6
CONTINUOUS
10
6.30634
20
-4.20683
11
6.30801
21
-4.20614
0
LINE
8
BLACK
6
CONTINUOUS
10
6.30801
20
-4.20614
11
6.33801
21
-4.20614
0
LINE
8
BLACK
6
CONTINUOUS
10
6.33801
20
-4.20614
11
6.33968
21
-4.20683
0
LINE
8
BLACK
6
CONTINUOUS
10
6.13108
20
-4.18888
11
6.13178
21
-4.19055
0
LINE
8
BLACK
6
CONTINUOUS
10
6.13178
20
-4.19055
11
6.13108
21
-4.19222
0
LINE
8
BLACK
6
CONTINUOUS
10
6.13108
20
-4.19222
11
6.12941
21
-4.19291
0
LINE
8
BLACK
6
CONTINUOUS
10
6.12941
20
-4.19291
11
6.09795
21
-4.19291
0
LINE
8
BLACK
6
CONTINUOUS
10
6.09795
20
-4.19291
11
6.09628
21
-4.19222
0
LINE
8
BLACK
6
CONTINUOUS
10
6.09628
20
-4.19222
11
6.09559
21
-4.19055
0
LINE
8
BLACK
6
CONTINUOUS
10
6.09559
20
-4.19055
11
6.09628
21
-4.18888
0
LINE
8
BLACK
6
CONTINUOUS
10
6.09628
20
-4.18888
11
6.09795
21
-4.18819
0
LINE
8
BLACK
6
CONTINUOUS
10
6.09795
20
-4.18819
11
6.12941
21
-4.18819
0
LINE
8
BLACK
6
CONTINUOUS
10
6.12941
20
-4.18819
11
6.13108
21
-4.18888
0
LINE
8
BLACK
6
CONTINUOUS
10
5.72552
20
-4.18673
11
5.72707
21
-4.18803
0
LINE
8
BLACK
6
CONTINUOUS
10
5.72707
20
-4.18803
11
5.72742
21
-4.19002
0
LINE
8
BLACK
6
CONTINUOUS
10
5.72742
20
-4.19002
11
5.72641
21
-4.19177
0
LINE
8
BLACK
6
CONTINUOUS
10
5.72641
20
-4.19177
11
5.72451
21
-4.19246
0
LINE
8
BLACK
6
CONTINUOUS
10
5.72451
20
-4.19246
11
5.66451
21
-4.19246
0
LINE
8
BLACK
6
CONTINUOUS
10
5.66451
20
-4.19246
11
5.6635
21
-4.19228
0
LINE
8
BLACK
6
CONTINUOUS
10
5.6635
20
-4.19228
11
5.66195
21
-4.19098
0
LINE
8
BLACK
6
CONTINUOUS
10
5.66195
20
-4.19098
11
5.6616
21
-4.18899
0
LINE
8
BLACK
6
CONTINUOUS
10
5.6616
20
-4.18899
11
5.66261
21
-4.18724
0
LINE
8
BLACK
6
CONTINUOUS
10
5.66261
20
-4.18724
11
5.66451
21
-4.18655
0
LINE
8
BLACK
6
CONTINUOUS
10
5.66451
20
-4.18655
11
5.72451
21
-4.18655
0
LINE
8
BLACK
6
CONTINUOUS
10
5.72451
20
-4.18655
11
5.72552
21
-4.18673
0
LINE
8
BLACK
6
CONTINUOUS
10
6.33968
20
-4.14683
11
6.34037
21
-4.1485
0
LINE
8
BLACK
6
CONTINUOUS
10
6.34037
20
-4.1485
11
6.33968
21
-4.15017
0
LINE
8
BLACK
6
CONTINUOUS
10
6.33968
20
-4.15017
11
6.33801
21
-4.15087
0
LINE
8
BLACK
6
CONTINUOUS
10
6.33801
20
-4.15087
11
6.30801
21
-4.15087
0
LINE
8
BLACK
6
CONTINUOUS
10
6.30801
20
-4.15087
11
6.30634
21
-4.15017
0
LINE
8
BLACK
6
CONTINUOUS
10
6.30634
20
-4.15017
11
6.30565
21
-4.1485
0
LINE
8
BLACK
6
CONTINUOUS
10
6.30565
20
-4.1485
11
6.30634
21
-4.14683
0
LINE
8
BLACK
6
CONTINUOUS
10
6.30634
20
-4.14683
11
6.30801
21
-4.14614
0
LINE
8
BLACK
6
CONTINUOUS
10
6.30801
20
-4.14614
11
6.33801
21
-4.14614
0
LINE
8
BLACK
6
CONTINUOUS
10
6.33801
20
-4.14614
11
6.33968
21
-4.14683
0
LINE
8
BLACK
6
CONTINUOUS
10
5.90443
20
-4.14616
11
5.90512
21
-4.14783
0
LINE
8
BLACK
6
CONTINUOUS
10
5.90512
20
-4.14783
11
5.90443
21
-4.1495
0
LINE
8
BLACK
6
CONTINUOUS
10
5.90443
20
-4.1495
11
5.90276
21
-4.1502
0
LINE
8
BLACK
6
CONTINUOUS
10
5.90276
20
-4.1502
11
5.82795
21
-4.1502
0
LINE
8
BLACK
6
CONTINUOUS
10
5.82795
20
-4.1502
11
5.82628
21
-4.1495
0
LINE
8
BLACK
6
CONTINUOUS
10
5.82628
20
-4.1495
11
5.82559
21
-4.14783
0
LINE
8
BLACK
6
CONTINUOUS
10
5.82559
20
-4.14783
11
5.82628
21
-4.14616
0
LINE
8
BLACK
6
CONTINUOUS
10
5.82628
20
-4.14616
11
5.82795
21
-4.14547
0
LINE
8
BLACK
6
CONTINUOUS
10
5.82795
20
-4.14547
11
5.90276
21
-4.14547
0
LINE
8
BLACK
6
CONTINUOUS
10
5.90276
20
-4.14547
11
5.90443
21
-4.14616
0
LINE
8
BLACK
6
CONTINUOUS
10
6.01152
20
-4.14323
11
6.01307
21
-4.14453
0
LINE
8
BLACK
6
CONTINUOUS
10
6.01307
20
-4.14453
11
6.01342
21
-4.14652
0
LINE
8
BLACK
6
CONTINUOUS
10
6.01342
20
-4.14652
11
6.01241
21
-4.14827
0
LINE
8
BLACK
6
CONTINUOUS
10
6.01241
20
-4.14827
11
6.01051
21
-4.14896
0
LINE
8
BLACK
6
CONTINUOUS
10
6.01051
20
-4.14896
11
5.95051
21
-4.14896
0
LINE
8
BLACK
6
CONTINUOUS
10
5.95051
20
-4.14896
11
5.9495
21
-4.14878
0
LINE
8
BLACK
6
CONTINUOUS
10
5.9495
20
-4.14878
11
5.94795
21
-4.14748
0
LINE
8
BLACK
6
CONTINUOUS
10
5.94795
20
-4.14748
11
5.9476
21
-4.14549
0
LINE
8
BLACK
6
CONTINUOUS
10
5.9476
20
-4.14549
11
5.94861
21
-4.14374
0
LINE
8
BLACK
6
CONTINUOUS
10
5.94861
20
-4.14374
11
5.95051
21
-4.14305
0
LINE
8
BLACK
6
CONTINUOUS
10
5.95051
20
-4.14305
11
6.01051
21
-4.14305
0
LINE
8
BLACK
6
CONTINUOUS
10
6.01051
20
-4.14305
11
6.01152
21
-4.14323
0
LINE
8
BLACK
6
CONTINUOUS
10
6.13108
20
-4.14479
11
6.13178
21
-4.14646
0
LINE
8
BLACK
6
CONTINUOUS
10
6.13178
20
-4.14646
11
6.13108
21
-4.14813
0
LINE
8
BLACK
6
CONTINUOUS
10
6.13108
20
-4.14813
11
6.12941
21
-4.14882
0
LINE
8
BLACK
6
CONTINUOUS
10
6.12941
20
-4.14882
11
6.09795
21
-4.14882
0
LINE
8
BLACK
6
CONTINUOUS
10
6.09795
20
-4.14882
11
6.09628
21
-4.14813
0
LINE
8
BLACK
6
CONTINUOUS
10
6.09628
20
-4.14813
11
6.09559
21
-4.14646
0
LINE
8
BLACK
6
CONTINUOUS
10
6.09559
20
-4.14646
11
6.09628
21
-4.14479
0
LINE
8
BLACK
6
CONTINUOUS
10
6.09628
20
-4.14479
11
6.09795
21
-4.14409
0
LINE
8
BLACK
6
CONTINUOUS
10
6.09795
20
-4.14409
11
6.12941
21
-4.14409
0
LINE
8
BLACK
6
CONTINUOUS
10
6.12941
20
-4.14409
11
6.13108
21
-4.14479
0
LINE
8
BLACK
6
CONTINUOUS
10
5.66618
20
-4.11283
11
5.66687
21
-4.1145
0
LINE
8
BLACK
6
CONTINUOUS
10
5.66687
20
-4.1145
11
5.66687
21
-4.1445
0
LINE
8
BLACK
6
CONTINUOUS
10
5.66687
20
-4.1445
11
5.66618
21
-4.14617
0
LINE
8
BLACK
6
CONTINUOUS
10
5.66618
20
-4.14617
11
5.66451
21
-4.14687
0
LINE
8
BLACK
6
CONTINUOUS
10
5.66451
20
-4.14687
11
5.66284
21
-4.14617
0
LINE
8
BLACK
6
CONTINUOUS
10
5.66284
20
-4.14617
11
5.66215
21
-4.1445
0
LINE
8
BLACK
6
CONTINUOUS
10
5.66215
20
-4.1445
11
5.66215
21
-4.1145
0
LINE
8
BLACK
6
CONTINUOUS
10
5.66215
20
-4.1145
11
5.66284
21
-4.11283
0
LINE
8
BLACK
6
CONTINUOUS
10
5.66284
20
-4.11283
11
5.66451
21
-4.11214
0
LINE
8
BLACK
6
CONTINUOUS
10
5.66451
20
-4.11214
11
5.66618
21
-4.11283
0
LINE
8
BLACK
6
CONTINUOUS
10
5.72618
20
-4.11283
11
5.72687
21
-4.1145
0
LINE
8
BLACK
6
CONTINUOUS
10
5.72687
20
-4.1145
11
5.72687
21
-4.1445
0
LINE
8
BLACK
6
CONTINUOUS
10
5.72687
20
-4.1445
11
5.72618
21
-4.14617
0
LINE
8
BLACK
6
CONTINUOUS
10
5.72618
20
-4.14617
11
5.72451
21
-4.14687
0
LINE
8
BLACK
6
CONTINUOUS
10
5.72451
20
-4.14687
11
5.72284
21
-4.14617
0
LINE
8
BLACK
6
CONTINUOUS
10
5.72284
20
-4.14617
11
5.72215
21
-4.1445
0
LINE
8
BLACK
6
CONTINUOUS
10
5.72215
20
-4.1445
11
5.72215
21
-4.1145
0
LINE
8
BLACK
6
CONTINUOUS
10
5.72215
20
-4.1145
11
5.72284
21
-4.11283
0
LINE
8
BLACK
6
CONTINUOUS
10
5.72284
20
-4.11283
11
5.72451
21
-4.11214
0
LINE
8
BLACK
6
CONTINUOUS
10
5.72451
20
-4.11214
11
5.72618
21
-4.11283
0
LINE
8
BLACK
6
CONTINUOUS
10
5.79436
20
-4.07922
11
5.79453
21
-4.07921
0
LINE
8
BLACK
6
CONTINUOUS
10
5.79453
20
-4.07921
11
5.79522
21
-4.07971
0
LINE
8
BLACK
6
CONTINUOUS
10
5.79522
20
-4.07971
11
5.79597
21
-4.08014
0
LINE
8
BLACK
6
CONTINUOUS
10
5.79597
20
-4.08014
11
5.79602
21
-4.0803
0
LINE
8
BLACK
6
CONTINUOUS
10
5.79602
20
-4.0803
11
5.79616
21
-4.0804
0
LINE
8
BLACK
6
CONTINUOUS
10
5.79616
20
-4.0804
11
5.79975
21
-4.08578
0
LINE
8
BLACK
6
CONTINUOUS
10
5.79975
20
-4.08578
11
5.80295
21
-4.08899
0
LINE
8
BLACK
6
CONTINUOUS
10
5.80295
20
-4.08899
11
5.80627
21
-4.09065
0
LINE
8
BLACK
6
CONTINUOUS
10
5.80627
20
-4.09065
11
5.8071
21
-4.09126
0
LINE
8
BLACK
6
CONTINUOUS
10
5.8071
20
-4.09126
11
5.8079
21
-4.09311
0
LINE
8
BLACK
6
CONTINUOUS
10
5.8079
20
-4.09311
11
5.80732
21
-4.09505
0
LINE
8
BLACK
6
CONTINUOUS
10
5.80732
20
-4.09505
11
5.80564
21
-4.09616
0
LINE
8
BLACK
6
CONTINUOUS
10
5.80564
20
-4.09616
11
5.80363
21
-4.09593
0
LINE
8
BLACK
6
CONTINUOUS
10
5.80363
20
-4.09593
11
5.79988
21
-4.09405
0
LINE
8
BLACK
6
CONTINUOUS
10
5.79988
20
-4.09405
11
5.79917
21
-4.09353
0
LINE
8
BLACK
6
CONTINUOUS
10
5.79917
20
-4.09353
11
5.79911
21
-4.0935
0
LINE
8
BLACK
6
CONTINUOUS
10
5.79911
20
-4.0935
11
5.79666
21
-4.09104
0
LINE
8
BLACK
6
CONTINUOUS
10
5.79666
20
-4.09104
11
5.79666
21
-4.11846
0
LINE
8
BLACK
6
CONTINUOUS
10
5.79666
20
-4.11846
11
5.80495
21
-4.11846
0
LINE
8
BLACK
6
CONTINUOUS
10
5.80495
20
-4.11846
11
5.80596
21
-4.11864
0
LINE
8
BLACK
6
CONTINUOUS
10
5.80596
20
-4.11864
11
5.80751
21
-4.11993
0
LINE
8
BLACK
6
CONTINUOUS
10
5.80751
20
-4.11993
11
5.80786
21
-4.12192
0
LINE
8
BLACK
6
CONTINUOUS
10
5.80786
20
-4.12192
11
5.80685
21
-4.12367
0
LINE
8
BLACK
6
CONTINUOUS
10
5.80685
20
-4.12367
11
5.80495
21
-4.12436
0
LINE
8
BLACK
6
CONTINUOUS
10
5.80495
20
-4.12436
11
5.78245
21
-4.12436
0
LINE
8
BLACK
6
CONTINUOUS
10
5.78245
20
-4.12436
11
5.78144
21
-4.12418
0
LINE
8
BLACK
6
CONTINUOUS
10
5.78144
20
-4.12418
11
5.7799
21
-4.12289
0
LINE
8
BLACK
6
CONTINUOUS
10
5.7799
20
-4.12289
11
5.77955
21
-4.1209
0
LINE
8
BLACK
6
CONTINUOUS
10
5.77955
20
-4.1209
11
5.78056
21
-4.11915
0
LINE
8
BLACK
6
CONTINUOUS
10
5.78056
20
-4.11915
11
5.78245
21
-4.11846
0
LINE
8
BLACK
6
CONTINUOUS
10
5.78245
20
-4.11846
11
5.79075
21
-4.11846
0
LINE
8
BLACK
6
CONTINUOUS
10
5.79075
20
-4.11846
11
5.79075
21
-4.08204
0
LINE
8
BLACK
6
CONTINUOUS
10
5.79075
20
-4.08204
11
5.79093
21
-4.08103
0
LINE
8
BLACK
6
CONTINUOUS
10
5.79093
20
-4.08103
11
5.79104
21
-4.0809
0
LINE
8
BLACK
6
CONTINUOUS
10
5.79104
20
-4.0809
11
5.79106
21
-4.08073
0
LINE
8
BLACK
6
CONTINUOUS
10
5.79106
20
-4.08073
11
5.79168
21
-4.08014
0
LINE
8
BLACK
6
CONTINUOUS
10
5.79168
20
-4.08014
11
5.79223
21
-4.07948
0
LINE
8
BLACK
6
CONTINUOUS
10
5.79223
20
-4.07948
11
5.79239
21
-4.07945
0
LINE
8
BLACK
6
CONTINUOUS
10
5.79239
20
-4.07945
11
5.79252
21
-4.07934
0
LINE
8
BLACK
6
CONTINUOUS
10
5.79252
20
-4.07934
11
5.79337
21
-4.07928
0
LINE
8
BLACK
6
CONTINUOUS
10
5.79337
20
-4.07928
11
5.79422
21
-4.07913
0
LINE
8
BLACK
6
CONTINUOUS
10
5.79422
20
-4.07913
11
5.79436
21
-4.07922
0
LINE
8
BLACK
6
CONTINUOUS
10
5.83721
20
-4.08014
11
5.8379
21
-4.08204
0
LINE
8
BLACK
6
CONTINUOUS
10
5.8379
20
-4.08204
11
5.8379
21
-4.12141
0
LINE
8
BLACK
6
CONTINUOUS
10
5.8379
20
-4.12141
11
5.83783
21
-4.12179
0
LINE
8
BLACK
6
CONTINUOUS
10
5.83783
20
-4.12179
11
5.83786
21
-4.12192
0
LINE
8
BLACK
6
CONTINUOUS
10
5.83786
20
-4.12192
11
5.83779
21
-4.12204
0
LINE
8
BLACK
6
CONTINUOUS
10
5.83779
20
-4.12204
11
5.83772
21
-4.12242
0
LINE
8
BLACK
6
CONTINUOUS
10
5.83772
20
-4.12242
11
5.83723
21
-4.12301
0
LINE
8
BLACK
6
CONTINUOUS
10
5.83723
20
-4.12301
11
5.83685
21
-4.12367
0
LINE
8
BLACK
6
CONTINUOUS
10
5.83685
20
-4.12367
11
5.8366
21
-4.12376
0
LINE
8
BLACK
6
CONTINUOUS
10
5.8366
20
-4.12376
11
5.83642
21
-4.12397
0
LINE
8
BLACK
6
CONTINUOUS
10
5.83642
20
-4.12397
11
5.83567
21
-4.1241
0
LINE
8
BLACK
6
CONTINUOUS
10
5.83567
20
-4.1241
11
5.83495
21
-4.12436
0
LINE
8
BLACK
6
CONTINUOUS
10
5.83495
20
-4.12436
11
5.8162
21
-4.12436
0
LINE
8
BLACK
6
CONTINUOUS
10
5.8162
20
-4.12436
11
5.81519
21
-4.12418
0
LINE
8
BLACK
6
CONTINUOUS
10
5.81519
20
-4.12418
11
5.81364
21
-4.12289
0
LINE
8
BLACK
6
CONTINUOUS
10
5.81364
20
-4.12289
11
5.81329
21
-4.1209
0
LINE
8
BLACK
6
CONTINUOUS
10
5.81329
20
-4.1209
11
5.8143
21
-4.11915
0
LINE
8
BLACK
6
CONTINUOUS
10
5.8143
20
-4.11915
11
5.8162
21
-4.11846
0
LINE
8
BLACK
6
CONTINUOUS
10
5.8162
20
-4.11846
11
5.832
21
-4.11846
0
LINE
8
BLACK
6
CONTINUOUS
10
5.832
20
-4.11846
11
5.832
21
-4.08204
0
LINE
8
BLACK
6
CONTINUOUS
10
5.832
20
-4.08204
11
5.83217
21
-4.08103
0
LINE
8
BLACK
6
CONTINUOUS
10
5.83217
20
-4.08103
11
5.83347
21
-4.07948
0
LINE
8
BLACK
6
CONTINUOUS
10
5.83347
20
-4.07948
11
5.83546
21
-4.07913
0
LINE
8
BLACK
6
CONTINUOUS
10
5.83546
20
-4.07913
11
5.83721
21
-4.08014
0
LINE
8
BLACK
6
CONTINUOUS
10
5.86908
20
-4.07915
11
5.86921
21
-4.07913
0
LINE
8
BLACK
6
CONTINUOUS
10
5.86921
20
-4.07913
11
5.86932
21
-4.0792
0
LINE
8
BLACK
6
CONTINUOUS
10
5.86932
20
-4.0792
11
5.8697
21
-4.07927
0
LINE
8
BLACK
6
CONTINUOUS
10
5.8697
20
-4.07927
11
5.87029
21
-4.07976
0
LINE
8
BLACK
6
CONTINUOUS
10
5.87029
20
-4.07976
11
5.87096
21
-4.08014
0
LINE
8
BLACK
6
CONTINUOUS
10
5.87096
20
-4.08014
11
5.87105
21
-4.08039
0
LINE
8
BLACK
6
CONTINUOUS
10
5.87105
20
-4.08039
11
5.87125
21
-4.08056
0
LINE
8
BLACK
6
CONTINUOUS
10
5.87125
20
-4.08056
11
5.87138
21
-4.08132
0
LINE
8
BLACK
6
CONTINUOUS
10
5.87138
20
-4.08132
11
5.87165
21
-4.08204
0
LINE
8
BLACK
6
CONTINUOUS
10
5.87165
20
-4.08204
11
5.87165
21
-4.12141
0
LINE
8
BLACK
6
CONTINUOUS
10
5.87165
20
-4.12141
11
5.87147
21
-4.12242
0
LINE
8
BLACK
6
CONTINUOUS
10
5.87147
20
-4.12242
11
5.87017
21
-4.12397
0
LINE
8
BLACK
6
CONTINUOUS
10
5.87017
20
-4.12397
11
5.86818
21
-4.12432
0
LINE
8
BLACK
6
CONTINUOUS
10
5.86818
20
-4.12432
11
5.86643
21
-4.12331
0
LINE
8
BLACK
6
CONTINUOUS
10
5.86643
20
-4.12331
11
5.86574
21
-4.12141
0
LINE
8
BLACK
6
CONTINUOUS
10
5.86574
20
-4.12141
11
5.86574
21
-4.10374
0
LINE
8
BLACK
6
CONTINUOUS
10
5.86574
20
-4.10374
11
5.85557
21
-4.10374
0
LINE
8
BLACK
6
CONTINUOUS
10
5.85557
20
-4.10374
11
5.85456
21
-4.10356
0
LINE
8
BLACK
6
CONTINUOUS
10
5.85456
20
-4.10356
11
5.85301
21
-4.10226
0
LINE
8
BLACK
6
CONTINUOUS
10
5.85301
20
-4.10226
11
5.85266
21
-4.10027
0
LINE
8
BLACK
6
CONTINUOUS
10
5.85266
20
-4.10027
11
5.85367
21
-4.09853
0
LINE
8
BLACK
6
CONTINUOUS
10
5.85367
20
-4.09853
11
5.85557
21
-4.09783
0
LINE
8
BLACK
6
CONTINUOUS
10
5.85557
20
-4.09783
11
5.86574
21
-4.09783
0
LINE
8
BLACK
6
CONTINUOUS
10
5.86574
20
-4.09783
11
5.86574
21
-4.08499
0
LINE
8
BLACK
6
CONTINUOUS
10
5.86574
20
-4.08499
11
5.84995
21
-4.08499
0
LINE
8
BLACK
6
CONTINUOUS
10
5.84995
20
-4.08499
11
5.84894
21
-4.08481
0
LINE
8
BLACK
6
CONTINUOUS
10
5.84894
20
-4.08481
11
5.84739
21
-4.08352
0
LINE
8
BLACK
6
CONTINUOUS
10
5.84739
20
-4.08352
11
5.84704
21
-4.08153
0
LINE
8
BLACK
6
CONTINUOUS
10
5.84704
20
-4.08153
11
5.84805
21
-4.07978
0
LINE
8
BLACK
6
CONTINUOUS
10
5.84805
20
-4.07978
11
5.84995
21
-4.07909
0
LINE
8
BLACK
6
CONTINUOUS
10
5.84995
20
-4.07909
11
5.86869
21
-4.07909
0
LINE
8
BLACK
6
CONTINUOUS
10
5.86869
20
-4.07909
11
5.86908
21
-4.07915
0
LINE
8
BLACK
6
CONTINUOUS
10
6.21147
20
-4.0684
11
6.23372
21
-4.09065
0
LINE
8
BLACK
6
CONTINUOUS
10
6.23372
20
-4.09065
11
6.23441
21
-4.09233
0
LINE
8
BLACK
6
CONTINUOUS
10
6.23441
20
-4.09233
11
6.23372
21
-4.094
0
LINE
8
BLACK
6
CONTINUOUS
10
6.23372
20
-4.094
11
6.23205
21
-4.09469
0
LINE
8
BLACK
6
CONTINUOUS
10
6.23205
20
-4.09469
11
6.23038
21
-4.094
0
LINE
8
BLACK
6
CONTINUOUS
10
6.23038
20
-4.094
11
6.20813
21
-4.07175
0
LINE
8
BLACK
6
CONTINUOUS
10
6.20813
20
-4.07175
11
6.20743
21
-4.07008
0
LINE
8
BLACK
6
CONTINUOUS
10
6.20743
20
-4.07008
11
6.20813
21
-4.0684
0
LINE
8
BLACK
6
CONTINUOUS
10
6.20813
20
-4.0684
11
6.2098
21
-4.06771
0
LINE
8
BLACK
6
CONTINUOUS
10
6.2098
20
-4.06771
11
6.21147
21
-4.0684
0
LINE
8
BLACK
6
CONTINUOUS
10
6.01777
20
-4.01411
11
6.01846
21
-4.016
0
LINE
8
BLACK
6
CONTINUOUS
10
6.01846
20
-4.016
11
6.01846
21
-4.076
0
LINE
8
BLACK
6
CONTINUOUS
10
6.01846
20
-4.076
11
6.01829
21
-4.07701
0
LINE
8
BLACK
6
CONTINUOUS
10
6.01829
20
-4.07701
11
6.01699
21
-4.07856
0
LINE
8
BLACK
6
CONTINUOUS
10
6.01699
20
-4.07856
11
6.015
21
-4.07891
0
LINE
8
BLACK
6
CONTINUOUS
10
6.015
20
-4.07891
11
6.01325
21
-4.0779
0
LINE
8
BLACK
6
CONTINUOUS
10
6.01325
20
-4.0779
11
6.01256
21
-4.076
0
LINE
8
BLACK
6
CONTINUOUS
10
6.01256
20
-4.076
11
6.01256
21
-4.016
0
LINE
8
BLACK
6
CONTINUOUS
10
6.01256
20
-4.016
11
6.01274
21
-4.01499
0
LINE
8
BLACK
6
CONTINUOUS
10
6.01274
20
-4.01499
11
6.01404
21
-4.01345
0
LINE
8
BLACK
6
CONTINUOUS
10
6.01404
20
-4.01345
11
6.01602
21
-4.0131
0
LINE
8
BLACK
6
CONTINUOUS
10
6.01602
20
-4.0131
11
6.01777
21
-4.01411
0
LINE
8
BLACK
6
CONTINUOUS
10
6.13777
20
-4.01411
11
6.13846
21
-4.016
0
LINE
8
BLACK
6
CONTINUOUS
10
6.13846
20
-4.016
11
6.13846
21
-4.076
0
LINE
8
BLACK
6
CONTINUOUS
10
6.13846
20
-4.076
11
6.13829
21
-4.07701
0
LINE
8
BLACK
6
CONTINUOUS
10
6.13829
20
-4.07701
11
6.13699
21
-4.07856
0
LINE
8
BLACK
6
CONTINUOUS
10
6.13699
20
-4.07856
11
6.135
21
-4.07891
0
LINE
8
BLACK
6
CONTINUOUS
10
6.135
20
-4.07891
11
6.13325
21
-4.0779
0
LINE
8
BLACK
6
CONTINUOUS
10
6.13325
20
-4.0779
11
6.13256
21
-4.076
0
LINE
8
BLACK
6
CONTINUOUS
10
6.13256
20
-4.076
11
6.13256
21
-4.016
0
LINE
8
BLACK
6
CONTINUOUS
10
6.13256
20
-4.016
11
6.13274
21
-4.01499
0
LINE
8
BLACK
6
CONTINUOUS
10
6.13274
20
-4.01499
11
6.13404
21
-4.01345
0
LINE
8
BLACK
6
CONTINUOUS
10
6.13404
20
-4.01345
11
6.13602
21
-4.0131
0
LINE
8
BLACK
6
CONTINUOUS
10
6.13602
20
-4.0131
11
6.13777
21
-4.01411
0
LINE
8
BLACK
6
CONTINUOUS
10
6.09218
20
-4.07433
11
6.09287
21
-4.076
0
LINE
8
BLACK
6
CONTINUOUS
10
6.09287
20
-4.076
11
6.09218
21
-4.07767
0
LINE
8
BLACK
6
CONTINUOUS
10
6.09218
20
-4.07767
11
6.09051
21
-4.07837
0
LINE
8
BLACK
6
CONTINUOUS
10
6.09051
20
-4.07837
11
6.06051
21
-4.07837
0
LINE
8
BLACK
6
CONTINUOUS
10
6.06051
20
-4.07837
11
6.05884
21
-4.07767
0
LINE
8
BLACK
6
CONTINUOUS
10
6.05884
20
-4.07767
11
6.05815
21
-4.076
0
LINE
8
BLACK
6
CONTINUOUS
10
6.05815
20
-4.076
11
6.05884
21
-4.07433
0
LINE
8
BLACK
6
CONTINUOUS
10
6.05884
20
-4.07433
11
6.06051
21
-4.07364
0
LINE
8
BLACK
6
CONTINUOUS
10
6.06051
20
-4.07364
11
6.09051
21
-4.07364
0
LINE
8
BLACK
6
CONTINUOUS
10
6.09051
20
-4.07364
11
6.09218
21
-4.07433
0
LINE
8
BLACK
6
CONTINUOUS
10
5.72552
20
-4.06673
11
5.72707
21
-4.06803
0
LINE
8
BLACK
6
CONTINUOUS
10
5.72707
20
-4.06803
11
5.72742
21
-4.07002
0
LINE
8
BLACK
6
CONTINUOUS
10
5.72742
20
-4.07002
11
5.72641
21
-4.07177
0
LINE
8
BLACK
6
CONTINUOUS
10
5.72641
20
-4.07177
11
5.72451
21
-4.07246
0
LINE
8
BLACK
6
CONTINUOUS
10
5.72451
20
-4.07246
11
5.66451
21
-4.07246
0
LINE
8
BLACK
6
CONTINUOUS
10
5.66451
20
-4.07246
11
5.6635
21
-4.07228
0
LINE
8
BLACK
6
CONTINUOUS
10
5.6635
20
-4.07228
11
5.66195
21
-4.07098
0
LINE
8
BLACK
6
CONTINUOUS
10
5.66195
20
-4.07098
11
5.6616
21
-4.06899
0
LINE
8
BLACK
6
CONTINUOUS
10
5.6616
20
-4.06899
11
5.66261
21
-4.06724
0
LINE
8
BLACK
6
CONTINUOUS
10
5.66261
20
-4.06724
11
5.66451
21
-4.06655
0
LINE
8
BLACK
6
CONTINUOUS
10
5.66451
20
-4.06655
11
5.72451
21
-4.06655
0
LINE
8
BLACK
6
CONTINUOUS
10
5.72451
20
-4.06655
11
5.72552
21
-4.06673
0
LINE
8
BLACK
6
CONTINUOUS
10
5.95708
20
-4.06654
11
5.95781
21
-4.06831
0
LINE
8
BLACK
6
CONTINUOUS
10
5.95781
20
-4.06831
11
5.95708
21
-4.07007
0
LINE
8
BLACK
6
CONTINUOUS
10
5.95708
20
-4.07007
11
5.95531
21
-4.07081
0
LINE
8
BLACK
6
CONTINUOUS
10
5.95531
20
-4.07081
11
5.80571
21
-4.07081
0
LINE
8
BLACK
6
CONTINUOUS
10
5.80571
20
-4.07081
11
5.80394
21
-4.07007
0
LINE
8
BLACK
6
CONTINUOUS
10
5.80394
20
-4.07007
11
5.80321
21
-4.06831
0
LINE
8
BLACK
6
CONTINUOUS
10
5.80321
20
-4.06831
11
5.80394
21
-4.06654
0
LINE
8
BLACK
6
CONTINUOUS
10
5.80394
20
-4.06654
11
5.80571
21
-4.06581
0
LINE
8
BLACK
6
CONTINUOUS
10
5.80571
20
-4.06581
11
5.95531
21
-4.06581
0
LINE
8
BLACK
6
CONTINUOUS
10
5.95531
20
-4.06581
11
5.95708
21
-4.06654
0
LINE
8
BLACK
6
CONTINUOUS
10
6.24265
20
-4.03723
11
6.2649
21
-4.05948
0
LINE
8
BLACK
6
CONTINUOUS
10
6.2649
20
-4.05948
11
6.26559
21
-4.06115
0
LINE
8
BLACK
6
CONTINUOUS
10
6.26559
20
-4.06115
11
6.2649
21
-4.06282
0
LINE
8
BLACK
6
CONTINUOUS
10
6.2649
20
-4.06282
11
6.26323
21
-4.06351
0
LINE
8
BLACK
6
CONTINUOUS
10
6.26323
20
-4.06351
11
6.26156
21
-4.06282
0
LINE
8
BLACK
6
CONTINUOUS
10
6.26156
20
-4.06282
11
6.23931
21
-4.04057
0
LINE
8
BLACK
6
CONTINUOUS
10
6.23931
20
-4.04057
11
6.23861
21
-4.0389
0
LINE
8
BLACK
6
CONTINUOUS
10
6.23861
20
-4.0389
11
6.23931
21
-4.03723
0
LINE
8
BLACK
6
CONTINUOUS
10
6.23931
20
-4.03723
11
6.24098
21
-4.03653
0
LINE
8
BLACK
6
CONTINUOUS
10
6.24098
20
-4.03653
11
6.24265
21
-4.03723
0
LINE
8
BLACK
6
CONTINUOUS
10
6.09218
20
-4.01433
11
6.09287
21
-4.016
0
LINE
8
BLACK
6
CONTINUOUS
10
6.09287
20
-4.016
11
6.09218
21
-4.01767
0
LINE
8
BLACK
6
CONTINUOUS
10
6.09218
20
-4.01767
11
6.09051
21
-4.01837
0
LINE
8
BLACK
6
CONTINUOUS
10
6.09051
20
-4.01837
11
6.06051
21
-4.01837
0
LINE
8
BLACK
6
CONTINUOUS
10
6.06051
20
-4.01837
11
6.05884
21
-4.01767
0
LINE
8
BLACK
6
CONTINUOUS
10
6.05884
20
-4.01767
11
6.05815
21
-4.016
0
LINE
8
BLACK
6
CONTINUOUS
10
6.05815
20
-4.016
11
6.05884
21
-4.01433
0
LINE
8
BLACK
6
CONTINUOUS
10
6.05884
20
-4.01433
11
6.06051
21
-4.01364
0
LINE
8
BLACK
6
CONTINUOUS
10
6.06051
20
-4.01364
11
6.09051
21
-4.01364
0
LINE
8
BLACK
6
CONTINUOUS
10
6.09051
20
-4.01364
11
6.09218
21
-4.01433
0
LINE
8
BLACK
6
CONTINUOUS
10
6.09183
20
-3.93317
11
6.09252
21
-3.93484
0
LINE
8
BLACK
6
CONTINUOUS
10
6.09252
20
-3.93484
11
6.09252
21
-3.98406
0
LINE
8
BLACK
6
CONTINUOUS
10
6.09252
20
-3.98406
11
6.19488
21
-3.98406
0
LINE
8
BLACK
6
CONTINUOUS
10
6.19488
20
-3.98406
11
6.19488
21
-3.97736
0
LINE
8
BLACK
6
CONTINUOUS
10
6.19488
20
-3.97736
11
6.19557
21
-3.97569
0
LINE
8
BLACK
6
CONTINUOUS
10
6.19557
20
-3.97569
11
6.19724
21
-3.975
0
LINE
8
BLACK
6
CONTINUOUS
10
6.19724
20
-3.975
11
6.19891
21
-3.97569
0
LINE
8
BLACK
6
CONTINUOUS
10
6.19891
20
-3.97569
11
6.19961
21
-3.97736
0
LINE
8
BLACK
6
CONTINUOUS
10
6.19961
20
-3.97736
11
6.19961
21
-3.98642
0
LINE
8
BLACK
6
CONTINUOUS
10
6.19961
20
-3.98642
11
6.19891
21
-3.98809
0
LINE
8
BLACK
6
CONTINUOUS
10
6.19891
20
-3.98809
11
6.19724
21
-3.98878
0
LINE
8
BLACK
6
CONTINUOUS
10
6.19724
20
-3.98878
11
6.09016
21
-3.98878
0
LINE
8
BLACK
6
CONTINUOUS
10
6.09016
20
-3.98878
11
6.08849
21
-3.98809
0
LINE
8
BLACK
6
CONTINUOUS
10
6.08849
20
-3.98809
11
6.0878
21
-3.98642
0
LINE
8
BLACK
6
CONTINUOUS
10
6.0878
20
-3.98642
11
6.0878
21
-3.93484
0
LINE
8
BLACK
6
CONTINUOUS
10
6.0878
20
-3.93484
11
6.08849
21
-3.93317
0
LINE
8
BLACK
6
CONTINUOUS
10
6.08849
20
-3.93317
11
6.09016
21
-3.93248
0
LINE
8
BLACK
6
CONTINUOUS
10
6.09016
20
-3.93248
11
6.09183
21
-3.93317
0
LINE
8
BLACK
6
CONTINUOUS
10
6.4556
20
-3.96323
11
6.45715
21
-3.96453
0
LINE
8
BLACK
6
CONTINUOUS
10
6.45715
20
-3.96453
11
6.4575
21
-3.96652
0
LINE
8
BLACK
6
CONTINUOUS
10
6.4575
20
-3.96652
11
6.45649
21
-3.96827
0
LINE
8
BLACK
6
CONTINUOUS
10
6.45649
20
-3.96827
11
6.45459
21
-3.96896
0
LINE
8
BLACK
6
CONTINUOUS
10
6.45459
20
-3.96896
11
6.39459
21
-3.96896
0
LINE
8
BLACK
6
CONTINUOUS
10
6.39459
20
-3.96896
11
6.39358
21
-3.96878
0
LINE
8
BLACK
6
CONTINUOUS
10
6.39358
20
-3.96878
11
6.39203
21
-3.96748
0
LINE
8
BLACK
6
CONTINUOUS
10
6.39203
20
-3.96748
11
6.39168
21
-3.96549
0
LINE
8
BLACK
6
CONTINUOUS
10
6.39168
20
-3.96549
11
6.39269
21
-3.96374
0
LINE
8
BLACK
6
CONTINUOUS
10
6.39269
20
-3.96374
11
6.39459
21
-3.96305
0
LINE
8
BLACK
6
CONTINUOUS
10
6.39459
20
-3.96305
11
6.45459
21
-3.96305
0
LINE
8
BLACK
6
CONTINUOUS
10
6.45459
20
-3.96305
11
6.4556
21
-3.96323
0
LINE
8
BLACK
6
CONTINUOUS
10
6.32276
20
-3.91492
11
6.32463
21
-3.91679
0
LINE
8
BLACK
6
CONTINUOUS
10
6.32463
20
-3.91679
11
6.32514
21
-3.91751
0
LINE
8
BLACK
6
CONTINUOUS
10
6.32514
20
-3.91751
11
6.32518
21
-3.91756
0
LINE
8
BLACK
6
CONTINUOUS
10
6.32518
20
-3.91756
11
6.32706
21
-3.92131
0
LINE
8
BLACK
6
CONTINUOUS
10
6.32706
20
-3.92131
11
6.32735
21
-3.92229
0
LINE
8
BLACK
6
CONTINUOUS
10
6.32735
20
-3.92229
11
6.32731
21
-3.92246
0
LINE
8
BLACK
6
CONTINUOUS
10
6.32731
20
-3.92246
11
6.32737
21
-3.92263
0
LINE
8
BLACK
6
CONTINUOUS
10
6.32737
20
-3.92263
11
6.32737
21
-3.93388
0
LINE
8
BLACK
6
CONTINUOUS
10
6.32737
20
-3.93388
11
6.32719
21
-3.93489
0
LINE
8
BLACK
6
CONTINUOUS
10
6.32719
20
-3.93489
11
6.32708
21
-3.93502
0
LINE
8
BLACK
6
CONTINUOUS
10
6.32708
20
-3.93502
11
6.32706
21
-3.9352
0
LINE
8
BLACK
6
CONTINUOUS
10
6.32706
20
-3.9352
11
6.32518
21
-3.93895
0
LINE
8
BLACK
6
CONTINUOUS
10
6.32518
20
-3.93895
11
6.32466
21
-3.93966
0
LINE
8
BLACK
6
CONTINUOUS
10
6.32466
20
-3.93966
11
6.32463
21
-3.93971
0
LINE
8
BLACK
6
CONTINUOUS
10
6.32463
20
-3.93971
11
6.32276
21
-3.94159
0
LINE
8
BLACK
6
CONTINUOUS
10
6.32276
20
-3.94159
11
6.32203
21
-3.94209
0
LINE
8
BLACK
6
CONTINUOUS
10
6.32203
20
-3.94209
11
6.32199
21
-3.94214
0
LINE
8
BLACK
6
CONTINUOUS
10
6.32199
20
-3.94214
11
6.31824
21
-3.94402
0
LINE
8
BLACK
6
CONTINUOUS
10
6.31824
20
-3.94402
11
6.31726
21
-3.94431
0
LINE
8
BLACK
6
CONTINUOUS
10
6.31726
20
-3.94431
11
6.31708
21
-3.94427
0
LINE
8
BLACK
6
CONTINUOUS
10
6.31708
20
-3.94427
11
6.31692
21
-3.94433
0
LINE
8
BLACK
6
CONTINUOUS
10
6.31692
20
-3.94433
11
6.30755
21
-3.94433
0
LINE
8
BLACK
6
CONTINUOUS
10
6.30755
20
-3.94433
11
6.30654
21
-3.94415
0
LINE
8
BLACK
6
CONTINUOUS
10
6.30654
20
-3.94415
11
6.3064
21
-3.94404
0
LINE
8
BLACK
6
CONTINUOUS
10
6.3064
20
-3.94404
11
6.30622
21
-3.94402
0
LINE
8
BLACK
6
CONTINUOUS
10
6.30622
20
-3.94402
11
6.30248
21
-3.94214
0
LINE
8
BLACK
6
CONTINUOUS
10
6.30248
20
-3.94214
11
6.30177
21
-3.94162
0
LINE
8
BLACK
6
CONTINUOUS
10
6.30177
20
-3.94162
11
6.30171
21
-3.94159
0
LINE
8
BLACK
6
CONTINUOUS
10
6.30171
20
-3.94159
11
6.29983
21
-3.93971
0
LINE
8
BLACK
6
CONTINUOUS
10
6.29983
20
-3.93971
11
6.29933
21
-3.93899
0
LINE
8
BLACK
6
CONTINUOUS
10
6.29933
20
-3.93899
11
6.29928
21
-3.93895
0
LINE
8
BLACK
6
CONTINUOUS
10
6.29928
20
-3.93895
11
6.29741
21
-3.9352
0
LINE
8
BLACK
6
CONTINUOUS
10
6.29741
20
-3.9352
11
6.29724
21
-3.93463
0
LINE
8
BLACK
6
CONTINUOUS
10
6.29724
20
-3.93463
11
6.28699
21
-3.9436
0
LINE
8
BLACK
6
CONTINUOUS
10
6.28699
20
-3.9436
11
6.28661
21
-3.94383
0
LINE
8
BLACK
6
CONTINUOUS
10
6.28661
20
-3.94383
11
6.28652
21
-3.94393
0
LINE
8
BLACK
6
CONTINUOUS
10
6.28652
20
-3.94393
11
6.2864
21
-3.94395
0
LINE
8
BLACK
6
CONTINUOUS
10
6.2864
20
-3.94395
11
6.28612
21
-3.94413
0
LINE
8
BLACK
6
CONTINUOUS
10
6.28612
20
-3.94413
11
6.28532
21
-3.94414
0
LINE
8
BLACK
6
CONTINUOUS
10
6.28532
20
-3.94414
11
6.28454
21
-3.94428
0
LINE
8
BLACK
6
CONTINUOUS
10
6.28454
20
-3.94428
11
6.28433
21
-3.94417
0
LINE
8
BLACK
6
CONTINUOUS
10
6.28433
20
-3.94417
11
6.2841
21
-3.94417
0
LINE
8
BLACK
6
CONTINUOUS
10
6.2841
20
-3.94417
11
6.28348
21
-3.94367
0
LINE
8
BLACK
6
CONTINUOUS
10
6.28348
20
-3.94367
11
6.28279
21
-3.94327
0
LINE
8
BLACK
6
CONTINUOUS
10
6.28279
20
-3.94327
11
6.28271
21
-3.94305
0
LINE
8
BLACK
6
CONTINUOUS
10
6.28271
20
-3.94305
11
6.28252
21
-3.9429
0
LINE
8
BLACK
6
CONTINUOUS
10
6.28252
20
-3.9429
11
6.28237
21
-3.94212
0
LINE
8
BLACK
6
CONTINUOUS
10
6.28237
20
-3.94212
11
6.2821
21
-3.94137
0
LINE
8
BLACK
6
CONTINUOUS
10
6.2821
20
-3.94137
11
6.2821
21
-3.917
0
LINE
8
BLACK
6
CONTINUOUS
10
6.2821
20
-3.917
11
6.28227
21
-3.91599
0
LINE
8
BLACK
6
CONTINUOUS
10
6.28227
20
-3.91599
11
6.28357
21
-3.91445
0
LINE
8
BLACK
6
CONTINUOUS
10
6.28357
20
-3.91445
11
6.28556
21
-3.9141
0
LINE
8
BLACK
6
CONTINUOUS
10
6.28556
20
-3.9141
11
6.28731
21
-3.91511
0
LINE
8
BLACK
6
CONTINUOUS
10
6.28731
20
-3.91511
11
6.288
21
-3.917
0
LINE
8
BLACK
6
CONTINUOUS
10
6.288
20
-3.917
11
6.288
21
-3.93487
0
LINE
8
BLACK
6
CONTINUOUS
10
6.288
20
-3.93487
11
6.2981
21
-3.92603
0
LINE
8
BLACK
6
CONTINUOUS
10
6.2981
20
-3.92603
11
6.29848
21
-3.9258
0
LINE
8
BLACK
6
CONTINUOUS
10
6.29848
20
-3.9258
11
6.29857
21
-3.92569
0
LINE
8
BLACK
6
CONTINUOUS
10
6.29857
20
-3.92569
11
6.29869
21
-3.92567
0
LINE
8
BLACK
6
CONTINUOUS
10
6.29869
20
-3.92567
11
6.29898
21
-3.9255
0
LINE
8
BLACK
6
CONTINUOUS
10
6.29898
20
-3.9255
11
6.29977
21
-3.92548
0
LINE
8
BLACK
6
CONTINUOUS
10
6.29977
20
-3.92548
11
6.30056
21
-3.92534
0
LINE
8
BLACK
6
CONTINUOUS
10
6.30056
20
-3.92534
11
6.30076
21
-3.92546
0
LINE
8
BLACK
6
CONTINUOUS
10
6.30076
20
-3.92546
11
6.301
21
-3.92546
0
LINE
8
BLACK
6
CONTINUOUS
10
6.301
20
-3.92546
11
6.30162
21
-3.92596
0
LINE
8
BLACK
6
CONTINUOUS
10
6.30162
20
-3.92596
11
6.30231
21
-3.92635
0
LINE
8
BLACK
6
CONTINUOUS
10
6.30231
20
-3.92635
11
6.30239
21
-3.92657
0
LINE
8
BLACK
6
CONTINUOUS
10
6.30239
20
-3.92657
11
6.30257
21
-3.92672
0
LINE
8
BLACK
6
CONTINUOUS
10
6.30257
20
-3.92672
11
6.30273
21
-3.9275
0
LINE
8
BLACK
6
CONTINUOUS
10
6.30273
20
-3.9275
11
6.303
21
-3.92825
0
LINE
8
BLACK
6
CONTINUOUS
10
6.303
20
-3.92825
11
6.303
21
-3.93318
0
LINE
8
BLACK
6
CONTINUOUS
10
6.303
20
-3.93318
11
6.30435
21
-3.93588
0
LINE
8
BLACK
6
CONTINUOUS
10
6.30435
20
-3.93588
11
6.30554
21
-3.93707
0
LINE
8
BLACK
6
CONTINUOUS
10
6.30554
20
-3.93707
11
6.30824
21
-3.93842
0
LINE
8
BLACK
6
CONTINUOUS
10
6.30824
20
-3.93842
11
6.31622
21
-3.93842
0
LINE
8
BLACK
6
CONTINUOUS
10
6.31622
20
-3.93842
11
6.31892
21
-3.93707
0
LINE
8
BLACK
6
CONTINUOUS
10
6.31892
20
-3.93707
11
6.32012
21
-3.93588
0
LINE
8
BLACK
6
CONTINUOUS
10
6.32012
20
-3.93588
11
6.32147
21
-3.93318
0
LINE
8
BLACK
6
CONTINUOUS
10
6.32147
20
-3.93318
11
6.32147
21
-3.92332
0
LINE
8
BLACK
6
CONTINUOUS
10
6.32147
20
-3.92332
11
6.32012
21
-3.92063
0
LINE
8
BLACK
6
CONTINUOUS
10
6.32012
20
-3.92063
11
6.31858
21
-3.91909
0
LINE
8
BLACK
6
CONTINUOUS
10
6.31858
20
-3.91909
11
6.31799
21
-3.91825
0
LINE
8
BLACK
6
CONTINUOUS
10
6.31799
20
-3.91825
11
6.31782
21
-3.91624
0
LINE
8
BLACK
6
CONTINUOUS
10
6.31782
20
-3.91624
11
6.31897
21
-3.91458
0
LINE
8
BLACK
6
CONTINUOUS
10
6.31897
20
-3.91458
11
6.32093
21
-3.91406
0
LINE
8
BLACK
6
CONTINUOUS
10
6.32093
20
-3.91406
11
6.32276
21
-3.91492
0
LINE
8
BLACK
6
CONTINUOUS
10
6.39626
20
-3.88933
11
6.39695
21
-3.891
0
LINE
8
BLACK
6
CONTINUOUS
10
6.39695
20
-3.891
11
6.39695
21
-3.921
0
LINE
8
BLACK
6
CONTINUOUS
10
6.39695
20
-3.921
11
6.39626
21
-3.92267
0
LINE
8
BLACK
6
CONTINUOUS
10
6.39626
20
-3.92267
11
6.39459
21
-3.92337
0
LINE
8
BLACK
6
CONTINUOUS
10
6.39459
20
-3.92337
11
6.39292
21
-3.92267
0
LINE
8
BLACK
6
CONTINUOUS
10
6.39292
20
-3.92267
11
6.39223
21
-3.921
0
LINE
8
BLACK
6
CONTINUOUS
10
6.39223
20
-3.921
11
6.39223
21
-3.891
0
LINE
8
BLACK
6
CONTINUOUS
10
6.39223
20
-3.891
11
6.39292
21
-3.88933
0
LINE
8
BLACK
6
CONTINUOUS
10
6.39292
20
-3.88933
11
6.39459
21
-3.88864
0
LINE
8
BLACK
6
CONTINUOUS
10
6.39459
20
-3.88864
11
6.39626
21
-3.88933
0
LINE
8
BLACK
6
CONTINUOUS
10
6.45626
20
-3.88933
11
6.45695
21
-3.891
0
LINE
8
BLACK
6
CONTINUOUS
10
6.45695
20
-3.891
11
6.45695
21
-3.921
0
LINE
8
BLACK
6
CONTINUOUS
10
6.45695
20
-3.921
11
6.45626
21
-3.92267
0
LINE
8
BLACK
6
CONTINUOUS
10
6.45626
20
-3.92267
11
6.45459
21
-3.92337
0
LINE
8
BLACK
6
CONTINUOUS
10
6.45459
20
-3.92337
11
6.45292
21
-3.92267
0
LINE
8
BLACK
6
CONTINUOUS
10
6.45292
20
-3.92267
11
6.45223
21
-3.921
0
LINE
8
BLACK
6
CONTINUOUS
10
6.45223
20
-3.921
11
6.45223
21
-3.891
0
LINE
8
BLACK
6
CONTINUOUS
10
6.45223
20
-3.891
11
6.45292
21
-3.88933
0
LINE
8
BLACK
6
CONTINUOUS
10
6.45292
20
-3.88933
11
6.45459
21
-3.88864
0
LINE
8
BLACK
6
CONTINUOUS
10
6.45459
20
-3.88864
11
6.45626
21
-3.88933
0
LINE
8
BLACK
6
CONTINUOUS
10
5.97405
20
-3.90304
11
5.97711
21
-3.90509
0
LINE
8
BLACK
6
CONTINUOUS
10
5.97711
20
-3.90509
11
5.97916
21
-3.90816
0
LINE
8
BLACK
6
CONTINUOUS
10
5.97916
20
-3.90816
11
5.97988
21
-3.91177
0
LINE
8
BLACK
6
CONTINUOUS
10
5.97988
20
-3.91177
11
5.97916
21
-3.91539
0
LINE
8
BLACK
6
CONTINUOUS
10
5.97916
20
-3.91539
11
5.97711
21
-3.91845
0
LINE
8
BLACK
6
CONTINUOUS
10
5.97711
20
-3.91845
11
5.97405
21
-3.9205
0
LINE
8
BLACK
6
CONTINUOUS
10
5.97405
20
-3.9205
11
5.97043
21
-3.92122
0
LINE
8
BLACK
6
CONTINUOUS
10
5.97043
20
-3.92122
11
5.96682
21
-3.9205
0
LINE
8
BLACK
6
CONTINUOUS
10
5.96682
20
-3.9205
11
5.96375
21
-3.91845
0
LINE
8
BLACK
6
CONTINUOUS
10
5.96375
20
-3.91845
11
5.9617
21
-3.91539
0
LINE
8
BLACK
6
CONTINUOUS
10
5.9617
20
-3.91539
11
5.96098
21
-3.91177
0
LINE
8
BLACK
6
CONTINUOUS
10
5.96098
20
-3.91177
11
5.9617
21
-3.90816
0
LINE
8
BLACK
6
CONTINUOUS
10
5.9617
20
-3.90816
11
5.96375
21
-3.90509
0
LINE
8
BLACK
6
CONTINUOUS
10
5.96375
20
-3.90509
11
5.96682
21
-3.90304
0
LINE
8
BLACK
6
CONTINUOUS
10
5.96682
20
-3.90304
11
5.97043
21
-3.90232
0
LINE
8
BLACK
6
CONTINUOUS
10
5.97043
20
-3.90232
11
5.97405
21
-3.90304
0
LINE
8
BLACK
6
CONTINUOUS
10
5.95708
20
-3.91693
11
5.95781
21
-3.9187
0
LINE
8
BLACK
6
CONTINUOUS
10
5.95781
20
-3.9187
11
5.95708
21
-3.92047
0
LINE
8
BLACK
6
CONTINUOUS
10
5.95708
20
-3.92047
11
5.95531
21
-3.9212
0
LINE
8
BLACK
6
CONTINUOUS
10
5.95531
20
-3.9212
11
5.80571
21
-3.9212
0
LINE
8
BLACK
6
CONTINUOUS
10
5.80571
20
-3.9212
11
5.80394
21
-3.92047
0
LINE
8
BLACK
6
CONTINUOUS
10
5.80394
20
-3.92047
11
5.80321
21
-3.9187
0
LINE
8
BLACK
6
CONTINUOUS
10
5.80321
20
-3.9187
11
5.80394
21
-3.91693
0
LINE
8
BLACK
6
CONTINUOUS
10
5.80394
20
-3.91693
11
5.80571
21
-3.9162
0
LINE
8
BLACK
6
CONTINUOUS
10
5.80571
20
-3.9162
11
5.95531
21
-3.9162
0
LINE
8
BLACK
6
CONTINUOUS
10
5.95531
20
-3.9162
11
5.95708
21
-3.91693
0
LINE
8
BLACK
6
CONTINUOUS
10
6.31793
20
-3.87673
11
6.31806
21
-3.87685
0
LINE
8
BLACK
6
CONTINUOUS
10
6.31806
20
-3.87685
11
6.31824
21
-3.87687
0
LINE
8
BLACK
6
CONTINUOUS
10
6.31824
20
-3.87687
11
6.32199
21
-3.87874
0
LINE
8
BLACK
6
CONTINUOUS
10
6.32199
20
-3.87874
11
6.3227
21
-3.87927
0
LINE
8
BLACK
6
CONTINUOUS
10
6.3227
20
-3.87927
11
6.32276
21
-3.87929
0
LINE
8
BLACK
6
CONTINUOUS
10
6.32276
20
-3.87929
11
6.32463
21
-3.88117
0
LINE
8
BLACK
6
CONTINUOUS
10
6.32463
20
-3.88117
11
6.32514
21
-3.88189
0
LINE
8
BLACK
6
CONTINUOUS
10
6.32514
20
-3.88189
11
6.32518
21
-3.88194
0
LINE
8
BLACK
6
CONTINUOUS
10
6.32518
20
-3.88194
11
6.32706
21
-3.88569
0
LINE
8
BLACK
6
CONTINUOUS
10
6.32706
20
-3.88569
11
6.32735
21
-3.88667
0
LINE
8
BLACK
6
CONTINUOUS
10
6.32735
20
-3.88667
11
6.32731
21
-3.88684
0
LINE
8
BLACK
6
CONTINUOUS
10
6.32731
20
-3.88684
11
6.32737
21
-3.88701
0
LINE
8
BLACK
6
CONTINUOUS
10
6.32737
20
-3.88701
11
6.32737
21
-3.89451
0
LINE
8
BLACK
6
CONTINUOUS
10
6.32737
20
-3.89451
11
6.32719
21
-3.89552
0
LINE
8
BLACK
6
CONTINUOUS
10
6.32719
20
-3.89552
11
6.32708
21
-3.89565
0
LINE
8
BLACK
6
CONTINUOUS
10
6.32708
20
-3.89565
11
6.32706
21
-3.89583
0
LINE
8
BLACK
6
CONTINUOUS
10
6.32706
20
-3.89583
11
6.32518
21
-3.89958
0
LINE
8
BLACK
6
CONTINUOUS
10
6.32518
20
-3.89958
11
6.32466
21
-3.90028
0
LINE
8
BLACK
6
CONTINUOUS
10
6.32466
20
-3.90028
11
6.32463
21
-3.90034
0
LINE
8
BLACK
6
CONTINUOUS
10
6.32463
20
-3.90034
11
6.32276
21
-3.90222
0
LINE
8
BLACK
6
CONTINUOUS
10
6.32276
20
-3.90222
11
6.32203
21
-3.90272
0
LINE
8
BLACK
6
CONTINUOUS
10
6.32203
20
-3.90272
11
6.32199
21
-3.90277
0
LINE
8
BLACK
6
CONTINUOUS
10
6.32199
20
-3.90277
11
6.31824
21
-3.90465
0
LINE
8
BLACK
6
CONTINUOUS
10
6.31824
20
-3.90465
11
6.31726
21
-3.90494
0
LINE
8
BLACK
6
CONTINUOUS
10
6.31726
20
-3.90494
11
6.31708
21
-3.9049
0
LINE
8
BLACK
6
CONTINUOUS
10
6.31708
20
-3.9049
11
6.31692
21
-3.90496
0
LINE
8
BLACK
6
CONTINUOUS
10
6.31692
20
-3.90496
11
6.28505
21
-3.90496
0
LINE
8
BLACK
6
CONTINUOUS
10
6.28505
20
-3.90496
11
6.28404
21
-3.90478
0
LINE
8
BLACK
6
CONTINUOUS
10
6.28404
20
-3.90478
11
6.28249
21
-3.90348
0
LINE
8
BLACK
6
CONTINUOUS
10
6.28249
20
-3.90348
11
6.28214
21
-3.90149
0
LINE
8
BLACK
6
CONTINUOUS
10
6.28214
20
-3.90149
11
6.28315
21
-3.89974
0
LINE
8
BLACK
6
CONTINUOUS
10
6.28315
20
-3.89974
11
6.28505
21
-3.89905
0
LINE
8
BLACK
6
CONTINUOUS
10
6.28505
20
-3.89905
11
6.31622
21
-3.89905
0
LINE
8
BLACK
6
CONTINUOUS
10
6.31622
20
-3.89905
11
6.31892
21
-3.8977
0
LINE
8
BLACK
6
CONTINUOUS
10
6.31892
20
-3.8977
11
6.32012
21
-3.89651
0
LINE
8
BLACK
6
CONTINUOUS
10
6.32012
20
-3.89651
11
6.32147
21
-3.89381
0
LINE
8
BLACK
6
CONTINUOUS
10
6.32147
20
-3.89381
11
6.32147
21
-3.8877
0
LINE
8
BLACK
6
CONTINUOUS
10
6.32147
20
-3.8877
11
6.32012
21
-3.88501
0
LINE
8
BLACK
6
CONTINUOUS
10
6.32012
20
-3.88501
11
6.31892
21
-3.88381
0
LINE
8
BLACK
6
CONTINUOUS
10
6.31892
20
-3.88381
11
6.31622
21
-3.88246
0
LINE
8
BLACK
6
CONTINUOUS
10
6.31622
20
-3.88246
11
6.28505
21
-3.88246
0
LINE
8
BLACK
6
CONTINUOUS
10
6.28505
20
-3.88246
11
6.28404
21
-3.88228
0
LINE
8
BLACK
6
CONTINUOUS
10
6.28404
20
-3.88228
11
6.28249
21
-3.88098
0
LINE
8
BLACK
6
CONTINUOUS
10
6.28249
20
-3.88098
11
6.28214
21
-3.87899
0
LINE
8
BLACK
6
CONTINUOUS
10
6.28214
20
-3.87899
11
6.28315
21
-3.87725
0
LINE
8
BLACK
6
CONTINUOUS
10
6.28315
20
-3.87725
11
6.28505
21
-3.87655
0
LINE
8
BLACK
6
CONTINUOUS
10
6.28505
20
-3.87655
11
6.31692
21
-3.87655
0
LINE
8
BLACK
6
CONTINUOUS
10
6.31692
20
-3.87655
11
6.31793
21
-3.87673
0
LINE
8
BLACK
6
CONTINUOUS
10
6.19724
20
-3.79823
11
6.19891
21
-3.79892
0
LINE
8
BLACK
6
CONTINUOUS
10
6.19891
20
-3.79892
11
6.19961
21
-3.80059
0
LINE
8
BLACK
6
CONTINUOUS
10
6.19961
20
-3.80059
11
6.19961
21
-3.80728
0
LINE
8
BLACK
6
CONTINUOUS
10
6.19961
20
-3.80728
11
6.24213
21
-3.80728
0
LINE
8
BLACK
6
CONTINUOUS
10
6.24213
20
-3.80728
11
6.2438
21
-3.80798
0
LINE
8
BLACK
6
CONTINUOUS
10
6.2438
20
-3.80798
11
6.24449
21
-3.80965
0
LINE
8
BLACK
6
CONTINUOUS
10
6.24449
20
-3.80965
11
6.2438
21
-3.81132
0
LINE
8
BLACK
6
CONTINUOUS
10
6.2438
20
-3.81132
11
6.24213
21
-3.81201
0
LINE
8
BLACK
6
CONTINUOUS
10
6.24213
20
-3.81201
11
6.19724
21
-3.81201
0
LINE
8
BLACK
6
CONTINUOUS
10
6.19724
20
-3.81201
11
6.19557
21
-3.81132
0
LINE
8
BLACK
6
CONTINUOUS
10
6.19557
20
-3.81132
11
6.19488
21
-3.80965
0
LINE
8
BLACK
6
CONTINUOUS
10
6.19488
20
-3.80965
11
6.19488
21
-3.80295
0
LINE
8
BLACK
6
CONTINUOUS
10
6.19488
20
-3.80295
11
6.09252
21
-3.80295
0
LINE
8
BLACK
6
CONTINUOUS
10
6.09252
20
-3.80295
11
6.09252
21
-3.85217
0
LINE
8
BLACK
6
CONTINUOUS
10
6.09252
20
-3.85217
11
6.09183
21
-3.85384
0
LINE
8
BLACK
6
CONTINUOUS
10
6.09183
20
-3.85384
11
6.09016
21
-3.85453
0
LINE
8
BLACK
6
CONTINUOUS
10
6.09016
20
-3.85453
11
6.08849
21
-3.85384
0
LINE
8
BLACK
6
CONTINUOUS
10
6.08849
20
-3.85384
11
6.0878
21
-3.85217
0
LINE
8
BLACK
6
CONTINUOUS
10
6.0878
20
-3.85217
11
6.0878
21
-3.80059
0
LINE
8
BLACK
6
CONTINUOUS
10
6.0878
20
-3.80059
11
6.08849
21
-3.79892
0
LINE
8
BLACK
6
CONTINUOUS
10
6.08849
20
-3.79892
11
6.09016
21
-3.79823
0
LINE
8
BLACK
6
CONTINUOUS
10
6.09016
20
-3.79823
11
6.19724
21
-3.79823
0
LINE
8
BLACK
6
CONTINUOUS
10
5.88257
20
-3.80702
11
5.88309
21
-3.80897
0
LINE
8
BLACK
6
CONTINUOUS
10
5.88309
20
-3.80897
11
5.88224
21
-3.81081
0
LINE
8
BLACK
6
CONTINUOUS
10
5.88224
20
-3.81081
11
5.83981
21
-3.85323
0
LINE
8
BLACK
6
CONTINUOUS
10
5.83981
20
-3.85323
11
5.83897
21
-3.85382
0
LINE
8
BLACK
6
CONTINUOUS
10
5.83897
20
-3.85382
11
5.83696
21
-3.854
0
LINE
8
BLACK
6
CONTINUOUS
10
5.83696
20
-3.854
11
5.83531
21
-3.85284
0
LINE
8
BLACK
6
CONTINUOUS
10
5.83531
20
-3.85284
11
5.83478
21
-3.85089
0
LINE
8
BLACK
6
CONTINUOUS
10
5.83478
20
-3.85089
11
5.83564
21
-3.84906
0
LINE
8
BLACK
6
CONTINUOUS
10
5.83564
20
-3.84906
11
5.87806
21
-3.80663
0
LINE
8
BLACK
6
CONTINUOUS
10
5.87806
20
-3.80663
11
5.8789
21
-3.80604
0
LINE
8
BLACK
6
CONTINUOUS
10
5.8789
20
-3.80604
11
5.88092
21
-3.80586
0
LINE
8
BLACK
6
CONTINUOUS
10
5.88092
20
-3.80586
11
5.88257
21
-3.80702
0
LINE
8
BLACK
6
CONTINUOUS
10
6.4556
20
-3.84323
11
6.45715
21
-3.84453
0
LINE
8
BLACK
6
CONTINUOUS
10
6.45715
20
-3.84453
11
6.4575
21
-3.84652
0
LINE
8
BLACK
6
CONTINUOUS
10
6.4575
20
-3.84652
11
6.45649
21
-3.84827
0
LINE
8
BLACK
6
CONTINUOUS
10
6.45649
20
-3.84827
11
6.45459
21
-3.84896
0
LINE
8
BLACK
6
CONTINUOUS
10
6.45459
20
-3.84896
11
6.39459
21
-3.84896
0
LINE
8
BLACK
6
CONTINUOUS
10
6.39459
20
-3.84896
11
6.39358
21
-3.84878
0
LINE
8
BLACK
6
CONTINUOUS
10
6.39358
20
-3.84878
11
6.39203
21
-3.84748
0
LINE
8
BLACK
6
CONTINUOUS
10
6.39203
20
-3.84748
11
6.39168
21
-3.84549
0
LINE
8
BLACK
6
CONTINUOUS
10
6.39168
20
-3.84549
11
6.39269
21
-3.84374
0
LINE
8
BLACK
6
CONTINUOUS
10
6.39269
20
-3.84374
11
6.39459
21
-3.84305
0
LINE
8
BLACK
6
CONTINUOUS
10
6.39459
20
-3.84305
11
6.45459
21
-3.84305
0
LINE
8
BLACK
6
CONTINUOUS
10
6.45459
20
-3.84305
11
6.4556
21
-3.84323
0
LINE
8
BLACK
6
CONTINUOUS
10
6.37223
20
-3.8377
11
6.37377
21
-3.839
0
LINE
8
BLACK
6
CONTINUOUS
10
6.37377
20
-3.839
11
6.37412
21
-3.84099
0
LINE
8
BLACK
6
CONTINUOUS
10
6.37412
20
-3.84099
11
6.37311
21
-3.84274
0
LINE
8
BLACK
6
CONTINUOUS
10
6.37311
20
-3.84274
11
6.37122
21
-3.84343
0
LINE
8
BLACK
6
CONTINUOUS
10
6.37122
20
-3.84343
11
6.31122
21
-3.84343
0
LINE
8
BLACK
6
CONTINUOUS
10
6.31122
20
-3.84343
11
6.31021
21
-3.84325
0
LINE
8
BLACK
6
CONTINUOUS
10
6.31021
20
-3.84325
11
6.30866
21
-3.84195
0
LINE
8
BLACK
6
CONTINUOUS
10
6.30866
20
-3.84195
11
6.30831
21
-3.83996
0
LINE
8
BLACK
6
CONTINUOUS
10
6.30831
20
-3.83996
11
6.30932
21
-3.83822
0
LINE
8
BLACK
6
CONTINUOUS
10
6.30932
20
-3.83822
11
6.31122
21
-3.83752
0
LINE
8
BLACK
6
CONTINUOUS
10
6.31122
20
-3.83752
11
6.37122
21
-3.83752
0
LINE
8
BLACK
6
CONTINUOUS
10
6.37122
20
-3.83752
11
6.37223
21
-3.8377
0
LINE
8
BLACK
6
CONTINUOUS
10
5.99408
20
-3.83388
11
5.99478
21
-3.83555
0
LINE
8
BLACK
6
CONTINUOUS
10
5.99478
20
-3.83555
11
5.99408
21
-3.83722
0
LINE
8
BLACK
6
CONTINUOUS
10
5.99408
20
-3.83722
11
5.99241
21
-3.83791
0
LINE
8
BLACK
6
CONTINUOUS
10
5.99241
20
-3.83791
11
5.96095
21
-3.83791
0
LINE
8
BLACK
6
CONTINUOUS
10
5.96095
20
-3.83791
11
5.95928
21
-3.83722
0
LINE
8
BLACK
6
CONTINUOUS
10
5.95928
20
-3.83722
11
5.95859
21
-3.83555
0
LINE
8
BLACK
6
CONTINUOUS
10
5.95859
20
-3.83555
11
5.95928
21
-3.83388
0
LINE
8
BLACK
6
CONTINUOUS
10
5.95928
20
-3.83388
11
5.96095
21
-3.83319
0
LINE
8
BLACK
6
CONTINUOUS
10
5.96095
20
-3.83319
11
5.99241
21
-3.83319
0
LINE
8
BLACK
6
CONTINUOUS
10
5.99241
20
-3.83319
11
5.99408
21
-3.83388
0
LINE
8
BLACK
6
CONTINUOUS
10
5.78636
20
-3.79644
11
5.80758
21
-3.81765
0
LINE
8
BLACK
6
CONTINUOUS
10
5.80758
20
-3.81765
11
5.80827
21
-3.81932
0
LINE
8
BLACK
6
CONTINUOUS
10
5.80827
20
-3.81932
11
5.80758
21
-3.82099
0
LINE
8
BLACK
6
CONTINUOUS
10
5.80758
20
-3.82099
11
5.80591
21
-3.82169
0
LINE
8
BLACK
6
CONTINUOUS
10
5.80591
20
-3.82169
11
5.80423
21
-3.82099
0
LINE
8
BLACK
6
CONTINUOUS
10
5.80423
20
-3.82099
11
5.78302
21
-3.79978
0
LINE
8
BLACK
6
CONTINUOUS
10
5.78302
20
-3.79978
11
5.78233
21
-3.79811
0
LINE
8
BLACK
6
CONTINUOUS
10
5.78233
20
-3.79811
11
5.78302
21
-3.79644
0
LINE
8
BLACK
6
CONTINUOUS
10
5.78302
20
-3.79644
11
5.78469
21
-3.79575
0
LINE
8
BLACK
6
CONTINUOUS
10
5.78469
20
-3.79575
11
5.78636
21
-3.79644
0
LINE
8
BLACK
6
CONTINUOUS
10
6.31289
20
-3.76381
11
6.31358
21
-3.76548
0
LINE
8
BLACK
6
CONTINUOUS
10
6.31358
20
-3.76548
11
6.31358
21
-3.79548
0
LINE
8
BLACK
6
CONTINUOUS
10
6.31358
20
-3.79548
11
6.31289
21
-3.79715
0
LINE
8
BLACK
6
CONTINUOUS
10
6.31289
20
-3.79715
11
6.31122
21
-3.79784
0
LINE
8
BLACK
6
CONTINUOUS
10
6.31122
20
-3.79784
11
6.30955
21
-3.79715
0
LINE
8
BLACK
6
CONTINUOUS
10
6.30955
20
-3.79715
11
6.30885
21
-3.79548
0
LINE
8
BLACK
6
CONTINUOUS
10
6.30885
20
-3.79548
11
6.30885
21
-3.76548
0
LINE
8
BLACK
6
CONTINUOUS
10
6.30885
20
-3.76548
11
6.30955
21
-3.76381
0
LINE
8
BLACK
6
CONTINUOUS
10
6.30955
20
-3.76381
11
6.31122
21
-3.76311
0
LINE
8
BLACK
6
CONTINUOUS
10
6.31122
20
-3.76311
11
6.31289
21
-3.76381
0
LINE
8
BLACK
6
CONTINUOUS
10
6.37289
20
-3.76381
11
6.37358
21
-3.76548
0
LINE
8
BLACK
6
CONTINUOUS
10
6.37358
20
-3.76548
11
6.37358
21
-3.79548
0
LINE
8
BLACK
6
CONTINUOUS
10
6.37358
20
-3.79548
11
6.37289
21
-3.79715
0
LINE
8
BLACK
6
CONTINUOUS
10
6.37289
20
-3.79715
11
6.37122
21
-3.79784
0
LINE
8
BLACK
6
CONTINUOUS
10
6.37122
20
-3.79784
11
6.36955
21
-3.79715
0
LINE
8
BLACK
6
CONTINUOUS
10
6.36955
20
-3.79715
11
6.36885
21
-3.79548
0
LINE
8
BLACK
6
CONTINUOUS
10
6.36885
20
-3.79548
11
6.36885
21
-3.76548
0
LINE
8
BLACK
6
CONTINUOUS
10
6.36885
20
-3.76548
11
6.36955
21
-3.76381
0
LINE
8
BLACK
6
CONTINUOUS
10
6.36955
20
-3.76381
11
6.37122
21
-3.76311
0
LINE
8
BLACK
6
CONTINUOUS
10
6.37122
20
-3.76311
11
6.37289
21
-3.76381
0
LINE
8
BLACK
6
CONTINUOUS
10
5.99408
20
-3.78979
11
5.99478
21
-3.79146
0
LINE
8
BLACK
6
CONTINUOUS
10
5.99478
20
-3.79146
11
5.99408
21
-3.79313
0
LINE
8
BLACK
6
CONTINUOUS
10
5.99408
20
-3.79313
11
5.99241
21
-3.79382
0
LINE
8
BLACK
6
CONTINUOUS
10
5.99241
20
-3.79382
11
5.96095
21
-3.79382
0
LINE
8
BLACK
6
CONTINUOUS
10
5.96095
20
-3.79382
11
5.95928
21
-3.79313
0
LINE
8
BLACK
6
CONTINUOUS
10
5.95928
20
-3.79313
11
5.95859
21
-3.79146
0
LINE
8
BLACK
6
CONTINUOUS
10
5.95859
20
-3.79146
11
5.95928
21
-3.78979
0
LINE
8
BLACK
6
CONTINUOUS
10
5.95928
20
-3.78979
11
5.96095
21
-3.78909
0
LINE
8
BLACK
6
CONTINUOUS
10
5.96095
20
-3.78909
11
5.99241
21
-3.78909
0
LINE
8
BLACK
6
CONTINUOUS
10
5.99241
20
-3.78909
11
5.99408
21
-3.78979
0
LINE
8
BLACK
6
CONTINUOUS
10
5.82879
20
-3.75401
11
5.85
21
-3.77523
0
LINE
8
BLACK
6
CONTINUOUS
10
5.85
20
-3.77523
11
5.85069
21
-3.7769
0
LINE
8
BLACK
6
CONTINUOUS
10
5.85069
20
-3.7769
11
5.85
21
-3.77857
0
LINE
8
BLACK
6
CONTINUOUS
10
5.85
20
-3.77857
11
5.84833
21
-3.77926
0
LINE
8
BLACK
6
CONTINUOUS
10
5.84833
20
-3.77926
11
5.84666
21
-3.77857
0
LINE
8
BLACK
6
CONTINUOUS
10
5.84666
20
-3.77857
11
5.82545
21
-3.75735
0
LINE
8
BLACK
6
CONTINUOUS
10
5.82545
20
-3.75735
11
5.82476
21
-3.75568
0
LINE
8
BLACK
6
CONTINUOUS
10
5.82476
20
-3.75568
11
5.82545
21
-3.75401
0
LINE
8
BLACK
6
CONTINUOUS
10
5.82545
20
-3.75401
11
5.82712
21
-3.75332
0
LINE
8
BLACK
6
CONTINUOUS
10
5.82712
20
-3.75332
11
5.82879
21
-3.75401
0
LINE
8
BLACK
6
CONTINUOUS
10
5.79772
20
-3.72217
11
5.79824
21
-3.72412
0
LINE
8
BLACK
6
CONTINUOUS
10
5.79824
20
-3.72412
11
5.79739
21
-3.72595
0
LINE
8
BLACK
6
CONTINUOUS
10
5.79739
20
-3.72595
11
5.75496
21
-3.76838
0
LINE
8
BLACK
6
CONTINUOUS
10
5.75496
20
-3.76838
11
5.75412
21
-3.76897
0
LINE
8
BLACK
6
CONTINUOUS
10
5.75412
20
-3.76897
11
5.75211
21
-3.76914
0
LINE
8
BLACK
6
CONTINUOUS
10
5.75211
20
-3.76914
11
5.75045
21
-3.76798
0
LINE
8
BLACK
6
CONTINUOUS
10
5.75045
20
-3.76798
11
5.74993
21
-3.76603
0
LINE
8
BLACK
6
CONTINUOUS
10
5.74993
20
-3.76603
11
5.75078
21
-3.7642
0
LINE
8
BLACK
6
CONTINUOUS
10
5.75078
20
-3.7642
11
5.79321
21
-3.72178
0
LINE
8
BLACK
6
CONTINUOUS
10
5.79321
20
-3.72178
11
5.79405
21
-3.72119
0
LINE
8
BLACK
6
CONTINUOUS
10
5.79405
20
-3.72119
11
5.79606
21
-3.72101
0
LINE
8
BLACK
6
CONTINUOUS
10
5.79606
20
-3.72101
11
5.79772
21
-3.72217
0
LINE
8
BLACK
6
CONTINUOUS
10
6.04871
20
-3.72327
11
6.05026
21
-3.72456
0
LINE
8
BLACK
6
CONTINUOUS
10
6.05026
20
-3.72456
11
6.05061
21
-3.72655
0
LINE
8
BLACK
6
CONTINUOUS
10
6.05061
20
-3.72655
11
6.0496
21
-3.7283
0
LINE
8
BLACK
6
CONTINUOUS
10
6.0496
20
-3.7283
11
6.0477
21
-3.72899
0
LINE
8
BLACK
6
CONTINUOUS
10
6.0477
20
-3.72899
11
6.02983
21
-3.72899
0
LINE
8
BLACK
6
CONTINUOUS
10
6.02983
20
-3.72899
11
6.03867
21
-3.73909
0
LINE
8
BLACK
6
CONTINUOUS
10
6.03867
20
-3.73909
11
6.0389
21
-3.73947
0
LINE
8
BLACK
6
CONTINUOUS
10
6.0389
20
-3.73947
11
6.03901
21
-3.73956
0
LINE
8
BLACK
6
CONTINUOUS
10
6.03901
20
-3.73956
11
6.03903
21
-3.73968
0
LINE
8
BLACK
6
CONTINUOUS
10
6.03903
20
-3.73968
11
6.0392
21
-3.73997
0
LINE
8
BLACK
6
CONTINUOUS
10
6.0392
20
-3.73997
11
6.03922
21
-3.74077
0
LINE
8
BLACK
6
CONTINUOUS
10
6.03922
20
-3.74077
11
6.03936
21
-3.74155
0
LINE
8
BLACK
6
CONTINUOUS
10
6.03936
20
-3.74155
11
6.03924
21
-3.74175
0
LINE
8
BLACK
6
CONTINUOUS
10
6.03924
20
-3.74175
11
6.03925
21
-3.74199
0
LINE
8
BLACK
6
CONTINUOUS
10
6.03925
20
-3.74199
11
6.03875
21
-3.74261
0
LINE
8
BLACK
6
CONTINUOUS
10
6.03875
20
-3.74261
11
6.03835
21
-3.7433
0
LINE
8
BLACK
6
CONTINUOUS
10
6.03835
20
-3.7433
11
6.03813
21
-3.74338
0
LINE
8
BLACK
6
CONTINUOUS
10
6.03813
20
-3.74338
11
6.03798
21
-3.74356
0
LINE
8
BLACK
6
CONTINUOUS
10
6.03798
20
-3.74356
11
6.0372
21
-3.74372
0
LINE
8
BLACK
6
CONTINUOUS
10
6.0372
20
-3.74372
11
6.03645
21
-3.74399
0
LINE
8
BLACK
6
CONTINUOUS
10
6.03645
20
-3.74399
11
6.03152
21
-3.74399
0
LINE
8
BLACK
6
CONTINUOUS
10
6.03152
20
-3.74399
11
6.02883
21
-3.74534
0
LINE
8
BLACK
6
CONTINUOUS
10
6.02883
20
-3.74534
11
6.02763
21
-3.74654
0
LINE
8
BLACK
6
CONTINUOUS
10
6.02763
20
-3.74654
11
6.02628
21
-3.74923
0
LINE
8
BLACK
6
CONTINUOUS
10
6.02628
20
-3.74923
11
6.02628
21
-3.75721
0
LINE
8
BLACK
6
CONTINUOUS
10
6.02628
20
-3.75721
11
6.02763
21
-3.75991
0
LINE
8
BLACK
6
CONTINUOUS
10
6.02763
20
-3.75991
11
6.02883
21
-3.76111
0
LINE
8
BLACK
6
CONTINUOUS
10
6.02883
20
-3.76111
11
6.03152
21
-3.76246
0
LINE
8
BLACK
6
CONTINUOUS
10
6.03152
20
-3.76246
11
6.04138
21
-3.76246
0
LINE
8
BLACK
6
CONTINUOUS
10
6.04138
20
-3.76246
11
6.04408
21
-3.76111
0
LINE
8
BLACK
6
CONTINUOUS
10
6.04408
20
-3.76111
11
6.04561
21
-3.75957
0
LINE
8
BLACK
6
CONTINUOUS
10
6.04561
20
-3.75957
11
6.04645
21
-3.75898
0
LINE
8
BLACK
6
CONTINUOUS
10
6.04645
20
-3.75898
11
6.04846
21
-3.75881
0
LINE
8
BLACK
6
CONTINUOUS
10
6.04846
20
-3.75881
11
6.05012
21
-3.75997
0
LINE
8
BLACK
6
CONTINUOUS
10
6.05012
20
-3.75997
11
6.05064
21
-3.76192
0
LINE
8
BLACK
6
CONTINUOUS
10
6.05064
20
-3.76192
11
6.04979
21
-3.76375
0
LINE
8
BLACK
6
CONTINUOUS
10
6.04979
20
-3.76375
11
6.04791
21
-3.76562
0
LINE
8
BLACK
6
CONTINUOUS
10
6.04791
20
-3.76562
11
6.04719
21
-3.76613
0
LINE
8
BLACK
6
CONTINUOUS
10
6.04719
20
-3.76613
11
6.04715
21
-3.76618
0
LINE
8
BLACK
6
CONTINUOUS
10
6.04715
20
-3.76618
11
6.0434
21
-3.76805
0
LINE
8
BLACK
6
CONTINUOUS
10
6.0434
20
-3.76805
11
6.04241
21
-3.76834
0
LINE
8
BLACK
6
CONTINUOUS
10
6.04241
20
-3.76834
11
6.04224
21
-3.7683
0
LINE
8
BLACK
6
CONTINUOUS
10
6.04224
20
-3.7683
11
6.04208
21
-3.76836
0
LINE
8
BLACK
6
CONTINUOUS
10
6.04208
20
-3.76836
11
6.03083
21
-3.76836
0
LINE
8
BLACK
6
CONTINUOUS
10
6.03083
20
-3.76836
11
6.02982
21
-3.76818
0
LINE
8
BLACK
6
CONTINUOUS
10
6.02982
20
-3.76818
11
6.02968
21
-3.76807
0
LINE
8
BLACK
6
CONTINUOUS
10
6.02968
20
-3.76807
11
6.02951
21
-3.76805
0
LINE
8
BLACK
6
CONTINUOUS
10
6.02951
20
-3.76805
11
6.02576
21
-3.76618
0
LINE
8
BLACK
6
CONTINUOUS
10
6.02576
20
-3.76618
11
6.02505
21
-3.76565
0
LINE
8
BLACK
6
CONTINUOUS
10
6.02505
20
-3.76565
11
6.02499
21
-3.76562
0
LINE
8
BLACK
6
CONTINUOUS
10
6.02499
20
-3.76562
11
6.02311
21
-3.76375
0
LINE
8
BLACK
6
CONTINUOUS
10
6.02311
20
-3.76375
11
6.02261
21
-3.76303
0
LINE
8
BLACK
6
CONTINUOUS
10
6.02261
20
-3.76303
11
6.02256
21
-3.76298
0
LINE
8
BLACK
6
CONTINUOUS
10
6.02256
20
-3.76298
11
6.02069
21
-3.75923
0
LINE
8
BLACK
6
CONTINUOUS
10
6.02069
20
-3.75923
11
6.02039
21
-3.75825
0
LINE
8
BLACK
6
CONTINUOUS
10
6.02039
20
-3.75825
11
6.02044
21
-3.75808
0
LINE
8
BLACK
6
CONTINUOUS
10
6.02044
20
-3.75808
11
6.02037
21
-3.75791
0
LINE
8
BLACK
6
CONTINUOUS
10
6.02037
20
-3.75791
11
6.02037
21
-3.74854
0
LINE
8
BLACK
6
CONTINUOUS
10
6.02037
20
-3.74854
11
6.02055
21
-3.74753
0
LINE
8
BLACK
6
CONTINUOUS
10
6.02055
20
-3.74753
11
6.02067
21
-3.74739
0
LINE
8
BLACK
6
CONTINUOUS
10
6.02067
20
-3.74739
11
6.02069
21
-3.74722
0
LINE
8
BLACK
6
CONTINUOUS
10
6.02069
20
-3.74722
11
6.02256
21
-3.74347
0
LINE
8
BLACK
6
CONTINUOUS
10
6.02256
20
-3.74347
11
6.02309
21
-3.74276
0
LINE
8
BLACK
6
CONTINUOUS
10
6.02309
20
-3.74276
11
6.02311
21
-3.7427
0
LINE
8
BLACK
6
CONTINUOUS
10
6.02311
20
-3.7427
11
6.02499
21
-3.74083
0
LINE
8
BLACK
6
CONTINUOUS
10
6.02499
20
-3.74083
11
6.02571
21
-3.74032
0
LINE
8
BLACK
6
CONTINUOUS
10
6.02571
20
-3.74032
11
6.02576
21
-3.74027
0
LINE
8
BLACK
6
CONTINUOUS
10
6.02576
20
-3.74027
11
6.02951
21
-3.7384
0
LINE
8
BLACK
6
CONTINUOUS
10
6.02951
20
-3.7384
11
6.03007
21
-3.73823
0
LINE
8
BLACK
6
CONTINUOUS
10
6.03007
20
-3.73823
11
6.02111
21
-3.72798
0
LINE
8
BLACK
6
CONTINUOUS
10
6.02111
20
-3.72798
11
6.02088
21
-3.7276
0
LINE
8
BLACK
6
CONTINUOUS
10
6.02088
20
-3.7276
11
6.02077
21
-3.72752
0
LINE
8
BLACK
6
CONTINUOUS
10
6.02077
20
-3.72752
11
6.02075
21
-3.7274
0
LINE
8
BLACK
6
CONTINUOUS
10
6.02075
20
-3.7274
11
6.02057
21
-3.72711
0
LINE
8
BLACK
6
CONTINUOUS
10
6.02057
20
-3.72711
11
6.02056
21
-3.72631
0
LINE
8
BLACK
6
CONTINUOUS
10
6.02056
20
-3.72631
11
6.02042
21
-3.72553
0
LINE
8
BLACK
6
CONTINUOUS
10
6.02042
20
-3.72553
11
6.02054
21
-3.72532
0
LINE
8
BLACK
6
CONTINUOUS
10
6.02054
20
-3.72532
11
6.02053
21
-3.72509
0
LINE
8
BLACK
6
CONTINUOUS
10
6.02053
20
-3.72509
11
6.02103
21
-3.72447
0
LINE
8
BLACK
6
CONTINUOUS
10
6.02103
20
-3.72447
11
6.02143
21
-3.72378
0
LINE
8
BLACK
6
CONTINUOUS
10
6.02143
20
-3.72378
11
6.02165
21
-3.7237
0
LINE
8
BLACK
6
CONTINUOUS
10
6.02165
20
-3.7237
11
6.0218
21
-3.72351
0
LINE
8
BLACK
6
CONTINUOUS
10
6.0218
20
-3.72351
11
6.02258
21
-3.72336
0
LINE
8
BLACK
6
CONTINUOUS
10
6.02258
20
-3.72336
11
6.02333
21
-3.72309
0
LINE
8
BLACK
6
CONTINUOUS
10
6.02333
20
-3.72309
11
6.0477
21
-3.72309
0
LINE
8
BLACK
6
CONTINUOUS
10
6.0477
20
-3.72309
11
6.04871
21
-3.72327
0
LINE
8
BLACK
6
CONTINUOUS
10
6.07808
20
-3.72414
11
6.07877
21
-3.72604
0
LINE
8
BLACK
6
CONTINUOUS
10
6.07877
20
-3.72604
11
6.07877
21
-3.76541
0
LINE
8
BLACK
6
CONTINUOUS
10
6.07877
20
-3.76541
11
6.07871
21
-3.76579
0
LINE
8
BLACK
6
CONTINUOUS
10
6.07871
20
-3.76579
11
6.07873
21
-3.76592
0
LINE
8
BLACK
6
CONTINUOUS
10
6.07873
20
-3.76592
11
6.07866
21
-3.76604
0
LINE
8
BLACK
6
CONTINUOUS
10
6.07866
20
-3.76604
11
6.0786
21
-3.76642
0
LINE
8
BLACK
6
CONTINUOUS
10
6.0786
20
-3.76642
11
6.0781
21
-3.76701
0
LINE
8
BLACK
6
CONTINUOUS
10
6.0781
20
-3.76701
11
6.07772
21
-3.76767
0
LINE
8
BLACK
6
CONTINUOUS
10
6.07772
20
-3.76767
11
6.07747
21
-3.76776
0
LINE
8
BLACK
6
CONTINUOUS
10
6.07747
20
-3.76776
11
6.0773
21
-3.76797
0
LINE
8
BLACK
6
CONTINUOUS
10
6.0773
20
-3.76797
11
6.07654
21
-3.7681
0
LINE
8
BLACK
6
CONTINUOUS
10
6.07654
20
-3.7681
11
6.07582
21
-3.76836
0
LINE
8
BLACK
6
CONTINUOUS
10
6.07582
20
-3.76836
11
6.05707
21
-3.76836
0
LINE
8
BLACK
6
CONTINUOUS
10
6.05707
20
-3.76836
11
6.05606
21
-3.76818
0
LINE
8
BLACK
6
CONTINUOUS
10
6.05606
20
-3.76818
11
6.05452
21
-3.76689
0
LINE
8
BLACK
6
CONTINUOUS
10
6.05452
20
-3.76689
11
6.05417
21
-3.7649
0
LINE
8
BLACK
6
CONTINUOUS
10
6.05417
20
-3.7649
11
6.05518
21
-3.76315
0
LINE
8
BLACK
6
CONTINUOUS
10
6.05518
20
-3.76315
11
6.05707
21
-3.76246
0
LINE
8
BLACK
6
CONTINUOUS
10
6.05707
20
-3.76246
11
6.07287
21
-3.76246
0
LINE
8
BLACK
6
CONTINUOUS
10
6.07287
20
-3.76246
11
6.07287
21
-3.72604
0
LINE
8
BLACK
6
CONTINUOUS
10
6.07287
20
-3.72604
11
6.07305
21
-3.72503
0
LINE
8
BLACK
6
CONTINUOUS
10
6.07305
20
-3.72503
11
6.07434
21
-3.72348
0
LINE
8
BLACK
6
CONTINUOUS
10
6.07434
20
-3.72348
11
6.07633
21
-3.72313
0
LINE
8
BLACK
6
CONTINUOUS
10
6.07633
20
-3.72313
11
6.07808
21
-3.72414
0
LINE
8
BLACK
6
CONTINUOUS
10
5.98652
20
-3.73823
11
5.98807
21
-3.73953
0
LINE
8
BLACK
6
CONTINUOUS
10
5.98807
20
-3.73953
11
5.98842
21
-3.74152
0
LINE
8
BLACK
6
CONTINUOUS
10
5.98842
20
-3.74152
11
5.98741
21
-3.74327
0
LINE
8
BLACK
6
CONTINUOUS
10
5.98741
20
-3.74327
11
5.98551
21
-3.74396
0
LINE
8
BLACK
6
CONTINUOUS
10
5.98551
20
-3.74396
11
5.92551
21
-3.74396
0
LINE
8
BLACK
6
CONTINUOUS
10
5.92551
20
-3.74396
11
5.9245
21
-3.74378
0
LINE
8
BLACK
6
CONTINUOUS
10
5.9245
20
-3.74378
11
5.92295
21
-3.74248
0
LINE
8
BLACK
6
CONTINUOUS
10
5.92295
20
-3.74248
11
5.9226
21
-3.74049
0
LINE
8
BLACK
6
CONTINUOUS
10
5.9226
20
-3.74049
11
5.92361
21
-3.73874
0
LINE
8
BLACK
6
CONTINUOUS
10
5.92361
20
-3.73874
11
5.92551
21
-3.73805
0
LINE
8
BLACK
6
CONTINUOUS
10
5.92551
20
-3.73805
11
5.98551
21
-3.73805
0
LINE
8
BLACK
6
CONTINUOUS
10
5.98551
20
-3.73805
11
5.98652
21
-3.73823
0
LINE
8
BLACK
6
CONTINUOUS
10
6.21152
20
-3.73823
11
6.21307
21
-3.73953
0
LINE
8
BLACK
6
CONTINUOUS
10
6.21307
20
-3.73953
11
6.21342
21
-3.74152
0
LINE
8
BLACK
6
CONTINUOUS
10
6.21342
20
-3.74152
11
6.21241
21
-3.74327
0
LINE
8
BLACK
6
CONTINUOUS
10
6.21241
20
-3.74327
11
6.21051
21
-3.74396
0
LINE
8
BLACK
6
CONTINUOUS
10
6.21051
20
-3.74396
11
6.15051
21
-3.74396
0
LINE
8
BLACK
6
CONTINUOUS
10
6.15051
20
-3.74396
11
6.1495
21
-3.74378
0
LINE
8
BLACK
6
CONTINUOUS
10
6.1495
20
-3.74378
11
6.14795
21
-3.74248
0
LINE
8
BLACK
6
CONTINUOUS
10
6.14795
20
-3.74248
11
6.1476
21
-3.74049
0
LINE
8
BLACK
6
CONTINUOUS
10
6.1476
20
-3.74049
11
6.14861
21
-3.73874
0
LINE
8
BLACK
6
CONTINUOUS
10
6.14861
20
-3.73874
11
6.15051
21
-3.73805
0
LINE
8
BLACK
6
CONTINUOUS
10
6.15051
20
-3.73805
11
6.21051
21
-3.73805
0
LINE
8
BLACK
6
CONTINUOUS
10
6.21051
20
-3.73805
11
6.21152
21
-3.73823
0
LINE
8
BLACK
6
CONTINUOUS
10
6.37223
20
-3.7177
11
6.37377
21
-3.719
0
LINE
8
BLACK
6
CONTINUOUS
10
6.37377
20
-3.719
11
6.37412
21
-3.72099
0
LINE
8
BLACK
6
CONTINUOUS
10
6.37412
20
-3.72099
11
6.37311
21
-3.72274
0
LINE
8
BLACK
6
CONTINUOUS
10
6.37311
20
-3.72274
11
6.37122
21
-3.72343
0
LINE
8
BLACK
6
CONTINUOUS
10
6.37122
20
-3.72343
11
6.31122
21
-3.72343
0
LINE
8
BLACK
6
CONTINUOUS
10
6.31122
20
-3.72343
11
6.31021
21
-3.72325
0
LINE
8
BLACK
6
CONTINUOUS
10
6.31021
20
-3.72325
11
6.30866
21
-3.72195
0
LINE
8
BLACK
6
CONTINUOUS
10
6.30866
20
-3.72195
11
6.30831
21
-3.71996
0
LINE
8
BLACK
6
CONTINUOUS
10
6.30831
20
-3.71996
11
6.30932
21
-3.71822
0
LINE
8
BLACK
6
CONTINUOUS
10
6.30932
20
-3.71822
11
6.31122
21
-3.71752
0
LINE
8
BLACK
6
CONTINUOUS
10
6.31122
20
-3.71752
11
6.37122
21
-3.71752
0
LINE
8
BLACK
6
CONTINUOUS
10
6.37122
20
-3.71752
11
6.37223
21
-3.7177
0
LINE
8
BLACK
6
CONTINUOUS
10
5.92718
20
-3.66433
11
5.92787
21
-3.666
0
LINE
8
BLACK
6
CONTINUOUS
10
5.92787
20
-3.666
11
5.92787
21
-3.696
0
LINE
8
BLACK
6
CONTINUOUS
10
5.92787
20
-3.696
11
5.92718
21
-3.69767
0
LINE
8
BLACK
6
CONTINUOUS
10
5.92718
20
-3.69767
11
5.92551
21
-3.69837
0
LINE
8
BLACK
6
CONTINUOUS
10
5.92551
20
-3.69837
11
5.92384
21
-3.69767
0
LINE
8
BLACK
6
CONTINUOUS
10
5.92384
20
-3.69767
11
5.92315
21
-3.696
0
LINE
8
BLACK
6
CONTINUOUS
10
5.92315
20
-3.696
11
5.92315
21
-3.666
0
LINE
8
BLACK
6
CONTINUOUS
10
5.92315
20
-3.666
11
5.92384
21
-3.66433
0
LINE
8
BLACK
6
CONTINUOUS
10
5.92384
20
-3.66433
11
5.92551
21
-3.66364
0
LINE
8
BLACK
6
CONTINUOUS
10
5.92551
20
-3.66364
11
5.92718
21
-3.66433
0
LINE
8
BLACK
6
CONTINUOUS
10
5.98718
20
-3.66433
11
5.98787
21
-3.666
0
LINE
8
BLACK
6
CONTINUOUS
10
5.98787
20
-3.666
11
5.98787
21
-3.696
0
LINE
8
BLACK
6
CONTINUOUS
10
5.98787
20
-3.696
11
5.98718
21
-3.69767
0
LINE
8
BLACK
6
CONTINUOUS
10
5.98718
20
-3.69767
11
5.98551
21
-3.69837
0
LINE
8
BLACK
6
CONTINUOUS
10
5.98551
20
-3.69837
11
5.98384
21
-3.69767
0
LINE
8
BLACK
6
CONTINUOUS
10
5.98384
20
-3.69767
11
5.98315
21
-3.696
0
LINE
8
BLACK
6
CONTINUOUS
10
5.98315
20
-3.696
11
5.98315
21
-3.666
0
LINE
8
BLACK
6
CONTINUOUS
10
5.98315
20
-3.666
11
5.98384
21
-3.66433
0
LINE
8
BLACK
6
CONTINUOUS
10
5.98384
20
-3.66433
11
5.98551
21
-3.66364
0
LINE
8
BLACK
6
CONTINUOUS
10
5.98551
20
-3.66364
11
5.98718
21
-3.66433
0
LINE
8
BLACK
6
CONTINUOUS
10
6.15218
20
-3.66433
11
6.15287
21
-3.666
0
LINE
8
BLACK
6
CONTINUOUS
10
6.15287
20
-3.666
11
6.15287
21
-3.696
0
LINE
8
BLACK
6
CONTINUOUS
10
6.15287
20
-3.696
11
6.15218
21
-3.69767
0
LINE
8
BLACK
6
CONTINUOUS
10
6.15218
20
-3.69767
11
6.15051
21
-3.69837
0
LINE
8
BLACK
6
CONTINUOUS
10
6.15051
20
-3.69837
11
6.14884
21
-3.69767
0
LINE
8
BLACK
6
CONTINUOUS
10
6.14884
20
-3.69767
11
6.14815
21
-3.696
0
LINE
8
BLACK
6
CONTINUOUS
10
6.14815
20
-3.696
11
6.14815
21
-3.666
0
LINE
8
BLACK
6
CONTINUOUS
10
6.14815
20
-3.666
11
6.14884
21
-3.66433
0
LINE
8
BLACK
6
CONTINUOUS
10
6.14884
20
-3.66433
11
6.15051
21
-3.66364
0
LINE
8
BLACK
6
CONTINUOUS
10
6.15051
20
-3.66364
11
6.15218
21
-3.66433
0
LINE
8
BLACK
6
CONTINUOUS
10
6.21218
20
-3.66433
11
6.21287
21
-3.666
0
LINE
8
BLACK
6
CONTINUOUS
10
6.21287
20
-3.666
11
6.21287
21
-3.696
0
LINE
8
BLACK
6
CONTINUOUS
10
6.21287
20
-3.696
11
6.21218
21
-3.69767
0
LINE
8
BLACK
6
CONTINUOUS
10
6.21218
20
-3.69767
11
6.21051
21
-3.69837
0
LINE
8
BLACK
6
CONTINUOUS
10
6.21051
20
-3.69837
11
6.20884
21
-3.69767
0
LINE
8
BLACK
6
CONTINUOUS
10
6.20884
20
-3.69767
11
6.20815
21
-3.696
0
LINE
8
BLACK
6
CONTINUOUS
10
6.20815
20
-3.696
11
6.20815
21
-3.666
0
LINE
8
BLACK
6
CONTINUOUS
10
6.20815
20
-3.666
11
6.20884
21
-3.66433
0
LINE
8
BLACK
6
CONTINUOUS
10
6.20884
20
-3.66433
11
6.21051
21
-3.66364
0
LINE
8
BLACK
6
CONTINUOUS
10
6.21051
20
-3.66364
11
6.21218
21
-3.66433
0
LINE
8
BLACK
6
CONTINUOUS
10
5.85974
20
-3.6875
11
5.86043
21
-3.68917
0
LINE
8
BLACK
6
CONTINUOUS
10
5.86043
20
-3.68917
11
5.85974
21
-3.69084
0
LINE
8
BLACK
6
CONTINUOUS
10
5.85974
20
-3.69084
11
5.85807
21
-3.69154
0
LINE
8
BLACK
6
CONTINUOUS
10
5.85807
20
-3.69154
11
5.78327
21
-3.69154
0
LINE
8
BLACK
6
CONTINUOUS
10
5.78327
20
-3.69154
11
5.7816
21
-3.69084
0
LINE
8
BLACK
6
CONTINUOUS
10
5.7816
20
-3.69084
11
5.78091
21
-3.68917
0
LINE
8
BLACK
6
CONTINUOUS
10
5.78091
20
-3.68917
11
5.7816
21
-3.6875
0
LINE
8
BLACK
6
CONTINUOUS
10
5.7816
20
-3.6875
11
5.78327
21
-3.68681
0
LINE
8
BLACK
6
CONTINUOUS
10
5.78327
20
-3.68681
11
5.85807
21
-3.68681
0
LINE
8
BLACK
6
CONTINUOUS
10
5.85807
20
-3.68681
11
5.85974
21
-3.6875
0
LINE
8
BLACK
6
CONTINUOUS
10
6.33474
20
-3.6875
11
6.33543
21
-3.68917
0
LINE
8
BLACK
6
CONTINUOUS
10
6.33543
20
-3.68917
11
6.33474
21
-3.69084
0
LINE
8
BLACK
6
CONTINUOUS
10
6.33474
20
-3.69084
11
6.33307
21
-3.69154
0
LINE
8
BLACK
6
CONTINUOUS
10
6.33307
20
-3.69154
11
6.27795
21
-3.69154
0
LINE
8
BLACK
6
CONTINUOUS
10
6.27795
20
-3.69154
11
6.27628
21
-3.69084
0
LINE
8
BLACK
6
CONTINUOUS
10
6.27628
20
-3.69084
11
6.27559
21
-3.68917
0
LINE
8
BLACK
6
CONTINUOUS
10
6.27559
20
-3.68917
11
6.27628
21
-3.6875
0
LINE
8
BLACK
6
CONTINUOUS
10
6.27628
20
-3.6875
11
6.27795
21
-3.68681
0
LINE
8
BLACK
6
CONTINUOUS
10
6.27795
20
-3.68681
11
6.33307
21
-3.68681
0
LINE
8
BLACK
6
CONTINUOUS
10
6.33307
20
-3.68681
11
6.33474
21
-3.6875
0
LINE
8
BLACK
6
CONTINUOUS
10
6.01027
20
-3.61161
11
6.01096
21
-3.6135
0
LINE
8
BLACK
6
CONTINUOUS
10
6.01096
20
-3.6135
11
6.01096
21
-3.6735
0
LINE
8
BLACK
6
CONTINUOUS
10
6.01096
20
-3.6735
11
6.01079
21
-3.67451
0
LINE
8
BLACK
6
CONTINUOUS
10
6.01079
20
-3.67451
11
6.00949
21
-3.67606
0
LINE
8
BLACK
6
CONTINUOUS
10
6.00949
20
-3.67606
11
6.0075
21
-3.67641
0
LINE
8
BLACK
6
CONTINUOUS
10
6.0075
20
-3.67641
11
6.00575
21
-3.6754
0
LINE
8
BLACK
6
CONTINUOUS
10
6.00575
20
-3.6754
11
6.00506
21
-3.6735
0
LINE
8
BLACK
6
CONTINUOUS
10
6.00506
20
-3.6735
11
6.00506
21
-3.6135
0
LINE
8
BLACK
6
CONTINUOUS
10
6.00506
20
-3.6135
11
6.00524
21
-3.61249
0
LINE
8
BLACK
6
CONTINUOUS
10
6.00524
20
-3.61249
11
6.00654
21
-3.61095
0
LINE
8
BLACK
6
CONTINUOUS
10
6.00654
20
-3.61095
11
6.00852
21
-3.6106
0
LINE
8
BLACK
6
CONTINUOUS
10
6.00852
20
-3.6106
11
6.01027
21
-3.61161
0
LINE
8
BLACK
6
CONTINUOUS
10
6.13027
20
-3.61161
11
6.13096
21
-3.6135
0
LINE
8
BLACK
6
CONTINUOUS
10
6.13096
20
-3.6135
11
6.13096
21
-3.6735
0
LINE
8
BLACK
6
CONTINUOUS
10
6.13096
20
-3.6735
11
6.13079
21
-3.67451
0
LINE
8
BLACK
6
CONTINUOUS
10
6.13079
20
-3.67451
11
6.12949
21
-3.67606
0
LINE
8
BLACK
6
CONTINUOUS
10
6.12949
20
-3.67606
11
6.1275
21
-3.67641
0
LINE
8
BLACK
6
CONTINUOUS
10
6.1275
20
-3.67641
11
6.12575
21
-3.6754
0
LINE
8
BLACK
6
CONTINUOUS
10
6.12575
20
-3.6754
11
6.12506
21
-3.6735
0
LINE
8
BLACK
6
CONTINUOUS
10
6.12506
20
-3.6735
11
6.12506
21
-3.6135
0
LINE
8
BLACK
6
CONTINUOUS
10
6.12506
20
-3.6135
11
6.12524
21
-3.61249
0
LINE
8
BLACK
6
CONTINUOUS
10
6.12524
20
-3.61249
11
6.12654
21
-3.61095
0
LINE
8
BLACK
6
CONTINUOUS
10
6.12654
20
-3.61095
11
6.12852
21
-3.6106
0
LINE
8
BLACK
6
CONTINUOUS
10
6.12852
20
-3.6106
11
6.13027
21
-3.61161
0
LINE
8
BLACK
6
CONTINUOUS
10
6.08468
20
-3.67183
11
6.08537
21
-3.6735
0
LINE
8
BLACK
6
CONTINUOUS
10
6.08537
20
-3.6735
11
6.08468
21
-3.67517
0
LINE
8
BLACK
6
CONTINUOUS
10
6.08468
20
-3.67517
11
6.08301
21
-3.67587
0
LINE
8
BLACK
6
CONTINUOUS
10
6.08301
20
-3.67587
11
6.05301
21
-3.67587
0
LINE
8
BLACK
6
CONTINUOUS
10
6.05301
20
-3.67587
11
6.05134
21
-3.67517
0
LINE
8
BLACK
6
CONTINUOUS
10
6.05134
20
-3.67517
11
6.05065
21
-3.6735
0
LINE
8
BLACK
6
CONTINUOUS
10
6.05065
20
-3.6735
11
6.05134
21
-3.67183
0
LINE
8
BLACK
6
CONTINUOUS
10
6.05134
20
-3.67183
11
6.05301
21
-3.67114
0
LINE
8
BLACK
6
CONTINUOUS
10
6.05301
20
-3.67114
11
6.08301
21
-3.67114
0
LINE
8
BLACK
6
CONTINUOUS
10
6.08301
20
-3.67114
11
6.08468
21
-3.67183
0
LINE
8
BLACK
6
CONTINUOUS
10
5.98652
20
-3.61823
11
5.98807
21
-3.61953
0
LINE
8
BLACK
6
CONTINUOUS
10
5.98807
20
-3.61953
11
5.98842
21
-3.62152
0
LINE
8
BLACK
6
CONTINUOUS
10
5.98842
20
-3.62152
11
5.98741
21
-3.62327
0
LINE
8
BLACK
6
CONTINUOUS
10
5.98741
20
-3.62327
11
5.98551
21
-3.62396
0
LINE
8
BLACK
6
CONTINUOUS
10
5.98551
20
-3.62396
11
5.92551
21
-3.62396
0
LINE
8
BLACK
6
CONTINUOUS
10
5.92551
20
-3.62396
11
5.9245
21
-3.62378
0
LINE
8
BLACK
6
CONTINUOUS
10
5.9245
20
-3.62378
11
5.92295
21
-3.62248
0
LINE
8
BLACK
6
CONTINUOUS
10
5.92295
20
-3.62248
11
5.9226
21
-3.62049
0
LINE
8
BLACK
6
CONTINUOUS
10
5.9226
20
-3.62049
11
5.92361
21
-3.61874
0
LINE
8
BLACK
6
CONTINUOUS
10
5.92361
20
-3.61874
11
5.92551
21
-3.61805
0
LINE
8
BLACK
6
CONTINUOUS
10
5.92551
20
-3.61805
11
5.98551
21
-3.61805
0
LINE
8
BLACK
6
CONTINUOUS
10
5.98551
20
-3.61805
11
5.98652
21
-3.61823
0
LINE
8
BLACK
6
CONTINUOUS
10
6.21152
20
-3.61823
11
6.21307
21
-3.61953
0
LINE
8
BLACK
6
CONTINUOUS
10
6.21307
20
-3.61953
11
6.21342
21
-3.62152
0
LINE
8
BLACK
6
CONTINUOUS
10
6.21342
20
-3.62152
11
6.21241
21
-3.62327
0
LINE
8
BLACK
6
CONTINUOUS
10
6.21241
20
-3.62327
11
6.21051
21
-3.62396
0
LINE
8
BLACK
6
CONTINUOUS
10
6.21051
20
-3.62396
11
6.15051
21
-3.62396
0
LINE
8
BLACK
6
CONTINUOUS
10
6.15051
20
-3.62396
11
6.1495
21
-3.62378
0
LINE
8
BLACK
6
CONTINUOUS
10
6.1495
20
-3.62378
11
6.14795
21
-3.62248
0
LINE
8
BLACK
6
CONTINUOUS
10
6.14795
20
-3.62248
11
6.1476
21
-3.62049
0
LINE
8
BLACK
6
CONTINUOUS
10
6.1476
20
-3.62049
11
6.14861
21
-3.61874
0
LINE
8
BLACK
6
CONTINUOUS
10
6.14861
20
-3.61874
11
6.15051
21
-3.61805
0
LINE
8
BLACK
6
CONTINUOUS
10
6.15051
20
-3.61805
11
6.21051
21
-3.61805
0
LINE
8
BLACK
6
CONTINUOUS
10
6.21051
20
-3.61805
11
6.21152
21
-3.61823
0
LINE
8
BLACK
6
CONTINUOUS
10
6.08468
20
-3.61183
11
6.08537
21
-3.6135
0
LINE
8
BLACK
6
CONTINUOUS
10
6.08537
20
-3.6135
11
6.08468
21
-3.61517
0
LINE
8
BLACK
6
CONTINUOUS
10
6.08468
20
-3.61517
11
6.08301
21
-3.61587
0
LINE
8
BLACK
6
CONTINUOUS
10
6.08301
20
-3.61587
11
6.05301
21
-3.61587
0
LINE
8
BLACK
6
CONTINUOUS
10
6.05301
20
-3.61587
11
6.05134
21
-3.61517
0
LINE
8
BLACK
6
CONTINUOUS
10
6.05134
20
-3.61517
11
6.05065
21
-3.6135
0
LINE
8
BLACK
6
CONTINUOUS
10
6.05065
20
-3.6135
11
6.05134
21
-3.61183
0
LINE
8
BLACK
6
CONTINUOUS
10
6.05134
20
-3.61183
11
6.05301
21
-3.61114
0
LINE
8
BLACK
6
CONTINUOUS
10
6.05301
20
-3.61114
11
6.08301
21
-3.61114
0
LINE
8
BLACK
6
CONTINUOUS
10
6.08301
20
-3.61114
11
6.08468
21
-3.61183
0
LINE
8
BLACK
6
CONTINUOUS
10
5.85974
20
-3.59616
11
5.86043
21
-3.59783
0
LINE
8
BLACK
6
CONTINUOUS
10
5.86043
20
-3.59783
11
5.85974
21
-3.5995
0
LINE
8
BLACK
6
CONTINUOUS
10
5.85974
20
-3.5995
11
5.85807
21
-3.6002
0
LINE
8
BLACK
6
CONTINUOUS
10
5.85807
20
-3.6002
11
5.80295
21
-3.6002
0
LINE
8
BLACK
6
CONTINUOUS
10
5.80295
20
-3.6002
11
5.80128
21
-3.5995
0
LINE
8
BLACK
6
CONTINUOUS
10
5.80128
20
-3.5995
11
5.80059
21
-3.59783
0
LINE
8
BLACK
6
CONTINUOUS
10
5.80059
20
-3.59783
11
5.80128
21
-3.59616
0
LINE
8
BLACK
6
CONTINUOUS
10
5.80128
20
-3.59616
11
5.80295
21
-3.59547
0
LINE
8
BLACK
6
CONTINUOUS
10
5.80295
20
-3.59547
11
5.85807
21
-3.59547
0
LINE
8
BLACK
6
CONTINUOUS
10
5.85807
20
-3.59547
11
5.85974
21
-3.59616
0
LINE
8
BLACK
6
CONTINUOUS
10
6.35443
20
-3.59616
11
6.35512
21
-3.59783
0
LINE
8
BLACK
6
CONTINUOUS
10
6.35512
20
-3.59783
11
6.35443
21
-3.5995
0
LINE
8
BLACK
6
CONTINUOUS
10
6.35443
20
-3.5995
11
6.35276
21
-3.6002
0
LINE
8
BLACK
6
CONTINUOUS
10
6.35276
20
-3.6002
11
6.27795
21
-3.6002
0
LINE
8
BLACK
6
CONTINUOUS
10
6.27795
20
-3.6002
11
6.27628
21
-3.5995
0
LINE
8
BLACK
6
CONTINUOUS
10
6.27628
20
-3.5995
11
6.27559
21
-3.59783
0
LINE
8
BLACK
6
CONTINUOUS
10
6.27559
20
-3.59783
11
6.27628
21
-3.59616
0
LINE
8
BLACK
6
CONTINUOUS
10
6.27628
20
-3.59616
11
6.27795
21
-3.59547
0
LINE
8
BLACK
6
CONTINUOUS
10
6.27795
20
-3.59547
11
6.35276
21
-3.59547
0
LINE
8
BLACK
6
CONTINUOUS
10
6.35276
20
-3.59547
11
6.35443
21
-3.59616
0
LINE
8
BLACK
6
CONTINUOUS
10
5.91877
20
-3.54014
11
5.91946
21
-3.54204
0
LINE
8
BLACK
6
CONTINUOUS
10
5.91946
20
-3.54204
11
5.91946
21
-3.57391
0
LINE
8
BLACK
6
CONTINUOUS
10
5.91946
20
-3.57391
11
5.91928
21
-3.57492
0
LINE
8
BLACK
6
CONTINUOUS
10
5.91928
20
-3.57492
11
5.91917
21
-3.57506
0
LINE
8
BLACK
6
CONTINUOUS
10
5.91917
20
-3.57506
11
5.91915
21
-3.57523
0
LINE
8
BLACK
6
CONTINUOUS
10
5.91915
20
-3.57523
11
5.91727
21
-3.57898
0
LINE
8
BLACK
6
CONTINUOUS
10
5.91727
20
-3.57898
11
5.91675
21
-3.57969
0
LINE
8
BLACK
6
CONTINUOUS
10
5.91675
20
-3.57969
11
5.91672
21
-3.57975
0
LINE
8
BLACK
6
CONTINUOUS
10
5.91672
20
-3.57975
11
5.91485
21
-3.58162
0
LINE
8
BLACK
6
CONTINUOUS
10
5.91485
20
-3.58162
11
5.91412
21
-3.58213
0
LINE
8
BLACK
6
CONTINUOUS
10
5.91412
20
-3.58213
11
5.91408
21
-3.58218
0
LINE
8
BLACK
6
CONTINUOUS
10
5.91408
20
-3.58218
11
5.91033
21
-3.58405
0
LINE
8
BLACK
6
CONTINUOUS
10
5.91033
20
-3.58405
11
5.90935
21
-3.58434
0
LINE
8
BLACK
6
CONTINUOUS
10
5.90935
20
-3.58434
11
5.90917
21
-3.5843
0
LINE
8
BLACK
6
CONTINUOUS
10
5.90917
20
-3.5843
11
5.90901
21
-3.58436
0
LINE
8
BLACK
6
CONTINUOUS
10
5.90901
20
-3.58436
11
5.90151
21
-3.58436
0
LINE
8
BLACK
6
CONTINUOUS
10
5.90151
20
-3.58436
11
5.9005
21
-3.58418
0
LINE
8
BLACK
6
CONTINUOUS
10
5.9005
20
-3.58418
11
5.90036
21
-3.58407
0
LINE
8
BLACK
6
CONTINUOUS
10
5.90036
20
-3.58407
11
5.90019
21
-3.58405
0
LINE
8
BLACK
6
CONTINUOUS
10
5.90019
20
-3.58405
11
5.89644
21
-3.58218
0
LINE
8
BLACK
6
CONTINUOUS
10
5.89644
20
-3.58218
11
5.89573
21
-3.58165
0
LINE
8
BLACK
6
CONTINUOUS
10
5.89573
20
-3.58165
11
5.89567
21
-3.58162
0
LINE
8
BLACK
6
CONTINUOUS
10
5.89567
20
-3.58162
11
5.8938
21
-3.57975
0
LINE
8
BLACK
6
CONTINUOUS
10
5.8938
20
-3.57975
11
5.89329
21
-3.57903
0
LINE
8
BLACK
6
CONTINUOUS
10
5.89329
20
-3.57903
11
5.89324
21
-3.57898
0
LINE
8
BLACK
6
CONTINUOUS
10
5.89324
20
-3.57898
11
5.89137
21
-3.57523
0
LINE
8
BLACK
6
CONTINUOUS
10
5.89137
20
-3.57523
11
5.89108
21
-3.57425
0
LINE
8
BLACK
6
CONTINUOUS
10
5.89108
20
-3.57425
11
5.89112
21
-3.57408
0
LINE
8
BLACK
6
CONTINUOUS
10
5.89112
20
-3.57408
11
5.89106
21
-3.57391
0
LINE
8
BLACK
6
CONTINUOUS
10
5.89106
20
-3.57391
11
5.89106
21
-3.54204
0
LINE
8
BLACK
6
CONTINUOUS
10
5.89106
20
-3.54204
11
5.89124
21
-3.54103
0
LINE
8
BLACK
6
CONTINUOUS
10
5.89124
20
-3.54103
11
5.89253
21
-3.53948
0
LINE
8
BLACK
6
CONTINUOUS
10
5.89253
20
-3.53948
11
5.89452
21
-3.53913
0
LINE
8
BLACK
6
CONTINUOUS
10
5.89452
20
-3.53913
11
5.89627
21
-3.54014
0
LINE
8
BLACK
6
CONTINUOUS
10
5.89627
20
-3.54014
11
5.89696
21
-3.54204
0
LINE
8
BLACK
6
CONTINUOUS
10
5.89696
20
-3.54204
11
5.89696
21
-3.57321
0
LINE
8
BLACK
6
CONTINUOUS
10
5.89696
20
-3.57321
11
5.89831
21
-3.57591
0
LINE
8
BLACK
6
CONTINUOUS
10
5.89831
20
-3.57591
11
5.89951
21
-3.57711
0
LINE
8
BLACK
6
CONTINUOUS
10
5.89951
20
-3.57711
11
5.90221
21
-3.57846
0
LINE
8
BLACK
6
CONTINUOUS
10
5.90221
20
-3.57846
11
5.90831
21
-3.57846
0
LINE
8
BLACK
6
CONTINUOUS
10
5.90831
20
-3.57846
11
5.91101
21
-3.57711
0
LINE
8
BLACK
6
CONTINUOUS
10
5.91101
20
-3.57711
11
5.91221
21
-3.57591
0
LINE
8
BLACK
6
CONTINUOUS
10
5.91221
20
-3.57591
11
5.91356
21
-3.57321
0
LINE
8
BLACK
6
CONTINUOUS
10
5.91356
20
-3.57321
11
5.91356
21
-3.54204
0
LINE
8
BLACK
6
CONTINUOUS
10
5.91356
20
-3.54204
11
5.91373
21
-3.54103
0
LINE
8
BLACK
6
CONTINUOUS
10
5.91373
20
-3.54103
11
5.91503
21
-3.53948
0
LINE
8
BLACK
6
CONTINUOUS
10
5.91503
20
-3.53948
11
5.91702
21
-3.53913
0
LINE
8
BLACK
6
CONTINUOUS
10
5.91702
20
-3.53913
11
5.91877
21
-3.54014
0
LINE
8
BLACK
6
CONTINUOUS
10
6.21852
20
-3.53927
11
6.21866
21
-3.53938
0
LINE
8
BLACK
6
CONTINUOUS
10
6.21866
20
-3.53938
11
6.21883
21
-3.5394
0
LINE
8
BLACK
6
CONTINUOUS
10
6.21883
20
-3.5394
11
6.22258
21
-3.54127
0
LINE
8
BLACK
6
CONTINUOUS
10
6.22258
20
-3.54127
11
6.22329
21
-3.5418
0
LINE
8
BLACK
6
CONTINUOUS
10
6.22329
20
-3.5418
11
6.22335
21
-3.54183
0
LINE
8
BLACK
6
CONTINUOUS
10
6.22335
20
-3.54183
11
6.22523
21
-3.5437
0
LINE
8
BLACK
6
CONTINUOUS
10
6.22523
20
-3.5437
11
6.22581
21
-3.54454
0
LINE
8
BLACK
6
CONTINUOUS
10
6.22581
20
-3.54454
11
6.22599
21
-3.54655
0
LINE
8
BLACK
6
CONTINUOUS
10
6.22599
20
-3.54655
11
6.22483
21
-3.54821
0
LINE
8
BLACK
6
CONTINUOUS
10
6.22483
20
-3.54821
11
6.22288
21
-3.54873
0
LINE
8
BLACK
6
CONTINUOUS
10
6.22288
20
-3.54873
11
6.22105
21
-3.54788
0
LINE
8
BLACK
6
CONTINUOUS
10
6.22105
20
-3.54788
11
6.21951
21
-3.54634
0
LINE
8
BLACK
6
CONTINUOUS
10
6.21951
20
-3.54634
11
6.21682
21
-3.54499
0
LINE
8
BLACK
6
CONTINUOUS
10
6.21682
20
-3.54499
11
6.20884
21
-3.54499
0
LINE
8
BLACK
6
CONTINUOUS
10
6.20884
20
-3.54499
11
6.20614
21
-3.54634
0
LINE
8
BLACK
6
CONTINUOUS
10
6.20614
20
-3.54634
11
6.20494
21
-3.54754
0
LINE
8
BLACK
6
CONTINUOUS
10
6.20494
20
-3.54754
11
6.20359
21
-3.55024
0
LINE
8
BLACK
6
CONTINUOUS
10
6.20359
20
-3.55024
11
6.20359
21
-3.55281
0
LINE
8
BLACK
6
CONTINUOUS
10
6.20359
20
-3.55281
11
6.2051
21
-3.55732
0
LINE
8
BLACK
6
CONTINUOUS
10
6.2051
20
-3.55732
11
6.2271
21
-3.57932
0
LINE
8
BLACK
6
CONTINUOUS
10
6.2271
20
-3.57932
11
6.22747
21
-3.57985
0
LINE
8
BLACK
6
CONTINUOUS
10
6.22747
20
-3.57985
11
6.22757
21
-3.57993
0
LINE
8
BLACK
6
CONTINUOUS
10
6.22757
20
-3.57993
11
6.22758
21
-3.58001
0
LINE
8
BLACK
6
CONTINUOUS
10
6.22758
20
-3.58001
11
6.22769
21
-3.58016
0
LINE
8
BLACK
6
CONTINUOUS
10
6.22769
20
-3.58016
11
6.22777
21
-3.58105
0
LINE
8
BLACK
6
CONTINUOUS
10
6.22777
20
-3.58105
11
6.22792
21
-3.58192
0
LINE
8
BLACK
6
CONTINUOUS
10
6.22792
20
-3.58192
11
6.22785
21
-3.58204
0
LINE
8
BLACK
6
CONTINUOUS
10
6.22785
20
-3.58204
11
6.22786
21
-3.58217
0
LINE
8
BLACK
6
CONTINUOUS
10
6.22786
20
-3.58217
11
6.22736
21
-3.5829
0
LINE
8
BLACK
6
CONTINUOUS
10
6.22736
20
-3.5829
11
6.22691
21
-3.58367
0
LINE
8
BLACK
6
CONTINUOUS
10
6.22691
20
-3.58367
11
6.22678
21
-3.58372
0
LINE
8
BLACK
6
CONTINUOUS
10
6.22678
20
-3.58372
11
6.22671
21
-3.58383
0
LINE
8
BLACK
6
CONTINUOUS
10
6.22671
20
-3.58383
11
6.22585
21
-3.58406
0
LINE
8
BLACK
6
CONTINUOUS
10
6.22585
20
-3.58406
11
6.22501
21
-3.58436
0
LINE
8
BLACK
6
CONTINUOUS
10
6.22501
20
-3.58436
11
6.20064
21
-3.58436
0
LINE
8
BLACK
6
CONTINUOUS
10
6.20064
20
-3.58436
11
6.19963
21
-3.58418
0
LINE
8
BLACK
6
CONTINUOUS
10
6.19963
20
-3.58418
11
6.19808
21
-3.58289
0
LINE
8
BLACK
6
CONTINUOUS
10
6.19808
20
-3.58289
11
6.19773
21
-3.5809
0
LINE
8
BLACK
6
CONTINUOUS
10
6.19773
20
-3.5809
11
6.19874
21
-3.57915
0
LINE
8
BLACK
6
CONTINUOUS
10
6.19874
20
-3.57915
11
6.20064
21
-3.57846
0
LINE
8
BLACK
6
CONTINUOUS
10
6.20064
20
-3.57846
11
6.21788
21
-3.57846
0
LINE
8
BLACK
6
CONTINUOUS
10
6.21788
20
-3.57846
11
6.20043
21
-3.561
0
LINE
8
BLACK
6
CONTINUOUS
10
6.20043
20
-3.561
11
6.19984
21
-3.56016
0
LINE
8
BLACK
6
CONTINUOUS
10
6.19984
20
-3.56016
11
6.19982
21
-3.55998
0
LINE
8
BLACK
6
CONTINUOUS
10
6.19982
20
-3.55998
11
6.19971
21
-3.55985
0
LINE
8
BLACK
6
CONTINUOUS
10
6.19971
20
-3.55985
11
6.19784
21
-3.55422
0
LINE
8
BLACK
6
CONTINUOUS
10
6.19784
20
-3.55422
11
6.19771
21
-3.55335
0
LINE
8
BLACK
6
CONTINUOUS
10
6.19771
20
-3.55335
11
6.19769
21
-3.55329
0
LINE
8
BLACK
6
CONTINUOUS
10
6.19769
20
-3.55329
11
6.19769
21
-3.54954
0
LINE
8
BLACK
6
CONTINUOUS
10
6.19769
20
-3.54954
11
6.19787
21
-3.54853
0
LINE
8
BLACK
6
CONTINUOUS
10
6.19787
20
-3.54853
11
6.19798
21
-3.54839
0
LINE
8
BLACK
6
CONTINUOUS
10
6.19798
20
-3.54839
11
6.198
21
-3.54822
0
LINE
8
BLACK
6
CONTINUOUS
10
6.198
20
-3.54822
11
6.19987
21
-3.54447
0
LINE
8
BLACK
6
CONTINUOUS
10
6.19987
20
-3.54447
11
6.2004
21
-3.54376
0
LINE
8
BLACK
6
CONTINUOUS
10
6.2004
20
-3.54376
11
6.20043
21
-3.5437
0
LINE
8
BLACK
6
CONTINUOUS
10
6.20043
20
-3.5437
11
6.2023
21
-3.54183
0
LINE
8
BLACK
6
CONTINUOUS
10
6.2023
20
-3.54183
11
6.20303
21
-3.54132
0
LINE
8
BLACK
6
CONTINUOUS
10
6.20303
20
-3.54132
11
6.20307
21
-3.54127
0
LINE
8
BLACK
6
CONTINUOUS
10
6.20307
20
-3.54127
11
6.20682
21
-3.5394
0
LINE
8
BLACK
6
CONTINUOUS
10
6.20682
20
-3.5394
11
6.2078
21
-3.53911
0
LINE
8
BLACK
6
CONTINUOUS
10
6.2078
20
-3.53911
11
6.20797
21
-3.53915
0
LINE
8
BLACK
6
CONTINUOUS
10
6.20797
20
-3.53915
11
6.20814
21
-3.53909
0
LINE
8
BLACK
6
CONTINUOUS
10
6.20814
20
-3.53909
11
6.21751
21
-3.53909
0
LINE
8
BLACK
6
CONTINUOUS
10
6.21751
20
-3.53909
11
6.21852
21
-3.53927
0
LINE
8
BLACK
6
CONTINUOUS
10
6.26477
20
-3.54014
11
6.26546
21
-3.54204
0
LINE
8
BLACK
6
CONTINUOUS
10
6.26546
20
-3.54204
11
6.26546
21
-3.57391
0
LINE
8
BLACK
6
CONTINUOUS
10
6.26546
20
-3.57391
11
6.26528
21
-3.57492
0
LINE
8
BLACK
6
CONTINUOUS
10
6.26528
20
-3.57492
11
6.26517
21
-3.57506
0
LINE
8
BLACK
6
CONTINUOUS
10
6.26517
20
-3.57506
11
6.26515
21
-3.57523
0
LINE
8
BLACK
6
CONTINUOUS
10
6.26515
20
-3.57523
11
6.26327
21
-3.57898
0
LINE
8
BLACK
6
CONTINUOUS
10
6.26327
20
-3.57898
11
6.26275
21
-3.57969
0
LINE
8
BLACK
6
CONTINUOUS
10
6.26275
20
-3.57969
11
6.26272
21
-3.57975
0
LINE
8
BLACK
6
CONTINUOUS
10
6.26272
20
-3.57975
11
6.26085
21
-3.58162
0
LINE
8
BLACK
6
CONTINUOUS
10
6.26085
20
-3.58162
11
6.26012
21
-3.58213
0
LINE
8
BLACK
6
CONTINUOUS
10
6.26012
20
-3.58213
11
6.26008
21
-3.58218
0
LINE
8
BLACK
6
CONTINUOUS
10
6.26008
20
-3.58218
11
6.25633
21
-3.58405
0
LINE
8
BLACK
6
CONTINUOUS
10
6.25633
20
-3.58405
11
6.25535
21
-3.58434
0
LINE
8
BLACK
6
CONTINUOUS
10
6.25535
20
-3.58434
11
6.25517
21
-3.5843
0
LINE
8
BLACK
6
CONTINUOUS
10
6.25517
20
-3.5843
11
6.25501
21
-3.58436
0
LINE
8
BLACK
6
CONTINUOUS
10
6.25501
20
-3.58436
11
6.24751
21
-3.58436
0
LINE
8
BLACK
6
CONTINUOUS
10
6.24751
20
-3.58436
11
6.2465
21
-3.58418
0
LINE
8
BLACK
6
CONTINUOUS
10
6.2465
20
-3.58418
11
6.24636
21
-3.58407
0
LINE
8
BLACK
6
CONTINUOUS
10
6.24636
20
-3.58407
11
6.24619
21
-3.58405
0
LINE
8
BLACK
6
CONTINUOUS
10
6.24619
20
-3.58405
11
6.24244
21
-3.58218
0
LINE
8
BLACK
6
CONTINUOUS
10
6.24244
20
-3.58218
11
6.24173
21
-3.58165
0
LINE
8
BLACK
6
CONTINUOUS
10
6.24173
20
-3.58165
11
6.24167
21
-3.58162
0
LINE
8
BLACK
6
CONTINUOUS
10
6.24167
20
-3.58162
11
6.2398
21
-3.57975
0
LINE
8
BLACK
6
CONTINUOUS
10
6.2398
20
-3.57975
11
6.23929
21
-3.57903
0
LINE
8
BLACK
6
CONTINUOUS
10
6.23929
20
-3.57903
11
6.23924
21
-3.57898
0
LINE
8
BLACK
6
CONTINUOUS
10
6.23924
20
-3.57898
11
6.23737
21
-3.57523
0
LINE
8
BLACK
6
CONTINUOUS
10
6.23737
20
-3.57523
11
6.23708
21
-3.57425
0
LINE
8
BLACK
6
CONTINUOUS
10
6.23708
20
-3.57425
11
6.23712
21
-3.57408
0
LINE
8
BLACK
6
CONTINUOUS
10
6.23712
20
-3.57408
11
6.23706
21
-3.57391
0
LINE
8
BLACK
6
CONTINUOUS
10
6.23706
20
-3.57391
11
6.23706
21
-3.54204
0
LINE
8
BLACK
6
CONTINUOUS
10
6.23706
20
-3.54204
11
6.23724
21
-3.54103
0
LINE
8
BLACK
6
CONTINUOUS
10
6.23724
20
-3.54103
11
6.23853
21
-3.53948
0
LINE
8
BLACK
6
CONTINUOUS
10
6.23853
20
-3.53948
11
6.24052
21
-3.53913
0
LINE
8
BLACK
6
CONTINUOUS
10
6.24052
20
-3.53913
11
6.24227
21
-3.54014
0
LINE
8
BLACK
6
CONTINUOUS
10
6.24227
20
-3.54014
11
6.24296
21
-3.54204
0
LINE
8
BLACK
6
CONTINUOUS
10
6.24296
20
-3.54204
11
6.24296
21
-3.57321
0
LINE
8
BLACK
6
CONTINUOUS
10
6.24296
20
-3.57321
11
6.24431
21
-3.57591
0
LINE
8
BLACK
6
CONTINUOUS
10
6.24431
20
-3.57591
11
6.24551
21
-3.57711
0
LINE
8
BLACK
6
CONTINUOUS
10
6.24551
20
-3.57711
11
6.24821
21
-3.57846
0
LINE
8
BLACK
6
CONTINUOUS
10
6.24821
20
-3.57846
11
6.25431
21
-3.57846
0
LINE
8
BLACK
6
CONTINUOUS
10
6.25431
20
-3.57846
11
6.25701
21
-3.57711
0
LINE
8
BLACK
6
CONTINUOUS
10
6.25701
20
-3.57711
11
6.25821
21
-3.57591
0
LINE
8
BLACK
6
CONTINUOUS
10
6.25821
20
-3.57591
11
6.25956
21
-3.57321
0
LINE
8
BLACK
6
CONTINUOUS
10
6.25956
20
-3.57321
11
6.25956
21
-3.54204
0
LINE
8
BLACK
6
CONTINUOUS
10
6.25956
20
-3.54204
11
6.25973
21
-3.54103
0
LINE
8
BLACK
6
CONTINUOUS
10
6.25973
20
-3.54103
11
6.26103
21
-3.53948
0
LINE
8
BLACK
6
CONTINUOUS
10
6.26103
20
-3.53948
11
6.26302
21
-3.53913
0
LINE
8
BLACK
6
CONTINUOUS
10
6.26302
20
-3.53913
11
6.26477
21
-3.54014
0
LINE
8
BLACK
6
CONTINUOUS
10
5.86931
20
-3.53765
11
5.87057
21
-3.53923
0
LINE
8
BLACK
6
CONTINUOUS
10
5.87057
20
-3.53923
11
5.87994
21
-3.56735
0
LINE
8
BLACK
6
CONTINUOUS
10
5.87994
20
-3.56735
11
5.88009
21
-3.56837
0
LINE
8
BLACK
6
CONTINUOUS
10
5.88009
20
-3.56837
11
5.88001
21
-3.56858
0
LINE
8
BLACK
6
CONTINUOUS
10
5.88001
20
-3.56858
11
5.88005
21
-3.5688
0
LINE
8
BLACK
6
CONTINUOUS
10
5.88005
20
-3.5688
11
5.87964
21
-3.5695
0
LINE
8
BLACK
6
CONTINUOUS
10
5.87964
20
-3.5695
11
5.87935
21
-3.57025
0
LINE
8
BLACK
6
CONTINUOUS
10
5.87935
20
-3.57025
11
5.87915
21
-3.57035
0
LINE
8
BLACK
6
CONTINUOUS
10
5.87915
20
-3.57035
11
5.87904
21
-3.57055
0
LINE
8
BLACK
6
CONTINUOUS
10
5.87904
20
-3.57055
11
5.87828
21
-3.57082
0
LINE
8
BLACK
6
CONTINUOUS
10
5.87828
20
-3.57082
11
5.87757
21
-3.57121
0
LINE
8
BLACK
6
CONTINUOUS
10
5.87757
20
-3.57121
11
5.87735
21
-3.57116
0
LINE
8
BLACK
6
CONTINUOUS
10
5.87735
20
-3.57116
11
5.87714
21
-3.57124
0
LINE
8
BLACK
6
CONTINUOUS
10
5.87714
20
-3.57124
11
5.86134
21
-3.57124
0
LINE
8
BLACK
6
CONTINUOUS
10
5.86134
20
-3.57124
11
5.86134
21
-3.58141
0
LINE
8
BLACK
6
CONTINUOUS
10
5.86134
20
-3.58141
11
5.86116
21
-3.58242
0
LINE
8
BLACK
6
CONTINUOUS
10
5.86116
20
-3.58242
11
5.85987
21
-3.58397
0
LINE
8
BLACK
6
CONTINUOUS
10
5.85987
20
-3.58397
11
5.85788
21
-3.58432
0
LINE
8
BLACK
6
CONTINUOUS
10
5.85788
20
-3.58432
11
5.85613
21
-3.58331
0
LINE
8
BLACK
6
CONTINUOUS
10
5.85613
20
-3.58331
11
5.85544
21
-3.58141
0
LINE
8
BLACK
6
CONTINUOUS
10
5.85544
20
-3.58141
11
5.85544
21
-3.57124
0
LINE
8
BLACK
6
CONTINUOUS
10
5.85544
20
-3.57124
11
5.85277
21
-3.57124
0
LINE
8
BLACK
6
CONTINUOUS
10
5.85277
20
-3.57124
11
5.85176
21
-3.57106
0
LINE
8
BLACK
6
CONTINUOUS
10
5.85176
20
-3.57106
11
5.85021
21
-3.56976
0
LINE
8
BLACK
6
CONTINUOUS
10
5.85021
20
-3.56976
11
5.84986
21
-3.56777
0
LINE
8
BLACK
6
CONTINUOUS
10
5.84986
20
-3.56777
11
5.85087
21
-3.56602
0
LINE
8
BLACK
6
CONTINUOUS
10
5.85087
20
-3.56602
11
5.85277
21
-3.56533
0
LINE
8
BLACK
6
CONTINUOUS
10
5.85277
20
-3.56533
11
5.85544
21
-3.56533
0
LINE
8
BLACK
6
CONTINUOUS
10
5.85544
20
-3.56533
11
5.85544
21
-3.55516
0
LINE
8
BLACK
6
CONTINUOUS
10
5.85544
20
-3.55516
11
5.85562
21
-3.55415
0
LINE
8
BLACK
6
CONTINUOUS
10
5.85562
20
-3.55415
11
5.85691
21
-3.55261
0
LINE
8
BLACK
6
CONTINUOUS
10
5.85691
20
-3.55261
11
5.8589
21
-3.55226
0
LINE
8
BLACK
6
CONTINUOUS
10
5.8589
20
-3.55226
11
5.86065
21
-3.55327
0
LINE
8
BLACK
6
CONTINUOUS
10
5.86065
20
-3.55327
11
5.86134
21
-3.55516
0
LINE
8
BLACK
6
CONTINUOUS
10
5.86134
20
-3.55516
11
5.86134
21
-3.56533
0
LINE
8
BLACK
6
CONTINUOUS
10
5.86134
20
-3.56533
11
5.87304
21
-3.56533
0
LINE
8
BLACK
6
CONTINUOUS
10
5.87304
20
-3.56533
11
5.86496
21
-3.5411
0
LINE
8
BLACK
6
CONTINUOUS
10
5.86496
20
-3.5411
11
5.86481
21
-3.54008
0
LINE
8
BLACK
6
CONTINUOUS
10
5.86481
20
-3.54008
11
5.86555
21
-3.53821
0
LINE
8
BLACK
6
CONTINUOUS
10
5.86555
20
-3.53821
11
5.86733
21
-3.53724
0
LINE
8
BLACK
6
CONTINUOUS
10
5.86733
20
-3.53724
11
5.86931
21
-3.53765
0
LINE
8
BLACK
6
CONTINUOUS
10
6.37176
20
-3.56602
11
6.3733
21
-3.56732
0
LINE
8
BLACK
6
CONTINUOUS
10
6.3733
20
-3.56732
11
6.37366
21
-3.56931
0
LINE
8
BLACK
6
CONTINUOUS
10
6.37366
20
-3.56931
11
6.37265
21
-3.57105
0
LINE
8
BLACK
6
CONTINUOUS
10
6.37265
20
-3.57105
11
6.37075
21
-3.57175
0
LINE
8
BLACK
6
CONTINUOUS
10
6.37075
20
-3.57175
11
6.31075
21
-3.57175
0
LINE
8
BLACK
6
CONTINUOUS
10
6.31075
20
-3.57175
11
6.30974
21
-3.57157
0
LINE
8
BLACK
6
CONTINUOUS
10
6.30974
20
-3.57157
11
6.30819
21
-3.57027
0
LINE
8
BLACK
6
CONTINUOUS
10
6.30819
20
-3.57027
11
6.30784
21
-3.56828
0
LINE
8
BLACK
6
CONTINUOUS
10
6.30784
20
-3.56828
11
6.30885
21
-3.56653
0
LINE
8
BLACK
6
CONTINUOUS
10
6.30885
20
-3.56653
11
6.31075
21
-3.56584
0
LINE
8
BLACK
6
CONTINUOUS
10
6.31075
20
-3.56584
11
6.37075
21
-3.56584
0
LINE
8
BLACK
6
CONTINUOUS
10
6.37075
20
-3.56584
11
6.37176
21
-3.56602
0
LINE
8
BLACK
6
CONTINUOUS
10
6.31242
20
-3.49212
11
6.31311
21
-3.49379
0
LINE
8
BLACK
6
CONTINUOUS
10
6.31311
20
-3.49379
11
6.31311
21
-3.52379
0
LINE
8
BLACK
6
CONTINUOUS
10
6.31311
20
-3.52379
11
6.31242
21
-3.52546
0
LINE
8
BLACK
6
CONTINUOUS
10
6.31242
20
-3.52546
11
6.31075
21
-3.52615
0
LINE
8
BLACK
6
CONTINUOUS
10
6.31075
20
-3.52615
11
6.30908
21
-3.52546
0
LINE
8
BLACK
6
CONTINUOUS
10
6.30908
20
-3.52546
11
6.30839
21
-3.52379
0
LINE
8
BLACK
6
CONTINUOUS
10
6.30839
20
-3.52379
11
6.30839
21
-3.49379
0
LINE
8
BLACK
6
CONTINUOUS
10
6.30839
20
-3.49379
11
6.30908
21
-3.49212
0
LINE
8
BLACK
6
CONTINUOUS
10
6.30908
20
-3.49212
11
6.31075
21
-3.49143
0
LINE
8
BLACK
6
CONTINUOUS
10
6.31075
20
-3.49143
11
6.31242
21
-3.49212
0
LINE
8
BLACK
6
CONTINUOUS
10
6.37242
20
-3.49212
11
6.37311
21
-3.49379
0
LINE
8
BLACK
6
CONTINUOUS
10
6.37311
20
-3.49379
11
6.37311
21
-3.52379
0
LINE
8
BLACK
6
CONTINUOUS
10
6.37311
20
-3.52379
11
6.37242
21
-3.52546
0
LINE
8
BLACK
6
CONTINUOUS
10
6.37242
20
-3.52546
11
6.37075
21
-3.52615
0
LINE
8
BLACK
6
CONTINUOUS
10
6.37075
20
-3.52615
11
6.36908
21
-3.52546
0
LINE
8
BLACK
6
CONTINUOUS
10
6.36908
20
-3.52546
11
6.36839
21
-3.52379
0
LINE
8
BLACK
6
CONTINUOUS
10
6.36839
20
-3.52379
11
6.36839
21
-3.49379
0
LINE
8
BLACK
6
CONTINUOUS
10
6.36839
20
-3.49379
11
6.36908
21
-3.49212
0
LINE
8
BLACK
6
CONTINUOUS
10
6.36908
20
-3.49212
11
6.37075
21
-3.49143
0
LINE
8
BLACK
6
CONTINUOUS
10
6.37075
20
-3.49143
11
6.37242
21
-3.49212
0
LINE
8
BLACK
6
CONTINUOUS
10
6.37176
20
-3.44602
11
6.3733
21
-3.44732
0
LINE
8
BLACK
6
CONTINUOUS
10
6.3733
20
-3.44732
11
6.37366
21
-3.44931
0
LINE
8
BLACK
6
CONTINUOUS
10
6.37366
20
-3.44931
11
6.37265
21
-3.45105
0
LINE
8
BLACK
6
CONTINUOUS
10
6.37265
20
-3.45105
11
6.37075
21
-3.45175
0
LINE
8
BLACK
6
CONTINUOUS
10
6.37075
20
-3.45175
11
6.31075
21
-3.45175
0
LINE
8
BLACK
6
CONTINUOUS
10
6.31075
20
-3.45175
11
6.30974
21
-3.45157
0
LINE
8
BLACK
6
CONTINUOUS
10
6.30974
20
-3.45157
11
6.30819
21
-3.45027
0
LINE
8
BLACK
6
CONTINUOUS
10
6.30819
20
-3.45027
11
6.30784
21
-3.44828
0
LINE
8
BLACK
6
CONTINUOUS
10
6.30784
20
-3.44828
11
6.30885
21
-3.44653
0
LINE
8
BLACK
6
CONTINUOUS
10
6.30885
20
-3.44653
11
6.31075
21
-3.44584
0
LINE
8
BLACK
6
CONTINUOUS
10
6.31075
20
-3.44584
11
6.37075
21
-3.44584
0
LINE
8
BLACK
6
CONTINUOUS
10
6.37075
20
-3.44584
11
6.37176
21
-3.44602
0
LINE
8
BLACK
6
CONTINUOUS
10
6.45509
20
-3.43823
11
6.45664
21
-3.43953
0
LINE
8
BLACK
6
CONTINUOUS
10
6.45664
20
-3.43953
11
6.45699
21
-3.44152
0
LINE
8
BLACK
6
CONTINUOUS
10
6.45699
20
-3.44152
11
6.45598
21
-3.44327
0
LINE
8
BLACK
6
CONTINUOUS
10
6.45598
20
-3.44327
11
6.45408
21
-3.44396
0
LINE
8
BLACK
6
CONTINUOUS
10
6.45408
20
-3.44396
11
6.39408
21
-3.44396
0
LINE
8
BLACK
6
CONTINUOUS
10
6.39408
20
-3.44396
11
6.39307
21
-3.44378
0
LINE
8
BLACK
6
CONTINUOUS
10
6.39307
20
-3.44378
11
6.39152
21
-3.44248
0
LINE
8
BLACK
6
CONTINUOUS
10
6.39152
20
-3.44248
11
6.39117
21
-3.44049
0
LINE
8
BLACK
6
CONTINUOUS
10
6.39117
20
-3.44049
11
6.39218
21
-3.43874
0
LINE
8
BLACK
6
CONTINUOUS
10
6.39218
20
-3.43874
11
6.39408
21
-3.43805
0
LINE
8
BLACK
6
CONTINUOUS
10
6.39408
20
-3.43805
11
6.45408
21
-3.43805
0
LINE
8
BLACK
6
CONTINUOUS
10
6.45408
20
-3.43805
11
6.45509
21
-3.43823
0
LINE
8
BLACK
6
CONTINUOUS
10
6.15988
20
-3.24185
11
6.16155
21
-3.24254
0
LINE
8
BLACK
6
CONTINUOUS
10
6.16155
20
-3.24254
11
6.16224
21
-3.24421
0
LINE
8
BLACK
6
CONTINUOUS
10
6.16224
20
-3.24421
11
6.16224
21
-3.4135
0
LINE
8
BLACK
6
CONTINUOUS
10
6.16224
20
-3.4135
11
6.16155
21
-3.41517
0
LINE
8
BLACK
6
CONTINUOUS
10
6.16155
20
-3.41517
11
6.15988
21
-3.41587
0
LINE
8
BLACK
6
CONTINUOUS
10
6.15988
20
-3.41587
11
6.15821
21
-3.41517
0
LINE
8
BLACK
6
CONTINUOUS
10
6.15821
20
-3.41517
11
6.15752
21
-3.4135
0
LINE
8
BLACK
6
CONTINUOUS
10
6.15752
20
-3.4135
11
6.15752
21
-3.24657
0
LINE
8
BLACK
6
CONTINUOUS
10
6.15752
20
-3.24657
11
6.0835
21
-3.24657
0
LINE
8
BLACK
6
CONTINUOUS
10
6.0835
20
-3.24657
11
6.0835
21
-3.4135
0
LINE
8
BLACK
6
CONTINUOUS
10
6.0835
20
-3.4135
11
6.08281
21
-3.41517
0
LINE
8
BLACK
6
CONTINUOUS
10
6.08281
20
-3.41517
11
6.08114
21
-3.41587
0
LINE
8
BLACK
6
CONTINUOUS
10
6.08114
20
-3.41587
11
6.07947
21
-3.41517
0
LINE
8
BLACK
6
CONTINUOUS
10
6.07947
20
-3.41517
11
6.07878
21
-3.4135
0
LINE
8
BLACK
6
CONTINUOUS
10
6.07878
20
-3.4135
11
6.07878
21
-3.24421
0
LINE
8
BLACK
6
CONTINUOUS
10
6.07878
20
-3.24421
11
6.07947
21
-3.24254
0
LINE
8
BLACK
6
CONTINUOUS
10
6.07947
20
-3.24254
11
6.08114
21
-3.24185
0
LINE
8
BLACK
6
CONTINUOUS
10
6.08114
20
-3.24185
11
6.15988
21
-3.24185
0
LINE
8
BLACK
6
CONTINUOUS
10
6.29415
20
-3.24122
11
6.29582
21
-3.24191
0
LINE
8
BLACK
6
CONTINUOUS
10
6.29582
20
-3.24191
11
6.29651
21
-3.24358
0
LINE
8
BLACK
6
CONTINUOUS
10
6.29651
20
-3.24358
11
6.29651
21
-3.41287
0
LINE
8
BLACK
6
CONTINUOUS
10
6.29651
20
-3.41287
11
6.29582
21
-3.41454
0
LINE
8
BLACK
6
CONTINUOUS
10
6.29582
20
-3.41454
11
6.29415
21
-3.41523
0
LINE
8
BLACK
6
CONTINUOUS
10
6.29415
20
-3.41523
11
6.29248
21
-3.41454
0
LINE
8
BLACK
6
CONTINUOUS
10
6.29248
20
-3.41454
11
6.29178
21
-3.41287
0
LINE
8
BLACK
6
CONTINUOUS
10
6.29178
20
-3.41287
11
6.29178
21
-3.24594
0
LINE
8
BLACK
6
CONTINUOUS
10
6.29178
20
-3.24594
11
6.21777
21
-3.24594
0
LINE
8
BLACK
6
CONTINUOUS
10
6.21777
20
-3.24594
11
6.21777
21
-3.41287
0
LINE
8
BLACK
6
CONTINUOUS
10
6.21777
20
-3.41287
11
6.21708
21
-3.41454
0
LINE
8
BLACK
6
CONTINUOUS
10
6.21708
20
-3.41454
11
6.21541
21
-3.41523
0
LINE
8
BLACK
6
CONTINUOUS
10
6.21541
20
-3.41523
11
6.21374
21
-3.41454
0
LINE
8
BLACK
6
CONTINUOUS
10
6.21374
20
-3.41454
11
6.21304
21
-3.41287
0
LINE
8
BLACK
6
CONTINUOUS
10
6.21304
20
-3.41287
11
6.21304
21
-3.24358
0
LINE
8
BLACK
6
CONTINUOUS
10
6.21304
20
-3.24358
11
6.21374
21
-3.24191
0
LINE
8
BLACK
6
CONTINUOUS
10
6.21374
20
-3.24191
11
6.21541
21
-3.24122
0
LINE
8
BLACK
6
CONTINUOUS
10
6.21541
20
-3.24122
11
6.29415
21
-3.24122
0
LINE
8
BLACK
6
CONTINUOUS
10
6.39575
20
-3.36433
11
6.39644
21
-3.366
0
LINE
8
BLACK
6
CONTINUOUS
10
6.39644
20
-3.366
11
6.39644
21
-3.396
0
LINE
8
BLACK
6
CONTINUOUS
10
6.39644
20
-3.396
11
6.39575
21
-3.39767
0
LINE
8
BLACK
6
CONTINUOUS
10
6.39575
20
-3.39767
11
6.39408
21
-3.39837
0
LINE
8
BLACK
6
CONTINUOUS
10
6.39408
20
-3.39837
11
6.39241
21
-3.39767
0
LINE
8
BLACK
6
CONTINUOUS
10
6.39241
20
-3.39767
11
6.39172
21
-3.396
0
LINE
8
BLACK
6
CONTINUOUS
10
6.39172
20
-3.396
11
6.39172
21
-3.366
0
LINE
8
BLACK
6
CONTINUOUS
10
6.39172
20
-3.366
11
6.39241
21
-3.36433
0
LINE
8
BLACK
6
CONTINUOUS
10
6.39241
20
-3.36433
11
6.39408
21
-3.36364
0
LINE
8
BLACK
6
CONTINUOUS
10
6.39408
20
-3.36364
11
6.39575
21
-3.36433
0
LINE
8
BLACK
6
CONTINUOUS
10
6.45575
20
-3.36433
11
6.45644
21
-3.366
0
LINE
8
BLACK
6
CONTINUOUS
10
6.45644
20
-3.366
11
6.45644
21
-3.396
0
LINE
8
BLACK
6
CONTINUOUS
10
6.45644
20
-3.396
11
6.45575
21
-3.39767
0
LINE
8
BLACK
6
CONTINUOUS
10
6.45575
20
-3.39767
11
6.45408
21
-3.39837
0
LINE
8
BLACK
6
CONTINUOUS
10
6.45408
20
-3.39837
11
6.45241
21
-3.39767
0
LINE
8
BLACK
6
CONTINUOUS
10
6.45241
20
-3.39767
11
6.45172
21
-3.396
0
LINE
8
BLACK
6
CONTINUOUS
10
6.45172
20
-3.396
11
6.45172
21
-3.366
0
LINE
8
BLACK
6
CONTINUOUS
10
6.45172
20
-3.366
11
6.45241
21
-3.36433
0
LINE
8
BLACK
6
CONTINUOUS
10
6.45241
20
-3.36433
11
6.45408
21
-3.36364
0
LINE
8
BLACK
6
CONTINUOUS
10
6.45408
20
-3.36364
11
6.45575
21
-3.36433
0
LINE
8
BLACK
6
CONTINUOUS
10
5.82599
20
-3.30172
11
5.82616
21
-3.30171
0
LINE
8
BLACK
6
CONTINUOUS
10
5.82616
20
-3.30171
11
5.82685
21
-3.30222
0
LINE
8
BLACK
6
CONTINUOUS
10
5.82685
20
-3.30222
11
5.82759
21
-3.30265
0
LINE
8
BLACK
6
CONTINUOUS
10
5.82759
20
-3.30265
11
5.82765
21
-3.30281
0
LINE
8
BLACK
6
CONTINUOUS
10
5.82765
20
-3.30281
11
5.82778
21
-3.30291
0
LINE
8
BLACK
6
CONTINUOUS
10
5.82778
20
-3.30291
11
5.83137
21
-3.30829
0
LINE
8
BLACK
6
CONTINUOUS
10
5.83137
20
-3.30829
11
5.83457
21
-3.31149
0
LINE
8
BLACK
6
CONTINUOUS
10
5.83457
20
-3.31149
11
5.8379
21
-3.31315
0
LINE
8
BLACK
6
CONTINUOUS
10
5.8379
20
-3.31315
11
5.83872
21
-3.31377
0
LINE
8
BLACK
6
CONTINUOUS
10
5.83872
20
-3.31377
11
5.83952
21
-3.31562
0
LINE
8
BLACK
6
CONTINUOUS
10
5.83952
20
-3.31562
11
5.83895
21
-3.31755
0
LINE
8
BLACK
6
CONTINUOUS
10
5.83895
20
-3.31755
11
5.83726
21
-3.31867
0
LINE
8
BLACK
6
CONTINUOUS
10
5.83726
20
-3.31867
11
5.83525
21
-3.31844
0
LINE
8
BLACK
6
CONTINUOUS
10
5.83525
20
-3.31844
11
5.83151
21
-3.31656
0
LINE
8
BLACK
6
CONTINUOUS
10
5.83151
20
-3.31656
11
5.8308
21
-3.31604
0
LINE
8
BLACK
6
CONTINUOUS
10
5.8308
20
-3.31604
11
5.83074
21
-3.31601
0
LINE
8
BLACK
6
CONTINUOUS
10
5.83074
20
-3.31601
11
5.82828
21
-3.31355
0
LINE
8
BLACK
6
CONTINUOUS
10
5.82828
20
-3.31355
11
5.82828
21
-3.34096
0
LINE
8
BLACK
6
CONTINUOUS
10
5.82828
20
-3.34096
11
5.83658
21
-3.34096
0
LINE
8
BLACK
6
CONTINUOUS
10
5.83658
20
-3.34096
11
5.83759
21
-3.34114
0
LINE
8
BLACK
6
CONTINUOUS
10
5.83759
20
-3.34114
11
5.83913
21
-3.34244
0
LINE
8
BLACK
6
CONTINUOUS
10
5.83913
20
-3.34244
11
5.83948
21
-3.34443
0
LINE
8
BLACK
6
CONTINUOUS
10
5.83948
20
-3.34443
11
5.83847
21
-3.34618
0
LINE
8
BLACK
6
CONTINUOUS
10
5.83847
20
-3.34618
11
5.83658
21
-3.34687
0
LINE
8
BLACK
6
CONTINUOUS
10
5.83658
20
-3.34687
11
5.81408
21
-3.34687
0
LINE
8
BLACK
6
CONTINUOUS
10
5.81408
20
-3.34687
11
5.81307
21
-3.34669
0
LINE
8
BLACK
6
CONTINUOUS
10
5.81307
20
-3.34669
11
5.81152
21
-3.34539
0
LINE
8
BLACK
6
CONTINUOUS
10
5.81152
20
-3.34539
11
5.81117
21
-3.3434
0
LINE
8
BLACK
6
CONTINUOUS
10
5.81117
20
-3.3434
11
5.81218
21
-3.34166
0
LINE
8
BLACK
6
CONTINUOUS
10
5.81218
20
-3.34166
11
5.81408
21
-3.34096
0
LINE
8
BLACK
6
CONTINUOUS
10
5.81408
20
-3.34096
11
5.82237
21
-3.34096
0
LINE
8
BLACK
6
CONTINUOUS
10
5.82237
20
-3.34096
11
5.82237
21
-3.30455
0
LINE
8
BLACK
6
CONTINUOUS
10
5.82237
20
-3.30455
11
5.82255
21
-3.30354
0
LINE
8
BLACK
6
CONTINUOUS
10
5.82255
20
-3.30354
11
5.82266
21
-3.30341
0
LINE
8
BLACK
6
CONTINUOUS
10
5.82266
20
-3.30341
11
5.82268
21
-3.30324
0
LINE
8
BLACK
6
CONTINUOUS
10
5.82268
20
-3.30324
11
5.8233
21
-3.30265
0
LINE
8
BLACK
6
CONTINUOUS
10
5.8233
20
-3.30265
11
5.82385
21
-3.30199
0
LINE
8
BLACK
6
CONTINUOUS
10
5.82385
20
-3.30199
11
5.82402
21
-3.30196
0
LINE
8
BLACK
6
CONTINUOUS
10
5.82402
20
-3.30196
11
5.82414
21
-3.30184
0
LINE
8
BLACK
6
CONTINUOUS
10
5.82414
20
-3.30184
11
5.825
21
-3.30179
0
LINE
8
BLACK
6
CONTINUOUS
10
5.825
20
-3.30179
11
5.82584
21
-3.30164
0
LINE
8
BLACK
6
CONTINUOUS
10
5.82584
20
-3.30164
11
5.82599
21
-3.30172
0
LINE
8
BLACK
6
CONTINUOUS
10
5.87445
20
-3.30166
11
5.87458
21
-3.30164
0
LINE
8
BLACK
6
CONTINUOUS
10
5.87458
20
-3.30164
11
5.8747
21
-3.3017
0
LINE
8
BLACK
6
CONTINUOUS
10
5.8747
20
-3.3017
11
5.87508
21
-3.30177
0
LINE
8
BLACK
6
CONTINUOUS
10
5.87508
20
-3.30177
11
5.87567
21
-3.30227
0
LINE
8
BLACK
6
CONTINUOUS
10
5.87567
20
-3.30227
11
5.87633
21
-3.30265
0
LINE
8
BLACK
6
CONTINUOUS
10
5.87633
20
-3.30265
11
5.87642
21
-3.3029
0
LINE
8
BLACK
6
CONTINUOUS
10
5.87642
20
-3.3029
11
5.87663
21
-3.30307
0
LINE
8
BLACK
6
CONTINUOUS
10
5.87663
20
-3.30307
11
5.87676
21
-3.30383
0
LINE
8
BLACK
6
CONTINUOUS
10
5.87676
20
-3.30383
11
5.87702
21
-3.30455
0
LINE
8
BLACK
6
CONTINUOUS
10
5.87702
20
-3.30455
11
5.87702
21
-3.34392
0
LINE
8
BLACK
6
CONTINUOUS
10
5.87702
20
-3.34392
11
5.87696
21
-3.3443
0
LINE
8
BLACK
6
CONTINUOUS
10
5.87696
20
-3.3443
11
5.87698
21
-3.34443
0
LINE
8
BLACK
6
CONTINUOUS
10
5.87698
20
-3.34443
11
5.87691
21
-3.34454
0
LINE
8
BLACK
6
CONTINUOUS
10
5.87691
20
-3.34454
11
5.87685
21
-3.34493
0
LINE
8
BLACK
6
CONTINUOUS
10
5.87685
20
-3.34493
11
5.87635
21
-3.34551
0
LINE
8
BLACK
6
CONTINUOUS
10
5.87635
20
-3.34551
11
5.87597
21
-3.34618
0
LINE
8
BLACK
6
CONTINUOUS
10
5.87597
20
-3.34618
11
5.87572
21
-3.34627
0
LINE
8
BLACK
6
CONTINUOUS
10
5.87572
20
-3.34627
11
5.87555
21
-3.34647
0
LINE
8
BLACK
6
CONTINUOUS
10
5.87555
20
-3.34647
11
5.87479
21
-3.34661
0
LINE
8
BLACK
6
CONTINUOUS
10
5.87479
20
-3.34661
11
5.87407
21
-3.34687
0
LINE
8
BLACK
6
CONTINUOUS
10
5.87407
20
-3.34687
11
5.8647
21
-3.34687
0
LINE
8
BLACK
6
CONTINUOUS
10
5.8647
20
-3.34687
11
5.86383
21
-3.34672
0
LINE
8
BLACK
6
CONTINUOUS
10
5.86383
20
-3.34672
11
5.86376
21
-3.34672
0
LINE
8
BLACK
6
CONTINUOUS
10
5.86376
20
-3.34672
11
5.85814
21
-3.34484
0
LINE
8
BLACK
6
CONTINUOUS
10
5.85814
20
-3.34484
11
5.85724
21
-3.34436
0
LINE
8
BLACK
6
CONTINUOUS
10
5.85724
20
-3.34436
11
5.85714
21
-3.3442
0
LINE
8
BLACK
6
CONTINUOUS
10
5.85714
20
-3.3442
11
5.85698
21
-3.34413
0
LINE
8
BLACK
6
CONTINUOUS
10
5.85698
20
-3.34413
11
5.85324
21
-3.34038
0
LINE
8
BLACK
6
CONTINUOUS
10
5.85324
20
-3.34038
11
5.85273
21
-3.33966
0
LINE
8
BLACK
6
CONTINUOUS
10
5.85273
20
-3.33966
11
5.85268
21
-3.33961
0
LINE
8
BLACK
6
CONTINUOUS
10
5.85268
20
-3.33961
11
5.85081
21
-3.33586
0
LINE
8
BLACK
6
CONTINUOUS
10
5.85081
20
-3.33586
11
5.85066
21
-3.33538
0
LINE
8
BLACK
6
CONTINUOUS
10
5.85066
20
-3.33538
11
5.85058
21
-3.33526
0
LINE
8
BLACK
6
CONTINUOUS
10
5.85058
20
-3.33526
11
5.84871
21
-3.32776
0
LINE
8
BLACK
6
CONTINUOUS
10
5.84871
20
-3.32776
11
5.84867
21
-3.32717
0
LINE
8
BLACK
6
CONTINUOUS
10
5.84867
20
-3.32717
11
5.84862
21
-3.32704
0
LINE
8
BLACK
6
CONTINUOUS
10
5.84862
20
-3.32704
11
5.84862
21
-3.32142
0
LINE
8
BLACK
6
CONTINUOUS
10
5.84862
20
-3.32142
11
5.84872
21
-3.32084
0
LINE
8
BLACK
6
CONTINUOUS
10
5.84872
20
-3.32084
11
5.84871
21
-3.3207
0
LINE
8
BLACK
6
CONTINUOUS
10
5.84871
20
-3.3207
11
5.85058
21
-3.3132
0
LINE
8
BLACK
6
CONTINUOUS
10
5.85058
20
-3.3132
11
5.85079
21
-3.31274
0
LINE
8
BLACK
6
CONTINUOUS
10
5.85079
20
-3.31274
11
5.85081
21
-3.3126
0
LINE
8
BLACK
6
CONTINUOUS
10
5.85081
20
-3.3126
11
5.85268
21
-3.30885
0
LINE
8
BLACK
6
CONTINUOUS
10
5.85268
20
-3.30885
11
5.85321
21
-3.30814
0
LINE
8
BLACK
6
CONTINUOUS
10
5.85321
20
-3.30814
11
5.85324
21
-3.30808
0
LINE
8
BLACK
6
CONTINUOUS
10
5.85324
20
-3.30808
11
5.85698
21
-3.30433
0
LINE
8
BLACK
6
CONTINUOUS
10
5.85698
20
-3.30433
11
5.85782
21
-3.30375
0
LINE
8
BLACK
6
CONTINUOUS
10
5.85782
20
-3.30375
11
5.858
21
-3.30373
0
LINE
8
BLACK
6
CONTINUOUS
10
5.858
20
-3.30373
11
5.85814
21
-3.30362
0
LINE
8
BLACK
6
CONTINUOUS
10
5.85814
20
-3.30362
11
5.86376
21
-3.30175
0
LINE
8
BLACK
6
CONTINUOUS
10
5.86376
20
-3.30175
11
5.86464
21
-3.30162
0
LINE
8
BLACK
6
CONTINUOUS
10
5.86464
20
-3.30162
11
5.8647
21
-3.30159
0
LINE
8
BLACK
6
CONTINUOUS
10
5.8647
20
-3.30159
11
5.87407
21
-3.30159
0
LINE
8
BLACK
6
CONTINUOUS
10
5.87407
20
-3.30159
11
5.87445
21
-3.30166
0
LINE
8
BLACK
6
CONTINUOUS
10
5.86067
20
-3.309
11
5.85775
21
-3.31192
0
LINE
8
BLACK
6
CONTINUOUS
10
5.85775
20
-3.31192
11
5.85623
21
-3.31495
0
LINE
8
BLACK
6
CONTINUOUS
10
5.85623
20
-3.31495
11
5.85453
21
-3.32178
0
LINE
8
BLACK
6
CONTINUOUS
10
5.85453
20
-3.32178
11
5.85453
21
-3.32668
0
LINE
8
BLACK
6
CONTINUOUS
10
5.85453
20
-3.32668
11
5.85623
21
-3.33351
0
LINE
8
BLACK
6
CONTINUOUS
10
5.85623
20
-3.33351
11
5.85775
21
-3.33654
0
LINE
8
BLACK
6
CONTINUOUS
10
5.85775
20
-3.33654
11
5.86067
21
-3.33946
0
LINE
8
BLACK
6
CONTINUOUS
10
5.86067
20
-3.33946
11
5.86518
21
-3.34096
0
LINE
8
BLACK
6
CONTINUOUS
10
5.86518
20
-3.34096
11
5.87112
21
-3.34096
0
LINE
8
BLACK
6
CONTINUOUS
10
5.87112
20
-3.34096
11
5.87112
21
-3.3075
0
LINE
8
BLACK
6
CONTINUOUS
10
5.87112
20
-3.3075
11
5.86518
21
-3.3075
0
LINE
8
BLACK
6
CONTINUOUS
10
5.86518
20
-3.3075
11
5.86067
21
-3.309
0
LINE
8
BLACK
6
CONTINUOUS
10
6.45509
20
-3.31823
11
6.45664
21
-3.31953
0
LINE
8
BLACK
6
CONTINUOUS
10
6.45664
20
-3.31953
11
6.45699
21
-3.32152
0
LINE
8
BLACK
6
CONTINUOUS
10
6.45699
20
-3.32152
11
6.45598
21
-3.32327
0
LINE
8
BLACK
6
CONTINUOUS
10
6.45598
20
-3.32327
11
6.45408
21
-3.32396
0
LINE
8
BLACK
6
CONTINUOUS
10
6.45408
20
-3.32396
11
6.39408
21
-3.32396
0
LINE
8
BLACK
6
CONTINUOUS
10
6.39408
20
-3.32396
11
6.39307
21
-3.32378
0
LINE
8
BLACK
6
CONTINUOUS
10
6.39307
20
-3.32378
11
6.39152
21
-3.32248
0
LINE
8
BLACK
6
CONTINUOUS
10
6.39152
20
-3.32248
11
6.39117
21
-3.32049
0
LINE
8
BLACK
6
CONTINUOUS
10
6.39117
20
-3.32049
11
6.39218
21
-3.31874
0
LINE
8
BLACK
6
CONTINUOUS
10
6.39218
20
-3.31874
11
6.39408
21
-3.31805
0
LINE
8
BLACK
6
CONTINUOUS
10
6.39408
20
-3.31805
11
6.45408
21
-3.31805
0
LINE
8
BLACK
6
CONTINUOUS
10
6.45408
20
-3.31805
11
6.45509
21
-3.31823
0
LINE
8
BLACK
6
CONTINUOUS
10
6.34505
20
-3.28523
11
6.34518
21
-3.28521
0
LINE
8
BLACK
6
CONTINUOUS
10
6.34518
20
-3.28521
11
6.34591
21
-3.28572
0
LINE
8
BLACK
6
CONTINUOUS
10
6.34591
20
-3.28572
11
6.34668
21
-3.28617
0
LINE
8
BLACK
6
CONTINUOUS
10
6.34668
20
-3.28617
11
6.34673
21
-3.28629
0
LINE
8
BLACK
6
CONTINUOUS
10
6.34673
20
-3.28629
11
6.34684
21
-3.28637
0
LINE
8
BLACK
6
CONTINUOUS
10
6.34684
20
-3.28637
11
6.34707
21
-3.28723
0
LINE
8
BLACK
6
CONTINUOUS
10
6.34707
20
-3.28723
11
6.34737
21
-3.28807
0
LINE
8
BLACK
6
CONTINUOUS
10
6.34737
20
-3.28807
11
6.34737
21
-3.31244
0
LINE
8
BLACK
6
CONTINUOUS
10
6.34737
20
-3.31244
11
6.34719
21
-3.31345
0
LINE
8
BLACK
6
CONTINUOUS
10
6.34719
20
-3.31345
11
6.34589
21
-3.31499
0
LINE
8
BLACK
6
CONTINUOUS
10
6.34589
20
-3.31499
11
6.34391
21
-3.31535
0
LINE
8
BLACK
6
CONTINUOUS
10
6.34391
20
-3.31535
11
6.34216
21
-3.31434
0
LINE
8
BLACK
6
CONTINUOUS
10
6.34216
20
-3.31434
11
6.34147
21
-3.31244
0
LINE
8
BLACK
6
CONTINUOUS
10
6.34147
20
-3.31244
11
6.34147
21
-3.29519
0
LINE
8
BLACK
6
CONTINUOUS
10
6.34147
20
-3.29519
11
6.32401
21
-3.31265
0
LINE
8
BLACK
6
CONTINUOUS
10
6.32401
20
-3.31265
11
6.32317
21
-3.31324
0
LINE
8
BLACK
6
CONTINUOUS
10
6.32317
20
-3.31324
11
6.32299
21
-3.31325
0
LINE
8
BLACK
6
CONTINUOUS
10
6.32299
20
-3.31325
11
6.32285
21
-3.31336
0
LINE
8
BLACK
6
CONTINUOUS
10
6.32285
20
-3.31336
11
6.31723
21
-3.31524
0
LINE
8
BLACK
6
CONTINUOUS
10
6.31723
20
-3.31524
11
6.31636
21
-3.31537
0
LINE
8
BLACK
6
CONTINUOUS
10
6.31636
20
-3.31537
11
6.3163
21
-3.31539
0
LINE
8
BLACK
6
CONTINUOUS
10
6.3163
20
-3.31539
11
6.31255
21
-3.31539
0
LINE
8
BLACK
6
CONTINUOUS
10
6.31255
20
-3.31539
11
6.31154
21
-3.31521
0
LINE
8
BLACK
6
CONTINUOUS
10
6.31154
20
-3.31521
11
6.3114
21
-3.3151
0
LINE
8
BLACK
6
CONTINUOUS
10
6.3114
20
-3.3151
11
6.31123
21
-3.31508
0
LINE
8
BLACK
6
CONTINUOUS
10
6.31123
20
-3.31508
11
6.30748
21
-3.3132
0
LINE
8
BLACK
6
CONTINUOUS
10
6.30748
20
-3.3132
11
6.30677
21
-3.31268
0
LINE
8
BLACK
6
CONTINUOUS
10
6.30677
20
-3.31268
11
6.30671
21
-3.31265
0
LINE
8
BLACK
6
CONTINUOUS
10
6.30671
20
-3.31265
11
6.30483
21
-3.31078
0
LINE
8
BLACK
6
CONTINUOUS
10
6.30483
20
-3.31078
11
6.30433
21
-3.31005
0
LINE
8
BLACK
6
CONTINUOUS
10
6.30433
20
-3.31005
11
6.30428
21
-3.31001
0
LINE
8
BLACK
6
CONTINUOUS
10
6.30428
20
-3.31001
11
6.30241
21
-3.30626
0
LINE
8
BLACK
6
CONTINUOUS
10
6.30241
20
-3.30626
11
6.30211
21
-3.30528
0
LINE
8
BLACK
6
CONTINUOUS
10
6.30211
20
-3.30528
11
6.30216
21
-3.3051
0
LINE
8
BLACK
6
CONTINUOUS
10
6.30216
20
-3.3051
11
6.3021
21
-3.30494
0
LINE
8
BLACK
6
CONTINUOUS
10
6.3021
20
-3.30494
11
6.3021
21
-3.29556
0
LINE
8
BLACK
6
CONTINUOUS
10
6.3021
20
-3.29556
11
6.30227
21
-3.29455
0
LINE
8
BLACK
6
CONTINUOUS
10
6.30227
20
-3.29455
11
6.30239
21
-3.29442
0
LINE
8
BLACK
6
CONTINUOUS
10
6.30239
20
-3.29442
11
6.30241
21
-3.29424
0
LINE
8
BLACK
6
CONTINUOUS
10
6.30241
20
-3.29424
11
6.30428
21
-3.29049
0
LINE
8
BLACK
6
CONTINUOUS
10
6.30428
20
-3.29049
11
6.30481
21
-3.28979
0
LINE
8
BLACK
6
CONTINUOUS
10
6.30481
20
-3.28979
11
6.30483
21
-3.28973
0
LINE
8
BLACK
6
CONTINUOUS
10
6.30483
20
-3.28973
11
6.30671
21
-3.28785
0
LINE
8
BLACK
6
CONTINUOUS
10
6.30671
20
-3.28785
11
6.30755
21
-3.28726
0
LINE
8
BLACK
6
CONTINUOUS
10
6.30755
20
-3.28726
11
6.30956
21
-3.28709
0
LINE
8
BLACK
6
CONTINUOUS
10
6.30956
20
-3.28709
11
6.31122
21
-3.28825
0
LINE
8
BLACK
6
CONTINUOUS
10
6.31122
20
-3.28825
11
6.31174
21
-3.2902
0
LINE
8
BLACK
6
CONTINUOUS
10
6.31174
20
-3.2902
11
6.31089
21
-3.29203
0
LINE
8
BLACK
6
CONTINUOUS
10
6.31089
20
-3.29203
11
6.30935
21
-3.29356
0
LINE
8
BLACK
6
CONTINUOUS
10
6.30935
20
-3.29356
11
6.308
21
-3.29626
0
LINE
8
BLACK
6
CONTINUOUS
10
6.308
20
-3.29626
11
6.308
21
-3.30424
0
LINE
8
BLACK
6
CONTINUOUS
10
6.308
20
-3.30424
11
6.30935
21
-3.30694
0
LINE
8
BLACK
6
CONTINUOUS
10
6.30935
20
-3.30694
11
6.31055
21
-3.30814
0
LINE
8
BLACK
6
CONTINUOUS
10
6.31055
20
-3.30814
11
6.31324
21
-3.30948
0
LINE
8
BLACK
6
CONTINUOUS
10
6.31324
20
-3.30948
11
6.31582
21
-3.30948
0
LINE
8
BLACK
6
CONTINUOUS
10
6.31582
20
-3.30948
11
6.32033
21
-3.30798
0
LINE
8
BLACK
6
CONTINUOUS
10
6.32033
20
-3.30798
11
6.34233
21
-3.28598
0
LINE
8
BLACK
6
CONTINUOUS
10
6.34233
20
-3.28598
11
6.34286
21
-3.28561
0
LINE
8
BLACK
6
CONTINUOUS
10
6.34286
20
-3.28561
11
6.34294
21
-3.28551
0
LINE
8
BLACK
6
CONTINUOUS
10
6.34294
20
-3.28551
11
6.34302
21
-3.28549
0
LINE
8
BLACK
6
CONTINUOUS
10
6.34302
20
-3.28549
11
6.34317
21
-3.28539
0
LINE
8
BLACK
6
CONTINUOUS
10
6.34317
20
-3.28539
11
6.34406
21
-3.28531
0
LINE
8
BLACK
6
CONTINUOUS
10
6.34406
20
-3.28531
11
6.34493
21
-3.28516
0
LINE
8
BLACK
6
CONTINUOUS
10
6.34493
20
-3.28516
11
6.34505
21
-3.28523
0
LINE
8
BLACK
6
CONTINUOUS
10
6.06276
20
-3.28398
11
6.06463
21
-3.28585
0
LINE
8
BLACK
6
CONTINUOUS
10
6.06463
20
-3.28585
11
6.06514
21
-3.28658
0
LINE
8
BLACK
6
CONTINUOUS
10
6.06514
20
-3.28658
11
6.06518
21
-3.28662
0
LINE
8
BLACK
6
CONTINUOUS
10
6.06518
20
-3.28662
11
6.06706
21
-3.29037
0
LINE
8
BLACK
6
CONTINUOUS
10
6.06706
20
-3.29037
11
6.06735
21
-3.29135
0
LINE
8
BLACK
6
CONTINUOUS
10
6.06735
20
-3.29135
11
6.06731
21
-3.29152
0
LINE
8
BLACK
6
CONTINUOUS
10
6.06731
20
-3.29152
11
6.06737
21
-3.29169
0
LINE
8
BLACK
6
CONTINUOUS
10
6.06737
20
-3.29169
11
6.06737
21
-3.30294
0
LINE
8
BLACK
6
CONTINUOUS
10
6.06737
20
-3.30294
11
6.06719
21
-3.30395
0
LINE
8
BLACK
6
CONTINUOUS
10
6.06719
20
-3.30395
11
6.06708
21
-3.30408
0
LINE
8
BLACK
6
CONTINUOUS
10
6.06708
20
-3.30408
11
6.06706
21
-3.30426
0
LINE
8
BLACK
6
CONTINUOUS
10
6.06706
20
-3.30426
11
6.06518
21
-3.30801
0
LINE
8
BLACK
6
CONTINUOUS
10
6.06518
20
-3.30801
11
6.06466
21
-3.30872
0
LINE
8
BLACK
6
CONTINUOUS
10
6.06466
20
-3.30872
11
6.06463
21
-3.30878
0
LINE
8
BLACK
6
CONTINUOUS
10
6.06463
20
-3.30878
11
6.06276
21
-3.31065
0
LINE
8
BLACK
6
CONTINUOUS
10
6.06276
20
-3.31065
11
6.06203
21
-3.31116
0
LINE
8
BLACK
6
CONTINUOUS
10
6.06203
20
-3.31116
11
6.06199
21
-3.3112
0
LINE
8
BLACK
6
CONTINUOUS
10
6.06199
20
-3.3112
11
6.05824
21
-3.31308
0
LINE
8
BLACK
6
CONTINUOUS
10
6.05824
20
-3.31308
11
6.05726
21
-3.31337
0
LINE
8
BLACK
6
CONTINUOUS
10
6.05726
20
-3.31337
11
6.05708
21
-3.31333
0
LINE
8
BLACK
6
CONTINUOUS
10
6.05708
20
-3.31333
11
6.05692
21
-3.31339
0
LINE
8
BLACK
6
CONTINUOUS
10
6.05692
20
-3.31339
11
6.04755
21
-3.31339
0
LINE
8
BLACK
6
CONTINUOUS
10
6.04755
20
-3.31339
11
6.04654
21
-3.31321
0
LINE
8
BLACK
6
CONTINUOUS
10
6.04654
20
-3.31321
11
6.0464
21
-3.3131
0
LINE
8
BLACK
6
CONTINUOUS
10
6.0464
20
-3.3131
11
6.04622
21
-3.31308
0
LINE
8
BLACK
6
CONTINUOUS
10
6.04622
20
-3.31308
11
6.04248
21
-3.3112
0
LINE
8
BLACK
6
CONTINUOUS
10
6.04248
20
-3.3112
11
6.04177
21
-3.31068
0
LINE
8
BLACK
6
CONTINUOUS
10
6.04177
20
-3.31068
11
6.04171
21
-3.31065
0
LINE
8
BLACK
6
CONTINUOUS
10
6.04171
20
-3.31065
11
6.03983
21
-3.30878
0
LINE
8
BLACK
6
CONTINUOUS
10
6.03983
20
-3.30878
11
6.03933
21
-3.30805
0
LINE
8
BLACK
6
CONTINUOUS
10
6.03933
20
-3.30805
11
6.03928
21
-3.30801
0
LINE
8
BLACK
6
CONTINUOUS
10
6.03928
20
-3.30801
11
6.03741
21
-3.30426
0
LINE
8
BLACK
6
CONTINUOUS
10
6.03741
20
-3.30426
11
6.03724
21
-3.3037
0
LINE
8
BLACK
6
CONTINUOUS
10
6.03724
20
-3.3037
11
6.02699
21
-3.31266
0
LINE
8
BLACK
6
CONTINUOUS
10
6.02699
20
-3.31266
11
6.02661
21
-3.31289
0
LINE
8
BLACK
6
CONTINUOUS
10
6.02661
20
-3.31289
11
6.02652
21
-3.31299
0
LINE
8
BLACK
6
CONTINUOUS
10
6.02652
20
-3.31299
11
6.0264
21
-3.31302
0
LINE
8
BLACK
6
CONTINUOUS
10
6.0264
20
-3.31302
11
6.02612
21
-3.31319
0
LINE
8
BLACK
6
CONTINUOUS
10
6.02612
20
-3.31319
11
6.02532
21
-3.31321
0
LINE
8
BLACK
6
CONTINUOUS
10
6.02532
20
-3.31321
11
6.02454
21
-3.31335
0
LINE
8
BLACK
6
CONTINUOUS
10
6.02454
20
-3.31335
11
6.02433
21
-3.31323
0
LINE
8
BLACK
6
CONTINUOUS
10
6.02433
20
-3.31323
11
6.0241
21
-3.31323
0
LINE
8
BLACK
6
CONTINUOUS
10
6.0241
20
-3.31323
11
6.02348
21
-3.31273
0
LINE
8
BLACK
6
CONTINUOUS
10
6.02348
20
-3.31273
11
6.02279
21
-3.31234
0
LINE
8
BLACK
6
CONTINUOUS
10
6.02279
20
-3.31234
11
6.02271
21
-3.31211
0
LINE
8
BLACK
6
CONTINUOUS
10
6.02271
20
-3.31211
11
6.02252
21
-3.31197
0
LINE
8
BLACK
6
CONTINUOUS
10
6.02252
20
-3.31197
11
6.02237
21
-3.31119
0
LINE
8
BLACK
6
CONTINUOUS
10
6.02237
20
-3.31119
11
6.0221
21
-3.31044
0
LINE
8
BLACK
6
CONTINUOUS
10
6.0221
20
-3.31044
11
6.0221
21
-3.28607
0
LINE
8
BLACK
6
CONTINUOUS
10
6.0221
20
-3.28607
11
6.02227
21
-3.28506
0
LINE
8
BLACK
6
CONTINUOUS
10
6.02227
20
-3.28506
11
6.02357
21
-3.28351
0
LINE
8
BLACK
6
CONTINUOUS
10
6.02357
20
-3.28351
11
6.02556
21
-3.28316
0
LINE
8
BLACK
6
CONTINUOUS
10
6.02556
20
-3.28316
11
6.02731
21
-3.28417
0
LINE
8
BLACK
6
CONTINUOUS
10
6.02731
20
-3.28417
11
6.028
21
-3.28607
0
LINE
8
BLACK
6
CONTINUOUS
10
6.028
20
-3.28607
11
6.028
21
-3.30393
0
LINE
8
BLACK
6
CONTINUOUS
10
6.028
20
-3.30393
11
6.0381
21
-3.29509
0
LINE
8
BLACK
6
CONTINUOUS
10
6.0381
20
-3.29509
11
6.03848
21
-3.29486
0
LINE
8
BLACK
6
CONTINUOUS
10
6.03848
20
-3.29486
11
6.03857
21
-3.29476
0
LINE
8
BLACK
6
CONTINUOUS
10
6.03857
20
-3.29476
11
6.03869
21
-3.29474
0
LINE
8
BLACK
6
CONTINUOUS
10
6.03869
20
-3.29474
11
6.03898
21
-3.29456
0
LINE
8
BLACK
6
CONTINUOUS
10
6.03898
20
-3.29456
11
6.03977
21
-3.29454
0
LINE
8
BLACK
6
CONTINUOUS
10
6.03977
20
-3.29454
11
6.04056
21
-3.29441
0
LINE
8
BLACK
6
CONTINUOUS
10
6.04056
20
-3.29441
11
6.04076
21
-3.29452
0
LINE
8
BLACK
6
CONTINUOUS
10
6.04076
20
-3.29452
11
6.041
21
-3.29452
0
LINE
8
BLACK
6
CONTINUOUS
10
6.041
20
-3.29452
11
6.04162
21
-3.29502
0
LINE
8
BLACK
6
CONTINUOUS
10
6.04162
20
-3.29502
11
6.04231
21
-3.29542
0
LINE
8
BLACK
6
CONTINUOUS
10
6.04231
20
-3.29542
11
6.04239
21
-3.29564
0
LINE
8
BLACK
6
CONTINUOUS
10
6.04239
20
-3.29564
11
6.04257
21
-3.29579
0
LINE
8
BLACK
6
CONTINUOUS
10
6.04257
20
-3.29579
11
6.04273
21
-3.29657
0
LINE
8
BLACK
6
CONTINUOUS
10
6.04273
20
-3.29657
11
6.043
21
-3.29731
0
LINE
8
BLACK
6
CONTINUOUS
10
6.043
20
-3.29731
11
6.043
21
-3.30224
0
LINE
8
BLACK
6
CONTINUOUS
10
6.043
20
-3.30224
11
6.04435
21
-3.30494
0
LINE
8
BLACK
6
CONTINUOUS
10
6.04435
20
-3.30494
11
6.04554
21
-3.30614
0
LINE
8
BLACK
6
CONTINUOUS
10
6.04554
20
-3.30614
11
6.04824
21
-3.30748
0
LINE
8
BLACK
6
CONTINUOUS
10
6.04824
20
-3.30748
11
6.05622
21
-3.30748
0
LINE
8
BLACK
6
CONTINUOUS
10
6.05622
20
-3.30748
11
6.05892
21
-3.30614
0
LINE
8
BLACK
6
CONTINUOUS
10
6.05892
20
-3.30614
11
6.06012
21
-3.30494
0
LINE
8
BLACK
6
CONTINUOUS
10
6.06012
20
-3.30494
11
6.06147
21
-3.30224
0
LINE
8
BLACK
6
CONTINUOUS
10
6.06147
20
-3.30224
11
6.06147
21
-3.29239
0
LINE
8
BLACK
6
CONTINUOUS
10
6.06147
20
-3.29239
11
6.06012
21
-3.28969
0
LINE
8
BLACK
6
CONTINUOUS
10
6.06012
20
-3.28969
11
6.05858
21
-3.28815
0
LINE
8
BLACK
6
CONTINUOUS
10
6.05858
20
-3.28815
11
6.05799
21
-3.28731
0
LINE
8
BLACK
6
CONTINUOUS
10
6.05799
20
-3.28731
11
6.05782
21
-3.2853
0
LINE
8
BLACK
6
CONTINUOUS
10
6.05782
20
-3.2853
11
6.05897
21
-3.28365
0
LINE
8
BLACK
6
CONTINUOUS
10
6.05897
20
-3.28365
11
6.06093
21
-3.28312
0
LINE
8
BLACK
6
CONTINUOUS
10
6.06093
20
-3.28312
11
6.06276
21
-3.28398
0
LINE
8
BLACK
6
CONTINUOUS
10
5.92542
20
-3.16095
11
5.92611
21
-3.16262
0
LINE
8
BLACK
6
CONTINUOUS
10
5.92611
20
-3.16262
11
5.92542
21
-3.1643
0
LINE
8
BLACK
6
CONTINUOUS
10
5.92542
20
-3.1643
11
5.92375
21
-3.16499
0
LINE
8
BLACK
6
CONTINUOUS
10
5.92375
20
-3.16499
11
5.71352
21
-3.16499
0
LINE
8
BLACK
6
CONTINUOUS
10
5.71352
20
-3.16499
11
5.71352
21
-3.29018
0
LINE
8
BLACK
6
CONTINUOUS
10
5.71352
20
-3.29018
11
5.92375
21
-3.29018
0
LINE
8
BLACK
6
CONTINUOUS
10
5.92375
20
-3.29018
11
5.92542
21
-3.29088
0
LINE
8
BLACK
6
CONTINUOUS
10
5.92542
20
-3.29088
11
5.92611
21
-3.29255
0
LINE
8
BLACK
6
CONTINUOUS
10
5.92611
20
-3.29255
11
5.92542
21
-3.29422
0
LINE
8
BLACK
6
CONTINUOUS
10
5.92542
20
-3.29422
11
5.92375
21
-3.29491
0
LINE
8
BLACK
6
CONTINUOUS
10
5.92375
20
-3.29491
11
5.71115
21
-3.29491
0
LINE
8
BLACK
6
CONTINUOUS
10
5.71115
20
-3.29491
11
5.70948
21
-3.29422
0
LINE
8
BLACK
6
CONTINUOUS
10
5.70948
20
-3.29422
11
5.70879
21
-3.29255
0
LINE
8
BLACK
6
CONTINUOUS
10
5.70879
20
-3.29255
11
5.70879
21
-3.16262
0
LINE
8
BLACK
6
CONTINUOUS
10
5.70879
20
-3.16262
11
5.70948
21
-3.16095
0
LINE
8
BLACK
6
CONTINUOUS
10
5.70948
20
-3.16095
11
5.71115
21
-3.16026
0
LINE
8
BLACK
6
CONTINUOUS
10
5.71115
20
-3.16026
11
5.92375
21
-3.16026
0
LINE
8
BLACK
6
CONTINUOUS
10
5.92375
20
-3.16026
11
5.92542
21
-3.16095
0
LINE
8
BLACK
6
CONTINUOUS
10
6.3448
20
-3.24956
11
6.34493
21
-3.24954
0
LINE
8
BLACK
6
CONTINUOUS
10
6.34493
20
-3.24954
11
6.34504
21
-3.2496
0
LINE
8
BLACK
6
CONTINUOUS
10
6.34504
20
-3.2496
11
6.34543
21
-3.24967
0
LINE
8
BLACK
6
CONTINUOUS
10
6.34543
20
-3.24967
11
6.34602
21
-3.25016
0
LINE
8
BLACK
6
CONTINUOUS
10
6.34602
20
-3.25016
11
6.34668
21
-3.25055
0
LINE
8
BLACK
6
CONTINUOUS
10
6.34668
20
-3.25055
11
6.34677
21
-3.2508
0
LINE
8
BLACK
6
CONTINUOUS
10
6.34677
20
-3.2508
11
6.34698
21
-3.25097
0
LINE
8
BLACK
6
CONTINUOUS
10
6.34698
20
-3.25097
11
6.34711
21
-3.25172
0
LINE
8
BLACK
6
CONTINUOUS
10
6.34711
20
-3.25172
11
6.34737
21
-3.25245
0
LINE
8
BLACK
6
CONTINUOUS
10
6.34737
20
-3.25245
11
6.34737
21
-3.26182
0
LINE
8
BLACK
6
CONTINUOUS
10
6.34737
20
-3.26182
11
6.34722
21
-3.26269
0
LINE
8
BLACK
6
CONTINUOUS
10
6.34722
20
-3.26269
11
6.34722
21
-3.26275
0
LINE
8
BLACK
6
CONTINUOUS
10
6.34722
20
-3.26275
11
6.34534
21
-3.26838
0
LINE
8
BLACK
6
CONTINUOUS
10
6.34534
20
-3.26838
11
6.34486
21
-3.26928
0
LINE
8
BLACK
6
CONTINUOUS
10
6.34486
20
-3.26928
11
6.34471
21
-3.26937
0
LINE
8
BLACK
6
CONTINUOUS
10
6.34471
20
-3.26937
11
6.34463
21
-3.26953
0
LINE
8
BLACK
6
CONTINUOUS
10
6.34463
20
-3.26953
11
6.34088
21
-3.27328
0
LINE
8
BLACK
6
CONTINUOUS
10
6.34088
20
-3.27328
11
6.34016
21
-3.27379
0
LINE
8
BLACK
6
CONTINUOUS
10
6.34016
20
-3.27379
11
6.34011
21
-3.27383
0
LINE
8
BLACK
6
CONTINUOUS
10
6.34011
20
-3.27383
11
6.33636
21
-3.27571
0
LINE
8
BLACK
6
CONTINUOUS
10
6.33636
20
-3.27571
11
6.33588
21
-3.27585
0
LINE
8
BLACK
6
CONTINUOUS
10
6.33588
20
-3.27585
11
6.33576
21
-3.27593
0
LINE
8
BLACK
6
CONTINUOUS
10
6.33576
20
-3.27593
11
6.32826
21
-3.27781
0
LINE
8
BLACK
6
CONTINUOUS
10
6.32826
20
-3.27781
11
6.32767
21
-3.27785
0
LINE
8
BLACK
6
CONTINUOUS
10
6.32767
20
-3.27785
11
6.32755
21
-3.2779
0
LINE
8
BLACK
6
CONTINUOUS
10
6.32755
20
-3.2779
11
6.32192
21
-3.2779
0
LINE
8
BLACK
6
CONTINUOUS
10
6.32192
20
-3.2779
11
6.32134
21
-3.27779
0
LINE
8
BLACK
6
CONTINUOUS
10
6.32134
20
-3.27779
11
6.3212
21
-3.27781
0
LINE
8
BLACK
6
CONTINUOUS
10
6.3212
20
-3.27781
11
6.31371
21
-3.27593
0
LINE
8
BLACK
6
CONTINUOUS
10
6.31371
20
-3.27593
11
6.31324
21
-3.27572
0
LINE
8
BLACK
6
CONTINUOUS
10
6.31324
20
-3.27572
11
6.3131
21
-3.27571
0
LINE
8
BLACK
6
CONTINUOUS
10
6.3131
20
-3.27571
11
6.30935
21
-3.27383
0
LINE
8
BLACK
6
CONTINUOUS
10
6.30935
20
-3.27383
11
6.30864
21
-3.27331
0
LINE
8
BLACK
6
CONTINUOUS
10
6.30864
20
-3.27331
11
6.30858
21
-3.27328
0
LINE
8
BLACK
6
CONTINUOUS
10
6.30858
20
-3.27328
11
6.30483
21
-3.26953
0
LINE
8
BLACK
6
CONTINUOUS
10
6.30483
20
-3.26953
11
6.30425
21
-3.26869
0
LINE
8
BLACK
6
CONTINUOUS
10
6.30425
20
-3.26869
11
6.30423
21
-3.26852
0
LINE
8
BLACK
6
CONTINUOUS
10
6.30423
20
-3.26852
11
6.30412
21
-3.26838
0
LINE
8
BLACK
6
CONTINUOUS
10
6.30412
20
-3.26838
11
6.30225
21
-3.26275
0
LINE
8
BLACK
6
CONTINUOUS
10
6.30225
20
-3.26275
11
6.30212
21
-3.26188
0
LINE
8
BLACK
6
CONTINUOUS
10
6.30212
20
-3.26188
11
6.3021
21
-3.26182
0
LINE
8
BLACK
6
CONTINUOUS
10
6.3021
20
-3.26182
11
6.3021
21
-3.25245
0
LINE
8
BLACK
6
CONTINUOUS
10
6.3021
20
-3.25245
11
6.30216
21
-3.25206
0
LINE
8
BLACK
6
CONTINUOUS
10
6.30216
20
-3.25206
11
6.30214
21
-3.25193
0
LINE
8
BLACK
6
CONTINUOUS
10
6.30214
20
-3.25193
11
6.30221
21
-3.25182
0
LINE
8
BLACK
6
CONTINUOUS
10
6.30221
20
-3.25182
11
6.30227
21
-3.25144
0
LINE
8
BLACK
6
CONTINUOUS
10
6.30227
20
-3.25144
11
6.30277
21
-3.25085
0
LINE
8
BLACK
6
CONTINUOUS
10
6.30277
20
-3.25085
11
6.30315
21
-3.25018
0
LINE
8
BLACK
6
CONTINUOUS
10
6.30315
20
-3.25018
11
6.3034
21
-3.25009
0
LINE
8
BLACK
6
CONTINUOUS
10
6.3034
20
-3.25009
11
6.30357
21
-3.24989
0
LINE
8
BLACK
6
CONTINUOUS
10
6.30357
20
-3.24989
11
6.30433
21
-3.24975
0
LINE
8
BLACK
6
CONTINUOUS
10
6.30433
20
-3.24975
11
6.30505
21
-3.24949
0
LINE
8
BLACK
6
CONTINUOUS
10
6.30505
20
-3.24949
11
6.34442
21
-3.24949
0
LINE
8
BLACK
6
CONTINUOUS
10
6.34442
20
-3.24949
11
6.3448
21
-3.24956
0
LINE
8
BLACK
6
CONTINUOUS
10
6.308
20
-3.26134
11
6.3095
21
-3.26585
0
LINE
8
BLACK
6
CONTINUOUS
10
6.3095
20
-3.26585
11
6.31242
21
-3.26877
0
LINE
8
BLACK
6
CONTINUOUS
10
6.31242
20
-3.26877
11
6.31545
21
-3.27028
0
LINE
8
BLACK
6
CONTINUOUS
10
6.31545
20
-3.27028
11
6.32228
21
-3.27199
0
LINE
8
BLACK
6
CONTINUOUS
10
6.32228
20
-3.27199
11
6.32718
21
-3.27199
0
LINE
8
BLACK
6
CONTINUOUS
10
6.32718
20
-3.27199
11
6.33401
21
-3.27028
0
LINE
8
BLACK
6
CONTINUOUS
10
6.33401
20
-3.27028
11
6.33704
21
-3.26877
0
LINE
8
BLACK
6
CONTINUOUS
10
6.33704
20
-3.26877
11
6.33996
21
-3.26585
0
LINE
8
BLACK
6
CONTINUOUS
10
6.33996
20
-3.26585
11
6.34147
21
-3.26134
0
LINE
8
BLACK
6
CONTINUOUS
10
6.34147
20
-3.26134
11
6.34147
21
-3.2554
0
LINE
8
BLACK
6
CONTINUOUS
10
6.34147
20
-3.2554
11
6.308
21
-3.2554
0
LINE
8
BLACK
6
CONTINUOUS
10
6.308
20
-3.2554
11
6.308
21
-3.26134
0
LINE
8
BLACK
6
CONTINUOUS
10
6.0648
20
-3.24756
11
6.06493
21
-3.24754
0
LINE
8
BLACK
6
CONTINUOUS
10
6.06493
20
-3.24754
11
6.06504
21
-3.2476
0
LINE
8
BLACK
6
CONTINUOUS
10
6.06504
20
-3.2476
11
6.06543
21
-3.24767
0
LINE
8
BLACK
6
CONTINUOUS
10
6.06543
20
-3.24767
11
6.06602
21
-3.24816
0
LINE
8
BLACK
6
CONTINUOUS
10
6.06602
20
-3.24816
11
6.06668
21
-3.24855
0
LINE
8
BLACK
6
CONTINUOUS
10
6.06668
20
-3.24855
11
6.06677
21
-3.2488
0
LINE
8
BLACK
6
CONTINUOUS
10
6.06677
20
-3.2488
11
6.06698
21
-3.24897
0
LINE
8
BLACK
6
CONTINUOUS
10
6.06698
20
-3.24897
11
6.06711
21
-3.24972
0
LINE
8
BLACK
6
CONTINUOUS
10
6.06711
20
-3.24972
11
6.06737
21
-3.25045
0
LINE
8
BLACK
6
CONTINUOUS
10
6.06737
20
-3.25045
11
6.06737
21
-3.25982
0
LINE
8
BLACK
6
CONTINUOUS
10
6.06737
20
-3.25982
11
6.06722
21
-3.26069
0
LINE
8
BLACK
6
CONTINUOUS
10
6.06722
20
-3.26069
11
6.06722
21
-3.26075
0
LINE
8
BLACK
6
CONTINUOUS
10
6.06722
20
-3.26075
11
6.06534
21
-3.26638
0
LINE
8
BLACK
6
CONTINUOUS
10
6.06534
20
-3.26638
11
6.06486
21
-3.26728
0
LINE
8
BLACK
6
CONTINUOUS
10
6.06486
20
-3.26728
11
6.06471
21
-3.26737
0
LINE
8
BLACK
6
CONTINUOUS
10
6.06471
20
-3.26737
11
6.06463
21
-3.26753
0
LINE
8
BLACK
6
CONTINUOUS
10
6.06463
20
-3.26753
11
6.06088
21
-3.27128
0
LINE
8
BLACK
6
CONTINUOUS
10
6.06088
20
-3.27128
11
6.06016
21
-3.27179
0
LINE
8
BLACK
6
CONTINUOUS
10
6.06016
20
-3.27179
11
6.06011
21
-3.27183
0
LINE
8
BLACK
6
CONTINUOUS
10
6.06011
20
-3.27183
11
6.05636
21
-3.27371
0
LINE
8
BLACK
6
CONTINUOUS
10
6.05636
20
-3.27371
11
6.05588
21
-3.27385
0
LINE
8
BLACK
6
CONTINUOUS
10
6.05588
20
-3.27385
11
6.05576
21
-3.27393
0
LINE
8
BLACK
6
CONTINUOUS
10
6.05576
20
-3.27393
11
6.04826
21
-3.27581
0
LINE
8
BLACK
6
CONTINUOUS
10
6.04826
20
-3.27581
11
6.04767
21
-3.27585
0
LINE
8
BLACK
6
CONTINUOUS
10
6.04767
20
-3.27585
11
6.04755
21
-3.27589
0
LINE
8
BLACK
6
CONTINUOUS
10
6.04755
20
-3.27589
11
6.04192
21
-3.27589
0
LINE
8
BLACK
6
CONTINUOUS
10
6.04192
20
-3.27589
11
6.04134
21
-3.27579
0
LINE
8
BLACK
6
CONTINUOUS
10
6.04134
20
-3.27579
11
6.0412
21
-3.27581
0
LINE
8
BLACK
6
CONTINUOUS
10
6.0412
20
-3.27581
11
6.03371
21
-3.27393
0
LINE
8
BLACK
6
CONTINUOUS
10
6.03371
20
-3.27393
11
6.03324
21
-3.27372
0
LINE
8
BLACK
6
CONTINUOUS
10
6.03324
20
-3.27372
11
6.0331
21
-3.27371
0
LINE
8
BLACK
6
CONTINUOUS
10
6.0331
20
-3.27371
11
6.02935
21
-3.27183
0
LINE
8
BLACK
6
CONTINUOUS
10
6.02935
20
-3.27183
11
6.02864
21
-3.27131
0
LINE
8
BLACK
6
CONTINUOUS
10
6.02864
20
-3.27131
11
6.02858
21
-3.27128
0
LINE
8
BLACK
6
CONTINUOUS
10
6.02858
20
-3.27128
11
6.02483
21
-3.26753
0
LINE
8
BLACK
6
CONTINUOUS
10
6.02483
20
-3.26753
11
6.02425
21
-3.26669
0
LINE
8
BLACK
6
CONTINUOUS
10
6.02425
20
-3.26669
11
6.02423
21
-3.26652
0
LINE
8
BLACK
6
CONTINUOUS
10
6.02423
20
-3.26652
11
6.02412
21
-3.26638
0
LINE
8
BLACK
6
CONTINUOUS
10
6.02412
20
-3.26638
11
6.02225
21
-3.26075
0
LINE
8
BLACK
6
CONTINUOUS
10
6.02225
20
-3.26075
11
6.02212
21
-3.25988
0
LINE
8
BLACK
6
CONTINUOUS
10
6.02212
20
-3.25988
11
6.0221
21
-3.25982
0
LINE
8
BLACK
6
CONTINUOUS
10
6.0221
20
-3.25982
11
6.0221
21
-3.25045
0
LINE
8
BLACK
6
CONTINUOUS
10
6.0221
20
-3.25045
11
6.02216
21
-3.25006
0
LINE
8
BLACK
6
CONTINUOUS
10
6.02216
20
-3.25006
11
6.02214
21
-3.24993
0
LINE
8
BLACK
6
CONTINUOUS
10
6.02214
20
-3.24993
11
6.02221
21
-3.24982
0
LINE
8
BLACK
6
CONTINUOUS
10
6.02221
20
-3.24982
11
6.02227
21
-3.24944
0
LINE
8
BLACK
6
CONTINUOUS
10
6.02227
20
-3.24944
11
6.02277
21
-3.24885
0
LINE
8
BLACK
6
CONTINUOUS
10
6.02277
20
-3.24885
11
6.02315
21
-3.24818
0
LINE
8
BLACK
6
CONTINUOUS
10
6.02315
20
-3.24818
11
6.0234
21
-3.24809
0
LINE
8
BLACK
6
CONTINUOUS
10
6.0234
20
-3.24809
11
6.02357
21
-3.24789
0
LINE
8
BLACK
6
CONTINUOUS
10
6.02357
20
-3.24789
11
6.02433
21
-3.24775
0
LINE
8
BLACK
6
CONTINUOUS
10
6.02433
20
-3.24775
11
6.02505
21
-3.24749
0
LINE
8
BLACK
6
CONTINUOUS
10
6.02505
20
-3.24749
11
6.06442
21
-3.24749
0
LINE
8
BLACK
6
CONTINUOUS
10
6.06442
20
-3.24749
11
6.0648
21
-3.24756
0
LINE
8
BLACK
6
CONTINUOUS
10
6.028
20
-3.25934
11
6.0295
21
-3.26385
0
LINE
8
BLACK
6
CONTINUOUS
10
6.0295
20
-3.26385
11
6.03242
21
-3.26677
0
LINE
8
BLACK
6
CONTINUOUS
10
6.03242
20
-3.26677
11
6.03545
21
-3.26828
0
LINE
8
BLACK
6
CONTINUOUS
10
6.03545
20
-3.26828
11
6.04228
21
-3.26999
0
LINE
8
BLACK
6
CONTINUOUS
10
6.04228
20
-3.26999
11
6.04718
21
-3.26999
0
LINE
8
BLACK
6
CONTINUOUS
10
6.04718
20
-3.26999
11
6.05401
21
-3.26828
0
LINE
8
BLACK
6
CONTINUOUS
10
6.05401
20
-3.26828
11
6.05704
21
-3.26677
0
LINE
8
BLACK
6
CONTINUOUS
10
6.05704
20
-3.26677
11
6.05996
21
-3.26385
0
LINE
8
BLACK
6
CONTINUOUS
10
6.05996
20
-3.26385
11
6.06147
21
-3.25934
0
LINE
8
BLACK
6
CONTINUOUS
10
6.06147
20
-3.25934
11
6.06147
21
-3.2534
0
LINE
8
BLACK
6
CONTINUOUS
10
6.06147
20
-3.2534
11
6.028
21
-3.2534
0
LINE
8
BLACK
6
CONTINUOUS
10
6.028
20
-3.2534
11
6.028
21
-3.25934
0
LINE
8
BLACK
6
CONTINUOUS
10
6.08652
20
-3.01323
11
6.08807
21
-3.01453
0
LINE
8
BLACK
6
CONTINUOUS
10
6.08807
20
-3.01453
11
6.08842
21
-3.01652
0
LINE
8
BLACK
6
CONTINUOUS
10
6.08842
20
-3.01652
11
6.08741
21
-3.01827
0
LINE
8
BLACK
6
CONTINUOUS
10
6.08741
20
-3.01827
11
6.08551
21
-3.01896
0
LINE
8
BLACK
6
CONTINUOUS
10
6.08551
20
-3.01896
11
6.02551
21
-3.01896
0
LINE
8
BLACK
6
CONTINUOUS
10
6.02551
20
-3.01896
11
6.0245
21
-3.01878
0
LINE
8
BLACK
6
CONTINUOUS
10
6.0245
20
-3.01878
11
6.02295
21
-3.01748
0
LINE
8
BLACK
6
CONTINUOUS
10
6.02295
20
-3.01748
11
6.0226
21
-3.01549
0
LINE
8
BLACK
6
CONTINUOUS
10
6.0226
20
-3.01549
11
6.02361
21
-3.01374
0
LINE
8
BLACK
6
CONTINUOUS
10
6.02361
20
-3.01374
11
6.02551
21
-3.01305
0
LINE
8
BLACK
6
CONTINUOUS
10
6.02551
20
-3.01305
11
6.08551
21
-3.01305
0
LINE
8
BLACK
6
CONTINUOUS
10
6.08551
20
-3.01305
11
6.08652
21
-3.01323
0
LINE
8
BLACK
6
CONTINUOUS
10
6.18652
20
-3.01323
11
6.18807
21
-3.01453
0
LINE
8
BLACK
6
CONTINUOUS
10
6.18807
20
-3.01453
11
6.18842
21
-3.01652
0
LINE
8
BLACK
6
CONTINUOUS
10
6.18842
20
-3.01652
11
6.18741
21
-3.01827
0
LINE
8
BLACK
6
CONTINUOUS
10
6.18741
20
-3.01827
11
6.18551
21
-3.01896
0
LINE
8
BLACK
6
CONTINUOUS
10
6.18551
20
-3.01896
11
6.12551
21
-3.01896
0
LINE
8
BLACK
6
CONTINUOUS
10
6.12551
20
-3.01896
11
6.1245
21
-3.01878
0
LINE
8
BLACK
6
CONTINUOUS
10
6.1245
20
-3.01878
11
6.12295
21
-3.01748
0
LINE
8
BLACK
6
CONTINUOUS
10
6.12295
20
-3.01748
11
6.1226
21
-3.01549
0
LINE
8
BLACK
6
CONTINUOUS
10
6.1226
20
-3.01549
11
6.12361
21
-3.01374
0
LINE
8
BLACK
6
CONTINUOUS
10
6.12361
20
-3.01374
11
6.12551
21
-3.01305
0
LINE
8
BLACK
6
CONTINUOUS
10
6.12551
20
-3.01305
11
6.18551
21
-3.01305
0
LINE
8
BLACK
6
CONTINUOUS
10
6.18551
20
-3.01305
11
6.18652
21
-3.01323
0
LINE
8
BLACK
6
CONTINUOUS
10
6.28652
20
-3.01323
11
6.28807
21
-3.01453
0
LINE
8
BLACK
6
CONTINUOUS
10
6.28807
20
-3.01453
11
6.28842
21
-3.01652
0
LINE
8
BLACK
6
CONTINUOUS
10
6.28842
20
-3.01652
11
6.28741
21
-3.01827
0
LINE
8
BLACK
6
CONTINUOUS
10
6.28741
20
-3.01827
11
6.28551
21
-3.01896
0
LINE
8
BLACK
6
CONTINUOUS
10
6.28551
20
-3.01896
11
6.22551
21
-3.01896
0
LINE
8
BLACK
6
CONTINUOUS
10
6.22551
20
-3.01896
11
6.2245
21
-3.01878
0
LINE
8
BLACK
6
CONTINUOUS
10
6.2245
20
-3.01878
11
6.22295
21
-3.01748
0
LINE
8
BLACK
6
CONTINUOUS
10
6.22295
20
-3.01748
11
6.2226
21
-3.01549
0
LINE
8
BLACK
6
CONTINUOUS
10
6.2226
20
-3.01549
11
6.22361
21
-3.01374
0
LINE
8
BLACK
6
CONTINUOUS
10
6.22361
20
-3.01374
11
6.22551
21
-3.01305
0
LINE
8
BLACK
6
CONTINUOUS
10
6.22551
20
-3.01305
11
6.28551
21
-3.01305
0
LINE
8
BLACK
6
CONTINUOUS
10
6.28551
20
-3.01305
11
6.28652
21
-3.01323
0
LINE
8
BLACK
6
CONTINUOUS
10
6.38652
20
-3.01323
11
6.38807
21
-3.01453
0
LINE
8
BLACK
6
CONTINUOUS
10
6.38807
20
-3.01453
11
6.38842
21
-3.01652
0
LINE
8
BLACK
6
CONTINUOUS
10
6.38842
20
-3.01652
11
6.38741
21
-3.01827
0
LINE
8
BLACK
6
CONTINUOUS
10
6.38741
20
-3.01827
11
6.38551
21
-3.01896
0
LINE
8
BLACK
6
CONTINUOUS
10
6.38551
20
-3.01896
11
6.32551
21
-3.01896
0
LINE
8
BLACK
6
CONTINUOUS
10
6.32551
20
-3.01896
11
6.3245
21
-3.01878
0
LINE
8
BLACK
6
CONTINUOUS
10
6.3245
20
-3.01878
11
6.32295
21
-3.01748
0
LINE
8
BLACK
6
CONTINUOUS
10
6.32295
20
-3.01748
11
6.3226
21
-3.01549
0
LINE
8
BLACK
6
CONTINUOUS
10
6.3226
20
-3.01549
11
6.32361
21
-3.01374
0
LINE
8
BLACK
6
CONTINUOUS
10
6.32361
20
-3.01374
11
6.32551
21
-3.01305
0
LINE
8
BLACK
6
CONTINUOUS
10
6.32551
20
-3.01305
11
6.38551
21
-3.01305
0
LINE
8
BLACK
6
CONTINUOUS
10
6.38551
20
-3.01305
11
6.38652
21
-3.01323
0
LINE
8
BLACK
6
CONTINUOUS
10
6.02718
20
-2.93933
11
6.02787
21
-2.941
0
LINE
8
BLACK
6
CONTINUOUS
10
6.02787
20
-2.941
11
6.02787
21
-2.971
0
LINE
8
BLACK
6
CONTINUOUS
10
6.02787
20
-2.971
11
6.02718
21
-2.97267
0
LINE
8
BLACK
6
CONTINUOUS
10
6.02718
20
-2.97267
11
6.02551
21
-2.97337
0
LINE
8
BLACK
6
CONTINUOUS
10
6.02551
20
-2.97337
11
6.02384
21
-2.97267
0
LINE
8
BLACK
6
CONTINUOUS
10
6.02384
20
-2.97267
11
6.02315
21
-2.971
0
LINE
8
BLACK
6
CONTINUOUS
10
6.02315
20
-2.971
11
6.02315
21
-2.941
0
LINE
8
BLACK
6
CONTINUOUS
10
6.02315
20
-2.941
11
6.02384
21
-2.93933
0
LINE
8
BLACK
6
CONTINUOUS
10
6.02384
20
-2.93933
11
6.02551
21
-2.93864
0
LINE
8
BLACK
6
CONTINUOUS
10
6.02551
20
-2.93864
11
6.02718
21
-2.93933
0
LINE
8
BLACK
6
CONTINUOUS
10
6.08718
20
-2.93933
11
6.08787
21
-2.941
0
LINE
8
BLACK
6
CONTINUOUS
10
6.08787
20
-2.941
11
6.08787
21
-2.971
0
LINE
8
BLACK
6
CONTINUOUS
10
6.08787
20
-2.971
11
6.08718
21
-2.97267
0
LINE
8
BLACK
6
CONTINUOUS
10
6.08718
20
-2.97267
11
6.08551
21
-2.97337
0
LINE
8
BLACK
6
CONTINUOUS
10
6.08551
20
-2.97337
11
6.08384
21
-2.97267
0
LINE
8
BLACK
6
CONTINUOUS
10
6.08384
20
-2.97267
11
6.08315
21
-2.971
0
LINE
8
BLACK
6
CONTINUOUS
10
6.08315
20
-2.971
11
6.08315
21
-2.941
0
LINE
8
BLACK
6
CONTINUOUS
10
6.08315
20
-2.941
11
6.08384
21
-2.93933
0
LINE
8
BLACK
6
CONTINUOUS
10
6.08384
20
-2.93933
11
6.08551
21
-2.93864
0
LINE
8
BLACK
6
CONTINUOUS
10
6.08551
20
-2.93864
11
6.08718
21
-2.93933
0
LINE
8
BLACK
6
CONTINUOUS
10
6.12718
20
-2.93933
11
6.12787
21
-2.941
0
LINE
8
BLACK
6
CONTINUOUS
10
6.12787
20
-2.941
11
6.12787
21
-2.971
0
LINE
8
BLACK
6
CONTINUOUS
10
6.12787
20
-2.971
11
6.12718
21
-2.97267
0
LINE
8
BLACK
6
CONTINUOUS
10
6.12718
20
-2.97267
11
6.12551
21
-2.97337
0
LINE
8
BLACK
6
CONTINUOUS
10
6.12551
20
-2.97337
11
6.12384
21
-2.97267
0
LINE
8
BLACK
6
CONTINUOUS
10
6.12384
20
-2.97267
11
6.12315
21
-2.971
0
LINE
8
BLACK
6
CONTINUOUS
10
6.12315
20
-2.971
11
6.12315
21
-2.941
0
LINE
8
BLACK
6
CONTINUOUS
10
6.12315
20
-2.941
11
6.12384
21
-2.93933
0
LINE
8
BLACK
6
CONTINUOUS
10
6.12384
20
-2.93933
11
6.12551
21
-2.93864
0
LINE
8
BLACK
6
CONTINUOUS
10
6.12551
20
-2.93864
11
6.12718
21
-2.93933
0
LINE
8
BLACK
6
CONTINUOUS
10
6.18718
20
-2.93933
11
6.18787
21
-2.941
0
LINE
8
BLACK
6
CONTINUOUS
10
6.18787
20
-2.941
11
6.18787
21
-2.971
0
LINE
8
BLACK
6
CONTINUOUS
10
6.18787
20
-2.971
11
6.18718
21
-2.97267
0
LINE
8
BLACK
6
CONTINUOUS
10
6.18718
20
-2.97267
11
6.18551
21
-2.97337
0
LINE
8
BLACK
6
CONTINUOUS
10
6.18551
20
-2.97337
11
6.18384
21
-2.97267
0
LINE
8
BLACK
6
CONTINUOUS
10
6.18384
20
-2.97267
11
6.18315
21
-2.971
0
LINE
8
BLACK
6
CONTINUOUS
10
6.18315
20
-2.971
11
6.18315
21
-2.941
0
LINE
8
BLACK
6
CONTINUOUS
10
6.18315
20
-2.941
11
6.18384
21
-2.93933
0
LINE
8
BLACK
6
CONTINUOUS
10
6.18384
20
-2.93933
11
6.18551
21
-2.93864
0
LINE
8
BLACK
6
CONTINUOUS
10
6.18551
20
-2.93864
11
6.18718
21
-2.93933
0
LINE
8
BLACK
6
CONTINUOUS
10
6.22718
20
-2.93933
11
6.22787
21
-2.941
0
LINE
8
BLACK
6
CONTINUOUS
10
6.22787
20
-2.941
11
6.22787
21
-2.971
0
LINE
8
BLACK
6
CONTINUOUS
10
6.22787
20
-2.971
11
6.22718
21
-2.97267
0
LINE
8
BLACK
6
CONTINUOUS
10
6.22718
20
-2.97267
11
6.22551
21
-2.97337
0
LINE
8
BLACK
6
CONTINUOUS
10
6.22551
20
-2.97337
11
6.22384
21
-2.97267
0
LINE
8
BLACK
6
CONTINUOUS
10
6.22384
20
-2.97267
11
6.22315
21
-2.971
0
LINE
8
BLACK
6
CONTINUOUS
10
6.22315
20
-2.971
11
6.22315
21
-2.941
0
LINE
8
BLACK
6
CONTINUOUS
10
6.22315
20
-2.941
11
6.22384
21
-2.93933
0
LINE
8
BLACK
6
CONTINUOUS
10
6.22384
20
-2.93933
11
6.22551
21
-2.93864
0
LINE
8
BLACK
6
CONTINUOUS
10
6.22551
20
-2.93864
11
6.22718
21
-2.93933
0
LINE
8
BLACK
6
CONTINUOUS
10
6.28718
20
-2.93933
11
6.28787
21
-2.941
0
LINE
8
BLACK
6
CONTINUOUS
10
6.28787
20
-2.941
11
6.28787
21
-2.971
0
LINE
8
BLACK
6
CONTINUOUS
10
6.28787
20
-2.971
11
6.28718
21
-2.97267
0
LINE
8
BLACK
6
CONTINUOUS
10
6.28718
20
-2.97267
11
6.28551
21
-2.97337
0
LINE
8
BLACK
6
CONTINUOUS
10
6.28551
20
-2.97337
11
6.28384
21
-2.97267
0
LINE
8
BLACK
6
CONTINUOUS
10
6.28384
20
-2.97267
11
6.28315
21
-2.971
0
LINE
8
BLACK
6
CONTINUOUS
10
6.28315
20
-2.971
11
6.28315
21
-2.941
0
LINE
8
BLACK
6
CONTINUOUS
10
6.28315
20
-2.941
11
6.28384
21
-2.93933
0
LINE
8
BLACK
6
CONTINUOUS
10
6.28384
20
-2.93933
11
6.28551
21
-2.93864
0
LINE
8
BLACK
6
CONTINUOUS
10
6.28551
20
-2.93864
11
6.28718
21
-2.93933
0
LINE
8
BLACK
6
CONTINUOUS
10
6.32718
20
-2.93933
11
6.32787
21
-2.941
0
LINE
8
BLACK
6
CONTINUOUS
10
6.32787
20
-2.941
11
6.32787
21
-2.971
0
LINE
8
BLACK
6
CONTINUOUS
10
6.32787
20
-2.971
11
6.32718
21
-2.97267
0
LINE
8
BLACK
6
CONTINUOUS
10
6.32718
20
-2.97267
11
6.32551
21
-2.97337
0
LINE
8
BLACK
6
CONTINUOUS
10
6.32551
20
-2.97337
11
6.32384
21
-2.97267
0
LINE
8
BLACK
6
CONTINUOUS
10
6.32384
20
-2.97267
11
6.32315
21
-2.971
0
LINE
8
BLACK
6
CONTINUOUS
10
6.32315
20
-2.971
11
6.32315
21
-2.941
0
LINE
8
BLACK
6
CONTINUOUS
10
6.32315
20
-2.941
11
6.32384
21
-2.93933
0
LINE
8
BLACK
6
CONTINUOUS
10
6.32384
20
-2.93933
11
6.32551
21
-2.93864
0
LINE
8
BLACK
6
CONTINUOUS
10
6.32551
20
-2.93864
11
6.32718
21
-2.93933
0
LINE
8
BLACK
6
CONTINUOUS
10
6.38718
20
-2.93933
11
6.38787
21
-2.941
0
LINE
8
BLACK
6
CONTINUOUS
10
6.38787
20
-2.941
11
6.38787
21
-2.971
0
LINE
8
BLACK
6
CONTINUOUS
10
6.38787
20
-2.971
11
6.38718
21
-2.97267
0
LINE
8
BLACK
6
CONTINUOUS
10
6.38718
20
-2.97267
11
6.38551
21
-2.97337
0
LINE
8
BLACK
6
CONTINUOUS
10
6.38551
20
-2.97337
11
6.38384
21
-2.97267
0
LINE
8
BLACK
6
CONTINUOUS
10
6.38384
20
-2.97267
11
6.38315
21
-2.971
0
LINE
8
BLACK
6
CONTINUOUS
10
6.38315
20
-2.971
11
6.38315
21
-2.941
0
LINE
8
BLACK
6
CONTINUOUS
10
6.38315
20
-2.941
11
6.38384
21
-2.93933
0
LINE
8
BLACK
6
CONTINUOUS
10
6.38384
20
-2.93933
11
6.38551
21
-2.93864
0
LINE
8
BLACK
6
CONTINUOUS
10
6.38551
20
-2.93864
11
6.38718
21
-2.93933
0
LINE
8
BLACK
6
CONTINUOUS
10
6.08652
20
-2.89323
11
6.08807
21
-2.89453
0
LINE
8
BLACK
6
CONTINUOUS
10
6.08807
20
-2.89453
11
6.08842
21
-2.89652
0
LINE
8
BLACK
6
CONTINUOUS
10
6.08842
20
-2.89652
11
6.08741
21
-2.89827
0
LINE
8
BLACK
6
CONTINUOUS
10
6.08741
20
-2.89827
11
6.08551
21
-2.89896
0
LINE
8
BLACK
6
CONTINUOUS
10
6.08551
20
-2.89896
11
6.02551
21
-2.89896
0
LINE
8
BLACK
6
CONTINUOUS
10
6.02551
20
-2.89896
11
6.0245
21
-2.89878
0
LINE
8
BLACK
6
CONTINUOUS
10
6.0245
20
-2.89878
11
6.02295
21
-2.89748
0
LINE
8
BLACK
6
CONTINUOUS
10
6.02295
20
-2.89748
11
6.0226
21
-2.89549
0
LINE
8
BLACK
6
CONTINUOUS
10
6.0226
20
-2.89549
11
6.02361
21
-2.89374
0
LINE
8
BLACK
6
CONTINUOUS
10
6.02361
20
-2.89374
11
6.02551
21
-2.89305
0
LINE
8
BLACK
6
CONTINUOUS
10
6.02551
20
-2.89305
11
6.08551
21
-2.89305
0
LINE
8
BLACK
6
CONTINUOUS
10
6.08551
20
-2.89305
11
6.08652
21
-2.89323
0
LINE
8
BLACK
6
CONTINUOUS
10
6.18652
20
-2.89323
11
6.18807
21
-2.89453
0
LINE
8
BLACK
6
CONTINUOUS
10
6.18807
20
-2.89453
11
6.18842
21
-2.89652
0
LINE
8
BLACK
6
CONTINUOUS
10
6.18842
20
-2.89652
11
6.18741
21
-2.89827
0
LINE
8
BLACK
6
CONTINUOUS
10
6.18741
20
-2.89827
11
6.18551
21
-2.89896
0
LINE
8
BLACK
6
CONTINUOUS
10
6.18551
20
-2.89896
11
6.12551
21
-2.89896
0
LINE
8
BLACK
6
CONTINUOUS
10
6.12551
20
-2.89896
11
6.1245
21
-2.89878
0
LINE
8
BLACK
6
CONTINUOUS
10
6.1245
20
-2.89878
11
6.12295
21
-2.89748
0
LINE
8
BLACK
6
CONTINUOUS
10
6.12295
20
-2.89748
11
6.1226
21
-2.89549
0
LINE
8
BLACK
6
CONTINUOUS
10
6.1226
20
-2.89549
11
6.12361
21
-2.89374
0
LINE
8
BLACK
6
CONTINUOUS
10
6.12361
20
-2.89374
11
6.12551
21
-2.89305
0
LINE
8
BLACK
6
CONTINUOUS
10
6.12551
20
-2.89305
11
6.18551
21
-2.89305
0
LINE
8
BLACK
6
CONTINUOUS
10
6.18551
20
-2.89305
11
6.18652
21
-2.89323
0
LINE
8
BLACK
6
CONTINUOUS
10
6.28652
20
-2.89323
11
6.28807
21
-2.89453
0
LINE
8
BLACK
6
CONTINUOUS
10
6.28807
20
-2.89453
11
6.28842
21
-2.89652
0
LINE
8
BLACK
6
CONTINUOUS
10
6.28842
20
-2.89652
11
6.28741
21
-2.89827
0
LINE
8
BLACK
6
CONTINUOUS
10
6.28741
20
-2.89827
11
6.28551
21
-2.89896
0
LINE
8
BLACK
6
CONTINUOUS
10
6.28551
20
-2.89896
11
6.22551
21
-2.89896
0
LINE
8
BLACK
6
CONTINUOUS
10
6.22551
20
-2.89896
11
6.2245
21
-2.89878
0
LINE
8
BLACK
6
CONTINUOUS
10
6.2245
20
-2.89878
11
6.22295
21
-2.89748
0
LINE
8
BLACK
6
CONTINUOUS
10
6.22295
20
-2.89748
11
6.2226
21
-2.89549
0
LINE
8
BLACK
6
CONTINUOUS
10
6.2226
20
-2.89549
11
6.22361
21
-2.89374
0
LINE
8
BLACK
6
CONTINUOUS
10
6.22361
20
-2.89374
11
6.22551
21
-2.89305
0
LINE
8
BLACK
6
CONTINUOUS
10
6.22551
20
-2.89305
11
6.28551
21
-2.89305
0
LINE
8
BLACK
6
CONTINUOUS
10
6.28551
20
-2.89305
11
6.28652
21
-2.89323
0
LINE
8
BLACK
6
CONTINUOUS
10
6.38652
20
-2.89323
11
6.38807
21
-2.89453
0
LINE
8
BLACK
6
CONTINUOUS
10
6.38807
20
-2.89453
11
6.38842
21
-2.89652
0
LINE
8
BLACK
6
CONTINUOUS
10
6.38842
20
-2.89652
11
6.38741
21
-2.89827
0
LINE
8
BLACK
6
CONTINUOUS
10
6.38741
20
-2.89827
11
6.38551
21
-2.89896
0
LINE
8
BLACK
6
CONTINUOUS
10
6.38551
20
-2.89896
11
6.32551
21
-2.89896
0
LINE
8
BLACK
6
CONTINUOUS
10
6.32551
20
-2.89896
11
6.3245
21
-2.89878
0
LINE
8
BLACK
6
CONTINUOUS
10
6.3245
20
-2.89878
11
6.32295
21
-2.89748
0
LINE
8
BLACK
6
CONTINUOUS
10
6.32295
20
-2.89748
11
6.3226
21
-2.89549
0
LINE
8
BLACK
6
CONTINUOUS
10
6.3226
20
-2.89549
11
6.32361
21
-2.89374
0
LINE
8
BLACK
6
CONTINUOUS
10
6.32361
20
-2.89374
11
6.32551
21
-2.89305
0
LINE
8
BLACK
6
CONTINUOUS
10
6.32551
20
-2.89305
11
6.38551
21
-2.89305
0
LINE
8
BLACK
6
CONTINUOUS
10
6.38551
20
-2.89305
11
6.38652
21
-2.89323
0
CIRCLE
8
BLACK
10
6.05551
20
-3.1685
40
0.00688976
0
CIRCLE
8
BLACK
10
6.05551
20
-3.0685
40
0.00688976
0
CIRCLE
8
BLACK
10
6.35551
20
-3.1685
40
0.00688976
0
CIRCLE
8
BLACK
10
6.35551
20
-3.0685
40
0.00688976
0
CIRCLE
8
BLACK
10
6.25551
20
-3.1685
40
0.00688976
0
CIRCLE
8
BLACK
10
6.25551
20
-3.0685
40
0.00688976
0
CIRCLE
8
BLACK
10
6.45051
20
-4.2885
40
0.00688976
0
CIRCLE
8
BLACK
10
6.45051
20
-4.1885
40
0.00688976
0
CIRCLE
8
BLACK
10
6.63051
20
-3.8685
40
0.00688976
0
CIRCLE
8
BLACK
10
6.53051
20
-3.7685
40
0.00688976
0
CIRCLE
8
BLACK
10
6.53051
20
-3.9685
40
0.00688976
0
CIRCLE
8
BLACK
10
6.73051
20
-3.7685
40
0.00688976
0
CIRCLE
8
BLACK
10
6.73051
20
-3.9685
40
0.00688976
0
CIRCLE
8
BLACK
10
5.48051
20
-3.0435
40
0.00688976
0
CIRCLE
8
BLACK
10
5.73051
20
-3.0935
40
0.00688976
0
CIRCLE
8
BLACK
10
5.73051
20
-2.9935
40
0.00688976
0
CIRCLE
8
BLACK
10
5.83051
20
-3.0935
40
0.00688976
0
CIRCLE
8
BLACK
10
5.83051
20
-2.9935
40
0.00688976
0
CIRCLE
8
BLACK
10
5.93051
20
-3.0935
40
0.00688976
0
CIRCLE
8
BLACK
10
5.93051
20
-2.9935
40
0.00688976
0
CIRCLE
8
BLACK
10
6.68051
20
-4.2435
40
0.00688976
0
CIRCLE
8
BLACK
10
6.15551
20
-3.1685
40
0.00688976
0
CIRCLE
8
BLACK
10
6.15551
20
-3.0685
40
0.00688976
0
CIRCLE
8
BLACK
10
5.53051
20
-3.4185
40
0.00688976
0
CIRCLE
8
BLACK
10
5.43051
20
-3.3185
40
0.00688976
0
CIRCLE
8
BLACK
10
5.43051
20
-3.5185
40
0.00688976
0
CIRCLE
8
BLACK
10
5.63051
20
-3.3185
40
0.00688976
0
CIRCLE
8
BLACK
10
5.63051
20
-3.5185
40
0.00688976
0
CIRCLE
8
BLACK
10
6.68051
20
-3.0435
40
0.00688976
0
CIRCLE
8
BLACK
10
6.63051
20
-3.4185
40
0.00688976
0
CIRCLE
8
BLACK
10
6.53051
20
-3.3185
40
0.00688976
0
CIRCLE
8
BLACK
10
6.53051
20
-3.5185
40
0.00688976
0
CIRCLE
8
BLACK
10
6.73051
20
-3.3185
40
0.00688976
0
CIRCLE
8
BLACK
10
6.73051
20
-3.5185
40
0.00688976
0
CIRCLE
8
BLACK
10
5.53051
20
-3.8685
40
0.00688976
0
CIRCLE
8
BLACK
10
5.43051
20
-3.7685
40
0.00688976
0
CIRCLE
8
BLACK
10
5.43051
20
-3.9685
40
0.00688976
0
CIRCLE
8
BLACK
10
5.63051
20
-3.7685
40
0.00688976
0
CIRCLE
8
BLACK
10
5.63051
20
-3.9685
40
0.00688976
0
CIRCLE
8
BLACK
10
5.48051
20
-4.2435
40
0.00688976
0
CIRCLE
8
BLACK
10
6.13551
20
-4.2885
40
0.00688976
  0
ENDSEC
  0
EOF
