  0
SECTION
  2
HEADER
  9
$ANGBASE
  50
0.0
  9
$ANGDIR
  70
1
  9
$MEASUREMENT
  70
0
  0
ENDSEC
  0
SECTION
  2
TABLES
  0
TABLE
  2
LTYPE
  70
4
  0
LTYPE
  5
40F
  2
CONTINUOUS
  70
0
  3
Solid line
  72
65
  73
0
  40
0.0
  0
LTYPE
  5
410
  2
DASHDOT
 70
0
  3
Dash Dot ____ _ ____ _
 72
65
 73
4
 40
2.0
 49
1.25
 49
-0.25
 49
0.25
 49
-0.25
  0
LTYPE
  5
411
  2
DASHED
 70
0
  3
Dashed __ __ __ __ __
 72
65
 73
2
 40
0.75
 49
0.5
 49
-0.25
  0
LTYPE
  5
43B
  2
DOTTED
 70
0
  3
Dotted .  .  .  .
 72
65
 73
2
 40
0.2
 49
0.0
 49
-0.2
  0
ENDTAB
  0
TABLE
  2
STYLE
  70
4
  0
STYLE
  2
KICAD
  70
0
  40
0
  41
1
  42
1
  50
0
  71
0
  3
isocp.shx
  0
STYLE
  2
KICADB
  70
0
  40
0
  41
1
  42
1
  50
0
  71
0
  3
isocp.shx
  0
STYLE
  2
KICADI
  70
0
  40
0
  41
1
  42
1
  50
15
  71
0
  3
isocp.shx
  0
STYLE
  2
KICADBI
  70
0
  40
0
  41
1
  42
1
  50
15
  71
0
  3
isocp.shx
  0
ENDTAB
  0
TABLE
  2
LAYER
  70
1
  0
LAYER
  2
BLACK
  70
0
  62
7
  6
CONTINUOUS
  0
ENDTAB
  0
ENDSEC
  0
SECTION
  2
ENTITIES
0
LINE
8
BLACK
6
CONTINUOUS
10
5.50102
20
-4.12719
11
5.51439
21
-4.13036
0
LINE
8
BLACK
6
CONTINUOUS
10
5.51439
20
-4.13036
11
5.52729
21
-4.13505
0
LINE
8
BLACK
6
CONTINUOUS
10
5.52729
20
-4.13505
11
5.53957
21
-4.14122
0
LINE
8
BLACK
6
CONTINUOUS
10
5.53957
20
-4.14122
11
5.55104
21
-4.14876
0
LINE
8
BLACK
6
CONTINUOUS
10
5.55104
20
-4.14876
11
5.56156
21
-4.15759
0
LINE
8
BLACK
6
CONTINUOUS
10
5.56156
20
-4.15759
11
5.57099
21
-4.16758
0
LINE
8
BLACK
6
CONTINUOUS
10
5.57099
20
-4.16758
11
5.57919
21
-4.1786
0
LINE
8
BLACK
6
CONTINUOUS
10
5.57919
20
-4.1786
11
5.58606
21
-4.1905
0
LINE
8
BLACK
6
CONTINUOUS
10
5.58606
20
-4.1905
11
5.5915
21
-4.20311
0
LINE
8
BLACK
6
CONTINUOUS
10
5.5915
20
-4.20311
11
5.59544
21
-4.21627
0
LINE
8
BLACK
6
CONTINUOUS
10
5.59544
20
-4.21627
11
5.59782
21
-4.22979
0
LINE
8
BLACK
6
CONTINUOUS
10
5.59782
20
-4.22979
11
5.59862
21
-4.2435
0
LINE
8
BLACK
6
CONTINUOUS
10
5.59862
20
-4.2435
11
5.59782
21
-4.25722
0
LINE
8
BLACK
6
CONTINUOUS
10
5.59782
20
-4.25722
11
5.59544
21
-4.27074
0
LINE
8
BLACK
6
CONTINUOUS
10
5.59544
20
-4.27074
11
5.5915
21
-4.2839
0
LINE
8
BLACK
6
CONTINUOUS
10
5.5915
20
-4.2839
11
5.58606
21
-4.29651
0
LINE
8
BLACK
6
CONTINUOUS
10
5.58606
20
-4.29651
11
5.57919
21
-4.30841
0
LINE
8
BLACK
6
CONTINUOUS
10
5.57919
20
-4.30841
11
5.57099
21
-4.31942
0
LINE
8
BLACK
6
CONTINUOUS
10
5.57099
20
-4.31942
11
5.56156
21
-4.32941
0
LINE
8
BLACK
6
CONTINUOUS
10
5.56156
20
-4.32941
11
5.55104
21
-4.33824
0
LINE
8
BLACK
6
CONTINUOUS
10
5.55104
20
-4.33824
11
5.53957
21
-4.34579
0
LINE
8
BLACK
6
CONTINUOUS
10
5.53957
20
-4.34579
11
5.52729
21
-4.35195
0
LINE
8
BLACK
6
CONTINUOUS
10
5.52729
20
-4.35195
11
5.51439
21
-4.35665
0
LINE
8
BLACK
6
CONTINUOUS
10
5.51439
20
-4.35665
11
5.50102
21
-4.35982
0
LINE
8
BLACK
6
CONTINUOUS
10
5.50102
20
-4.35982
11
5.48738
21
-4.36141
0
LINE
8
BLACK
6
CONTINUOUS
10
5.48738
20
-4.36141
11
5.47364
21
-4.36141
0
LINE
8
BLACK
6
CONTINUOUS
10
5.47364
20
-4.36141
11
5.46
21
-4.35982
0
LINE
8
BLACK
6
CONTINUOUS
10
5.46
20
-4.35982
11
5.44664
21
-4.35665
0
LINE
8
BLACK
6
CONTINUOUS
10
5.44664
20
-4.35665
11
5.43373
21
-4.35195
0
LINE
8
BLACK
6
CONTINUOUS
10
5.43373
20
-4.35195
11
5.42146
21
-4.34579
0
LINE
8
BLACK
6
CONTINUOUS
10
5.42146
20
-4.34579
11
5.40998
21
-4.33824
0
LINE
8
BLACK
6
CONTINUOUS
10
5.40998
20
-4.33824
11
5.39946
21
-4.32941
0
LINE
8
BLACK
6
CONTINUOUS
10
5.39946
20
-4.32941
11
5.39003
21
-4.31942
0
LINE
8
BLACK
6
CONTINUOUS
10
5.39003
20
-4.31942
11
5.38183
21
-4.30841
0
LINE
8
BLACK
6
CONTINUOUS
10
5.38183
20
-4.30841
11
5.37496
21
-4.29651
0
LINE
8
BLACK
6
CONTINUOUS
10
5.37496
20
-4.29651
11
5.36952
21
-4.2839
0
LINE
8
BLACK
6
CONTINUOUS
10
5.36952
20
-4.2839
11
5.36559
21
-4.27074
0
LINE
8
BLACK
6
CONTINUOUS
10
5.36559
20
-4.27074
11
5.3632
21
-4.25722
0
LINE
8
BLACK
6
CONTINUOUS
10
5.3632
20
-4.25722
11
5.3624
21
-4.2435
0
LINE
8
BLACK
6
CONTINUOUS
10
5.3624
20
-4.2435
11
5.3632
21
-4.22979
0
LINE
8
BLACK
6
CONTINUOUS
10
5.3632
20
-4.22979
11
5.36559
21
-4.21627
0
LINE
8
BLACK
6
CONTINUOUS
10
5.36559
20
-4.21627
11
5.36952
21
-4.20311
0
LINE
8
BLACK
6
CONTINUOUS
10
5.36952
20
-4.20311
11
5.37496
21
-4.1905
0
LINE
8
BLACK
6
CONTINUOUS
10
5.37496
20
-4.1905
11
5.38183
21
-4.1786
0
LINE
8
BLACK
6
CONTINUOUS
10
5.38183
20
-4.1786
11
5.39003
21
-4.16758
0
LINE
8
BLACK
6
CONTINUOUS
10
5.39003
20
-4.16758
11
5.39946
21
-4.15759
0
LINE
8
BLACK
6
CONTINUOUS
10
5.39946
20
-4.15759
11
5.40998
21
-4.14876
0
LINE
8
BLACK
6
CONTINUOUS
10
5.40998
20
-4.14876
11
5.42146
21
-4.14122
0
LINE
8
BLACK
6
CONTINUOUS
10
5.42146
20
-4.14122
11
5.43373
21
-4.13505
0
LINE
8
BLACK
6
CONTINUOUS
10
5.43373
20
-4.13505
11
5.44664
21
-4.13036
0
LINE
8
BLACK
6
CONTINUOUS
10
5.44664
20
-4.13036
11
5.46
21
-4.12719
0
LINE
8
BLACK
6
CONTINUOUS
10
5.46
20
-4.12719
11
5.47364
21
-4.12559
0
LINE
8
BLACK
6
CONTINUOUS
10
5.47364
20
-4.12559
11
5.48738
21
-4.12559
0
LINE
8
BLACK
6
CONTINUOUS
10
5.48738
20
-4.12559
11
5.50102
21
-4.12719
0
LINE
8
BLACK
6
CONTINUOUS
10
6.70102
20
-4.12719
11
6.71439
21
-4.13036
0
LINE
8
BLACK
6
CONTINUOUS
10
6.71439
20
-4.13036
11
6.72729
21
-4.13505
0
LINE
8
BLACK
6
CONTINUOUS
10
6.72729
20
-4.13505
11
6.73957
21
-4.14122
0
LINE
8
BLACK
6
CONTINUOUS
10
6.73957
20
-4.14122
11
6.75104
21
-4.14876
0
LINE
8
BLACK
6
CONTINUOUS
10
6.75104
20
-4.14876
11
6.76156
21
-4.15759
0
LINE
8
BLACK
6
CONTINUOUS
10
6.76156
20
-4.15759
11
6.77099
21
-4.16758
0
LINE
8
BLACK
6
CONTINUOUS
10
6.77099
20
-4.16758
11
6.77919
21
-4.1786
0
LINE
8
BLACK
6
CONTINUOUS
10
6.77919
20
-4.1786
11
6.78606
21
-4.1905
0
LINE
8
BLACK
6
CONTINUOUS
10
6.78606
20
-4.1905
11
6.7915
21
-4.20311
0
LINE
8
BLACK
6
CONTINUOUS
10
6.7915
20
-4.20311
11
6.79544
21
-4.21627
0
LINE
8
BLACK
6
CONTINUOUS
10
6.79544
20
-4.21627
11
6.79782
21
-4.22979
0
LINE
8
BLACK
6
CONTINUOUS
10
6.79782
20
-4.22979
11
6.79862
21
-4.2435
0
LINE
8
BLACK
6
CONTINUOUS
10
6.79862
20
-4.2435
11
6.79782
21
-4.25722
0
LINE
8
BLACK
6
CONTINUOUS
10
6.79782
20
-4.25722
11
6.79544
21
-4.27074
0
LINE
8
BLACK
6
CONTINUOUS
10
6.79544
20
-4.27074
11
6.7915
21
-4.2839
0
LINE
8
BLACK
6
CONTINUOUS
10
6.7915
20
-4.2839
11
6.78606
21
-4.29651
0
LINE
8
BLACK
6
CONTINUOUS
10
6.78606
20
-4.29651
11
6.77919
21
-4.30841
0
LINE
8
BLACK
6
CONTINUOUS
10
6.77919
20
-4.30841
11
6.77099
21
-4.31942
0
LINE
8
BLACK
6
CONTINUOUS
10
6.77099
20
-4.31942
11
6.76156
21
-4.32941
0
LINE
8
BLACK
6
CONTINUOUS
10
6.76156
20
-4.32941
11
6.75104
21
-4.33824
0
LINE
8
BLACK
6
CONTINUOUS
10
6.75104
20
-4.33824
11
6.73957
21
-4.34579
0
LINE
8
BLACK
6
CONTINUOUS
10
6.73957
20
-4.34579
11
6.72729
21
-4.35195
0
LINE
8
BLACK
6
CONTINUOUS
10
6.72729
20
-4.35195
11
6.71439
21
-4.35665
0
LINE
8
BLACK
6
CONTINUOUS
10
6.71439
20
-4.35665
11
6.70102
21
-4.35982
0
LINE
8
BLACK
6
CONTINUOUS
10
6.70102
20
-4.35982
11
6.68738
21
-4.36141
0
LINE
8
BLACK
6
CONTINUOUS
10
6.68738
20
-4.36141
11
6.67364
21
-4.36141
0
LINE
8
BLACK
6
CONTINUOUS
10
6.67364
20
-4.36141
11
6.66
21
-4.35982
0
LINE
8
BLACK
6
CONTINUOUS
10
6.66
20
-4.35982
11
6.64664
21
-4.35665
0
LINE
8
BLACK
6
CONTINUOUS
10
6.64664
20
-4.35665
11
6.63373
21
-4.35195
0
LINE
8
BLACK
6
CONTINUOUS
10
6.63373
20
-4.35195
11
6.62146
21
-4.34579
0
LINE
8
BLACK
6
CONTINUOUS
10
6.62146
20
-4.34579
11
6.60998
21
-4.33824
0
LINE
8
BLACK
6
CONTINUOUS
10
6.60998
20
-4.33824
11
6.59946
21
-4.32941
0
LINE
8
BLACK
6
CONTINUOUS
10
6.59946
20
-4.32941
11
6.59003
21
-4.31942
0
LINE
8
BLACK
6
CONTINUOUS
10
6.59003
20
-4.31942
11
6.58183
21
-4.30841
0
LINE
8
BLACK
6
CONTINUOUS
10
6.58183
20
-4.30841
11
6.57496
21
-4.29651
0
LINE
8
BLACK
6
CONTINUOUS
10
6.57496
20
-4.29651
11
6.56952
21
-4.2839
0
LINE
8
BLACK
6
CONTINUOUS
10
6.56952
20
-4.2839
11
6.56559
21
-4.27074
0
LINE
8
BLACK
6
CONTINUOUS
10
6.56559
20
-4.27074
11
6.5632
21
-4.25722
0
LINE
8
BLACK
6
CONTINUOUS
10
6.5632
20
-4.25722
11
6.5624
21
-4.2435
0
LINE
8
BLACK
6
CONTINUOUS
10
6.5624
20
-4.2435
11
6.5632
21
-4.22979
0
LINE
8
BLACK
6
CONTINUOUS
10
6.5632
20
-4.22979
11
6.56559
21
-4.21627
0
LINE
8
BLACK
6
CONTINUOUS
10
6.56559
20
-4.21627
11
6.56952
21
-4.20311
0
LINE
8
BLACK
6
CONTINUOUS
10
6.56952
20
-4.20311
11
6.57496
21
-4.1905
0
LINE
8
BLACK
6
CONTINUOUS
10
6.57496
20
-4.1905
11
6.58183
21
-4.1786
0
LINE
8
BLACK
6
CONTINUOUS
10
6.58183
20
-4.1786
11
6.59003
21
-4.16758
0
LINE
8
BLACK
6
CONTINUOUS
10
6.59003
20
-4.16758
11
6.59946
21
-4.15759
0
LINE
8
BLACK
6
CONTINUOUS
10
6.59946
20
-4.15759
11
6.60998
21
-4.14876
0
LINE
8
BLACK
6
CONTINUOUS
10
6.60998
20
-4.14876
11
6.62146
21
-4.14122
0
LINE
8
BLACK
6
CONTINUOUS
10
6.62146
20
-4.14122
11
6.63373
21
-4.13505
0
LINE
8
BLACK
6
CONTINUOUS
10
6.63373
20
-4.13505
11
6.64664
21
-4.13036
0
LINE
8
BLACK
6
CONTINUOUS
10
6.64664
20
-4.13036
11
6.66
21
-4.12719
0
LINE
8
BLACK
6
CONTINUOUS
10
6.66
20
-4.12719
11
6.67364
21
-4.12559
0
LINE
8
BLACK
6
CONTINUOUS
10
6.67364
20
-4.12559
11
6.68738
21
-4.12559
0
LINE
8
BLACK
6
CONTINUOUS
10
6.68738
20
-4.12559
11
6.70102
21
-4.12719
0
LINE
8
BLACK
6
CONTINUOUS
10
5.50102
20
-2.92719
11
5.51439
21
-2.93036
0
LINE
8
BLACK
6
CONTINUOUS
10
5.51439
20
-2.93036
11
5.52729
21
-2.93505
0
LINE
8
BLACK
6
CONTINUOUS
10
5.52729
20
-2.93505
11
5.53957
21
-2.94122
0
LINE
8
BLACK
6
CONTINUOUS
10
5.53957
20
-2.94122
11
5.55104
21
-2.94876
0
LINE
8
BLACK
6
CONTINUOUS
10
5.55104
20
-2.94876
11
5.56156
21
-2.95759
0
LINE
8
BLACK
6
CONTINUOUS
10
5.56156
20
-2.95759
11
5.57099
21
-2.96758
0
LINE
8
BLACK
6
CONTINUOUS
10
5.57099
20
-2.96758
11
5.57919
21
-2.9786
0
LINE
8
BLACK
6
CONTINUOUS
10
5.57919
20
-2.9786
11
5.58606
21
-2.9905
0
LINE
8
BLACK
6
CONTINUOUS
10
5.58606
20
-2.9905
11
5.5915
21
-3.00311
0
LINE
8
BLACK
6
CONTINUOUS
10
5.5915
20
-3.00311
11
5.59544
21
-3.01627
0
LINE
8
BLACK
6
CONTINUOUS
10
5.59544
20
-3.01627
11
5.59782
21
-3.02979
0
LINE
8
BLACK
6
CONTINUOUS
10
5.59782
20
-3.02979
11
5.59862
21
-3.0435
0
LINE
8
BLACK
6
CONTINUOUS
10
5.59862
20
-3.0435
11
5.59782
21
-3.05722
0
LINE
8
BLACK
6
CONTINUOUS
10
5.59782
20
-3.05722
11
5.59544
21
-3.07074
0
LINE
8
BLACK
6
CONTINUOUS
10
5.59544
20
-3.07074
11
5.5915
21
-3.0839
0
LINE
8
BLACK
6
CONTINUOUS
10
5.5915
20
-3.0839
11
5.58606
21
-3.09651
0
LINE
8
BLACK
6
CONTINUOUS
10
5.58606
20
-3.09651
11
5.57919
21
-3.10841
0
LINE
8
BLACK
6
CONTINUOUS
10
5.57919
20
-3.10841
11
5.57099
21
-3.11942
0
LINE
8
BLACK
6
CONTINUOUS
10
5.57099
20
-3.11942
11
5.56156
21
-3.12941
0
LINE
8
BLACK
6
CONTINUOUS
10
5.56156
20
-3.12941
11
5.55104
21
-3.13824
0
LINE
8
BLACK
6
CONTINUOUS
10
5.55104
20
-3.13824
11
5.53957
21
-3.14579
0
LINE
8
BLACK
6
CONTINUOUS
10
5.53957
20
-3.14579
11
5.52729
21
-3.15195
0
LINE
8
BLACK
6
CONTINUOUS
10
5.52729
20
-3.15195
11
5.51439
21
-3.15665
0
LINE
8
BLACK
6
CONTINUOUS
10
5.51439
20
-3.15665
11
5.50102
21
-3.15982
0
LINE
8
BLACK
6
CONTINUOUS
10
5.50102
20
-3.15982
11
5.48738
21
-3.16141
0
LINE
8
BLACK
6
CONTINUOUS
10
5.48738
20
-3.16141
11
5.47364
21
-3.16141
0
LINE
8
BLACK
6
CONTINUOUS
10
5.47364
20
-3.16141
11
5.46
21
-3.15982
0
LINE
8
BLACK
6
CONTINUOUS
10
5.46
20
-3.15982
11
5.44664
21
-3.15665
0
LINE
8
BLACK
6
CONTINUOUS
10
5.44664
20
-3.15665
11
5.43373
21
-3.15195
0
LINE
8
BLACK
6
CONTINUOUS
10
5.43373
20
-3.15195
11
5.42146
21
-3.14579
0
LINE
8
BLACK
6
CONTINUOUS
10
5.42146
20
-3.14579
11
5.40998
21
-3.13824
0
LINE
8
BLACK
6
CONTINUOUS
10
5.40998
20
-3.13824
11
5.39946
21
-3.12941
0
LINE
8
BLACK
6
CONTINUOUS
10
5.39946
20
-3.12941
11
5.39003
21
-3.11942
0
LINE
8
BLACK
6
CONTINUOUS
10
5.39003
20
-3.11942
11
5.38183
21
-3.10841
0
LINE
8
BLACK
6
CONTINUOUS
10
5.38183
20
-3.10841
11
5.37496
21
-3.09651
0
LINE
8
BLACK
6
CONTINUOUS
10
5.37496
20
-3.09651
11
5.36952
21
-3.0839
0
LINE
8
BLACK
6
CONTINUOUS
10
5.36952
20
-3.0839
11
5.36559
21
-3.07074
0
LINE
8
BLACK
6
CONTINUOUS
10
5.36559
20
-3.07074
11
5.3632
21
-3.05722
0
LINE
8
BLACK
6
CONTINUOUS
10
5.3632
20
-3.05722
11
5.3624
21
-3.0435
0
LINE
8
BLACK
6
CONTINUOUS
10
5.3624
20
-3.0435
11
5.3632
21
-3.02979
0
LINE
8
BLACK
6
CONTINUOUS
10
5.3632
20
-3.02979
11
5.36559
21
-3.01627
0
LINE
8
BLACK
6
CONTINUOUS
10
5.36559
20
-3.01627
11
5.36952
21
-3.00311
0
LINE
8
BLACK
6
CONTINUOUS
10
5.36952
20
-3.00311
11
5.37496
21
-2.9905
0
LINE
8
BLACK
6
CONTINUOUS
10
5.37496
20
-2.9905
11
5.38183
21
-2.9786
0
LINE
8
BLACK
6
CONTINUOUS
10
5.38183
20
-2.9786
11
5.39003
21
-2.96758
0
LINE
8
BLACK
6
CONTINUOUS
10
5.39003
20
-2.96758
11
5.39946
21
-2.95759
0
LINE
8
BLACK
6
CONTINUOUS
10
5.39946
20
-2.95759
11
5.40998
21
-2.94876
0
LINE
8
BLACK
6
CONTINUOUS
10
5.40998
20
-2.94876
11
5.42146
21
-2.94122
0
LINE
8
BLACK
6
CONTINUOUS
10
5.42146
20
-2.94122
11
5.43373
21
-2.93505
0
LINE
8
BLACK
6
CONTINUOUS
10
5.43373
20
-2.93505
11
5.44664
21
-2.93036
0
LINE
8
BLACK
6
CONTINUOUS
10
5.44664
20
-2.93036
11
5.46
21
-2.92719
0
LINE
8
BLACK
6
CONTINUOUS
10
5.46
20
-2.92719
11
5.47364
21
-2.92559
0
LINE
8
BLACK
6
CONTINUOUS
10
5.47364
20
-2.92559
11
5.48738
21
-2.92559
0
LINE
8
BLACK
6
CONTINUOUS
10
5.48738
20
-2.92559
11
5.50102
21
-2.92719
0
LINE
8
BLACK
6
CONTINUOUS
10
6.70102
20
-2.92719
11
6.71439
21
-2.93036
0
LINE
8
BLACK
6
CONTINUOUS
10
6.71439
20
-2.93036
11
6.72729
21
-2.93505
0
LINE
8
BLACK
6
CONTINUOUS
10
6.72729
20
-2.93505
11
6.73957
21
-2.94122
0
LINE
8
BLACK
6
CONTINUOUS
10
6.73957
20
-2.94122
11
6.75104
21
-2.94876
0
LINE
8
BLACK
6
CONTINUOUS
10
6.75104
20
-2.94876
11
6.76156
21
-2.95759
0
LINE
8
BLACK
6
CONTINUOUS
10
6.76156
20
-2.95759
11
6.77099
21
-2.96758
0
LINE
8
BLACK
6
CONTINUOUS
10
6.77099
20
-2.96758
11
6.77919
21
-2.9786
0
LINE
8
BLACK
6
CONTINUOUS
10
6.77919
20
-2.9786
11
6.78606
21
-2.9905
0
LINE
8
BLACK
6
CONTINUOUS
10
6.78606
20
-2.9905
11
6.7915
21
-3.00311
0
LINE
8
BLACK
6
CONTINUOUS
10
6.7915
20
-3.00311
11
6.79544
21
-3.01627
0
LINE
8
BLACK
6
CONTINUOUS
10
6.79544
20
-3.01627
11
6.79782
21
-3.02979
0
LINE
8
BLACK
6
CONTINUOUS
10
6.79782
20
-3.02979
11
6.79862
21
-3.0435
0
LINE
8
BLACK
6
CONTINUOUS
10
6.79862
20
-3.0435
11
6.79782
21
-3.05722
0
LINE
8
BLACK
6
CONTINUOUS
10
6.79782
20
-3.05722
11
6.79544
21
-3.07074
0
LINE
8
BLACK
6
CONTINUOUS
10
6.79544
20
-3.07074
11
6.7915
21
-3.0839
0
LINE
8
BLACK
6
CONTINUOUS
10
6.7915
20
-3.0839
11
6.78606
21
-3.09651
0
LINE
8
BLACK
6
CONTINUOUS
10
6.78606
20
-3.09651
11
6.77919
21
-3.10841
0
LINE
8
BLACK
6
CONTINUOUS
10
6.77919
20
-3.10841
11
6.77099
21
-3.11942
0
LINE
8
BLACK
6
CONTINUOUS
10
6.77099
20
-3.11942
11
6.76156
21
-3.12941
0
LINE
8
BLACK
6
CONTINUOUS
10
6.76156
20
-3.12941
11
6.75104
21
-3.13824
0
LINE
8
BLACK
6
CONTINUOUS
10
6.75104
20
-3.13824
11
6.73957
21
-3.14579
0
LINE
8
BLACK
6
CONTINUOUS
10
6.73957
20
-3.14579
11
6.72729
21
-3.15195
0
LINE
8
BLACK
6
CONTINUOUS
10
6.72729
20
-3.15195
11
6.71439
21
-3.15665
0
LINE
8
BLACK
6
CONTINUOUS
10
6.71439
20
-3.15665
11
6.70102
21
-3.15982
0
LINE
8
BLACK
6
CONTINUOUS
10
6.70102
20
-3.15982
11
6.68738
21
-3.16141
0
LINE
8
BLACK
6
CONTINUOUS
10
6.68738
20
-3.16141
11
6.67364
21
-3.16141
0
LINE
8
BLACK
6
CONTINUOUS
10
6.67364
20
-3.16141
11
6.66
21
-3.15982
0
LINE
8
BLACK
6
CONTINUOUS
10
6.66
20
-3.15982
11
6.64664
21
-3.15665
0
LINE
8
BLACK
6
CONTINUOUS
10
6.64664
20
-3.15665
11
6.63373
21
-3.15195
0
LINE
8
BLACK
6
CONTINUOUS
10
6.63373
20
-3.15195
11
6.62146
21
-3.14579
0
LINE
8
BLACK
6
CONTINUOUS
10
6.62146
20
-3.14579
11
6.60998
21
-3.13824
0
LINE
8
BLACK
6
CONTINUOUS
10
6.60998
20
-3.13824
11
6.59946
21
-3.12941
0
LINE
8
BLACK
6
CONTINUOUS
10
6.59946
20
-3.12941
11
6.59003
21
-3.11942
0
LINE
8
BLACK
6
CONTINUOUS
10
6.59003
20
-3.11942
11
6.58183
21
-3.10841
0
LINE
8
BLACK
6
CONTINUOUS
10
6.58183
20
-3.10841
11
6.57496
21
-3.09651
0
LINE
8
BLACK
6
CONTINUOUS
10
6.57496
20
-3.09651
11
6.56952
21
-3.0839
0
LINE
8
BLACK
6
CONTINUOUS
10
6.56952
20
-3.0839
11
6.56559
21
-3.07074
0
LINE
8
BLACK
6
CONTINUOUS
10
6.56559
20
-3.07074
11
6.5632
21
-3.05722
0
LINE
8
BLACK
6
CONTINUOUS
10
6.5632
20
-3.05722
11
6.5624
21
-3.0435
0
LINE
8
BLACK
6
CONTINUOUS
10
6.5624
20
-3.0435
11
6.5632
21
-3.02979
0
LINE
8
BLACK
6
CONTINUOUS
10
6.5632
20
-3.02979
11
6.56559
21
-3.01627
0
LINE
8
BLACK
6
CONTINUOUS
10
6.56559
20
-3.01627
11
6.56952
21
-3.00311
0
LINE
8
BLACK
6
CONTINUOUS
10
6.56952
20
-3.00311
11
6.57496
21
-2.9905
0
LINE
8
BLACK
6
CONTINUOUS
10
6.57496
20
-2.9905
11
6.58183
21
-2.9786
0
LINE
8
BLACK
6
CONTINUOUS
10
6.58183
20
-2.9786
11
6.59003
21
-2.96758
0
LINE
8
BLACK
6
CONTINUOUS
10
6.59003
20
-2.96758
11
6.59946
21
-2.95759
0
LINE
8
BLACK
6
CONTINUOUS
10
6.59946
20
-2.95759
11
6.60998
21
-2.94876
0
LINE
8
BLACK
6
CONTINUOUS
10
6.60998
20
-2.94876
11
6.62146
21
-2.94122
0
LINE
8
BLACK
6
CONTINUOUS
10
6.62146
20
-2.94122
11
6.63373
21
-2.93505
0
LINE
8
BLACK
6
CONTINUOUS
10
6.63373
20
-2.93505
11
6.64664
21
-2.93036
0
LINE
8
BLACK
6
CONTINUOUS
10
6.64664
20
-2.93036
11
6.66
21
-2.92719
0
LINE
8
BLACK
6
CONTINUOUS
10
6.66
20
-2.92719
11
6.67364
21
-2.92559
0
LINE
8
BLACK
6
CONTINUOUS
10
6.67364
20
-2.92559
11
6.68738
21
-2.92559
0
LINE
8
BLACK
6
CONTINUOUS
10
6.68738
20
-2.92559
11
6.70102
21
-2.92719
  0
ENDSEC
  0
EOF
