<?xml version='1.0' encoding='ASCII' standalone='yes'?>
<svg xmlns:svg="http://www.w3.org/2000/svg" xmlns="http://www.w3.org/2000/svg" xmlns:xlink="http://www.w3.org/1999/xlink" version="1.1" width="297.0022mm" height="210.0072mm" viewBox="0.0000 0.0000 297.0022 210.0072">
<title>SVG Image created as RFSWITCH01-F_Fab.svg date 2023/07/20 11:59:06 </title>
  <desc>Image generated by PCBNEW </desc>
<g style="fill:#848484; fill-opacity:1.0000;stroke:#848484; stroke-opacity:1.0000; stroke-linecap:round; stroke-linejoin:round;" transform="translate(0 0) scale(1 1)">
</g>
<g style="fill:#848484; fill-opacity:0.0;  stroke:#848484; stroke-width:0.0000; stroke-opacity:1;  stroke-linecap:round; stroke-linejoin:round;">
</g>
<g style="fill:#848484; fill-opacity:0.01;  stroke:#848484; stroke-width:0.7830; stroke-opacity:1;  stroke-linecap:round; stroke-linejoin:round;">
<text x="221.4207" y="163.8038" textLength="16.3241" font-size="6.9596" lengthAdjust="spacingAndGlyphs" text-anchor="middle" opacity="0.01" style="font-family:monospace">SMA</text>
<g class="stroked-text"><desc>SMA</desc>
<path d="M214.7096 163.3194 L215.4553 163.5680 "/>
<path d="M215.4553 163.5680 L216.6981 163.5680 "/>
<path d="M216.6981 163.5680 L217.1952 163.3194 "/>
<path d="M217.1952 163.3194 L217.4437 163.0709 "/>
<path d="M217.4437 163.0709 L217.6923 162.5737 "/>
<path d="M217.6923 162.5737 L217.6923 162.0766 "/>
<path d="M217.6923 162.0766 L217.4437 161.5795 "/>
<path d="M217.4437 161.5795 L217.1952 161.3309 "/>
<path d="M217.1952 161.3309 L216.6981 161.0824 "/>
<path d="M216.6981 161.0824 L215.7038 160.8338 "/>
<path d="M215.7038 160.8338 L215.2067 160.5853 "/>
<path d="M215.2067 160.5853 L214.9581 160.3367 "/>
<path d="M214.9581 160.3367 L214.7096 159.8396 "/>
<path d="M214.7096 159.8396 L214.7096 159.3425 "/>
<path d="M214.7096 159.3425 L214.9581 158.8454 "/>
<path d="M214.9581 158.8454 L215.2067 158.5968 "/>
<path d="M215.2067 158.5968 L215.7038 158.3483 "/>
<path d="M215.7038 158.3483 L216.9466 158.3483 "/>
<path d="M216.9466 158.3483 L217.6923 158.5968 "/>
<path d="M219.9293 163.5680 L219.9293 158.3483 "/>
<path d="M219.9293 158.3483 L221.6692 162.0766 "/>
<path d="M221.6692 162.0766 L223.4091 158.3483 "/>
<path d="M223.4091 158.3483 L223.4091 163.5680 "/>
<path d="M225.6462 162.0766 L228.1317 162.0766 "/>
<path d="M225.1490 163.5680 L226.8889 158.3483 "/>
<path d="M226.8889 158.3483 L228.6289 163.5680 "/>
</g><text x="221.4207" y="137.4442" textLength="9.8616" font-size="6.9596" lengthAdjust="spacingAndGlyphs" text-anchor="middle" opacity="0.01" style="font-family:monospace">J8</text>
<g class="stroked-text"><desc>J8</desc>
<path d="M219.6808 131.9886 L219.6808 135.7170 "/>
<path d="M219.6808 135.7170 L219.4322 136.4627 "/>
<path d="M219.4322 136.4627 L218.9351 136.9598 "/>
<path d="M218.9351 136.9598 L218.1894 137.2084 "/>
<path d="M218.1894 137.2084 L217.6923 137.2084 "/>
<path d="M222.9120 134.2257 L222.4149 133.9771 "/>
<path d="M222.4149 133.9771 L222.1663 133.7285 "/>
<path d="M222.1663 133.7285 L221.9178 133.2314 "/>
<path d="M221.9178 133.2314 L221.9178 132.9829 "/>
<path d="M221.9178 132.9829 L222.1663 132.4858 "/>
<path d="M222.1663 132.4858 L222.4149 132.2372 "/>
<path d="M222.4149 132.2372 L222.9120 131.9886 "/>
<path d="M222.9120 131.9886 L223.9062 131.9886 "/>
<path d="M223.9062 131.9886 L224.4034 132.2372 "/>
<path d="M224.4034 132.2372 L224.6519 132.4858 "/>
<path d="M224.6519 132.4858 L224.9005 132.9829 "/>
<path d="M224.9005 132.9829 L224.9005 133.2314 "/>
<path d="M224.9005 133.2314 L224.6519 133.7285 "/>
<path d="M224.6519 133.7285 L224.4034 133.9771 "/>
<path d="M224.4034 133.9771 L223.9062 134.2257 "/>
<path d="M223.9062 134.2257 L222.9120 134.2257 "/>
<path d="M222.9120 134.2257 L222.4149 134.4742 "/>
<path d="M222.4149 134.4742 L222.1663 134.7228 "/>
<path d="M222.1663 134.7228 L221.9178 135.2199 "/>
<path d="M221.9178 135.2199 L221.9178 136.2141 "/>
<path d="M221.9178 136.2141 L222.1663 136.7112 "/>
<path d="M222.1663 136.7112 L222.4149 136.9598 "/>
<path d="M222.4149 136.9598 L222.9120 137.2084 "/>
<path d="M222.9120 137.2084 L223.9062 137.2084 "/>
<path d="M223.9062 137.2084 L224.4034 136.9598 "/>
<path d="M224.4034 136.9598 L224.6519 136.7112 "/>
<path d="M224.6519 136.7112 L224.9005 136.2141 "/>
<path d="M224.9005 136.2141 L224.9005 135.2199 "/>
<path d="M224.9005 135.2199 L224.6519 134.7228 "/>
<path d="M224.6519 134.7228 L224.4034 134.4742 "/>
<path d="M224.4034 134.4742 L223.9062 134.2257 "/>
</g><text x="75.5815" y="104.1423" textLength="16.3241" font-size="6.9596" lengthAdjust="spacingAndGlyphs" text-anchor="middle" opacity="0.01" style="font-family:monospace">SMA</text>
<g class="stroked-text"><desc>SMA</desc>
<path d="M68.8705 103.6580 L69.6161 103.9065 "/>
<path d="M69.6161 103.9065 L70.8589 103.9065 "/>
<path d="M70.8589 103.9065 L71.3560 103.6580 "/>
<path d="M71.3560 103.6580 L71.6046 103.4094 "/>
<path d="M71.6046 103.4094 L71.8532 102.9123 "/>
<path d="M71.8532 102.9123 L71.8532 102.4152 "/>
<path d="M71.8532 102.4152 L71.6046 101.9180 "/>
<path d="M71.6046 101.9180 L71.3560 101.6695 "/>
<path d="M71.3560 101.6695 L70.8589 101.4209 "/>
<path d="M70.8589 101.4209 L69.8647 101.1724 "/>
<path d="M69.8647 101.1724 L69.3676 100.9238 "/>
<path d="M69.3676 100.9238 L69.1190 100.6753 "/>
<path d="M69.1190 100.6753 L68.8705 100.1781 "/>
<path d="M68.8705 100.1781 L68.8705 99.6810 "/>
<path d="M68.8705 99.6810 L69.1190 99.1839 "/>
<path d="M69.1190 99.1839 L69.3676 98.9353 "/>
<path d="M69.3676 98.9353 L69.8647 98.6868 "/>
<path d="M69.8647 98.6868 L71.1075 98.6868 "/>
<path d="M71.1075 98.6868 L71.8532 98.9353 "/>
<path d="M74.0902 103.9065 L74.0902 98.6868 "/>
<path d="M74.0902 98.6868 L75.8301 102.4152 "/>
<path d="M75.8301 102.4152 L77.5700 98.6868 "/>
<path d="M77.5700 98.6868 L77.5700 103.9065 "/>
<path d="M79.8070 102.4152 L82.2926 102.4152 "/>
<path d="M79.3099 103.9065 L81.0498 98.6868 "/>
<path d="M81.0498 98.6868 L82.7897 103.9065 "/>
</g><text x="75.5815" y="77.7827" textLength="9.8616" font-size="6.9596" lengthAdjust="spacingAndGlyphs" text-anchor="middle" opacity="0.01" style="font-family:monospace">J2</text>
<g class="stroked-text"><desc>J2</desc>
<path d="M73.8416 72.3272 L73.8416 76.0555 "/>
<path d="M73.8416 76.0555 L73.5931 76.8012 "/>
<path d="M73.5931 76.8012 L73.0959 77.2983 "/>
<path d="M73.0959 77.2983 L72.3503 77.5469 "/>
<path d="M72.3503 77.5469 L71.8532 77.5469 "/>
<path d="M76.0786 72.8243 L76.3272 72.5757 "/>
<path d="M76.3272 72.5757 L76.8243 72.3272 "/>
<path d="M76.8243 72.3272 L78.0671 72.3272 "/>
<path d="M78.0671 72.3272 L78.5642 72.5757 "/>
<path d="M78.5642 72.5757 L78.8128 72.8243 "/>
<path d="M78.8128 72.8243 L79.0613 73.3214 "/>
<path d="M79.0613 73.3214 L79.0613 73.8185 "/>
<path d="M79.0613 73.8185 L78.8128 74.5642 "/>
<path d="M78.8128 74.5642 L75.8301 77.5469 "/>
<path d="M75.8301 77.5469 L79.0613 77.5469 "/>
</g><text x="221.4207" y="104.1423" textLength="16.3241" font-size="6.9596" lengthAdjust="spacingAndGlyphs" text-anchor="middle" opacity="0.01" style="font-family:monospace">SMA</text>
<g class="stroked-text"><desc>SMA</desc>
<path d="M214.7096 103.6580 L215.4553 103.9065 "/>
<path d="M215.4553 103.9065 L216.6981 103.9065 "/>
<path d="M216.6981 103.9065 L217.1952 103.6580 "/>
<path d="M217.1952 103.6580 L217.4437 103.4094 "/>
<path d="M217.4437 103.4094 L217.6923 102.9123 "/>
<path d="M217.6923 102.9123 L217.6923 102.4152 "/>
<path d="M217.6923 102.4152 L217.4437 101.9180 "/>
<path d="M217.4437 101.9180 L217.1952 101.6695 "/>
<path d="M217.1952 101.6695 L216.6981 101.4209 "/>
<path d="M216.6981 101.4209 L215.7038 101.1724 "/>
<path d="M215.7038 101.1724 L215.2067 100.9238 "/>
<path d="M215.2067 100.9238 L214.9581 100.6753 "/>
<path d="M214.9581 100.6753 L214.7096 100.1781 "/>
<path d="M214.7096 100.1781 L214.7096 99.6810 "/>
<path d="M214.7096 99.6810 L214.9581 99.1839 "/>
<path d="M214.9581 99.1839 L215.2067 98.9353 "/>
<path d="M215.2067 98.9353 L215.7038 98.6868 "/>
<path d="M215.7038 98.6868 L216.9466 98.6868 "/>
<path d="M216.9466 98.6868 L217.6923 98.9353 "/>
<path d="M219.9293 103.9065 L219.9293 98.6868 "/>
<path d="M219.9293 98.6868 L221.6692 102.4152 "/>
<path d="M221.6692 102.4152 L223.4091 98.6868 "/>
<path d="M223.4091 98.6868 L223.4091 103.9065 "/>
<path d="M225.6462 102.4152 L228.1317 102.4152 "/>
<path d="M225.1490 103.9065 L226.8889 98.6868 "/>
<path d="M226.8889 98.6868 L228.6289 103.9065 "/>
</g><text x="221.4207" y="77.7827" textLength="9.8616" font-size="6.9596" lengthAdjust="spacingAndGlyphs" text-anchor="middle" opacity="0.01" style="font-family:monospace">J7</text>
<g class="stroked-text"><desc>J7</desc>
<path d="M219.6808 72.3272 L219.6808 76.0555 "/>
<path d="M219.6808 76.0555 L219.4322 76.8012 "/>
<path d="M219.4322 76.8012 L218.9351 77.2983 "/>
<path d="M218.9351 77.2983 L218.1894 77.5469 "/>
<path d="M218.1894 77.5469 L217.6923 77.5469 "/>
<path d="M221.6692 72.3272 L225.1490 72.3272 "/>
<path d="M225.1490 72.3272 L222.9120 77.5469 "/>
</g><text x="75.5815" y="163.8038" textLength="16.3241" font-size="6.9596" lengthAdjust="spacingAndGlyphs" text-anchor="middle" opacity="0.01" style="font-family:monospace">SMA</text>
<g class="stroked-text"><desc>SMA</desc>
<path d="M68.8705 163.3194 L69.6161 163.5680 "/>
<path d="M69.6161 163.5680 L70.8589 163.5680 "/>
<path d="M70.8589 163.5680 L71.3560 163.3194 "/>
<path d="M71.3560 163.3194 L71.6046 163.0709 "/>
<path d="M71.6046 163.0709 L71.8532 162.5737 "/>
<path d="M71.8532 162.5737 L71.8532 162.0766 "/>
<path d="M71.8532 162.0766 L71.6046 161.5795 "/>
<path d="M71.6046 161.5795 L71.3560 161.3309 "/>
<path d="M71.3560 161.3309 L70.8589 161.0824 "/>
<path d="M70.8589 161.0824 L69.8647 160.8338 "/>
<path d="M69.8647 160.8338 L69.3676 160.5853 "/>
<path d="M69.3676 160.5853 L69.1190 160.3367 "/>
<path d="M69.1190 160.3367 L68.8705 159.8396 "/>
<path d="M68.8705 159.8396 L68.8705 159.3425 "/>
<path d="M68.8705 159.3425 L69.1190 158.8454 "/>
<path d="M69.1190 158.8454 L69.3676 158.5968 "/>
<path d="M69.3676 158.5968 L69.8647 158.3483 "/>
<path d="M69.8647 158.3483 L71.1075 158.3483 "/>
<path d="M71.1075 158.3483 L71.8532 158.5968 "/>
<path d="M74.0902 163.5680 L74.0902 158.3483 "/>
<path d="M74.0902 158.3483 L75.8301 162.0766 "/>
<path d="M75.8301 162.0766 L77.5700 158.3483 "/>
<path d="M77.5700 158.3483 L77.5700 163.5680 "/>
<path d="M79.8070 162.0766 L82.2926 162.0766 "/>
<path d="M79.3099 163.5680 L81.0498 158.3483 "/>
<path d="M81.0498 158.3483 L82.7897 163.5680 "/>
</g><text x="75.5815" y="137.4442" textLength="9.8616" font-size="6.9596" lengthAdjust="spacingAndGlyphs" text-anchor="middle" opacity="0.01" style="font-family:monospace">J3</text>
<g class="stroked-text"><desc>J3</desc>
<path d="M73.8416 131.9886 L73.8416 135.7170 "/>
<path d="M73.8416 135.7170 L73.5931 136.4627 "/>
<path d="M73.5931 136.4627 L73.0959 136.9598 "/>
<path d="M73.0959 136.9598 L72.3503 137.2084 "/>
<path d="M72.3503 137.2084 L71.8532 137.2084 "/>
<path d="M75.8301 131.9886 L79.0613 131.9886 "/>
<path d="M79.0613 131.9886 L77.3214 133.9771 "/>
<path d="M77.3214 133.9771 L78.0671 133.9771 "/>
<path d="M78.0671 133.9771 L78.5642 134.2257 "/>
<path d="M78.5642 134.2257 L78.8128 134.4742 "/>
<path d="M78.8128 134.4742 L79.0613 134.9713 "/>
<path d="M79.0613 134.9713 L79.0613 136.2141 "/>
<path d="M79.0613 136.2141 L78.8128 136.7112 "/>
<path d="M78.8128 136.7112 L78.5642 136.9598 "/>
<path d="M78.5642 136.9598 L78.0671 137.2084 "/>
<path d="M78.0671 137.2084 L76.5758 137.2084 "/>
<path d="M76.5758 137.2084 L76.0786 136.9598 "/>
<path d="M76.0786 136.9598 L75.8301 136.7112 "/>
</g><text x="166.3995" y="192.8631" textLength="6.1332" font-size="6.9596" lengthAdjust="spacingAndGlyphs" text-anchor="middle" opacity="0.01" style="font-family:monospace">K</text>
<g class="stroked-text"><desc>K</desc>
<path d="M165.0325 192.6272 L165.0325 187.4075 "/>
<path d="M168.0152 192.6272 L165.7781 189.6445 "/>
<path d="M168.0152 187.4075 L165.0325 190.3902 "/>
</g><path d="M138.5575 48.6567 L138.5575 22.1405 "/>
<path d="M151.8156 48.6567 L138.5575 48.6567 "/>
<path d="M138.5575 22.1405 L151.8156 22.1405 "/>
<path d="M151.8156 22.1405 L151.8156 48.6567 "/>
<path d="M178.3318 48.6567 L178.3318 22.1405 "/>
<path d="M191.5899 48.6567 L178.3318 48.6567 "/>
<path d="M178.3318 22.1405 L191.5899 22.1405 "/>
<path d="M191.5899 22.1405 L191.5899 48.6567 "/>
<path d="M165.0737 48.6567 L165.0737 22.1405 "/>
<path d="M178.3318 48.6567 L165.0737 48.6567 "/>
<path d="M165.0737 22.1405 L178.3318 22.1405 "/>
<path d="M178.3318 22.1405 L178.3318 48.6567 "/>
<path d="M190.9270 197.1474 L190.9270 170.6312 "/>
<path d="M204.1851 197.1474 L190.9270 197.1474 "/>
<path d="M190.9270 170.6312 L204.1851 170.6312 "/>
<path d="M204.1851 170.6312 L204.1851 197.1474 "/>
</g>
<g style="fill:#848484; fill-opacity:0.0;  stroke:#848484; stroke-width:0.5220; stroke-opacity:1;  stroke-linecap:round; stroke-linejoin:round;">
<path d="M203.4126 116.8263 L203.4126 152.8424 "/>
<path d="M203.4126 152.8424 L239.4287 152.8424 "/>
<path d="M239.4287 116.8263 L203.4126 116.8263 "/>
<path d="M239.4287 152.8424 L239.4287 116.8263 "/>
<circle cx="221.4207" cy="134.8343" r="13.0493"/> 
</g>
<g style="fill:#848484; fill-opacity:0.0;  stroke:#848484; stroke-width:0.7830; stroke-opacity:1;  stroke-linecap:round; stroke-linejoin:round;">
<path d="M95.4687 38.7131 L95.4687 12.1969 "/>
<path d="M135.2430 38.7131 L95.4687 38.7131 "/>
<path d="M95.4687 12.1969 L135.2430 12.1969 "/>
<path d="M135.2430 12.1969 L135.2430 38.7131 "/>
<path d="M151.8156 48.6567 L151.8156 22.1405 "/>
<path d="M165.0737 48.6567 L151.8156 48.6567 "/>
<path d="M151.8156 22.1405 L165.0737 22.1405 "/>
<path d="M165.0737 22.1405 L165.0737 48.6567 "/>
</g>
<g style="fill:#848484; fill-opacity:0.0;  stroke:#848484; stroke-width:0.5220; stroke-opacity:1;  stroke-linecap:round; stroke-linejoin:round;">
<path d="M57.5735 57.1648 L57.5735 93.1809 "/>
<path d="M57.5735 93.1809 L93.5896 93.1809 "/>
<path d="M93.5896 57.1648 L57.5735 57.1648 "/>
<path d="M93.5896 93.1809 L93.5896 57.1648 "/>
<circle cx="75.5815" cy="75.1729" r="13.0493"/> 
<path d="M203.4126 57.1648 L203.4126 93.1809 "/>
<path d="M203.4126 93.1809 L239.4287 93.1809 "/>
<path d="M239.4287 57.1648 L203.4126 57.1648 "/>
<path d="M239.4287 93.1809 L239.4287 57.1648 "/>
<circle cx="221.4207" cy="75.1729" r="13.0493"/> 
<path d="M57.5735 116.8263 L57.5735 152.8424 "/>
<path d="M57.5735 152.8424 L93.5896 152.8424 "/>
<path d="M93.5896 116.8263 L57.5735 116.8263 "/>
<path d="M93.5896 152.8424 L93.5896 116.8263 "/>
<circle cx="75.5815" cy="134.8343" r="13.0493"/> 
<g>
</g>
<g>
</g>
<g>
</g>
<g>
</g>
<g>
</g>
<g>
</g>
<g>
</g>
<g>
</g>
<g>
</g>
<g>
</g>
<g>
</g>
<g>
</g>
<g>
</g>
<g>
</g>
<g>
</g>
<g>
</g>
<g>
</g>
<g>
</g>
<g>
</g>
<g>
</g>
<g>
</g>
<g>
</g>
<g>
</g>
<g>
</g>
<g>
</g>
<g>
</g>
<g>
</g>
<g>
</g>
<g>
</g>
<g>
</g>
<g>
</g>
<g>
</g>
<g>
</g>
<g>
</g>
<g>
</g>
<g>
</g>
<g>
</g>
<g>
</g>
<g>
</g>
<g>
</g>
<g>
</g>
<g>
</g>
<g>
</g>
<g>
</g>
<g>
</g>
<g>
</g>
<g>
</g>
<g>
</g>
</g> 
<svg:g><svg:g><svg:title>SVG Image created as RFSWITCH01-Edge_Cuts.svg date 2023/07/20 11:59:06 </svg:title>
  <svg:desc>Image generated by PCBNEW </svg:desc>
<svg:g style="fill:#C2C200; fill-opacity:1.0000;stroke:#C2C200; stroke-opacity:1.0000; stroke-linecap:round; stroke-linejoin:round;" transform="translate(0 0) scale(1 1)">
</svg:g>
<svg:g style="fill:#C2C200; fill-opacity:0.0;  stroke:#C2C200; stroke-width:0.0000; stroke-opacity:1;  stroke-linecap:round; stroke-linejoin:round;">
</svg:g>
<svg:g style="fill:#C2C200; fill-opacity:0.0;  stroke:#C2C200; stroke-width:0.5220; stroke-opacity:1;  stroke-linecap:round; stroke-linejoin:round;">
<svg:path style="fill:#C2C200; fill-opacity:0.0;  stroke:#C2C200; stroke-width:0.5220; stroke-opacity:1;  stroke-linecap:round; stroke-linejoin:round;fill:none" d="M 43.7621,0.2646 253.2401,0.2646 253.2401,209.7426 43.7621,209.7426 Z"/> 
<svg:g>
</svg:g>
<svg:g>
</svg:g>
<svg:g>
</svg:g>
<svg:g>
</svg:g>
<svg:g>
</svg:g>
<svg:g>
</svg:g>
<svg:g>
</svg:g>
<svg:g>
</svg:g>
<svg:g>
</svg:g>
<svg:g>
</svg:g>
<svg:g>
</svg:g>
<svg:g>
</svg:g>
<svg:g>
</svg:g>
<svg:g>
</svg:g>
<svg:g>
</svg:g>
<svg:g>
</svg:g>
<svg:g>
</svg:g>
<svg:g>
</svg:g>
<svg:g>
</svg:g>
<svg:g>
</svg:g>
<svg:g>
</svg:g>
<svg:g>
</svg:g>
<svg:g>
</svg:g>
<svg:g>
</svg:g>
<svg:g>
</svg:g>
<svg:g>
</svg:g>
<svg:g>
</svg:g>
<svg:g>
</svg:g>
<svg:g>
</svg:g>
<svg:g>
</svg:g>
<svg:g>
</svg:g>
<svg:g>
</svg:g>
<svg:g>
</svg:g>
<svg:g>
</svg:g>
<svg:g>
</svg:g>
<svg:g>
</svg:g>
<svg:g>
</svg:g>
<svg:g>
</svg:g>
<svg:g>
</svg:g>
<svg:g>
</svg:g>
<svg:g>
</svg:g>
<svg:g>
</svg:g>
<svg:g>
</svg:g>
<svg:g>
</svg:g>
<svg:g>
</svg:g>
<svg:g>
</svg:g>
<svg:g>
</svg:g>
<svg:g>
</svg:g>
</svg:g> 
</svg:g></svg:g></svg>
