<?xml version='1.0' encoding='ASCII' standalone='yes'?>
<svg xmlns:svg="http://www.w3.org/2000/svg" xmlns="http://www.w3.org/2000/svg" xmlns:xlink="http://www.w3.org/1999/xlink" version="1.1" width="297.0022mm" height="210.0072mm" viewBox="0.0000 0.0000 297.0022 210.0072">
<title>SVG Image created as RFSWITCH01-F_Fab.svg date 2023/07/06 01:28:32 </title>
  <desc>Image generated by PCBNEW </desc>
<g style="fill:#848484; fill-opacity:1.0000;stroke:#848484; stroke-opacity:1.0000; stroke-linecap:round; stroke-linejoin:round;" transform="translate(0 0) scale(1 1)">
</g>
<g style="fill:#848484; fill-opacity:0.0;  stroke:#848484; stroke-width:0.0000; stroke-opacity:1;  stroke-linecap:round; stroke-linejoin:round;">
</g>
<g style="fill:#848484; fill-opacity:0.01;  stroke:#848484; stroke-width:0.7830; stroke-opacity:1;  stroke-linecap:round; stroke-linejoin:round;">
<text x="75.5815" y="163.8038" textLength="16.3241" font-size="6.9596" lengthAdjust="spacingAndGlyphs" text-anchor="middle" opacity="0.01" style="font-family:monospace">SMA</text>
<g class="stroked-text"><desc>SMA</desc>
<path d="M82.2926 163.3194 L81.5469 163.5680 "/>
<path d="M81.5469 163.5680 L80.3041 163.5680 "/>
<path d="M80.3041 163.5680 L79.8070 163.3194 "/>
<path d="M79.8070 163.3194 L79.5585 163.0709 "/>
<path d="M79.5585 163.0709 L79.3099 162.5737 "/>
<path d="M79.3099 162.5737 L79.3099 162.0766 "/>
<path d="M79.3099 162.0766 L79.5585 161.5795 "/>
<path d="M79.5585 161.5795 L79.8070 161.3309 "/>
<path d="M79.8070 161.3309 L80.3041 161.0824 "/>
<path d="M80.3041 161.0824 L81.2984 160.8338 "/>
<path d="M81.2984 160.8338 L81.7955 160.5853 "/>
<path d="M81.7955 160.5853 L82.0441 160.3367 "/>
<path d="M82.0441 160.3367 L82.2926 159.8396 "/>
<path d="M82.2926 159.8396 L82.2926 159.3425 "/>
<path d="M82.2926 159.3425 L82.0441 158.8454 "/>
<path d="M82.0441 158.8454 L81.7955 158.5968 "/>
<path d="M81.7955 158.5968 L81.2984 158.3483 "/>
<path d="M81.2984 158.3483 L80.0556 158.3483 "/>
<path d="M80.0556 158.3483 L79.3099 158.5968 "/>
<path d="M77.0729 163.5680 L77.0729 158.3483 "/>
<path d="M77.0729 158.3483 L75.3330 162.0766 "/>
<path d="M75.3330 162.0766 L73.5931 158.3483 "/>
<path d="M73.5931 158.3483 L73.5931 163.5680 "/>
<path d="M71.3560 162.0766 L68.8705 162.0766 "/>
<path d="M71.8532 163.5680 L70.1133 158.3483 "/>
<path d="M70.1133 158.3483 L68.3733 163.5680 "/>
</g><text x="75.5815" y="137.4442" textLength="9.8616" font-size="6.9596" lengthAdjust="spacingAndGlyphs" text-anchor="middle" opacity="0.01" style="font-family:monospace">J8</text>
<g class="stroked-text"><desc>J8</desc>
<path d="M77.3214 131.9886 L77.3214 135.7170 "/>
<path d="M77.3214 135.7170 L77.5700 136.4627 "/>
<path d="M77.5700 136.4627 L78.0671 136.9598 "/>
<path d="M78.0671 136.9598 L78.8128 137.2084 "/>
<path d="M78.8128 137.2084 L79.3099 137.2084 "/>
<path d="M74.0902 134.2257 L74.5873 133.9771 "/>
<path d="M74.5873 133.9771 L74.8359 133.7285 "/>
<path d="M74.8359 133.7285 L75.0844 133.2314 "/>
<path d="M75.0844 133.2314 L75.0844 132.9829 "/>
<path d="M75.0844 132.9829 L74.8359 132.4858 "/>
<path d="M74.8359 132.4858 L74.5873 132.2372 "/>
<path d="M74.5873 132.2372 L74.0902 131.9886 "/>
<path d="M74.0902 131.9886 L73.0960 131.9886 "/>
<path d="M73.0960 131.9886 L72.5988 132.2372 "/>
<path d="M72.5988 132.2372 L72.3503 132.4858 "/>
<path d="M72.3503 132.4858 L72.1017 132.9829 "/>
<path d="M72.1017 132.9829 L72.1017 133.2314 "/>
<path d="M72.1017 133.2314 L72.3503 133.7285 "/>
<path d="M72.3503 133.7285 L72.5988 133.9771 "/>
<path d="M72.5988 133.9771 L73.0960 134.2257 "/>
<path d="M73.0960 134.2257 L74.0902 134.2257 "/>
<path d="M74.0902 134.2257 L74.5873 134.4742 "/>
<path d="M74.5873 134.4742 L74.8359 134.7228 "/>
<path d="M74.8359 134.7228 L75.0844 135.2199 "/>
<path d="M75.0844 135.2199 L75.0844 136.2141 "/>
<path d="M75.0844 136.2141 L74.8359 136.7112 "/>
<path d="M74.8359 136.7112 L74.5873 136.9598 "/>
<path d="M74.5873 136.9598 L74.0902 137.2084 "/>
<path d="M74.0902 137.2084 L73.0960 137.2084 "/>
<path d="M73.0960 137.2084 L72.5988 136.9598 "/>
<path d="M72.5988 136.9598 L72.3503 136.7112 "/>
<path d="M72.3503 136.7112 L72.1017 136.2141 "/>
<path d="M72.1017 136.2141 L72.1017 135.2199 "/>
<path d="M72.1017 135.2199 L72.3503 134.7228 "/>
<path d="M72.3503 134.7228 L72.5988 134.4742 "/>
<path d="M72.5988 134.4742 L73.0960 134.2257 "/>
</g><text x="221.4207" y="104.1423" textLength="16.3241" font-size="6.9596" lengthAdjust="spacingAndGlyphs" text-anchor="middle" opacity="0.01" style="font-family:monospace">SMA</text>
<g class="stroked-text"><desc>SMA</desc>
<path d="M228.1317 103.6580 L227.3861 103.9065 "/>
<path d="M227.3861 103.9065 L226.1433 103.9065 "/>
<path d="M226.1433 103.9065 L225.6462 103.6580 "/>
<path d="M225.6462 103.6580 L225.3976 103.4094 "/>
<path d="M225.3976 103.4094 L225.1490 102.9123 "/>
<path d="M225.1490 102.9123 L225.1490 102.4152 "/>
<path d="M225.1490 102.4152 L225.3976 101.9180 "/>
<path d="M225.3976 101.9180 L225.6462 101.6695 "/>
<path d="M225.6462 101.6695 L226.1433 101.4209 "/>
<path d="M226.1433 101.4209 L227.1375 101.1724 "/>
<path d="M227.1375 101.1724 L227.6346 100.9238 "/>
<path d="M227.6346 100.9238 L227.8832 100.6753 "/>
<path d="M227.8832 100.6753 L228.1317 100.1781 "/>
<path d="M228.1317 100.1781 L228.1317 99.6810 "/>
<path d="M228.1317 99.6810 L227.8832 99.1839 "/>
<path d="M227.8832 99.1839 L227.6346 98.9353 "/>
<path d="M227.6346 98.9353 L227.1375 98.6868 "/>
<path d="M227.1375 98.6868 L225.8947 98.6868 "/>
<path d="M225.8947 98.6868 L225.1490 98.9353 "/>
<path d="M222.9120 103.9065 L222.9120 98.6868 "/>
<path d="M222.9120 98.6868 L221.1721 102.4152 "/>
<path d="M221.1721 102.4152 L219.4322 98.6868 "/>
<path d="M219.4322 98.6868 L219.4322 103.9065 "/>
<path d="M217.1952 102.4152 L214.7096 102.4152 "/>
<path d="M217.6923 103.9065 L215.9524 98.6868 "/>
<path d="M215.9524 98.6868 L214.2125 103.9065 "/>
</g><text x="221.4207" y="77.7827" textLength="9.8616" font-size="6.9596" lengthAdjust="spacingAndGlyphs" text-anchor="middle" opacity="0.01" style="font-family:monospace">J2</text>
<g class="stroked-text"><desc>J2</desc>
<path d="M223.1606 72.3272 L223.1606 76.0555 "/>
<path d="M223.1606 76.0555 L223.4091 76.8012 "/>
<path d="M223.4091 76.8012 L223.9063 77.2983 "/>
<path d="M223.9063 77.2983 L224.6519 77.5469 "/>
<path d="M224.6519 77.5469 L225.1490 77.5469 "/>
<path d="M220.9236 72.8243 L220.6750 72.5757 "/>
<path d="M220.6750 72.5757 L220.1779 72.3272 "/>
<path d="M220.1779 72.3272 L218.9351 72.3272 "/>
<path d="M218.9351 72.3272 L218.4380 72.5757 "/>
<path d="M218.4380 72.5757 L218.1894 72.8243 "/>
<path d="M218.1894 72.8243 L217.9409 73.3214 "/>
<path d="M217.9409 73.3214 L217.9409 73.8185 "/>
<path d="M217.9409 73.8185 L218.1894 74.5642 "/>
<path d="M218.1894 74.5642 L221.1721 77.5469 "/>
<path d="M221.1721 77.5469 L217.9409 77.5469 "/>
</g><text x="75.5815" y="104.1423" textLength="16.3241" font-size="6.9596" lengthAdjust="spacingAndGlyphs" text-anchor="middle" opacity="0.01" style="font-family:monospace">SMA</text>
<g class="stroked-text"><desc>SMA</desc>
<path d="M82.2926 103.6580 L81.5469 103.9065 "/>
<path d="M81.5469 103.9065 L80.3041 103.9065 "/>
<path d="M80.3041 103.9065 L79.8070 103.6580 "/>
<path d="M79.8070 103.6580 L79.5585 103.4094 "/>
<path d="M79.5585 103.4094 L79.3099 102.9123 "/>
<path d="M79.3099 102.9123 L79.3099 102.4152 "/>
<path d="M79.3099 102.4152 L79.5585 101.9180 "/>
<path d="M79.5585 101.9180 L79.8070 101.6695 "/>
<path d="M79.8070 101.6695 L80.3041 101.4209 "/>
<path d="M80.3041 101.4209 L81.2984 101.1724 "/>
<path d="M81.2984 101.1724 L81.7955 100.9238 "/>
<path d="M81.7955 100.9238 L82.0441 100.6753 "/>
<path d="M82.0441 100.6753 L82.2926 100.1781 "/>
<path d="M82.2926 100.1781 L82.2926 99.6810 "/>
<path d="M82.2926 99.6810 L82.0441 99.1839 "/>
<path d="M82.0441 99.1839 L81.7955 98.9353 "/>
<path d="M81.7955 98.9353 L81.2984 98.6868 "/>
<path d="M81.2984 98.6868 L80.0556 98.6868 "/>
<path d="M80.0556 98.6868 L79.3099 98.9353 "/>
<path d="M77.0729 103.9065 L77.0729 98.6868 "/>
<path d="M77.0729 98.6868 L75.3330 102.4152 "/>
<path d="M75.3330 102.4152 L73.5931 98.6868 "/>
<path d="M73.5931 98.6868 L73.5931 103.9065 "/>
<path d="M71.3560 102.4152 L68.8705 102.4152 "/>
<path d="M71.8532 103.9065 L70.1133 98.6868 "/>
<path d="M70.1133 98.6868 L68.3733 103.9065 "/>
</g><text x="75.5815" y="77.7827" textLength="9.8616" font-size="6.9596" lengthAdjust="spacingAndGlyphs" text-anchor="middle" opacity="0.01" style="font-family:monospace">J7</text>
<g class="stroked-text"><desc>J7</desc>
<path d="M77.3214 72.3272 L77.3214 76.0555 "/>
<path d="M77.3214 76.0555 L77.5700 76.8012 "/>
<path d="M77.5700 76.8012 L78.0671 77.2983 "/>
<path d="M78.0671 77.2983 L78.8128 77.5469 "/>
<path d="M78.8128 77.5469 L79.3099 77.5469 "/>
<path d="M75.3330 72.3272 L71.8532 72.3272 "/>
<path d="M71.8532 72.3272 L74.0902 77.5469 "/>
</g><text x="221.4207" y="163.8038" textLength="16.3241" font-size="6.9596" lengthAdjust="spacingAndGlyphs" text-anchor="middle" opacity="0.01" style="font-family:monospace">SMA</text>
<g class="stroked-text"><desc>SMA</desc>
<path d="M228.1317 163.3194 L227.3861 163.5680 "/>
<path d="M227.3861 163.5680 L226.1433 163.5680 "/>
<path d="M226.1433 163.5680 L225.6462 163.3194 "/>
<path d="M225.6462 163.3194 L225.3976 163.0709 "/>
<path d="M225.3976 163.0709 L225.1490 162.5737 "/>
<path d="M225.1490 162.5737 L225.1490 162.0766 "/>
<path d="M225.1490 162.0766 L225.3976 161.5795 "/>
<path d="M225.3976 161.5795 L225.6462 161.3309 "/>
<path d="M225.6462 161.3309 L226.1433 161.0824 "/>
<path d="M226.1433 161.0824 L227.1375 160.8338 "/>
<path d="M227.1375 160.8338 L227.6346 160.5853 "/>
<path d="M227.6346 160.5853 L227.8832 160.3367 "/>
<path d="M227.8832 160.3367 L228.1317 159.8396 "/>
<path d="M228.1317 159.8396 L228.1317 159.3425 "/>
<path d="M228.1317 159.3425 L227.8832 158.8454 "/>
<path d="M227.8832 158.8454 L227.6346 158.5968 "/>
<path d="M227.6346 158.5968 L227.1375 158.3483 "/>
<path d="M227.1375 158.3483 L225.8947 158.3483 "/>
<path d="M225.8947 158.3483 L225.1490 158.5968 "/>
<path d="M222.9120 163.5680 L222.9120 158.3483 "/>
<path d="M222.9120 158.3483 L221.1721 162.0766 "/>
<path d="M221.1721 162.0766 L219.4322 158.3483 "/>
<path d="M219.4322 158.3483 L219.4322 163.5680 "/>
<path d="M217.1952 162.0766 L214.7096 162.0766 "/>
<path d="M217.6923 163.5680 L215.9524 158.3483 "/>
<path d="M215.9524 158.3483 L214.2125 163.5680 "/>
</g><text x="221.4207" y="137.4442" textLength="9.8616" font-size="6.9596" lengthAdjust="spacingAndGlyphs" text-anchor="middle" opacity="0.01" style="font-family:monospace">J3</text>
<g class="stroked-text"><desc>J3</desc>
<path d="M223.1606 131.9886 L223.1606 135.7170 "/>
<path d="M223.1606 135.7170 L223.4091 136.4627 "/>
<path d="M223.4091 136.4627 L223.9063 136.9598 "/>
<path d="M223.9063 136.9598 L224.6519 137.2084 "/>
<path d="M224.6519 137.2084 L225.1490 137.2084 "/>
<path d="M221.1721 131.9886 L217.9409 131.9886 "/>
<path d="M217.9409 131.9886 L219.6808 133.9771 "/>
<path d="M219.6808 133.9771 L218.9351 133.9771 "/>
<path d="M218.9351 133.9771 L218.4380 134.2257 "/>
<path d="M218.4380 134.2257 L218.1894 134.4742 "/>
<path d="M218.1894 134.4742 L217.9409 134.9713 "/>
<path d="M217.9409 134.9713 L217.9409 136.2141 "/>
<path d="M217.9409 136.2141 L218.1894 136.7112 "/>
<path d="M218.1894 136.7112 L218.4380 136.9598 "/>
<path d="M218.4380 136.9598 L218.9351 137.2084 "/>
<path d="M218.9351 137.2084 L220.4264 137.2084 "/>
<path d="M220.4264 137.2084 L220.9236 136.9598 "/>
<path d="M220.9236 136.9598 L221.1721 136.7112 "/>
</g><text x="130.6027" y="192.8631" textLength="6.1332" font-size="6.9596" lengthAdjust="spacingAndGlyphs" text-anchor="middle" opacity="0.01" style="font-family:monospace">K</text>
<g class="stroked-text"><desc>K</desc>
<path d="M131.9697 192.6272 L131.9697 187.4075 "/>
<path d="M128.9870 192.6272 L131.2241 189.6445 "/>
<path d="M128.9870 187.4075 L131.9697 190.3902 "/>
</g><path d="M158.4447 48.6567 L158.4447 22.1405 "/>
<path d="M145.1866 48.6567 L158.4447 48.6567 "/>
<path d="M158.4447 22.1405 L145.1866 22.1405 "/>
<path d="M145.1866 22.1405 L145.1866 48.6567 "/>
<path d="M118.6704 48.6567 L118.6704 22.1405 "/>
<path d="M105.4123 48.6567 L118.6704 48.6567 "/>
<path d="M118.6704 22.1405 L105.4123 22.1405 "/>
<path d="M105.4123 22.1405 L105.4123 48.6567 "/>
<path d="M131.9285 48.6567 L131.9285 22.1405 "/>
<path d="M118.6704 48.6567 L131.9285 48.6567 "/>
<path d="M131.9285 22.1405 L118.6704 22.1405 "/>
<path d="M118.6704 22.1405 L118.6704 48.6567 "/>
<path d="M106.0752 197.1474 L106.0752 170.6312 "/>
<path d="M92.8171 197.1474 L106.0752 197.1474 "/>
<path d="M106.0752 170.6312 L92.8171 170.6312 "/>
<path d="M92.8171 170.6312 L92.8171 197.1474 "/>
</g>
<g style="fill:#848484; fill-opacity:0.0;  stroke:#848484; stroke-width:0.5220; stroke-opacity:1;  stroke-linecap:round; stroke-linejoin:round;">
<path d="M93.5896 116.8263 L93.5896 152.8424 "/>
<path d="M93.5896 152.8424 L57.5735 152.8424 "/>
<path d="M57.5735 116.8263 L93.5896 116.8263 "/>
<path d="M57.5735 152.8424 L57.5735 116.8263 "/>
<circle cx="75.5815" cy="134.8343" r="13.0493"/> 
</g>
<g style="fill:#848484; fill-opacity:0.0;  stroke:#848484; stroke-width:0.7830; stroke-opacity:1;  stroke-linecap:round; stroke-linejoin:round;">
<path d="M201.5335 38.7131 L201.5335 12.1969 "/>
<path d="M161.7592 38.7131 L201.5335 38.7131 "/>
<path d="M201.5335 12.1969 L161.7592 12.1969 "/>
<path d="M161.7592 12.1969 L161.7592 38.7131 "/>
<path d="M145.1866 48.6567 L145.1866 22.1405 "/>
<path d="M131.9285 48.6567 L145.1866 48.6567 "/>
<path d="M145.1866 22.1405 L131.9285 22.1405 "/>
<path d="M131.9285 22.1405 L131.9285 48.6567 "/>
</g>
<g style="fill:#848484; fill-opacity:0.0;  stroke:#848484; stroke-width:0.5220; stroke-opacity:1;  stroke-linecap:round; stroke-linejoin:round;">
<path d="M239.4287 57.1648 L239.4287 93.1809 "/>
<path d="M239.4287 93.1809 L203.4126 93.1809 "/>
<path d="M203.4126 57.1648 L239.4287 57.1648 "/>
<path d="M203.4126 93.1809 L203.4126 57.1648 "/>
<circle cx="221.4207" cy="75.1729" r="13.0493"/> 
<path d="M93.5896 57.1648 L93.5896 93.1809 "/>
<path d="M93.5896 93.1809 L57.5735 93.1809 "/>
<path d="M57.5735 57.1648 L93.5896 57.1648 "/>
<path d="M57.5735 93.1809 L57.5735 57.1648 "/>
<circle cx="75.5815" cy="75.1729" r="13.0493"/> 
<path d="M239.4287 116.8263 L239.4287 152.8424 "/>
<path d="M239.4287 152.8424 L203.4126 152.8424 "/>
<path d="M203.4126 116.8263 L239.4287 116.8263 "/>
<path d="M203.4126 152.8424 L203.4126 116.8263 "/>
<circle cx="221.4207" cy="134.8343" r="13.0493"/> 
<g>
</g>
<g>
</g>
<g>
</g>
<g>
</g>
<g>
</g>
<g>
</g>
<g>
</g>
<g>
</g>
<g>
</g>
<g>
</g>
<g>
</g>
<g>
</g>
<g>
</g>
<g>
</g>
<g>
</g>
<g>
</g>
<g>
</g>
<g>
</g>
<g>
</g>
<g>
</g>
<g>
</g>
<g>
</g>
<g>
</g>
<g>
</g>
<g>
</g>
<g>
</g>
<g>
</g>
<g>
</g>
<g>
</g>
<g>
</g>
<g>
</g>
<g>
</g>
<g>
</g>
<g>
</g>
<g>
</g>
<g>
</g>
<g>
</g>
<g>
</g>
<g>
</g>
<g>
</g>
<g>
</g>
<g>
</g>
<g>
</g>
<g>
</g>
<g>
</g>
<g>
</g>
<g>
</g>
<g>
</g>
</g> 
<svg:g><svg:g><svg:title>SVG Image created as RFSWITCH01-Edge_Cuts.svg date 2023/07/06 01:28:32 </svg:title>
  <svg:desc>Image generated by PCBNEW </svg:desc>
<svg:g style="fill:#C2C200; fill-opacity:1.0000;stroke:#C2C200; stroke-opacity:1.0000; stroke-linecap:round; stroke-linejoin:round;" transform="translate(0 0) scale(1 1)">
</svg:g>
<svg:g style="fill:#C2C200; fill-opacity:0.0;  stroke:#C2C200; stroke-width:0.0000; stroke-opacity:1;  stroke-linecap:round; stroke-linejoin:round;">
</svg:g>
<svg:g style="fill:#C2C200; fill-opacity:0.0;  stroke:#C2C200; stroke-width:0.5220; stroke-opacity:1;  stroke-linecap:round; stroke-linejoin:round;">
<svg:path style="fill:#C2C200; fill-opacity:0.0;  stroke:#C2C200; stroke-width:0.5220; stroke-opacity:1;  stroke-linecap:round; stroke-linejoin:round;fill:none" d="M 253.2401,0.2646 43.7621,0.2646 43.7621,209.7426 253.2401,209.7426 Z"/> 
<svg:g>
</svg:g>
<svg:g>
</svg:g>
<svg:g>
</svg:g>
<svg:g>
</svg:g>
<svg:g>
</svg:g>
<svg:g>
</svg:g>
<svg:g>
</svg:g>
<svg:g>
</svg:g>
<svg:g>
</svg:g>
<svg:g>
</svg:g>
<svg:g>
</svg:g>
<svg:g>
</svg:g>
<svg:g>
</svg:g>
<svg:g>
</svg:g>
<svg:g>
</svg:g>
<svg:g>
</svg:g>
<svg:g>
</svg:g>
<svg:g>
</svg:g>
<svg:g>
</svg:g>
<svg:g>
</svg:g>
<svg:g>
</svg:g>
<svg:g>
</svg:g>
<svg:g>
</svg:g>
<svg:g>
</svg:g>
<svg:g>
</svg:g>
<svg:g>
</svg:g>
<svg:g>
</svg:g>
<svg:g>
</svg:g>
<svg:g>
</svg:g>
<svg:g>
</svg:g>
<svg:g>
</svg:g>
<svg:g>
</svg:g>
<svg:g>
</svg:g>
<svg:g>
</svg:g>
<svg:g>
</svg:g>
<svg:g>
</svg:g>
<svg:g>
</svg:g>
<svg:g>
</svg:g>
<svg:g>
</svg:g>
<svg:g>
</svg:g>
<svg:g>
</svg:g>
<svg:g>
</svg:g>
<svg:g>
</svg:g>
<svg:g>
</svg:g>
<svg:g>
</svg:g>
<svg:g>
</svg:g>
<svg:g>
</svg:g>
<svg:g>
</svg:g>
</svg:g> 
</svg:g></svg:g></svg>
