%TF.GenerationSoftware,KiCad,Pcbnew,7.0.5.1-1-g8f565ef7f0-dirty-deb11*%
%TF.CreationDate,2023-07-05T15:32:03+00:00*%
%TF.ProjectId,RFSWITCH01,52465357-4954-4434-9830-312e6b696361,rev?*%
%TF.SameCoordinates,Original*%
%TF.FileFunction,Copper,L2,Bot*%
%TF.FilePolarity,Positive*%
%FSLAX46Y46*%
G04 Gerber Fmt 4.6, Leading zero omitted, Abs format (unit mm)*
G04 Created by KiCad (PCBNEW 7.0.5.1-1-g8f565ef7f0-dirty-deb11) date 2023-07-05 15:32:03*
%MOMM*%
%LPD*%
G01*
G04 APERTURE LIST*
G04 Aperture macros list*
%AMRoundRect*
0 Rectangle with rounded corners*
0 $1 Rounding radius*
0 $2 $3 $4 $5 $6 $7 $8 $9 X,Y pos of 4 corners*
0 Add a 4 corners polygon primitive as box body*
4,1,4,$2,$3,$4,$5,$6,$7,$8,$9,$2,$3,0*
0 Add four circle primitives for the rounded corners*
1,1,$1+$1,$2,$3*
1,1,$1+$1,$4,$5*
1,1,$1+$1,$6,$7*
1,1,$1+$1,$8,$9*
0 Add four rect primitives between the rounded corners*
20,1,$1+$1,$2,$3,$4,$5,0*
20,1,$1+$1,$4,$5,$6,$7,0*
20,1,$1+$1,$6,$7,$8,$9,0*
20,1,$1+$1,$8,$9,$2,$3,0*%
%AMRotRect*
0 Rectangle, with rotation*
0 The origin of the aperture is its center*
0 $1 length*
0 $2 width*
0 $3 Rotation angle, in degrees counterclockwise*
0 Add horizontal line*
21,1,$1,$2,0,0,$3*%
%AMFreePoly0*
4,1,9,3.862500,-0.866500,0.737500,-0.866500,0.737500,-0.450000,-0.737500,-0.450000,-0.737500,0.450000,0.737500,0.450000,0.737500,0.866500,3.862500,0.866500,3.862500,-0.866500,3.862500,-0.866500,$1*%
G04 Aperture macros list end*
%ADD10C,0.300000*%
%TA.AperFunction,NonConductor*%
%ADD11C,0.300000*%
%TD*%
%TA.AperFunction,ComponentPad*%
%ADD12R,1.524000X1.524000*%
%TD*%
%TA.AperFunction,ComponentPad*%
%ADD13C,2.240000*%
%TD*%
%TA.AperFunction,ComponentPad*%
%ADD14C,2.740000*%
%TD*%
%TA.AperFunction,ComponentPad*%
%ADD15C,6.000000*%
%TD*%
%TA.AperFunction,SMDPad,CuDef*%
%ADD16R,1.397000X0.889000*%
%TD*%
%TA.AperFunction,SMDPad,CuDef*%
%ADD17R,2.500000X1.800000*%
%TD*%
%TA.AperFunction,SMDPad,CuDef*%
%ADD18R,0.650000X0.400000*%
%TD*%
%TA.AperFunction,SMDPad,CuDef*%
%ADD19R,1.300000X0.900000*%
%TD*%
%TA.AperFunction,SMDPad,CuDef*%
%ADD20FreePoly0,180.000000*%
%TD*%
%TA.AperFunction,SMDPad,CuDef*%
%ADD21R,1.700000X1.300000*%
%TD*%
%TA.AperFunction,SMDPad,CuDef*%
%ADD22R,0.950000X1.500000*%
%TD*%
%TA.AperFunction,SMDPad,CuDef*%
%ADD23R,0.889000X1.397000*%
%TD*%
%TA.AperFunction,SMDPad,CuDef*%
%ADD24RoundRect,0.218750X0.424264X0.114905X0.114905X0.424264X-0.424264X-0.114905X-0.114905X-0.424264X0*%
%TD*%
%TA.AperFunction,SMDPad,CuDef*%
%ADD25RoundRect,0.218750X-0.218750X-0.381250X0.218750X-0.381250X0.218750X0.381250X-0.218750X0.381250X0*%
%TD*%
%TA.AperFunction,SMDPad,CuDef*%
%ADD26RotRect,0.889000X1.397000X135.000000*%
%TD*%
%TA.AperFunction,SMDPad,CuDef*%
%ADD27R,1.500000X0.600000*%
%TD*%
%TA.AperFunction,SMDPad,CuDef*%
%ADD28RoundRect,0.218750X0.218750X0.381250X-0.218750X0.381250X-0.218750X-0.381250X0.218750X-0.381250X0*%
%TD*%
%TA.AperFunction,ViaPad*%
%ADD29C,0.800000*%
%TD*%
%TA.AperFunction,ViaPad*%
%ADD30C,0.450000*%
%TD*%
%TA.AperFunction,Conductor*%
%ADD31C,0.500000*%
%TD*%
%TA.AperFunction,Conductor*%
%ADD32C,0.400000*%
%TD*%
%TA.AperFunction,Conductor*%
%ADD33C,0.800000*%
%TD*%
%TA.AperFunction,Conductor*%
%ADD34C,0.861000*%
%TD*%
G04 APERTURE END LIST*
D10*
D11*
X164648328Y-73110571D02*
X163148328Y-73110571D01*
X163148328Y-73110571D02*
X164219757Y-73610571D01*
X164219757Y-73610571D02*
X163148328Y-74110571D01*
X163148328Y-74110571D02*
X164648328Y-74110571D01*
X164648328Y-75539143D02*
X164648328Y-74824857D01*
X164648328Y-74824857D02*
X163148328Y-74824857D01*
X164219757Y-75967715D02*
X164219757Y-76682001D01*
X164648328Y-75824858D02*
X163148328Y-76324858D01*
X163148328Y-76324858D02*
X164648328Y-76824858D01*
X163862614Y-77824857D02*
X163934042Y-78039143D01*
X163934042Y-78039143D02*
X164005471Y-78110572D01*
X164005471Y-78110572D02*
X164148328Y-78182000D01*
X164148328Y-78182000D02*
X164362614Y-78182000D01*
X164362614Y-78182000D02*
X164505471Y-78110572D01*
X164505471Y-78110572D02*
X164576900Y-78039143D01*
X164576900Y-78039143D02*
X164648328Y-77896286D01*
X164648328Y-77896286D02*
X164648328Y-77324857D01*
X164648328Y-77324857D02*
X163148328Y-77324857D01*
X163148328Y-77324857D02*
X163148328Y-77824857D01*
X163148328Y-77824857D02*
X163219757Y-77967715D01*
X163219757Y-77967715D02*
X163291185Y-78039143D01*
X163291185Y-78039143D02*
X163434042Y-78110572D01*
X163434042Y-78110572D02*
X163576900Y-78110572D01*
X163576900Y-78110572D02*
X163719757Y-78039143D01*
X163719757Y-78039143D02*
X163791185Y-77967715D01*
X163791185Y-77967715D02*
X163862614Y-77824857D01*
X163862614Y-77824857D02*
X163862614Y-77324857D01*
X164505471Y-78824857D02*
X164576900Y-78896286D01*
X164576900Y-78896286D02*
X164648328Y-78824857D01*
X164648328Y-78824857D02*
X164576900Y-78753429D01*
X164576900Y-78753429D02*
X164505471Y-78824857D01*
X164505471Y-78824857D02*
X164648328Y-78824857D01*
X164505471Y-80396286D02*
X164576900Y-80324858D01*
X164576900Y-80324858D02*
X164648328Y-80110572D01*
X164648328Y-80110572D02*
X164648328Y-79967715D01*
X164648328Y-79967715D02*
X164576900Y-79753429D01*
X164576900Y-79753429D02*
X164434042Y-79610572D01*
X164434042Y-79610572D02*
X164291185Y-79539143D01*
X164291185Y-79539143D02*
X164005471Y-79467715D01*
X164005471Y-79467715D02*
X163791185Y-79467715D01*
X163791185Y-79467715D02*
X163505471Y-79539143D01*
X163505471Y-79539143D02*
X163362614Y-79610572D01*
X163362614Y-79610572D02*
X163219757Y-79753429D01*
X163219757Y-79753429D02*
X163148328Y-79967715D01*
X163148328Y-79967715D02*
X163148328Y-80110572D01*
X163148328Y-80110572D02*
X163219757Y-80324858D01*
X163219757Y-80324858D02*
X163291185Y-80396286D01*
X163148328Y-80896286D02*
X163148328Y-81896286D01*
X163148328Y-81896286D02*
X164648328Y-80896286D01*
X164648328Y-80896286D02*
X164648328Y-81896286D01*
D12*
%TO.P,J9,1*%
%TO.N,/SW1_CTRL*%
X153810000Y-80480000D03*
%TO.P,J9,2*%
X153810000Y-77940000D03*
%TD*%
%TO.P,J5,1*%
%TO.N,/SW2_#CTRL*%
X161430000Y-80480000D03*
%TO.P,J5,2*%
X161430000Y-77940000D03*
%TD*%
%TO.P,J4,1*%
%TO.N,/SW2_CTRL*%
X158890000Y-80480000D03*
%TO.P,J4,2*%
X158890000Y-77940000D03*
%TD*%
%TO.P,J6,1*%
%TO.N,Net-(J6-Pad1)*%
X163843000Y-108928000D03*
%TO.P,J6,2*%
X163843000Y-106388000D03*
%TD*%
D13*
%TO.P,J8,1*%
%TO.N,/RX{slash}TX_2*%
X168415000Y-98260000D03*
D14*
%TO.P,J8,2*%
%TO.N,GND*%
X165875000Y-95720000D03*
X165875000Y-100800000D03*
X170955000Y-95720000D03*
X170955000Y-100800000D03*
%TD*%
D15*
%TO.P,M3,1*%
%TO.N,GND*%
X139205000Y-77305000D03*
%TD*%
D12*
%TO.P,J1,1*%
%TO.N,GND*%
X145555000Y-78575000D03*
%TO.P,J1,2*%
X145555000Y-76035000D03*
%TO.P,J1,3*%
%TO.N,+3V3*%
X148095000Y-78575000D03*
%TO.P,J1,4*%
X148095000Y-76035000D03*
%TO.P,J1,5*%
%TO.N,GND*%
X150635000Y-78575000D03*
%TO.P,J1,6*%
X150635000Y-76035000D03*
%TD*%
D15*
%TO.P,M4,1*%
%TO.N,GND*%
X169685000Y-107785000D03*
%TD*%
D12*
%TO.P,J10,1*%
%TO.N,/SW1_#CTRL*%
X156350000Y-80480000D03*
%TO.P,J10,2*%
X156350000Y-77940000D03*
%TD*%
D13*
%TO.P,J2,1*%
%TO.N,/TX*%
X140475000Y-86830000D03*
D14*
%TO.P,J2,2*%
%TO.N,GND*%
X137935000Y-84290000D03*
X137935000Y-89370000D03*
X143015000Y-84290000D03*
X143015000Y-89370000D03*
%TD*%
D15*
%TO.P,M1,1*%
%TO.N,GND*%
X169685000Y-77305000D03*
%TD*%
D13*
%TO.P,J7,1*%
%TO.N,/RX{slash}TX_1*%
X168415000Y-86830000D03*
D14*
%TO.P,J7,2*%
%TO.N,GND*%
X165875000Y-84290000D03*
X165875000Y-89370000D03*
X170955000Y-84290000D03*
X170955000Y-89370000D03*
%TD*%
D13*
%TO.P,J3,1*%
%TO.N,/RX*%
X140475000Y-98260000D03*
D14*
%TO.P,J3,2*%
%TO.N,GND*%
X137935000Y-95720000D03*
X137935000Y-100800000D03*
X143015000Y-95720000D03*
X143015000Y-100800000D03*
%TD*%
D15*
%TO.P,M2,1*%
%TO.N,GND*%
X139205000Y-107785000D03*
%TD*%
D16*
%TO.P,L5,1,1*%
%TO.N,GND*%
X163184595Y-100165000D03*
%TO.P,L5,2,2*%
%TO.N,/RX{slash}TX_2*%
X163184595Y-98260000D03*
%TD*%
%TO.P,R5,1*%
%TO.N,/SW1_CTRL*%
X153810000Y-76035000D03*
%TO.P,R5,2*%
%TO.N,GND*%
X153810000Y-74130000D03*
%TD*%
D17*
%TO.P,D1,1,K*%
%TO.N,+3V3*%
X146463300Y-81980673D03*
%TO.P,D1,2,A*%
%TO.N,GND*%
X150463300Y-81980673D03*
%TD*%
D18*
%TO.P,U4,1,RF1*%
%TO.N,Net-(C8-Pad2)*%
X147145000Y-93195000D03*
%TO.P,U4,2,GND*%
%TO.N,GND*%
X147145000Y-92545000D03*
%TO.P,U4,3,RF2*%
%TO.N,/TX*%
X147145000Y-91895000D03*
%TO.P,U4,4,CTRL*%
%TO.N,/SW1_CTRL*%
X149045000Y-91895000D03*
%TO.P,U4,5,RFC*%
%TO.N,Net-(C9-Pad1)*%
X149045000Y-92545000D03*
%TO.P,U4,6,#CTRL*%
%TO.N,/SW1_#CTRL*%
X149045000Y-93195000D03*
%TD*%
D16*
%TO.P,C10,1*%
%TO.N,/RF_IN_OUT*%
X156985000Y-92545000D03*
%TO.P,C10,2*%
%TO.N,GND*%
X156985000Y-94450000D03*
%TD*%
%TO.P,R3,1*%
%TO.N,+3V3*%
X161430000Y-74130000D03*
%TO.P,R3,2*%
%TO.N,/SW2_#CTRL*%
X161430000Y-76035000D03*
%TD*%
D19*
%TO.P,U3,1*%
%TO.N,Net-(L3-Pad1)*%
X158000000Y-97395000D03*
D20*
%TO.P,U3,2,GND*%
%TO.N,GND*%
X157912500Y-98895000D03*
D19*
%TO.P,U3,3*%
%TO.N,Net-(C5-Pad2)*%
X158000000Y-100395000D03*
%TD*%
D16*
%TO.P,C1,1*%
%TO.N,+3V3*%
X144640600Y-105841900D03*
%TO.P,C1,2*%
%TO.N,GND*%
X144640600Y-103936900D03*
%TD*%
D21*
%TO.P,D3,1,K*%
%TO.N,/SW1_#CTRL*%
X155461000Y-83203000D03*
%TO.P,D3,2,A*%
%TO.N,GND*%
X155461000Y-86703000D03*
%TD*%
D18*
%TO.P,U1,1,OUT*%
%TO.N,Net-(C2-Pad1)*%
X149680000Y-105865000D03*
%TO.P,U1,2,GND*%
%TO.N,GND*%
X149680000Y-106515000D03*
%TO.P,U1,3,OC*%
%TO.N,Net-(J6-Pad1)*%
X149680000Y-107165000D03*
%TO.P,U1,4,ON*%
%TO.N,/SW1_CTRL*%
X147780000Y-107165000D03*
%TO.P,U1,5,IN*%
%TO.N,+3V3*%
X147780000Y-105865000D03*
%TD*%
D22*
%TO.P,D4,1,K*%
%TO.N,Net-(D4-Pad1)*%
X157917000Y-108928000D03*
%TO.P,D4,2,A*%
%TO.N,+3V3*%
X153767000Y-108928000D03*
%TD*%
D16*
%TO.P,C9,1*%
%TO.N,Net-(C9-Pad1)*%
X151270000Y-92545000D03*
%TO.P,C9,2*%
%TO.N,GND*%
X151270000Y-94450000D03*
%TD*%
D23*
%TO.P,C4,1*%
%TO.N,Net-(C3-Pad1)*%
X159652000Y-106134000D03*
%TO.P,C4,2*%
%TO.N,GND*%
X161557000Y-106134000D03*
%TD*%
D24*
%TO.P,L2,1,1*%
%TO.N,Net-(C3-Pad1)*%
X159158701Y-104017809D03*
%TO.P,L2,2,2*%
%TO.N,Net-(C5-Pad2)*%
X157656099Y-102515207D03*
%TD*%
D16*
%TO.P,C2,1*%
%TO.N,Net-(C2-Pad1)*%
X151905000Y-105880000D03*
%TO.P,C2,2*%
%TO.N,GND*%
X151905000Y-107785000D03*
%TD*%
%TO.P,C6,1*%
%TO.N,Net-(C6-Pad1)*%
X161054992Y-90075829D03*
%TO.P,C6,2*%
%TO.N,/RX{slash}TX_1*%
X161054992Y-88170829D03*
%TD*%
%TO.P,L4,1,1*%
%TO.N,GND*%
X163171639Y-84925000D03*
%TO.P,L4,2,2*%
%TO.N,/RX{slash}TX_1*%
X163171639Y-86830000D03*
%TD*%
D25*
%TO.P,L1,1,1*%
%TO.N,Net-(C2-Pad1)*%
X154225000Y-105880000D03*
%TO.P,L1,2,2*%
%TO.N,Net-(C3-Pad1)*%
X156350000Y-105880000D03*
%TD*%
D16*
%TO.P,R4,1*%
%TO.N,+3V3*%
X156350000Y-74130000D03*
%TO.P,R4,2*%
%TO.N,/SW1_#CTRL*%
X156350000Y-76035000D03*
%TD*%
D26*
%TO.P,C8,1*%
%TO.N,Net-(C8-Pad1)*%
X148412919Y-96876119D03*
%TO.P,C8,2*%
%TO.N,Net-(C8-Pad2)*%
X147065881Y-95529081D03*
%TD*%
D27*
%TO.P,FL1,1,GND*%
%TO.N,GND*%
X151015000Y-100165000D03*
%TO.P,FL1,2,IN*%
%TO.N,Net-(C5-Pad1)*%
X151015000Y-101435000D03*
%TO.P,FL1,3,GND*%
%TO.N,GND*%
X151015000Y-102705000D03*
%TO.P,FL1,4,GND*%
X147715000Y-102705000D03*
%TO.P,FL1,5,OUT*%
%TO.N,/RX*%
X147715000Y-101435000D03*
%TO.P,FL1,6,GND*%
%TO.N,GND*%
X147715000Y-100165000D03*
%TD*%
D18*
%TO.P,U2,1,RF1*%
%TO.N,Net-(C6-Pad1)*%
X161110000Y-91895000D03*
%TO.P,U2,2,GND*%
%TO.N,GND*%
X161110000Y-92545000D03*
%TO.P,U2,3,RF2*%
%TO.N,Net-(C7-Pad1)*%
X161110000Y-93195000D03*
%TO.P,U2,4,CTRL*%
%TO.N,/SW2_CTRL*%
X159210000Y-93195000D03*
%TO.P,U2,5,RFC*%
%TO.N,/RF_IN_OUT*%
X159210000Y-92545000D03*
%TO.P,U2,6,#CTRL*%
%TO.N,/SW2_#CTRL*%
X159210000Y-91895000D03*
%TD*%
D23*
%TO.P,C3,1*%
%TO.N,Net-(C3-Pad1)*%
X159652000Y-108166000D03*
%TO.P,C3,2*%
%TO.N,GND*%
X161557000Y-108166000D03*
%TD*%
D16*
%TO.P,R2,1*%
%TO.N,/SW2_CTRL*%
X158890000Y-76035000D03*
%TO.P,R2,2*%
%TO.N,GND*%
X158890000Y-74130000D03*
%TD*%
D23*
%TO.P,R6,1*%
%TO.N,Net-(D4-Pad1)*%
X159652000Y-110325000D03*
%TO.P,R6,2*%
%TO.N,Net-(J6-Pad1)*%
X161557000Y-110325000D03*
%TD*%
%TO.P,L6,1,1*%
%TO.N,Net-(C9-Pad1)*%
X153175000Y-92545000D03*
%TO.P,L6,2,2*%
%TO.N,/RF_IN_OUT*%
X155080000Y-92545000D03*
%TD*%
D16*
%TO.P,C7,1*%
%TO.N,Net-(C7-Pad1)*%
X161066905Y-95071617D03*
%TO.P,C7,2*%
%TO.N,/RX{slash}TX_2*%
X161066905Y-96976617D03*
%TD*%
D23*
%TO.P,C5,1*%
%TO.N,Net-(C5-Pad1)*%
X153365500Y-102768500D03*
%TO.P,C5,2*%
%TO.N,Net-(C5-Pad2)*%
X155270500Y-102768500D03*
%TD*%
D21*
%TO.P,D2,1,K*%
%TO.N,/SW2_#CTRL*%
X158871299Y-83186885D03*
%TO.P,D2,2,A*%
%TO.N,GND*%
X158871299Y-86686885D03*
%TD*%
D28*
%TO.P,L3,1,1*%
%TO.N,Net-(L3-Pad1)*%
X152870200Y-96863000D03*
%TO.P,L3,2,2*%
%TO.N,Net-(C8-Pad1)*%
X150745200Y-96863000D03*
%TD*%
D23*
%TO.P,R1,1*%
%TO.N,+3V3*%
X148673799Y-109613800D03*
%TO.P,R1,2*%
%TO.N,Net-(J6-Pad1)*%
X150578799Y-109613800D03*
%TD*%
D29*
%TO.N,+3V3*%
X156350000Y-74130000D03*
X147587000Y-109563000D03*
X146190000Y-105880000D03*
X161430000Y-74130000D03*
X152667000Y-109563000D03*
D30*
%TO.N,GND*%
X156121400Y-89039800D03*
X141389400Y-88125400D03*
X168618200Y-96710600D03*
X149314200Y-95085000D03*
X159880600Y-94729400D03*
X162369800Y-99149000D03*
X154292600Y-102768500D03*
X149263400Y-98539400D03*
X143015000Y-92595800D03*
X157543800Y-91630600D03*
X147942600Y-91833800D03*
X159779000Y-87973000D03*
X164808200Y-85941000D03*
X150635000Y-88176200D03*
X169786600Y-87566600D03*
X147282200Y-97472600D03*
X159880600Y-90259000D03*
X145809000Y-89852600D03*
X162573000Y-92240200D03*
X148044200Y-91224200D03*
X159931400Y-91021000D03*
X156070600Y-100520600D03*
X145809000Y-84518600D03*
X154699000Y-93764200D03*
X148044200Y-90411400D03*
X163487400Y-95593000D03*
X162954000Y-97117000D03*
X160998200Y-86957000D03*
X169431000Y-88023800D03*
X151346200Y-91630600D03*
X159880600Y-96558200D03*
X140729000Y-96710600D03*
X144996200Y-97371000D03*
X146215400Y-95034200D03*
X162573000Y-85941000D03*
X145351800Y-101841400D03*
X163182600Y-87769800D03*
X154546600Y-100571400D03*
X146621800Y-96761400D03*
X162471400Y-94221400D03*
X149314200Y-101841400D03*
X160083800Y-91833800D03*
X153581400Y-88277800D03*
X154953000Y-91325800D03*
X152209800Y-99403000D03*
X161861800Y-99555400D03*
X155156200Y-97777400D03*
X156934200Y-83502600D03*
X156985000Y-101841400D03*
X146621800Y-97752000D03*
X149009400Y-103111400D03*
X146063000Y-87109400D03*
X159779000Y-89497000D03*
X145555000Y-89344600D03*
X145809000Y-91325800D03*
X164757400Y-87769800D03*
X155969000Y-97777400D03*
X161912600Y-86195000D03*
X168008600Y-85280600D03*
X156223000Y-103670200D03*
X159220200Y-98590200D03*
X150787400Y-97980600D03*
X169989800Y-98387000D03*
X156273800Y-101841400D03*
X152819400Y-91376600D03*
X163081000Y-101333400D03*
X167602200Y-88176200D03*
X169227800Y-85483800D03*
X152311400Y-100673000D03*
X158153400Y-93713400D03*
X161054992Y-89123329D03*
X152159000Y-95745400D03*
X163462000Y-83528000D03*
X151498600Y-97929800D03*
X159220200Y-97828200D03*
X139205000Y-87820600D03*
X158204200Y-91630600D03*
X167145000Y-85941000D03*
X168821400Y-99758600D03*
X146215400Y-94323000D03*
X159880600Y-95542200D03*
X158864600Y-102247800D03*
X157035800Y-95948600D03*
X145758200Y-95643800D03*
X158204200Y-95034200D03*
X163995400Y-99149000D03*
X171666200Y-92291000D03*
X160083800Y-92494200D03*
X160845800Y-98031400D03*
X163233400Y-85941000D03*
X140729000Y-85280600D03*
X162217400Y-96710600D03*
X168821400Y-88328600D03*
X137071400Y-92189400D03*
X141287800Y-96913800D03*
X158305800Y-103213000D03*
X141745000Y-99149000D03*
X147841000Y-87109400D03*
X138900200Y-86703000D03*
X161963400Y-100977800D03*
X140271800Y-99809400D03*
X151854200Y-97523400D03*
X146469400Y-99504600D03*
X160998200Y-95999400D03*
X151752600Y-96253400D03*
X146418600Y-98895000D03*
X155156200Y-101536600D03*
X156731000Y-97777400D03*
X154343400Y-97777400D03*
X146063000Y-98234600D03*
X159626600Y-84874200D03*
X157543800Y-103771800D03*
X167500600Y-85534600D03*
X152057400Y-93459400D03*
X147942600Y-93205400D03*
X167145000Y-99149000D03*
X155765800Y-95948600D03*
X145148600Y-86449000D03*
X155969000Y-91630600D03*
X156731000Y-91427400D03*
X162217400Y-95034200D03*
X140881400Y-88379400D03*
X139459000Y-85636200D03*
X153632200Y-90970200D03*
X149314200Y-95847000D03*
X146063000Y-90411400D03*
X161861800Y-84975800D03*
X155257800Y-104025800D03*
X145656600Y-86753800D03*
X147841000Y-89598600D03*
X145301000Y-88887400D03*
X146190000Y-96355000D03*
X138951000Y-98691800D03*
X156731000Y-93459400D03*
X150685800Y-95745400D03*
X160337800Y-95999400D03*
X154089400Y-91783000D03*
X164655800Y-99199800D03*
X157645400Y-95948600D03*
X162446000Y-83528000D03*
X159220200Y-100063400D03*
X140068600Y-85331400D03*
X154241800Y-104025800D03*
X169939000Y-97828200D03*
X167145000Y-87719000D03*
X152768600Y-95745400D03*
X155105400Y-95948600D03*
X161912600Y-84112200D03*
X152819400Y-100927000D03*
X144031000Y-86042600D03*
X154292600Y-102146200D03*
X167246600Y-93053000D03*
X138900200Y-98133000D03*
X152362200Y-100063400D03*
X140068600Y-96761400D03*
X150381000Y-84112200D03*
X148857000Y-98133000D03*
X161658600Y-89141400D03*
X155359400Y-84671000D03*
X141745000Y-87719000D03*
X146469400Y-87515800D03*
X144589800Y-86195000D03*
X162217400Y-91529000D03*
X169786600Y-98996600D03*
X160439400Y-101028600D03*
X168008600Y-96710600D03*
X152768600Y-98844200D03*
X163335000Y-103517800D03*
X153835400Y-94678600D03*
X163131800Y-99149000D03*
X151600200Y-99098200D03*
X141745000Y-97371000D03*
X147841000Y-98260000D03*
X147637800Y-88938200D03*
X155613400Y-90005000D03*
X151295400Y-95694600D03*
X152819400Y-93764200D03*
X147993400Y-92545000D03*
X145605800Y-97726600D03*
X169939000Y-86398200D03*
X139662200Y-88176200D03*
X167602200Y-99606200D03*
X162268200Y-89598600D03*
X150889000Y-103721000D03*
X151807700Y-96863000D03*
X159169400Y-97015400D03*
X162319000Y-90513000D03*
X154292600Y-103365400D03*
X162573000Y-88023800D03*
X145961400Y-102298600D03*
X163792200Y-97371000D03*
X144920000Y-101384200D03*
X154089400Y-93103800D03*
X147282200Y-88379400D03*
X146164600Y-91910000D03*
X162420600Y-101435000D03*
X156832600Y-103670200D03*
X161811000Y-98895000D03*
X169685000Y-97269400D03*
X169227800Y-96913800D03*
X146164600Y-93434000D03*
X149619000Y-88684200D03*
X164351000Y-97371000D03*
X144894600Y-88481000D03*
X153683000Y-95897800D03*
X163944600Y-85941000D03*
X162674600Y-91071800D03*
X151346200Y-93459400D03*
X163944600Y-87769800D03*
X144437400Y-99403000D03*
X146469400Y-100165000D03*
X152006600Y-89954200D03*
X160439400Y-89123329D03*
X159779000Y-88735000D03*
X152260600Y-86296600D03*
X139103400Y-86093400D03*
X161861800Y-100266600D03*
X141389400Y-99555400D03*
X140271800Y-88379400D03*
X150685800Y-91630600D03*
X148552200Y-95593000D03*
X168161000Y-99809400D03*
X149314200Y-100927000D03*
X154394200Y-95948600D03*
X149263400Y-85636200D03*
X161709400Y-96050200D03*
X161963400Y-92646600D03*
X160236200Y-97980600D03*
X160744200Y-85636200D03*
X140881400Y-99809400D03*
X139205000Y-99250600D03*
X159220200Y-99301400D03*
X144335800Y-97269400D03*
X152260600Y-97980600D03*
X150685800Y-93459400D03*
X149314200Y-100012600D03*
X139662200Y-99606200D03*
X153225800Y-101282600D03*
X141745000Y-85941000D03*
X158915400Y-101536600D03*
X150889000Y-99098200D03*
X153175000Y-89395400D03*
X161303000Y-98488600D03*
X161912600Y-93205400D03*
X146164600Y-92672000D03*
X153378200Y-103975000D03*
X167145000Y-97371000D03*
X139103400Y-97523400D03*
X152540000Y-104229000D03*
X156426200Y-95948600D03*
X169685000Y-85839400D03*
X152971800Y-97980600D03*
X152260600Y-102959000D03*
X157543800Y-93459400D03*
X160033000Y-93942000D03*
X158128000Y-96253400D03*
X163792200Y-92646600D03*
X146875800Y-87922200D03*
X152006600Y-91630600D03*
X161404600Y-86550600D03*
X139459000Y-97066200D03*
X147637800Y-96355000D03*
X159220200Y-100825400D03*
X163741400Y-101384200D03*
X155765800Y-94018200D03*
X168161000Y-88379400D03*
X141287800Y-85483800D03*
X158661400Y-96456600D03*
X153632200Y-97828200D03*
X153733800Y-101638200D03*
X169431000Y-99453800D03*
X164909800Y-97371000D03*
X138951000Y-87261800D03*
X159880600Y-97320200D03*
X167500600Y-96964600D03*
X148730000Y-99149000D03*
X168618200Y-85280600D03*
X160490200Y-87261800D03*
X157035800Y-101231800D03*
X162268200Y-88785800D03*
X169989800Y-86957000D03*
D29*
%TO.N,/SW1_CTRL*%
X149974600Y-90259000D03*
X146774200Y-107175400D03*
%TO.N,/SW1_#CTRL*%
X148730000Y-94450000D03*
%TO.N,/SW2_CTRL*%
X158890000Y-94450000D03*
%TD*%
D31*
%TO.N,+3V3*%
X153132000Y-109563000D02*
X153767000Y-108928000D01*
D32*
X147795000Y-105880000D02*
X148095000Y-105880000D01*
X148207000Y-105865000D02*
X148653800Y-106311800D01*
D31*
X148673799Y-109613800D02*
X147637800Y-109613800D01*
X152667000Y-109563000D02*
X153132000Y-109563000D01*
D32*
X148653800Y-106311800D02*
X148653800Y-109593801D01*
D33*
X148095000Y-76035000D02*
X148095000Y-78575000D01*
D32*
X144678700Y-105880000D02*
X144640600Y-105841900D01*
D31*
X147637800Y-109613800D02*
X147587000Y-109563000D01*
D32*
X147780000Y-105865000D02*
X147795000Y-105880000D01*
D33*
X148095000Y-78575000D02*
X148095000Y-80348973D01*
D32*
X148653800Y-109593801D02*
X148673799Y-109613800D01*
X146205000Y-105865000D02*
X146190000Y-105880000D01*
X147780000Y-105865000D02*
X146205000Y-105865000D01*
X146190000Y-105880000D02*
X144678700Y-105880000D01*
X147780000Y-105865000D02*
X148207000Y-105865000D01*
D33*
X148095000Y-80348973D02*
X146463300Y-81980673D01*
D31*
%TO.N,Net-(C2-Pad1)*%
X154225000Y-105880000D02*
X151905000Y-105880000D01*
D32*
X149680000Y-105865000D02*
X151890000Y-105865000D01*
X151890000Y-105865000D02*
X151905000Y-105880000D01*
D31*
%TO.N,Net-(C3-Pad1)*%
X159158701Y-105640701D02*
X159652000Y-106134000D01*
X159296400Y-104102000D02*
X159212209Y-104017809D01*
X159652000Y-108166000D02*
X159652000Y-106134000D01*
X156350000Y-105880000D02*
X159398000Y-105880000D01*
X159158701Y-104017809D02*
X159158701Y-105640701D01*
X159398000Y-105880000D02*
X159652000Y-106134000D01*
X159212209Y-104017809D02*
X159158701Y-104017809D01*
D34*
%TO.N,Net-(C5-Pad1)*%
X152324893Y-101727893D02*
X153365500Y-102768500D01*
X151015000Y-101435000D02*
X151617786Y-101435000D01*
X152324900Y-101727886D02*
G75*
G03*
X151617786Y-101435000I-707100J-707114D01*
G01*
%TO.N,Net-(C5-Pad2)*%
X158000000Y-100395000D02*
X158000000Y-101757092D01*
X155270500Y-102768500D02*
X157071435Y-102768500D01*
X157707107Y-102464199D02*
X157656099Y-102515207D01*
X157637120Y-102534186D02*
X157656099Y-102515207D01*
X157707111Y-102464203D02*
G75*
G03*
X158000000Y-101757092I-707111J707103D01*
G01*
X157071435Y-102768524D02*
G75*
G03*
X157637119Y-102534185I-35J800024D01*
G01*
%TO.N,Net-(C6-Pad1)*%
X161049000Y-90081821D02*
X161049000Y-91529000D01*
X161054992Y-90075829D02*
X161049000Y-90081821D01*
%TO.N,Net-(C7-Pad1)*%
X161049000Y-95053712D02*
X161049000Y-93561000D01*
X161066905Y-95071617D02*
X161049000Y-95053712D01*
%TO.N,Net-(C8-Pad1)*%
X148412919Y-96876119D02*
X150732081Y-96876119D01*
X150732081Y-96876119D02*
X150745200Y-96863000D01*
%TO.N,/RX*%
X145555000Y-99512414D02*
X145555000Y-100258786D01*
X145847893Y-100965893D02*
X146024107Y-101142107D01*
X145009693Y-98552893D02*
X145262107Y-98805307D01*
X146731214Y-101435000D02*
X147715000Y-101435000D01*
X140475000Y-98260000D02*
X144302586Y-98260000D01*
X145555010Y-100258786D02*
G75*
G03*
X145847893Y-100965893I999990J-14D01*
G01*
X145554990Y-99512414D02*
G75*
G03*
X145262107Y-98805307I-999990J14D01*
G01*
X146024100Y-101142114D02*
G75*
G03*
X146731214Y-101435000I707100J707114D01*
G01*
X145009700Y-98552886D02*
G75*
G03*
X144302586Y-98260000I-707100J-707114D01*
G01*
%TO.N,/TX*%
X142958346Y-86830000D02*
X143296359Y-86830000D01*
X146266321Y-88557321D02*
X145417680Y-87708680D01*
X142024400Y-86830000D02*
X142958346Y-86830000D01*
X142024400Y-86830000D02*
X140475000Y-86830000D01*
X145275600Y-87566600D02*
X145417680Y-87708680D01*
D32*
X147145000Y-91895000D02*
X147145000Y-91275000D01*
D34*
X147145000Y-91275000D02*
X147145000Y-91016654D01*
X147145000Y-91275000D02*
X147145000Y-90678641D01*
X143296359Y-86830000D02*
X143296359Y-86830000D01*
X147144971Y-90678641D02*
G75*
G03*
X146266321Y-88557321I-2999971J41D01*
G01*
X145417700Y-87708660D02*
G75*
G03*
X143296359Y-86830000I-2121300J-2121340D01*
G01*
D31*
%TO.N,/SW1_CTRL*%
X149045000Y-90954588D02*
X149740588Y-90259000D01*
X153810000Y-77940000D02*
X153810000Y-80480000D01*
X153810000Y-76035000D02*
X153810000Y-77940000D01*
X149974600Y-90259000D02*
X153810000Y-86423600D01*
X153810000Y-86423600D02*
X153810000Y-86372800D01*
D32*
X146784600Y-107165000D02*
X146774200Y-107175400D01*
D31*
X149740588Y-90259000D02*
X149974600Y-90259000D01*
D32*
X147780000Y-107165000D02*
X146784600Y-107165000D01*
D31*
X153810000Y-80480000D02*
X153810000Y-86372800D01*
D32*
X149045000Y-91895000D02*
X149045000Y-90954588D01*
%TO.N,/SW1_#CTRL*%
X149045000Y-94135000D02*
X148730000Y-94450000D01*
D31*
X156350000Y-77940000D02*
X156350000Y-80480000D01*
X156350000Y-80480000D02*
X156350000Y-82314000D01*
X156350000Y-82314000D02*
X155461000Y-83203000D01*
X156350000Y-76035000D02*
X156350000Y-77940000D01*
D32*
X149045000Y-93195000D02*
X149045000Y-94135000D01*
D31*
%TO.N,/SW2_CTRL*%
X158890000Y-76035000D02*
X158890000Y-77940000D01*
D32*
X159210000Y-94130000D02*
X158890000Y-94450000D01*
X159210000Y-93195000D02*
X159210000Y-94130000D01*
D31*
X158890000Y-77940000D02*
X158890000Y-80480000D01*
%TO.N,/SW2_#CTRL*%
X157442200Y-88887400D02*
X159210000Y-90655200D01*
X161430000Y-80480000D02*
X161430000Y-83020000D01*
X158871299Y-83186885D02*
X157442200Y-84615984D01*
X161263115Y-83186885D02*
X158871299Y-83186885D01*
X161430000Y-77940000D02*
X161430000Y-80480000D01*
X157442200Y-84615984D02*
X157442200Y-88887400D01*
X159210000Y-90655200D02*
X159210000Y-91895000D01*
X161430000Y-76035000D02*
X161430000Y-77940000D01*
X161430000Y-83020000D02*
X161263115Y-83186885D01*
D34*
%TO.N,/RX{slash}TX_1*%
X162102928Y-87122893D02*
X161054992Y-88170829D01*
X163171639Y-86830000D02*
X162810035Y-86830000D01*
X168415000Y-86830000D02*
X163171639Y-86830000D01*
X162810035Y-86830025D02*
G75*
G03*
X162102928Y-87122893I-35J-999975D01*
G01*
%TO.N,/RX{slash}TX_2*%
X163184595Y-98260000D02*
X163178715Y-98260000D01*
X161764502Y-97674214D02*
X161066905Y-96976617D01*
X168415000Y-98260000D02*
X163184595Y-98260000D01*
X161764494Y-97674222D02*
G75*
G03*
X163178715Y-98260000I1414206J1414222D01*
G01*
D32*
%TO.N,Net-(C8-Pad2)*%
X147145000Y-93830200D02*
X147145000Y-94069000D01*
D34*
X147145000Y-95449962D02*
X147145000Y-93830200D01*
X147065881Y-95529081D02*
X147145000Y-95449962D01*
D32*
X147145000Y-93195000D02*
X147145000Y-93830200D01*
D34*
%TO.N,Net-(L3-Pad1)*%
X157595000Y-96990000D02*
X158000000Y-97395000D01*
X152870200Y-96863000D02*
X157053786Y-96863000D01*
X157760893Y-97155893D02*
X158000000Y-97395000D01*
X157760900Y-97155886D02*
G75*
G03*
X157053786Y-96863000I-707100J-707114D01*
G01*
D32*
%TO.N,Net-(C9-Pad1)*%
X149045000Y-92545000D02*
X149873000Y-92545000D01*
D34*
X151270000Y-92545000D02*
X153175000Y-92545000D01*
X151270000Y-92545000D02*
X149873000Y-92545000D01*
%TO.N,/RF_IN_OUT*%
X156985000Y-92545000D02*
X158255000Y-92545000D01*
X155080000Y-92545000D02*
X156985000Y-92545000D01*
D32*
X159210000Y-92545000D02*
X158255000Y-92545000D01*
%TO.N,Net-(J6-Pad1)*%
X149680000Y-108715001D02*
X150578799Y-109613800D01*
D31*
X160408499Y-111473501D02*
X152438500Y-111473501D01*
X162446000Y-110325000D02*
X163843000Y-108928000D01*
X163843000Y-106388000D02*
X163843000Y-108928000D01*
X161557000Y-110325000D02*
X162446000Y-110325000D01*
X160408499Y-111473501D02*
X161557000Y-110325000D01*
X163843000Y-108928000D02*
X163335000Y-108928000D01*
X152438500Y-111473501D02*
X150578799Y-109613800D01*
D32*
X149680000Y-107165000D02*
X149680000Y-108715001D01*
D31*
%TO.N,Net-(D4-Pad1)*%
X158255000Y-108928000D02*
X159652000Y-110325000D01*
X157917000Y-108928000D02*
X158255000Y-108928000D01*
%TD*%
%TA.AperFunction,Conductor*%
%TO.N,GND*%
G36*
X162389405Y-72498407D02*
G01*
X162425369Y-72547907D01*
X162430214Y-72578500D01*
X162430214Y-73460744D01*
X162411307Y-73518935D01*
X162361807Y-73554899D01*
X162300621Y-73554899D01*
X162276212Y-73543059D01*
X162206733Y-73496634D01*
X162206731Y-73496633D01*
X162206728Y-73496632D01*
X162206727Y-73496632D01*
X162148258Y-73485001D01*
X162148248Y-73485000D01*
X160711752Y-73485000D01*
X160711751Y-73485000D01*
X160711741Y-73485001D01*
X160653272Y-73496632D01*
X160653266Y-73496634D01*
X160586951Y-73540945D01*
X160586945Y-73540951D01*
X160542634Y-73607266D01*
X160542632Y-73607272D01*
X160531001Y-73665741D01*
X160531000Y-73665753D01*
X160531000Y-74594246D01*
X160531001Y-74594258D01*
X160542632Y-74652727D01*
X160542634Y-74652733D01*
X160586945Y-74719048D01*
X160586948Y-74719052D01*
X160653269Y-74763367D01*
X160697731Y-74772211D01*
X160711741Y-74774998D01*
X160711746Y-74774998D01*
X160711752Y-74775000D01*
X160711753Y-74775000D01*
X162148247Y-74775000D01*
X162148248Y-74775000D01*
X162206731Y-74763367D01*
X162273052Y-74719052D01*
X162273052Y-74719051D01*
X162276212Y-74716940D01*
X162335100Y-74700331D01*
X162392503Y-74721508D01*
X162426497Y-74772381D01*
X162430214Y-74799255D01*
X162430214Y-75365744D01*
X162411307Y-75423935D01*
X162361807Y-75459899D01*
X162300621Y-75459899D01*
X162276212Y-75448059D01*
X162206733Y-75401634D01*
X162206731Y-75401633D01*
X162206728Y-75401632D01*
X162206727Y-75401632D01*
X162148258Y-75390001D01*
X162148248Y-75390000D01*
X160711752Y-75390000D01*
X160711751Y-75390000D01*
X160711741Y-75390001D01*
X160653272Y-75401632D01*
X160653266Y-75401634D01*
X160586951Y-75445945D01*
X160586945Y-75445951D01*
X160542634Y-75512266D01*
X160542632Y-75512272D01*
X160531001Y-75570741D01*
X160531000Y-75570753D01*
X160531000Y-76499246D01*
X160531001Y-76499258D01*
X160542632Y-76557727D01*
X160542634Y-76557733D01*
X160586945Y-76624048D01*
X160586948Y-76624052D01*
X160653269Y-76668367D01*
X160697731Y-76677211D01*
X160711741Y-76679998D01*
X160711746Y-76679998D01*
X160711752Y-76680000D01*
X160880500Y-76680000D01*
X160938691Y-76698907D01*
X160974655Y-76748407D01*
X160979500Y-76779000D01*
X160979500Y-76878500D01*
X160960593Y-76936691D01*
X160911093Y-76972655D01*
X160880500Y-76977500D01*
X160648252Y-76977500D01*
X160648251Y-76977500D01*
X160648241Y-76977501D01*
X160589772Y-76989132D01*
X160589766Y-76989134D01*
X160523451Y-77033445D01*
X160523445Y-77033451D01*
X160479134Y-77099766D01*
X160479132Y-77099772D01*
X160467501Y-77158241D01*
X160467500Y-77158253D01*
X160467500Y-78721746D01*
X160467501Y-78721758D01*
X160479132Y-78780227D01*
X160479133Y-78780231D01*
X160523448Y-78846552D01*
X160589769Y-78890867D01*
X160634231Y-78899711D01*
X160648241Y-78902498D01*
X160648246Y-78902498D01*
X160648252Y-78902500D01*
X160880500Y-78902500D01*
X160938691Y-78921407D01*
X160974655Y-78970907D01*
X160979500Y-79001500D01*
X160979500Y-79418500D01*
X160960593Y-79476691D01*
X160911093Y-79512655D01*
X160880500Y-79517500D01*
X160648252Y-79517500D01*
X160648251Y-79517500D01*
X160648241Y-79517501D01*
X160589772Y-79529132D01*
X160589766Y-79529134D01*
X160523451Y-79573445D01*
X160523445Y-79573451D01*
X160479134Y-79639766D01*
X160479132Y-79639772D01*
X160467501Y-79698241D01*
X160467500Y-79698253D01*
X160467500Y-81261746D01*
X160467501Y-81261758D01*
X160479132Y-81320227D01*
X160479134Y-81320233D01*
X160523445Y-81386548D01*
X160523448Y-81386552D01*
X160589769Y-81430867D01*
X160634231Y-81439711D01*
X160648241Y-81442498D01*
X160648246Y-81442498D01*
X160648252Y-81442500D01*
X160880500Y-81442500D01*
X160938691Y-81461407D01*
X160974655Y-81510907D01*
X160979500Y-81541500D01*
X160979500Y-82637385D01*
X160960593Y-82695576D01*
X160911093Y-82731540D01*
X160880500Y-82736385D01*
X160020799Y-82736385D01*
X159962608Y-82717478D01*
X159926644Y-82667978D01*
X159921799Y-82637385D01*
X159921799Y-82517138D01*
X159921797Y-82517126D01*
X159919010Y-82503116D01*
X159910166Y-82458654D01*
X159907605Y-82454822D01*
X159865853Y-82392336D01*
X159865851Y-82392333D01*
X159864588Y-82391489D01*
X159799532Y-82348019D01*
X159799530Y-82348018D01*
X159799527Y-82348017D01*
X159799526Y-82348017D01*
X159741057Y-82336386D01*
X159741047Y-82336385D01*
X158001551Y-82336385D01*
X158001550Y-82336385D01*
X158001540Y-82336386D01*
X157943071Y-82348017D01*
X157943065Y-82348019D01*
X157876750Y-82392330D01*
X157876744Y-82392336D01*
X157832433Y-82458651D01*
X157832431Y-82458657D01*
X157820800Y-82517126D01*
X157820799Y-82517138D01*
X157820799Y-83559273D01*
X157801892Y-83617464D01*
X157791803Y-83629277D01*
X157143501Y-84277577D01*
X157139360Y-84281278D01*
X157108230Y-84306103D01*
X157108229Y-84306104D01*
X157075235Y-84354496D01*
X157074165Y-84356004D01*
X157039407Y-84403100D01*
X157035942Y-84409658D01*
X157035553Y-84409452D01*
X157034550Y-84411439D01*
X157034946Y-84411630D01*
X157031726Y-84418315D01*
X157014464Y-84474278D01*
X157013886Y-84476034D01*
X156994555Y-84531279D01*
X156993176Y-84538571D01*
X156992744Y-84538489D01*
X156992371Y-84540684D01*
X156992805Y-84540750D01*
X156991700Y-84548083D01*
X156991700Y-84606625D01*
X156991665Y-84608475D01*
X156989476Y-84666994D01*
X156990307Y-84674369D01*
X156989868Y-84674418D01*
X156991700Y-84688328D01*
X156991700Y-88859313D01*
X156991389Y-88864859D01*
X156986930Y-88904434D01*
X156986930Y-88904438D01*
X156997816Y-88961973D01*
X156998126Y-88963797D01*
X157006852Y-89021687D01*
X157009040Y-89028781D01*
X157008617Y-89028911D01*
X157009309Y-89031013D01*
X157009726Y-89030868D01*
X157012175Y-89037868D01*
X157039538Y-89089642D01*
X157040372Y-89091294D01*
X157065774Y-89144041D01*
X157069953Y-89150170D01*
X157069589Y-89150417D01*
X157070877Y-89152231D01*
X157071230Y-89151971D01*
X157075634Y-89157938D01*
X157117054Y-89199359D01*
X157118338Y-89200692D01*
X157158144Y-89243594D01*
X157163943Y-89248218D01*
X157163667Y-89248563D01*
X157174800Y-89257104D01*
X158730504Y-90812807D01*
X158758281Y-90867324D01*
X158759500Y-90882811D01*
X158759500Y-91491903D01*
X158742815Y-91546905D01*
X158696134Y-91616766D01*
X158696132Y-91616772D01*
X158684501Y-91675241D01*
X158684500Y-91675253D01*
X158684500Y-91893651D01*
X158665593Y-91951842D01*
X158616093Y-91987806D01*
X158554907Y-91987806D01*
X158537807Y-91980406D01*
X158489133Y-91953648D01*
X158334716Y-91914000D01*
X158334714Y-91914000D01*
X157783381Y-91914000D01*
X157764066Y-91912098D01*
X157761732Y-91911633D01*
X157761731Y-91911633D01*
X157703248Y-91900000D01*
X156266752Y-91900000D01*
X156266751Y-91900000D01*
X156250363Y-91903259D01*
X156208269Y-91911633D01*
X156208267Y-91911633D01*
X156205934Y-91912098D01*
X156186619Y-91914000D01*
X155823322Y-91914000D01*
X155765131Y-91895093D01*
X155729167Y-91845593D01*
X155726213Y-91831470D01*
X155725950Y-91831523D01*
X155718103Y-91792082D01*
X155713367Y-91768269D01*
X155669052Y-91701948D01*
X155629101Y-91675253D01*
X155602733Y-91657634D01*
X155602731Y-91657633D01*
X155602728Y-91657632D01*
X155602727Y-91657632D01*
X155544258Y-91646001D01*
X155544248Y-91646000D01*
X154615752Y-91646000D01*
X154615751Y-91646000D01*
X154615741Y-91646001D01*
X154557272Y-91657632D01*
X154557266Y-91657634D01*
X154490951Y-91701945D01*
X154490945Y-91701951D01*
X154446634Y-91768266D01*
X154446632Y-91768272D01*
X154435001Y-91826741D01*
X154435000Y-91826753D01*
X154435000Y-93263246D01*
X154435001Y-93263258D01*
X154446632Y-93321727D01*
X154446634Y-93321733D01*
X154450980Y-93328237D01*
X154490948Y-93388052D01*
X154557269Y-93432367D01*
X154601731Y-93441211D01*
X154615741Y-93443998D01*
X154615746Y-93443998D01*
X154615752Y-93444000D01*
X154615753Y-93444000D01*
X155544247Y-93444000D01*
X155544248Y-93444000D01*
X155602731Y-93432367D01*
X155669052Y-93388052D01*
X155713367Y-93321731D01*
X155718978Y-93293519D01*
X155725950Y-93258477D01*
X155727635Y-93258812D01*
X155749319Y-93209239D01*
X155802106Y-93178300D01*
X155823322Y-93176000D01*
X156186619Y-93176000D01*
X156205934Y-93177902D01*
X156208267Y-93178366D01*
X156208269Y-93178367D01*
X156266752Y-93190000D01*
X156266753Y-93190000D01*
X157703247Y-93190000D01*
X157703248Y-93190000D01*
X157761731Y-93178367D01*
X157761732Y-93178366D01*
X157764066Y-93177902D01*
X157783381Y-93176000D01*
X158294698Y-93176000D01*
X158334187Y-93171011D01*
X158413170Y-93161033D01*
X158549057Y-93107231D01*
X158610120Y-93103390D01*
X158661781Y-93136175D01*
X158684305Y-93193064D01*
X158684500Y-93199280D01*
X158684500Y-93414746D01*
X158684501Y-93414758D01*
X158696132Y-93473227D01*
X158696134Y-93473233D01*
X158729922Y-93523799D01*
X158740448Y-93539552D01*
X158740451Y-93539554D01*
X158765502Y-93556293D01*
X158803381Y-93604343D01*
X158809500Y-93638608D01*
X158809500Y-93768556D01*
X158790593Y-93826747D01*
X158741093Y-93862711D01*
X158736128Y-93864181D01*
X158733239Y-93864955D01*
X158587161Y-93925462D01*
X158587160Y-93925462D01*
X158461723Y-94021713D01*
X158461713Y-94021723D01*
X158365462Y-94147160D01*
X158365462Y-94147161D01*
X158304957Y-94293233D01*
X158304955Y-94293241D01*
X158284318Y-94449999D01*
X158284318Y-94450000D01*
X158304955Y-94606758D01*
X158304957Y-94606766D01*
X158365462Y-94752838D01*
X158365462Y-94752839D01*
X158455363Y-94870000D01*
X158461718Y-94878282D01*
X158587159Y-94974536D01*
X158587160Y-94974536D01*
X158587161Y-94974537D01*
X158640952Y-94996818D01*
X158733238Y-95035044D01*
X158850809Y-95050522D01*
X158889999Y-95055682D01*
X158890000Y-95055682D01*
X158890001Y-95055682D01*
X158921352Y-95051554D01*
X159046762Y-95035044D01*
X159192841Y-94974536D01*
X159318282Y-94878282D01*
X159414536Y-94752841D01*
X159475044Y-94606762D01*
X159495682Y-94450000D01*
X159495682Y-94449999D01*
X159496529Y-94443567D01*
X159498256Y-94443794D01*
X159514589Y-94393526D01*
X159524682Y-94381710D01*
X159538045Y-94368347D01*
X159538045Y-94368346D01*
X159538050Y-94368342D01*
X159549003Y-94346841D01*
X159557115Y-94333605D01*
X159571296Y-94314090D01*
X159578751Y-94291144D01*
X159584695Y-94276795D01*
X159588321Y-94269679D01*
X159595646Y-94255304D01*
X159599419Y-94231473D01*
X159603048Y-94216364D01*
X159607353Y-94203113D01*
X159610499Y-94193433D01*
X159610499Y-94163563D01*
X159610500Y-94163538D01*
X159610500Y-93638608D01*
X159629407Y-93580417D01*
X159654498Y-93556293D01*
X159659755Y-93552780D01*
X159679552Y-93539552D01*
X159723867Y-93473231D01*
X159735500Y-93414748D01*
X159735500Y-92975252D01*
X159723867Y-92916769D01*
X159723864Y-92916765D01*
X159720187Y-92907887D01*
X159715386Y-92846890D01*
X159720187Y-92832113D01*
X159723863Y-92823236D01*
X159723867Y-92823231D01*
X159735500Y-92764748D01*
X159735500Y-92325252D01*
X159723867Y-92266769D01*
X159723864Y-92266765D01*
X159720187Y-92257887D01*
X159715386Y-92196890D01*
X159720187Y-92182113D01*
X159723863Y-92173236D01*
X159723867Y-92173231D01*
X159735500Y-92114748D01*
X159735500Y-91675252D01*
X159734536Y-91670408D01*
X159731995Y-91657632D01*
X159723867Y-91616769D01*
X159700234Y-91581400D01*
X159677185Y-91546905D01*
X159660500Y-91491903D01*
X159660500Y-90683285D01*
X159660811Y-90677738D01*
X159665270Y-90638165D01*
X159654377Y-90580594D01*
X159654081Y-90578859D01*
X159648236Y-90540075D01*
X160155992Y-90540075D01*
X160155993Y-90540087D01*
X160167624Y-90598556D01*
X160167626Y-90598562D01*
X160194457Y-90638717D01*
X160211940Y-90664881D01*
X160278261Y-90709196D01*
X160336744Y-90720829D01*
X160336747Y-90720829D01*
X160338315Y-90721141D01*
X160391698Y-90751038D01*
X160417314Y-90806603D01*
X160418000Y-90818239D01*
X160418000Y-91568698D01*
X160432966Y-91687168D01*
X160432967Y-91687170D01*
X160491656Y-91835403D01*
X160491658Y-91835406D01*
X160491661Y-91835411D01*
X160565592Y-91937167D01*
X160584500Y-91995357D01*
X160584500Y-92080227D01*
X160565593Y-92138418D01*
X160555505Y-92150229D01*
X160533214Y-92172520D01*
X160487909Y-92275127D01*
X160485000Y-92300202D01*
X160485000Y-92394998D01*
X160485001Y-92395000D01*
X161734998Y-92395000D01*
X161734999Y-92394998D01*
X161734999Y-92300209D01*
X161734998Y-92300208D01*
X161732090Y-92275125D01*
X161686785Y-92172520D01*
X161686786Y-92172520D01*
X161664495Y-92150229D01*
X161636719Y-92095712D01*
X161635500Y-92080227D01*
X161635500Y-91794274D01*
X161640224Y-91769531D01*
X161638803Y-91769167D01*
X161662919Y-91675241D01*
X161680000Y-91608714D01*
X161680000Y-90819739D01*
X161698907Y-90761549D01*
X161748407Y-90725585D01*
X161769309Y-90721215D01*
X161773225Y-90720829D01*
X161773240Y-90720829D01*
X161831723Y-90709196D01*
X161898044Y-90664881D01*
X161942359Y-90598560D01*
X161953992Y-90540077D01*
X161953992Y-89611581D01*
X161942359Y-89553098D01*
X161898044Y-89486777D01*
X161898040Y-89486774D01*
X161831725Y-89442463D01*
X161831723Y-89442462D01*
X161831720Y-89442461D01*
X161831719Y-89442461D01*
X161773250Y-89430830D01*
X161773240Y-89430829D01*
X160336744Y-89430829D01*
X160336743Y-89430829D01*
X160336733Y-89430830D01*
X160278264Y-89442461D01*
X160278258Y-89442463D01*
X160211943Y-89486774D01*
X160211937Y-89486780D01*
X160167626Y-89553095D01*
X160167624Y-89553101D01*
X160155993Y-89611570D01*
X160155992Y-89611582D01*
X160155992Y-90540075D01*
X159648236Y-90540075D01*
X159645348Y-90520913D01*
X159645347Y-90520910D01*
X159643162Y-90513826D01*
X159643583Y-90513695D01*
X159642889Y-90511586D01*
X159642474Y-90511732D01*
X159640024Y-90504733D01*
X159640024Y-90504729D01*
X159612645Y-90452927D01*
X159611826Y-90451303D01*
X159605436Y-90438035D01*
X159586425Y-90398558D01*
X159586421Y-90398553D01*
X159582246Y-90392429D01*
X159582610Y-90392180D01*
X159581324Y-90390369D01*
X159580970Y-90390631D01*
X159576567Y-90384666D01*
X159576566Y-90384663D01*
X159576562Y-90384659D01*
X159535156Y-90343252D01*
X159533872Y-90341919D01*
X159494056Y-90299006D01*
X159488258Y-90294383D01*
X159488532Y-90294039D01*
X159477397Y-90285494D01*
X158561905Y-89370002D01*
X164200317Y-89370002D01*
X164219021Y-89619593D01*
X164219023Y-89619603D01*
X164274718Y-89863623D01*
X164366160Y-90096611D01*
X164366169Y-90096630D01*
X164491308Y-90313377D01*
X164491312Y-90313383D01*
X164592542Y-90440323D01*
X165174539Y-89858325D01*
X165287009Y-89990735D01*
X165388923Y-90068208D01*
X164803339Y-90653792D01*
X164830850Y-90679318D01*
X164830854Y-90679321D01*
X165037662Y-90820320D01*
X165263169Y-90928917D01*
X165502343Y-91002693D01*
X165502353Y-91002695D01*
X165749847Y-91039999D01*
X165749856Y-91040000D01*
X166000144Y-91040000D01*
X166000152Y-91039999D01*
X166247646Y-91002695D01*
X166247656Y-91002693D01*
X166486830Y-90928917D01*
X166712338Y-90820320D01*
X166919139Y-90679326D01*
X166919149Y-90679318D01*
X166946660Y-90653792D01*
X166361904Y-90069036D01*
X166392431Y-90050669D01*
X166526658Y-89923523D01*
X166572719Y-89855586D01*
X167157456Y-90440323D01*
X167258681Y-90313391D01*
X167258691Y-90313377D01*
X167383830Y-90096630D01*
X167383839Y-90096611D01*
X167475281Y-89863623D01*
X167530976Y-89619603D01*
X167530978Y-89619593D01*
X167549683Y-89370002D01*
X169280317Y-89370002D01*
X169299021Y-89619593D01*
X169299023Y-89619603D01*
X169354718Y-89863623D01*
X169446160Y-90096611D01*
X169446169Y-90096630D01*
X169571308Y-90313377D01*
X169571312Y-90313383D01*
X169672542Y-90440323D01*
X170254539Y-89858325D01*
X170367009Y-89990735D01*
X170468923Y-90068208D01*
X169883339Y-90653792D01*
X169910850Y-90679318D01*
X169910854Y-90679321D01*
X170117662Y-90820320D01*
X170343169Y-90928917D01*
X170582343Y-91002693D01*
X170582353Y-91002695D01*
X170829847Y-91039999D01*
X170829856Y-91040000D01*
X171080144Y-91040000D01*
X171080152Y-91039999D01*
X171327646Y-91002695D01*
X171327656Y-91002693D01*
X171566830Y-90928917D01*
X171792338Y-90820320D01*
X171999139Y-90679326D01*
X171999149Y-90679318D01*
X172026660Y-90653792D01*
X171441904Y-90069036D01*
X171472431Y-90050669D01*
X171606658Y-89923523D01*
X171652719Y-89855586D01*
X172237456Y-90440323D01*
X172338681Y-90313391D01*
X172338691Y-90313377D01*
X172463830Y-90096630D01*
X172463839Y-90096611D01*
X172555281Y-89863623D01*
X172610976Y-89619603D01*
X172610978Y-89619593D01*
X172629683Y-89370002D01*
X172629683Y-89369997D01*
X172610978Y-89120406D01*
X172610976Y-89120396D01*
X172555281Y-88876376D01*
X172463839Y-88643388D01*
X172463830Y-88643369D01*
X172338691Y-88426622D01*
X172338687Y-88426616D01*
X172237456Y-88299675D01*
X171655458Y-88881672D01*
X171542991Y-88749265D01*
X171441074Y-88671790D01*
X172026659Y-88086206D01*
X171999150Y-88060682D01*
X171792334Y-87919678D01*
X171566830Y-87811082D01*
X171327656Y-87737306D01*
X171327646Y-87737304D01*
X171080152Y-87700000D01*
X170829847Y-87700000D01*
X170582353Y-87737304D01*
X170582343Y-87737306D01*
X170343169Y-87811082D01*
X170117662Y-87919679D01*
X169910851Y-88060680D01*
X169883339Y-88086206D01*
X170468096Y-88670963D01*
X170437569Y-88689331D01*
X170303342Y-88816477D01*
X170257280Y-88884413D01*
X169672542Y-88299675D01*
X169571310Y-88426619D01*
X169446164Y-88643379D01*
X169446160Y-88643388D01*
X169354718Y-88876376D01*
X169299023Y-89120396D01*
X169299021Y-89120406D01*
X169280317Y-89369997D01*
X169280317Y-89370002D01*
X167549683Y-89370002D01*
X167549683Y-89369997D01*
X167530978Y-89120406D01*
X167530976Y-89120396D01*
X167475281Y-88876376D01*
X167383839Y-88643388D01*
X167383830Y-88643369D01*
X167258691Y-88426622D01*
X167258687Y-88426616D01*
X167157456Y-88299675D01*
X166575458Y-88881672D01*
X166462991Y-88749265D01*
X166361074Y-88671790D01*
X166946659Y-88086206D01*
X166919150Y-88060682D01*
X166712334Y-87919678D01*
X166486830Y-87811082D01*
X166247656Y-87737306D01*
X166247646Y-87737304D01*
X166000152Y-87700000D01*
X165749847Y-87700000D01*
X165502353Y-87737304D01*
X165502343Y-87737306D01*
X165263169Y-87811082D01*
X165037662Y-87919679D01*
X164830851Y-88060680D01*
X164803339Y-88086206D01*
X165388096Y-88670963D01*
X165357569Y-88689331D01*
X165223342Y-88816477D01*
X165177280Y-88884413D01*
X164592542Y-88299675D01*
X164491310Y-88426619D01*
X164366164Y-88643379D01*
X164366160Y-88643388D01*
X164274718Y-88876376D01*
X164219023Y-89120396D01*
X164219021Y-89120406D01*
X164200317Y-89369997D01*
X164200317Y-89370002D01*
X158561905Y-89370002D01*
X157921696Y-88729793D01*
X157893919Y-88675276D01*
X157892700Y-88659789D01*
X157892700Y-88635075D01*
X160155992Y-88635075D01*
X160155993Y-88635087D01*
X160167624Y-88693556D01*
X160167626Y-88693562D01*
X160204846Y-88749265D01*
X160211940Y-88759881D01*
X160278261Y-88804196D01*
X160322723Y-88813040D01*
X160336733Y-88815827D01*
X160336738Y-88815827D01*
X160336744Y-88815829D01*
X160336745Y-88815829D01*
X161773239Y-88815829D01*
X161773240Y-88815829D01*
X161831723Y-88804196D01*
X161898044Y-88759881D01*
X161942359Y-88693560D01*
X161953992Y-88635077D01*
X161953992Y-88205205D01*
X161972899Y-88147014D01*
X161982988Y-88135201D01*
X162546801Y-87571388D01*
X162551658Y-87567127D01*
X162615185Y-87518383D01*
X162637558Y-87505467D01*
X162692932Y-87482533D01*
X162730811Y-87475000D01*
X163889886Y-87475000D01*
X163889887Y-87475000D01*
X163948370Y-87463367D01*
X163948371Y-87463366D01*
X163950705Y-87462902D01*
X163970020Y-87461000D01*
X167193262Y-87461000D01*
X167251453Y-87479907D01*
X167274358Y-87503216D01*
X167375807Y-87648101D01*
X167399574Y-87682043D01*
X167562957Y-87845426D01*
X167752228Y-87977955D01*
X167961637Y-88075604D01*
X168184822Y-88135406D01*
X168184826Y-88135406D01*
X168184829Y-88135407D01*
X168414997Y-88155544D01*
X168415000Y-88155544D01*
X168415003Y-88155544D01*
X168645170Y-88135407D01*
X168645171Y-88135406D01*
X168645178Y-88135406D01*
X168868363Y-88075604D01*
X169077772Y-87977955D01*
X169267043Y-87845426D01*
X169430426Y-87682043D01*
X169562955Y-87492772D01*
X169660604Y-87283363D01*
X169720406Y-87060178D01*
X169723996Y-87019153D01*
X169740544Y-86830003D01*
X169740544Y-86829996D01*
X169720407Y-86599829D01*
X169720406Y-86599826D01*
X169720406Y-86599822D01*
X169660604Y-86376637D01*
X169562955Y-86167228D01*
X169430426Y-85977957D01*
X169267043Y-85814574D01*
X169267039Y-85814571D01*
X169267038Y-85814570D01*
X169156092Y-85736885D01*
X169077772Y-85682045D01*
X168868363Y-85584396D01*
X168645178Y-85524594D01*
X168645177Y-85524593D01*
X168645170Y-85524592D01*
X168415003Y-85504456D01*
X168414997Y-85504456D01*
X168184829Y-85524592D01*
X167961637Y-85584396D01*
X167752229Y-85682044D01*
X167562961Y-85814570D01*
X167399570Y-85977961D01*
X167274358Y-86156784D01*
X167225493Y-86193606D01*
X167193262Y-86199000D01*
X163970020Y-86199000D01*
X163950705Y-86197098D01*
X163948371Y-86196633D01*
X163948370Y-86196633D01*
X163889887Y-86185000D01*
X162453391Y-86185000D01*
X162453390Y-86185000D01*
X162453380Y-86185001D01*
X162394911Y-86196632D01*
X162394905Y-86196634D01*
X162328585Y-86240948D01*
X162328584Y-86240949D01*
X162323919Y-86247932D01*
X162279489Y-86284392D01*
X162087133Y-86364062D01*
X162087132Y-86364063D01*
X161901980Y-86470953D01*
X161901974Y-86470957D01*
X161901971Y-86470959D01*
X161864497Y-86499712D01*
X161732345Y-86601110D01*
X161732342Y-86601112D01*
X161714615Y-86618838D01*
X161714574Y-86618877D01*
X161627769Y-86705679D01*
X161627758Y-86705693D01*
X161602577Y-86730873D01*
X161602574Y-86730876D01*
X161599681Y-86733770D01*
X161599680Y-86733769D01*
X160836620Y-87496832D01*
X160782103Y-87524610D01*
X160766616Y-87525829D01*
X160336744Y-87525829D01*
X160336743Y-87525829D01*
X160336733Y-87525830D01*
X160278264Y-87537461D01*
X160278258Y-87537463D01*
X160211943Y-87581774D01*
X160211937Y-87581780D01*
X160167626Y-87648095D01*
X160167624Y-87648101D01*
X160155993Y-87706570D01*
X160155992Y-87706582D01*
X160155992Y-88635075D01*
X157892700Y-88635075D01*
X157892700Y-87735884D01*
X157911607Y-87677693D01*
X157961107Y-87641729D01*
X157991700Y-87636884D01*
X158721298Y-87636884D01*
X158721299Y-87636883D01*
X159021299Y-87636883D01*
X159021300Y-87636884D01*
X159766089Y-87636884D01*
X159766090Y-87636883D01*
X159791173Y-87633975D01*
X159893776Y-87588671D01*
X159973085Y-87509362D01*
X160018389Y-87406757D01*
X160021298Y-87381682D01*
X160021299Y-87381679D01*
X160021299Y-86836886D01*
X160021298Y-86836885D01*
X159021300Y-86836885D01*
X159021299Y-86836886D01*
X159021299Y-87636883D01*
X158721299Y-87636883D01*
X158721299Y-85736886D01*
X158721298Y-85736885D01*
X159021299Y-85736885D01*
X159021299Y-86536884D01*
X159021300Y-86536885D01*
X160021297Y-86536885D01*
X160021298Y-86536884D01*
X160021298Y-85992094D01*
X160021297Y-85992093D01*
X160018389Y-85967010D01*
X159973085Y-85864407D01*
X159893776Y-85785098D01*
X159791171Y-85739794D01*
X159766096Y-85736885D01*
X159021299Y-85736885D01*
X158721298Y-85736885D01*
X157991700Y-85736885D01*
X157933509Y-85717978D01*
X157897545Y-85668478D01*
X157892700Y-85637885D01*
X157892700Y-85414291D01*
X162173140Y-85414291D01*
X162176048Y-85439374D01*
X162221352Y-85541977D01*
X162300661Y-85621286D01*
X162403266Y-85666590D01*
X162428342Y-85669499D01*
X163021637Y-85669499D01*
X163021639Y-85669497D01*
X163021639Y-85075001D01*
X163021638Y-85075000D01*
X162173141Y-85075000D01*
X162173140Y-85075001D01*
X162173140Y-85414291D01*
X157892700Y-85414291D01*
X157892700Y-84843595D01*
X157911607Y-84785404D01*
X157921696Y-84773591D01*
X158259583Y-84435704D01*
X162173138Y-84435704D01*
X162173139Y-84774999D01*
X162173140Y-84775000D01*
X163021638Y-84775000D01*
X163021639Y-84774998D01*
X163021639Y-84180501D01*
X163021638Y-84180500D01*
X162428349Y-84180500D01*
X162428346Y-84180501D01*
X162403264Y-84183409D01*
X162300661Y-84228713D01*
X162221352Y-84308022D01*
X162176048Y-84410627D01*
X162173139Y-84435702D01*
X162173138Y-84435704D01*
X158259583Y-84435704D01*
X158628906Y-84066381D01*
X158683423Y-84038604D01*
X158698910Y-84037385D01*
X159741046Y-84037385D01*
X159741047Y-84037385D01*
X159799530Y-84025752D01*
X159865851Y-83981437D01*
X159910166Y-83915116D01*
X159921799Y-83856633D01*
X159921799Y-83736385D01*
X159940706Y-83678194D01*
X159990206Y-83642230D01*
X160020799Y-83637385D01*
X161235028Y-83637385D01*
X161240574Y-83637696D01*
X161280150Y-83642155D01*
X161337699Y-83631265D01*
X161339515Y-83630957D01*
X161397402Y-83622233D01*
X161397405Y-83622231D01*
X161404496Y-83620044D01*
X161404627Y-83620469D01*
X161406728Y-83619777D01*
X161406582Y-83619358D01*
X161413578Y-83616909D01*
X161413587Y-83616908D01*
X161445224Y-83600186D01*
X161465367Y-83589541D01*
X161467021Y-83588706D01*
X161487171Y-83579001D01*
X161519757Y-83563310D01*
X161519761Y-83563306D01*
X161525893Y-83559127D01*
X161526143Y-83559494D01*
X161527947Y-83558214D01*
X161527683Y-83557856D01*
X161533645Y-83553454D01*
X161533653Y-83553451D01*
X161575110Y-83511992D01*
X161576334Y-83510813D01*
X161619309Y-83470940D01*
X161619311Y-83470937D01*
X161623936Y-83465138D01*
X161624281Y-83465413D01*
X161632819Y-83454282D01*
X161728699Y-83358402D01*
X161732830Y-83354710D01*
X161763970Y-83329879D01*
X161796985Y-83281453D01*
X161798036Y-83279974D01*
X161832793Y-83232882D01*
X161832795Y-83232876D01*
X161836263Y-83226316D01*
X161836655Y-83226523D01*
X161837651Y-83224550D01*
X161837252Y-83224358D01*
X161840472Y-83217672D01*
X161857754Y-83161639D01*
X161858292Y-83160005D01*
X161877646Y-83104699D01*
X161877646Y-83104694D01*
X161879026Y-83097407D01*
X161879460Y-83097489D01*
X161879832Y-83095303D01*
X161879394Y-83095237D01*
X161880500Y-83087900D01*
X161880500Y-83029357D01*
X161880535Y-83027507D01*
X161881385Y-83004752D01*
X161882724Y-82968990D01*
X161882722Y-82968982D01*
X161881893Y-82961618D01*
X161882331Y-82961568D01*
X161880500Y-82947657D01*
X161880500Y-81541500D01*
X161899407Y-81483309D01*
X161948907Y-81447345D01*
X161979500Y-81442500D01*
X162211747Y-81442500D01*
X162211748Y-81442500D01*
X162270231Y-81430867D01*
X162276212Y-81426870D01*
X162335097Y-81410261D01*
X162392502Y-81431437D01*
X162426496Y-81482309D01*
X162430214Y-81509185D01*
X162430214Y-82750357D01*
X162430215Y-82750357D01*
X164847724Y-82750357D01*
X164905915Y-82769264D01*
X164941879Y-82818764D01*
X164941879Y-82879950D01*
X164905915Y-82929450D01*
X164903493Y-82931155D01*
X164830849Y-82980682D01*
X164803339Y-83006206D01*
X165388096Y-83590963D01*
X165357569Y-83609331D01*
X165223342Y-83736477D01*
X165177280Y-83804413D01*
X164592542Y-83219675D01*
X164491310Y-83346619D01*
X164366164Y-83563379D01*
X164366160Y-83563388D01*
X164274718Y-83796376D01*
X164219023Y-84040396D01*
X164219021Y-84040405D01*
X164209722Y-84164487D01*
X164186518Y-84221102D01*
X164134469Y-84253266D01*
X164073455Y-84248693D01*
X164050510Y-84233424D01*
X164050186Y-84233898D01*
X164042618Y-84228714D01*
X163940011Y-84183409D01*
X163914936Y-84180500D01*
X163321640Y-84180500D01*
X163321639Y-84180501D01*
X163321639Y-85669498D01*
X163321640Y-85669499D01*
X163914929Y-85669499D01*
X163914930Y-85669498D01*
X163940013Y-85666590D01*
X164042616Y-85621286D01*
X164121925Y-85541977D01*
X164167229Y-85439372D01*
X164170138Y-85414297D01*
X164170138Y-85040383D01*
X164189045Y-84982192D01*
X164238545Y-84946228D01*
X164299730Y-84946228D01*
X164349231Y-84982192D01*
X164361293Y-85004211D01*
X164366160Y-85016612D01*
X164366169Y-85016630D01*
X164491308Y-85233377D01*
X164491312Y-85233383D01*
X164592542Y-85360323D01*
X165174539Y-84778325D01*
X165287009Y-84910735D01*
X165388923Y-84988208D01*
X164803339Y-85573792D01*
X164830850Y-85599318D01*
X164830854Y-85599321D01*
X165037662Y-85740320D01*
X165263169Y-85848917D01*
X165502343Y-85922693D01*
X165502353Y-85922695D01*
X165749847Y-85959999D01*
X165749856Y-85960000D01*
X166000144Y-85960000D01*
X166000152Y-85959999D01*
X166247646Y-85922695D01*
X166247656Y-85922693D01*
X166486830Y-85848917D01*
X166712338Y-85740320D01*
X166919139Y-85599326D01*
X166919149Y-85599318D01*
X166946659Y-85573792D01*
X166361904Y-84989036D01*
X166392431Y-84970669D01*
X166526658Y-84843523D01*
X166572719Y-84775586D01*
X167157456Y-85360323D01*
X167258681Y-85233391D01*
X167258691Y-85233377D01*
X167383830Y-85016630D01*
X167383839Y-85016611D01*
X167475281Y-84783623D01*
X167530976Y-84539603D01*
X167530978Y-84539593D01*
X167549683Y-84290002D01*
X169280317Y-84290002D01*
X169299021Y-84539593D01*
X169299023Y-84539603D01*
X169354718Y-84783623D01*
X169446160Y-85016611D01*
X169446169Y-85016630D01*
X169571308Y-85233377D01*
X169571312Y-85233383D01*
X169672542Y-85360323D01*
X170254539Y-84778325D01*
X170367009Y-84910735D01*
X170468923Y-84988208D01*
X169883339Y-85573792D01*
X169910850Y-85599318D01*
X169910854Y-85599321D01*
X170117662Y-85740320D01*
X170343169Y-85848917D01*
X170582343Y-85922693D01*
X170582353Y-85922695D01*
X170829847Y-85959999D01*
X170829856Y-85960000D01*
X171080144Y-85960000D01*
X171080152Y-85959999D01*
X171327646Y-85922695D01*
X171327656Y-85922693D01*
X171566830Y-85848917D01*
X171792338Y-85740320D01*
X171999139Y-85599326D01*
X171999149Y-85599318D01*
X172026660Y-85573792D01*
X171441904Y-84989036D01*
X171472431Y-84970669D01*
X171606658Y-84843523D01*
X171652719Y-84775586D01*
X172237456Y-85360323D01*
X172338681Y-85233391D01*
X172338691Y-85233377D01*
X172463830Y-85016630D01*
X172463839Y-85016611D01*
X172555281Y-84783623D01*
X172610976Y-84539603D01*
X172610978Y-84539593D01*
X172629683Y-84290002D01*
X172629683Y-84289997D01*
X172610978Y-84040406D01*
X172610976Y-84040396D01*
X172555281Y-83796376D01*
X172463839Y-83563388D01*
X172463830Y-83563369D01*
X172338691Y-83346622D01*
X172338687Y-83346616D01*
X172237456Y-83219675D01*
X171655458Y-83801672D01*
X171542991Y-83669265D01*
X171441074Y-83591790D01*
X172026659Y-83006206D01*
X171999150Y-82980682D01*
X171792334Y-82839678D01*
X171566830Y-82731082D01*
X171327656Y-82657306D01*
X171327646Y-82657304D01*
X171080152Y-82620000D01*
X170829847Y-82620000D01*
X170582353Y-82657304D01*
X170582343Y-82657306D01*
X170343169Y-82731082D01*
X170117662Y-82839679D01*
X169910851Y-82980680D01*
X169883339Y-83006206D01*
X170468096Y-83590963D01*
X170437569Y-83609331D01*
X170303342Y-83736477D01*
X170257280Y-83804413D01*
X169672542Y-83219675D01*
X169571310Y-83346619D01*
X169446164Y-83563379D01*
X169446160Y-83563388D01*
X169354718Y-83796376D01*
X169299023Y-84040396D01*
X169299021Y-84040406D01*
X169280317Y-84289997D01*
X169280317Y-84290002D01*
X167549683Y-84290002D01*
X167549683Y-84289997D01*
X167530978Y-84040406D01*
X167530976Y-84040396D01*
X167475281Y-83796376D01*
X167383839Y-83563388D01*
X167383830Y-83563369D01*
X167258691Y-83346622D01*
X167258687Y-83346616D01*
X167157456Y-83219675D01*
X166575458Y-83801672D01*
X166462991Y-83669265D01*
X166361074Y-83591790D01*
X166946659Y-83006206D01*
X166919150Y-82980682D01*
X166712334Y-82839678D01*
X166486830Y-82731082D01*
X166247656Y-82657306D01*
X166247646Y-82657304D01*
X166000152Y-82620000D01*
X165749845Y-82620000D01*
X165623540Y-82639037D01*
X165563182Y-82629014D01*
X165520242Y-82585426D01*
X165509786Y-82541143D01*
X165509786Y-72578500D01*
X165528693Y-72520309D01*
X165578193Y-72484345D01*
X165608786Y-72479500D01*
X174411500Y-72479500D01*
X174469691Y-72498407D01*
X174505655Y-72547907D01*
X174510500Y-72578500D01*
X174510500Y-112511500D01*
X174491593Y-112569691D01*
X174442093Y-112605655D01*
X174411500Y-112610500D01*
X134478500Y-112610500D01*
X134420309Y-112591593D01*
X134384345Y-112542093D01*
X134379500Y-112511500D01*
X134379500Y-106306146D01*
X143741600Y-106306146D01*
X143741601Y-106306158D01*
X143753232Y-106364627D01*
X143753234Y-106364633D01*
X143797545Y-106430948D01*
X143797548Y-106430952D01*
X143863869Y-106475267D01*
X143908331Y-106484111D01*
X143922341Y-106486898D01*
X143922346Y-106486898D01*
X143922352Y-106486900D01*
X143922353Y-106486900D01*
X145358847Y-106486900D01*
X145358848Y-106486900D01*
X145417331Y-106475267D01*
X145483652Y-106430952D01*
X145527967Y-106364631D01*
X145528851Y-106360182D01*
X145558751Y-106306799D01*
X145614317Y-106281186D01*
X145625949Y-106280500D01*
X145692929Y-106280500D01*
X145751120Y-106299407D01*
X145759687Y-106306723D01*
X145761716Y-106308280D01*
X145761718Y-106308282D01*
X145887159Y-106404536D01*
X145887160Y-106404536D01*
X145887161Y-106404537D01*
X146033233Y-106465042D01*
X146033238Y-106465044D01*
X146150809Y-106480522D01*
X146189999Y-106485682D01*
X146190000Y-106485682D01*
X146190001Y-106485682D01*
X146221352Y-106481554D01*
X146346762Y-106465044D01*
X146492841Y-106404536D01*
X146618282Y-106308282D01*
X146621388Y-106304233D01*
X146671813Y-106269577D01*
X146699931Y-106265500D01*
X147435252Y-106265500D01*
X147660984Y-106265500D01*
X147676465Y-106266718D01*
X147679081Y-106267132D01*
X147693525Y-106269419D01*
X147708632Y-106273046D01*
X147731567Y-106280499D01*
X147761437Y-106280499D01*
X147761461Y-106280500D01*
X147763481Y-106280500D01*
X148015099Y-106280500D01*
X148073290Y-106299407D01*
X148085103Y-106309496D01*
X148224304Y-106448697D01*
X148252081Y-106503214D01*
X148253300Y-106518701D01*
X148253300Y-106669438D01*
X148234393Y-106727629D01*
X148184893Y-106763593D01*
X148134988Y-106766536D01*
X148124755Y-106764500D01*
X148124748Y-106764500D01*
X147811519Y-106764500D01*
X147258740Y-106764500D01*
X147200549Y-106745593D01*
X147198473Y-106744042D01*
X147095463Y-106665000D01*
X147077041Y-106650864D01*
X147077040Y-106650863D01*
X147077038Y-106650862D01*
X146930966Y-106590357D01*
X146930958Y-106590355D01*
X146774201Y-106569718D01*
X146774199Y-106569718D01*
X146617441Y-106590355D01*
X146617433Y-106590357D01*
X146471361Y-106650862D01*
X146471360Y-106650862D01*
X146345923Y-106747113D01*
X146345913Y-106747123D01*
X146249662Y-106872560D01*
X146249662Y-106872561D01*
X146189157Y-107018633D01*
X146189155Y-107018641D01*
X146168518Y-107175399D01*
X146168518Y-107175400D01*
X146189155Y-107332158D01*
X146189157Y-107332166D01*
X146249662Y-107478238D01*
X146249662Y-107478239D01*
X146343168Y-107600098D01*
X146345918Y-107603682D01*
X146471359Y-107699936D01*
X146617438Y-107760444D01*
X146735009Y-107775922D01*
X146774199Y-107781082D01*
X146774200Y-107781082D01*
X146774201Y-107781082D01*
X146805552Y-107776954D01*
X146930962Y-107760444D01*
X147077041Y-107699936D01*
X147202482Y-107603682D01*
X147202488Y-107603673D01*
X147207070Y-107599093D01*
X147208075Y-107600098D01*
X147252478Y-107569578D01*
X147280601Y-107565500D01*
X148124747Y-107565500D01*
X148124748Y-107565500D01*
X148134983Y-107563464D01*
X148195743Y-107570653D01*
X148240675Y-107612183D01*
X148253300Y-107660561D01*
X148253300Y-108624850D01*
X148234393Y-108683041D01*
X148184893Y-108719005D01*
X148173617Y-108721947D01*
X148151070Y-108726432D01*
X148151065Y-108726434D01*
X148084750Y-108770745D01*
X148084744Y-108770751D01*
X148040433Y-108837066D01*
X148040431Y-108837072D01*
X148028800Y-108895541D01*
X148028799Y-108895553D01*
X148028799Y-108947858D01*
X148009892Y-109006049D01*
X147960392Y-109042013D01*
X147899206Y-109042013D01*
X147891914Y-109039322D01*
X147743766Y-108977957D01*
X147743758Y-108977955D01*
X147587001Y-108957318D01*
X147586999Y-108957318D01*
X147430241Y-108977955D01*
X147430233Y-108977957D01*
X147284161Y-109038462D01*
X147284160Y-109038462D01*
X147158723Y-109134713D01*
X147158713Y-109134723D01*
X147062462Y-109260160D01*
X147062462Y-109260161D01*
X147001957Y-109406233D01*
X147001955Y-109406241D01*
X146981318Y-109562999D01*
X146981318Y-109563000D01*
X147001955Y-109719758D01*
X147001957Y-109719766D01*
X147062462Y-109865838D01*
X147062462Y-109865839D01*
X147158713Y-109991276D01*
X147158718Y-109991282D01*
X147158722Y-109991285D01*
X147158723Y-109991286D01*
X147179293Y-110007070D01*
X147284159Y-110087536D01*
X147430238Y-110148044D01*
X147547809Y-110163522D01*
X147586999Y-110168682D01*
X147587000Y-110168682D01*
X147587001Y-110168682D01*
X147618352Y-110164554D01*
X147743762Y-110148044D01*
X147889841Y-110087536D01*
X147889843Y-110087534D01*
X147891913Y-110086677D01*
X147952910Y-110081876D01*
X148005079Y-110113845D01*
X148028494Y-110170373D01*
X148028799Y-110178141D01*
X148028799Y-110332046D01*
X148028800Y-110332058D01*
X148040431Y-110390527D01*
X148040433Y-110390533D01*
X148084744Y-110456848D01*
X148084747Y-110456852D01*
X148151068Y-110501167D01*
X148195530Y-110510011D01*
X148209540Y-110512798D01*
X148209545Y-110512798D01*
X148209551Y-110512800D01*
X148209552Y-110512800D01*
X149138046Y-110512800D01*
X149138047Y-110512800D01*
X149196530Y-110501167D01*
X149262851Y-110456852D01*
X149307166Y-110390531D01*
X149318799Y-110332048D01*
X149318799Y-109159200D01*
X149337706Y-109101009D01*
X149387206Y-109065045D01*
X149448392Y-109065045D01*
X149487800Y-109089194D01*
X149904804Y-109506198D01*
X149932580Y-109560713D01*
X149933799Y-109576200D01*
X149933799Y-110332046D01*
X149933800Y-110332058D01*
X149945431Y-110390527D01*
X149945433Y-110390533D01*
X149989744Y-110456848D01*
X149989747Y-110456852D01*
X150056068Y-110501167D01*
X150100530Y-110510011D01*
X150114540Y-110512798D01*
X150114545Y-110512798D01*
X150114551Y-110512800D01*
X150799687Y-110512800D01*
X150857878Y-110531707D01*
X150869691Y-110541796D01*
X152100096Y-111772202D01*
X152103797Y-111776343D01*
X152128621Y-111807471D01*
X152170512Y-111836032D01*
X152176995Y-111840452D01*
X152178505Y-111841524D01*
X152225618Y-111876295D01*
X152232173Y-111879759D01*
X152231967Y-111880148D01*
X152233952Y-111881150D01*
X152234143Y-111880754D01*
X152240822Y-111883969D01*
X152240827Y-111883973D01*
X152296800Y-111901237D01*
X152298518Y-111901802D01*
X152353800Y-111921147D01*
X152353801Y-111921147D01*
X152361092Y-111922527D01*
X152361009Y-111922961D01*
X152363197Y-111923332D01*
X152363263Y-111922895D01*
X152370596Y-111924000D01*
X152370598Y-111924001D01*
X152429141Y-111924001D01*
X152430991Y-111924036D01*
X152454054Y-111924898D01*
X152489510Y-111926225D01*
X152489516Y-111926223D01*
X152496885Y-111925394D01*
X152496934Y-111925832D01*
X152510844Y-111924001D01*
X160380412Y-111924001D01*
X160385958Y-111924312D01*
X160425534Y-111928771D01*
X160483083Y-111917881D01*
X160484899Y-111917573D01*
X160542786Y-111908849D01*
X160542789Y-111908847D01*
X160549880Y-111906660D01*
X160550011Y-111907085D01*
X160552112Y-111906393D01*
X160551966Y-111905974D01*
X160558962Y-111903525D01*
X160558971Y-111903524D01*
X160595964Y-111883972D01*
X160610751Y-111876157D01*
X160612405Y-111875322D01*
X160632555Y-111865617D01*
X160665141Y-111849926D01*
X160665145Y-111849922D01*
X160671277Y-111845743D01*
X160671527Y-111846110D01*
X160673331Y-111844830D01*
X160673067Y-111844472D01*
X160679029Y-111840070D01*
X160679037Y-111840067D01*
X160720495Y-111798607D01*
X160721747Y-111797402D01*
X160764693Y-111757556D01*
X160764696Y-111757549D01*
X160769319Y-111751754D01*
X160769665Y-111752030D01*
X160778207Y-111740896D01*
X161266108Y-111252996D01*
X161320624Y-111225219D01*
X161336111Y-111224000D01*
X162021247Y-111224000D01*
X162021248Y-111224000D01*
X162079731Y-111212367D01*
X162146052Y-111168052D01*
X162190367Y-111101731D01*
X162202000Y-111043248D01*
X162202000Y-110874499D01*
X162220907Y-110816309D01*
X162270407Y-110780345D01*
X162301000Y-110775500D01*
X162417913Y-110775500D01*
X162423459Y-110775811D01*
X162463035Y-110780270D01*
X162520584Y-110769380D01*
X162522400Y-110769072D01*
X162580287Y-110760348D01*
X162580290Y-110760346D01*
X162587381Y-110758159D01*
X162587512Y-110758584D01*
X162589613Y-110757892D01*
X162589467Y-110757473D01*
X162596463Y-110755024D01*
X162596472Y-110755023D01*
X162628109Y-110738301D01*
X162648252Y-110727656D01*
X162649906Y-110726821D01*
X162670056Y-110717116D01*
X162702642Y-110701425D01*
X162702646Y-110701421D01*
X162708778Y-110697242D01*
X162709028Y-110697609D01*
X162710832Y-110696329D01*
X162710568Y-110695971D01*
X162716530Y-110691569D01*
X162716538Y-110691566D01*
X162757997Y-110650105D01*
X162759249Y-110648900D01*
X162802194Y-110609055D01*
X162802196Y-110609051D01*
X162806823Y-110603251D01*
X162807168Y-110603526D01*
X162815709Y-110592394D01*
X163488609Y-109919496D01*
X163543125Y-109891719D01*
X163558612Y-109890500D01*
X164624747Y-109890500D01*
X164624748Y-109890500D01*
X164683231Y-109878867D01*
X164749552Y-109834552D01*
X164793867Y-109768231D01*
X164805500Y-109709748D01*
X164805500Y-108146252D01*
X164793867Y-108087769D01*
X164749552Y-108021448D01*
X164741399Y-108016000D01*
X164683233Y-107977134D01*
X164683231Y-107977133D01*
X164683228Y-107977132D01*
X164683227Y-107977132D01*
X164624758Y-107965501D01*
X164624748Y-107965500D01*
X164624747Y-107965500D01*
X164392500Y-107965500D01*
X164334309Y-107946593D01*
X164298345Y-107897093D01*
X164293500Y-107866500D01*
X164293500Y-107449500D01*
X164312407Y-107391309D01*
X164361907Y-107355345D01*
X164392500Y-107350500D01*
X164624747Y-107350500D01*
X164624748Y-107350500D01*
X164683231Y-107338867D01*
X164749552Y-107294552D01*
X164793867Y-107228231D01*
X164805500Y-107169748D01*
X164805500Y-105606252D01*
X164793867Y-105547769D01*
X164749552Y-105481448D01*
X164746637Y-105479500D01*
X164683233Y-105437134D01*
X164683231Y-105437133D01*
X164683228Y-105437132D01*
X164683227Y-105437132D01*
X164624758Y-105425501D01*
X164624748Y-105425500D01*
X163061252Y-105425500D01*
X163061251Y-105425500D01*
X163061241Y-105425501D01*
X163002772Y-105437132D01*
X163002766Y-105437134D01*
X162936451Y-105481445D01*
X162936445Y-105481451D01*
X162892134Y-105547766D01*
X162892132Y-105547772D01*
X162880501Y-105606241D01*
X162880500Y-105606253D01*
X162880500Y-107169746D01*
X162880501Y-107169758D01*
X162892132Y-107228227D01*
X162892134Y-107228233D01*
X162936445Y-107294548D01*
X162936448Y-107294552D01*
X163002769Y-107338867D01*
X163047231Y-107347711D01*
X163061241Y-107350498D01*
X163061246Y-107350498D01*
X163061252Y-107350500D01*
X163293500Y-107350500D01*
X163351691Y-107369407D01*
X163387655Y-107418907D01*
X163392500Y-107449500D01*
X163392500Y-107866500D01*
X163373593Y-107924691D01*
X163324093Y-107960655D01*
X163293500Y-107965500D01*
X163061252Y-107965500D01*
X163061251Y-107965500D01*
X163061241Y-107965501D01*
X163002772Y-107977132D01*
X163002766Y-107977134D01*
X162936451Y-108021445D01*
X162936445Y-108021451D01*
X162892134Y-108087766D01*
X162892132Y-108087772D01*
X162880501Y-108146241D01*
X162880500Y-108146253D01*
X162880500Y-109212388D01*
X162861593Y-109270579D01*
X162851504Y-109282392D01*
X162371004Y-109762892D01*
X162316487Y-109790669D01*
X162256055Y-109781098D01*
X162212790Y-109737833D01*
X162202000Y-109692888D01*
X162202000Y-109606753D01*
X162201998Y-109606741D01*
X162192842Y-109560713D01*
X162190367Y-109548269D01*
X162146052Y-109481948D01*
X162146048Y-109481945D01*
X162079733Y-109437634D01*
X162079731Y-109437633D01*
X162079728Y-109437632D01*
X162079727Y-109437632D01*
X162021258Y-109426001D01*
X162021248Y-109426000D01*
X161092752Y-109426000D01*
X161092751Y-109426000D01*
X161092741Y-109426001D01*
X161034272Y-109437632D01*
X161034266Y-109437634D01*
X160967951Y-109481945D01*
X160967945Y-109481951D01*
X160923634Y-109548266D01*
X160923632Y-109548272D01*
X160912001Y-109606741D01*
X160912000Y-109606753D01*
X160912000Y-110291889D01*
X160893093Y-110350080D01*
X160883003Y-110361893D01*
X160466003Y-110778892D01*
X160411487Y-110806669D01*
X160351055Y-110797098D01*
X160307790Y-110753833D01*
X160297000Y-110708888D01*
X160297000Y-109606753D01*
X160296998Y-109606741D01*
X160287842Y-109560713D01*
X160285367Y-109548269D01*
X160241052Y-109481948D01*
X160241048Y-109481945D01*
X160174733Y-109437634D01*
X160174731Y-109437633D01*
X160174728Y-109437632D01*
X160174727Y-109437632D01*
X160116258Y-109426001D01*
X160116248Y-109426000D01*
X160116247Y-109426000D01*
X159431111Y-109426000D01*
X159372920Y-109407093D01*
X159361107Y-109397004D01*
X159198107Y-109234004D01*
X159170330Y-109179487D01*
X159179901Y-109119055D01*
X159223166Y-109075790D01*
X159268111Y-109065000D01*
X160116247Y-109065000D01*
X160116248Y-109065000D01*
X160174731Y-109053367D01*
X160241052Y-109009052D01*
X160285367Y-108942731D01*
X160292019Y-108909291D01*
X160812501Y-108909291D01*
X160815409Y-108934374D01*
X160860713Y-109036977D01*
X160940022Y-109116286D01*
X161042627Y-109161590D01*
X161067703Y-109164499D01*
X161406998Y-109164499D01*
X161406999Y-109164498D01*
X161707000Y-109164498D01*
X161707001Y-109164499D01*
X162046290Y-109164499D01*
X162046291Y-109164498D01*
X162071374Y-109161590D01*
X162173977Y-109116286D01*
X162253286Y-109036977D01*
X162298590Y-108934372D01*
X162301499Y-108909297D01*
X162301500Y-108909295D01*
X162301500Y-108316001D01*
X162301499Y-108316000D01*
X161707001Y-108316000D01*
X161707000Y-108316001D01*
X161707000Y-109164498D01*
X161406999Y-109164498D01*
X161407000Y-109164497D01*
X161407000Y-108316000D01*
X160812502Y-108316000D01*
X160812501Y-108316001D01*
X160812501Y-108909291D01*
X160292019Y-108909291D01*
X160297000Y-108884248D01*
X160297000Y-108015999D01*
X160812500Y-108015999D01*
X160812501Y-108016000D01*
X161406999Y-108016000D01*
X161407000Y-108015998D01*
X161407000Y-106284000D01*
X161707000Y-106284000D01*
X161707000Y-108015999D01*
X161707001Y-108016000D01*
X162301498Y-108016000D01*
X162301499Y-108015998D01*
X162301499Y-107422709D01*
X162301498Y-107422708D01*
X162298590Y-107397625D01*
X162253286Y-107295022D01*
X162178268Y-107220004D01*
X162150491Y-107165487D01*
X162160062Y-107105055D01*
X162178268Y-107079996D01*
X162253286Y-107004977D01*
X162298590Y-106902372D01*
X162301499Y-106877297D01*
X162301500Y-106877295D01*
X162301500Y-106284001D01*
X162301499Y-106284000D01*
X161707000Y-106284000D01*
X161407000Y-106284000D01*
X160812501Y-106284000D01*
X160812501Y-106877291D01*
X160815409Y-106902374D01*
X160860713Y-107004977D01*
X160935732Y-107079996D01*
X160963509Y-107134513D01*
X160953938Y-107194945D01*
X160935732Y-107220004D01*
X160860713Y-107295022D01*
X160815409Y-107397627D01*
X160812500Y-107422702D01*
X160812500Y-108015999D01*
X160297000Y-108015999D01*
X160297000Y-107447752D01*
X160285367Y-107389269D01*
X160241052Y-107322948D01*
X160200287Y-107295709D01*
X160174733Y-107278634D01*
X160165724Y-107274903D01*
X160167069Y-107271655D01*
X160128781Y-107250196D01*
X160103183Y-107194623D01*
X160102500Y-107183018D01*
X160102500Y-107116981D01*
X160121407Y-107058790D01*
X160166199Y-107026245D01*
X160165724Y-107025097D01*
X160170509Y-107023114D01*
X160170907Y-107022826D01*
X160171716Y-107022614D01*
X160174725Y-107021368D01*
X160174731Y-107021367D01*
X160241052Y-106977052D01*
X160285367Y-106910731D01*
X160297000Y-106852248D01*
X160297000Y-105983999D01*
X160812500Y-105983999D01*
X160812501Y-105984000D01*
X161406999Y-105984000D01*
X161407000Y-105983998D01*
X161407000Y-105135500D01*
X161707000Y-105135500D01*
X161707000Y-105983998D01*
X161707001Y-105984000D01*
X162301498Y-105984000D01*
X162301499Y-105983999D01*
X162301499Y-105390709D01*
X162301498Y-105390708D01*
X162298590Y-105365625D01*
X162253286Y-105263022D01*
X162173977Y-105183713D01*
X162071372Y-105138409D01*
X162046297Y-105135500D01*
X161707000Y-105135500D01*
X161407000Y-105135500D01*
X161067710Y-105135500D01*
X161067707Y-105135501D01*
X161042625Y-105138409D01*
X160940022Y-105183713D01*
X160860713Y-105263022D01*
X160815409Y-105365627D01*
X160812500Y-105390702D01*
X160812500Y-105983999D01*
X160297000Y-105983999D01*
X160297000Y-105415752D01*
X160285367Y-105357269D01*
X160241052Y-105290948D01*
X160216164Y-105274318D01*
X160174733Y-105246634D01*
X160174731Y-105246633D01*
X160174728Y-105246632D01*
X160174727Y-105246632D01*
X160116258Y-105235001D01*
X160116248Y-105235000D01*
X160116247Y-105235000D01*
X159708201Y-105235000D01*
X159650010Y-105216093D01*
X159614046Y-105166593D01*
X159609201Y-105136000D01*
X159609200Y-104510584D01*
X159628107Y-104452393D01*
X159638197Y-104440580D01*
X159753358Y-104325419D01*
X159902751Y-104176027D01*
X159961176Y-104095613D01*
X160002215Y-103969306D01*
X160002215Y-103836502D01*
X159961176Y-103710196D01*
X159902751Y-103629781D01*
X159546729Y-103273759D01*
X159546725Y-103273756D01*
X159546724Y-103273755D01*
X159466314Y-103215334D01*
X159466311Y-103215333D01*
X159461587Y-103213798D01*
X159340008Y-103174295D01*
X159207204Y-103174295D01*
X159197411Y-103177477D01*
X159080895Y-103215334D01*
X159000488Y-103273754D01*
X158414646Y-103859596D01*
X158356226Y-103940003D01*
X158328866Y-104024209D01*
X158315187Y-104066312D01*
X158315187Y-104199116D01*
X158356226Y-104325422D01*
X158414651Y-104405837D01*
X158679206Y-104670392D01*
X158706982Y-104724907D01*
X158708201Y-104740394D01*
X158708201Y-105330500D01*
X158689294Y-105388691D01*
X158639794Y-105424655D01*
X158609201Y-105429500D01*
X157064498Y-105429500D01*
X157006307Y-105410593D01*
X156978987Y-105372995D01*
X156975989Y-105374523D01*
X156947783Y-105319166D01*
X156912158Y-105249249D01*
X156818251Y-105155342D01*
X156814131Y-105153243D01*
X156699923Y-105095050D01*
X156699920Y-105095049D01*
X156675376Y-105091161D01*
X156601749Y-105079500D01*
X156601746Y-105079500D01*
X156098254Y-105079500D01*
X156098251Y-105079500D01*
X156000080Y-105095049D01*
X156000076Y-105095050D01*
X155881750Y-105155341D01*
X155787841Y-105249250D01*
X155727550Y-105367576D01*
X155727549Y-105367580D01*
X155712000Y-105465751D01*
X155712000Y-106294248D01*
X155727549Y-106392419D01*
X155727550Y-106392423D01*
X155764021Y-106464000D01*
X155787842Y-106510751D01*
X155881749Y-106604658D01*
X156000080Y-106664951D01*
X156066630Y-106675491D01*
X156098251Y-106680500D01*
X156098254Y-106680500D01*
X156601749Y-106680500D01*
X156630303Y-106675976D01*
X156699920Y-106664951D01*
X156818251Y-106604658D01*
X156912158Y-106510751D01*
X156971787Y-106393724D01*
X156975989Y-106385477D01*
X156978988Y-106387005D01*
X157006315Y-106349402D01*
X157064498Y-106330500D01*
X158908000Y-106330500D01*
X158966191Y-106349407D01*
X159002155Y-106398907D01*
X159007000Y-106429500D01*
X159007000Y-106852246D01*
X159007001Y-106852258D01*
X159018632Y-106910727D01*
X159018634Y-106910733D01*
X159062945Y-106977048D01*
X159062948Y-106977052D01*
X159129269Y-107021367D01*
X159129272Y-107021367D01*
X159138276Y-107025097D01*
X159136928Y-107028350D01*
X159175189Y-107049770D01*
X159200812Y-107105331D01*
X159201500Y-107116981D01*
X159201500Y-107183018D01*
X159182593Y-107241209D01*
X159137799Y-107273753D01*
X159138276Y-107274903D01*
X159133487Y-107276886D01*
X159133093Y-107277173D01*
X159132288Y-107277383D01*
X159129266Y-107278634D01*
X159062951Y-107322945D01*
X159062945Y-107322951D01*
X159018634Y-107389266D01*
X159018632Y-107389272D01*
X159007001Y-107447741D01*
X159007000Y-107447753D01*
X159007000Y-108803889D01*
X158988093Y-108862080D01*
X158938593Y-108898044D01*
X158877407Y-108898044D01*
X158837996Y-108873893D01*
X158621496Y-108657393D01*
X158593719Y-108602876D01*
X158592500Y-108587389D01*
X158592500Y-108158253D01*
X158592498Y-108158241D01*
X158588805Y-108139674D01*
X158580867Y-108099769D01*
X158536552Y-108033448D01*
X158536548Y-108033445D01*
X158470233Y-107989134D01*
X158470231Y-107989133D01*
X158470228Y-107989132D01*
X158470227Y-107989132D01*
X158411758Y-107977501D01*
X158411748Y-107977500D01*
X157422252Y-107977500D01*
X157422251Y-107977500D01*
X157422241Y-107977501D01*
X157363772Y-107989132D01*
X157363766Y-107989134D01*
X157293297Y-108036221D01*
X157234408Y-108052830D01*
X157177005Y-108031652D01*
X157153883Y-108005632D01*
X157140838Y-107984344D01*
X157140831Y-107984335D01*
X156977232Y-107792785D01*
X156977229Y-107792782D01*
X156977224Y-107792776D01*
X156977217Y-107792770D01*
X156977214Y-107792767D01*
X156785664Y-107629168D01*
X156785656Y-107629162D01*
X156570862Y-107497535D01*
X156570856Y-107497532D01*
X156338112Y-107401127D01*
X156338113Y-107401127D01*
X156093146Y-107342316D01*
X155979306Y-107333357D01*
X155904882Y-107327500D01*
X155779118Y-107327500D01*
X155708671Y-107333044D01*
X155590853Y-107342316D01*
X155345886Y-107401127D01*
X155113143Y-107497532D01*
X155113137Y-107497535D01*
X154898343Y-107629162D01*
X154898335Y-107629168D01*
X154706785Y-107792767D01*
X154706767Y-107792785D01*
X154543168Y-107984335D01*
X154543159Y-107984347D01*
X154530114Y-108005635D01*
X154483588Y-108045371D01*
X154422591Y-108050170D01*
X154390702Y-108036221D01*
X154320233Y-107989134D01*
X154320231Y-107989133D01*
X154320228Y-107989132D01*
X154320227Y-107989132D01*
X154261758Y-107977501D01*
X154261748Y-107977500D01*
X153272252Y-107977500D01*
X153272251Y-107977500D01*
X153272241Y-107977501D01*
X153213772Y-107989132D01*
X153213766Y-107989134D01*
X153147451Y-108033445D01*
X153147445Y-108033451D01*
X153103134Y-108099766D01*
X153103132Y-108099772D01*
X153099597Y-108117544D01*
X153069700Y-108170927D01*
X153014134Y-108196542D01*
X152954125Y-108184604D01*
X152912593Y-108139674D01*
X152903500Y-108098228D01*
X152903500Y-107935001D01*
X152903499Y-107935000D01*
X152055000Y-107935000D01*
X152055000Y-108529498D01*
X152055001Y-108529499D01*
X152648290Y-108529499D01*
X152648291Y-108529498D01*
X152673374Y-108526590D01*
X152775977Y-108481286D01*
X152855286Y-108401977D01*
X152901935Y-108296327D01*
X152942736Y-108250732D01*
X153002544Y-108237826D01*
X153058517Y-108262540D01*
X153089273Y-108315433D01*
X153091500Y-108336315D01*
X153091500Y-108925389D01*
X153072593Y-108983580D01*
X153062500Y-108995396D01*
X153051678Y-109006217D01*
X152997160Y-109033992D01*
X152943793Y-109027674D01*
X152823766Y-108977957D01*
X152823758Y-108977955D01*
X152667001Y-108957318D01*
X152666999Y-108957318D01*
X152510241Y-108977955D01*
X152510233Y-108977957D01*
X152364161Y-109038462D01*
X152364160Y-109038462D01*
X152238723Y-109134713D01*
X152238713Y-109134723D01*
X152142462Y-109260160D01*
X152142462Y-109260161D01*
X152081957Y-109406233D01*
X152081955Y-109406241D01*
X152061318Y-109562999D01*
X152061318Y-109563000D01*
X152081955Y-109719758D01*
X152081957Y-109719766D01*
X152142462Y-109865838D01*
X152142462Y-109865839D01*
X152238713Y-109991276D01*
X152238718Y-109991282D01*
X152238722Y-109991285D01*
X152238723Y-109991286D01*
X152259293Y-110007070D01*
X152364159Y-110087536D01*
X152510238Y-110148044D01*
X152627809Y-110163522D01*
X152666999Y-110168682D01*
X152667000Y-110168682D01*
X152667001Y-110168682D01*
X152698352Y-110164554D01*
X152823762Y-110148044D01*
X152969841Y-110087536D01*
X153039665Y-110033957D01*
X153097341Y-110013534D01*
X153099932Y-110013500D01*
X153103913Y-110013500D01*
X153109459Y-110013811D01*
X153149035Y-110018270D01*
X153206584Y-110007380D01*
X153208400Y-110007072D01*
X153266287Y-109998348D01*
X153266290Y-109998346D01*
X153273381Y-109996159D01*
X153273512Y-109996584D01*
X153275613Y-109995892D01*
X153275467Y-109995473D01*
X153282463Y-109993024D01*
X153282472Y-109993023D01*
X153314109Y-109976301D01*
X153334252Y-109965656D01*
X153335906Y-109964821D01*
X153356056Y-109955116D01*
X153388642Y-109939425D01*
X153388646Y-109939421D01*
X153394778Y-109935242D01*
X153395028Y-109935609D01*
X153396832Y-109934329D01*
X153396568Y-109933971D01*
X153402529Y-109929570D01*
X153402538Y-109929566D01*
X153424605Y-109907497D01*
X153479121Y-109879719D01*
X153494610Y-109878500D01*
X154261747Y-109878500D01*
X154261748Y-109878500D01*
X154320231Y-109866867D01*
X154386552Y-109822552D01*
X154386554Y-109822548D01*
X154390701Y-109819778D01*
X154449589Y-109803169D01*
X154506993Y-109824346D01*
X154530115Y-109850366D01*
X154543158Y-109871651D01*
X154543168Y-109871664D01*
X154668381Y-110018270D01*
X154706776Y-110063224D01*
X154706782Y-110063229D01*
X154706785Y-110063232D01*
X154806085Y-110148042D01*
X154898341Y-110226836D01*
X154898343Y-110226837D01*
X155113137Y-110358464D01*
X155113143Y-110358467D01*
X155345887Y-110454872D01*
X155345889Y-110454873D01*
X155590852Y-110513683D01*
X155779118Y-110528500D01*
X155779125Y-110528500D01*
X155904875Y-110528500D01*
X155904882Y-110528500D01*
X156093148Y-110513683D01*
X156338111Y-110454873D01*
X156570859Y-110358466D01*
X156785659Y-110226836D01*
X156977224Y-110063224D01*
X157140836Y-109871659D01*
X157153884Y-109850366D01*
X157200407Y-109810630D01*
X157261403Y-109805828D01*
X157293297Y-109819778D01*
X157297447Y-109822551D01*
X157297448Y-109822552D01*
X157363769Y-109866867D01*
X157402143Y-109874500D01*
X157422241Y-109878498D01*
X157422246Y-109878498D01*
X157422252Y-109878500D01*
X157422253Y-109878500D01*
X158411747Y-109878500D01*
X158411748Y-109878500D01*
X158470231Y-109866867D01*
X158470233Y-109866865D01*
X158470235Y-109866865D01*
X158470304Y-109866837D01*
X158470426Y-109866827D01*
X158479794Y-109864964D01*
X158480014Y-109866072D01*
X158531301Y-109862037D01*
X158578193Y-109888297D01*
X158978004Y-110288108D01*
X159005781Y-110342625D01*
X159007000Y-110358112D01*
X159007000Y-110924001D01*
X158988093Y-110982192D01*
X158938593Y-111018156D01*
X158908000Y-111023001D01*
X152666111Y-111023001D01*
X152607920Y-111004094D01*
X152596107Y-110994005D01*
X151252795Y-109650693D01*
X151225018Y-109596176D01*
X151223799Y-109580689D01*
X151223799Y-108895553D01*
X151223797Y-108895541D01*
X151217141Y-108862080D01*
X151212166Y-108837069D01*
X151167851Y-108770748D01*
X151167847Y-108770745D01*
X151101532Y-108726434D01*
X151101530Y-108726433D01*
X151101527Y-108726432D01*
X151101526Y-108726432D01*
X151043057Y-108714801D01*
X151043047Y-108714800D01*
X151043046Y-108714800D01*
X150287200Y-108714800D01*
X150229009Y-108695893D01*
X150217196Y-108685804D01*
X150109496Y-108578104D01*
X150081719Y-108523587D01*
X150080500Y-108508100D01*
X150080500Y-108274289D01*
X150906500Y-108274289D01*
X150906501Y-108274291D01*
X150909409Y-108299374D01*
X150954713Y-108401977D01*
X151034022Y-108481286D01*
X151136627Y-108526590D01*
X151161703Y-108529499D01*
X151754998Y-108529499D01*
X151755000Y-108529497D01*
X151755000Y-107935001D01*
X151754999Y-107935000D01*
X150906502Y-107935000D01*
X150906501Y-107935001D01*
X150906500Y-108274289D01*
X150080500Y-108274289D01*
X150080500Y-107634999D01*
X150906500Y-107634999D01*
X150906501Y-107635000D01*
X151754999Y-107635000D01*
X151755000Y-107634999D01*
X151755000Y-107040501D01*
X151754999Y-107040500D01*
X152055000Y-107040500D01*
X152055000Y-107634999D01*
X152055001Y-107635000D01*
X152903498Y-107635000D01*
X152903499Y-107634999D01*
X152903499Y-107295709D01*
X152903498Y-107295708D01*
X152900590Y-107270625D01*
X152855286Y-107168022D01*
X152775977Y-107088713D01*
X152673372Y-107043409D01*
X152648297Y-107040500D01*
X152055000Y-107040500D01*
X151754999Y-107040500D01*
X151161710Y-107040500D01*
X151161707Y-107040501D01*
X151136625Y-107043409D01*
X151034022Y-107088713D01*
X150954713Y-107168022D01*
X150909409Y-107270627D01*
X150906500Y-107295702D01*
X150906500Y-107634999D01*
X150080500Y-107634999D01*
X150080500Y-107608608D01*
X150099407Y-107550417D01*
X150124498Y-107526293D01*
X150129755Y-107522780D01*
X150149552Y-107509552D01*
X150193867Y-107443231D01*
X150205500Y-107384748D01*
X150205500Y-106979770D01*
X150224407Y-106921580D01*
X150234498Y-106909766D01*
X150256786Y-106887478D01*
X150302090Y-106784872D01*
X150304999Y-106759797D01*
X150305000Y-106759795D01*
X150304999Y-106665000D01*
X149629000Y-106665000D01*
X149570809Y-106646093D01*
X149534845Y-106596593D01*
X149530000Y-106566000D01*
X149530000Y-106464000D01*
X149548907Y-106405809D01*
X149598407Y-106369845D01*
X149629000Y-106365000D01*
X150304998Y-106365000D01*
X150304999Y-106364998D01*
X150304999Y-106364500D01*
X150323906Y-106306309D01*
X150373406Y-106270345D01*
X150403999Y-106265500D01*
X150909088Y-106265500D01*
X150967279Y-106284407D01*
X151003243Y-106333907D01*
X151006185Y-106345184D01*
X151017632Y-106402727D01*
X151017634Y-106402733D01*
X151059270Y-106465044D01*
X151061948Y-106469052D01*
X151128269Y-106513367D01*
X151172731Y-106522211D01*
X151186741Y-106524998D01*
X151186746Y-106524998D01*
X151186752Y-106525000D01*
X151186753Y-106525000D01*
X152623247Y-106525000D01*
X152623248Y-106525000D01*
X152681731Y-106513367D01*
X152748052Y-106469052D01*
X152792367Y-106402731D01*
X152792368Y-106402725D01*
X152796097Y-106393724D01*
X152799350Y-106395071D01*
X152820770Y-106356811D01*
X152876331Y-106331188D01*
X152887981Y-106330500D01*
X153510502Y-106330500D01*
X153568693Y-106349407D01*
X153596012Y-106387004D01*
X153599011Y-106385477D01*
X153608722Y-106404536D01*
X153662842Y-106510751D01*
X153756749Y-106604658D01*
X153875080Y-106664951D01*
X153941630Y-106675491D01*
X153973251Y-106680500D01*
X153973254Y-106680500D01*
X154476749Y-106680500D01*
X154505303Y-106675976D01*
X154574920Y-106664951D01*
X154693251Y-106604658D01*
X154787158Y-106510751D01*
X154847451Y-106392420D01*
X154861024Y-106306723D01*
X154863000Y-106294248D01*
X154863000Y-105465751D01*
X154856491Y-105424655D01*
X154847451Y-105367580D01*
X154787158Y-105249249D01*
X154693251Y-105155342D01*
X154689131Y-105153243D01*
X154574923Y-105095050D01*
X154574920Y-105095049D01*
X154550376Y-105091161D01*
X154476749Y-105079500D01*
X154476746Y-105079500D01*
X153973254Y-105079500D01*
X153973251Y-105079500D01*
X153875080Y-105095049D01*
X153875076Y-105095050D01*
X153756750Y-105155341D01*
X153662841Y-105249250D01*
X153599011Y-105374523D01*
X153596011Y-105372994D01*
X153568685Y-105410598D01*
X153510502Y-105429500D01*
X152887981Y-105429500D01*
X152829790Y-105410593D01*
X152797245Y-105365800D01*
X152796097Y-105366276D01*
X152794114Y-105361490D01*
X152793826Y-105361093D01*
X152793614Y-105360283D01*
X152792367Y-105357272D01*
X152792367Y-105357269D01*
X152748052Y-105290948D01*
X152723164Y-105274318D01*
X152681733Y-105246634D01*
X152681731Y-105246633D01*
X152681728Y-105246632D01*
X152681727Y-105246632D01*
X152623258Y-105235001D01*
X152623248Y-105235000D01*
X151186752Y-105235000D01*
X151186751Y-105235000D01*
X151186741Y-105235001D01*
X151128272Y-105246632D01*
X151128266Y-105246634D01*
X151061951Y-105290945D01*
X151061945Y-105290951D01*
X151017634Y-105357266D01*
X151017632Y-105357272D01*
X151012153Y-105384816D01*
X150982256Y-105438199D01*
X150926690Y-105463814D01*
X150915056Y-105464500D01*
X150024748Y-105464500D01*
X149335252Y-105464500D01*
X149335251Y-105464500D01*
X149335241Y-105464501D01*
X149276772Y-105476132D01*
X149276766Y-105476134D01*
X149210451Y-105520445D01*
X149210445Y-105520451D01*
X149166134Y-105586766D01*
X149166132Y-105586772D01*
X149154501Y-105645241D01*
X149154500Y-105645253D01*
X149154500Y-106007100D01*
X149135593Y-106065291D01*
X149086093Y-106101255D01*
X149024907Y-106101255D01*
X148985496Y-106077104D01*
X148959286Y-106050894D01*
X148959284Y-106050891D01*
X148467909Y-105559516D01*
X148467905Y-105559513D01*
X148465423Y-105557031D01*
X148465423Y-105557030D01*
X148445343Y-105536951D01*
X148445342Y-105536950D01*
X148423847Y-105525997D01*
X148410608Y-105517884D01*
X148404581Y-105513505D01*
X148391090Y-105503704D01*
X148391088Y-105503703D01*
X148368142Y-105496247D01*
X148353788Y-105490301D01*
X148332306Y-105479354D01*
X148308474Y-105475579D01*
X148293374Y-105471953D01*
X148270437Y-105464500D01*
X148270433Y-105464500D01*
X148238519Y-105464500D01*
X148124748Y-105464500D01*
X147811519Y-105464500D01*
X146668546Y-105464500D01*
X146610355Y-105445593D01*
X146608279Y-105444042D01*
X146515688Y-105372995D01*
X146492841Y-105355464D01*
X146492840Y-105355463D01*
X146492838Y-105355462D01*
X146346766Y-105294957D01*
X146346758Y-105294955D01*
X146190001Y-105274318D01*
X146189999Y-105274318D01*
X146033241Y-105294955D01*
X146033233Y-105294957D01*
X145887161Y-105355462D01*
X145887160Y-105355462D01*
X145756570Y-105455668D01*
X145755509Y-105454286D01*
X145708416Y-105478281D01*
X145692929Y-105479500D01*
X145638600Y-105479500D01*
X145580409Y-105460593D01*
X145544445Y-105411093D01*
X145539600Y-105380500D01*
X145539600Y-105377653D01*
X145539598Y-105377641D01*
X145535546Y-105357272D01*
X145527967Y-105319169D01*
X145483652Y-105252848D01*
X145483648Y-105252845D01*
X145417333Y-105208534D01*
X145417331Y-105208533D01*
X145417328Y-105208532D01*
X145417327Y-105208532D01*
X145358858Y-105196901D01*
X145358848Y-105196900D01*
X143922352Y-105196900D01*
X143922351Y-105196900D01*
X143922341Y-105196901D01*
X143863872Y-105208532D01*
X143863866Y-105208534D01*
X143797551Y-105252845D01*
X143797545Y-105252851D01*
X143753234Y-105319166D01*
X143753232Y-105319172D01*
X143741601Y-105377641D01*
X143741600Y-105377653D01*
X143741600Y-106306146D01*
X134379500Y-106306146D01*
X134379500Y-104426190D01*
X143642100Y-104426190D01*
X143642101Y-104426191D01*
X143645009Y-104451274D01*
X143690313Y-104553877D01*
X143769622Y-104633186D01*
X143872227Y-104678490D01*
X143897303Y-104681399D01*
X144490598Y-104681399D01*
X144490600Y-104681398D01*
X144490600Y-104086900D01*
X144790600Y-104086900D01*
X144790600Y-104681398D01*
X144790601Y-104681399D01*
X145383890Y-104681399D01*
X145383891Y-104681398D01*
X145408974Y-104678490D01*
X145511577Y-104633186D01*
X145590886Y-104553877D01*
X145636190Y-104451272D01*
X145639099Y-104426197D01*
X145639100Y-104426194D01*
X145639100Y-104086901D01*
X145639099Y-104086900D01*
X144790600Y-104086900D01*
X144490600Y-104086900D01*
X143642102Y-104086900D01*
X143642101Y-104086901D01*
X143642100Y-104426190D01*
X134379500Y-104426190D01*
X134379500Y-103786898D01*
X143642100Y-103786898D01*
X143642101Y-103786900D01*
X144490599Y-103786900D01*
X144490600Y-103786899D01*
X144790600Y-103786899D01*
X144790601Y-103786900D01*
X145639098Y-103786900D01*
X145639099Y-103786899D01*
X145639099Y-103447609D01*
X145639098Y-103447608D01*
X145636190Y-103422525D01*
X145590886Y-103319922D01*
X145511577Y-103240613D01*
X145408972Y-103195309D01*
X145383897Y-103192400D01*
X144790601Y-103192400D01*
X144790600Y-103192401D01*
X144790600Y-103786899D01*
X144490600Y-103786899D01*
X144490600Y-103192401D01*
X144490599Y-103192400D01*
X143897310Y-103192400D01*
X143897307Y-103192401D01*
X143872225Y-103195309D01*
X143769622Y-103240613D01*
X143690313Y-103319922D01*
X143645009Y-103422527D01*
X143642100Y-103447602D01*
X143642100Y-103786898D01*
X134379500Y-103786898D01*
X134379500Y-103049791D01*
X146665001Y-103049791D01*
X146667909Y-103074874D01*
X146713213Y-103177477D01*
X146792522Y-103256786D01*
X146895127Y-103302090D01*
X146920203Y-103304999D01*
X147564998Y-103304999D01*
X147565000Y-103304998D01*
X147565000Y-103304997D01*
X147865000Y-103304997D01*
X147865001Y-103304999D01*
X148509790Y-103304999D01*
X148509791Y-103304998D01*
X148534874Y-103302090D01*
X148637477Y-103256786D01*
X148716786Y-103177477D01*
X148762090Y-103074872D01*
X148764999Y-103049797D01*
X148765000Y-103049795D01*
X148765000Y-102855001D01*
X148764999Y-102855000D01*
X149965001Y-102855000D01*
X149965001Y-103049791D01*
X149967909Y-103074874D01*
X150013213Y-103177477D01*
X150092522Y-103256786D01*
X150195127Y-103302090D01*
X150220203Y-103304999D01*
X150864998Y-103304999D01*
X150865000Y-103304998D01*
X150865000Y-103304997D01*
X151164999Y-103304997D01*
X151165001Y-103304999D01*
X151809790Y-103304999D01*
X151809791Y-103304998D01*
X151834874Y-103302090D01*
X151937477Y-103256786D01*
X152016786Y-103177477D01*
X152062090Y-103074872D01*
X152064999Y-103049797D01*
X152065000Y-103049795D01*
X152065000Y-102855001D01*
X152064999Y-102855000D01*
X151165001Y-102855000D01*
X151164999Y-102855001D01*
X151164999Y-103304997D01*
X150865000Y-103304997D01*
X150865000Y-102855001D01*
X150864999Y-102855000D01*
X149965001Y-102855000D01*
X148764999Y-102855000D01*
X147865001Y-102855000D01*
X147865000Y-102855001D01*
X147865000Y-103304997D01*
X147565000Y-103304997D01*
X147565000Y-102855001D01*
X147564999Y-102855000D01*
X146665002Y-102855000D01*
X146665001Y-102855001D01*
X146665001Y-103049791D01*
X134379500Y-103049791D01*
X134379500Y-100800002D01*
X136260317Y-100800002D01*
X136279021Y-101049593D01*
X136279023Y-101049603D01*
X136334718Y-101293623D01*
X136426160Y-101526611D01*
X136426169Y-101526630D01*
X136551308Y-101743377D01*
X136551312Y-101743383D01*
X136652542Y-101870323D01*
X137234539Y-101288325D01*
X137347009Y-101420735D01*
X137448923Y-101498208D01*
X136863339Y-102083792D01*
X136890850Y-102109318D01*
X136890854Y-102109321D01*
X137097662Y-102250320D01*
X137323169Y-102358917D01*
X137562343Y-102432693D01*
X137562353Y-102432695D01*
X137809847Y-102469999D01*
X137809856Y-102470000D01*
X138060144Y-102470000D01*
X138060152Y-102469999D01*
X138307646Y-102432695D01*
X138307656Y-102432693D01*
X138546830Y-102358917D01*
X138772338Y-102250320D01*
X138979139Y-102109326D01*
X138979149Y-102109318D01*
X139006659Y-102083792D01*
X138421904Y-101499036D01*
X138452431Y-101480669D01*
X138586658Y-101353523D01*
X138632719Y-101285586D01*
X139217456Y-101870323D01*
X139318681Y-101743391D01*
X139318691Y-101743377D01*
X139443830Y-101526630D01*
X139443839Y-101526611D01*
X139535281Y-101293623D01*
X139590976Y-101049603D01*
X139590978Y-101049593D01*
X139609683Y-100800002D01*
X141340317Y-100800002D01*
X141359021Y-101049593D01*
X141359023Y-101049603D01*
X141414718Y-101293623D01*
X141506160Y-101526611D01*
X141506169Y-101526630D01*
X141631308Y-101743377D01*
X141631312Y-101743383D01*
X141732542Y-101870323D01*
X142314539Y-101288325D01*
X142427009Y-101420735D01*
X142528923Y-101498208D01*
X141943339Y-102083792D01*
X141970850Y-102109318D01*
X141970854Y-102109321D01*
X142177662Y-102250320D01*
X142403169Y-102358917D01*
X142642343Y-102432693D01*
X142642353Y-102432695D01*
X142889847Y-102469999D01*
X142889856Y-102470000D01*
X143140144Y-102470000D01*
X143140152Y-102469999D01*
X143387646Y-102432695D01*
X143387656Y-102432693D01*
X143626830Y-102358917D01*
X143852338Y-102250320D01*
X144059139Y-102109326D01*
X144059149Y-102109318D01*
X144086660Y-102083792D01*
X143501904Y-101499036D01*
X143532431Y-101480669D01*
X143666658Y-101353523D01*
X143712719Y-101285586D01*
X144297456Y-101870323D01*
X144398681Y-101743391D01*
X144398691Y-101743377D01*
X144523830Y-101526630D01*
X144523839Y-101526611D01*
X144615281Y-101293623D01*
X144670976Y-101049603D01*
X144670978Y-101049593D01*
X144689683Y-100800002D01*
X144689683Y-100799997D01*
X144670978Y-100550406D01*
X144670976Y-100550396D01*
X144615281Y-100306376D01*
X144523839Y-100073388D01*
X144523830Y-100073369D01*
X144398691Y-99856622D01*
X144398687Y-99856616D01*
X144297456Y-99729675D01*
X143715458Y-100311672D01*
X143602991Y-100179265D01*
X143501074Y-100101790D01*
X144086659Y-99516206D01*
X144059150Y-99490682D01*
X143852334Y-99349678D01*
X143626830Y-99241082D01*
X143387656Y-99167306D01*
X143387646Y-99167304D01*
X143140152Y-99130000D01*
X142889847Y-99130000D01*
X142642353Y-99167304D01*
X142642343Y-99167306D01*
X142403169Y-99241082D01*
X142177662Y-99349679D01*
X141970851Y-99490680D01*
X141943339Y-99516206D01*
X142528096Y-100100963D01*
X142497569Y-100119331D01*
X142363342Y-100246477D01*
X142317280Y-100314413D01*
X141732542Y-99729675D01*
X141631310Y-99856619D01*
X141506164Y-100073379D01*
X141506160Y-100073388D01*
X141414718Y-100306376D01*
X141359023Y-100550396D01*
X141359021Y-100550406D01*
X141340317Y-100799997D01*
X141340317Y-100800002D01*
X139609683Y-100800002D01*
X139609683Y-100799997D01*
X139590978Y-100550406D01*
X139590976Y-100550396D01*
X139535281Y-100306376D01*
X139443839Y-100073388D01*
X139443830Y-100073369D01*
X139318691Y-99856622D01*
X139318687Y-99856616D01*
X139217456Y-99729675D01*
X138635458Y-100311672D01*
X138522991Y-100179265D01*
X138421074Y-100101790D01*
X139006659Y-99516206D01*
X138979150Y-99490682D01*
X138772334Y-99349678D01*
X138546830Y-99241082D01*
X138307656Y-99167306D01*
X138307646Y-99167304D01*
X138060152Y-99130000D01*
X137809847Y-99130000D01*
X137562353Y-99167304D01*
X137562343Y-99167306D01*
X137323169Y-99241082D01*
X137097662Y-99349679D01*
X136890851Y-99490680D01*
X136863339Y-99516206D01*
X137448096Y-100100963D01*
X137417569Y-100119331D01*
X137283342Y-100246477D01*
X137237280Y-100314413D01*
X136652542Y-99729675D01*
X136551310Y-99856619D01*
X136426164Y-100073379D01*
X136426160Y-100073388D01*
X136334718Y-100306376D01*
X136279023Y-100550396D01*
X136279021Y-100550406D01*
X136260317Y-100799997D01*
X136260317Y-100800002D01*
X134379500Y-100800002D01*
X134379500Y-98260003D01*
X139149456Y-98260003D01*
X139169592Y-98490170D01*
X139169593Y-98490177D01*
X139169594Y-98490178D01*
X139229396Y-98713363D01*
X139327045Y-98922772D01*
X139459574Y-99112043D01*
X139622957Y-99275426D01*
X139812228Y-99407955D01*
X140021637Y-99505604D01*
X140244822Y-99565406D01*
X140244826Y-99565406D01*
X140244829Y-99565407D01*
X140474997Y-99585544D01*
X140475000Y-99585544D01*
X140475003Y-99585544D01*
X140705170Y-99565407D01*
X140705171Y-99565406D01*
X140705178Y-99565406D01*
X140928363Y-99505604D01*
X141137772Y-99407955D01*
X141327043Y-99275426D01*
X141490426Y-99112043D01*
X141615642Y-98933215D01*
X141664507Y-98896394D01*
X141696738Y-98891000D01*
X144225974Y-98891000D01*
X144225978Y-98891001D01*
X144299348Y-98891000D01*
X144305815Y-98891424D01*
X144385178Y-98901871D01*
X144410142Y-98908560D01*
X144475054Y-98935447D01*
X144497435Y-98948368D01*
X144560877Y-98997047D01*
X144565752Y-99001321D01*
X144813624Y-99249193D01*
X144817898Y-99254067D01*
X144866622Y-99317568D01*
X144879543Y-99339949D01*
X144906430Y-99404862D01*
X144913119Y-99429827D01*
X144923575Y-99509261D01*
X144923999Y-99515728D01*
X144923999Y-100300009D01*
X144924008Y-100300301D01*
X144924008Y-100365680D01*
X144951912Y-100577652D01*
X145007245Y-100784169D01*
X145007250Y-100784183D01*
X145089062Y-100981700D01*
X145089063Y-100981701D01*
X145195957Y-101166853D01*
X145195959Y-101166855D01*
X145195961Y-101166859D01*
X145326114Y-101336482D01*
X145326118Y-101336486D01*
X145345341Y-101355710D01*
X145548924Y-101559293D01*
X145548938Y-101559321D01*
X145577920Y-101588302D01*
X145577920Y-101588303D01*
X145653512Y-101663893D01*
X145653516Y-101663896D01*
X145653518Y-101663898D01*
X145675129Y-101680480D01*
X145823135Y-101794047D01*
X145823142Y-101794051D01*
X145823141Y-101794051D01*
X145856367Y-101813233D01*
X146008296Y-101900947D01*
X146069209Y-101926177D01*
X146205810Y-101982758D01*
X146205820Y-101982761D01*
X146205826Y-101982764D01*
X146412346Y-102038098D01*
X146624321Y-102066002D01*
X146640723Y-102066001D01*
X146698913Y-102084905D01*
X146734879Y-102134404D01*
X146734882Y-102195589D01*
X146717336Y-102224225D01*
X146718398Y-102224953D01*
X146713214Y-102232520D01*
X146667909Y-102335127D01*
X146665000Y-102360202D01*
X146665000Y-102554999D01*
X146665001Y-102555000D01*
X148764998Y-102555000D01*
X148764999Y-102554999D01*
X149965000Y-102554999D01*
X149965001Y-102555000D01*
X152064998Y-102555000D01*
X152092311Y-102527687D01*
X152146827Y-102499909D01*
X152207259Y-102509480D01*
X152232313Y-102527681D01*
X152691505Y-102986873D01*
X152719281Y-103041388D01*
X152720500Y-103056875D01*
X152720500Y-103486746D01*
X152720501Y-103486758D01*
X152732132Y-103545227D01*
X152732133Y-103545231D01*
X152776448Y-103611552D01*
X152842769Y-103655867D01*
X152887231Y-103664711D01*
X152901241Y-103667498D01*
X152901246Y-103667498D01*
X152901252Y-103667500D01*
X152901253Y-103667500D01*
X153829747Y-103667500D01*
X153829748Y-103667500D01*
X153888231Y-103655867D01*
X153954552Y-103611552D01*
X153998867Y-103545231D01*
X154010500Y-103486748D01*
X154010500Y-103486746D01*
X154625500Y-103486746D01*
X154625501Y-103486758D01*
X154637132Y-103545227D01*
X154637133Y-103545231D01*
X154681448Y-103611552D01*
X154747769Y-103655867D01*
X154792231Y-103664711D01*
X154806241Y-103667498D01*
X154806246Y-103667498D01*
X154806252Y-103667500D01*
X154806253Y-103667500D01*
X155734747Y-103667500D01*
X155734748Y-103667500D01*
X155793231Y-103655867D01*
X155859552Y-103611552D01*
X155903867Y-103545231D01*
X155909478Y-103517019D01*
X155916450Y-103481977D01*
X155918135Y-103482312D01*
X155939819Y-103432739D01*
X155992606Y-103401800D01*
X156013822Y-103399500D01*
X156991832Y-103399500D01*
X156991877Y-103399502D01*
X156994840Y-103399501D01*
X156994845Y-103399503D01*
X157030430Y-103399501D01*
X157030505Y-103399525D01*
X157071463Y-103399523D01*
X157071463Y-103399524D01*
X157165255Y-103399520D01*
X157165265Y-103399519D01*
X157222542Y-103391975D01*
X157351235Y-103375028D01*
X157418118Y-103357103D01*
X157466958Y-103358380D01*
X157467098Y-103357502D01*
X157473771Y-103358559D01*
X157474339Y-103358573D01*
X157474792Y-103358721D01*
X157474793Y-103358721D01*
X157607594Y-103358721D01*
X157607596Y-103358721D01*
X157733903Y-103317682D01*
X157814317Y-103259257D01*
X158400149Y-102673425D01*
X158458574Y-102593011D01*
X158499613Y-102466704D01*
X158499613Y-102418410D01*
X158507146Y-102380535D01*
X158547761Y-102282482D01*
X158603096Y-102075963D01*
X158631001Y-101863989D01*
X158631000Y-101757087D01*
X158631000Y-101730386D01*
X158631000Y-101134454D01*
X158649907Y-101076263D01*
X158699407Y-101040299D01*
X158710671Y-101037359D01*
X158728231Y-101033867D01*
X158794552Y-100989552D01*
X158838867Y-100923231D01*
X158850500Y-100864748D01*
X158850500Y-100315000D01*
X162186096Y-100315000D01*
X162186096Y-100654291D01*
X162189004Y-100679374D01*
X162234308Y-100781977D01*
X162313617Y-100861286D01*
X162416222Y-100906590D01*
X162441298Y-100909499D01*
X163034593Y-100909499D01*
X163034594Y-100909498D01*
X163334595Y-100909498D01*
X163334596Y-100909499D01*
X163927885Y-100909499D01*
X163927886Y-100909498D01*
X163952969Y-100906590D01*
X164055572Y-100861286D01*
X164055785Y-100861141D01*
X164056137Y-100861037D01*
X164063965Y-100857581D01*
X164064414Y-100858598D01*
X164114475Y-100843848D01*
X164172122Y-100864355D01*
X164206705Y-100914830D01*
X164210464Y-100935411D01*
X164219021Y-101049594D01*
X164219023Y-101049603D01*
X164274718Y-101293623D01*
X164366160Y-101526611D01*
X164366169Y-101526630D01*
X164491308Y-101743377D01*
X164491312Y-101743383D01*
X164592542Y-101870323D01*
X165174539Y-101288325D01*
X165287009Y-101420735D01*
X165388923Y-101498208D01*
X164803339Y-102083792D01*
X164830850Y-102109318D01*
X164830854Y-102109321D01*
X165037662Y-102250320D01*
X165263169Y-102358917D01*
X165502343Y-102432693D01*
X165502353Y-102432695D01*
X165749847Y-102469999D01*
X165749856Y-102470000D01*
X166000144Y-102470000D01*
X166000152Y-102469999D01*
X166247646Y-102432695D01*
X166247656Y-102432693D01*
X166486830Y-102358917D01*
X166712338Y-102250320D01*
X166919139Y-102109326D01*
X166919149Y-102109318D01*
X166946660Y-102083792D01*
X166361904Y-101499036D01*
X166392431Y-101480669D01*
X166526658Y-101353523D01*
X166572719Y-101285586D01*
X167157456Y-101870323D01*
X167258681Y-101743391D01*
X167258691Y-101743377D01*
X167383830Y-101526630D01*
X167383839Y-101526611D01*
X167475281Y-101293623D01*
X167530976Y-101049603D01*
X167530978Y-101049593D01*
X167549683Y-100800002D01*
X169280317Y-100800002D01*
X169299021Y-101049593D01*
X169299023Y-101049603D01*
X169354718Y-101293623D01*
X169446160Y-101526611D01*
X169446169Y-101526630D01*
X169571308Y-101743377D01*
X169571312Y-101743383D01*
X169672542Y-101870323D01*
X170254539Y-101288325D01*
X170367009Y-101420735D01*
X170468923Y-101498208D01*
X169883339Y-102083792D01*
X169910850Y-102109318D01*
X169910854Y-102109321D01*
X170117662Y-102250320D01*
X170343169Y-102358917D01*
X170582343Y-102432693D01*
X170582353Y-102432695D01*
X170829847Y-102469999D01*
X170829856Y-102470000D01*
X171080144Y-102470000D01*
X171080152Y-102469999D01*
X171327646Y-102432695D01*
X171327656Y-102432693D01*
X171566830Y-102358917D01*
X171792338Y-102250320D01*
X171999139Y-102109326D01*
X171999149Y-102109318D01*
X172026660Y-102083792D01*
X171441904Y-101499036D01*
X171472431Y-101480669D01*
X171606658Y-101353523D01*
X171652719Y-101285586D01*
X172237456Y-101870323D01*
X172338681Y-101743391D01*
X172338691Y-101743377D01*
X172463830Y-101526630D01*
X172463839Y-101526611D01*
X172555281Y-101293623D01*
X172610976Y-101049603D01*
X172610978Y-101049593D01*
X172629683Y-100800002D01*
X172629683Y-100799997D01*
X172610978Y-100550406D01*
X172610976Y-100550396D01*
X172555281Y-100306376D01*
X172463839Y-100073388D01*
X172463830Y-100073369D01*
X172338691Y-99856622D01*
X172338687Y-99856616D01*
X172237456Y-99729675D01*
X171655458Y-100311672D01*
X171542991Y-100179265D01*
X171441074Y-100101790D01*
X172026659Y-99516206D01*
X171999150Y-99490682D01*
X171792334Y-99349678D01*
X171566830Y-99241082D01*
X171327656Y-99167306D01*
X171327646Y-99167304D01*
X171080152Y-99130000D01*
X170829847Y-99130000D01*
X170582353Y-99167304D01*
X170582343Y-99167306D01*
X170343169Y-99241082D01*
X170117662Y-99349679D01*
X169910851Y-99490680D01*
X169883339Y-99516206D01*
X170468096Y-100100963D01*
X170437569Y-100119331D01*
X170303342Y-100246477D01*
X170257280Y-100314413D01*
X169672542Y-99729675D01*
X169571310Y-99856619D01*
X169446164Y-100073379D01*
X169446160Y-100073388D01*
X169354718Y-100306376D01*
X169299023Y-100550396D01*
X169299021Y-100550406D01*
X169280317Y-100799997D01*
X169280317Y-100800002D01*
X167549683Y-100800002D01*
X167549683Y-100799997D01*
X167530978Y-100550406D01*
X167530976Y-100550396D01*
X167475281Y-100306376D01*
X167383839Y-100073388D01*
X167383830Y-100073369D01*
X167258691Y-99856622D01*
X167258687Y-99856616D01*
X167157456Y-99729675D01*
X166575458Y-100311672D01*
X166462991Y-100179265D01*
X166361074Y-100101790D01*
X166946659Y-99516206D01*
X166919150Y-99490682D01*
X166712334Y-99349678D01*
X166486830Y-99241082D01*
X166247656Y-99167306D01*
X166247646Y-99167304D01*
X166000152Y-99130000D01*
X165749847Y-99130000D01*
X165502353Y-99167304D01*
X165502343Y-99167306D01*
X165263169Y-99241082D01*
X165037662Y-99349679D01*
X164830851Y-99490680D01*
X164803339Y-99516206D01*
X165388096Y-100100963D01*
X165357569Y-100119331D01*
X165223342Y-100246477D01*
X165177280Y-100314413D01*
X164592542Y-99729675D01*
X164491310Y-99856619D01*
X164367831Y-100070492D01*
X164322361Y-100111433D01*
X164261511Y-100117829D01*
X164208523Y-100087236D01*
X164183636Y-100031340D01*
X164183094Y-100020992D01*
X164183094Y-99675710D01*
X164183093Y-99675708D01*
X164180185Y-99650625D01*
X164134881Y-99548022D01*
X164055572Y-99468713D01*
X163952967Y-99423409D01*
X163927892Y-99420500D01*
X163334596Y-99420500D01*
X163334595Y-99420501D01*
X163334595Y-100909498D01*
X163034594Y-100909498D01*
X163034595Y-100909497D01*
X163034595Y-100315001D01*
X163034594Y-100315000D01*
X162186096Y-100315000D01*
X158850500Y-100315000D01*
X158850500Y-99925252D01*
X158838867Y-99866769D01*
X158794552Y-99800448D01*
X158786586Y-99795125D01*
X158728233Y-99756134D01*
X158728231Y-99756133D01*
X158728228Y-99756132D01*
X158728227Y-99756132D01*
X158669758Y-99744501D01*
X158669748Y-99744500D01*
X157330252Y-99744500D01*
X157330251Y-99744500D01*
X157330241Y-99744501D01*
X157271772Y-99756132D01*
X157271766Y-99756134D01*
X157205451Y-99800445D01*
X157205445Y-99800451D01*
X157161134Y-99866766D01*
X157161132Y-99866772D01*
X157149501Y-99925241D01*
X157149500Y-99925253D01*
X157149500Y-100864746D01*
X157149501Y-100864758D01*
X157161132Y-100923227D01*
X157161134Y-100923233D01*
X157200201Y-100981700D01*
X157205448Y-100989552D01*
X157271769Y-101033867D01*
X157289316Y-101037357D01*
X157342698Y-101067252D01*
X157368314Y-101122817D01*
X157369000Y-101134454D01*
X157369000Y-101753849D01*
X157368576Y-101760317D01*
X157358128Y-101839679D01*
X157351439Y-101864642D01*
X157324551Y-101929557D01*
X157311629Y-101951940D01*
X157295577Y-101972859D01*
X157291303Y-101977732D01*
X157166841Y-102102195D01*
X157134724Y-102123654D01*
X157127192Y-102126774D01*
X157102234Y-102133463D01*
X157074809Y-102137076D01*
X157068338Y-102137500D01*
X156013822Y-102137500D01*
X155955631Y-102118593D01*
X155919667Y-102069093D01*
X155916713Y-102054970D01*
X155916450Y-102055023D01*
X155903981Y-101992344D01*
X155903867Y-101991769D01*
X155859552Y-101925448D01*
X155857183Y-101923865D01*
X155793233Y-101881134D01*
X155793231Y-101881133D01*
X155793228Y-101881132D01*
X155793227Y-101881132D01*
X155734758Y-101869501D01*
X155734748Y-101869500D01*
X154806252Y-101869500D01*
X154806251Y-101869500D01*
X154806241Y-101869501D01*
X154747772Y-101881132D01*
X154747766Y-101881134D01*
X154681451Y-101925445D01*
X154681445Y-101925451D01*
X154637134Y-101991766D01*
X154637132Y-101991772D01*
X154625501Y-102050241D01*
X154625500Y-102050253D01*
X154625500Y-103486746D01*
X154010500Y-103486746D01*
X154010500Y-102050252D01*
X153998867Y-101991769D01*
X153954552Y-101925448D01*
X153952183Y-101923865D01*
X153888233Y-101881134D01*
X153888231Y-101881133D01*
X153888228Y-101881132D01*
X153888227Y-101881132D01*
X153829758Y-101869501D01*
X153829748Y-101869500D01*
X153829747Y-101869500D01*
X153399877Y-101869500D01*
X153341686Y-101850593D01*
X153329873Y-101840504D01*
X152825251Y-101335882D01*
X152800075Y-101310705D01*
X152800061Y-101310678D01*
X152771079Y-101281697D01*
X152771080Y-101281697D01*
X152695488Y-101206107D01*
X152695483Y-101206103D01*
X152695481Y-101206101D01*
X152586940Y-101122817D01*
X152525865Y-101075953D01*
X152525859Y-101075949D01*
X152525857Y-101075948D01*
X152525858Y-101075948D01*
X152415321Y-101012132D01*
X152340704Y-100969053D01*
X152285371Y-100946134D01*
X152143186Y-100887240D01*
X152143172Y-100887235D01*
X152012147Y-100852129D01*
X151960832Y-100818805D01*
X151938905Y-100761684D01*
X151954740Y-100702583D01*
X151967766Y-100686498D01*
X152016785Y-100637478D01*
X152062090Y-100534872D01*
X152064999Y-100509797D01*
X152065000Y-100509795D01*
X152065000Y-100315000D01*
X149965002Y-100315000D01*
X149965001Y-100315001D01*
X149965001Y-100509791D01*
X149967909Y-100534874D01*
X150013213Y-100637477D01*
X150092522Y-100716786D01*
X150194452Y-100761792D01*
X150240047Y-100802593D01*
X150252953Y-100862401D01*
X150228239Y-100918373D01*
X150192353Y-100943820D01*
X150186768Y-100946133D01*
X150120451Y-100990445D01*
X150120445Y-100990451D01*
X150076134Y-101056766D01*
X150076132Y-101056772D01*
X150064501Y-101115241D01*
X150064500Y-101115253D01*
X150064500Y-101754746D01*
X150064501Y-101754758D01*
X150076132Y-101813227D01*
X150076134Y-101813233D01*
X150101098Y-101850593D01*
X150120448Y-101879552D01*
X150186769Y-101923867D01*
X150186772Y-101923867D01*
X150192348Y-101926177D01*
X150238874Y-101965913D01*
X150253159Y-102025407D01*
X150229746Y-102081936D01*
X150194452Y-102108207D01*
X150092522Y-102153213D01*
X150013213Y-102232522D01*
X149967909Y-102335127D01*
X149965000Y-102360202D01*
X149965000Y-102554999D01*
X148764999Y-102554999D01*
X148764999Y-102360210D01*
X148764998Y-102360208D01*
X148762090Y-102335125D01*
X148716786Y-102232522D01*
X148637477Y-102153213D01*
X148535547Y-102108207D01*
X148489951Y-102067406D01*
X148477046Y-102007597D01*
X148501760Y-101951625D01*
X148537654Y-101926176D01*
X148543220Y-101923869D01*
X148543231Y-101923867D01*
X148609552Y-101879552D01*
X148653867Y-101813231D01*
X148665500Y-101754748D01*
X148665500Y-101115252D01*
X148653867Y-101056769D01*
X148609552Y-100990448D01*
X148609548Y-100990445D01*
X148543233Y-100946134D01*
X148537648Y-100943821D01*
X148491123Y-100904083D01*
X148476840Y-100844588D01*
X148500256Y-100788061D01*
X148535548Y-100761792D01*
X148637476Y-100716787D01*
X148716786Y-100637477D01*
X148762090Y-100534872D01*
X148764999Y-100509797D01*
X148765000Y-100509795D01*
X148765000Y-100315001D01*
X148764999Y-100315000D01*
X146665002Y-100315000D01*
X146665001Y-100315001D01*
X146665001Y-100509791D01*
X146667909Y-100534874D01*
X146713969Y-100639190D01*
X146720177Y-100700060D01*
X146689421Y-100752953D01*
X146633448Y-100777667D01*
X146585518Y-100770642D01*
X146558745Y-100759552D01*
X146536366Y-100746631D01*
X146472916Y-100697947D01*
X146468042Y-100693673D01*
X146309622Y-100535254D01*
X146296377Y-100522008D01*
X146292105Y-100517136D01*
X146243377Y-100453631D01*
X146230456Y-100431250D01*
X146203569Y-100366337D01*
X146196881Y-100341375D01*
X146186424Y-100261938D01*
X146186000Y-100255470D01*
X146186000Y-100246477D01*
X146186001Y-100182178D01*
X146186000Y-100182173D01*
X146186000Y-100014999D01*
X146665000Y-100014999D01*
X146665001Y-100015000D01*
X147564999Y-100015000D01*
X147565000Y-100014999D01*
X147565000Y-99565001D01*
X147564999Y-99565000D01*
X147865000Y-99565000D01*
X147865000Y-100014999D01*
X147865001Y-100015000D01*
X148764998Y-100015000D01*
X148764999Y-100014999D01*
X149965000Y-100014999D01*
X149965001Y-100015000D01*
X150864999Y-100015000D01*
X150865000Y-100014998D01*
X151165000Y-100014998D01*
X151165001Y-100015000D01*
X152064998Y-100015000D01*
X152064999Y-100014999D01*
X152064999Y-99820210D01*
X152064998Y-99820208D01*
X152062090Y-99795125D01*
X152016786Y-99692522D01*
X151999969Y-99675705D01*
X162186094Y-99675705D01*
X162186095Y-100014999D01*
X162186096Y-100015000D01*
X163034594Y-100015000D01*
X163034595Y-100014999D01*
X163034595Y-99420501D01*
X163034594Y-99420500D01*
X162441305Y-99420500D01*
X162441302Y-99420501D01*
X162416220Y-99423409D01*
X162313617Y-99468713D01*
X162234308Y-99548022D01*
X162189004Y-99650627D01*
X162186095Y-99675702D01*
X162186094Y-99675705D01*
X151999969Y-99675705D01*
X151937477Y-99613213D01*
X151834872Y-99567909D01*
X151809797Y-99565000D01*
X151165001Y-99565000D01*
X151165000Y-99565001D01*
X151165000Y-100014998D01*
X150865000Y-100014998D01*
X150865000Y-99565001D01*
X150864999Y-99565000D01*
X150220210Y-99565000D01*
X150220207Y-99565001D01*
X150195125Y-99567909D01*
X150092522Y-99613213D01*
X150013213Y-99692522D01*
X149967909Y-99795127D01*
X149965000Y-99820202D01*
X149965000Y-100014999D01*
X148764999Y-100014999D01*
X148764999Y-100014998D01*
X148764999Y-99820210D01*
X148764998Y-99820208D01*
X148762090Y-99795125D01*
X148716786Y-99692522D01*
X148637477Y-99613213D01*
X148534872Y-99567909D01*
X148509797Y-99565000D01*
X147865000Y-99565000D01*
X147564999Y-99565000D01*
X146920210Y-99565000D01*
X146920207Y-99565001D01*
X146895125Y-99567909D01*
X146792522Y-99613213D01*
X146713213Y-99692522D01*
X146667909Y-99795127D01*
X146665000Y-99820202D01*
X146665000Y-100014999D01*
X146186000Y-100014999D01*
X146186000Y-99472717D01*
X146186000Y-99471206D01*
X146185990Y-99470911D01*
X146185991Y-99423409D01*
X146185992Y-99405522D01*
X146158088Y-99193548D01*
X146102754Y-98987029D01*
X146063958Y-98893365D01*
X146020937Y-98789499D01*
X146020936Y-98789498D01*
X145914040Y-98604342D01*
X145783888Y-98434720D01*
X145708296Y-98359127D01*
X145654119Y-98304950D01*
X145654116Y-98304948D01*
X145650661Y-98301493D01*
X145650658Y-98301488D01*
X145510051Y-98160882D01*
X145484875Y-98135705D01*
X145484861Y-98135678D01*
X145455879Y-98106697D01*
X145455880Y-98106697D01*
X145380288Y-98031107D01*
X145380283Y-98031103D01*
X145380281Y-98031101D01*
X145319929Y-97984792D01*
X145210665Y-97900953D01*
X145210659Y-97900949D01*
X145210657Y-97900948D01*
X145210658Y-97900948D01*
X145105229Y-97840081D01*
X145025504Y-97794053D01*
X145012032Y-97788473D01*
X144827986Y-97712240D01*
X144827972Y-97712235D01*
X144621454Y-97656902D01*
X144553449Y-97647950D01*
X144409479Y-97628998D01*
X144409478Y-97628998D01*
X144302576Y-97629000D01*
X141696738Y-97629000D01*
X141638547Y-97610093D01*
X141615642Y-97586784D01*
X141490429Y-97407961D01*
X141490428Y-97407960D01*
X141490426Y-97407957D01*
X141327043Y-97244574D01*
X141327039Y-97244571D01*
X141327038Y-97244570D01*
X141220997Y-97170320D01*
X141137772Y-97112045D01*
X140928363Y-97014396D01*
X140705178Y-96954594D01*
X140705177Y-96954593D01*
X140705170Y-96954592D01*
X140475003Y-96934456D01*
X140474997Y-96934456D01*
X140244829Y-96954592D01*
X140021637Y-97014396D01*
X139812229Y-97112044D01*
X139622961Y-97244570D01*
X139459570Y-97407961D01*
X139327044Y-97597229D01*
X139229396Y-97806637D01*
X139169592Y-98029829D01*
X139149456Y-98259996D01*
X139149456Y-98260003D01*
X134379500Y-98260003D01*
X134379500Y-95720002D01*
X136260317Y-95720002D01*
X136279021Y-95969593D01*
X136279023Y-95969603D01*
X136334718Y-96213623D01*
X136426160Y-96446611D01*
X136426169Y-96446630D01*
X136551308Y-96663377D01*
X136551312Y-96663383D01*
X136652542Y-96790323D01*
X137234539Y-96208325D01*
X137347009Y-96340735D01*
X137448923Y-96418208D01*
X136863339Y-97003792D01*
X136890850Y-97029318D01*
X136890854Y-97029321D01*
X137097662Y-97170320D01*
X137323169Y-97278917D01*
X137562343Y-97352693D01*
X137562353Y-97352695D01*
X137809847Y-97389999D01*
X137809856Y-97390000D01*
X138060144Y-97390000D01*
X138060152Y-97389999D01*
X138307646Y-97352695D01*
X138307656Y-97352693D01*
X138546830Y-97278917D01*
X138772338Y-97170320D01*
X138979139Y-97029326D01*
X138979149Y-97029318D01*
X139006659Y-97003792D01*
X138421904Y-96419036D01*
X138452431Y-96400669D01*
X138586658Y-96273523D01*
X138632719Y-96205586D01*
X139217456Y-96790323D01*
X139318681Y-96663391D01*
X139318691Y-96663377D01*
X139443830Y-96446630D01*
X139443839Y-96446611D01*
X139535281Y-96213623D01*
X139590976Y-95969603D01*
X139590978Y-95969593D01*
X139609683Y-95720002D01*
X141340317Y-95720002D01*
X141359021Y-95969593D01*
X141359023Y-95969603D01*
X141414718Y-96213623D01*
X141506160Y-96446611D01*
X141506169Y-96446630D01*
X141631308Y-96663377D01*
X141631312Y-96663383D01*
X141732542Y-96790323D01*
X142314539Y-96208325D01*
X142427009Y-96340735D01*
X142528923Y-96418208D01*
X141943339Y-97003792D01*
X141970850Y-97029318D01*
X141970854Y-97029321D01*
X142177662Y-97170320D01*
X142403169Y-97278917D01*
X142642343Y-97352693D01*
X142642353Y-97352695D01*
X142889847Y-97389999D01*
X142889856Y-97390000D01*
X143140144Y-97390000D01*
X143140152Y-97389999D01*
X143387646Y-97352695D01*
X143387656Y-97352693D01*
X143626830Y-97278917D01*
X143852338Y-97170320D01*
X144020420Y-97055724D01*
X147400269Y-97055724D01*
X147415828Y-97133954D01*
X147415829Y-97133957D01*
X147448956Y-97183534D01*
X148105503Y-97840081D01*
X148155080Y-97873208D01*
X148155081Y-97873208D01*
X148155082Y-97873209D01*
X148194198Y-97880989D01*
X148233313Y-97888769D01*
X148233314Y-97888769D01*
X148233315Y-97888769D01*
X148259390Y-97883582D01*
X148311545Y-97873209D01*
X148361125Y-97840081D01*
X148588108Y-97613098D01*
X148665092Y-97536115D01*
X148719608Y-97508338D01*
X148735095Y-97507119D01*
X150155402Y-97507119D01*
X150213593Y-97526026D01*
X150225405Y-97536115D01*
X150254956Y-97565665D01*
X150276949Y-97587658D01*
X150395280Y-97647951D01*
X150461830Y-97658491D01*
X150493451Y-97663500D01*
X150493454Y-97663500D01*
X150996949Y-97663500D01*
X151025503Y-97658976D01*
X151095120Y-97647951D01*
X151213451Y-97587658D01*
X151307358Y-97493751D01*
X151367651Y-97375420D01*
X151379860Y-97298328D01*
X151383200Y-97277248D01*
X152232200Y-97277248D01*
X152247749Y-97375419D01*
X152247750Y-97375423D01*
X152281094Y-97440863D01*
X152308042Y-97493751D01*
X152401949Y-97587658D01*
X152520280Y-97647951D01*
X152586830Y-97658491D01*
X152618451Y-97663500D01*
X152618454Y-97663500D01*
X153121949Y-97663500D01*
X153150503Y-97658976D01*
X153220120Y-97647951D01*
X153338451Y-97587658D01*
X153370782Y-97555326D01*
X153403114Y-97522996D01*
X153457631Y-97495219D01*
X153473117Y-97494000D01*
X156977174Y-97494000D01*
X156977178Y-97494001D01*
X157050546Y-97494000D01*
X157057005Y-97494422D01*
X157063416Y-97495266D01*
X157118642Y-97521603D01*
X157147841Y-97575372D01*
X157149500Y-97593420D01*
X157149500Y-97864746D01*
X157149501Y-97864758D01*
X157161132Y-97923227D01*
X157161133Y-97923231D01*
X157205448Y-97989552D01*
X157271769Y-98033867D01*
X157316231Y-98042711D01*
X157330241Y-98045498D01*
X157330246Y-98045498D01*
X157330252Y-98045500D01*
X157330253Y-98045500D01*
X158669747Y-98045500D01*
X158669748Y-98045500D01*
X158728231Y-98033867D01*
X158794552Y-97989552D01*
X158838867Y-97923231D01*
X158850500Y-97864748D01*
X158850500Y-97440863D01*
X160167905Y-97440863D01*
X160167906Y-97440875D01*
X160179537Y-97499344D01*
X160179539Y-97499350D01*
X160195339Y-97522996D01*
X160223853Y-97565669D01*
X160290174Y-97609984D01*
X160334636Y-97618828D01*
X160348646Y-97621615D01*
X160348651Y-97621615D01*
X160348657Y-97621617D01*
X160778529Y-97621617D01*
X160836720Y-97640524D01*
X160848532Y-97650613D01*
X161264144Y-98066224D01*
X161289318Y-98091398D01*
X161289332Y-98091426D01*
X161318313Y-98120407D01*
X161318313Y-98120408D01*
X161422791Y-98224886D01*
X161653830Y-98409131D01*
X161694552Y-98434718D01*
X161904046Y-98566351D01*
X161982938Y-98604342D01*
X162170289Y-98694564D01*
X162234504Y-98717032D01*
X162283185Y-98754097D01*
X162291812Y-98774420D01*
X162293497Y-98773723D01*
X162297228Y-98782732D01*
X162341540Y-98849048D01*
X162341543Y-98849052D01*
X162407864Y-98893367D01*
X162452326Y-98902211D01*
X162466336Y-98904998D01*
X162466341Y-98904998D01*
X162466347Y-98905000D01*
X162466348Y-98905000D01*
X163902842Y-98905000D01*
X163902843Y-98905000D01*
X163961326Y-98893367D01*
X163961327Y-98893366D01*
X163963661Y-98892902D01*
X163982976Y-98891000D01*
X167193262Y-98891000D01*
X167251453Y-98909907D01*
X167274358Y-98933216D01*
X167322045Y-99001321D01*
X167399574Y-99112043D01*
X167562957Y-99275426D01*
X167752228Y-99407955D01*
X167961637Y-99505604D01*
X168184822Y-99565406D01*
X168184826Y-99565406D01*
X168184829Y-99565407D01*
X168414997Y-99585544D01*
X168415000Y-99585544D01*
X168415003Y-99585544D01*
X168645170Y-99565407D01*
X168645171Y-99565406D01*
X168645178Y-99565406D01*
X168868363Y-99505604D01*
X169077772Y-99407955D01*
X169267043Y-99275426D01*
X169430426Y-99112043D01*
X169562955Y-98922772D01*
X169660604Y-98713363D01*
X169720406Y-98490178D01*
X169731872Y-98359128D01*
X169740544Y-98260003D01*
X169740544Y-98259996D01*
X169720407Y-98029829D01*
X169720406Y-98029826D01*
X169720406Y-98029822D01*
X169660604Y-97806637D01*
X169562955Y-97597228D01*
X169430426Y-97407957D01*
X169267043Y-97244574D01*
X169267039Y-97244571D01*
X169267038Y-97244570D01*
X169160997Y-97170320D01*
X169077772Y-97112045D01*
X168868363Y-97014396D01*
X168645178Y-96954594D01*
X168645177Y-96954593D01*
X168645170Y-96954592D01*
X168415003Y-96934456D01*
X168414997Y-96934456D01*
X168184829Y-96954592D01*
X167961637Y-97014396D01*
X167752229Y-97112044D01*
X167562961Y-97244570D01*
X167399570Y-97407961D01*
X167274358Y-97586784D01*
X167225493Y-97623606D01*
X167193262Y-97629000D01*
X163982976Y-97629000D01*
X163963661Y-97627098D01*
X163961327Y-97626633D01*
X163961326Y-97626633D01*
X163902843Y-97615000D01*
X162998262Y-97615000D01*
X162978949Y-97613098D01*
X162827568Y-97582988D01*
X162821307Y-97581310D01*
X162657894Y-97525839D01*
X162651906Y-97523359D01*
X162497119Y-97447028D01*
X162491506Y-97443788D01*
X162348014Y-97347911D01*
X162342872Y-97343965D01*
X162212025Y-97229217D01*
X162209660Y-97227002D01*
X161994900Y-97012243D01*
X161967123Y-96957726D01*
X161965905Y-96942251D01*
X161965905Y-96512369D01*
X161954272Y-96453886D01*
X161909957Y-96387565D01*
X161909953Y-96387562D01*
X161843638Y-96343251D01*
X161843636Y-96343250D01*
X161843633Y-96343249D01*
X161843632Y-96343249D01*
X161785163Y-96331618D01*
X161785153Y-96331617D01*
X160348657Y-96331617D01*
X160348656Y-96331617D01*
X160348646Y-96331618D01*
X160290177Y-96343249D01*
X160290171Y-96343251D01*
X160223856Y-96387562D01*
X160223850Y-96387568D01*
X160179539Y-96453883D01*
X160179537Y-96453889D01*
X160167906Y-96512358D01*
X160167905Y-96512370D01*
X160167905Y-97440863D01*
X158850500Y-97440863D01*
X158850500Y-96925252D01*
X158838867Y-96866769D01*
X158794552Y-96800448D01*
X158794548Y-96800445D01*
X158728233Y-96756134D01*
X158728231Y-96756133D01*
X158728228Y-96756132D01*
X158728227Y-96756132D01*
X158669758Y-96744501D01*
X158669748Y-96744500D01*
X158669747Y-96744500D01*
X158282890Y-96744500D01*
X158224699Y-96725593D01*
X158212887Y-96715504D01*
X158130434Y-96633053D01*
X158130243Y-96632874D01*
X158013115Y-96515747D01*
X158008762Y-96512370D01*
X157918758Y-96442556D01*
X157772442Y-96379239D01*
X157772439Y-96379238D01*
X157772438Y-96379238D01*
X157721277Y-96371134D01*
X157698882Y-96364818D01*
X157579179Y-96315238D01*
X157579172Y-96315235D01*
X157372654Y-96259902D01*
X157160679Y-96231998D01*
X157160678Y-96231998D01*
X157053776Y-96232000D01*
X153473117Y-96232000D01*
X153414926Y-96213093D01*
X153403114Y-96203004D01*
X153338452Y-96138343D01*
X153338451Y-96138342D01*
X153280372Y-96108749D01*
X153220123Y-96078050D01*
X153220120Y-96078049D01*
X153195576Y-96074161D01*
X153121949Y-96062500D01*
X153121946Y-96062500D01*
X152618454Y-96062500D01*
X152618451Y-96062500D01*
X152520280Y-96078049D01*
X152520276Y-96078050D01*
X152401950Y-96138341D01*
X152308041Y-96232250D01*
X152247750Y-96350576D01*
X152247749Y-96350580D01*
X152232200Y-96448751D01*
X152232200Y-97277248D01*
X151383200Y-97277248D01*
X151383200Y-96448751D01*
X151373509Y-96387568D01*
X151367651Y-96350580D01*
X151307358Y-96232249D01*
X151213451Y-96138342D01*
X151209331Y-96136243D01*
X151095123Y-96078050D01*
X151095120Y-96078049D01*
X151070576Y-96074161D01*
X150996949Y-96062500D01*
X150996946Y-96062500D01*
X150493454Y-96062500D01*
X150493451Y-96062500D01*
X150395280Y-96078049D01*
X150395276Y-96078050D01*
X150276949Y-96138342D01*
X150276947Y-96138343D01*
X150199167Y-96216123D01*
X150144650Y-96243900D01*
X150129164Y-96245119D01*
X149094305Y-96245119D01*
X149036114Y-96226212D01*
X149024301Y-96216123D01*
X148720334Y-95912156D01*
X148670757Y-95879029D01*
X148670754Y-95879028D01*
X148592525Y-95863469D01*
X148592523Y-95863469D01*
X148514294Y-95879028D01*
X148514292Y-95879029D01*
X148464716Y-95912154D01*
X147448954Y-96927916D01*
X147415829Y-96977492D01*
X147415828Y-96977494D01*
X147400269Y-97055723D01*
X147400269Y-97055724D01*
X144020420Y-97055724D01*
X144059139Y-97029326D01*
X144059149Y-97029318D01*
X144086659Y-97003792D01*
X143501904Y-96419036D01*
X143532431Y-96400669D01*
X143666658Y-96273523D01*
X143712719Y-96205586D01*
X144297456Y-96790323D01*
X144398681Y-96663391D01*
X144398691Y-96663377D01*
X144523830Y-96446630D01*
X144523839Y-96446611D01*
X144615281Y-96213623D01*
X144670976Y-95969603D01*
X144670978Y-95969593D01*
X144689683Y-95720002D01*
X144689683Y-95719997D01*
X144688835Y-95708686D01*
X146053231Y-95708686D01*
X146068790Y-95786916D01*
X146068791Y-95786919D01*
X146101918Y-95836496D01*
X146758465Y-96493043D01*
X146808042Y-96526170D01*
X146808043Y-96526170D01*
X146808044Y-96526171D01*
X146847160Y-96533951D01*
X146886275Y-96541731D01*
X146886276Y-96541731D01*
X146886277Y-96541731D01*
X146912352Y-96536544D01*
X146964507Y-96526171D01*
X147014087Y-96493043D01*
X147787128Y-95720002D01*
X164200317Y-95720002D01*
X164219021Y-95969593D01*
X164219023Y-95969603D01*
X164274718Y-96213623D01*
X164366160Y-96446611D01*
X164366169Y-96446630D01*
X164491308Y-96663377D01*
X164491312Y-96663383D01*
X164592542Y-96790323D01*
X165174539Y-96208325D01*
X165287009Y-96340735D01*
X165388923Y-96418208D01*
X164803339Y-97003792D01*
X164830850Y-97029318D01*
X164830854Y-97029321D01*
X165037662Y-97170320D01*
X165263169Y-97278917D01*
X165502343Y-97352693D01*
X165502353Y-97352695D01*
X165749847Y-97389999D01*
X165749856Y-97390000D01*
X166000144Y-97390000D01*
X166000152Y-97389999D01*
X166247646Y-97352695D01*
X166247656Y-97352693D01*
X166486830Y-97278917D01*
X166712338Y-97170320D01*
X166919139Y-97029326D01*
X166919149Y-97029318D01*
X166946659Y-97003792D01*
X166361904Y-96419036D01*
X166392431Y-96400669D01*
X166526658Y-96273523D01*
X166572719Y-96205586D01*
X167157456Y-96790323D01*
X167258681Y-96663391D01*
X167258691Y-96663377D01*
X167383830Y-96446630D01*
X167383839Y-96446611D01*
X167475281Y-96213623D01*
X167530976Y-95969603D01*
X167530978Y-95969593D01*
X167549683Y-95720002D01*
X169280317Y-95720002D01*
X169299021Y-95969593D01*
X169299023Y-95969603D01*
X169354718Y-96213623D01*
X169446160Y-96446611D01*
X169446169Y-96446630D01*
X169571308Y-96663377D01*
X169571312Y-96663383D01*
X169672542Y-96790323D01*
X170254539Y-96208325D01*
X170367009Y-96340735D01*
X170468923Y-96418208D01*
X169883339Y-97003792D01*
X169910850Y-97029318D01*
X169910854Y-97029321D01*
X170117662Y-97170320D01*
X170343169Y-97278917D01*
X170582343Y-97352693D01*
X170582353Y-97352695D01*
X170829847Y-97389999D01*
X170829856Y-97390000D01*
X171080144Y-97390000D01*
X171080152Y-97389999D01*
X171327646Y-97352695D01*
X171327656Y-97352693D01*
X171566830Y-97278917D01*
X171792338Y-97170320D01*
X171999139Y-97029326D01*
X171999149Y-97029318D01*
X172026659Y-97003792D01*
X171441904Y-96419036D01*
X171472431Y-96400669D01*
X171606658Y-96273523D01*
X171652719Y-96205586D01*
X172237456Y-96790323D01*
X172338681Y-96663391D01*
X172338691Y-96663377D01*
X172463830Y-96446630D01*
X172463839Y-96446611D01*
X172555281Y-96213623D01*
X172610976Y-95969603D01*
X172610978Y-95969593D01*
X172629683Y-95720002D01*
X172629683Y-95719997D01*
X172610978Y-95470406D01*
X172610976Y-95470396D01*
X172555281Y-95226376D01*
X172463839Y-94993388D01*
X172463830Y-94993369D01*
X172338691Y-94776622D01*
X172338687Y-94776616D01*
X172237456Y-94649675D01*
X171655458Y-95231672D01*
X171542991Y-95099265D01*
X171441074Y-95021790D01*
X172026659Y-94436206D01*
X171999150Y-94410682D01*
X171792334Y-94269678D01*
X171566830Y-94161082D01*
X171327656Y-94087306D01*
X171327646Y-94087304D01*
X171080152Y-94050000D01*
X170829847Y-94050000D01*
X170582353Y-94087304D01*
X170582343Y-94087306D01*
X170343169Y-94161082D01*
X170117662Y-94269679D01*
X169910851Y-94410680D01*
X169883339Y-94436206D01*
X170468096Y-95020963D01*
X170437569Y-95039331D01*
X170303342Y-95166477D01*
X170257280Y-95234413D01*
X169672542Y-94649675D01*
X169571310Y-94776619D01*
X169446164Y-94993379D01*
X169446160Y-94993388D01*
X169354718Y-95226376D01*
X169299023Y-95470396D01*
X169299021Y-95470406D01*
X169280317Y-95719997D01*
X169280317Y-95720002D01*
X167549683Y-95720002D01*
X167549683Y-95719997D01*
X167530978Y-95470406D01*
X167530976Y-95470396D01*
X167475281Y-95226376D01*
X167383839Y-94993388D01*
X167383830Y-94993369D01*
X167258691Y-94776622D01*
X167258687Y-94776616D01*
X167157456Y-94649675D01*
X166575458Y-95231672D01*
X166462991Y-95099265D01*
X166361074Y-95021790D01*
X166946659Y-94436206D01*
X166919150Y-94410682D01*
X166712334Y-94269678D01*
X166486830Y-94161082D01*
X166247656Y-94087306D01*
X166247646Y-94087304D01*
X166000152Y-94050000D01*
X165749847Y-94050000D01*
X165502353Y-94087304D01*
X165502343Y-94087306D01*
X165263169Y-94161082D01*
X165037662Y-94269679D01*
X164830851Y-94410680D01*
X164803339Y-94436206D01*
X165388096Y-95020963D01*
X165357569Y-95039331D01*
X165223342Y-95166477D01*
X165177280Y-95234413D01*
X164592542Y-94649675D01*
X164491310Y-94776619D01*
X164366164Y-94993379D01*
X164366160Y-94993388D01*
X164274718Y-95226376D01*
X164219023Y-95470396D01*
X164219021Y-95470406D01*
X164200317Y-95719997D01*
X164200317Y-95720002D01*
X147787128Y-95720002D01*
X147971267Y-95535863D01*
X160167905Y-95535863D01*
X160167906Y-95535875D01*
X160179537Y-95594344D01*
X160179539Y-95594350D01*
X160203664Y-95630455D01*
X160223853Y-95660669D01*
X160290174Y-95704984D01*
X160334636Y-95713828D01*
X160348646Y-95716615D01*
X160348651Y-95716615D01*
X160348657Y-95716617D01*
X160348658Y-95716617D01*
X161785152Y-95716617D01*
X161785153Y-95716617D01*
X161843636Y-95704984D01*
X161909957Y-95660669D01*
X161954272Y-95594348D01*
X161965905Y-95535865D01*
X161965905Y-94607369D01*
X161965783Y-94606758D01*
X161963116Y-94593348D01*
X161954272Y-94548886D01*
X161909957Y-94482565D01*
X161861221Y-94450000D01*
X161843638Y-94438251D01*
X161843636Y-94438250D01*
X161843633Y-94438249D01*
X161843632Y-94438249D01*
X161785163Y-94426618D01*
X161785153Y-94426617D01*
X161785152Y-94426617D01*
X161779000Y-94426617D01*
X161720809Y-94407710D01*
X161684845Y-94358210D01*
X161680000Y-94327617D01*
X161680000Y-93521301D01*
X161665033Y-93402831D01*
X161642452Y-93345795D01*
X161635500Y-93309351D01*
X161635500Y-93009771D01*
X161654407Y-92951580D01*
X161664498Y-92939766D01*
X161686786Y-92917478D01*
X161732090Y-92814872D01*
X161734999Y-92789797D01*
X161735000Y-92789795D01*
X161735000Y-92695001D01*
X161734999Y-92695000D01*
X160485002Y-92695000D01*
X160485001Y-92695001D01*
X160485001Y-92789791D01*
X160487909Y-92814874D01*
X160533213Y-92917477D01*
X160555504Y-92939768D01*
X160583281Y-92994285D01*
X160584500Y-93009772D01*
X160584500Y-93094668D01*
X160565593Y-93152859D01*
X160557668Y-93162438D01*
X160534452Y-93187159D01*
X160457648Y-93326865D01*
X160418000Y-93481283D01*
X160418000Y-94331576D01*
X160399093Y-94389767D01*
X160349593Y-94425731D01*
X160338316Y-94428673D01*
X160290177Y-94438249D01*
X160290171Y-94438251D01*
X160223856Y-94482562D01*
X160223850Y-94482568D01*
X160179539Y-94548883D01*
X160179537Y-94548889D01*
X160167906Y-94607358D01*
X160167905Y-94607370D01*
X160167905Y-95535863D01*
X147971267Y-95535863D01*
X148029843Y-95477287D01*
X148062971Y-95427707D01*
X148078531Y-95349476D01*
X148062971Y-95271244D01*
X148029843Y-95221665D01*
X147804995Y-94996817D01*
X147777219Y-94942301D01*
X147776000Y-94926814D01*
X147776000Y-94450000D01*
X148124318Y-94450000D01*
X148144955Y-94606758D01*
X148144957Y-94606766D01*
X148205462Y-94752838D01*
X148205462Y-94752839D01*
X148295363Y-94870000D01*
X148301718Y-94878282D01*
X148427159Y-94974536D01*
X148427160Y-94974536D01*
X148427161Y-94974537D01*
X148480952Y-94996818D01*
X148573238Y-95035044D01*
X148690809Y-95050522D01*
X148729999Y-95055682D01*
X148730000Y-95055682D01*
X148730001Y-95055682D01*
X148761352Y-95051554D01*
X148886762Y-95035044D01*
X149032841Y-94974536D01*
X149078776Y-94939289D01*
X150271500Y-94939289D01*
X150271501Y-94939291D01*
X150274409Y-94964374D01*
X150319713Y-95066977D01*
X150399022Y-95146286D01*
X150501627Y-95191590D01*
X150526703Y-95194499D01*
X151119998Y-95194499D01*
X151120000Y-95194497D01*
X151120000Y-94600001D01*
X151119999Y-94600000D01*
X151420000Y-94600000D01*
X151420000Y-95194498D01*
X151420001Y-95194499D01*
X152013290Y-95194499D01*
X152013291Y-95194498D01*
X152038374Y-95191590D01*
X152140977Y-95146286D01*
X152220286Y-95066977D01*
X152265590Y-94964372D01*
X152268499Y-94939297D01*
X152268500Y-94939294D01*
X152268500Y-94939290D01*
X155986500Y-94939290D01*
X155986501Y-94939291D01*
X155989409Y-94964374D01*
X156034713Y-95066977D01*
X156114022Y-95146286D01*
X156216627Y-95191590D01*
X156241703Y-95194499D01*
X156834998Y-95194499D01*
X156835000Y-95194498D01*
X157135000Y-95194498D01*
X157135001Y-95194499D01*
X157728290Y-95194499D01*
X157728291Y-95194498D01*
X157753374Y-95191590D01*
X157855977Y-95146286D01*
X157935286Y-95066977D01*
X157980590Y-94964372D01*
X157983499Y-94939297D01*
X157983500Y-94939295D01*
X157983500Y-94600000D01*
X157135001Y-94600000D01*
X157135000Y-94600001D01*
X157135000Y-95194498D01*
X156835000Y-95194498D01*
X156835000Y-94600000D01*
X155986501Y-94600000D01*
X155986500Y-94939290D01*
X152268500Y-94939290D01*
X152268500Y-94600001D01*
X152268499Y-94600000D01*
X151420000Y-94600000D01*
X151119999Y-94600000D01*
X150271501Y-94600000D01*
X150271500Y-94939289D01*
X149078776Y-94939289D01*
X149158282Y-94878282D01*
X149254536Y-94752841D01*
X149315044Y-94606762D01*
X149335682Y-94450000D01*
X149335682Y-94449999D01*
X149336529Y-94443567D01*
X149338256Y-94443794D01*
X149354589Y-94393526D01*
X149364681Y-94381711D01*
X149368244Y-94378147D01*
X149373050Y-94373342D01*
X149384003Y-94351841D01*
X149392115Y-94338605D01*
X149406296Y-94319090D01*
X149412499Y-94299999D01*
X150271500Y-94299999D01*
X150271501Y-94300000D01*
X151119999Y-94300000D01*
X151120000Y-94299999D01*
X151420000Y-94299999D01*
X151420001Y-94300000D01*
X152268498Y-94300000D01*
X152268499Y-94299999D01*
X155986500Y-94299999D01*
X155986501Y-94300000D01*
X156834999Y-94300000D01*
X156835000Y-94299998D01*
X156835000Y-93705501D01*
X156834999Y-93705500D01*
X157135000Y-93705500D01*
X157135000Y-94299998D01*
X157135001Y-94300000D01*
X157983498Y-94300000D01*
X157983499Y-94299998D01*
X157983499Y-93960709D01*
X157983498Y-93960708D01*
X157980590Y-93935625D01*
X157935286Y-93833022D01*
X157855977Y-93753713D01*
X157753372Y-93708409D01*
X157728297Y-93705500D01*
X157135000Y-93705500D01*
X156834999Y-93705500D01*
X156241710Y-93705500D01*
X156241707Y-93705501D01*
X156216625Y-93708409D01*
X156114022Y-93753713D01*
X156034713Y-93833022D01*
X155989409Y-93935627D01*
X155986500Y-93960702D01*
X155986500Y-94299999D01*
X152268499Y-94299999D01*
X152268499Y-94299998D01*
X152268499Y-93960710D01*
X152268498Y-93960708D01*
X152265590Y-93935625D01*
X152220286Y-93833022D01*
X152140977Y-93753713D01*
X152038372Y-93708409D01*
X152013297Y-93705500D01*
X151420001Y-93705500D01*
X151420000Y-93705501D01*
X151420000Y-94299999D01*
X151120000Y-94299999D01*
X151120000Y-93705500D01*
X150526710Y-93705500D01*
X150526707Y-93705501D01*
X150501625Y-93708409D01*
X150399022Y-93753713D01*
X150319713Y-93833022D01*
X150274409Y-93935627D01*
X150271500Y-93960702D01*
X150271500Y-94299999D01*
X149412499Y-94299999D01*
X149413751Y-94296144D01*
X149419695Y-94281795D01*
X149422243Y-94276795D01*
X149430646Y-94260304D01*
X149434419Y-94236473D01*
X149438048Y-94221364D01*
X149445498Y-94198435D01*
X149445499Y-94198434D01*
X149445499Y-94168563D01*
X149445500Y-94168538D01*
X149445500Y-93638608D01*
X149464407Y-93580417D01*
X149489498Y-93556293D01*
X149494755Y-93552780D01*
X149514552Y-93539552D01*
X149558867Y-93473231D01*
X149570500Y-93414748D01*
X149570500Y-93246428D01*
X149589407Y-93188237D01*
X149638907Y-93152273D01*
X149694118Y-93150538D01*
X149793286Y-93176000D01*
X150471619Y-93176000D01*
X150490934Y-93177902D01*
X150493267Y-93178366D01*
X150493269Y-93178367D01*
X150551752Y-93190000D01*
X150551753Y-93190000D01*
X151988247Y-93190000D01*
X151988248Y-93190000D01*
X152046731Y-93178367D01*
X152046732Y-93178366D01*
X152049066Y-93177902D01*
X152068381Y-93176000D01*
X152431678Y-93176000D01*
X152489869Y-93194907D01*
X152525833Y-93244407D01*
X152528786Y-93258529D01*
X152529050Y-93258477D01*
X152541632Y-93321727D01*
X152541634Y-93321733D01*
X152545980Y-93328237D01*
X152585948Y-93388052D01*
X152652269Y-93432367D01*
X152696731Y-93441211D01*
X152710741Y-93443998D01*
X152710746Y-93443998D01*
X152710752Y-93444000D01*
X152710753Y-93444000D01*
X153639247Y-93444000D01*
X153639248Y-93444000D01*
X153697731Y-93432367D01*
X153764052Y-93388052D01*
X153808367Y-93321731D01*
X153820000Y-93263248D01*
X153820000Y-91826752D01*
X153808367Y-91768269D01*
X153764052Y-91701948D01*
X153724101Y-91675253D01*
X153697733Y-91657634D01*
X153697731Y-91657633D01*
X153697728Y-91657632D01*
X153697727Y-91657632D01*
X153639258Y-91646001D01*
X153639248Y-91646000D01*
X152710752Y-91646000D01*
X152710751Y-91646000D01*
X152710741Y-91646001D01*
X152652272Y-91657632D01*
X152652266Y-91657634D01*
X152585951Y-91701945D01*
X152585945Y-91701951D01*
X152541634Y-91768266D01*
X152541632Y-91768272D01*
X152529050Y-91831523D01*
X152527364Y-91831187D01*
X152505681Y-91880761D01*
X152452894Y-91911700D01*
X152431678Y-91914000D01*
X152068381Y-91914000D01*
X152049066Y-91912098D01*
X152046732Y-91911633D01*
X152046731Y-91911633D01*
X151988248Y-91900000D01*
X150551752Y-91900000D01*
X150551751Y-91900000D01*
X150535363Y-91903259D01*
X150493269Y-91911633D01*
X150493267Y-91911633D01*
X150490934Y-91912098D01*
X150471619Y-91914000D01*
X149833302Y-91914000D01*
X149714834Y-91928965D01*
X149714825Y-91928968D01*
X149705939Y-91932486D01*
X149644874Y-91936324D01*
X149593215Y-91903536D01*
X149570695Y-91846646D01*
X149570500Y-91840436D01*
X149570500Y-91675253D01*
X149570498Y-91675241D01*
X149566995Y-91657632D01*
X149558867Y-91616769D01*
X149514552Y-91550448D01*
X149489498Y-91533707D01*
X149451619Y-91485657D01*
X149445500Y-91451392D01*
X149445500Y-91232197D01*
X149464407Y-91174006D01*
X149474490Y-91162200D01*
X149761056Y-90875633D01*
X149815571Y-90847857D01*
X149843975Y-90847485D01*
X149974600Y-90864682D01*
X150131362Y-90844044D01*
X150277441Y-90783536D01*
X150402882Y-90687282D01*
X150499136Y-90561841D01*
X150559644Y-90415762D01*
X150571131Y-90328503D01*
X150597471Y-90273279D01*
X150599242Y-90271460D01*
X154108699Y-86762002D01*
X154112830Y-86758310D01*
X154143970Y-86733479D01*
X154143970Y-86733478D01*
X154149772Y-86728852D01*
X154151850Y-86731458D01*
X154192802Y-86708589D01*
X154253555Y-86715853D01*
X154298435Y-86757440D01*
X154311000Y-86805710D01*
X154311000Y-87397789D01*
X154311001Y-87397791D01*
X154313909Y-87422874D01*
X154359213Y-87525477D01*
X154438522Y-87604786D01*
X154541127Y-87650090D01*
X154566203Y-87652999D01*
X155310998Y-87652999D01*
X155311000Y-87652998D01*
X155311000Y-86853000D01*
X155611000Y-86853000D01*
X155611000Y-87652998D01*
X155611001Y-87652999D01*
X156355790Y-87652999D01*
X156355791Y-87652998D01*
X156380874Y-87650090D01*
X156483477Y-87604786D01*
X156562786Y-87525477D01*
X156608090Y-87422872D01*
X156610999Y-87397797D01*
X156611000Y-87397795D01*
X156611000Y-86853001D01*
X156610999Y-86853000D01*
X155611000Y-86853000D01*
X155311000Y-86853000D01*
X155311000Y-86552999D01*
X155611000Y-86552999D01*
X155611001Y-86553000D01*
X156610998Y-86553000D01*
X156610999Y-86552998D01*
X156610999Y-86008210D01*
X156610998Y-86008208D01*
X156608090Y-85983125D01*
X156562786Y-85880522D01*
X156483477Y-85801213D01*
X156380872Y-85755909D01*
X156355797Y-85753000D01*
X155611001Y-85753000D01*
X155611000Y-85753001D01*
X155611000Y-86552999D01*
X155311000Y-86552999D01*
X155311000Y-85753001D01*
X155310999Y-85753000D01*
X154566210Y-85753000D01*
X154566207Y-85753001D01*
X154541125Y-85755909D01*
X154438522Y-85801213D01*
X154429504Y-85810232D01*
X154374987Y-85838009D01*
X154314555Y-85828438D01*
X154271290Y-85785173D01*
X154260500Y-85740228D01*
X154260500Y-84015688D01*
X154279407Y-83957497D01*
X154328907Y-83921533D01*
X154390093Y-83921533D01*
X154439593Y-83957497D01*
X154441815Y-83960687D01*
X154466444Y-83997547D01*
X154466445Y-83997548D01*
X154466448Y-83997552D01*
X154532769Y-84041867D01*
X154577231Y-84050711D01*
X154591241Y-84053498D01*
X154591246Y-84053498D01*
X154591252Y-84053500D01*
X154591253Y-84053500D01*
X156330747Y-84053500D01*
X156330748Y-84053500D01*
X156389231Y-84041867D01*
X156455552Y-83997552D01*
X156499867Y-83931231D01*
X156511500Y-83872748D01*
X156511500Y-82830609D01*
X156530407Y-82772418D01*
X156540491Y-82760611D01*
X156648703Y-82652398D01*
X156652816Y-82648722D01*
X156683970Y-82623879D01*
X156716985Y-82575453D01*
X156718036Y-82573974D01*
X156752793Y-82526882D01*
X156752795Y-82526876D01*
X156756263Y-82520316D01*
X156756655Y-82520523D01*
X156757651Y-82518550D01*
X156757252Y-82518358D01*
X156760472Y-82511672D01*
X156777754Y-82455639D01*
X156778292Y-82454005D01*
X156797646Y-82398699D01*
X156797646Y-82398696D01*
X156797647Y-82398694D01*
X156799026Y-82391407D01*
X156799460Y-82391489D01*
X156799831Y-82389307D01*
X156799394Y-82389242D01*
X156800500Y-82381904D01*
X156800500Y-82323374D01*
X156800535Y-82321523D01*
X156801391Y-82298612D01*
X156802725Y-82262990D01*
X156802723Y-82262983D01*
X156801894Y-82255616D01*
X156802331Y-82255566D01*
X156800500Y-82241652D01*
X156800500Y-81541500D01*
X156819407Y-81483309D01*
X156868907Y-81447345D01*
X156899500Y-81442500D01*
X157131747Y-81442500D01*
X157131748Y-81442500D01*
X157190231Y-81430867D01*
X157256552Y-81386552D01*
X157300867Y-81320231D01*
X157312500Y-81261748D01*
X157312500Y-81261746D01*
X157927500Y-81261746D01*
X157927501Y-81261758D01*
X157939132Y-81320227D01*
X157939134Y-81320233D01*
X157983445Y-81386548D01*
X157983448Y-81386552D01*
X158049769Y-81430867D01*
X158094231Y-81439711D01*
X158108241Y-81442498D01*
X158108246Y-81442498D01*
X158108252Y-81442500D01*
X158108253Y-81442500D01*
X159671747Y-81442500D01*
X159671748Y-81442500D01*
X159730231Y-81430867D01*
X159796552Y-81386552D01*
X159840867Y-81320231D01*
X159852500Y-81261748D01*
X159852500Y-79698252D01*
X159840867Y-79639769D01*
X159796552Y-79573448D01*
X159730234Y-79529135D01*
X159730233Y-79529134D01*
X159730231Y-79529133D01*
X159730228Y-79529132D01*
X159730227Y-79529132D01*
X159671758Y-79517501D01*
X159671748Y-79517500D01*
X159671747Y-79517500D01*
X159439500Y-79517500D01*
X159381309Y-79498593D01*
X159345345Y-79449093D01*
X159340500Y-79418500D01*
X159340500Y-79001500D01*
X159359407Y-78943309D01*
X159408907Y-78907345D01*
X159439500Y-78902500D01*
X159671747Y-78902500D01*
X159671748Y-78902500D01*
X159730231Y-78890867D01*
X159796552Y-78846552D01*
X159840867Y-78780231D01*
X159852500Y-78721748D01*
X159852500Y-77158252D01*
X159840867Y-77099769D01*
X159796552Y-77033448D01*
X159730234Y-76989135D01*
X159730233Y-76989134D01*
X159730231Y-76989133D01*
X159730228Y-76989132D01*
X159730227Y-76989132D01*
X159671758Y-76977501D01*
X159671748Y-76977500D01*
X159671747Y-76977500D01*
X159439500Y-76977500D01*
X159381309Y-76958593D01*
X159345345Y-76909093D01*
X159340500Y-76878500D01*
X159340500Y-76779000D01*
X159359407Y-76720809D01*
X159408907Y-76684845D01*
X159439500Y-76680000D01*
X159608247Y-76680000D01*
X159608248Y-76680000D01*
X159666731Y-76668367D01*
X159733052Y-76624052D01*
X159777367Y-76557731D01*
X159789000Y-76499248D01*
X159789000Y-75570752D01*
X159777367Y-75512269D01*
X159733052Y-75445948D01*
X159700108Y-75423935D01*
X159666733Y-75401634D01*
X159666731Y-75401633D01*
X159666728Y-75401632D01*
X159666727Y-75401632D01*
X159608258Y-75390001D01*
X159608248Y-75390000D01*
X158171752Y-75390000D01*
X158171751Y-75390000D01*
X158171741Y-75390001D01*
X158113272Y-75401632D01*
X158113266Y-75401634D01*
X158046951Y-75445945D01*
X158046945Y-75445951D01*
X158002634Y-75512266D01*
X158002632Y-75512272D01*
X157991001Y-75570741D01*
X157991000Y-75570753D01*
X157991000Y-76499246D01*
X157991001Y-76499258D01*
X158002632Y-76557727D01*
X158002634Y-76557733D01*
X158046945Y-76624048D01*
X158046948Y-76624052D01*
X158113269Y-76668367D01*
X158157731Y-76677211D01*
X158171741Y-76679998D01*
X158171746Y-76679998D01*
X158171752Y-76680000D01*
X158340500Y-76680000D01*
X158398691Y-76698907D01*
X158434655Y-76748407D01*
X158439500Y-76779000D01*
X158439500Y-76878500D01*
X158420593Y-76936691D01*
X158371093Y-76972655D01*
X158340500Y-76977500D01*
X158108252Y-76977500D01*
X158108251Y-76977500D01*
X158108241Y-76977501D01*
X158049772Y-76989132D01*
X158049766Y-76989134D01*
X157983451Y-77033445D01*
X157983445Y-77033451D01*
X157939134Y-77099766D01*
X157939132Y-77099772D01*
X157927501Y-77158241D01*
X157927500Y-77158253D01*
X157927500Y-78721746D01*
X157927501Y-78721758D01*
X157939132Y-78780227D01*
X157939133Y-78780231D01*
X157983448Y-78846552D01*
X158049769Y-78890867D01*
X158094231Y-78899711D01*
X158108241Y-78902498D01*
X158108246Y-78902498D01*
X158108252Y-78902500D01*
X158340500Y-78902500D01*
X158398691Y-78921407D01*
X158434655Y-78970907D01*
X158439500Y-79001500D01*
X158439500Y-79418500D01*
X158420593Y-79476691D01*
X158371093Y-79512655D01*
X158340500Y-79517500D01*
X158108252Y-79517500D01*
X158108251Y-79517500D01*
X158108241Y-79517501D01*
X158049772Y-79529132D01*
X158049766Y-79529134D01*
X157983451Y-79573445D01*
X157983445Y-79573451D01*
X157939134Y-79639766D01*
X157939132Y-79639772D01*
X157927501Y-79698241D01*
X157927500Y-79698253D01*
X157927500Y-81261746D01*
X157312500Y-81261746D01*
X157312500Y-79698252D01*
X157300867Y-79639769D01*
X157256552Y-79573448D01*
X157190234Y-79529135D01*
X157190233Y-79529134D01*
X157190231Y-79529133D01*
X157190228Y-79529132D01*
X157190227Y-79529132D01*
X157131758Y-79517501D01*
X157131748Y-79517500D01*
X157131747Y-79517500D01*
X156899500Y-79517500D01*
X156841309Y-79498593D01*
X156805345Y-79449093D01*
X156800500Y-79418500D01*
X156800500Y-79001500D01*
X156819407Y-78943309D01*
X156868907Y-78907345D01*
X156899500Y-78902500D01*
X157131747Y-78902500D01*
X157131748Y-78902500D01*
X157190231Y-78890867D01*
X157256552Y-78846552D01*
X157300867Y-78780231D01*
X157312500Y-78721748D01*
X157312500Y-77158252D01*
X157300867Y-77099769D01*
X157256552Y-77033448D01*
X157190234Y-76989135D01*
X157190233Y-76989134D01*
X157190231Y-76989133D01*
X157190228Y-76989132D01*
X157190227Y-76989132D01*
X157131758Y-76977501D01*
X157131748Y-76977500D01*
X157131747Y-76977500D01*
X156899500Y-76977500D01*
X156841309Y-76958593D01*
X156805345Y-76909093D01*
X156800500Y-76878500D01*
X156800500Y-76779000D01*
X156819407Y-76720809D01*
X156868907Y-76684845D01*
X156899500Y-76680000D01*
X157068247Y-76680000D01*
X157068248Y-76680000D01*
X157126731Y-76668367D01*
X157193052Y-76624052D01*
X157237367Y-76557731D01*
X157249000Y-76499248D01*
X157249000Y-75570752D01*
X157237367Y-75512269D01*
X157193052Y-75445948D01*
X157160108Y-75423935D01*
X157126733Y-75401634D01*
X157126731Y-75401633D01*
X157126728Y-75401632D01*
X157126727Y-75401632D01*
X157068258Y-75390001D01*
X157068248Y-75390000D01*
X155631752Y-75390000D01*
X155631751Y-75390000D01*
X155631741Y-75390001D01*
X155573272Y-75401632D01*
X155573266Y-75401634D01*
X155506951Y-75445945D01*
X155506945Y-75445951D01*
X155462634Y-75512266D01*
X155462632Y-75512272D01*
X155451001Y-75570741D01*
X155451000Y-75570753D01*
X155451000Y-76499246D01*
X155451001Y-76499258D01*
X155462632Y-76557727D01*
X155462634Y-76557733D01*
X155506945Y-76624048D01*
X155506948Y-76624052D01*
X155573269Y-76668367D01*
X155617731Y-76677211D01*
X155631741Y-76679998D01*
X155631746Y-76679998D01*
X155631752Y-76680000D01*
X155800500Y-76680000D01*
X155858691Y-76698907D01*
X155894655Y-76748407D01*
X155899500Y-76779000D01*
X155899500Y-76878500D01*
X155880593Y-76936691D01*
X155831093Y-76972655D01*
X155800500Y-76977500D01*
X155568252Y-76977500D01*
X155568251Y-76977500D01*
X155568241Y-76977501D01*
X155509772Y-76989132D01*
X155509766Y-76989134D01*
X155443451Y-77033445D01*
X155443445Y-77033451D01*
X155399134Y-77099766D01*
X155399132Y-77099772D01*
X155387501Y-77158241D01*
X155387500Y-77158253D01*
X155387500Y-78721746D01*
X155387501Y-78721758D01*
X155399132Y-78780227D01*
X155399133Y-78780231D01*
X155443448Y-78846552D01*
X155509769Y-78890867D01*
X155554231Y-78899711D01*
X155568241Y-78902498D01*
X155568246Y-78902498D01*
X155568252Y-78902500D01*
X155800500Y-78902500D01*
X155858691Y-78921407D01*
X155894655Y-78970907D01*
X155899500Y-79001500D01*
X155899500Y-79418500D01*
X155880593Y-79476691D01*
X155831093Y-79512655D01*
X155800500Y-79517500D01*
X155568252Y-79517500D01*
X155568251Y-79517500D01*
X155568241Y-79517501D01*
X155509772Y-79529132D01*
X155509766Y-79529134D01*
X155443451Y-79573445D01*
X155443445Y-79573451D01*
X155399134Y-79639766D01*
X155399132Y-79639772D01*
X155387501Y-79698241D01*
X155387500Y-79698253D01*
X155387500Y-81261746D01*
X155387501Y-81261758D01*
X155399132Y-81320227D01*
X155399134Y-81320233D01*
X155443445Y-81386548D01*
X155443448Y-81386552D01*
X155509769Y-81430867D01*
X155554231Y-81439711D01*
X155568241Y-81442498D01*
X155568246Y-81442498D01*
X155568252Y-81442500D01*
X155800500Y-81442500D01*
X155858691Y-81461407D01*
X155894655Y-81510907D01*
X155899500Y-81541500D01*
X155899500Y-82086387D01*
X155880593Y-82144578D01*
X155870504Y-82156390D01*
X155703392Y-82323503D01*
X155648875Y-82351281D01*
X155633388Y-82352500D01*
X154591252Y-82352500D01*
X154591251Y-82352500D01*
X154591241Y-82352501D01*
X154532772Y-82364132D01*
X154532766Y-82364134D01*
X154466451Y-82408445D01*
X154466445Y-82408451D01*
X154441815Y-82445313D01*
X154393765Y-82483192D01*
X154332626Y-82485594D01*
X154281753Y-82451600D01*
X154260576Y-82394197D01*
X154260500Y-82390311D01*
X154260500Y-81541500D01*
X154279407Y-81483309D01*
X154328907Y-81447345D01*
X154359500Y-81442500D01*
X154591747Y-81442500D01*
X154591748Y-81442500D01*
X154650231Y-81430867D01*
X154716552Y-81386552D01*
X154760867Y-81320231D01*
X154772500Y-81261748D01*
X154772500Y-79698252D01*
X154760867Y-79639769D01*
X154716552Y-79573448D01*
X154650234Y-79529135D01*
X154650233Y-79529134D01*
X154650231Y-79529133D01*
X154650228Y-79529132D01*
X154650227Y-79529132D01*
X154591758Y-79517501D01*
X154591748Y-79517500D01*
X154591747Y-79517500D01*
X154359500Y-79517500D01*
X154301309Y-79498593D01*
X154265345Y-79449093D01*
X154260500Y-79418500D01*
X154260500Y-79001500D01*
X154279407Y-78943309D01*
X154328907Y-78907345D01*
X154359500Y-78902500D01*
X154591747Y-78902500D01*
X154591748Y-78902500D01*
X154650231Y-78890867D01*
X154716552Y-78846552D01*
X154760867Y-78780231D01*
X154772500Y-78721748D01*
X154772500Y-77158252D01*
X154760867Y-77099769D01*
X154716552Y-77033448D01*
X154650234Y-76989135D01*
X154650233Y-76989134D01*
X154650231Y-76989133D01*
X154650228Y-76989132D01*
X154650227Y-76989132D01*
X154591758Y-76977501D01*
X154591748Y-76977500D01*
X154591747Y-76977500D01*
X154359500Y-76977500D01*
X154301309Y-76958593D01*
X154265345Y-76909093D01*
X154260500Y-76878500D01*
X154260500Y-76779000D01*
X154279407Y-76720809D01*
X154328907Y-76684845D01*
X154359500Y-76680000D01*
X154528247Y-76680000D01*
X154528248Y-76680000D01*
X154586731Y-76668367D01*
X154653052Y-76624052D01*
X154697367Y-76557731D01*
X154709000Y-76499248D01*
X154709000Y-75570752D01*
X154697367Y-75512269D01*
X154653052Y-75445948D01*
X154620108Y-75423935D01*
X154586733Y-75401634D01*
X154586731Y-75401633D01*
X154586728Y-75401632D01*
X154586727Y-75401632D01*
X154528258Y-75390001D01*
X154528248Y-75390000D01*
X153091752Y-75390000D01*
X153091751Y-75390000D01*
X153091741Y-75390001D01*
X153033272Y-75401632D01*
X153033266Y-75401634D01*
X152966951Y-75445945D01*
X152966945Y-75445951D01*
X152922634Y-75512266D01*
X152922632Y-75512272D01*
X152911001Y-75570741D01*
X152911000Y-75570753D01*
X152911000Y-76499246D01*
X152911001Y-76499258D01*
X152922632Y-76557727D01*
X152922634Y-76557733D01*
X152966945Y-76624048D01*
X152966948Y-76624052D01*
X153033269Y-76668367D01*
X153077731Y-76677211D01*
X153091741Y-76679998D01*
X153091746Y-76679998D01*
X153091752Y-76680000D01*
X153260500Y-76680000D01*
X153318691Y-76698907D01*
X153354655Y-76748407D01*
X153359500Y-76779000D01*
X153359500Y-76878500D01*
X153340593Y-76936691D01*
X153291093Y-76972655D01*
X153260500Y-76977500D01*
X153028252Y-76977500D01*
X153028251Y-76977500D01*
X153028241Y-76977501D01*
X152969772Y-76989132D01*
X152969766Y-76989134D01*
X152903451Y-77033445D01*
X152903445Y-77033451D01*
X152859134Y-77099766D01*
X152859132Y-77099772D01*
X152847501Y-77158241D01*
X152847500Y-77158253D01*
X152847500Y-78721746D01*
X152847501Y-78721758D01*
X152859132Y-78780227D01*
X152859133Y-78780231D01*
X152903448Y-78846552D01*
X152969769Y-78890867D01*
X153014231Y-78899711D01*
X153028241Y-78902498D01*
X153028246Y-78902498D01*
X153028252Y-78902500D01*
X153260500Y-78902500D01*
X153318691Y-78921407D01*
X153354655Y-78970907D01*
X153359500Y-79001500D01*
X153359500Y-79418500D01*
X153340593Y-79476691D01*
X153291093Y-79512655D01*
X153260500Y-79517500D01*
X153028252Y-79517500D01*
X153028251Y-79517500D01*
X153028241Y-79517501D01*
X152969772Y-79529132D01*
X152969766Y-79529134D01*
X152903451Y-79573445D01*
X152903445Y-79573451D01*
X152859134Y-79639766D01*
X152859132Y-79639772D01*
X152847501Y-79698241D01*
X152847500Y-79698253D01*
X152847500Y-81261746D01*
X152847501Y-81261758D01*
X152859132Y-81320227D01*
X152859134Y-81320233D01*
X152903445Y-81386548D01*
X152903448Y-81386552D01*
X152969769Y-81430867D01*
X153014231Y-81439711D01*
X153028241Y-81442498D01*
X153028246Y-81442498D01*
X153028252Y-81442500D01*
X153260500Y-81442500D01*
X153318691Y-81461407D01*
X153354655Y-81510907D01*
X153359500Y-81541500D01*
X153359500Y-86195988D01*
X153340593Y-86254179D01*
X153330504Y-86265992D01*
X149962177Y-89634318D01*
X149907660Y-89662095D01*
X149905096Y-89662467D01*
X149817837Y-89673956D01*
X149671761Y-89734462D01*
X149671760Y-89734462D01*
X149546323Y-89830713D01*
X149546314Y-89830722D01*
X149534109Y-89846628D01*
X149498528Y-89875552D01*
X149483945Y-89882575D01*
X149477817Y-89886753D01*
X149477572Y-89886393D01*
X149475756Y-89887681D01*
X149476015Y-89888032D01*
X149470046Y-89892437D01*
X149428654Y-89933829D01*
X149427322Y-89935113D01*
X149384390Y-89974948D01*
X149379767Y-89980746D01*
X149379424Y-89980472D01*
X149370883Y-89991599D01*
X148702570Y-90659913D01*
X148642207Y-90741704D01*
X148597355Y-90869883D01*
X148597354Y-90869887D01*
X148597353Y-90869889D01*
X148597354Y-90869889D01*
X148592276Y-91005598D01*
X148627424Y-91136775D01*
X148627425Y-91136776D01*
X148627426Y-91136778D01*
X148629323Y-91139797D01*
X148644500Y-91192472D01*
X148644500Y-91451392D01*
X148625593Y-91509583D01*
X148600502Y-91533707D01*
X148575451Y-91550445D01*
X148575445Y-91550451D01*
X148531134Y-91616766D01*
X148531132Y-91616772D01*
X148519501Y-91675241D01*
X148519500Y-91675253D01*
X148519500Y-92114746D01*
X148519501Y-92114758D01*
X148531132Y-92173230D01*
X148534814Y-92182119D01*
X148539611Y-92243116D01*
X148534814Y-92257881D01*
X148531132Y-92266769D01*
X148519501Y-92325241D01*
X148519500Y-92325253D01*
X148519500Y-92764746D01*
X148519501Y-92764758D01*
X148531132Y-92823230D01*
X148534814Y-92832119D01*
X148539611Y-92893116D01*
X148534814Y-92907881D01*
X148531132Y-92916769D01*
X148519501Y-92975241D01*
X148519500Y-92975253D01*
X148519500Y-93414746D01*
X148519501Y-93414758D01*
X148531132Y-93473227D01*
X148531134Y-93473233D01*
X148564922Y-93523799D01*
X148575448Y-93539552D01*
X148575451Y-93539554D01*
X148600502Y-93556293D01*
X148638381Y-93604343D01*
X148644500Y-93638608D01*
X148644500Y-93769896D01*
X148625593Y-93828087D01*
X148579008Y-93861932D01*
X148579232Y-93862473D01*
X148576982Y-93863404D01*
X148576093Y-93864051D01*
X148573741Y-93864747D01*
X148427161Y-93925462D01*
X148427160Y-93925462D01*
X148301723Y-94021713D01*
X148301713Y-94021723D01*
X148205462Y-94147160D01*
X148205462Y-94147161D01*
X148144957Y-94293233D01*
X148144955Y-94293241D01*
X148124318Y-94449999D01*
X148124318Y-94450000D01*
X147776000Y-94450000D01*
X147776000Y-93790501D01*
X147761033Y-93672031D01*
X147730957Y-93596067D01*
X147702344Y-93523797D01*
X147685768Y-93500982D01*
X147666861Y-93442791D01*
X147668762Y-93423484D01*
X147670500Y-93414748D01*
X147670500Y-93009770D01*
X147689407Y-92951580D01*
X147699498Y-92939766D01*
X147721786Y-92917478D01*
X147767090Y-92814872D01*
X147769999Y-92789797D01*
X147770000Y-92789795D01*
X147770000Y-92695001D01*
X147769999Y-92695000D01*
X146520002Y-92695000D01*
X146520001Y-92695001D01*
X146520001Y-92789791D01*
X146522909Y-92814874D01*
X146568213Y-92917477D01*
X146590504Y-92939768D01*
X146618281Y-92994285D01*
X146619500Y-93009772D01*
X146619500Y-93414746D01*
X146619501Y-93414760D01*
X146621448Y-93424549D01*
X146614255Y-93485310D01*
X146611105Y-93491552D01*
X146553648Y-93596066D01*
X146514000Y-93750483D01*
X146514000Y-95127786D01*
X146495093Y-95185977D01*
X146485004Y-95197789D01*
X146101918Y-95580875D01*
X146068791Y-95630454D01*
X146068790Y-95630456D01*
X146053231Y-95708685D01*
X146053231Y-95708686D01*
X144688835Y-95708686D01*
X144670978Y-95470406D01*
X144670976Y-95470396D01*
X144615281Y-95226376D01*
X144523839Y-94993388D01*
X144523830Y-94993369D01*
X144398691Y-94776622D01*
X144398687Y-94776616D01*
X144297456Y-94649675D01*
X143715458Y-95231672D01*
X143602991Y-95099265D01*
X143501074Y-95021790D01*
X144086659Y-94436206D01*
X144059150Y-94410682D01*
X143852334Y-94269678D01*
X143626830Y-94161082D01*
X143387656Y-94087306D01*
X143387646Y-94087304D01*
X143140152Y-94050000D01*
X142889847Y-94050000D01*
X142642353Y-94087304D01*
X142642343Y-94087306D01*
X142403169Y-94161082D01*
X142177662Y-94269679D01*
X141970851Y-94410680D01*
X141943339Y-94436206D01*
X142528096Y-95020963D01*
X142497569Y-95039331D01*
X142363342Y-95166477D01*
X142317280Y-95234413D01*
X141732542Y-94649675D01*
X141631310Y-94776619D01*
X141506164Y-94993379D01*
X141506160Y-94993388D01*
X141414718Y-95226376D01*
X141359023Y-95470396D01*
X141359021Y-95470406D01*
X141340317Y-95719997D01*
X141340317Y-95720002D01*
X139609683Y-95720002D01*
X139609683Y-95719997D01*
X139590978Y-95470406D01*
X139590976Y-95470396D01*
X139535281Y-95226376D01*
X139443839Y-94993388D01*
X139443830Y-94993369D01*
X139318691Y-94776622D01*
X139318687Y-94776616D01*
X139217456Y-94649675D01*
X138635458Y-95231672D01*
X138522991Y-95099265D01*
X138421074Y-95021790D01*
X139006659Y-94436206D01*
X138979150Y-94410682D01*
X138772334Y-94269678D01*
X138546830Y-94161082D01*
X138307656Y-94087306D01*
X138307646Y-94087304D01*
X138060152Y-94050000D01*
X137809847Y-94050000D01*
X137562353Y-94087304D01*
X137562343Y-94087306D01*
X137323169Y-94161082D01*
X137097662Y-94269679D01*
X136890851Y-94410680D01*
X136863339Y-94436206D01*
X137448096Y-95020963D01*
X137417569Y-95039331D01*
X137283342Y-95166477D01*
X137237280Y-95234413D01*
X136652542Y-94649675D01*
X136551310Y-94776619D01*
X136426164Y-94993379D01*
X136426160Y-94993388D01*
X136334718Y-95226376D01*
X136279023Y-95470396D01*
X136279021Y-95470406D01*
X136260317Y-95719997D01*
X136260317Y-95720002D01*
X134379500Y-95720002D01*
X134379500Y-89370002D01*
X136260317Y-89370002D01*
X136279021Y-89619593D01*
X136279023Y-89619603D01*
X136334718Y-89863623D01*
X136426160Y-90096611D01*
X136426169Y-90096630D01*
X136551308Y-90313377D01*
X136551312Y-90313383D01*
X136652542Y-90440323D01*
X137234539Y-89858325D01*
X137347009Y-89990735D01*
X137448923Y-90068208D01*
X136863339Y-90653792D01*
X136890850Y-90679318D01*
X136890854Y-90679321D01*
X137097662Y-90820320D01*
X137323169Y-90928917D01*
X137562343Y-91002693D01*
X137562353Y-91002695D01*
X137809847Y-91039999D01*
X137809856Y-91040000D01*
X138060144Y-91040000D01*
X138060152Y-91039999D01*
X138307646Y-91002695D01*
X138307656Y-91002693D01*
X138546830Y-90928917D01*
X138772338Y-90820320D01*
X138979139Y-90679326D01*
X138979149Y-90679318D01*
X139006659Y-90653792D01*
X138421904Y-90069036D01*
X138452431Y-90050669D01*
X138586658Y-89923523D01*
X138632719Y-89855586D01*
X139217456Y-90440323D01*
X139318681Y-90313391D01*
X139318691Y-90313377D01*
X139443830Y-90096630D01*
X139443839Y-90096611D01*
X139535281Y-89863623D01*
X139590976Y-89619603D01*
X139590978Y-89619593D01*
X139609683Y-89370002D01*
X141340317Y-89370002D01*
X141359021Y-89619593D01*
X141359023Y-89619603D01*
X141414718Y-89863623D01*
X141506160Y-90096611D01*
X141506169Y-90096630D01*
X141631308Y-90313377D01*
X141631312Y-90313383D01*
X141732542Y-90440323D01*
X142314539Y-89858325D01*
X142427009Y-89990735D01*
X142528923Y-90068208D01*
X141943339Y-90653792D01*
X141970850Y-90679318D01*
X141970854Y-90679321D01*
X142177662Y-90820320D01*
X142403169Y-90928917D01*
X142642343Y-91002693D01*
X142642353Y-91002695D01*
X142889847Y-91039999D01*
X142889856Y-91040000D01*
X143140144Y-91040000D01*
X143140152Y-91039999D01*
X143387646Y-91002695D01*
X143387656Y-91002693D01*
X143626830Y-90928917D01*
X143852338Y-90820320D01*
X144059139Y-90679326D01*
X144059149Y-90679318D01*
X144086660Y-90653792D01*
X143501904Y-90069036D01*
X143532431Y-90050669D01*
X143666658Y-89923523D01*
X143712719Y-89855586D01*
X144297456Y-90440323D01*
X144398681Y-90313391D01*
X144398691Y-90313377D01*
X144523830Y-90096630D01*
X144523839Y-90096611D01*
X144615281Y-89863623D01*
X144670976Y-89619603D01*
X144670978Y-89619593D01*
X144689683Y-89370002D01*
X144689683Y-89369997D01*
X144670978Y-89120406D01*
X144670976Y-89120396D01*
X144615281Y-88876376D01*
X144523839Y-88643388D01*
X144523830Y-88643369D01*
X144398691Y-88426622D01*
X144398687Y-88426616D01*
X144297456Y-88299675D01*
X143715458Y-88881672D01*
X143602991Y-88749265D01*
X143501074Y-88671790D01*
X144086659Y-88086206D01*
X144059150Y-88060682D01*
X143852334Y-87919678D01*
X143626830Y-87811082D01*
X143387656Y-87737306D01*
X143387646Y-87737304D01*
X143140152Y-87700000D01*
X142889847Y-87700000D01*
X142642353Y-87737304D01*
X142642343Y-87737306D01*
X142403169Y-87811082D01*
X142177662Y-87919679D01*
X141970851Y-88060680D01*
X141943339Y-88086206D01*
X142528096Y-88670963D01*
X142497569Y-88689331D01*
X142363342Y-88816477D01*
X142317280Y-88884413D01*
X141732542Y-88299675D01*
X141631310Y-88426619D01*
X141506164Y-88643379D01*
X141506160Y-88643388D01*
X141414718Y-88876376D01*
X141359023Y-89120396D01*
X141359021Y-89120406D01*
X141340317Y-89369997D01*
X141340317Y-89370002D01*
X139609683Y-89370002D01*
X139609683Y-89369997D01*
X139590978Y-89120406D01*
X139590976Y-89120396D01*
X139535281Y-88876376D01*
X139443839Y-88643388D01*
X139443830Y-88643369D01*
X139318691Y-88426622D01*
X139318687Y-88426616D01*
X139217456Y-88299675D01*
X138635458Y-88881672D01*
X138522991Y-88749265D01*
X138421074Y-88671790D01*
X139006659Y-88086206D01*
X138979150Y-88060682D01*
X138772334Y-87919678D01*
X138546830Y-87811082D01*
X138307656Y-87737306D01*
X138307646Y-87737304D01*
X138060152Y-87700000D01*
X137809847Y-87700000D01*
X137562353Y-87737304D01*
X137562343Y-87737306D01*
X137323169Y-87811082D01*
X137097662Y-87919679D01*
X136890851Y-88060680D01*
X136863339Y-88086206D01*
X137448096Y-88670963D01*
X137417569Y-88689331D01*
X137283342Y-88816477D01*
X137237280Y-88884413D01*
X136652542Y-88299675D01*
X136551310Y-88426619D01*
X136426164Y-88643379D01*
X136426160Y-88643388D01*
X136334718Y-88876376D01*
X136279023Y-89120396D01*
X136279021Y-89120406D01*
X136260317Y-89369997D01*
X136260317Y-89370002D01*
X134379500Y-89370002D01*
X134379500Y-86830003D01*
X139149456Y-86830003D01*
X139169592Y-87060170D01*
X139169593Y-87060177D01*
X139169594Y-87060178D01*
X139229396Y-87283363D01*
X139286936Y-87406757D01*
X139319100Y-87475735D01*
X139327045Y-87492772D01*
X139358337Y-87537461D01*
X139435807Y-87648101D01*
X139459574Y-87682043D01*
X139622957Y-87845426D01*
X139812228Y-87977955D01*
X140021637Y-88075604D01*
X140244822Y-88135406D01*
X140244826Y-88135406D01*
X140244829Y-88135407D01*
X140474997Y-88155544D01*
X140475000Y-88155544D01*
X140475003Y-88155544D01*
X140705170Y-88135407D01*
X140705171Y-88135406D01*
X140705178Y-88135406D01*
X140928363Y-88075604D01*
X141137772Y-87977955D01*
X141327043Y-87845426D01*
X141490426Y-87682043D01*
X141615642Y-87503215D01*
X141664507Y-87466394D01*
X141696738Y-87461000D01*
X141944686Y-87461000D01*
X142878632Y-87461000D01*
X143216645Y-87461000D01*
X143219746Y-87461000D01*
X143219750Y-87461001D01*
X143294984Y-87461000D01*
X143297754Y-87461077D01*
X143558855Y-87475737D01*
X143564338Y-87476354D01*
X143820781Y-87519923D01*
X143826192Y-87521158D01*
X143842410Y-87525830D01*
X144076129Y-87593160D01*
X144081368Y-87594992D01*
X144321683Y-87694531D01*
X144326684Y-87696940D01*
X144554328Y-87822751D01*
X144559033Y-87825707D01*
X144691476Y-87919679D01*
X144771160Y-87976216D01*
X144775500Y-87979677D01*
X144894708Y-88086206D01*
X144970091Y-88153571D01*
X144972110Y-88155479D01*
X145819155Y-89002524D01*
X145821063Y-89004543D01*
X145995297Y-89199515D01*
X145998761Y-89203858D01*
X146149268Y-89415983D01*
X146152224Y-89420687D01*
X146278037Y-89648336D01*
X146280441Y-89653328D01*
X146328973Y-89770495D01*
X146379976Y-89893632D01*
X146381811Y-89898875D01*
X146453813Y-90148813D01*
X146455049Y-90154229D01*
X146482090Y-90313391D01*
X146495212Y-90390631D01*
X146498613Y-90410646D01*
X146499235Y-90416166D01*
X146513921Y-90677757D01*
X146513999Y-90680532D01*
X146513999Y-90758232D01*
X146514000Y-90758249D01*
X146514000Y-91314698D01*
X146528966Y-91433168D01*
X146549748Y-91485657D01*
X146582625Y-91568697D01*
X146587655Y-91581400D01*
X146587658Y-91581406D01*
X146601857Y-91600949D01*
X146620764Y-91659140D01*
X146619660Y-91670376D01*
X146619977Y-91670408D01*
X146619500Y-91675253D01*
X146619500Y-92080227D01*
X146600593Y-92138418D01*
X146590505Y-92150229D01*
X146568214Y-92172520D01*
X146522909Y-92275127D01*
X146520000Y-92300202D01*
X146520000Y-92394999D01*
X146520001Y-92395000D01*
X147769998Y-92395000D01*
X147769999Y-92394998D01*
X147769999Y-92300209D01*
X147769998Y-92300208D01*
X147767090Y-92275125D01*
X147721785Y-92172520D01*
X147721786Y-92172520D01*
X147699495Y-92150229D01*
X147671719Y-92095712D01*
X147670500Y-92080227D01*
X147670500Y-91675253D01*
X147670023Y-91670408D01*
X147671525Y-91670260D01*
X147677959Y-91615861D01*
X147681115Y-91609607D01*
X147696619Y-91581406D01*
X147736352Y-91509133D01*
X147776000Y-91354714D01*
X147776000Y-90638944D01*
X147776000Y-90637824D01*
X147775971Y-90636913D01*
X147775973Y-90500271D01*
X147741010Y-90145230D01*
X147671414Y-89795326D01*
X147671413Y-89795325D01*
X147671413Y-89795321D01*
X147567859Y-89453933D01*
X147567854Y-89453921D01*
X147522349Y-89344061D01*
X147431335Y-89124326D01*
X147263164Y-88809691D01*
X147064963Y-88513056D01*
X146838641Y-88237275D01*
X146838615Y-88237249D01*
X146777025Y-88175658D01*
X146777022Y-88175654D01*
X146768872Y-88167504D01*
X146768872Y-88167503D01*
X146345482Y-87744114D01*
X145918038Y-87316669D01*
X145893376Y-87292006D01*
X145893333Y-87291922D01*
X145737274Y-87135867D01*
X145736480Y-87135111D01*
X145693715Y-87092347D01*
X145599354Y-87019153D01*
X145593993Y-87015982D01*
X145594300Y-87015461D01*
X145579306Y-87006313D01*
X145461963Y-86910014D01*
X145165325Y-86711811D01*
X145165324Y-86711810D01*
X145165322Y-86711809D01*
X144850698Y-86543644D01*
X144850694Y-86543642D01*
X144850688Y-86543639D01*
X144834379Y-86536884D01*
X144521089Y-86407118D01*
X144521077Y-86407113D01*
X144179686Y-86303558D01*
X143829772Y-86233961D01*
X143474739Y-86198998D01*
X143474731Y-86198998D01*
X143296350Y-86199000D01*
X141696738Y-86199000D01*
X141638547Y-86180093D01*
X141615642Y-86156784D01*
X141490429Y-85977961D01*
X141490428Y-85977960D01*
X141490426Y-85977957D01*
X141327043Y-85814574D01*
X141327039Y-85814571D01*
X141327038Y-85814570D01*
X141216092Y-85736885D01*
X141137772Y-85682045D01*
X140928363Y-85584396D01*
X140705178Y-85524594D01*
X140705177Y-85524593D01*
X140705170Y-85524592D01*
X140475003Y-85504456D01*
X140474997Y-85504456D01*
X140244829Y-85524592D01*
X140021637Y-85584396D01*
X139812229Y-85682044D01*
X139622961Y-85814570D01*
X139459570Y-85977961D01*
X139327044Y-86167229D01*
X139229396Y-86376637D01*
X139169592Y-86599829D01*
X139149456Y-86829996D01*
X139149456Y-86830003D01*
X134379500Y-86830003D01*
X134379500Y-84290002D01*
X136260317Y-84290002D01*
X136279021Y-84539593D01*
X136279023Y-84539603D01*
X136334718Y-84783623D01*
X136426160Y-85016611D01*
X136426169Y-85016630D01*
X136551308Y-85233377D01*
X136551312Y-85233383D01*
X136652542Y-85360323D01*
X137234539Y-84778325D01*
X137347009Y-84910735D01*
X137448923Y-84988208D01*
X136863339Y-85573792D01*
X136890850Y-85599318D01*
X136890854Y-85599321D01*
X137097662Y-85740320D01*
X137323169Y-85848917D01*
X137562343Y-85922693D01*
X137562353Y-85922695D01*
X137809847Y-85959999D01*
X137809856Y-85960000D01*
X138060144Y-85960000D01*
X138060152Y-85959999D01*
X138307646Y-85922695D01*
X138307656Y-85922693D01*
X138546830Y-85848917D01*
X138772338Y-85740320D01*
X138979139Y-85599326D01*
X138979149Y-85599318D01*
X139006659Y-85573792D01*
X138421904Y-84989036D01*
X138452431Y-84970669D01*
X138586658Y-84843523D01*
X138632719Y-84775586D01*
X139217456Y-85360323D01*
X139318681Y-85233391D01*
X139318691Y-85233377D01*
X139443830Y-85016630D01*
X139443839Y-85016611D01*
X139535281Y-84783623D01*
X139590976Y-84539603D01*
X139590978Y-84539593D01*
X139609683Y-84290002D01*
X141340317Y-84290002D01*
X141359021Y-84539593D01*
X141359023Y-84539603D01*
X141414718Y-84783623D01*
X141506160Y-85016611D01*
X141506169Y-85016630D01*
X141631308Y-85233377D01*
X141631312Y-85233383D01*
X141732542Y-85360323D01*
X142314539Y-84778325D01*
X142427009Y-84910735D01*
X142528923Y-84988208D01*
X141943339Y-85573792D01*
X141970850Y-85599318D01*
X141970854Y-85599321D01*
X142177662Y-85740320D01*
X142403169Y-85848917D01*
X142642343Y-85922693D01*
X142642353Y-85922695D01*
X142889847Y-85959999D01*
X142889856Y-85960000D01*
X143140144Y-85960000D01*
X143140152Y-85959999D01*
X143387646Y-85922695D01*
X143387656Y-85922693D01*
X143626830Y-85848917D01*
X143852338Y-85740320D01*
X144059139Y-85599326D01*
X144059149Y-85599318D01*
X144086659Y-85573792D01*
X143501904Y-84989036D01*
X143532431Y-84970669D01*
X143666658Y-84843523D01*
X143712719Y-84775586D01*
X144297456Y-85360323D01*
X144398681Y-85233391D01*
X144398691Y-85233377D01*
X144523830Y-85016630D01*
X144523839Y-85016611D01*
X144615281Y-84783623D01*
X144670976Y-84539603D01*
X144670978Y-84539593D01*
X144689683Y-84290002D01*
X144689683Y-84289997D01*
X144670978Y-84040406D01*
X144670976Y-84040396D01*
X144615281Y-83796376D01*
X144523839Y-83563388D01*
X144523830Y-83563369D01*
X144398691Y-83346622D01*
X144398687Y-83346616D01*
X144297456Y-83219675D01*
X143715458Y-83801672D01*
X143602991Y-83669265D01*
X143501074Y-83591790D01*
X144086659Y-83006206D01*
X144059150Y-82980682D01*
X143941425Y-82900419D01*
X145012800Y-82900419D01*
X145012801Y-82900431D01*
X145024432Y-82958900D01*
X145024434Y-82958906D01*
X145068745Y-83025221D01*
X145068748Y-83025225D01*
X145135069Y-83069540D01*
X145179531Y-83078384D01*
X145193541Y-83081171D01*
X145193546Y-83081171D01*
X145193552Y-83081173D01*
X145193553Y-83081173D01*
X147733047Y-83081173D01*
X147733048Y-83081173D01*
X147791531Y-83069540D01*
X147857852Y-83025225D01*
X147902167Y-82958904D01*
X147908819Y-82925464D01*
X148913301Y-82925464D01*
X148916209Y-82950547D01*
X148961513Y-83053150D01*
X149040822Y-83132459D01*
X149143427Y-83177763D01*
X149168503Y-83180672D01*
X150313298Y-83180672D01*
X150313300Y-83180671D01*
X150613300Y-83180671D01*
X150613301Y-83180672D01*
X151758090Y-83180672D01*
X151758091Y-83180671D01*
X151783174Y-83177763D01*
X151885777Y-83132459D01*
X151965086Y-83053150D01*
X152010390Y-82950545D01*
X152013299Y-82925470D01*
X152013300Y-82925468D01*
X152013300Y-82130674D01*
X152013299Y-82130673D01*
X150613301Y-82130673D01*
X150613300Y-82130674D01*
X150613300Y-83180671D01*
X150313300Y-83180671D01*
X150313300Y-82130674D01*
X150313299Y-82130673D01*
X148913302Y-82130673D01*
X148913301Y-82130674D01*
X148913301Y-82925464D01*
X147908819Y-82925464D01*
X147913800Y-82900421D01*
X147913800Y-81830672D01*
X148913300Y-81830672D01*
X148913301Y-81830673D01*
X150313299Y-81830673D01*
X150313300Y-81830672D01*
X150613300Y-81830672D01*
X150613301Y-81830673D01*
X152013298Y-81830673D01*
X152013299Y-81830672D01*
X152013299Y-81035883D01*
X152013298Y-81035881D01*
X152010390Y-81010798D01*
X151965086Y-80908195D01*
X151885777Y-80828886D01*
X151783172Y-80783582D01*
X151758097Y-80780673D01*
X150613301Y-80780673D01*
X150613300Y-80780674D01*
X150613300Y-81830672D01*
X150313300Y-81830672D01*
X150313300Y-80780674D01*
X150313299Y-80780673D01*
X149168510Y-80780673D01*
X149168508Y-80780674D01*
X149143425Y-80783582D01*
X149040822Y-80828886D01*
X148961513Y-80908195D01*
X148916209Y-81010800D01*
X148913300Y-81035875D01*
X148913300Y-81830672D01*
X147913800Y-81830672D01*
X147913800Y-81420415D01*
X147932707Y-81362224D01*
X147942796Y-81350411D01*
X148489490Y-80803717D01*
X148494357Y-80799448D01*
X148523282Y-80777255D01*
X148619536Y-80651814D01*
X148680044Y-80505735D01*
X148695500Y-80388334D01*
X148700682Y-80348973D01*
X148695924Y-80312831D01*
X148695500Y-80306363D01*
X148695500Y-79636500D01*
X148714407Y-79578309D01*
X148763907Y-79542345D01*
X148794500Y-79537500D01*
X148876747Y-79537500D01*
X148876748Y-79537500D01*
X148935231Y-79525867D01*
X149001552Y-79481552D01*
X149045867Y-79415231D01*
X149057500Y-79356748D01*
X149057500Y-78424999D01*
X149573000Y-78424999D01*
X149573001Y-78425000D01*
X150213306Y-78425000D01*
X150186736Y-78541407D01*
X150196749Y-78675028D01*
X150216362Y-78725000D01*
X149573001Y-78725000D01*
X149573001Y-79381791D01*
X149575909Y-79406874D01*
X149621213Y-79509477D01*
X149700522Y-79588786D01*
X149803127Y-79634090D01*
X149828203Y-79636999D01*
X150484998Y-79636999D01*
X150485000Y-79636997D01*
X150485000Y-78993897D01*
X150568002Y-79019500D01*
X150668312Y-79019500D01*
X150767499Y-79004550D01*
X150785000Y-78996121D01*
X150785000Y-79636998D01*
X150785001Y-79636999D01*
X151441790Y-79636999D01*
X151441791Y-79636998D01*
X151466874Y-79634090D01*
X151569477Y-79588786D01*
X151648786Y-79509477D01*
X151694090Y-79406872D01*
X151696999Y-79381797D01*
X151697000Y-79381795D01*
X151697000Y-78725001D01*
X151696999Y-78725000D01*
X151056694Y-78725000D01*
X151083264Y-78608593D01*
X151073251Y-78474972D01*
X151053638Y-78425000D01*
X151696998Y-78425000D01*
X151696999Y-78424998D01*
X151696999Y-77768210D01*
X151696998Y-77768208D01*
X151694090Y-77743125D01*
X151648786Y-77640522D01*
X151569477Y-77561213D01*
X151466872Y-77515909D01*
X151441797Y-77513000D01*
X150785001Y-77513000D01*
X150785000Y-77513001D01*
X150785000Y-78156102D01*
X150701998Y-78130500D01*
X150601688Y-78130500D01*
X150502501Y-78145450D01*
X150485000Y-78153878D01*
X150485000Y-77513001D01*
X150484999Y-77513000D01*
X149828210Y-77513000D01*
X149828207Y-77513001D01*
X149803125Y-77515909D01*
X149700522Y-77561213D01*
X149621213Y-77640522D01*
X149575909Y-77743127D01*
X149573000Y-77768202D01*
X149573000Y-78424999D01*
X149057500Y-78424999D01*
X149057500Y-77793252D01*
X149045867Y-77734769D01*
X149001552Y-77668448D01*
X149001548Y-77668445D01*
X148935233Y-77624134D01*
X148935231Y-77624133D01*
X148935228Y-77624132D01*
X148935227Y-77624132D01*
X148876758Y-77612501D01*
X148876748Y-77612500D01*
X148876747Y-77612500D01*
X148794500Y-77612500D01*
X148736309Y-77593593D01*
X148700345Y-77544093D01*
X148695500Y-77513500D01*
X148695500Y-77096500D01*
X148714407Y-77038309D01*
X148763907Y-77002345D01*
X148794500Y-76997500D01*
X148876747Y-76997500D01*
X148876748Y-76997500D01*
X148935231Y-76985867D01*
X149001552Y-76941552D01*
X149045867Y-76875231D01*
X149057500Y-76816748D01*
X149057500Y-75884998D01*
X149573000Y-75884998D01*
X149573001Y-75885000D01*
X150213306Y-75885000D01*
X150186736Y-76001407D01*
X150196749Y-76135028D01*
X150216362Y-76185000D01*
X149573002Y-76185000D01*
X149573001Y-76185001D01*
X149573001Y-76841791D01*
X149575909Y-76866874D01*
X149621213Y-76969477D01*
X149700522Y-77048786D01*
X149803127Y-77094090D01*
X149828203Y-77096999D01*
X150484998Y-77096999D01*
X150485000Y-77096997D01*
X150485000Y-76453897D01*
X150568002Y-76479500D01*
X150668312Y-76479500D01*
X150767499Y-76464550D01*
X150785000Y-76456121D01*
X150785000Y-77096997D01*
X150785001Y-77096999D01*
X151441790Y-77096999D01*
X151441791Y-77096998D01*
X151466874Y-77094090D01*
X151569477Y-77048786D01*
X151648786Y-76969477D01*
X151694090Y-76866872D01*
X151696999Y-76841797D01*
X151697000Y-76841795D01*
X151697000Y-76185001D01*
X151696999Y-76185000D01*
X151056694Y-76185000D01*
X151083264Y-76068593D01*
X151073251Y-75934972D01*
X151053638Y-75885000D01*
X151696998Y-75885000D01*
X151696999Y-75884999D01*
X151696999Y-75228210D01*
X151696998Y-75228208D01*
X151694090Y-75203125D01*
X151648786Y-75100522D01*
X151569477Y-75021213D01*
X151466872Y-74975909D01*
X151441797Y-74973000D01*
X150785001Y-74973000D01*
X150785000Y-74973001D01*
X150785000Y-75616102D01*
X150701998Y-75590500D01*
X150601688Y-75590500D01*
X150502501Y-75605450D01*
X150485000Y-75613878D01*
X150485000Y-74973001D01*
X150484999Y-74973000D01*
X149828210Y-74973000D01*
X149828207Y-74973001D01*
X149803125Y-74975909D01*
X149700522Y-75021213D01*
X149621213Y-75100522D01*
X149575909Y-75203127D01*
X149573000Y-75228202D01*
X149573000Y-75884998D01*
X149057500Y-75884998D01*
X149057500Y-75253252D01*
X149045867Y-75194769D01*
X149001552Y-75128448D01*
X149001548Y-75128445D01*
X148935233Y-75084134D01*
X148935231Y-75084133D01*
X148935228Y-75084132D01*
X148935227Y-75084132D01*
X148876758Y-75072501D01*
X148876748Y-75072500D01*
X147313252Y-75072500D01*
X147313251Y-75072500D01*
X147313241Y-75072501D01*
X147254772Y-75084132D01*
X147254766Y-75084134D01*
X147188451Y-75128445D01*
X147188445Y-75128451D01*
X147144134Y-75194766D01*
X147144132Y-75194772D01*
X147132501Y-75253241D01*
X147132500Y-75253253D01*
X147132500Y-76816746D01*
X147132501Y-76816758D01*
X147144132Y-76875227D01*
X147144133Y-76875231D01*
X147188448Y-76941552D01*
X147254769Y-76985867D01*
X147291283Y-76993130D01*
X147313241Y-76997498D01*
X147313246Y-76997498D01*
X147313252Y-76997500D01*
X147395500Y-76997500D01*
X147453691Y-77016407D01*
X147489655Y-77065907D01*
X147494500Y-77096500D01*
X147494500Y-77513500D01*
X147475593Y-77571691D01*
X147426093Y-77607655D01*
X147395500Y-77612500D01*
X147313252Y-77612500D01*
X147313251Y-77612500D01*
X147313241Y-77612501D01*
X147254772Y-77624132D01*
X147254766Y-77624134D01*
X147188451Y-77668445D01*
X147188445Y-77668451D01*
X147144134Y-77734766D01*
X147144132Y-77734772D01*
X147132501Y-77793241D01*
X147132500Y-77793253D01*
X147132500Y-79356746D01*
X147132501Y-79356758D01*
X147144132Y-79415227D01*
X147144133Y-79415231D01*
X147188448Y-79481552D01*
X147254769Y-79525867D01*
X147291283Y-79533130D01*
X147313241Y-79537498D01*
X147313246Y-79537498D01*
X147313252Y-79537500D01*
X147395500Y-79537500D01*
X147453691Y-79556407D01*
X147489655Y-79605907D01*
X147494500Y-79636500D01*
X147494500Y-80059229D01*
X147475593Y-80117420D01*
X147465504Y-80129233D01*
X146743561Y-80851177D01*
X146689044Y-80878954D01*
X146673557Y-80880173D01*
X145193552Y-80880173D01*
X145193551Y-80880173D01*
X145193541Y-80880174D01*
X145135072Y-80891805D01*
X145135066Y-80891807D01*
X145068751Y-80936118D01*
X145068745Y-80936124D01*
X145024434Y-81002439D01*
X145024432Y-81002445D01*
X145012801Y-81060914D01*
X145012800Y-81060926D01*
X145012800Y-82900419D01*
X143941425Y-82900419D01*
X143852334Y-82839678D01*
X143626830Y-82731082D01*
X143387656Y-82657306D01*
X143387646Y-82657304D01*
X143140152Y-82620000D01*
X142889847Y-82620000D01*
X142642353Y-82657304D01*
X142642343Y-82657306D01*
X142403169Y-82731082D01*
X142177662Y-82839679D01*
X141970851Y-82980680D01*
X141943339Y-83006206D01*
X142528096Y-83590963D01*
X142497569Y-83609331D01*
X142363342Y-83736477D01*
X142317280Y-83804413D01*
X141732542Y-83219675D01*
X141631310Y-83346619D01*
X141506164Y-83563379D01*
X141506160Y-83563388D01*
X141414718Y-83796376D01*
X141359023Y-84040396D01*
X141359021Y-84040406D01*
X141340317Y-84289997D01*
X141340317Y-84290002D01*
X139609683Y-84290002D01*
X139609683Y-84289997D01*
X139590978Y-84040406D01*
X139590976Y-84040396D01*
X139535281Y-83796376D01*
X139443839Y-83563388D01*
X139443830Y-83563369D01*
X139318691Y-83346622D01*
X139318687Y-83346616D01*
X139217456Y-83219675D01*
X138635458Y-83801672D01*
X138522991Y-83669265D01*
X138421074Y-83591790D01*
X139006659Y-83006206D01*
X138979150Y-82980682D01*
X138772334Y-82839678D01*
X138546830Y-82731082D01*
X138307656Y-82657306D01*
X138307646Y-82657304D01*
X138060152Y-82620000D01*
X137809847Y-82620000D01*
X137562353Y-82657304D01*
X137562343Y-82657306D01*
X137323169Y-82731082D01*
X137097662Y-82839679D01*
X136890851Y-82980680D01*
X136863339Y-83006206D01*
X137448096Y-83590963D01*
X137417569Y-83609331D01*
X137283342Y-83736477D01*
X137237280Y-83804413D01*
X136652542Y-83219675D01*
X136551310Y-83346619D01*
X136426164Y-83563379D01*
X136426160Y-83563388D01*
X136334718Y-83796376D01*
X136279023Y-84040396D01*
X136279021Y-84040406D01*
X136260317Y-84289997D01*
X136260317Y-84290002D01*
X134379500Y-84290002D01*
X134379500Y-78424999D01*
X144493000Y-78424999D01*
X144493001Y-78425000D01*
X145133306Y-78425000D01*
X145106736Y-78541407D01*
X145116749Y-78675028D01*
X145136362Y-78725000D01*
X144493001Y-78725000D01*
X144493001Y-79381791D01*
X144495909Y-79406874D01*
X144541213Y-79509477D01*
X144620522Y-79588786D01*
X144723127Y-79634090D01*
X144748203Y-79636999D01*
X145404998Y-79636999D01*
X145405000Y-79636998D01*
X145405000Y-78993897D01*
X145488002Y-79019500D01*
X145588312Y-79019500D01*
X145687499Y-79004550D01*
X145705000Y-78996121D01*
X145705000Y-79636998D01*
X145705001Y-79636999D01*
X146361790Y-79636999D01*
X146361791Y-79636998D01*
X146386874Y-79634090D01*
X146489477Y-79588786D01*
X146568786Y-79509477D01*
X146614090Y-79406872D01*
X146616999Y-79381797D01*
X146617000Y-79381795D01*
X146617000Y-78725001D01*
X146616999Y-78725000D01*
X145976694Y-78725000D01*
X146003264Y-78608593D01*
X145993251Y-78474972D01*
X145973638Y-78425000D01*
X146616998Y-78425000D01*
X146616999Y-78424998D01*
X146616999Y-77768210D01*
X146616998Y-77768208D01*
X146614090Y-77743125D01*
X146568786Y-77640522D01*
X146489477Y-77561213D01*
X146386872Y-77515909D01*
X146361797Y-77513000D01*
X145705000Y-77513000D01*
X145705000Y-78156102D01*
X145621998Y-78130500D01*
X145521688Y-78130500D01*
X145422501Y-78145450D01*
X145405000Y-78153878D01*
X145405000Y-77513001D01*
X145404999Y-77513000D01*
X144748210Y-77513000D01*
X144748207Y-77513001D01*
X144723125Y-77515909D01*
X144620522Y-77561213D01*
X144541213Y-77640522D01*
X144495909Y-77743127D01*
X144493000Y-77768202D01*
X144493000Y-78424999D01*
X134379500Y-78424999D01*
X134379500Y-75884999D01*
X144493000Y-75884999D01*
X144493001Y-75885000D01*
X145133306Y-75885000D01*
X145106736Y-76001407D01*
X145116749Y-76135028D01*
X145136362Y-76185000D01*
X144493001Y-76185000D01*
X144493001Y-76841791D01*
X144495909Y-76866874D01*
X144541213Y-76969477D01*
X144620522Y-77048786D01*
X144723127Y-77094090D01*
X144748203Y-77096999D01*
X145404998Y-77096999D01*
X145405000Y-77096998D01*
X145405000Y-76453897D01*
X145488002Y-76479500D01*
X145588312Y-76479500D01*
X145687499Y-76464550D01*
X145705000Y-76456121D01*
X145705000Y-77096998D01*
X145705001Y-77096999D01*
X146361790Y-77096999D01*
X146361791Y-77096998D01*
X146386874Y-77094090D01*
X146489477Y-77048786D01*
X146568786Y-76969477D01*
X146614090Y-76866872D01*
X146616999Y-76841797D01*
X146617000Y-76841795D01*
X146617000Y-76185001D01*
X146616999Y-76185000D01*
X145976694Y-76185000D01*
X146003264Y-76068593D01*
X145993251Y-75934972D01*
X145973638Y-75885000D01*
X146616998Y-75885000D01*
X146616999Y-75884999D01*
X146616999Y-75228210D01*
X146616998Y-75228208D01*
X146614090Y-75203125D01*
X146568786Y-75100522D01*
X146489477Y-75021213D01*
X146386872Y-74975909D01*
X146361797Y-74973000D01*
X145705001Y-74973000D01*
X145705000Y-74973001D01*
X145705000Y-75616102D01*
X145621998Y-75590500D01*
X145521688Y-75590500D01*
X145422501Y-75605450D01*
X145405000Y-75613878D01*
X145405000Y-74973000D01*
X144748210Y-74973000D01*
X144748207Y-74973001D01*
X144723125Y-74975909D01*
X144620522Y-75021213D01*
X144541213Y-75100522D01*
X144495909Y-75203127D01*
X144493000Y-75228202D01*
X144493000Y-75884999D01*
X134379500Y-75884999D01*
X134379500Y-74619289D01*
X152811500Y-74619289D01*
X152811501Y-74619291D01*
X152814409Y-74644374D01*
X152859713Y-74746977D01*
X152939022Y-74826286D01*
X153041627Y-74871590D01*
X153066703Y-74874499D01*
X153659998Y-74874499D01*
X153660000Y-74874498D01*
X153960000Y-74874498D01*
X153960001Y-74874499D01*
X154553290Y-74874499D01*
X154553291Y-74874498D01*
X154578374Y-74871590D01*
X154680977Y-74826286D01*
X154760286Y-74746977D01*
X154805590Y-74644372D01*
X154808499Y-74619297D01*
X154808500Y-74619294D01*
X154808500Y-74594246D01*
X155451000Y-74594246D01*
X155451001Y-74594258D01*
X155462632Y-74652727D01*
X155462634Y-74652733D01*
X155506945Y-74719048D01*
X155506948Y-74719052D01*
X155573269Y-74763367D01*
X155617731Y-74772211D01*
X155631741Y-74774998D01*
X155631746Y-74774998D01*
X155631752Y-74775000D01*
X155631753Y-74775000D01*
X157068247Y-74775000D01*
X157068248Y-74775000D01*
X157126731Y-74763367D01*
X157193052Y-74719052D01*
X157237367Y-74652731D01*
X157244019Y-74619289D01*
X157891500Y-74619289D01*
X157891501Y-74619291D01*
X157894409Y-74644374D01*
X157939713Y-74746977D01*
X158019022Y-74826286D01*
X158121627Y-74871590D01*
X158146703Y-74874499D01*
X158739998Y-74874499D01*
X158740000Y-74874497D01*
X159040000Y-74874497D01*
X159040001Y-74874499D01*
X159633290Y-74874499D01*
X159633291Y-74874498D01*
X159658374Y-74871590D01*
X159760977Y-74826286D01*
X159840286Y-74746977D01*
X159885590Y-74644372D01*
X159888499Y-74619297D01*
X159888500Y-74619294D01*
X159888500Y-74280000D01*
X159040001Y-74280000D01*
X159040000Y-74280001D01*
X159040000Y-74874497D01*
X158740000Y-74874497D01*
X158740000Y-74280001D01*
X158739999Y-74280000D01*
X157891502Y-74280000D01*
X157891501Y-74280001D01*
X157891500Y-74619289D01*
X157244019Y-74619289D01*
X157249000Y-74594248D01*
X157249000Y-73979999D01*
X157891500Y-73979999D01*
X157891501Y-73980000D01*
X158739999Y-73980000D01*
X158740000Y-73979999D01*
X159040000Y-73979999D01*
X159040001Y-73980000D01*
X159888498Y-73980000D01*
X159888499Y-73979998D01*
X159888499Y-73640710D01*
X159888498Y-73640708D01*
X159885590Y-73615625D01*
X159840286Y-73513022D01*
X159760977Y-73433713D01*
X159658372Y-73388409D01*
X159633297Y-73385500D01*
X159040001Y-73385500D01*
X159040000Y-73385501D01*
X159040000Y-73979999D01*
X158740000Y-73979999D01*
X158740000Y-73979998D01*
X158740000Y-73385501D01*
X158739999Y-73385500D01*
X158146710Y-73385500D01*
X158146707Y-73385501D01*
X158121625Y-73388409D01*
X158019022Y-73433713D01*
X157939713Y-73513022D01*
X157894409Y-73615627D01*
X157891500Y-73640702D01*
X157891500Y-73979999D01*
X157249000Y-73979999D01*
X157249000Y-73665752D01*
X157237367Y-73607269D01*
X157193052Y-73540948D01*
X157160108Y-73518935D01*
X157126733Y-73496634D01*
X157126731Y-73496633D01*
X157126728Y-73496632D01*
X157126727Y-73496632D01*
X157068258Y-73485001D01*
X157068248Y-73485000D01*
X155631752Y-73485000D01*
X155631751Y-73485000D01*
X155631741Y-73485001D01*
X155573272Y-73496632D01*
X155573266Y-73496634D01*
X155506951Y-73540945D01*
X155506945Y-73540951D01*
X155462634Y-73607266D01*
X155462632Y-73607272D01*
X155451001Y-73665741D01*
X155451000Y-73665753D01*
X155451000Y-74594246D01*
X154808500Y-74594246D01*
X154808500Y-74280001D01*
X154808499Y-74280000D01*
X153960001Y-74280000D01*
X153960000Y-74280001D01*
X153960000Y-74874498D01*
X153660000Y-74874498D01*
X153660000Y-74280001D01*
X153659999Y-74280000D01*
X152811502Y-74280000D01*
X152811501Y-74280001D01*
X152811500Y-74619289D01*
X134379500Y-74619289D01*
X134379500Y-73979999D01*
X152811500Y-73979999D01*
X152811501Y-73980000D01*
X153659999Y-73980000D01*
X153660000Y-73979999D01*
X153960000Y-73979999D01*
X153960001Y-73980000D01*
X154808498Y-73980000D01*
X154808499Y-73979999D01*
X154808499Y-73640710D01*
X154808498Y-73640708D01*
X154805590Y-73615625D01*
X154760286Y-73513022D01*
X154680977Y-73433713D01*
X154578372Y-73388409D01*
X154553297Y-73385500D01*
X153960001Y-73385500D01*
X153960000Y-73385501D01*
X153960000Y-73979999D01*
X153660000Y-73979999D01*
X153660000Y-73979998D01*
X153660000Y-73385501D01*
X153659999Y-73385500D01*
X153066710Y-73385500D01*
X153066707Y-73385501D01*
X153041625Y-73388409D01*
X152939022Y-73433713D01*
X152859713Y-73513022D01*
X152814409Y-73615627D01*
X152811500Y-73640702D01*
X152811500Y-73979999D01*
X134379500Y-73979999D01*
X134379500Y-72578500D01*
X134398407Y-72520309D01*
X134447907Y-72484345D01*
X134478500Y-72479500D01*
X162331214Y-72479500D01*
X162389405Y-72498407D01*
G37*
%TD.AperFunction*%
%TD*%
M02*
