M48
; DRILL file {KiCad 7.0.5.1-1-g8f565ef7f0-dirty-deb11} date Mon Jul 10 01:26:26 2023
; FORMAT={3:3/ absolute / metric / suppress leading zeros}
; #@! TF.CreationDate,2023-07-10T01:26:26+00:00
; #@! TF.GenerationSoftware,Kicad,Pcbnew,7.0.5.1-1-g8f565ef7f0-dirty-deb11
; #@! TF.FileFunction,Plated,1,2,PTH
FMAT,2
METRIC,TZ
; #@! TA.AperFunction,Plated,PTH,ViaDrill
T1C0.200
; #@! TA.AperFunction,Plated,PTH,ViaDrill
T2C0.400
; #@! TA.AperFunction,Plated,PTH,ComponentDrill
T3C0.889
; #@! TA.AperFunction,Plated,PTH,ComponentDrill
T4C1.200
; #@! TA.AperFunction,Plated,PTH,ComponentDrill
T5C1.700
; #@! TA.AperFunction,Plated,PTH,ComponentDrill
T6C3.000
%
G90
G05
T1
X137071Y-92189
X138900Y-86703
X138900Y-98133
X138951Y-87262
X138951Y-98692
X139103Y-86093
X139103Y-97523
X139205Y-87821
X139205Y-99251
X139459Y-85636
X139459Y-97066
X139662Y-88176
X139662Y-99606
X140069Y-85331
X140069Y-96761
X140272Y-88379
X140272Y-99809
X140729Y-85281
X140729Y-96711
X140881Y-88379
X140881Y-99809
X141288Y-85484
X141288Y-96914
X141389Y-88125
X141389Y-99555
X141745Y-85941
X141745Y-87719
X141745Y-97371
X141745Y-99149
X143015Y-92596
X144031Y-86043
X144336Y-97269
X144437Y-99403
X144590Y-86195
X144895Y-88481
X144920Y-101384
X144996Y-97371
X145149Y-86449
X145301Y-88887
X145352Y-101841
X145555Y-89345
X145606Y-97727
X145657Y-86754
X145758Y-95644
X145809Y-84519
X145809Y-89853
X145809Y-91326
X145961Y-102299
X146063Y-87109
X146063Y-90411
X146063Y-98235
X146165Y-91910
X146165Y-92672
X146165Y-93434
X146190Y-96355
X146215Y-94323
X146215Y-95034
X146419Y-98895
X146469Y-87516
X146469Y-99505
X146469Y-100165
X146622Y-96761
X146622Y-97752
X146876Y-87922
X147282Y-88379
X147282Y-97473
X147638Y-88938
X147638Y-96355
X147841Y-87109
X147841Y-89599
X147841Y-98260
X147943Y-91834
X147943Y-93205
X147993Y-92545
X148044Y-90411
X148044Y-91224
X148552Y-95593
X148730Y-99149
X148857Y-98133
X149009Y-103111
X149263Y-85636
X149263Y-98539
X149314Y-95085
X149314Y-95847
X149314Y-100013
X149314Y-100927
X149314Y-101841
X149619Y-88684
X150381Y-84112
X150635Y-88176
X150686Y-91631
X150686Y-93459
X150686Y-95745
X150787Y-97981
X150889Y-99098
X150889Y-103721
X151295Y-95695
X151346Y-91631
X151346Y-93459
X151499Y-97930
X151600Y-99098
X151753Y-96253
X151808Y-96863
X151854Y-97523
X152007Y-89954
X152007Y-91631
X152057Y-93459
X152159Y-95745
X152210Y-99403
X152261Y-86297
X152261Y-97981
X152261Y-102959
X152311Y-100673
X152362Y-100063
X152540Y-104229
X152769Y-95745
X152769Y-98844
X152819Y-91377
X152819Y-93764
X152819Y-100927
X152972Y-97981
X153175Y-89395
X153226Y-101283
X153378Y-103975
X153581Y-88278
X153632Y-90970
X153632Y-97828
X153683Y-95898
X153734Y-101638
X153835Y-94679
X154089Y-91783
X154089Y-93104
X154242Y-104026
X154293Y-102146
X154293Y-102768
X154293Y-103365
X154343Y-97777
X154394Y-95949
X154547Y-100571
X154699Y-93764
X154953Y-91326
X155105Y-95949
X155156Y-97777
X155156Y-101537
X155258Y-104026
X155359Y-84671
X155613Y-90005
X155766Y-94018
X155766Y-95949
X155969Y-91631
X155969Y-97777
X156071Y-100521
X156121Y-89040
X156223Y-103670
X156274Y-101841
X156426Y-95949
X156731Y-91427
X156731Y-93459
X156731Y-97777
X156833Y-103670
X156934Y-83503
X156985Y-101841
X157036Y-95949
X157036Y-101232
X157544Y-91631
X157544Y-93459
X157544Y-103772
X157645Y-95949
X158128Y-96253
X158153Y-93713
X158204Y-91631
X158204Y-95034
X158306Y-103213
X158661Y-96457
X158865Y-102248
X158915Y-101537
X159169Y-97015
X159220Y-97828
X159220Y-98590
X159220Y-99301
X159220Y-100063
X159220Y-100825
X159627Y-84874
X159779Y-87973
X159779Y-88735
X159779Y-89497
X159881Y-90259
X159881Y-94729
X159881Y-95542
X159881Y-96558
X159881Y-97320
X159931Y-91021
X160033Y-93942
X160084Y-91834
X160084Y-92494
X160236Y-97981
X160338Y-95999
X160439Y-89123
X160439Y-101029
X160490Y-87262
X160744Y-85636
X160846Y-98031
X160998Y-86957
X160998Y-95999
X161055Y-89123
X161303Y-98489
X161405Y-86551
X161659Y-89141
X161709Y-96050
X161811Y-98895
X161862Y-84976
X161862Y-99555
X161862Y-100267
X161913Y-84112
X161913Y-86195
X161913Y-93205
X161963Y-92647
X161963Y-100978
X162217Y-91529
X162217Y-95034
X162217Y-96711
X162268Y-88786
X162268Y-89599
X162319Y-90513
X162370Y-99149
X162421Y-101435
X162446Y-83528
X162471Y-94221
X162573Y-85941
X162573Y-88024
X162573Y-92240
X162675Y-91072
X162954Y-97117
X163081Y-101333
X163132Y-99149
X163183Y-87770
X163233Y-85941
X163335Y-103518
X163462Y-83528
X163487Y-95593
X163741Y-101384
X163792Y-92647
X163792Y-97371
X163945Y-85941
X163945Y-87770
X163995Y-99149
X164351Y-97371
X164656Y-99200
X164757Y-87770
X164808Y-85941
X164910Y-97371
X167145Y-85941
X167145Y-87719
X167145Y-97371
X167145Y-99149
X167247Y-93053
X167501Y-85535
X167501Y-96965
X167602Y-88176
X167602Y-99606
X168009Y-85281
X168009Y-96711
X168161Y-88379
X168161Y-99809
X168618Y-85281
X168618Y-96711
X168821Y-88329
X168821Y-99759
X169228Y-85484
X169228Y-96914
X169431Y-88024
X169431Y-99454
X169685Y-85839
X169685Y-97269
X169787Y-87567
X169787Y-98997
X169939Y-86398
X169939Y-97828
X169990Y-86957
X169990Y-98387
X171666Y-92291
T2
X146190Y-105880
X146774Y-107175
X147587Y-109563
X148730Y-94450
X149975Y-90259
X152667Y-109563
X156350Y-74130
X158890Y-94450
X161430Y-74130
T3
X145555Y-76035
X145555Y-78575
X148095Y-76035
X148095Y-78575
X150635Y-76035
X150635Y-78575
X153810Y-77940
X153810Y-80480
X156350Y-77940
X156350Y-80480
X158890Y-77940
X158890Y-80480
X161430Y-77940
X161430Y-80480
X163843Y-106388
X163843Y-108928
T4
X140475Y-86830
X140475Y-98260
X168415Y-86830
X168415Y-98260
T5
X137935Y-84290
X137935Y-89370
X137935Y-95720
X137935Y-100800
X143015Y-84290
X143015Y-89370
X143015Y-95720
X143015Y-100800
X165875Y-84290
X165875Y-89370
X165875Y-95720
X165875Y-100800
X170955Y-84290
X170955Y-89370
X170955Y-95720
X170955Y-100800
T6
X139205Y-77305
X139205Y-107785
X169685Y-77305
X169685Y-107785
T0
M30
