%TF.GenerationSoftware,KiCad,Pcbnew,7.0.5.1-1-g8f565ef7f0-dirty-deb11*%
%TF.CreationDate,2023-07-20T11:58:03+00:00*%
%TF.ProjectId,RFSWITCH01,52465357-4954-4434-9830-312e6b696361,rev?*%
%TF.SameCoordinates,Original*%
%TF.FileFunction,Copper,L1,Top*%
%TF.FilePolarity,Positive*%
%FSLAX46Y46*%
G04 Gerber Fmt 4.6, Leading zero omitted, Abs format (unit mm)*
G04 Created by KiCad (PCBNEW 7.0.5.1-1-g8f565ef7f0-dirty-deb11) date 2023-07-20 11:58:03*
%MOMM*%
%LPD*%
G01*
G04 APERTURE LIST*
%TA.AperFunction,ComponentPad*%
%ADD10R,1.524000X1.524000*%
%TD*%
%TA.AperFunction,ComponentPad*%
%ADD11C,2.240000*%
%TD*%
%TA.AperFunction,ComponentPad*%
%ADD12C,2.740000*%
%TD*%
%TA.AperFunction,ComponentPad*%
%ADD13C,6.000000*%
%TD*%
%TA.AperFunction,ViaPad*%
%ADD14C,0.800000*%
%TD*%
%TA.AperFunction,ViaPad*%
%ADD15C,0.450000*%
%TD*%
%TA.AperFunction,Conductor*%
%ADD16C,0.400000*%
%TD*%
%TA.AperFunction,Conductor*%
%ADD17C,0.500000*%
%TD*%
G04 APERTURE END LIST*
D10*
%TO.P,J9,1*%
%TO.N,/SW1_CTRL*%
X153810000Y-80480000D03*
%TO.P,J9,2*%
X153810000Y-77940000D03*
%TD*%
%TO.P,J5,1*%
%TO.N,/SW2_#CTRL*%
X161430000Y-80480000D03*
%TO.P,J5,2*%
X161430000Y-77940000D03*
%TD*%
%TO.P,J4,1*%
%TO.N,/SW2_CTRL*%
X158890000Y-80480000D03*
%TO.P,J4,2*%
X158890000Y-77940000D03*
%TD*%
%TO.P,J6,1*%
%TO.N,Net-(J6-Pad1)*%
X163843000Y-108928000D03*
%TO.P,J6,2*%
X163843000Y-106388000D03*
%TD*%
D11*
%TO.P,J8,1*%
%TO.N,/RX{slash}TX_2*%
X168415000Y-98260000D03*
D12*
%TO.P,J8,2*%
%TO.N,GND*%
X165875000Y-95720000D03*
X165875000Y-100800000D03*
X170955000Y-95720000D03*
X170955000Y-100800000D03*
%TD*%
D13*
%TO.P,M3,1*%
%TO.N,GND*%
X139205000Y-77305000D03*
%TD*%
D10*
%TO.P,J1,1*%
%TO.N,GND*%
X145555000Y-78575000D03*
%TO.P,J1,2*%
X145555000Y-76035000D03*
%TO.P,J1,3*%
%TO.N,+3V3*%
X148095000Y-78575000D03*
%TO.P,J1,4*%
X148095000Y-76035000D03*
%TO.P,J1,5*%
%TO.N,GND*%
X150635000Y-78575000D03*
%TO.P,J1,6*%
X150635000Y-76035000D03*
%TD*%
D13*
%TO.P,M4,1*%
%TO.N,GND*%
X169685000Y-107785000D03*
%TD*%
D10*
%TO.P,J10,1*%
%TO.N,/SW1_#CTRL*%
X156350000Y-80480000D03*
%TO.P,J10,2*%
X156350000Y-77940000D03*
%TD*%
D11*
%TO.P,J2,1*%
%TO.N,/TX*%
X140475000Y-86830000D03*
D12*
%TO.P,J2,2*%
%TO.N,GND*%
X137935000Y-84290000D03*
X137935000Y-89370000D03*
X143015000Y-84290000D03*
X143015000Y-89370000D03*
%TD*%
D13*
%TO.P,M1,1*%
%TO.N,GND*%
X169685000Y-77305000D03*
%TD*%
D11*
%TO.P,J7,1*%
%TO.N,/RX{slash}TX_1*%
X168415000Y-86830000D03*
D12*
%TO.P,J7,2*%
%TO.N,GND*%
X165875000Y-84290000D03*
X165875000Y-89370000D03*
X170955000Y-84290000D03*
X170955000Y-89370000D03*
%TD*%
D11*
%TO.P,J3,1*%
%TO.N,/RX*%
X140475000Y-98260000D03*
D12*
%TO.P,J3,2*%
%TO.N,GND*%
X137935000Y-95720000D03*
X137935000Y-100800000D03*
X143015000Y-95720000D03*
X143015000Y-100800000D03*
%TD*%
D13*
%TO.P,M2,1*%
%TO.N,GND*%
X139205000Y-107785000D03*
%TD*%
D14*
%TO.N,+3V3*%
X156350000Y-74130000D03*
X147587000Y-109563000D03*
X146190000Y-105880000D03*
X161430000Y-74130000D03*
X152667000Y-109563000D03*
D15*
%TO.N,GND*%
X156121400Y-89039800D03*
X141389400Y-88125400D03*
X168618200Y-96710600D03*
X149314200Y-95085000D03*
X159880600Y-94729400D03*
X162369800Y-99149000D03*
X154292600Y-102768500D03*
X149263400Y-98539400D03*
X143015000Y-92595800D03*
X157543800Y-91630600D03*
X147942600Y-91833800D03*
X159779000Y-87973000D03*
X164808200Y-85941000D03*
X150635000Y-88176200D03*
X169786600Y-87566600D03*
X147282200Y-97472600D03*
X159880600Y-90259000D03*
X145809000Y-89852600D03*
X162573000Y-92240200D03*
X148044200Y-91224200D03*
X159931400Y-91021000D03*
X156070600Y-100520600D03*
X145809000Y-84518600D03*
X154699000Y-93764200D03*
X148044200Y-90411400D03*
X163487400Y-95593000D03*
X162954000Y-97117000D03*
X160998200Y-86957000D03*
X169431000Y-88023800D03*
X151346200Y-91630600D03*
X159880600Y-96558200D03*
X140729000Y-96710600D03*
X144996200Y-97371000D03*
X146215400Y-95034200D03*
X162573000Y-85941000D03*
X145351800Y-101841400D03*
X163182600Y-87769800D03*
X154546600Y-100571400D03*
X146621800Y-96761400D03*
X162471400Y-94221400D03*
X149314200Y-101841400D03*
X160083800Y-91833800D03*
X153581400Y-88277800D03*
X154953000Y-91325800D03*
X152209800Y-99403000D03*
X161861800Y-99555400D03*
X155156200Y-97777400D03*
X156934200Y-83502600D03*
X156985000Y-101841400D03*
X146621800Y-97752000D03*
X149009400Y-103111400D03*
X146063000Y-87109400D03*
X159779000Y-89497000D03*
X145555000Y-89344600D03*
X145809000Y-91325800D03*
X164757400Y-87769800D03*
X155969000Y-97777400D03*
X161912600Y-86195000D03*
X168008600Y-85280600D03*
X156223000Y-103670200D03*
X159220200Y-98590200D03*
X150787400Y-97980600D03*
X169989800Y-98387000D03*
X156273800Y-101841400D03*
X152819400Y-91376600D03*
X163081000Y-101333400D03*
X167602200Y-88176200D03*
X169227800Y-85483800D03*
X152311400Y-100673000D03*
X158153400Y-93713400D03*
X161054992Y-89123329D03*
X152159000Y-95745400D03*
X163462000Y-83528000D03*
X151498600Y-97929800D03*
X159220200Y-97828200D03*
X139205000Y-87820600D03*
X158204200Y-91630600D03*
X167145000Y-85941000D03*
X168821400Y-99758600D03*
X146215400Y-94323000D03*
X159880600Y-95542200D03*
X158864600Y-102247800D03*
X157035800Y-95948600D03*
X145758200Y-95643800D03*
X158204200Y-95034200D03*
X163995400Y-99149000D03*
X171666200Y-92291000D03*
X160083800Y-92494200D03*
X160845800Y-98031400D03*
X163233400Y-85941000D03*
X140729000Y-85280600D03*
X162217400Y-96710600D03*
X168821400Y-88328600D03*
X137071400Y-92189400D03*
X141287800Y-96913800D03*
X158305800Y-103213000D03*
X141745000Y-99149000D03*
X147841000Y-87109400D03*
X138900200Y-86703000D03*
X161963400Y-100977800D03*
X140271800Y-99809400D03*
X151854200Y-97523400D03*
X146469400Y-99504600D03*
X160998200Y-95999400D03*
X151752600Y-96253400D03*
X146418600Y-98895000D03*
X155156200Y-101536600D03*
X156731000Y-97777400D03*
X154343400Y-97777400D03*
X146063000Y-98234600D03*
X159626600Y-84874200D03*
X157543800Y-103771800D03*
X167500600Y-85534600D03*
X152057400Y-93459400D03*
X147942600Y-93205400D03*
X167145000Y-99149000D03*
X155765800Y-95948600D03*
X145148600Y-86449000D03*
X155969000Y-91630600D03*
X156731000Y-91427400D03*
X162217400Y-95034200D03*
X140881400Y-88379400D03*
X139459000Y-85636200D03*
X153632200Y-90970200D03*
X149314200Y-95847000D03*
X146063000Y-90411400D03*
X161861800Y-84975800D03*
X155257800Y-104025800D03*
X145656600Y-86753800D03*
X147841000Y-89598600D03*
X145301000Y-88887400D03*
X146190000Y-96355000D03*
X138951000Y-98691800D03*
X156731000Y-93459400D03*
X150685800Y-95745400D03*
X160337800Y-95999400D03*
X154089400Y-91783000D03*
X164655800Y-99199800D03*
X157645400Y-95948600D03*
X162446000Y-83528000D03*
X159220200Y-100063400D03*
X140068600Y-85331400D03*
X154241800Y-104025800D03*
X169939000Y-97828200D03*
X167145000Y-87719000D03*
X152768600Y-95745400D03*
X155105400Y-95948600D03*
X161912600Y-84112200D03*
X152819400Y-100927000D03*
X144031000Y-86042600D03*
X154292600Y-102146200D03*
X167246600Y-93053000D03*
X138900200Y-98133000D03*
X152362200Y-100063400D03*
X140068600Y-96761400D03*
X150381000Y-84112200D03*
X148857000Y-98133000D03*
X161658600Y-89141400D03*
X155359400Y-84671000D03*
X141745000Y-87719000D03*
X146469400Y-87515800D03*
X144589800Y-86195000D03*
X162217400Y-91529000D03*
X169786600Y-98996600D03*
X160439400Y-101028600D03*
X168008600Y-96710600D03*
X152768600Y-98844200D03*
X163335000Y-103517800D03*
X153835400Y-94678600D03*
X163131800Y-99149000D03*
X151600200Y-99098200D03*
X141745000Y-97371000D03*
X147841000Y-98260000D03*
X147637800Y-88938200D03*
X155613400Y-90005000D03*
X151295400Y-95694600D03*
X152819400Y-93764200D03*
X147993400Y-92545000D03*
X145605800Y-97726600D03*
X169939000Y-86398200D03*
X139662200Y-88176200D03*
X167602200Y-99606200D03*
X162268200Y-89598600D03*
X150889000Y-103721000D03*
X151807700Y-96863000D03*
X159169400Y-97015400D03*
X162319000Y-90513000D03*
X154292600Y-103365400D03*
X162573000Y-88023800D03*
X145961400Y-102298600D03*
X163792200Y-97371000D03*
X144920000Y-101384200D03*
X154089400Y-93103800D03*
X147282200Y-88379400D03*
X146164600Y-91910000D03*
X162420600Y-101435000D03*
X156832600Y-103670200D03*
X161811000Y-98895000D03*
X169685000Y-97269400D03*
X169227800Y-96913800D03*
X146164600Y-93434000D03*
X149619000Y-88684200D03*
X164351000Y-97371000D03*
X144894600Y-88481000D03*
X153683000Y-95897800D03*
X163944600Y-85941000D03*
X162674600Y-91071800D03*
X151346200Y-93459400D03*
X163944600Y-87769800D03*
X144437400Y-99403000D03*
X146469400Y-100165000D03*
X152006600Y-89954200D03*
X160439400Y-89123329D03*
X159779000Y-88735000D03*
X152260600Y-86296600D03*
X139103400Y-86093400D03*
X161861800Y-100266600D03*
X141389400Y-99555400D03*
X140271800Y-88379400D03*
X150685800Y-91630600D03*
X148552200Y-95593000D03*
X168161000Y-99809400D03*
X149314200Y-100927000D03*
X154394200Y-95948600D03*
X149263400Y-85636200D03*
X161709400Y-96050200D03*
X161963400Y-92646600D03*
X160236200Y-97980600D03*
X160744200Y-85636200D03*
X140881400Y-99809400D03*
X139205000Y-99250600D03*
X159220200Y-99301400D03*
X144335800Y-97269400D03*
X152260600Y-97980600D03*
X150685800Y-93459400D03*
X149314200Y-100012600D03*
X139662200Y-99606200D03*
X153225800Y-101282600D03*
X141745000Y-85941000D03*
X158915400Y-101536600D03*
X150889000Y-99098200D03*
X153175000Y-89395400D03*
X161303000Y-98488600D03*
X161912600Y-93205400D03*
X146164600Y-92672000D03*
X153378200Y-103975000D03*
X167145000Y-97371000D03*
X139103400Y-97523400D03*
X152540000Y-104229000D03*
X156426200Y-95948600D03*
X169685000Y-85839400D03*
X152971800Y-97980600D03*
X152260600Y-102959000D03*
X157543800Y-93459400D03*
X160033000Y-93942000D03*
X158128000Y-96253400D03*
X163792200Y-92646600D03*
X146875800Y-87922200D03*
X152006600Y-91630600D03*
X161404600Y-86550600D03*
X139459000Y-97066200D03*
X147637800Y-96355000D03*
X159220200Y-100825400D03*
X163741400Y-101384200D03*
X155765800Y-94018200D03*
X168161000Y-88379400D03*
X141287800Y-85483800D03*
X158661400Y-96456600D03*
X153632200Y-97828200D03*
X153733800Y-101638200D03*
X169431000Y-99453800D03*
X164909800Y-97371000D03*
X138951000Y-87261800D03*
X159880600Y-97320200D03*
X167500600Y-96964600D03*
X148730000Y-99149000D03*
X168618200Y-85280600D03*
X160490200Y-87261800D03*
X157035800Y-101231800D03*
X162268200Y-88785800D03*
X169989800Y-86957000D03*
D14*
%TO.N,/SW1_CTRL*%
X149974600Y-90259000D03*
X146774200Y-107175400D03*
%TO.N,/SW1_#CTRL*%
X148730000Y-94450000D03*
%TO.N,/SW2_CTRL*%
X158890000Y-94450000D03*
%TD*%
D16*
%TO.N,+3V3*%
X156350000Y-74130000D02*
X150000000Y-74130000D01*
D17*
X136470001Y-103534999D02*
X142574999Y-103534999D01*
X144920000Y-105880000D02*
X146190000Y-105880000D01*
X148095000Y-78575000D02*
X144920000Y-81750000D01*
X135395000Y-102070000D02*
X135395000Y-102459998D01*
D16*
X150000000Y-74130000D02*
X148095000Y-76035000D01*
D17*
X135395000Y-83020000D02*
X135395000Y-102070000D01*
X136665000Y-81750000D02*
X135395000Y-83020000D01*
X135395000Y-102459998D02*
X136470001Y-103534999D01*
D16*
X161430000Y-74130000D02*
X156350000Y-74130000D01*
D17*
X142574999Y-103534999D02*
X144920000Y-105880000D01*
X147587000Y-109563000D02*
X152667000Y-109563000D01*
X144920000Y-81750000D02*
X136665000Y-81750000D01*
%TO.N,/SW1_CTRL*%
X146774200Y-107175400D02*
X149997294Y-103952306D01*
X149997294Y-103952306D02*
X149997294Y-90281694D01*
X149997294Y-90281694D02*
X149974600Y-90259000D01*
%TO.N,/SW1_#CTRL*%
X156350000Y-80480000D02*
X148730000Y-88100000D01*
X148730000Y-91910000D02*
X148730000Y-94450000D01*
X148730000Y-88100000D02*
X148730000Y-91910000D01*
%TO.N,/SW2_CTRL*%
X158890000Y-80480000D02*
X158890000Y-94450000D01*
%TD*%
%TA.AperFunction,Conductor*%
%TO.N,GND*%
G36*
X174469691Y-72498407D02*
G01*
X174505655Y-72547907D01*
X174510500Y-72578500D01*
X174510500Y-112511500D01*
X174491593Y-112569691D01*
X174442093Y-112605655D01*
X174411500Y-112610500D01*
X134478500Y-112610500D01*
X134420309Y-112591593D01*
X134384345Y-112542093D01*
X134379500Y-112511500D01*
X134379500Y-109563000D01*
X146981318Y-109563000D01*
X147001955Y-109719758D01*
X147001957Y-109719766D01*
X147062462Y-109865838D01*
X147062462Y-109865839D01*
X147081385Y-109890500D01*
X147158718Y-109991282D01*
X147284159Y-110087536D01*
X147430238Y-110148044D01*
X147547809Y-110163522D01*
X147586999Y-110168682D01*
X147587000Y-110168682D01*
X147587001Y-110168682D01*
X147618352Y-110164554D01*
X147743762Y-110148044D01*
X147889841Y-110087536D01*
X147959665Y-110033957D01*
X148017341Y-110013534D01*
X148019932Y-110013500D01*
X152234068Y-110013500D01*
X152292259Y-110032407D01*
X152294315Y-110033943D01*
X152364159Y-110087536D01*
X152510238Y-110148044D01*
X152627809Y-110163522D01*
X152666999Y-110168682D01*
X152667000Y-110168682D01*
X152667001Y-110168682D01*
X152698352Y-110164554D01*
X152823762Y-110148044D01*
X152969841Y-110087536D01*
X153095282Y-109991282D01*
X153191536Y-109865841D01*
X153252044Y-109719762D01*
X153272682Y-109563000D01*
X153252044Y-109406238D01*
X153191537Y-109260161D01*
X153191537Y-109260160D01*
X153095286Y-109134723D01*
X153095285Y-109134722D01*
X153095282Y-109134718D01*
X153095277Y-109134714D01*
X153095276Y-109134713D01*
X152969838Y-109038462D01*
X152823766Y-108977957D01*
X152823758Y-108977955D01*
X152667001Y-108957318D01*
X152666999Y-108957318D01*
X152510241Y-108977955D01*
X152510233Y-108977957D01*
X152364161Y-109038462D01*
X152325994Y-109067748D01*
X152294334Y-109092042D01*
X152236659Y-109112466D01*
X152234068Y-109112500D01*
X148019932Y-109112500D01*
X147961741Y-109093593D01*
X147959684Y-109092056D01*
X147889841Y-109038464D01*
X147889840Y-109038463D01*
X147889838Y-109038462D01*
X147743766Y-108977957D01*
X147743758Y-108977955D01*
X147587001Y-108957318D01*
X147586999Y-108957318D01*
X147430241Y-108977955D01*
X147430233Y-108977957D01*
X147284161Y-109038462D01*
X147284160Y-109038462D01*
X147158723Y-109134713D01*
X147158713Y-109134723D01*
X147062462Y-109260160D01*
X147062462Y-109260161D01*
X147001957Y-109406233D01*
X147001955Y-109406241D01*
X146981318Y-109562999D01*
X146981318Y-109563000D01*
X134379500Y-109563000D01*
X134379500Y-108928000D01*
X154236551Y-108928000D01*
X154256316Y-109179146D01*
X154315127Y-109424113D01*
X154411532Y-109656856D01*
X154411535Y-109656862D01*
X154543162Y-109871656D01*
X154543168Y-109871664D01*
X154680455Y-110032407D01*
X154706776Y-110063224D01*
X154706782Y-110063229D01*
X154706785Y-110063232D01*
X154735243Y-110087537D01*
X154898341Y-110226836D01*
X154898343Y-110226837D01*
X155113137Y-110358464D01*
X155113143Y-110358467D01*
X155345887Y-110454872D01*
X155345889Y-110454873D01*
X155590852Y-110513683D01*
X155779118Y-110528500D01*
X155779125Y-110528500D01*
X155904875Y-110528500D01*
X155904882Y-110528500D01*
X156093148Y-110513683D01*
X156338111Y-110454873D01*
X156570859Y-110358466D01*
X156785659Y-110226836D01*
X156977224Y-110063224D01*
X157140836Y-109871659D01*
X157240057Y-109709746D01*
X162880500Y-109709746D01*
X162880501Y-109709758D01*
X162892132Y-109768227D01*
X162892133Y-109768231D01*
X162936448Y-109834552D01*
X163002769Y-109878867D01*
X163047231Y-109887711D01*
X163061241Y-109890498D01*
X163061246Y-109890498D01*
X163061252Y-109890500D01*
X163061253Y-109890500D01*
X164624747Y-109890500D01*
X164624748Y-109890500D01*
X164683231Y-109878867D01*
X164749552Y-109834552D01*
X164793867Y-109768231D01*
X164805500Y-109709748D01*
X164805500Y-108146252D01*
X164793867Y-108087769D01*
X164749552Y-108021448D01*
X164749548Y-108021445D01*
X164683233Y-107977134D01*
X164683231Y-107977133D01*
X164683228Y-107977132D01*
X164683227Y-107977132D01*
X164624758Y-107965501D01*
X164624748Y-107965500D01*
X163061252Y-107965500D01*
X163061251Y-107965500D01*
X163061241Y-107965501D01*
X163002772Y-107977132D01*
X163002766Y-107977134D01*
X162936451Y-108021445D01*
X162936445Y-108021451D01*
X162892134Y-108087766D01*
X162892132Y-108087772D01*
X162880501Y-108146241D01*
X162880500Y-108146253D01*
X162880500Y-109709746D01*
X157240057Y-109709746D01*
X157272466Y-109656859D01*
X157368873Y-109424111D01*
X157427683Y-109179148D01*
X157447449Y-108928000D01*
X157427683Y-108676852D01*
X157368873Y-108431889D01*
X157272466Y-108199141D01*
X157240055Y-108146252D01*
X157140837Y-107984343D01*
X157140836Y-107984341D01*
X156977224Y-107792776D01*
X156977217Y-107792770D01*
X156977214Y-107792767D01*
X156785664Y-107629168D01*
X156785656Y-107629162D01*
X156570862Y-107497535D01*
X156570856Y-107497532D01*
X156338112Y-107401127D01*
X156338113Y-107401127D01*
X156093146Y-107342316D01*
X155979306Y-107333357D01*
X155904882Y-107327500D01*
X155779118Y-107327500D01*
X155708671Y-107333044D01*
X155590853Y-107342316D01*
X155345886Y-107401127D01*
X155113143Y-107497532D01*
X155113137Y-107497535D01*
X154898343Y-107629162D01*
X154898335Y-107629168D01*
X154706785Y-107792767D01*
X154706767Y-107792785D01*
X154543168Y-107984335D01*
X154543162Y-107984343D01*
X154411535Y-108199137D01*
X154411532Y-108199143D01*
X154315127Y-108431886D01*
X154256316Y-108676853D01*
X154236551Y-108928000D01*
X134379500Y-108928000D01*
X134379500Y-107175400D01*
X146168518Y-107175400D01*
X146189155Y-107332158D01*
X146189157Y-107332166D01*
X146249662Y-107478238D01*
X146249662Y-107478239D01*
X146345913Y-107603676D01*
X146345918Y-107603682D01*
X146471359Y-107699936D01*
X146617438Y-107760444D01*
X146735009Y-107775922D01*
X146774199Y-107781082D01*
X146774200Y-107781082D01*
X146774201Y-107781082D01*
X146805552Y-107776954D01*
X146930962Y-107760444D01*
X147077041Y-107699936D01*
X147202482Y-107603682D01*
X147298736Y-107478241D01*
X147359244Y-107332162D01*
X147370731Y-107244903D01*
X147397071Y-107189679D01*
X147398842Y-107187860D01*
X147416956Y-107169746D01*
X162880500Y-107169746D01*
X162880501Y-107169758D01*
X162892132Y-107228227D01*
X162892133Y-107228231D01*
X162936448Y-107294552D01*
X163002769Y-107338867D01*
X163047231Y-107347711D01*
X163061241Y-107350498D01*
X163061246Y-107350498D01*
X163061252Y-107350500D01*
X163061253Y-107350500D01*
X164624747Y-107350500D01*
X164624748Y-107350500D01*
X164683231Y-107338867D01*
X164749552Y-107294552D01*
X164793867Y-107228231D01*
X164805500Y-107169748D01*
X164805500Y-105606252D01*
X164793867Y-105547769D01*
X164749552Y-105481448D01*
X164749548Y-105481445D01*
X164683233Y-105437134D01*
X164683231Y-105437133D01*
X164683228Y-105437132D01*
X164683227Y-105437132D01*
X164624758Y-105425501D01*
X164624748Y-105425500D01*
X163061252Y-105425500D01*
X163061251Y-105425500D01*
X163061241Y-105425501D01*
X163002772Y-105437132D01*
X163002766Y-105437134D01*
X162936451Y-105481445D01*
X162936445Y-105481451D01*
X162892134Y-105547766D01*
X162892132Y-105547772D01*
X162880501Y-105606241D01*
X162880500Y-105606253D01*
X162880500Y-107169746D01*
X147416956Y-107169746D01*
X150295993Y-104290708D01*
X150300124Y-104287016D01*
X150331264Y-104262185D01*
X150364279Y-104213759D01*
X150365330Y-104212280D01*
X150400087Y-104165188D01*
X150400089Y-104165182D01*
X150403557Y-104158622D01*
X150403949Y-104158829D01*
X150404947Y-104156853D01*
X150404548Y-104156661D01*
X150407767Y-104149977D01*
X150425030Y-104094009D01*
X150425609Y-104092249D01*
X150444940Y-104037006D01*
X150444940Y-104037003D01*
X150446320Y-104029713D01*
X150446754Y-104029795D01*
X150447125Y-104027613D01*
X150446688Y-104027548D01*
X150447794Y-104020210D01*
X150447794Y-103961663D01*
X150447829Y-103959813D01*
X150448679Y-103937058D01*
X150450018Y-103901296D01*
X150450016Y-103901288D01*
X150449187Y-103893924D01*
X150449625Y-103893874D01*
X150447794Y-103879963D01*
X150447794Y-100800002D01*
X164200317Y-100800002D01*
X164219021Y-101049593D01*
X164219023Y-101049603D01*
X164274718Y-101293623D01*
X164366160Y-101526611D01*
X164366169Y-101526630D01*
X164491308Y-101743377D01*
X164491312Y-101743383D01*
X164592542Y-101870323D01*
X165174539Y-101288325D01*
X165287009Y-101420735D01*
X165388923Y-101498208D01*
X164803339Y-102083792D01*
X164830850Y-102109318D01*
X164830854Y-102109321D01*
X165037662Y-102250320D01*
X165263169Y-102358917D01*
X165502343Y-102432693D01*
X165502353Y-102432695D01*
X165749847Y-102469999D01*
X165749856Y-102470000D01*
X166000144Y-102470000D01*
X166000152Y-102469999D01*
X166247646Y-102432695D01*
X166247656Y-102432693D01*
X166486830Y-102358917D01*
X166712338Y-102250320D01*
X166919139Y-102109326D01*
X166919149Y-102109318D01*
X166946660Y-102083792D01*
X166361904Y-101499036D01*
X166392431Y-101480669D01*
X166526658Y-101353523D01*
X166572719Y-101285586D01*
X167157456Y-101870323D01*
X167258681Y-101743391D01*
X167258691Y-101743377D01*
X167383830Y-101526630D01*
X167383839Y-101526611D01*
X167475281Y-101293623D01*
X167530976Y-101049603D01*
X167530978Y-101049593D01*
X167549683Y-100800002D01*
X169280317Y-100800002D01*
X169299021Y-101049593D01*
X169299023Y-101049603D01*
X169354718Y-101293623D01*
X169446160Y-101526611D01*
X169446169Y-101526630D01*
X169571308Y-101743377D01*
X169571312Y-101743383D01*
X169672542Y-101870323D01*
X170254539Y-101288325D01*
X170367009Y-101420735D01*
X170468923Y-101498208D01*
X169883339Y-102083792D01*
X169910850Y-102109318D01*
X169910854Y-102109321D01*
X170117662Y-102250320D01*
X170343169Y-102358917D01*
X170582343Y-102432693D01*
X170582353Y-102432695D01*
X170829847Y-102469999D01*
X170829856Y-102470000D01*
X171080144Y-102470000D01*
X171080152Y-102469999D01*
X171327646Y-102432695D01*
X171327656Y-102432693D01*
X171566830Y-102358917D01*
X171792338Y-102250320D01*
X171999139Y-102109326D01*
X171999149Y-102109318D01*
X172026660Y-102083792D01*
X171441904Y-101499036D01*
X171472431Y-101480669D01*
X171606658Y-101353523D01*
X171652719Y-101285586D01*
X172237456Y-101870323D01*
X172338681Y-101743391D01*
X172338691Y-101743377D01*
X172463830Y-101526630D01*
X172463839Y-101526611D01*
X172555281Y-101293623D01*
X172610976Y-101049603D01*
X172610978Y-101049593D01*
X172629683Y-100800002D01*
X172629683Y-100799997D01*
X172610978Y-100550406D01*
X172610976Y-100550396D01*
X172555281Y-100306376D01*
X172463839Y-100073388D01*
X172463830Y-100073369D01*
X172338691Y-99856622D01*
X172338687Y-99856616D01*
X172237456Y-99729675D01*
X171655458Y-100311672D01*
X171542991Y-100179265D01*
X171441074Y-100101790D01*
X172026659Y-99516206D01*
X171999150Y-99490682D01*
X171792334Y-99349678D01*
X171566830Y-99241082D01*
X171327656Y-99167306D01*
X171327646Y-99167304D01*
X171080152Y-99130000D01*
X170829847Y-99130000D01*
X170582353Y-99167304D01*
X170582343Y-99167306D01*
X170343169Y-99241082D01*
X170117662Y-99349679D01*
X169910851Y-99490680D01*
X169883339Y-99516206D01*
X170468096Y-100100963D01*
X170437569Y-100119331D01*
X170303342Y-100246477D01*
X170257280Y-100314413D01*
X169672542Y-99729675D01*
X169571310Y-99856619D01*
X169446164Y-100073379D01*
X169446160Y-100073388D01*
X169354718Y-100306376D01*
X169299023Y-100550396D01*
X169299021Y-100550406D01*
X169280317Y-100799997D01*
X169280317Y-100800002D01*
X167549683Y-100800002D01*
X167549683Y-100799997D01*
X167530978Y-100550406D01*
X167530976Y-100550396D01*
X167475281Y-100306376D01*
X167383839Y-100073388D01*
X167383830Y-100073369D01*
X167258691Y-99856622D01*
X167258687Y-99856616D01*
X167157456Y-99729675D01*
X166575458Y-100311672D01*
X166462991Y-100179265D01*
X166361074Y-100101790D01*
X166946659Y-99516206D01*
X166919150Y-99490682D01*
X166712334Y-99349678D01*
X166486830Y-99241082D01*
X166247656Y-99167306D01*
X166247646Y-99167304D01*
X166000152Y-99130000D01*
X165749847Y-99130000D01*
X165502353Y-99167304D01*
X165502343Y-99167306D01*
X165263169Y-99241082D01*
X165037662Y-99349679D01*
X164830851Y-99490680D01*
X164803339Y-99516206D01*
X165388096Y-100100963D01*
X165357569Y-100119331D01*
X165223342Y-100246477D01*
X165177280Y-100314413D01*
X164592542Y-99729675D01*
X164491310Y-99856619D01*
X164366164Y-100073379D01*
X164366160Y-100073388D01*
X164274718Y-100306376D01*
X164219023Y-100550396D01*
X164219021Y-100550406D01*
X164200317Y-100799997D01*
X164200317Y-100800002D01*
X150447794Y-100800002D01*
X150447794Y-98260003D01*
X167089456Y-98260003D01*
X167109592Y-98490170D01*
X167109593Y-98490177D01*
X167109594Y-98490178D01*
X167169396Y-98713363D01*
X167267045Y-98922772D01*
X167399574Y-99112043D01*
X167562957Y-99275426D01*
X167752228Y-99407955D01*
X167961637Y-99505604D01*
X168184822Y-99565406D01*
X168184826Y-99565406D01*
X168184829Y-99565407D01*
X168414997Y-99585544D01*
X168415000Y-99585544D01*
X168415003Y-99585544D01*
X168645170Y-99565407D01*
X168645171Y-99565406D01*
X168645178Y-99565406D01*
X168868363Y-99505604D01*
X169077772Y-99407955D01*
X169267043Y-99275426D01*
X169430426Y-99112043D01*
X169562955Y-98922772D01*
X169660604Y-98713363D01*
X169720406Y-98490178D01*
X169740544Y-98260000D01*
X169720406Y-98029822D01*
X169660604Y-97806637D01*
X169562955Y-97597228D01*
X169430426Y-97407957D01*
X169267043Y-97244574D01*
X169267039Y-97244571D01*
X169267038Y-97244570D01*
X169160997Y-97170320D01*
X169077772Y-97112045D01*
X168868363Y-97014396D01*
X168645178Y-96954594D01*
X168645177Y-96954593D01*
X168645170Y-96954592D01*
X168415003Y-96934456D01*
X168414997Y-96934456D01*
X168184829Y-96954592D01*
X167961637Y-97014396D01*
X167752229Y-97112044D01*
X167562961Y-97244570D01*
X167399570Y-97407961D01*
X167267044Y-97597229D01*
X167169396Y-97806637D01*
X167109592Y-98029829D01*
X167089456Y-98259996D01*
X167089456Y-98260003D01*
X150447794Y-98260003D01*
X150447794Y-95720002D01*
X164200317Y-95720002D01*
X164219021Y-95969593D01*
X164219023Y-95969603D01*
X164274718Y-96213623D01*
X164366160Y-96446611D01*
X164366169Y-96446630D01*
X164491308Y-96663377D01*
X164491312Y-96663383D01*
X164592542Y-96790323D01*
X165174539Y-96208325D01*
X165287009Y-96340735D01*
X165388923Y-96418208D01*
X164803339Y-97003792D01*
X164830850Y-97029318D01*
X164830854Y-97029321D01*
X165037662Y-97170320D01*
X165263169Y-97278917D01*
X165502343Y-97352693D01*
X165502353Y-97352695D01*
X165749847Y-97389999D01*
X165749856Y-97390000D01*
X166000144Y-97390000D01*
X166000152Y-97389999D01*
X166247646Y-97352695D01*
X166247656Y-97352693D01*
X166486830Y-97278917D01*
X166712338Y-97170320D01*
X166919139Y-97029326D01*
X166919149Y-97029318D01*
X166946660Y-97003792D01*
X166361904Y-96419036D01*
X166392431Y-96400669D01*
X166526658Y-96273523D01*
X166572719Y-96205586D01*
X167157456Y-96790323D01*
X167258681Y-96663391D01*
X167258691Y-96663377D01*
X167383830Y-96446630D01*
X167383839Y-96446611D01*
X167475281Y-96213623D01*
X167530976Y-95969603D01*
X167530978Y-95969593D01*
X167549683Y-95720002D01*
X169280317Y-95720002D01*
X169299021Y-95969593D01*
X169299023Y-95969603D01*
X169354718Y-96213623D01*
X169446160Y-96446611D01*
X169446169Y-96446630D01*
X169571308Y-96663377D01*
X169571312Y-96663383D01*
X169672542Y-96790323D01*
X170254539Y-96208325D01*
X170367009Y-96340735D01*
X170468923Y-96418208D01*
X169883339Y-97003792D01*
X169910850Y-97029318D01*
X169910854Y-97029321D01*
X170117662Y-97170320D01*
X170343169Y-97278917D01*
X170582343Y-97352693D01*
X170582353Y-97352695D01*
X170829847Y-97389999D01*
X170829856Y-97390000D01*
X171080144Y-97390000D01*
X171080152Y-97389999D01*
X171327646Y-97352695D01*
X171327656Y-97352693D01*
X171566830Y-97278917D01*
X171792338Y-97170320D01*
X171999139Y-97029326D01*
X171999149Y-97029318D01*
X172026660Y-97003792D01*
X171441904Y-96419036D01*
X171472431Y-96400669D01*
X171606658Y-96273523D01*
X171652719Y-96205586D01*
X172237456Y-96790323D01*
X172338681Y-96663391D01*
X172338691Y-96663377D01*
X172463830Y-96446630D01*
X172463839Y-96446611D01*
X172555281Y-96213623D01*
X172610976Y-95969603D01*
X172610978Y-95969593D01*
X172629683Y-95720002D01*
X172629683Y-95719997D01*
X172610978Y-95470406D01*
X172610976Y-95470396D01*
X172555281Y-95226376D01*
X172463839Y-94993388D01*
X172463830Y-94993369D01*
X172338691Y-94776622D01*
X172338687Y-94776616D01*
X172237456Y-94649675D01*
X171655458Y-95231672D01*
X171542991Y-95099265D01*
X171441074Y-95021790D01*
X172026659Y-94436206D01*
X171999150Y-94410682D01*
X171792334Y-94269678D01*
X171566830Y-94161082D01*
X171327656Y-94087306D01*
X171327646Y-94087304D01*
X171080152Y-94050000D01*
X170829847Y-94050000D01*
X170582353Y-94087304D01*
X170582343Y-94087306D01*
X170343169Y-94161082D01*
X170117662Y-94269679D01*
X169910851Y-94410680D01*
X169883339Y-94436206D01*
X170468096Y-95020963D01*
X170437569Y-95039331D01*
X170303342Y-95166477D01*
X170257280Y-95234413D01*
X169672542Y-94649675D01*
X169571310Y-94776619D01*
X169446164Y-94993379D01*
X169446160Y-94993388D01*
X169354718Y-95226376D01*
X169299023Y-95470396D01*
X169299021Y-95470406D01*
X169280317Y-95719997D01*
X169280317Y-95720002D01*
X167549683Y-95720002D01*
X167549683Y-95719997D01*
X167530978Y-95470406D01*
X167530976Y-95470396D01*
X167475281Y-95226376D01*
X167383839Y-94993388D01*
X167383830Y-94993369D01*
X167258691Y-94776622D01*
X167258687Y-94776616D01*
X167157456Y-94649675D01*
X166575458Y-95231672D01*
X166462991Y-95099265D01*
X166361074Y-95021790D01*
X166946659Y-94436206D01*
X166919150Y-94410682D01*
X166712334Y-94269678D01*
X166486830Y-94161082D01*
X166247656Y-94087306D01*
X166247646Y-94087304D01*
X166000152Y-94050000D01*
X165749847Y-94050000D01*
X165502353Y-94087304D01*
X165502343Y-94087306D01*
X165263169Y-94161082D01*
X165037662Y-94269679D01*
X164830851Y-94410680D01*
X164803339Y-94436206D01*
X165388096Y-95020963D01*
X165357569Y-95039331D01*
X165223342Y-95166477D01*
X165177280Y-95234413D01*
X164592542Y-94649675D01*
X164491310Y-94776619D01*
X164366164Y-94993379D01*
X164366160Y-94993388D01*
X164274718Y-95226376D01*
X164219023Y-95470396D01*
X164219021Y-95470406D01*
X164200317Y-95719997D01*
X164200317Y-95720002D01*
X150447794Y-95720002D01*
X150447794Y-90662356D01*
X150466701Y-90604165D01*
X150468214Y-90602139D01*
X150499136Y-90561841D01*
X150559644Y-90415762D01*
X150580282Y-90259000D01*
X150559644Y-90102238D01*
X150499137Y-89956161D01*
X150499137Y-89956160D01*
X150402886Y-89830723D01*
X150402885Y-89830722D01*
X150402882Y-89830718D01*
X150402877Y-89830714D01*
X150402876Y-89830713D01*
X150277438Y-89734462D01*
X150131366Y-89673957D01*
X150131358Y-89673955D01*
X149974601Y-89653318D01*
X149974599Y-89653318D01*
X149817841Y-89673955D01*
X149817833Y-89673957D01*
X149671761Y-89734462D01*
X149671760Y-89734462D01*
X149546323Y-89830713D01*
X149546313Y-89830723D01*
X149450062Y-89956160D01*
X149450062Y-89956161D01*
X149389557Y-90102233D01*
X149389555Y-90102241D01*
X149377653Y-90192650D01*
X149351312Y-90247875D01*
X149330682Y-90259075D01*
X149359593Y-90280080D01*
X149377653Y-90325349D01*
X149389555Y-90415758D01*
X149389557Y-90415766D01*
X149450062Y-90561838D01*
X149450062Y-90561839D01*
X149526336Y-90661241D01*
X149546760Y-90718917D01*
X149546794Y-90721508D01*
X149546794Y-103724694D01*
X149527887Y-103782885D01*
X149517798Y-103794698D01*
X146761777Y-106550718D01*
X146707260Y-106578495D01*
X146704696Y-106578867D01*
X146617437Y-106590356D01*
X146471361Y-106650862D01*
X146471360Y-106650862D01*
X146345923Y-106747113D01*
X146345913Y-106747123D01*
X146249662Y-106872560D01*
X146249662Y-106872561D01*
X146189157Y-107018633D01*
X146189155Y-107018641D01*
X146168518Y-107175399D01*
X146168518Y-107175400D01*
X134379500Y-107175400D01*
X134379500Y-102477036D01*
X134939730Y-102477036D01*
X134950616Y-102534571D01*
X134950926Y-102536395D01*
X134959652Y-102594285D01*
X134961840Y-102601379D01*
X134961417Y-102601509D01*
X134962109Y-102603611D01*
X134962526Y-102603466D01*
X134964975Y-102610466D01*
X134992338Y-102662240D01*
X134993172Y-102663892D01*
X135018574Y-102716639D01*
X135022753Y-102722768D01*
X135022389Y-102723015D01*
X135023677Y-102724829D01*
X135024030Y-102724569D01*
X135028434Y-102730536D01*
X135069854Y-102771957D01*
X135071138Y-102773290D01*
X135110944Y-102816192D01*
X135116743Y-102820816D01*
X135116467Y-102821161D01*
X135127600Y-102829702D01*
X136131593Y-103833695D01*
X136135295Y-103837837D01*
X136160122Y-103868969D01*
X136208510Y-103901960D01*
X136210019Y-103903031D01*
X136226994Y-103915559D01*
X136257119Y-103937792D01*
X136257122Y-103937793D01*
X136263678Y-103941258D01*
X136263470Y-103941650D01*
X136265451Y-103942650D01*
X136265644Y-103942252D01*
X136272328Y-103945471D01*
X136321805Y-103960732D01*
X136328293Y-103962733D01*
X136330044Y-103963309D01*
X136385302Y-103982644D01*
X136385302Y-103982645D01*
X136392594Y-103984025D01*
X136392511Y-103984459D01*
X136394694Y-103984829D01*
X136394760Y-103984393D01*
X136402099Y-103985499D01*
X136460643Y-103985499D01*
X136462493Y-103985534D01*
X136485543Y-103986395D01*
X136521011Y-103987723D01*
X136521017Y-103987721D01*
X136528386Y-103986892D01*
X136528435Y-103987330D01*
X136542345Y-103985499D01*
X142347387Y-103985499D01*
X142405578Y-104004406D01*
X142417391Y-104014495D01*
X144581592Y-106178696D01*
X144585294Y-106182838D01*
X144610121Y-106213970D01*
X144658509Y-106246961D01*
X144660018Y-106248032D01*
X144676993Y-106260560D01*
X144707118Y-106282793D01*
X144707121Y-106282794D01*
X144713677Y-106286259D01*
X144713469Y-106286651D01*
X144715450Y-106287651D01*
X144715643Y-106287253D01*
X144722327Y-106290472D01*
X144778318Y-106307742D01*
X144780008Y-106308298D01*
X144835300Y-106327646D01*
X144835301Y-106327646D01*
X144842593Y-106329026D01*
X144842510Y-106329460D01*
X144844697Y-106329831D01*
X144844763Y-106329394D01*
X144852096Y-106330499D01*
X144852098Y-106330500D01*
X144910641Y-106330500D01*
X144912491Y-106330535D01*
X144935554Y-106331397D01*
X144971010Y-106332724D01*
X144971016Y-106332722D01*
X144978385Y-106331893D01*
X144978434Y-106332331D01*
X144992344Y-106330500D01*
X145757068Y-106330500D01*
X145815259Y-106349407D01*
X145817315Y-106350943D01*
X145887159Y-106404536D01*
X146033238Y-106465044D01*
X146150809Y-106480522D01*
X146189999Y-106485682D01*
X146190000Y-106485682D01*
X146190001Y-106485682D01*
X146221352Y-106481554D01*
X146346762Y-106465044D01*
X146492841Y-106404536D01*
X146618282Y-106308282D01*
X146714536Y-106182841D01*
X146775044Y-106036762D01*
X146795682Y-105880000D01*
X146775044Y-105723238D01*
X146714537Y-105577161D01*
X146714537Y-105577160D01*
X146618286Y-105451723D01*
X146618285Y-105451722D01*
X146618282Y-105451718D01*
X146618277Y-105451714D01*
X146618276Y-105451713D01*
X146492838Y-105355462D01*
X146346766Y-105294957D01*
X146346758Y-105294955D01*
X146190001Y-105274318D01*
X146189999Y-105274318D01*
X146033241Y-105294955D01*
X146033233Y-105294957D01*
X145887161Y-105355462D01*
X145848994Y-105384748D01*
X145817334Y-105409042D01*
X145759659Y-105429466D01*
X145757068Y-105429500D01*
X145147611Y-105429500D01*
X145089420Y-105410593D01*
X145077607Y-105400504D01*
X142913401Y-103236297D01*
X142909699Y-103232154D01*
X142884878Y-103201029D01*
X142836493Y-103168040D01*
X142834984Y-103166969D01*
X142787880Y-103132205D01*
X142781321Y-103128739D01*
X142781525Y-103128351D01*
X142779543Y-103127351D01*
X142779354Y-103127745D01*
X142772669Y-103124525D01*
X142716712Y-103107265D01*
X142714954Y-103106687D01*
X142659701Y-103087354D01*
X142659700Y-103087353D01*
X142659698Y-103087353D01*
X142659695Y-103087352D01*
X142652413Y-103085975D01*
X142652494Y-103085543D01*
X142650301Y-103085170D01*
X142650236Y-103085604D01*
X142642902Y-103084499D01*
X142642901Y-103084499D01*
X142584357Y-103084499D01*
X142582507Y-103084464D01*
X142527173Y-103082394D01*
X142523989Y-103082275D01*
X142523988Y-103082275D01*
X142516614Y-103083106D01*
X142516564Y-103082667D01*
X142502655Y-103084499D01*
X136697613Y-103084499D01*
X136639422Y-103065592D01*
X136627609Y-103055503D01*
X135874496Y-102302390D01*
X135846719Y-102247873D01*
X135845500Y-102232386D01*
X135845500Y-100800002D01*
X136260317Y-100800002D01*
X136279021Y-101049593D01*
X136279023Y-101049603D01*
X136334718Y-101293623D01*
X136426160Y-101526611D01*
X136426169Y-101526630D01*
X136551308Y-101743377D01*
X136551312Y-101743383D01*
X136652542Y-101870323D01*
X137234539Y-101288325D01*
X137347009Y-101420735D01*
X137448923Y-101498208D01*
X136863339Y-102083792D01*
X136890850Y-102109318D01*
X136890854Y-102109321D01*
X137097662Y-102250320D01*
X137323169Y-102358917D01*
X137562343Y-102432693D01*
X137562353Y-102432695D01*
X137809847Y-102469999D01*
X137809856Y-102470000D01*
X138060144Y-102470000D01*
X138060152Y-102469999D01*
X138307646Y-102432695D01*
X138307656Y-102432693D01*
X138546830Y-102358917D01*
X138772338Y-102250320D01*
X138979139Y-102109326D01*
X138979149Y-102109318D01*
X139006659Y-102083792D01*
X138421904Y-101499036D01*
X138452431Y-101480669D01*
X138586658Y-101353523D01*
X138632719Y-101285586D01*
X139217456Y-101870323D01*
X139318681Y-101743391D01*
X139318691Y-101743377D01*
X139443830Y-101526630D01*
X139443839Y-101526611D01*
X139535281Y-101293623D01*
X139590976Y-101049603D01*
X139590978Y-101049593D01*
X139609683Y-100800002D01*
X141340317Y-100800002D01*
X141359021Y-101049593D01*
X141359023Y-101049603D01*
X141414718Y-101293623D01*
X141506160Y-101526611D01*
X141506169Y-101526630D01*
X141631308Y-101743377D01*
X141631312Y-101743383D01*
X141732542Y-101870323D01*
X142314539Y-101288325D01*
X142427009Y-101420735D01*
X142528923Y-101498208D01*
X141943339Y-102083792D01*
X141970850Y-102109318D01*
X141970854Y-102109321D01*
X142177662Y-102250320D01*
X142403169Y-102358917D01*
X142642343Y-102432693D01*
X142642353Y-102432695D01*
X142889847Y-102469999D01*
X142889856Y-102470000D01*
X143140144Y-102470000D01*
X143140152Y-102469999D01*
X143387646Y-102432695D01*
X143387656Y-102432693D01*
X143626830Y-102358917D01*
X143852338Y-102250320D01*
X144059139Y-102109326D01*
X144059149Y-102109318D01*
X144086659Y-102083792D01*
X143501904Y-101499036D01*
X143532431Y-101480669D01*
X143666658Y-101353523D01*
X143712719Y-101285586D01*
X144297456Y-101870323D01*
X144398681Y-101743391D01*
X144398691Y-101743377D01*
X144523830Y-101526630D01*
X144523839Y-101526611D01*
X144615281Y-101293623D01*
X144670976Y-101049603D01*
X144670978Y-101049593D01*
X144689683Y-100800002D01*
X144689683Y-100799997D01*
X144670978Y-100550406D01*
X144670976Y-100550396D01*
X144615281Y-100306376D01*
X144523839Y-100073388D01*
X144523830Y-100073369D01*
X144398691Y-99856622D01*
X144398687Y-99856616D01*
X144297456Y-99729675D01*
X143715458Y-100311672D01*
X143602991Y-100179265D01*
X143501074Y-100101790D01*
X144086659Y-99516206D01*
X144059150Y-99490682D01*
X143852334Y-99349678D01*
X143626830Y-99241082D01*
X143387656Y-99167306D01*
X143387646Y-99167304D01*
X143140152Y-99130000D01*
X142889847Y-99130000D01*
X142642353Y-99167304D01*
X142642343Y-99167306D01*
X142403169Y-99241082D01*
X142177662Y-99349679D01*
X141970851Y-99490680D01*
X141943339Y-99516206D01*
X142528096Y-100100963D01*
X142497569Y-100119331D01*
X142363342Y-100246477D01*
X142317280Y-100314413D01*
X141732542Y-99729675D01*
X141631310Y-99856619D01*
X141506164Y-100073379D01*
X141506160Y-100073388D01*
X141414718Y-100306376D01*
X141359023Y-100550396D01*
X141359021Y-100550406D01*
X141340317Y-100799997D01*
X141340317Y-100800002D01*
X139609683Y-100800002D01*
X139609683Y-100799997D01*
X139590978Y-100550406D01*
X139590976Y-100550396D01*
X139535281Y-100306376D01*
X139443839Y-100073388D01*
X139443830Y-100073369D01*
X139318691Y-99856622D01*
X139318687Y-99856616D01*
X139217456Y-99729675D01*
X138635458Y-100311672D01*
X138522991Y-100179265D01*
X138421074Y-100101790D01*
X139006659Y-99516206D01*
X138979150Y-99490682D01*
X138772334Y-99349678D01*
X138546830Y-99241082D01*
X138307656Y-99167306D01*
X138307646Y-99167304D01*
X138060152Y-99130000D01*
X137809847Y-99130000D01*
X137562353Y-99167304D01*
X137562343Y-99167306D01*
X137323169Y-99241082D01*
X137097662Y-99349679D01*
X136890851Y-99490680D01*
X136863339Y-99516206D01*
X137448096Y-100100963D01*
X137417569Y-100119331D01*
X137283342Y-100246477D01*
X137237280Y-100314413D01*
X136652542Y-99729675D01*
X136551310Y-99856619D01*
X136426164Y-100073379D01*
X136426160Y-100073388D01*
X136334718Y-100306376D01*
X136279023Y-100550396D01*
X136279021Y-100550406D01*
X136260317Y-100799997D01*
X136260317Y-100800002D01*
X135845500Y-100800002D01*
X135845500Y-98260003D01*
X139149456Y-98260003D01*
X139169592Y-98490170D01*
X139169593Y-98490177D01*
X139169594Y-98490178D01*
X139229396Y-98713363D01*
X139327045Y-98922772D01*
X139459574Y-99112043D01*
X139622957Y-99275426D01*
X139812228Y-99407955D01*
X140021637Y-99505604D01*
X140244822Y-99565406D01*
X140244826Y-99565406D01*
X140244829Y-99565407D01*
X140474997Y-99585544D01*
X140475000Y-99585544D01*
X140475003Y-99585544D01*
X140705170Y-99565407D01*
X140705171Y-99565406D01*
X140705178Y-99565406D01*
X140928363Y-99505604D01*
X141137772Y-99407955D01*
X141327043Y-99275426D01*
X141490426Y-99112043D01*
X141622955Y-98922772D01*
X141720604Y-98713363D01*
X141780406Y-98490178D01*
X141800544Y-98260000D01*
X141780406Y-98029822D01*
X141720604Y-97806637D01*
X141622955Y-97597228D01*
X141490426Y-97407957D01*
X141327043Y-97244574D01*
X141327039Y-97244571D01*
X141327038Y-97244570D01*
X141220997Y-97170320D01*
X141137772Y-97112045D01*
X140928363Y-97014396D01*
X140705178Y-96954594D01*
X140705177Y-96954593D01*
X140705170Y-96954592D01*
X140475003Y-96934456D01*
X140474997Y-96934456D01*
X140244829Y-96954592D01*
X140021637Y-97014396D01*
X139812229Y-97112044D01*
X139622961Y-97244570D01*
X139459570Y-97407961D01*
X139327044Y-97597229D01*
X139229396Y-97806637D01*
X139169592Y-98029829D01*
X139149456Y-98259996D01*
X139149456Y-98260003D01*
X135845500Y-98260003D01*
X135845500Y-95720002D01*
X136260317Y-95720002D01*
X136279021Y-95969593D01*
X136279023Y-95969603D01*
X136334718Y-96213623D01*
X136426160Y-96446611D01*
X136426169Y-96446630D01*
X136551308Y-96663377D01*
X136551312Y-96663383D01*
X136652542Y-96790323D01*
X137234539Y-96208325D01*
X137347009Y-96340735D01*
X137448923Y-96418208D01*
X136863339Y-97003792D01*
X136890850Y-97029318D01*
X136890854Y-97029321D01*
X137097662Y-97170320D01*
X137323169Y-97278917D01*
X137562343Y-97352693D01*
X137562353Y-97352695D01*
X137809847Y-97389999D01*
X137809856Y-97390000D01*
X138060144Y-97390000D01*
X138060152Y-97389999D01*
X138307646Y-97352695D01*
X138307656Y-97352693D01*
X138546830Y-97278917D01*
X138772338Y-97170320D01*
X138979139Y-97029326D01*
X138979149Y-97029318D01*
X139006659Y-97003792D01*
X138421904Y-96419036D01*
X138452431Y-96400669D01*
X138586658Y-96273523D01*
X138632719Y-96205586D01*
X139217456Y-96790323D01*
X139318681Y-96663391D01*
X139318691Y-96663377D01*
X139443830Y-96446630D01*
X139443839Y-96446611D01*
X139535281Y-96213623D01*
X139590976Y-95969603D01*
X139590978Y-95969593D01*
X139609683Y-95720002D01*
X141340317Y-95720002D01*
X141359021Y-95969593D01*
X141359023Y-95969603D01*
X141414718Y-96213623D01*
X141506160Y-96446611D01*
X141506169Y-96446630D01*
X141631308Y-96663377D01*
X141631312Y-96663383D01*
X141732542Y-96790323D01*
X142314539Y-96208325D01*
X142427009Y-96340735D01*
X142528923Y-96418208D01*
X141943339Y-97003792D01*
X141970850Y-97029318D01*
X141970854Y-97029321D01*
X142177662Y-97170320D01*
X142403169Y-97278917D01*
X142642343Y-97352693D01*
X142642353Y-97352695D01*
X142889847Y-97389999D01*
X142889856Y-97390000D01*
X143140144Y-97390000D01*
X143140152Y-97389999D01*
X143387646Y-97352695D01*
X143387656Y-97352693D01*
X143626830Y-97278917D01*
X143852338Y-97170320D01*
X144059139Y-97029326D01*
X144059149Y-97029318D01*
X144086660Y-97003792D01*
X143501904Y-96419036D01*
X143532431Y-96400669D01*
X143666658Y-96273523D01*
X143712719Y-96205586D01*
X144297456Y-96790323D01*
X144398681Y-96663391D01*
X144398691Y-96663377D01*
X144523830Y-96446630D01*
X144523839Y-96446611D01*
X144615281Y-96213623D01*
X144670976Y-95969603D01*
X144670978Y-95969593D01*
X144689683Y-95720002D01*
X144689683Y-95719997D01*
X144670978Y-95470406D01*
X144670976Y-95470396D01*
X144615281Y-95226376D01*
X144523839Y-94993388D01*
X144523830Y-94993369D01*
X144398691Y-94776622D01*
X144398687Y-94776616D01*
X144297456Y-94649675D01*
X143715458Y-95231672D01*
X143602991Y-95099265D01*
X143501074Y-95021790D01*
X144072865Y-94450000D01*
X148124318Y-94450000D01*
X148144955Y-94606758D01*
X148144957Y-94606766D01*
X148205462Y-94752838D01*
X148205462Y-94752839D01*
X148295363Y-94870000D01*
X148301718Y-94878282D01*
X148427159Y-94974536D01*
X148427160Y-94974536D01*
X148427161Y-94974537D01*
X148573233Y-95035042D01*
X148573238Y-95035044D01*
X148690809Y-95050522D01*
X148729999Y-95055682D01*
X148730000Y-95055682D01*
X148730001Y-95055682D01*
X148761352Y-95051554D01*
X148886762Y-95035044D01*
X149032841Y-94974536D01*
X149158282Y-94878282D01*
X149254536Y-94752841D01*
X149315044Y-94606762D01*
X149335682Y-94450000D01*
X149315044Y-94293238D01*
X149254537Y-94147161D01*
X149254537Y-94147160D01*
X149200958Y-94077334D01*
X149180534Y-94019658D01*
X149180500Y-94017067D01*
X149180500Y-90338271D01*
X149199407Y-90280080D01*
X149227192Y-90259892D01*
X149192497Y-90226967D01*
X149180500Y-90179728D01*
X149180500Y-88327611D01*
X149199407Y-88269420D01*
X149209490Y-88257613D01*
X155995608Y-81471495D01*
X156050125Y-81443719D01*
X156065612Y-81442500D01*
X157131747Y-81442500D01*
X157131748Y-81442500D01*
X157190231Y-81430867D01*
X157256552Y-81386552D01*
X157300867Y-81320231D01*
X157312500Y-81261748D01*
X157312500Y-81261746D01*
X157927500Y-81261746D01*
X157927501Y-81261758D01*
X157939132Y-81320227D01*
X157939134Y-81320233D01*
X157978682Y-81379420D01*
X157983448Y-81386552D01*
X158049769Y-81430867D01*
X158094231Y-81439711D01*
X158108241Y-81442498D01*
X158108246Y-81442498D01*
X158108252Y-81442500D01*
X158340500Y-81442500D01*
X158398691Y-81461407D01*
X158434655Y-81510907D01*
X158439500Y-81541500D01*
X158439500Y-94017067D01*
X158420593Y-94075258D01*
X158419042Y-94077334D01*
X158365462Y-94147160D01*
X158365462Y-94147161D01*
X158304957Y-94293233D01*
X158304955Y-94293241D01*
X158284318Y-94449999D01*
X158284318Y-94450000D01*
X158304955Y-94606758D01*
X158304957Y-94606766D01*
X158365462Y-94752838D01*
X158365462Y-94752839D01*
X158455363Y-94870000D01*
X158461718Y-94878282D01*
X158587159Y-94974536D01*
X158587160Y-94974536D01*
X158587161Y-94974537D01*
X158733233Y-95035042D01*
X158733238Y-95035044D01*
X158850809Y-95050522D01*
X158889999Y-95055682D01*
X158890000Y-95055682D01*
X158890001Y-95055682D01*
X158921352Y-95051554D01*
X159046762Y-95035044D01*
X159192841Y-94974536D01*
X159318282Y-94878282D01*
X159414536Y-94752841D01*
X159475044Y-94606762D01*
X159495682Y-94450000D01*
X159475044Y-94293238D01*
X159414537Y-94147161D01*
X159414537Y-94147160D01*
X159360958Y-94077334D01*
X159340534Y-94019658D01*
X159340500Y-94017067D01*
X159340500Y-89370002D01*
X164200317Y-89370002D01*
X164219021Y-89619593D01*
X164219023Y-89619603D01*
X164274718Y-89863623D01*
X164366160Y-90096611D01*
X164366169Y-90096630D01*
X164491308Y-90313377D01*
X164491312Y-90313383D01*
X164592542Y-90440323D01*
X165174539Y-89858325D01*
X165287009Y-89990735D01*
X165388923Y-90068208D01*
X164803339Y-90653792D01*
X164830850Y-90679318D01*
X164830854Y-90679321D01*
X165037662Y-90820320D01*
X165263169Y-90928917D01*
X165502343Y-91002693D01*
X165502353Y-91002695D01*
X165749847Y-91039999D01*
X165749856Y-91040000D01*
X166000144Y-91040000D01*
X166000152Y-91039999D01*
X166247646Y-91002695D01*
X166247656Y-91002693D01*
X166486830Y-90928917D01*
X166712338Y-90820320D01*
X166919139Y-90679326D01*
X166919149Y-90679318D01*
X166946660Y-90653792D01*
X166361904Y-90069036D01*
X166392431Y-90050669D01*
X166526658Y-89923523D01*
X166572719Y-89855586D01*
X167157456Y-90440323D01*
X167258681Y-90313391D01*
X167258691Y-90313377D01*
X167383830Y-90096630D01*
X167383839Y-90096611D01*
X167475281Y-89863623D01*
X167530976Y-89619603D01*
X167530978Y-89619593D01*
X167549683Y-89370002D01*
X169280317Y-89370002D01*
X169299021Y-89619593D01*
X169299023Y-89619603D01*
X169354718Y-89863623D01*
X169446160Y-90096611D01*
X169446169Y-90096630D01*
X169571308Y-90313377D01*
X169571312Y-90313383D01*
X169672542Y-90440323D01*
X170254539Y-89858325D01*
X170367009Y-89990735D01*
X170468923Y-90068208D01*
X169883339Y-90653792D01*
X169910850Y-90679318D01*
X169910854Y-90679321D01*
X170117662Y-90820320D01*
X170343169Y-90928917D01*
X170582343Y-91002693D01*
X170582353Y-91002695D01*
X170829847Y-91039999D01*
X170829856Y-91040000D01*
X171080144Y-91040000D01*
X171080152Y-91039999D01*
X171327646Y-91002695D01*
X171327656Y-91002693D01*
X171566830Y-90928917D01*
X171792338Y-90820320D01*
X171999139Y-90679326D01*
X171999149Y-90679318D01*
X172026660Y-90653792D01*
X171441904Y-90069036D01*
X171472431Y-90050669D01*
X171606658Y-89923523D01*
X171652719Y-89855586D01*
X172237456Y-90440323D01*
X172338681Y-90313391D01*
X172338691Y-90313377D01*
X172463830Y-90096630D01*
X172463839Y-90096611D01*
X172555281Y-89863623D01*
X172610976Y-89619603D01*
X172610978Y-89619593D01*
X172629683Y-89370002D01*
X172629683Y-89369997D01*
X172610978Y-89120406D01*
X172610976Y-89120396D01*
X172555281Y-88876376D01*
X172463839Y-88643388D01*
X172463830Y-88643369D01*
X172338691Y-88426622D01*
X172338687Y-88426616D01*
X172237456Y-88299675D01*
X171655458Y-88881672D01*
X171542991Y-88749265D01*
X171441074Y-88671790D01*
X172026659Y-88086206D01*
X171999150Y-88060682D01*
X171792334Y-87919678D01*
X171566830Y-87811082D01*
X171327656Y-87737306D01*
X171327646Y-87737304D01*
X171080152Y-87700000D01*
X170829847Y-87700000D01*
X170582353Y-87737304D01*
X170582343Y-87737306D01*
X170343169Y-87811082D01*
X170117662Y-87919679D01*
X169910851Y-88060680D01*
X169883339Y-88086206D01*
X170468096Y-88670963D01*
X170437569Y-88689331D01*
X170303342Y-88816477D01*
X170257280Y-88884413D01*
X169672542Y-88299675D01*
X169571310Y-88426619D01*
X169446164Y-88643379D01*
X169446160Y-88643388D01*
X169354718Y-88876376D01*
X169299023Y-89120396D01*
X169299021Y-89120406D01*
X169280317Y-89369997D01*
X169280317Y-89370002D01*
X167549683Y-89370002D01*
X167549683Y-89369997D01*
X167530978Y-89120406D01*
X167530976Y-89120396D01*
X167475281Y-88876376D01*
X167383839Y-88643388D01*
X167383830Y-88643369D01*
X167258691Y-88426622D01*
X167258687Y-88426616D01*
X167157456Y-88299675D01*
X166575458Y-88881672D01*
X166462991Y-88749265D01*
X166361074Y-88671790D01*
X166946659Y-88086206D01*
X166919150Y-88060682D01*
X166712334Y-87919678D01*
X166486830Y-87811082D01*
X166247656Y-87737306D01*
X166247646Y-87737304D01*
X166000152Y-87700000D01*
X165749847Y-87700000D01*
X165502353Y-87737304D01*
X165502343Y-87737306D01*
X165263169Y-87811082D01*
X165037662Y-87919679D01*
X164830851Y-88060680D01*
X164803339Y-88086206D01*
X165388096Y-88670963D01*
X165357569Y-88689331D01*
X165223342Y-88816477D01*
X165177280Y-88884413D01*
X164592542Y-88299675D01*
X164491310Y-88426619D01*
X164366164Y-88643379D01*
X164366160Y-88643388D01*
X164274718Y-88876376D01*
X164219023Y-89120396D01*
X164219021Y-89120406D01*
X164200317Y-89369997D01*
X164200317Y-89370002D01*
X159340500Y-89370002D01*
X159340500Y-86830003D01*
X167089456Y-86830003D01*
X167109592Y-87060170D01*
X167109593Y-87060177D01*
X167109594Y-87060178D01*
X167169396Y-87283363D01*
X167267045Y-87492772D01*
X167399574Y-87682043D01*
X167562957Y-87845426D01*
X167752228Y-87977955D01*
X167961637Y-88075604D01*
X168184822Y-88135406D01*
X168184826Y-88135406D01*
X168184829Y-88135407D01*
X168414997Y-88155544D01*
X168415000Y-88155544D01*
X168415003Y-88155544D01*
X168645170Y-88135407D01*
X168645171Y-88135406D01*
X168645178Y-88135406D01*
X168868363Y-88075604D01*
X169077772Y-87977955D01*
X169267043Y-87845426D01*
X169430426Y-87682043D01*
X169562955Y-87492772D01*
X169660604Y-87283363D01*
X169720406Y-87060178D01*
X169740544Y-86830000D01*
X169720406Y-86599822D01*
X169660604Y-86376637D01*
X169562955Y-86167228D01*
X169430426Y-85977957D01*
X169267043Y-85814574D01*
X169267039Y-85814571D01*
X169267038Y-85814570D01*
X169160997Y-85740320D01*
X169077772Y-85682045D01*
X168868363Y-85584396D01*
X168645178Y-85524594D01*
X168645177Y-85524593D01*
X168645170Y-85524592D01*
X168415003Y-85504456D01*
X168414997Y-85504456D01*
X168184829Y-85524592D01*
X167961637Y-85584396D01*
X167752229Y-85682044D01*
X167562961Y-85814570D01*
X167399570Y-85977961D01*
X167267044Y-86167229D01*
X167169396Y-86376637D01*
X167109592Y-86599829D01*
X167089456Y-86829996D01*
X167089456Y-86830003D01*
X159340500Y-86830003D01*
X159340500Y-84290002D01*
X164200317Y-84290002D01*
X164219021Y-84539593D01*
X164219023Y-84539603D01*
X164274718Y-84783623D01*
X164366160Y-85016611D01*
X164366169Y-85016630D01*
X164491308Y-85233377D01*
X164491312Y-85233383D01*
X164592542Y-85360323D01*
X165174539Y-84778325D01*
X165287009Y-84910735D01*
X165388923Y-84988208D01*
X164803339Y-85573792D01*
X164830850Y-85599318D01*
X164830854Y-85599321D01*
X165037662Y-85740320D01*
X165263169Y-85848917D01*
X165502343Y-85922693D01*
X165502353Y-85922695D01*
X165749847Y-85959999D01*
X165749856Y-85960000D01*
X166000144Y-85960000D01*
X166000152Y-85959999D01*
X166247646Y-85922695D01*
X166247656Y-85922693D01*
X166486830Y-85848917D01*
X166712338Y-85740320D01*
X166919139Y-85599326D01*
X166919149Y-85599318D01*
X166946659Y-85573792D01*
X166361904Y-84989036D01*
X166392431Y-84970669D01*
X166526658Y-84843523D01*
X166572719Y-84775586D01*
X167157456Y-85360323D01*
X167258681Y-85233391D01*
X167258691Y-85233377D01*
X167383830Y-85016630D01*
X167383839Y-85016611D01*
X167475281Y-84783623D01*
X167530976Y-84539603D01*
X167530978Y-84539593D01*
X167549683Y-84290002D01*
X169280317Y-84290002D01*
X169299021Y-84539593D01*
X169299023Y-84539603D01*
X169354718Y-84783623D01*
X169446160Y-85016611D01*
X169446169Y-85016630D01*
X169571308Y-85233377D01*
X169571312Y-85233383D01*
X169672542Y-85360323D01*
X170254539Y-84778325D01*
X170367009Y-84910735D01*
X170468923Y-84988208D01*
X169883339Y-85573792D01*
X169910850Y-85599318D01*
X169910854Y-85599321D01*
X170117662Y-85740320D01*
X170343169Y-85848917D01*
X170582343Y-85922693D01*
X170582353Y-85922695D01*
X170829847Y-85959999D01*
X170829856Y-85960000D01*
X171080144Y-85960000D01*
X171080152Y-85959999D01*
X171327646Y-85922695D01*
X171327656Y-85922693D01*
X171566830Y-85848917D01*
X171792338Y-85740320D01*
X171999139Y-85599326D01*
X171999149Y-85599318D01*
X172026659Y-85573792D01*
X171441904Y-84989036D01*
X171472431Y-84970669D01*
X171606658Y-84843523D01*
X171652719Y-84775586D01*
X172237456Y-85360323D01*
X172338681Y-85233391D01*
X172338691Y-85233377D01*
X172463830Y-85016630D01*
X172463839Y-85016611D01*
X172555281Y-84783623D01*
X172610976Y-84539603D01*
X172610978Y-84539593D01*
X172629683Y-84290002D01*
X172629683Y-84289997D01*
X172610978Y-84040406D01*
X172610976Y-84040396D01*
X172555281Y-83796376D01*
X172463839Y-83563388D01*
X172463830Y-83563369D01*
X172338691Y-83346622D01*
X172338687Y-83346616D01*
X172237456Y-83219675D01*
X171655458Y-83801672D01*
X171542991Y-83669265D01*
X171441074Y-83591790D01*
X172026659Y-83006206D01*
X171999150Y-82980682D01*
X171792334Y-82839678D01*
X171566830Y-82731082D01*
X171327656Y-82657306D01*
X171327646Y-82657304D01*
X171080152Y-82620000D01*
X170829847Y-82620000D01*
X170582353Y-82657304D01*
X170582343Y-82657306D01*
X170343169Y-82731082D01*
X170117662Y-82839679D01*
X169910851Y-82980680D01*
X169883339Y-83006206D01*
X170468096Y-83590963D01*
X170437569Y-83609331D01*
X170303342Y-83736477D01*
X170257280Y-83804413D01*
X169672542Y-83219675D01*
X169571310Y-83346619D01*
X169446164Y-83563379D01*
X169446160Y-83563388D01*
X169354718Y-83796376D01*
X169299023Y-84040396D01*
X169299021Y-84040406D01*
X169280317Y-84289997D01*
X169280317Y-84290002D01*
X167549683Y-84290002D01*
X167549683Y-84289997D01*
X167530978Y-84040406D01*
X167530976Y-84040396D01*
X167475281Y-83796376D01*
X167383839Y-83563388D01*
X167383830Y-83563369D01*
X167258691Y-83346622D01*
X167258687Y-83346616D01*
X167157456Y-83219675D01*
X166575458Y-83801672D01*
X166462991Y-83669265D01*
X166361074Y-83591790D01*
X166946659Y-83006206D01*
X166919150Y-82980682D01*
X166712334Y-82839678D01*
X166486830Y-82731082D01*
X166247656Y-82657306D01*
X166247646Y-82657304D01*
X166000152Y-82620000D01*
X165749847Y-82620000D01*
X165502353Y-82657304D01*
X165502343Y-82657306D01*
X165263169Y-82731082D01*
X165037662Y-82839679D01*
X164830851Y-82980680D01*
X164803339Y-83006206D01*
X165388096Y-83590963D01*
X165357569Y-83609331D01*
X165223342Y-83736477D01*
X165177280Y-83804413D01*
X164592542Y-83219675D01*
X164491310Y-83346619D01*
X164366164Y-83563379D01*
X164366160Y-83563388D01*
X164274718Y-83796376D01*
X164219023Y-84040396D01*
X164219021Y-84040406D01*
X164200317Y-84289997D01*
X164200317Y-84290002D01*
X159340500Y-84290002D01*
X159340500Y-81541500D01*
X159359407Y-81483309D01*
X159408907Y-81447345D01*
X159439500Y-81442500D01*
X159671747Y-81442500D01*
X159671748Y-81442500D01*
X159730231Y-81430867D01*
X159796552Y-81386552D01*
X159840867Y-81320231D01*
X159852500Y-81261748D01*
X159852500Y-81261746D01*
X160467500Y-81261746D01*
X160467501Y-81261758D01*
X160479132Y-81320227D01*
X160479134Y-81320233D01*
X160518682Y-81379420D01*
X160523448Y-81386552D01*
X160589769Y-81430867D01*
X160634231Y-81439711D01*
X160648241Y-81442498D01*
X160648246Y-81442498D01*
X160648252Y-81442500D01*
X160648253Y-81442500D01*
X162211747Y-81442500D01*
X162211748Y-81442500D01*
X162270231Y-81430867D01*
X162336552Y-81386552D01*
X162380867Y-81320231D01*
X162392500Y-81261748D01*
X162392500Y-79698252D01*
X162380867Y-79639769D01*
X162336552Y-79573448D01*
X162326148Y-79566496D01*
X162270233Y-79529134D01*
X162270231Y-79529133D01*
X162270228Y-79529132D01*
X162270227Y-79529132D01*
X162211758Y-79517501D01*
X162211748Y-79517500D01*
X160648252Y-79517500D01*
X160648251Y-79517500D01*
X160648241Y-79517501D01*
X160589772Y-79529132D01*
X160589766Y-79529134D01*
X160523451Y-79573445D01*
X160523445Y-79573451D01*
X160479134Y-79639766D01*
X160479132Y-79639772D01*
X160467501Y-79698241D01*
X160467500Y-79698253D01*
X160467500Y-81261746D01*
X159852500Y-81261746D01*
X159852500Y-79698252D01*
X159840867Y-79639769D01*
X159796552Y-79573448D01*
X159786148Y-79566496D01*
X159730233Y-79529134D01*
X159730231Y-79529133D01*
X159730228Y-79529132D01*
X159730227Y-79529132D01*
X159671758Y-79517501D01*
X159671748Y-79517500D01*
X158108252Y-79517500D01*
X158108251Y-79517500D01*
X158108241Y-79517501D01*
X158049772Y-79529132D01*
X158049766Y-79529134D01*
X157983451Y-79573445D01*
X157983445Y-79573451D01*
X157939134Y-79639766D01*
X157939132Y-79639772D01*
X157927501Y-79698241D01*
X157927500Y-79698253D01*
X157927500Y-81261746D01*
X157312500Y-81261746D01*
X157312500Y-79698252D01*
X157300867Y-79639769D01*
X157256552Y-79573448D01*
X157246148Y-79566496D01*
X157190233Y-79529134D01*
X157190231Y-79529133D01*
X157190228Y-79529132D01*
X157190227Y-79529132D01*
X157131758Y-79517501D01*
X157131748Y-79517500D01*
X155568252Y-79517500D01*
X155568251Y-79517500D01*
X155568241Y-79517501D01*
X155509772Y-79529132D01*
X155509766Y-79529134D01*
X155443451Y-79573445D01*
X155443445Y-79573451D01*
X155399134Y-79639766D01*
X155399132Y-79639772D01*
X155387501Y-79698241D01*
X155387500Y-79698253D01*
X155387500Y-80764388D01*
X155368593Y-80822579D01*
X155358504Y-80834392D01*
X154941504Y-81251392D01*
X154886987Y-81279169D01*
X154826555Y-81269598D01*
X154783290Y-81226333D01*
X154772500Y-81181388D01*
X154772500Y-79698253D01*
X154772498Y-79698241D01*
X154769711Y-79684231D01*
X154760867Y-79639769D01*
X154716552Y-79573448D01*
X154706148Y-79566496D01*
X154650233Y-79529134D01*
X154650231Y-79529133D01*
X154650228Y-79529132D01*
X154650227Y-79529132D01*
X154591758Y-79517501D01*
X154591748Y-79517500D01*
X153028252Y-79517500D01*
X153028251Y-79517500D01*
X153028241Y-79517501D01*
X152969772Y-79529132D01*
X152969766Y-79529134D01*
X152903451Y-79573445D01*
X152903445Y-79573451D01*
X152859134Y-79639766D01*
X152859132Y-79639772D01*
X152847501Y-79698241D01*
X152847500Y-79698253D01*
X152847500Y-81261746D01*
X152847501Y-81261758D01*
X152859132Y-81320227D01*
X152859134Y-81320233D01*
X152898682Y-81379420D01*
X152903448Y-81386552D01*
X152969769Y-81430867D01*
X153014231Y-81439711D01*
X153028241Y-81442498D01*
X153028246Y-81442498D01*
X153028252Y-81442500D01*
X153028253Y-81442500D01*
X154511388Y-81442500D01*
X154569579Y-81461407D01*
X154605543Y-81510907D01*
X154605543Y-81572093D01*
X154581392Y-81611504D01*
X148431301Y-87761593D01*
X148427160Y-87765294D01*
X148396030Y-87790119D01*
X148396029Y-87790120D01*
X148363035Y-87838512D01*
X148361965Y-87840020D01*
X148327207Y-87887116D01*
X148323742Y-87893674D01*
X148323353Y-87893468D01*
X148322350Y-87895455D01*
X148322746Y-87895646D01*
X148319526Y-87902331D01*
X148302264Y-87958294D01*
X148301686Y-87960050D01*
X148282355Y-88015295D01*
X148280976Y-88022587D01*
X148280544Y-88022505D01*
X148280171Y-88024700D01*
X148280605Y-88024766D01*
X148279500Y-88032099D01*
X148279500Y-88090641D01*
X148279465Y-88092491D01*
X148277276Y-88151010D01*
X148278107Y-88158385D01*
X148277668Y-88158434D01*
X148279500Y-88172344D01*
X148279500Y-94017067D01*
X148260593Y-94075258D01*
X148259042Y-94077334D01*
X148205462Y-94147160D01*
X148205462Y-94147161D01*
X148144957Y-94293233D01*
X148144955Y-94293241D01*
X148124318Y-94449999D01*
X148124318Y-94450000D01*
X144072865Y-94450000D01*
X144086659Y-94436206D01*
X144059150Y-94410682D01*
X143852334Y-94269678D01*
X143626830Y-94161082D01*
X143387656Y-94087306D01*
X143387646Y-94087304D01*
X143140152Y-94050000D01*
X142889847Y-94050000D01*
X142642353Y-94087304D01*
X142642343Y-94087306D01*
X142403169Y-94161082D01*
X142177662Y-94269679D01*
X141970851Y-94410680D01*
X141943339Y-94436206D01*
X142528096Y-95020963D01*
X142497569Y-95039331D01*
X142363342Y-95166477D01*
X142317280Y-95234413D01*
X141732542Y-94649675D01*
X141631310Y-94776619D01*
X141506164Y-94993379D01*
X141506160Y-94993388D01*
X141414718Y-95226376D01*
X141359023Y-95470396D01*
X141359021Y-95470406D01*
X141340317Y-95719997D01*
X141340317Y-95720002D01*
X139609683Y-95720002D01*
X139609683Y-95719997D01*
X139590978Y-95470406D01*
X139590976Y-95470396D01*
X139535281Y-95226376D01*
X139443839Y-94993388D01*
X139443830Y-94993369D01*
X139318691Y-94776622D01*
X139318687Y-94776616D01*
X139217456Y-94649675D01*
X138635458Y-95231672D01*
X138522991Y-95099265D01*
X138421074Y-95021790D01*
X139006659Y-94436206D01*
X138979150Y-94410682D01*
X138772334Y-94269678D01*
X138546830Y-94161082D01*
X138307656Y-94087306D01*
X138307646Y-94087304D01*
X138060152Y-94050000D01*
X137809847Y-94050000D01*
X137562353Y-94087304D01*
X137562343Y-94087306D01*
X137323169Y-94161082D01*
X137097662Y-94269679D01*
X136890851Y-94410680D01*
X136863339Y-94436206D01*
X137448096Y-95020963D01*
X137417569Y-95039331D01*
X137283342Y-95166477D01*
X137237280Y-95234413D01*
X136652542Y-94649675D01*
X136551310Y-94776619D01*
X136426164Y-94993379D01*
X136426160Y-94993388D01*
X136334718Y-95226376D01*
X136279023Y-95470396D01*
X136279021Y-95470406D01*
X136260317Y-95719997D01*
X136260317Y-95720002D01*
X135845500Y-95720002D01*
X135845500Y-89370002D01*
X136260317Y-89370002D01*
X136279021Y-89619593D01*
X136279023Y-89619603D01*
X136334718Y-89863623D01*
X136426160Y-90096611D01*
X136426169Y-90096630D01*
X136551308Y-90313377D01*
X136551312Y-90313383D01*
X136652542Y-90440323D01*
X137234539Y-89858325D01*
X137347009Y-89990735D01*
X137448923Y-90068208D01*
X136863339Y-90653792D01*
X136890850Y-90679318D01*
X136890854Y-90679321D01*
X137097662Y-90820320D01*
X137323169Y-90928917D01*
X137562343Y-91002693D01*
X137562353Y-91002695D01*
X137809847Y-91039999D01*
X137809856Y-91040000D01*
X138060144Y-91040000D01*
X138060152Y-91039999D01*
X138307646Y-91002695D01*
X138307656Y-91002693D01*
X138546830Y-90928917D01*
X138772338Y-90820320D01*
X138979139Y-90679326D01*
X138979149Y-90679318D01*
X139006660Y-90653792D01*
X138421904Y-90069036D01*
X138452431Y-90050669D01*
X138586658Y-89923523D01*
X138632719Y-89855586D01*
X139217456Y-90440323D01*
X139318681Y-90313391D01*
X139318691Y-90313377D01*
X139443830Y-90096630D01*
X139443839Y-90096611D01*
X139535281Y-89863623D01*
X139590976Y-89619603D01*
X139590978Y-89619593D01*
X139609683Y-89370002D01*
X141340317Y-89370002D01*
X141359021Y-89619593D01*
X141359023Y-89619603D01*
X141414718Y-89863623D01*
X141506160Y-90096611D01*
X141506169Y-90096630D01*
X141631308Y-90313377D01*
X141631312Y-90313383D01*
X141732542Y-90440323D01*
X142314539Y-89858325D01*
X142427009Y-89990735D01*
X142528923Y-90068208D01*
X141943339Y-90653792D01*
X141970850Y-90679318D01*
X141970854Y-90679321D01*
X142177662Y-90820320D01*
X142403169Y-90928917D01*
X142642343Y-91002693D01*
X142642353Y-91002695D01*
X142889847Y-91039999D01*
X142889856Y-91040000D01*
X143140144Y-91040000D01*
X143140152Y-91039999D01*
X143387646Y-91002695D01*
X143387656Y-91002693D01*
X143626830Y-90928917D01*
X143852338Y-90820320D01*
X144059139Y-90679326D01*
X144059149Y-90679318D01*
X144086659Y-90653792D01*
X143501904Y-90069036D01*
X143532431Y-90050669D01*
X143666658Y-89923523D01*
X143712719Y-89855586D01*
X144297456Y-90440323D01*
X144398681Y-90313391D01*
X144398691Y-90313377D01*
X144523830Y-90096630D01*
X144523839Y-90096611D01*
X144615281Y-89863623D01*
X144670976Y-89619603D01*
X144670978Y-89619593D01*
X144689683Y-89370002D01*
X144689683Y-89369997D01*
X144670978Y-89120406D01*
X144670976Y-89120396D01*
X144615281Y-88876376D01*
X144523839Y-88643388D01*
X144523830Y-88643369D01*
X144398691Y-88426622D01*
X144398687Y-88426616D01*
X144297456Y-88299675D01*
X143715458Y-88881672D01*
X143602991Y-88749265D01*
X143501074Y-88671790D01*
X144086659Y-88086206D01*
X144059150Y-88060682D01*
X143852334Y-87919678D01*
X143626830Y-87811082D01*
X143387656Y-87737306D01*
X143387646Y-87737304D01*
X143140152Y-87700000D01*
X142889847Y-87700000D01*
X142642353Y-87737304D01*
X142642343Y-87737306D01*
X142403169Y-87811082D01*
X142177662Y-87919679D01*
X141970851Y-88060680D01*
X141943339Y-88086206D01*
X142528096Y-88670963D01*
X142497569Y-88689331D01*
X142363342Y-88816477D01*
X142317280Y-88884413D01*
X141732542Y-88299675D01*
X141631310Y-88426619D01*
X141506164Y-88643379D01*
X141506160Y-88643388D01*
X141414718Y-88876376D01*
X141359023Y-89120396D01*
X141359021Y-89120406D01*
X141340317Y-89369997D01*
X141340317Y-89370002D01*
X139609683Y-89370002D01*
X139609683Y-89369997D01*
X139590978Y-89120406D01*
X139590976Y-89120396D01*
X139535281Y-88876376D01*
X139443839Y-88643388D01*
X139443830Y-88643369D01*
X139318691Y-88426622D01*
X139318687Y-88426616D01*
X139217456Y-88299675D01*
X138635458Y-88881672D01*
X138522991Y-88749265D01*
X138421074Y-88671790D01*
X139006659Y-88086206D01*
X138979150Y-88060682D01*
X138772334Y-87919678D01*
X138546830Y-87811082D01*
X138307656Y-87737306D01*
X138307646Y-87737304D01*
X138060152Y-87700000D01*
X137809847Y-87700000D01*
X137562353Y-87737304D01*
X137562343Y-87737306D01*
X137323169Y-87811082D01*
X137097662Y-87919679D01*
X136890851Y-88060680D01*
X136863339Y-88086206D01*
X137448096Y-88670963D01*
X137417569Y-88689331D01*
X137283342Y-88816477D01*
X137237280Y-88884413D01*
X136652542Y-88299675D01*
X136551310Y-88426619D01*
X136426164Y-88643379D01*
X136426160Y-88643388D01*
X136334718Y-88876376D01*
X136279023Y-89120396D01*
X136279021Y-89120406D01*
X136260317Y-89369997D01*
X136260317Y-89370002D01*
X135845500Y-89370002D01*
X135845500Y-86830003D01*
X139149456Y-86830003D01*
X139169592Y-87060170D01*
X139169593Y-87060177D01*
X139169594Y-87060178D01*
X139229396Y-87283363D01*
X139327045Y-87492772D01*
X139459574Y-87682043D01*
X139622957Y-87845426D01*
X139812228Y-87977955D01*
X140021637Y-88075604D01*
X140244822Y-88135406D01*
X140244826Y-88135406D01*
X140244829Y-88135407D01*
X140474997Y-88155544D01*
X140475000Y-88155544D01*
X140475003Y-88155544D01*
X140705170Y-88135407D01*
X140705171Y-88135406D01*
X140705178Y-88135406D01*
X140928363Y-88075604D01*
X141137772Y-87977955D01*
X141327043Y-87845426D01*
X141490426Y-87682043D01*
X141622955Y-87492772D01*
X141720604Y-87283363D01*
X141780406Y-87060178D01*
X141800544Y-86830000D01*
X141780406Y-86599822D01*
X141720604Y-86376637D01*
X141622955Y-86167228D01*
X141490426Y-85977957D01*
X141327043Y-85814574D01*
X141327039Y-85814571D01*
X141327038Y-85814570D01*
X141220997Y-85740320D01*
X141137772Y-85682045D01*
X140928363Y-85584396D01*
X140705178Y-85524594D01*
X140705177Y-85524593D01*
X140705170Y-85524592D01*
X140475003Y-85504456D01*
X140474997Y-85504456D01*
X140244829Y-85524592D01*
X140021637Y-85584396D01*
X139812229Y-85682044D01*
X139622961Y-85814570D01*
X139459570Y-85977961D01*
X139327044Y-86167229D01*
X139229396Y-86376637D01*
X139169592Y-86599829D01*
X139149456Y-86829996D01*
X139149456Y-86830003D01*
X135845500Y-86830003D01*
X135845500Y-84290002D01*
X136260317Y-84290002D01*
X136279021Y-84539593D01*
X136279023Y-84539603D01*
X136334718Y-84783623D01*
X136426160Y-85016611D01*
X136426169Y-85016630D01*
X136551308Y-85233377D01*
X136551312Y-85233383D01*
X136652542Y-85360323D01*
X137234539Y-84778325D01*
X137347009Y-84910735D01*
X137448923Y-84988208D01*
X136863339Y-85573792D01*
X136890850Y-85599318D01*
X136890854Y-85599321D01*
X137097662Y-85740320D01*
X137323169Y-85848917D01*
X137562343Y-85922693D01*
X137562353Y-85922695D01*
X137809847Y-85959999D01*
X137809856Y-85960000D01*
X138060144Y-85960000D01*
X138060152Y-85959999D01*
X138307646Y-85922695D01*
X138307656Y-85922693D01*
X138546830Y-85848917D01*
X138772338Y-85740320D01*
X138979139Y-85599326D01*
X138979149Y-85599318D01*
X139006659Y-85573792D01*
X138421904Y-84989036D01*
X138452431Y-84970669D01*
X138586658Y-84843523D01*
X138632719Y-84775586D01*
X139217456Y-85360323D01*
X139318681Y-85233391D01*
X139318691Y-85233377D01*
X139443830Y-85016630D01*
X139443839Y-85016611D01*
X139535281Y-84783623D01*
X139590976Y-84539603D01*
X139590978Y-84539593D01*
X139609683Y-84290002D01*
X141340317Y-84290002D01*
X141359021Y-84539593D01*
X141359023Y-84539603D01*
X141414718Y-84783623D01*
X141506160Y-85016611D01*
X141506169Y-85016630D01*
X141631308Y-85233377D01*
X141631312Y-85233383D01*
X141732542Y-85360323D01*
X142314539Y-84778325D01*
X142427009Y-84910735D01*
X142528923Y-84988208D01*
X141943339Y-85573792D01*
X141970850Y-85599318D01*
X141970854Y-85599321D01*
X142177662Y-85740320D01*
X142403169Y-85848917D01*
X142642343Y-85922693D01*
X142642353Y-85922695D01*
X142889847Y-85959999D01*
X142889856Y-85960000D01*
X143140144Y-85960000D01*
X143140152Y-85959999D01*
X143387646Y-85922695D01*
X143387656Y-85922693D01*
X143626830Y-85848917D01*
X143852338Y-85740320D01*
X144059139Y-85599326D01*
X144059149Y-85599318D01*
X144086660Y-85573792D01*
X143501904Y-84989036D01*
X143532431Y-84970669D01*
X143666658Y-84843523D01*
X143712719Y-84775586D01*
X144297456Y-85360323D01*
X144398681Y-85233391D01*
X144398691Y-85233377D01*
X144523830Y-85016630D01*
X144523839Y-85016611D01*
X144615281Y-84783623D01*
X144670976Y-84539603D01*
X144670978Y-84539593D01*
X144689683Y-84290002D01*
X144689683Y-84289997D01*
X144670978Y-84040406D01*
X144670976Y-84040396D01*
X144615281Y-83796376D01*
X144523839Y-83563388D01*
X144523830Y-83563369D01*
X144398691Y-83346622D01*
X144398687Y-83346616D01*
X144297456Y-83219675D01*
X143715458Y-83801672D01*
X143602991Y-83669265D01*
X143501074Y-83591790D01*
X144086659Y-83006206D01*
X144059150Y-82980682D01*
X143852334Y-82839678D01*
X143626830Y-82731082D01*
X143387656Y-82657306D01*
X143387646Y-82657304D01*
X143140152Y-82620000D01*
X142889847Y-82620000D01*
X142642353Y-82657304D01*
X142642343Y-82657306D01*
X142403169Y-82731082D01*
X142177662Y-82839679D01*
X141970851Y-82980680D01*
X141943339Y-83006206D01*
X142528096Y-83590963D01*
X142497569Y-83609331D01*
X142363342Y-83736477D01*
X142317280Y-83804413D01*
X141732542Y-83219675D01*
X141631310Y-83346619D01*
X141506164Y-83563379D01*
X141506160Y-83563388D01*
X141414718Y-83796376D01*
X141359023Y-84040396D01*
X141359021Y-84040406D01*
X141340317Y-84289997D01*
X141340317Y-84290002D01*
X139609683Y-84290002D01*
X139609683Y-84289997D01*
X139590978Y-84040406D01*
X139590976Y-84040396D01*
X139535281Y-83796376D01*
X139443839Y-83563388D01*
X139443830Y-83563369D01*
X139318691Y-83346622D01*
X139318687Y-83346616D01*
X139217456Y-83219675D01*
X138635458Y-83801672D01*
X138522991Y-83669265D01*
X138421074Y-83591790D01*
X139006659Y-83006206D01*
X138979150Y-82980682D01*
X138772334Y-82839678D01*
X138546830Y-82731082D01*
X138307656Y-82657306D01*
X138307646Y-82657304D01*
X138060152Y-82620000D01*
X137809847Y-82620000D01*
X137562353Y-82657304D01*
X137562343Y-82657306D01*
X137323169Y-82731082D01*
X137097662Y-82839679D01*
X136890851Y-82980680D01*
X136863339Y-83006206D01*
X137448096Y-83590963D01*
X137417569Y-83609331D01*
X137283342Y-83736477D01*
X137237280Y-83804413D01*
X136652542Y-83219675D01*
X136551310Y-83346619D01*
X136426164Y-83563379D01*
X136426160Y-83563388D01*
X136334718Y-83796376D01*
X136279023Y-84040396D01*
X136279021Y-84040406D01*
X136260317Y-84289997D01*
X136260317Y-84290002D01*
X135845500Y-84290002D01*
X135845500Y-83247611D01*
X135864407Y-83189420D01*
X135874496Y-83177607D01*
X136822607Y-82229496D01*
X136877124Y-82201719D01*
X136892611Y-82200500D01*
X144891913Y-82200500D01*
X144897459Y-82200811D01*
X144937035Y-82205270D01*
X144994584Y-82194380D01*
X144996400Y-82194072D01*
X145054287Y-82185348D01*
X145054290Y-82185346D01*
X145061381Y-82183159D01*
X145061512Y-82183584D01*
X145063613Y-82182892D01*
X145063467Y-82182473D01*
X145070463Y-82180024D01*
X145070472Y-82180023D01*
X145102109Y-82163301D01*
X145122252Y-82152656D01*
X145123906Y-82151821D01*
X145144056Y-82142116D01*
X145176642Y-82126425D01*
X145176646Y-82126421D01*
X145182778Y-82122242D01*
X145183028Y-82122609D01*
X145184832Y-82121329D01*
X145184568Y-82120971D01*
X145190530Y-82116569D01*
X145190538Y-82116566D01*
X145231996Y-82075106D01*
X145233248Y-82073901D01*
X145276194Y-82034055D01*
X145276197Y-82034048D01*
X145280820Y-82028253D01*
X145281166Y-82028529D01*
X145289703Y-82017399D01*
X147740607Y-79566496D01*
X147795124Y-79538719D01*
X147810611Y-79537500D01*
X148876747Y-79537500D01*
X148876748Y-79537500D01*
X148935231Y-79525867D01*
X149001552Y-79481552D01*
X149045867Y-79415231D01*
X149057500Y-79356748D01*
X149057500Y-78424999D01*
X149573000Y-78424999D01*
X149573001Y-78425000D01*
X150213306Y-78425000D01*
X150186736Y-78541407D01*
X150196749Y-78675028D01*
X150216362Y-78725000D01*
X149573001Y-78725000D01*
X149573001Y-79381791D01*
X149575909Y-79406874D01*
X149621213Y-79509477D01*
X149700522Y-79588786D01*
X149803127Y-79634090D01*
X149828203Y-79636999D01*
X150484998Y-79636999D01*
X150485000Y-79636997D01*
X150485000Y-78993897D01*
X150568002Y-79019500D01*
X150668312Y-79019500D01*
X150767499Y-79004550D01*
X150785000Y-78996121D01*
X150785000Y-79636998D01*
X150785001Y-79636999D01*
X151441790Y-79636999D01*
X151441791Y-79636998D01*
X151466874Y-79634090D01*
X151569477Y-79588786D01*
X151648786Y-79509477D01*
X151694090Y-79406872D01*
X151696999Y-79381797D01*
X151697000Y-79381795D01*
X151697000Y-78725001D01*
X151696999Y-78725000D01*
X151056694Y-78725000D01*
X151057437Y-78721746D01*
X152847500Y-78721746D01*
X152847501Y-78721758D01*
X152859132Y-78780227D01*
X152859133Y-78780231D01*
X152903448Y-78846552D01*
X152969769Y-78890867D01*
X153014231Y-78899711D01*
X153028241Y-78902498D01*
X153028246Y-78902498D01*
X153028252Y-78902500D01*
X153028253Y-78902500D01*
X154591747Y-78902500D01*
X154591748Y-78902500D01*
X154650231Y-78890867D01*
X154716552Y-78846552D01*
X154760867Y-78780231D01*
X154772500Y-78721748D01*
X154772500Y-78721746D01*
X155387500Y-78721746D01*
X155387501Y-78721758D01*
X155399132Y-78780227D01*
X155399133Y-78780231D01*
X155443448Y-78846552D01*
X155509769Y-78890867D01*
X155554231Y-78899711D01*
X155568241Y-78902498D01*
X155568246Y-78902498D01*
X155568252Y-78902500D01*
X155568253Y-78902500D01*
X157131747Y-78902500D01*
X157131748Y-78902500D01*
X157190231Y-78890867D01*
X157256552Y-78846552D01*
X157300867Y-78780231D01*
X157312500Y-78721748D01*
X157312500Y-78721746D01*
X157927500Y-78721746D01*
X157927501Y-78721758D01*
X157939132Y-78780227D01*
X157939133Y-78780231D01*
X157983448Y-78846552D01*
X158049769Y-78890867D01*
X158094231Y-78899711D01*
X158108241Y-78902498D01*
X158108246Y-78902498D01*
X158108252Y-78902500D01*
X158108253Y-78902500D01*
X159671747Y-78902500D01*
X159671748Y-78902500D01*
X159730231Y-78890867D01*
X159796552Y-78846552D01*
X159840867Y-78780231D01*
X159852500Y-78721748D01*
X159852500Y-78721746D01*
X160467500Y-78721746D01*
X160467501Y-78721758D01*
X160479132Y-78780227D01*
X160479133Y-78780231D01*
X160523448Y-78846552D01*
X160589769Y-78890867D01*
X160634231Y-78899711D01*
X160648241Y-78902498D01*
X160648246Y-78902498D01*
X160648252Y-78902500D01*
X160648253Y-78902500D01*
X162211747Y-78902500D01*
X162211748Y-78902500D01*
X162270231Y-78890867D01*
X162336552Y-78846552D01*
X162380867Y-78780231D01*
X162392500Y-78721748D01*
X162392500Y-77158252D01*
X162380867Y-77099769D01*
X162336552Y-77033448D01*
X162282750Y-76997498D01*
X162270233Y-76989134D01*
X162270231Y-76989133D01*
X162270228Y-76989132D01*
X162270227Y-76989132D01*
X162211758Y-76977501D01*
X162211748Y-76977500D01*
X160648252Y-76977500D01*
X160648251Y-76977500D01*
X160648241Y-76977501D01*
X160589772Y-76989132D01*
X160589766Y-76989134D01*
X160523451Y-77033445D01*
X160523445Y-77033451D01*
X160479134Y-77099766D01*
X160479132Y-77099772D01*
X160467501Y-77158241D01*
X160467500Y-77158253D01*
X160467500Y-78721746D01*
X159852500Y-78721746D01*
X159852500Y-77158252D01*
X159840867Y-77099769D01*
X159796552Y-77033448D01*
X159742750Y-76997498D01*
X159730233Y-76989134D01*
X159730231Y-76989133D01*
X159730228Y-76989132D01*
X159730227Y-76989132D01*
X159671758Y-76977501D01*
X159671748Y-76977500D01*
X158108252Y-76977500D01*
X158108251Y-76977500D01*
X158108241Y-76977501D01*
X158049772Y-76989132D01*
X158049766Y-76989134D01*
X157983451Y-77033445D01*
X157983445Y-77033451D01*
X157939134Y-77099766D01*
X157939132Y-77099772D01*
X157927501Y-77158241D01*
X157927500Y-77158253D01*
X157927500Y-78721746D01*
X157312500Y-78721746D01*
X157312500Y-77158252D01*
X157300867Y-77099769D01*
X157256552Y-77033448D01*
X157202750Y-76997498D01*
X157190233Y-76989134D01*
X157190231Y-76989133D01*
X157190228Y-76989132D01*
X157190227Y-76989132D01*
X157131758Y-76977501D01*
X157131748Y-76977500D01*
X155568252Y-76977500D01*
X155568251Y-76977500D01*
X155568241Y-76977501D01*
X155509772Y-76989132D01*
X155509766Y-76989134D01*
X155443451Y-77033445D01*
X155443445Y-77033451D01*
X155399134Y-77099766D01*
X155399132Y-77099772D01*
X155387501Y-77158241D01*
X155387500Y-77158253D01*
X155387500Y-78721746D01*
X154772500Y-78721746D01*
X154772500Y-77158252D01*
X154760867Y-77099769D01*
X154716552Y-77033448D01*
X154662750Y-76997498D01*
X154650233Y-76989134D01*
X154650231Y-76989133D01*
X154650228Y-76989132D01*
X154650227Y-76989132D01*
X154591758Y-76977501D01*
X154591748Y-76977500D01*
X153028252Y-76977500D01*
X153028251Y-76977500D01*
X153028241Y-76977501D01*
X152969772Y-76989132D01*
X152969766Y-76989134D01*
X152903451Y-77033445D01*
X152903445Y-77033451D01*
X152859134Y-77099766D01*
X152859132Y-77099772D01*
X152847501Y-77158241D01*
X152847500Y-77158253D01*
X152847500Y-78721746D01*
X151057437Y-78721746D01*
X151083264Y-78608593D01*
X151073251Y-78474972D01*
X151053638Y-78425000D01*
X151696998Y-78425000D01*
X151696999Y-78424998D01*
X151696999Y-77768210D01*
X151696998Y-77768208D01*
X151694090Y-77743125D01*
X151648786Y-77640522D01*
X151569477Y-77561213D01*
X151466872Y-77515909D01*
X151441797Y-77513000D01*
X150785001Y-77513000D01*
X150785000Y-77513001D01*
X150785000Y-78156102D01*
X150701998Y-78130500D01*
X150601688Y-78130500D01*
X150502501Y-78145450D01*
X150485000Y-78153878D01*
X150485000Y-77513001D01*
X150484999Y-77513000D01*
X149828210Y-77513000D01*
X149828207Y-77513001D01*
X149803125Y-77515909D01*
X149700522Y-77561213D01*
X149621213Y-77640522D01*
X149575909Y-77743127D01*
X149573000Y-77768202D01*
X149573000Y-78424999D01*
X149057500Y-78424999D01*
X149057500Y-77793252D01*
X149045867Y-77734769D01*
X149001552Y-77668448D01*
X149001548Y-77668445D01*
X148935233Y-77624134D01*
X148935231Y-77624133D01*
X148935228Y-77624132D01*
X148935227Y-77624132D01*
X148876758Y-77612501D01*
X148876748Y-77612500D01*
X147313252Y-77612500D01*
X147313251Y-77612500D01*
X147313241Y-77612501D01*
X147254772Y-77624132D01*
X147254766Y-77624134D01*
X147188451Y-77668445D01*
X147188445Y-77668451D01*
X147144134Y-77734766D01*
X147144132Y-77734772D01*
X147132501Y-77793241D01*
X147132500Y-77793253D01*
X147132500Y-78859387D01*
X147113593Y-78917578D01*
X147103504Y-78929391D01*
X146786004Y-79246891D01*
X146731487Y-79274668D01*
X146671055Y-79265097D01*
X146627790Y-79221832D01*
X146617000Y-79176887D01*
X146617000Y-78725001D01*
X146616999Y-78725000D01*
X145976694Y-78725000D01*
X146003264Y-78608593D01*
X145993251Y-78474972D01*
X145973638Y-78425000D01*
X146616998Y-78425000D01*
X146616999Y-78424998D01*
X146616999Y-77768210D01*
X146616998Y-77768208D01*
X146614090Y-77743125D01*
X146568786Y-77640522D01*
X146489477Y-77561213D01*
X146386872Y-77515909D01*
X146361797Y-77513000D01*
X145705000Y-77513000D01*
X145705000Y-78156102D01*
X145621998Y-78130500D01*
X145521688Y-78130500D01*
X145422501Y-78145450D01*
X145405000Y-78153878D01*
X145405000Y-77513001D01*
X145404999Y-77513000D01*
X144748210Y-77513000D01*
X144748207Y-77513001D01*
X144723125Y-77515909D01*
X144620522Y-77561213D01*
X144541213Y-77640522D01*
X144495909Y-77743127D01*
X144493000Y-77768202D01*
X144493000Y-78424999D01*
X144493001Y-78425000D01*
X145133306Y-78425000D01*
X145106736Y-78541407D01*
X145116749Y-78675028D01*
X145136362Y-78725000D01*
X144493001Y-78725000D01*
X144493001Y-79381791D01*
X144495909Y-79406874D01*
X144541213Y-79509477D01*
X144620522Y-79588786D01*
X144723127Y-79634090D01*
X144748203Y-79636999D01*
X145404998Y-79636999D01*
X145405000Y-79636998D01*
X145405000Y-78993897D01*
X145488002Y-79019500D01*
X145588312Y-79019500D01*
X145687499Y-79004550D01*
X145705000Y-78996121D01*
X145705000Y-79636998D01*
X145705001Y-79636999D01*
X146156888Y-79636999D01*
X146215079Y-79655906D01*
X146251043Y-79705406D01*
X146251043Y-79766592D01*
X146226892Y-79806003D01*
X144762393Y-81270504D01*
X144707876Y-81298281D01*
X144692389Y-81299500D01*
X136693087Y-81299500D01*
X136687541Y-81299189D01*
X136647965Y-81294730D01*
X136590428Y-81305615D01*
X136588605Y-81305925D01*
X136530713Y-81314651D01*
X136523628Y-81316837D01*
X136523498Y-81316418D01*
X136521381Y-81317115D01*
X136521526Y-81317529D01*
X136514523Y-81319978D01*
X136462765Y-81347335D01*
X136461113Y-81348169D01*
X136408360Y-81373573D01*
X136402229Y-81377754D01*
X136401982Y-81377392D01*
X136400169Y-81378678D01*
X136400430Y-81379031D01*
X136394458Y-81383438D01*
X136353078Y-81424817D01*
X136351746Y-81426100D01*
X136308803Y-81465947D01*
X136304181Y-81471743D01*
X136303837Y-81471469D01*
X136295295Y-81482600D01*
X135096301Y-82681593D01*
X135092160Y-82685294D01*
X135061030Y-82710119D01*
X135061029Y-82710120D01*
X135028035Y-82758512D01*
X135026965Y-82760020D01*
X134992207Y-82807116D01*
X134988742Y-82813674D01*
X134988353Y-82813468D01*
X134987350Y-82815455D01*
X134987746Y-82815646D01*
X134984526Y-82822331D01*
X134967264Y-82878294D01*
X134966686Y-82880050D01*
X134947355Y-82935295D01*
X134945976Y-82942587D01*
X134945544Y-82942505D01*
X134945171Y-82944700D01*
X134945605Y-82944766D01*
X134944500Y-82952099D01*
X134944500Y-83010641D01*
X134944465Y-83012491D01*
X134942276Y-83071010D01*
X134943107Y-83078385D01*
X134942668Y-83078434D01*
X134944500Y-83092344D01*
X134944500Y-102431911D01*
X134944189Y-102437457D01*
X134939730Y-102477032D01*
X134939730Y-102477036D01*
X134379500Y-102477036D01*
X134379500Y-75884999D01*
X144493000Y-75884999D01*
X144493001Y-75885000D01*
X145133306Y-75885000D01*
X145106736Y-76001407D01*
X145116749Y-76135028D01*
X145136362Y-76185000D01*
X144493001Y-76185000D01*
X144493001Y-76841791D01*
X144495909Y-76866874D01*
X144541213Y-76969477D01*
X144620522Y-77048786D01*
X144723127Y-77094090D01*
X144748203Y-77096999D01*
X145404998Y-77096999D01*
X145405000Y-77096998D01*
X145405000Y-76453897D01*
X145488002Y-76479500D01*
X145588312Y-76479500D01*
X145687499Y-76464550D01*
X145705000Y-76456121D01*
X145705000Y-77096998D01*
X145705001Y-77096999D01*
X146361790Y-77096999D01*
X146361791Y-77096998D01*
X146386874Y-77094090D01*
X146489477Y-77048786D01*
X146568786Y-76969477D01*
X146614090Y-76866872D01*
X146616999Y-76841797D01*
X146617000Y-76841795D01*
X146617000Y-76816746D01*
X147132500Y-76816746D01*
X147132501Y-76816758D01*
X147144132Y-76875227D01*
X147144133Y-76875231D01*
X147188448Y-76941552D01*
X147254769Y-76985867D01*
X147299231Y-76994711D01*
X147313241Y-76997498D01*
X147313246Y-76997498D01*
X147313252Y-76997500D01*
X147313253Y-76997500D01*
X148876747Y-76997500D01*
X148876748Y-76997500D01*
X148935231Y-76985867D01*
X149001552Y-76941552D01*
X149045867Y-76875231D01*
X149057500Y-76816748D01*
X149057500Y-75679900D01*
X149076407Y-75621709D01*
X149086496Y-75609896D01*
X149403996Y-75292396D01*
X149458513Y-75264619D01*
X149518945Y-75274190D01*
X149562210Y-75317455D01*
X149573000Y-75362400D01*
X149573000Y-75884999D01*
X149573001Y-75885000D01*
X150213306Y-75885000D01*
X150186736Y-76001407D01*
X150196749Y-76135028D01*
X150216362Y-76185000D01*
X149573002Y-76185000D01*
X149573001Y-76185001D01*
X149573001Y-76841791D01*
X149575909Y-76866874D01*
X149621213Y-76969477D01*
X149700522Y-77048786D01*
X149803127Y-77094090D01*
X149828203Y-77096999D01*
X150484998Y-77096999D01*
X150485000Y-77096997D01*
X150485000Y-76453897D01*
X150568002Y-76479500D01*
X150668312Y-76479500D01*
X150767499Y-76464550D01*
X150785000Y-76456121D01*
X150785000Y-77096997D01*
X150785001Y-77096999D01*
X151441790Y-77096999D01*
X151441791Y-77096998D01*
X151466874Y-77094090D01*
X151569477Y-77048786D01*
X151648786Y-76969477D01*
X151694090Y-76866872D01*
X151696999Y-76841797D01*
X151697000Y-76841795D01*
X151697000Y-76185001D01*
X151696999Y-76185000D01*
X151056694Y-76185000D01*
X151083264Y-76068593D01*
X151073251Y-75934972D01*
X151053638Y-75885000D01*
X151696998Y-75885000D01*
X151696999Y-75884999D01*
X151696999Y-75228210D01*
X151696998Y-75228208D01*
X151694090Y-75203125D01*
X151648786Y-75100522D01*
X151569477Y-75021213D01*
X151466872Y-74975909D01*
X151441797Y-74973000D01*
X150785001Y-74973000D01*
X150785000Y-74973001D01*
X150785000Y-75616102D01*
X150701998Y-75590500D01*
X150601688Y-75590500D01*
X150502501Y-75605450D01*
X150485000Y-75613878D01*
X150485000Y-74973001D01*
X150484999Y-74973000D01*
X149962399Y-74973000D01*
X149904208Y-74954093D01*
X149868244Y-74904593D01*
X149868244Y-74843407D01*
X149892394Y-74803997D01*
X150041857Y-74654536D01*
X150136898Y-74559496D01*
X150191414Y-74531719D01*
X150206901Y-74530500D01*
X155852929Y-74530500D01*
X155911120Y-74549407D01*
X155919687Y-74556723D01*
X155921716Y-74558280D01*
X155921718Y-74558282D01*
X156047159Y-74654536D01*
X156193238Y-74715044D01*
X156310809Y-74730522D01*
X156349999Y-74735682D01*
X156350000Y-74735682D01*
X156350001Y-74735682D01*
X156381352Y-74731554D01*
X156506762Y-74715044D01*
X156652841Y-74654536D01*
X156778282Y-74558282D01*
X156778281Y-74558282D01*
X156783430Y-74554332D01*
X156784490Y-74555713D01*
X156831584Y-74531719D01*
X156847071Y-74530500D01*
X160932929Y-74530500D01*
X160991120Y-74549407D01*
X160999687Y-74556723D01*
X161001716Y-74558280D01*
X161001718Y-74558282D01*
X161127159Y-74654536D01*
X161273238Y-74715044D01*
X161390809Y-74730522D01*
X161429999Y-74735682D01*
X161430000Y-74735682D01*
X161430001Y-74735682D01*
X161461352Y-74731554D01*
X161586762Y-74715044D01*
X161732841Y-74654536D01*
X161858282Y-74558282D01*
X161954536Y-74432841D01*
X162015044Y-74286762D01*
X162035682Y-74130000D01*
X162015044Y-73973238D01*
X161954537Y-73827161D01*
X161954537Y-73827160D01*
X161858286Y-73701723D01*
X161858285Y-73701722D01*
X161858282Y-73701718D01*
X161858277Y-73701714D01*
X161858276Y-73701713D01*
X161732838Y-73605462D01*
X161586766Y-73544957D01*
X161586758Y-73544955D01*
X161430001Y-73524318D01*
X161429999Y-73524318D01*
X161273241Y-73544955D01*
X161273233Y-73544957D01*
X161127161Y-73605462D01*
X161127160Y-73605462D01*
X160996570Y-73705668D01*
X160995509Y-73704286D01*
X160948416Y-73728281D01*
X160932929Y-73729500D01*
X156847071Y-73729500D01*
X156788880Y-73710593D01*
X156780312Y-73703276D01*
X156652838Y-73605462D01*
X156506766Y-73544957D01*
X156506758Y-73544955D01*
X156350001Y-73524318D01*
X156349999Y-73524318D01*
X156193241Y-73544955D01*
X156193233Y-73544957D01*
X156047161Y-73605462D01*
X156047160Y-73605462D01*
X155916570Y-73705668D01*
X155915509Y-73704286D01*
X155868416Y-73728281D01*
X155852929Y-73729500D01*
X150063433Y-73729500D01*
X149936567Y-73729500D01*
X149936566Y-73729500D01*
X149936560Y-73729501D01*
X149913624Y-73736953D01*
X149898525Y-73740578D01*
X149874701Y-73744352D01*
X149874695Y-73744354D01*
X149853196Y-73755307D01*
X149838857Y-73761246D01*
X149815914Y-73768702D01*
X149815911Y-73768704D01*
X149796392Y-73782884D01*
X149783156Y-73790995D01*
X149761658Y-73801950D01*
X149739094Y-73824513D01*
X149739092Y-73824515D01*
X149739090Y-73824515D01*
X149739091Y-73824516D01*
X148520103Y-75043504D01*
X148465586Y-75071281D01*
X148450099Y-75072500D01*
X147313252Y-75072500D01*
X147313251Y-75072500D01*
X147313241Y-75072501D01*
X147254772Y-75084132D01*
X147254766Y-75084134D01*
X147188451Y-75128445D01*
X147188445Y-75128451D01*
X147144134Y-75194766D01*
X147144132Y-75194772D01*
X147132501Y-75253241D01*
X147132500Y-75253253D01*
X147132500Y-76816746D01*
X146617000Y-76816746D01*
X146617000Y-76185001D01*
X146616999Y-76185000D01*
X145976694Y-76185000D01*
X146003264Y-76068593D01*
X145993251Y-75934972D01*
X145973638Y-75885000D01*
X146616998Y-75885000D01*
X146616999Y-75884999D01*
X146616999Y-75228210D01*
X146616998Y-75228208D01*
X146614090Y-75203125D01*
X146568786Y-75100522D01*
X146489477Y-75021213D01*
X146386872Y-74975909D01*
X146361797Y-74973000D01*
X145705001Y-74973000D01*
X145705000Y-74973001D01*
X145705000Y-75616102D01*
X145621998Y-75590500D01*
X145521688Y-75590500D01*
X145422501Y-75605450D01*
X145405000Y-75613878D01*
X145405000Y-74973000D01*
X144748210Y-74973000D01*
X144748207Y-74973001D01*
X144723125Y-74975909D01*
X144620522Y-75021213D01*
X144541213Y-75100522D01*
X144495909Y-75203127D01*
X144493000Y-75228202D01*
X144493000Y-75884999D01*
X134379500Y-75884999D01*
X134379500Y-72578500D01*
X134398407Y-72520309D01*
X134447907Y-72484345D01*
X134478500Y-72479500D01*
X174411500Y-72479500D01*
X174469691Y-72498407D01*
G37*
%TD.AperFunction*%
%TD*%
M02*
