%TF.GenerationSoftware,KiCad,Pcbnew,8.0.3+1*%
%TF.CreationDate,2024-07-16T00:57:53+00:00*%
%TF.ProjectId,RFSWITCH01,52465357-4954-4434-9830-312e6b696361,rev?*%
%TF.SameCoordinates,Original*%
%TF.FileFunction,Copper,L1,Top*%
%TF.FilePolarity,Positive*%
%FSLAX46Y46*%
G04 Gerber Fmt 4.6, Leading zero omitted, Abs format (unit mm)*
G04 Created by KiCad (PCBNEW 8.0.3+1) date 2024-07-16 00:57:53*
%MOMM*%
%LPD*%
G01*
G04 APERTURE LIST*
%TA.AperFunction,ComponentPad*%
%ADD10R,1.524000X1.524000*%
%TD*%
%TA.AperFunction,ComponentPad*%
%ADD11C,2.240000*%
%TD*%
%TA.AperFunction,ComponentPad*%
%ADD12C,2.740000*%
%TD*%
%TA.AperFunction,ComponentPad*%
%ADD13C,6.000000*%
%TD*%
%TA.AperFunction,ViaPad*%
%ADD14C,0.800000*%
%TD*%
%TA.AperFunction,ViaPad*%
%ADD15C,0.450000*%
%TD*%
%TA.AperFunction,Conductor*%
%ADD16C,0.400000*%
%TD*%
%TA.AperFunction,Conductor*%
%ADD17C,0.500000*%
%TD*%
G04 APERTURE END LIST*
D10*
%TO.P,J9,1*%
%TO.N,/SW1_CTRL*%
X153810000Y-80480000D03*
%TO.P,J9,2*%
X153810000Y-77940000D03*
%TD*%
%TO.P,J5,1*%
%TO.N,/SW2_#CTRL*%
X161430000Y-80480000D03*
%TO.P,J5,2*%
X161430000Y-77940000D03*
%TD*%
%TO.P,J4,1*%
%TO.N,/SW2_CTRL*%
X158890000Y-80480000D03*
%TO.P,J4,2*%
X158890000Y-77940000D03*
%TD*%
%TO.P,J6,1*%
%TO.N,Net-(J6-Pad1)*%
X163843000Y-108928000D03*
%TO.P,J6,2*%
X163843000Y-106388000D03*
%TD*%
D11*
%TO.P,J8,1*%
%TO.N,/RX{slash}TX_2*%
X168415000Y-98260000D03*
D12*
%TO.P,J8,2*%
%TO.N,GND*%
X165875000Y-95720000D03*
X165875000Y-100800000D03*
X170955000Y-95720000D03*
X170955000Y-100800000D03*
%TD*%
D13*
%TO.P,M3,1*%
%TO.N,GND*%
X139205000Y-77305000D03*
%TD*%
D10*
%TO.P,J1,1*%
%TO.N,GND*%
X145555000Y-78575000D03*
%TO.P,J1,2*%
X145555000Y-76035000D03*
%TO.P,J1,3*%
%TO.N,+3V3*%
X148095000Y-78575000D03*
%TO.P,J1,4*%
X148095000Y-76035000D03*
%TO.P,J1,5*%
%TO.N,GND*%
X150635000Y-78575000D03*
%TO.P,J1,6*%
X150635000Y-76035000D03*
%TD*%
D13*
%TO.P,M4,1*%
%TO.N,GND*%
X169685000Y-107785000D03*
%TD*%
D10*
%TO.P,J10,1*%
%TO.N,/SW1_#CTRL*%
X156350000Y-80480000D03*
%TO.P,J10,2*%
X156350000Y-77940000D03*
%TD*%
D11*
%TO.P,J2,1*%
%TO.N,/TX*%
X140475000Y-86830000D03*
D12*
%TO.P,J2,2*%
%TO.N,GND*%
X137935000Y-84290000D03*
X137935000Y-89370000D03*
X143015000Y-84290000D03*
X143015000Y-89370000D03*
%TD*%
D13*
%TO.P,M1,1*%
%TO.N,GND*%
X169685000Y-77305000D03*
%TD*%
D11*
%TO.P,J7,1*%
%TO.N,/RX{slash}TX_1*%
X168415000Y-86830000D03*
D12*
%TO.P,J7,2*%
%TO.N,GND*%
X165875000Y-84290000D03*
X165875000Y-89370000D03*
X170955000Y-84290000D03*
X170955000Y-89370000D03*
%TD*%
D11*
%TO.P,J3,1*%
%TO.N,/RX*%
X140475000Y-98260000D03*
D12*
%TO.P,J3,2*%
%TO.N,GND*%
X137935000Y-95720000D03*
X137935000Y-100800000D03*
X143015000Y-95720000D03*
X143015000Y-100800000D03*
%TD*%
D13*
%TO.P,M2,1*%
%TO.N,GND*%
X139205000Y-107785000D03*
%TD*%
D14*
%TO.N,+3V3*%
X156350000Y-74130000D03*
X147587000Y-109563000D03*
X146190000Y-105880000D03*
X161430000Y-74130000D03*
X152667000Y-109563000D03*
D15*
%TO.N,GND*%
X156121400Y-89039800D03*
X141389400Y-88125400D03*
X168618200Y-96710600D03*
X149314200Y-95085000D03*
X159880600Y-94729400D03*
X162369800Y-99149000D03*
X154292600Y-102768500D03*
X149263400Y-98539400D03*
X143015000Y-92595800D03*
X157543800Y-91630600D03*
X147942600Y-91833800D03*
X159779000Y-87973000D03*
X164808200Y-85941000D03*
X150635000Y-88176200D03*
X169786600Y-87566600D03*
X147282200Y-97472600D03*
X159880600Y-90259000D03*
X145809000Y-89852600D03*
X162573000Y-92240200D03*
X148044200Y-91224200D03*
X159931400Y-91021000D03*
X156070600Y-100520600D03*
X145809000Y-84518600D03*
X154699000Y-93764200D03*
X148044200Y-90411400D03*
X163487400Y-95593000D03*
X162954000Y-97117000D03*
X160998200Y-86957000D03*
X169431000Y-88023800D03*
X151346200Y-91630600D03*
X159880600Y-96558200D03*
X140729000Y-96710600D03*
X144996200Y-97371000D03*
X146215400Y-95034200D03*
X162573000Y-85941000D03*
X145351800Y-101841400D03*
X163182600Y-87769800D03*
X154546600Y-100571400D03*
X146621800Y-96761400D03*
X162471400Y-94221400D03*
X149314200Y-101841400D03*
X160083800Y-91833800D03*
X153581400Y-88277800D03*
X154953000Y-91325800D03*
X152209800Y-99403000D03*
X161861800Y-99555400D03*
X155156200Y-97777400D03*
X156934200Y-83502600D03*
X156985000Y-101841400D03*
X146621800Y-97752000D03*
X149009400Y-103111400D03*
X146063000Y-87109400D03*
X159779000Y-89497000D03*
X145555000Y-89344600D03*
X145809000Y-91325800D03*
X164757400Y-87769800D03*
X155969000Y-97777400D03*
X161912600Y-86195000D03*
X168008600Y-85280600D03*
X156223000Y-103670200D03*
X159220200Y-98590200D03*
X150787400Y-97980600D03*
X169989800Y-98387000D03*
X156273800Y-101841400D03*
X152819400Y-91376600D03*
X163081000Y-101333400D03*
X167602200Y-88176200D03*
X169227800Y-85483800D03*
X152311400Y-100673000D03*
X158153400Y-93713400D03*
X161054992Y-89123329D03*
X152159000Y-95745400D03*
X163462000Y-83528000D03*
X151498600Y-97929800D03*
X159220200Y-97828200D03*
X139205000Y-87820600D03*
X158204200Y-91630600D03*
X167145000Y-85941000D03*
X168821400Y-99758600D03*
X146215400Y-94323000D03*
X159880600Y-95542200D03*
X158864600Y-102247800D03*
X157035800Y-95948600D03*
X145758200Y-95643800D03*
X158204200Y-95034200D03*
X163995400Y-99149000D03*
X171666200Y-92291000D03*
X160083800Y-92494200D03*
X160845800Y-98031400D03*
X163233400Y-85941000D03*
X140729000Y-85280600D03*
X162217400Y-96710600D03*
X168821400Y-88328600D03*
X137071400Y-92189400D03*
X141287800Y-96913800D03*
X158305800Y-103213000D03*
X141745000Y-99149000D03*
X147841000Y-87109400D03*
X138900200Y-86703000D03*
X161963400Y-100977800D03*
X140271800Y-99809400D03*
X151854200Y-97523400D03*
X146469400Y-99504600D03*
X160998200Y-95999400D03*
X151752600Y-96253400D03*
X146418600Y-98895000D03*
X155156200Y-101536600D03*
X156731000Y-97777400D03*
X154343400Y-97777400D03*
X146063000Y-98234600D03*
X159626600Y-84874200D03*
X157543800Y-103771800D03*
X167500600Y-85534600D03*
X152057400Y-93459400D03*
X147942600Y-93205400D03*
X167145000Y-99149000D03*
X155765800Y-95948600D03*
X145148600Y-86449000D03*
X155969000Y-91630600D03*
X156731000Y-91427400D03*
X162217400Y-95034200D03*
X140881400Y-88379400D03*
X139459000Y-85636200D03*
X153632200Y-90970200D03*
X149314200Y-95847000D03*
X146063000Y-90411400D03*
X161861800Y-84975800D03*
X155257800Y-104025800D03*
X145656600Y-86753800D03*
X147841000Y-89598600D03*
X145301000Y-88887400D03*
X146190000Y-96355000D03*
X138951000Y-98691800D03*
X156731000Y-93459400D03*
X150685800Y-95745400D03*
X160337800Y-95999400D03*
X154089400Y-91783000D03*
X164655800Y-99199800D03*
X157645400Y-95948600D03*
X162446000Y-83528000D03*
X159220200Y-100063400D03*
X140068600Y-85331400D03*
X154241800Y-104025800D03*
X169939000Y-97828200D03*
X167145000Y-87719000D03*
X152768600Y-95745400D03*
X155105400Y-95948600D03*
X161912600Y-84112200D03*
X152819400Y-100927000D03*
X144031000Y-86042600D03*
X154292600Y-102146200D03*
X167246600Y-93053000D03*
X138900200Y-98133000D03*
X152362200Y-100063400D03*
X140068600Y-96761400D03*
X150381000Y-84112200D03*
X148857000Y-98133000D03*
X161658600Y-89141400D03*
X155359400Y-84671000D03*
X141745000Y-87719000D03*
X146469400Y-87515800D03*
X144589800Y-86195000D03*
X162217400Y-91529000D03*
X169786600Y-98996600D03*
X160439400Y-101028600D03*
X168008600Y-96710600D03*
X152768600Y-98844200D03*
X163335000Y-103517800D03*
X153835400Y-94678600D03*
X163131800Y-99149000D03*
X151600200Y-99098200D03*
X141745000Y-97371000D03*
X147841000Y-98260000D03*
X147637800Y-88938200D03*
X155613400Y-90005000D03*
X151295400Y-95694600D03*
X152819400Y-93764200D03*
X147993400Y-92545000D03*
X145605800Y-97726600D03*
X169939000Y-86398200D03*
X139662200Y-88176200D03*
X167602200Y-99606200D03*
X162268200Y-89598600D03*
X150889000Y-103721000D03*
X151807700Y-96863000D03*
X159169400Y-97015400D03*
X162319000Y-90513000D03*
X154292600Y-103365400D03*
X162573000Y-88023800D03*
X145961400Y-102298600D03*
X163792200Y-97371000D03*
X144920000Y-101384200D03*
X154089400Y-93103800D03*
X147282200Y-88379400D03*
X146164600Y-91910000D03*
X162420600Y-101435000D03*
X156832600Y-103670200D03*
X161811000Y-98895000D03*
X169685000Y-97269400D03*
X169227800Y-96913800D03*
X146164600Y-93434000D03*
X149619000Y-88684200D03*
X164351000Y-97371000D03*
X144894600Y-88481000D03*
X153683000Y-95897800D03*
X163944600Y-85941000D03*
X162674600Y-91071800D03*
X151346200Y-93459400D03*
X163944600Y-87769800D03*
X144437400Y-99403000D03*
X146469400Y-100165000D03*
X152006600Y-89954200D03*
X160439400Y-89123329D03*
X159779000Y-88735000D03*
X152260600Y-86296600D03*
X139103400Y-86093400D03*
X161861800Y-100266600D03*
X141389400Y-99555400D03*
X140271800Y-88379400D03*
X150685800Y-91630600D03*
X148552200Y-95593000D03*
X168161000Y-99809400D03*
X149314200Y-100927000D03*
X154394200Y-95948600D03*
X149263400Y-85636200D03*
X161709400Y-96050200D03*
X161963400Y-92646600D03*
X160236200Y-97980600D03*
X160744200Y-85636200D03*
X140881400Y-99809400D03*
X139205000Y-99250600D03*
X159220200Y-99301400D03*
X144335800Y-97269400D03*
X152260600Y-97980600D03*
X150685800Y-93459400D03*
X149314200Y-100012600D03*
X139662200Y-99606200D03*
X153225800Y-101282600D03*
X141745000Y-85941000D03*
X158915400Y-101536600D03*
X150889000Y-99098200D03*
X153175000Y-89395400D03*
X161303000Y-98488600D03*
X161912600Y-93205400D03*
X146164600Y-92672000D03*
X153378200Y-103975000D03*
X167145000Y-97371000D03*
X139103400Y-97523400D03*
X152540000Y-104229000D03*
X156426200Y-95948600D03*
X169685000Y-85839400D03*
X152971800Y-97980600D03*
X152260600Y-102959000D03*
X157543800Y-93459400D03*
X160033000Y-93942000D03*
X158128000Y-96253400D03*
X163792200Y-92646600D03*
X146875800Y-87922200D03*
X152006600Y-91630600D03*
X161404600Y-86550600D03*
X139459000Y-97066200D03*
X147637800Y-96355000D03*
X159220200Y-100825400D03*
X163741400Y-101384200D03*
X155765800Y-94018200D03*
X168161000Y-88379400D03*
X141287800Y-85483800D03*
X158661400Y-96456600D03*
X153632200Y-97828200D03*
X153733800Y-101638200D03*
X169431000Y-99453800D03*
X164909800Y-97371000D03*
X138951000Y-87261800D03*
X159880600Y-97320200D03*
X167500600Y-96964600D03*
X148730000Y-99149000D03*
X168618200Y-85280600D03*
X160490200Y-87261800D03*
X157035800Y-101231800D03*
X162268200Y-88785800D03*
X169989800Y-86957000D03*
D14*
%TO.N,/SW1_CTRL*%
X149974600Y-90259000D03*
X146774200Y-107175400D03*
%TO.N,/SW1_#CTRL*%
X148730000Y-94450000D03*
%TO.N,/SW2_CTRL*%
X158890000Y-94450000D03*
%TD*%
D16*
%TO.N,+3V3*%
X156350000Y-74130000D02*
X150000000Y-74130000D01*
D17*
X136470001Y-103534999D02*
X142574999Y-103534999D01*
X144920000Y-105880000D02*
X146190000Y-105880000D01*
X148095000Y-78575000D02*
X144920000Y-81750000D01*
X135395000Y-102070000D02*
X135395000Y-102459998D01*
D16*
X150000000Y-74130000D02*
X148095000Y-76035000D01*
D17*
X135395000Y-83020000D02*
X135395000Y-102070000D01*
X136665000Y-81750000D02*
X135395000Y-83020000D01*
X135395000Y-102459998D02*
X136470001Y-103534999D01*
D16*
X161430000Y-74130000D02*
X156350000Y-74130000D01*
D17*
X142574999Y-103534999D02*
X144920000Y-105880000D01*
X147587000Y-109563000D02*
X152667000Y-109563000D01*
X144920000Y-81750000D02*
X136665000Y-81750000D01*
%TO.N,/SW1_CTRL*%
X146774200Y-107175400D02*
X149997294Y-103952306D01*
X149997294Y-103952306D02*
X149997294Y-90281694D01*
X149997294Y-90281694D02*
X149974600Y-90259000D01*
%TO.N,/SW1_#CTRL*%
X156350000Y-80480000D02*
X148730000Y-88100000D01*
X148730000Y-91910000D02*
X148730000Y-94450000D01*
X148730000Y-88100000D02*
X148730000Y-91910000D01*
%TO.N,/SW2_CTRL*%
X158890000Y-80480000D02*
X158890000Y-94450000D01*
%TD*%
%TA.AperFunction,Conductor*%
%TO.N,GND*%
G36*
X174470191Y-72497907D02*
G01*
X174506155Y-72547407D01*
X174511000Y-72578000D01*
X174511000Y-112512000D01*
X174492093Y-112570191D01*
X174442593Y-112606155D01*
X174412000Y-112611000D01*
X134478000Y-112611000D01*
X134419809Y-112592093D01*
X134383845Y-112542593D01*
X134379000Y-112512000D01*
X134379000Y-109562999D01*
X146981318Y-109562999D01*
X146981318Y-109563000D01*
X147001955Y-109719758D01*
X147001957Y-109719766D01*
X147062462Y-109865838D01*
X147062462Y-109865839D01*
X147142891Y-109970656D01*
X147158718Y-109991282D01*
X147284159Y-110087536D01*
X147430238Y-110148044D01*
X147547809Y-110163522D01*
X147586999Y-110168682D01*
X147587000Y-110168682D01*
X147587001Y-110168682D01*
X147618352Y-110164554D01*
X147743762Y-110148044D01*
X147889841Y-110087536D01*
X147959665Y-110033957D01*
X148017341Y-110013534D01*
X148019932Y-110013500D01*
X152234068Y-110013500D01*
X152292259Y-110032407D01*
X152294315Y-110033943D01*
X152364159Y-110087536D01*
X152510238Y-110148044D01*
X152627809Y-110163522D01*
X152666999Y-110168682D01*
X152667000Y-110168682D01*
X152667001Y-110168682D01*
X152698352Y-110164554D01*
X152823762Y-110148044D01*
X152969841Y-110087536D01*
X153095282Y-109991282D01*
X153191536Y-109865841D01*
X153252044Y-109719762D01*
X153272682Y-109563000D01*
X153252044Y-109406238D01*
X153191537Y-109260161D01*
X153191537Y-109260160D01*
X153095286Y-109134723D01*
X153095285Y-109134722D01*
X153095282Y-109134718D01*
X153095277Y-109134714D01*
X153095276Y-109134713D01*
X152969838Y-109038462D01*
X152823766Y-108977957D01*
X152823758Y-108977955D01*
X152667001Y-108957318D01*
X152666999Y-108957318D01*
X152510241Y-108977955D01*
X152510233Y-108977957D01*
X152364161Y-109038462D01*
X152325994Y-109067748D01*
X152294334Y-109092042D01*
X152236659Y-109112466D01*
X152234068Y-109112500D01*
X148019932Y-109112500D01*
X147961741Y-109093593D01*
X147959684Y-109092056D01*
X147889841Y-109038464D01*
X147889840Y-109038463D01*
X147889838Y-109038462D01*
X147743766Y-108977957D01*
X147743758Y-108977955D01*
X147587001Y-108957318D01*
X147586999Y-108957318D01*
X147430241Y-108977955D01*
X147430233Y-108977957D01*
X147284161Y-109038462D01*
X147284160Y-109038462D01*
X147158723Y-109134713D01*
X147158713Y-109134723D01*
X147062462Y-109260160D01*
X147062462Y-109260161D01*
X147001957Y-109406233D01*
X147001955Y-109406241D01*
X146981318Y-109562999D01*
X134379000Y-109562999D01*
X134379000Y-108802034D01*
X154241500Y-108802034D01*
X154241500Y-109053965D01*
X154280908Y-109302780D01*
X154358759Y-109542379D01*
X154444042Y-109709758D01*
X154473130Y-109766845D01*
X154621207Y-109970656D01*
X154799344Y-110148793D01*
X155003155Y-110296870D01*
X155227621Y-110411241D01*
X155467215Y-110489090D01*
X155467216Y-110489090D01*
X155467219Y-110489091D01*
X155716035Y-110528500D01*
X155716038Y-110528500D01*
X155967965Y-110528500D01*
X156216780Y-110489091D01*
X156216781Y-110489090D01*
X156216785Y-110489090D01*
X156456379Y-110411241D01*
X156680845Y-110296870D01*
X156884656Y-110148793D01*
X157062793Y-109970656D01*
X157210870Y-109766845D01*
X157325241Y-109542379D01*
X157403090Y-109302785D01*
X157409841Y-109260160D01*
X157442500Y-109053965D01*
X157442500Y-108802034D01*
X157403091Y-108553219D01*
X157403090Y-108553215D01*
X157325241Y-108313621D01*
X157239963Y-108146253D01*
X162880500Y-108146253D01*
X162880500Y-109709746D01*
X162880501Y-109709758D01*
X162891857Y-109766845D01*
X162892133Y-109768231D01*
X162936448Y-109834552D01*
X163002769Y-109878867D01*
X163047231Y-109887711D01*
X163061241Y-109890498D01*
X163061246Y-109890498D01*
X163061252Y-109890500D01*
X163061253Y-109890500D01*
X164624747Y-109890500D01*
X164624748Y-109890500D01*
X164683231Y-109878867D01*
X164749552Y-109834552D01*
X164793867Y-109768231D01*
X164805500Y-109709748D01*
X164805500Y-108146252D01*
X164793867Y-108087769D01*
X164749552Y-108021448D01*
X164749548Y-108021445D01*
X164683233Y-107977134D01*
X164683231Y-107977133D01*
X164683228Y-107977132D01*
X164683227Y-107977132D01*
X164624758Y-107965501D01*
X164624748Y-107965500D01*
X163061252Y-107965500D01*
X163061251Y-107965500D01*
X163061241Y-107965501D01*
X163002772Y-107977132D01*
X163002766Y-107977134D01*
X162936451Y-108021445D01*
X162936445Y-108021451D01*
X162892134Y-108087766D01*
X162892132Y-108087772D01*
X162880501Y-108146241D01*
X162880500Y-108146253D01*
X157239963Y-108146253D01*
X157210870Y-108089155D01*
X157062793Y-107885344D01*
X156884656Y-107707207D01*
X156680845Y-107559130D01*
X156680844Y-107559129D01*
X156680842Y-107559128D01*
X156456379Y-107444759D01*
X156216780Y-107366908D01*
X155967965Y-107327500D01*
X155967962Y-107327500D01*
X155716038Y-107327500D01*
X155716035Y-107327500D01*
X155467219Y-107366908D01*
X155227620Y-107444759D01*
X155003157Y-107559128D01*
X154799345Y-107707206D01*
X154621206Y-107885345D01*
X154473128Y-108089157D01*
X154358759Y-108313620D01*
X154280908Y-108553219D01*
X154241500Y-108802034D01*
X134379000Y-108802034D01*
X134379000Y-107175399D01*
X146168518Y-107175399D01*
X146168518Y-107175400D01*
X146189155Y-107332158D01*
X146189157Y-107332166D01*
X146249662Y-107478238D01*
X146249662Y-107478239D01*
X146311732Y-107559130D01*
X146345918Y-107603682D01*
X146471359Y-107699936D01*
X146471360Y-107699936D01*
X146471361Y-107699937D01*
X146617433Y-107760442D01*
X146617438Y-107760444D01*
X146735009Y-107775922D01*
X146774199Y-107781082D01*
X146774200Y-107781082D01*
X146774201Y-107781082D01*
X146805552Y-107776954D01*
X146930962Y-107760444D01*
X147077041Y-107699936D01*
X147202482Y-107603682D01*
X147298736Y-107478241D01*
X147359244Y-107332162D01*
X147370731Y-107244902D01*
X147397071Y-107189678D01*
X147398842Y-107187859D01*
X148980449Y-105606253D01*
X162880500Y-105606253D01*
X162880500Y-107169746D01*
X162880501Y-107169758D01*
X162892132Y-107228227D01*
X162892134Y-107228233D01*
X162936445Y-107294548D01*
X162936448Y-107294552D01*
X163002769Y-107338867D01*
X163047231Y-107347711D01*
X163061241Y-107350498D01*
X163061246Y-107350498D01*
X163061252Y-107350500D01*
X163061253Y-107350500D01*
X164624747Y-107350500D01*
X164624748Y-107350500D01*
X164683231Y-107338867D01*
X164749552Y-107294552D01*
X164793867Y-107228231D01*
X164805500Y-107169748D01*
X164805500Y-105606252D01*
X164793867Y-105547769D01*
X164749552Y-105481448D01*
X164749548Y-105481445D01*
X164683233Y-105437134D01*
X164683231Y-105437133D01*
X164683228Y-105437132D01*
X164683227Y-105437132D01*
X164624758Y-105425501D01*
X164624748Y-105425500D01*
X163061252Y-105425500D01*
X163061251Y-105425500D01*
X163061241Y-105425501D01*
X163002772Y-105437132D01*
X163002766Y-105437134D01*
X162936451Y-105481445D01*
X162936445Y-105481451D01*
X162892134Y-105547766D01*
X162892132Y-105547772D01*
X162880501Y-105606241D01*
X162880500Y-105606253D01*
X148980449Y-105606253D01*
X150357783Y-104228920D01*
X150417093Y-104126193D01*
X150420035Y-104115209D01*
X150423581Y-104101978D01*
X150423581Y-104101975D01*
X150447794Y-104011615D01*
X150447794Y-100799997D01*
X164200317Y-100799997D01*
X164200317Y-100800002D01*
X164219021Y-101049593D01*
X164219023Y-101049603D01*
X164274718Y-101293623D01*
X164366160Y-101526611D01*
X164366169Y-101526630D01*
X164491308Y-101743377D01*
X164491312Y-101743383D01*
X164592542Y-101870323D01*
X165177214Y-101285650D01*
X165214762Y-101341844D01*
X165333156Y-101460238D01*
X165389347Y-101497783D01*
X164803339Y-102083792D01*
X164830850Y-102109318D01*
X164830854Y-102109321D01*
X165037662Y-102250320D01*
X165263169Y-102358917D01*
X165502343Y-102432693D01*
X165502353Y-102432695D01*
X165749847Y-102469999D01*
X165749856Y-102470000D01*
X166000144Y-102470000D01*
X166000152Y-102469999D01*
X166247646Y-102432695D01*
X166247656Y-102432693D01*
X166486830Y-102358917D01*
X166712338Y-102250320D01*
X166919139Y-102109326D01*
X166919149Y-102109318D01*
X166946660Y-102083792D01*
X166360652Y-101497784D01*
X166416844Y-101460238D01*
X166535238Y-101341844D01*
X166572784Y-101285651D01*
X167157456Y-101870323D01*
X167258681Y-101743391D01*
X167258691Y-101743377D01*
X167383830Y-101526630D01*
X167383839Y-101526611D01*
X167475281Y-101293623D01*
X167530976Y-101049603D01*
X167530978Y-101049593D01*
X167549683Y-100800002D01*
X167549683Y-100799997D01*
X169280317Y-100799997D01*
X169280317Y-100800002D01*
X169299021Y-101049593D01*
X169299023Y-101049603D01*
X169354718Y-101293623D01*
X169446160Y-101526611D01*
X169446169Y-101526630D01*
X169571308Y-101743377D01*
X169571312Y-101743383D01*
X169672542Y-101870323D01*
X170257214Y-101285650D01*
X170294762Y-101341844D01*
X170413156Y-101460238D01*
X170469347Y-101497783D01*
X169883339Y-102083792D01*
X169910850Y-102109318D01*
X169910854Y-102109321D01*
X170117662Y-102250320D01*
X170343169Y-102358917D01*
X170582343Y-102432693D01*
X170582353Y-102432695D01*
X170829847Y-102469999D01*
X170829856Y-102470000D01*
X171080144Y-102470000D01*
X171080152Y-102469999D01*
X171327646Y-102432695D01*
X171327656Y-102432693D01*
X171566830Y-102358917D01*
X171792338Y-102250320D01*
X171999139Y-102109326D01*
X171999149Y-102109318D01*
X172026660Y-102083792D01*
X171440652Y-101497784D01*
X171496844Y-101460238D01*
X171615238Y-101341844D01*
X171652784Y-101285651D01*
X172237456Y-101870323D01*
X172338681Y-101743391D01*
X172338691Y-101743377D01*
X172463830Y-101526630D01*
X172463839Y-101526611D01*
X172555281Y-101293623D01*
X172610976Y-101049603D01*
X172610978Y-101049593D01*
X172629683Y-100800002D01*
X172629683Y-100799997D01*
X172610978Y-100550406D01*
X172610976Y-100550396D01*
X172555281Y-100306376D01*
X172463839Y-100073388D01*
X172463830Y-100073369D01*
X172338691Y-99856622D01*
X172338687Y-99856616D01*
X172237456Y-99729675D01*
X171652783Y-100314347D01*
X171615238Y-100258156D01*
X171496844Y-100139762D01*
X171440650Y-100102214D01*
X172026659Y-99516206D01*
X171999150Y-99490682D01*
X171792334Y-99349678D01*
X171566830Y-99241082D01*
X171327656Y-99167306D01*
X171327646Y-99167304D01*
X171080152Y-99130000D01*
X170829847Y-99130000D01*
X170582353Y-99167304D01*
X170582343Y-99167306D01*
X170343169Y-99241082D01*
X170117662Y-99349679D01*
X169910851Y-99490680D01*
X169883339Y-99516206D01*
X170469348Y-100102215D01*
X170413156Y-100139762D01*
X170294762Y-100258156D01*
X170257215Y-100314348D01*
X169672542Y-99729675D01*
X169571310Y-99856619D01*
X169446164Y-100073379D01*
X169446160Y-100073388D01*
X169354718Y-100306376D01*
X169299023Y-100550396D01*
X169299021Y-100550406D01*
X169280317Y-100799997D01*
X167549683Y-100799997D01*
X167530978Y-100550406D01*
X167530976Y-100550396D01*
X167475281Y-100306376D01*
X167383839Y-100073388D01*
X167383830Y-100073369D01*
X167258691Y-99856622D01*
X167258687Y-99856616D01*
X167157456Y-99729675D01*
X166572783Y-100314347D01*
X166535238Y-100258156D01*
X166416844Y-100139762D01*
X166360650Y-100102214D01*
X166946659Y-99516206D01*
X166919150Y-99490682D01*
X166712334Y-99349678D01*
X166486830Y-99241082D01*
X166247656Y-99167306D01*
X166247646Y-99167304D01*
X166000152Y-99130000D01*
X165749847Y-99130000D01*
X165502353Y-99167304D01*
X165502343Y-99167306D01*
X165263169Y-99241082D01*
X165037662Y-99349679D01*
X164830851Y-99490680D01*
X164803339Y-99516206D01*
X165389348Y-100102215D01*
X165333156Y-100139762D01*
X165214762Y-100258156D01*
X165177215Y-100314348D01*
X164592542Y-99729675D01*
X164491310Y-99856619D01*
X164366164Y-100073379D01*
X164366160Y-100073388D01*
X164274718Y-100306376D01*
X164219023Y-100550396D01*
X164219021Y-100550406D01*
X164200317Y-100799997D01*
X150447794Y-100799997D01*
X150447794Y-98259996D01*
X167089456Y-98259996D01*
X167089456Y-98260003D01*
X167109592Y-98490170D01*
X167109593Y-98490177D01*
X167109594Y-98490178D01*
X167169396Y-98713363D01*
X167267045Y-98922772D01*
X167399574Y-99112043D01*
X167562957Y-99275426D01*
X167752228Y-99407955D01*
X167961637Y-99505604D01*
X168184822Y-99565406D01*
X168184826Y-99565406D01*
X168184829Y-99565407D01*
X168414997Y-99585544D01*
X168415000Y-99585544D01*
X168415003Y-99585544D01*
X168645170Y-99565407D01*
X168645171Y-99565406D01*
X168645178Y-99565406D01*
X168868363Y-99505604D01*
X169077772Y-99407955D01*
X169267043Y-99275426D01*
X169430426Y-99112043D01*
X169562955Y-98922772D01*
X169660604Y-98713363D01*
X169720406Y-98490178D01*
X169740544Y-98260000D01*
X169720406Y-98029822D01*
X169660604Y-97806637D01*
X169562955Y-97597228D01*
X169430426Y-97407957D01*
X169267043Y-97244574D01*
X169267039Y-97244571D01*
X169267038Y-97244570D01*
X169160997Y-97170320D01*
X169077772Y-97112045D01*
X168868363Y-97014396D01*
X168645178Y-96954594D01*
X168645177Y-96954593D01*
X168645170Y-96954592D01*
X168415003Y-96934456D01*
X168414997Y-96934456D01*
X168184829Y-96954592D01*
X167961637Y-97014396D01*
X167752229Y-97112044D01*
X167562961Y-97244570D01*
X167399570Y-97407961D01*
X167267044Y-97597229D01*
X167169396Y-97806637D01*
X167109592Y-98029829D01*
X167089456Y-98259996D01*
X150447794Y-98259996D01*
X150447794Y-95719997D01*
X164200317Y-95719997D01*
X164200317Y-95720002D01*
X164219021Y-95969593D01*
X164219023Y-95969603D01*
X164274718Y-96213623D01*
X164366160Y-96446611D01*
X164366169Y-96446630D01*
X164491308Y-96663377D01*
X164491312Y-96663383D01*
X164592542Y-96790323D01*
X165177214Y-96205650D01*
X165214762Y-96261844D01*
X165333156Y-96380238D01*
X165389347Y-96417783D01*
X164803339Y-97003792D01*
X164830850Y-97029318D01*
X164830854Y-97029321D01*
X165037662Y-97170320D01*
X165263169Y-97278917D01*
X165502343Y-97352693D01*
X165502353Y-97352695D01*
X165749847Y-97389999D01*
X165749856Y-97390000D01*
X166000144Y-97390000D01*
X166000152Y-97389999D01*
X166247646Y-97352695D01*
X166247656Y-97352693D01*
X166486830Y-97278917D01*
X166712338Y-97170320D01*
X166919139Y-97029326D01*
X166919149Y-97029318D01*
X166946660Y-97003792D01*
X166360652Y-96417784D01*
X166416844Y-96380238D01*
X166535238Y-96261844D01*
X166572784Y-96205651D01*
X167157456Y-96790323D01*
X167258681Y-96663391D01*
X167258691Y-96663377D01*
X167383830Y-96446630D01*
X167383839Y-96446611D01*
X167475281Y-96213623D01*
X167530976Y-95969603D01*
X167530978Y-95969593D01*
X167549683Y-95720002D01*
X167549683Y-95719997D01*
X169280317Y-95719997D01*
X169280317Y-95720002D01*
X169299021Y-95969593D01*
X169299023Y-95969603D01*
X169354718Y-96213623D01*
X169446160Y-96446611D01*
X169446169Y-96446630D01*
X169571308Y-96663377D01*
X169571312Y-96663383D01*
X169672542Y-96790323D01*
X170257214Y-96205650D01*
X170294762Y-96261844D01*
X170413156Y-96380238D01*
X170469347Y-96417783D01*
X169883339Y-97003792D01*
X169910850Y-97029318D01*
X169910854Y-97029321D01*
X170117662Y-97170320D01*
X170343169Y-97278917D01*
X170582343Y-97352693D01*
X170582353Y-97352695D01*
X170829847Y-97389999D01*
X170829856Y-97390000D01*
X171080144Y-97390000D01*
X171080152Y-97389999D01*
X171327646Y-97352695D01*
X171327656Y-97352693D01*
X171566830Y-97278917D01*
X171792338Y-97170320D01*
X171999139Y-97029326D01*
X171999149Y-97029318D01*
X172026660Y-97003792D01*
X171440652Y-96417784D01*
X171496844Y-96380238D01*
X171615238Y-96261844D01*
X171652784Y-96205651D01*
X172237456Y-96790323D01*
X172338681Y-96663391D01*
X172338691Y-96663377D01*
X172463830Y-96446630D01*
X172463839Y-96446611D01*
X172555281Y-96213623D01*
X172610976Y-95969603D01*
X172610978Y-95969593D01*
X172629683Y-95720002D01*
X172629683Y-95719997D01*
X172610978Y-95470406D01*
X172610976Y-95470396D01*
X172555281Y-95226376D01*
X172463839Y-94993388D01*
X172463830Y-94993369D01*
X172338691Y-94776622D01*
X172338687Y-94776616D01*
X172237456Y-94649675D01*
X171652783Y-95234347D01*
X171615238Y-95178156D01*
X171496844Y-95059762D01*
X171440650Y-95022214D01*
X172026659Y-94436206D01*
X171999150Y-94410682D01*
X171792334Y-94269678D01*
X171566830Y-94161082D01*
X171327656Y-94087306D01*
X171327646Y-94087304D01*
X171080152Y-94050000D01*
X170829847Y-94050000D01*
X170582353Y-94087304D01*
X170582343Y-94087306D01*
X170343169Y-94161082D01*
X170117662Y-94269679D01*
X169910851Y-94410680D01*
X169883339Y-94436206D01*
X170469348Y-95022215D01*
X170413156Y-95059762D01*
X170294762Y-95178156D01*
X170257215Y-95234348D01*
X169672542Y-94649675D01*
X169571310Y-94776619D01*
X169446164Y-94993379D01*
X169446160Y-94993388D01*
X169354718Y-95226376D01*
X169299023Y-95470396D01*
X169299021Y-95470406D01*
X169280317Y-95719997D01*
X167549683Y-95719997D01*
X167530978Y-95470406D01*
X167530976Y-95470396D01*
X167475281Y-95226376D01*
X167383839Y-94993388D01*
X167383830Y-94993369D01*
X167258691Y-94776622D01*
X167258687Y-94776616D01*
X167157456Y-94649675D01*
X166572783Y-95234347D01*
X166535238Y-95178156D01*
X166416844Y-95059762D01*
X166360650Y-95022214D01*
X166946659Y-94436206D01*
X166919150Y-94410682D01*
X166712334Y-94269678D01*
X166486830Y-94161082D01*
X166247656Y-94087306D01*
X166247646Y-94087304D01*
X166000152Y-94050000D01*
X165749847Y-94050000D01*
X165502353Y-94087304D01*
X165502343Y-94087306D01*
X165263169Y-94161082D01*
X165037662Y-94269679D01*
X164830851Y-94410680D01*
X164803339Y-94436206D01*
X165389348Y-95022215D01*
X165333156Y-95059762D01*
X165214762Y-95178156D01*
X165177215Y-95234348D01*
X164592542Y-94649675D01*
X164491310Y-94776619D01*
X164366164Y-94993379D01*
X164366160Y-94993388D01*
X164274718Y-95226376D01*
X164219023Y-95470396D01*
X164219021Y-95470406D01*
X164200317Y-95719997D01*
X150447794Y-95719997D01*
X150447794Y-90662356D01*
X150466701Y-90604165D01*
X150468214Y-90602139D01*
X150499136Y-90561841D01*
X150559644Y-90415762D01*
X150580282Y-90259000D01*
X150559644Y-90102238D01*
X150499137Y-89956161D01*
X150499137Y-89956160D01*
X150402886Y-89830723D01*
X150402885Y-89830722D01*
X150402882Y-89830718D01*
X150402877Y-89830714D01*
X150402876Y-89830713D01*
X150277438Y-89734462D01*
X150131366Y-89673957D01*
X150131358Y-89673955D01*
X149974601Y-89653318D01*
X149974599Y-89653318D01*
X149817841Y-89673955D01*
X149817833Y-89673957D01*
X149671761Y-89734462D01*
X149671760Y-89734462D01*
X149546323Y-89830713D01*
X149546313Y-89830723D01*
X149450062Y-89956160D01*
X149450062Y-89956161D01*
X149389557Y-90102233D01*
X149389555Y-90102241D01*
X149377653Y-90192650D01*
X149351312Y-90247875D01*
X149330682Y-90259075D01*
X149359593Y-90280080D01*
X149377653Y-90325349D01*
X149389555Y-90415758D01*
X149389557Y-90415766D01*
X149450062Y-90561838D01*
X149450062Y-90561839D01*
X149526336Y-90661241D01*
X149546760Y-90718917D01*
X149546794Y-90721508D01*
X149546794Y-103724694D01*
X149527887Y-103782885D01*
X149517798Y-103794698D01*
X146761777Y-106550718D01*
X146707260Y-106578495D01*
X146704696Y-106578867D01*
X146617437Y-106590356D01*
X146471361Y-106650862D01*
X146471360Y-106650862D01*
X146345923Y-106747113D01*
X146345913Y-106747123D01*
X146249662Y-106872560D01*
X146249662Y-106872561D01*
X146189157Y-107018633D01*
X146189155Y-107018641D01*
X146168518Y-107175399D01*
X134379000Y-107175399D01*
X134379000Y-82960691D01*
X134944500Y-82960691D01*
X134944500Y-102010691D01*
X134944500Y-102519307D01*
X134968713Y-102609671D01*
X134968712Y-102609671D01*
X134975200Y-102633884D01*
X134975202Y-102633888D01*
X135034507Y-102736607D01*
X135034509Y-102736609D01*
X135034511Y-102736612D01*
X136193387Y-103895488D01*
X136193389Y-103895489D01*
X136193391Y-103895491D01*
X136296108Y-103954795D01*
X136296110Y-103954796D01*
X136296114Y-103954798D01*
X136320323Y-103961283D01*
X136320326Y-103961286D01*
X136320327Y-103961285D01*
X136410689Y-103985498D01*
X136410691Y-103985499D01*
X136410692Y-103985499D01*
X142347388Y-103985499D01*
X142405579Y-104004406D01*
X142417392Y-104014495D01*
X144643386Y-106240489D01*
X144643388Y-106240490D01*
X144643389Y-106240491D01*
X144643390Y-106240492D01*
X144746107Y-106299796D01*
X144746109Y-106299797D01*
X144746113Y-106299799D01*
X144770322Y-106306284D01*
X144770325Y-106306287D01*
X144770326Y-106306286D01*
X144860688Y-106330499D01*
X144860690Y-106330500D01*
X144860691Y-106330500D01*
X145757068Y-106330500D01*
X145815259Y-106349407D01*
X145817315Y-106350943D01*
X145887159Y-106404536D01*
X146033238Y-106465044D01*
X146150809Y-106480522D01*
X146189999Y-106485682D01*
X146190000Y-106485682D01*
X146190001Y-106485682D01*
X146221352Y-106481554D01*
X146346762Y-106465044D01*
X146492841Y-106404536D01*
X146618282Y-106308282D01*
X146714536Y-106182841D01*
X146775044Y-106036762D01*
X146795682Y-105880000D01*
X146775044Y-105723238D01*
X146714537Y-105577161D01*
X146714537Y-105577160D01*
X146618286Y-105451723D01*
X146618285Y-105451722D01*
X146618282Y-105451718D01*
X146618277Y-105451714D01*
X146618276Y-105451713D01*
X146492838Y-105355462D01*
X146346766Y-105294957D01*
X146346758Y-105294955D01*
X146190001Y-105274318D01*
X146189999Y-105274318D01*
X146033241Y-105294955D01*
X146033233Y-105294957D01*
X145887161Y-105355462D01*
X145848994Y-105384748D01*
X145817334Y-105409042D01*
X145759659Y-105429466D01*
X145757068Y-105429500D01*
X145147611Y-105429500D01*
X145089420Y-105410593D01*
X145077607Y-105400504D01*
X144951421Y-105274318D01*
X142851613Y-103174510D01*
X142851610Y-103174508D01*
X142851609Y-103174507D01*
X142851608Y-103174506D01*
X142748889Y-103115201D01*
X142748885Y-103115199D01*
X142724672Y-103108711D01*
X142724672Y-103108712D01*
X142634308Y-103084499D01*
X142634306Y-103084499D01*
X136697612Y-103084499D01*
X136639421Y-103065592D01*
X136627608Y-103055503D01*
X135874496Y-102302391D01*
X135846719Y-102247874D01*
X135845500Y-102232387D01*
X135845500Y-100799997D01*
X136260317Y-100799997D01*
X136260317Y-100800002D01*
X136279021Y-101049593D01*
X136279023Y-101049603D01*
X136334718Y-101293623D01*
X136426160Y-101526611D01*
X136426169Y-101526630D01*
X136551308Y-101743377D01*
X136551312Y-101743383D01*
X136652542Y-101870323D01*
X137237214Y-101285650D01*
X137274762Y-101341844D01*
X137393156Y-101460238D01*
X137449347Y-101497783D01*
X136863339Y-102083792D01*
X136890850Y-102109318D01*
X136890854Y-102109321D01*
X137097662Y-102250320D01*
X137323169Y-102358917D01*
X137562343Y-102432693D01*
X137562353Y-102432695D01*
X137809847Y-102469999D01*
X137809856Y-102470000D01*
X138060144Y-102470000D01*
X138060152Y-102469999D01*
X138307646Y-102432695D01*
X138307656Y-102432693D01*
X138546830Y-102358917D01*
X138772338Y-102250320D01*
X138979139Y-102109326D01*
X138979149Y-102109318D01*
X139006659Y-102083792D01*
X138420651Y-101497784D01*
X138476844Y-101460238D01*
X138595238Y-101341844D01*
X138632784Y-101285651D01*
X139217456Y-101870323D01*
X139318681Y-101743391D01*
X139318691Y-101743377D01*
X139443830Y-101526630D01*
X139443839Y-101526611D01*
X139535281Y-101293623D01*
X139590976Y-101049603D01*
X139590978Y-101049593D01*
X139609683Y-100800002D01*
X139609683Y-100799997D01*
X141340317Y-100799997D01*
X141340317Y-100800002D01*
X141359021Y-101049593D01*
X141359023Y-101049603D01*
X141414718Y-101293623D01*
X141506160Y-101526611D01*
X141506169Y-101526630D01*
X141631308Y-101743377D01*
X141631312Y-101743383D01*
X141732542Y-101870323D01*
X142317214Y-101285650D01*
X142354762Y-101341844D01*
X142473156Y-101460238D01*
X142529347Y-101497783D01*
X141943339Y-102083792D01*
X141970850Y-102109318D01*
X141970854Y-102109321D01*
X142177662Y-102250320D01*
X142403169Y-102358917D01*
X142642343Y-102432693D01*
X142642353Y-102432695D01*
X142889847Y-102469999D01*
X142889856Y-102470000D01*
X143140144Y-102470000D01*
X143140152Y-102469999D01*
X143387646Y-102432695D01*
X143387656Y-102432693D01*
X143626830Y-102358917D01*
X143852338Y-102250320D01*
X144059139Y-102109326D01*
X144059149Y-102109318D01*
X144086659Y-102083792D01*
X143500651Y-101497784D01*
X143556844Y-101460238D01*
X143675238Y-101341844D01*
X143712784Y-101285651D01*
X144297456Y-101870323D01*
X144398681Y-101743391D01*
X144398691Y-101743377D01*
X144523830Y-101526630D01*
X144523839Y-101526611D01*
X144615281Y-101293623D01*
X144670976Y-101049603D01*
X144670978Y-101049593D01*
X144689683Y-100800002D01*
X144689683Y-100799997D01*
X144670978Y-100550406D01*
X144670976Y-100550396D01*
X144615281Y-100306376D01*
X144523839Y-100073388D01*
X144523830Y-100073369D01*
X144398691Y-99856622D01*
X144398687Y-99856616D01*
X144297456Y-99729675D01*
X143712783Y-100314347D01*
X143675238Y-100258156D01*
X143556844Y-100139762D01*
X143500650Y-100102214D01*
X144086659Y-99516206D01*
X144059150Y-99490682D01*
X143852334Y-99349678D01*
X143626830Y-99241082D01*
X143387656Y-99167306D01*
X143387646Y-99167304D01*
X143140152Y-99130000D01*
X142889847Y-99130000D01*
X142642353Y-99167304D01*
X142642343Y-99167306D01*
X142403169Y-99241082D01*
X142177662Y-99349679D01*
X141970851Y-99490680D01*
X141943339Y-99516206D01*
X142529348Y-100102215D01*
X142473156Y-100139762D01*
X142354762Y-100258156D01*
X142317215Y-100314348D01*
X141732542Y-99729675D01*
X141631310Y-99856619D01*
X141506164Y-100073379D01*
X141506160Y-100073388D01*
X141414718Y-100306376D01*
X141359023Y-100550396D01*
X141359021Y-100550406D01*
X141340317Y-100799997D01*
X139609683Y-100799997D01*
X139590978Y-100550406D01*
X139590976Y-100550396D01*
X139535281Y-100306376D01*
X139443839Y-100073388D01*
X139443830Y-100073369D01*
X139318691Y-99856622D01*
X139318687Y-99856616D01*
X139217456Y-99729675D01*
X138632783Y-100314347D01*
X138595238Y-100258156D01*
X138476844Y-100139762D01*
X138420650Y-100102214D01*
X139006659Y-99516206D01*
X138979150Y-99490682D01*
X138772334Y-99349678D01*
X138546830Y-99241082D01*
X138307656Y-99167306D01*
X138307646Y-99167304D01*
X138060152Y-99130000D01*
X137809847Y-99130000D01*
X137562353Y-99167304D01*
X137562343Y-99167306D01*
X137323169Y-99241082D01*
X137097662Y-99349679D01*
X136890851Y-99490680D01*
X136863339Y-99516206D01*
X137449348Y-100102215D01*
X137393156Y-100139762D01*
X137274762Y-100258156D01*
X137237215Y-100314348D01*
X136652542Y-99729675D01*
X136551310Y-99856619D01*
X136426164Y-100073379D01*
X136426160Y-100073388D01*
X136334718Y-100306376D01*
X136279023Y-100550396D01*
X136279021Y-100550406D01*
X136260317Y-100799997D01*
X135845500Y-100799997D01*
X135845500Y-98259996D01*
X139149456Y-98259996D01*
X139149456Y-98260003D01*
X139169592Y-98490170D01*
X139169593Y-98490177D01*
X139169594Y-98490178D01*
X139229396Y-98713363D01*
X139327045Y-98922772D01*
X139459574Y-99112043D01*
X139622957Y-99275426D01*
X139812228Y-99407955D01*
X140021637Y-99505604D01*
X140244822Y-99565406D01*
X140244826Y-99565406D01*
X140244829Y-99565407D01*
X140474997Y-99585544D01*
X140475000Y-99585544D01*
X140475003Y-99585544D01*
X140705170Y-99565407D01*
X140705171Y-99565406D01*
X140705178Y-99565406D01*
X140928363Y-99505604D01*
X141137772Y-99407955D01*
X141327043Y-99275426D01*
X141490426Y-99112043D01*
X141622955Y-98922772D01*
X141720604Y-98713363D01*
X141780406Y-98490178D01*
X141800544Y-98260000D01*
X141780406Y-98029822D01*
X141720604Y-97806637D01*
X141622955Y-97597228D01*
X141490426Y-97407957D01*
X141327043Y-97244574D01*
X141327039Y-97244571D01*
X141327038Y-97244570D01*
X141220997Y-97170320D01*
X141137772Y-97112045D01*
X140928363Y-97014396D01*
X140705178Y-96954594D01*
X140705177Y-96954593D01*
X140705170Y-96954592D01*
X140475003Y-96934456D01*
X140474997Y-96934456D01*
X140244829Y-96954592D01*
X140021637Y-97014396D01*
X139812229Y-97112044D01*
X139622961Y-97244570D01*
X139459570Y-97407961D01*
X139327044Y-97597229D01*
X139229396Y-97806637D01*
X139169592Y-98029829D01*
X139149456Y-98259996D01*
X135845500Y-98259996D01*
X135845500Y-95719997D01*
X136260317Y-95719997D01*
X136260317Y-95720002D01*
X136279021Y-95969593D01*
X136279023Y-95969603D01*
X136334718Y-96213623D01*
X136426160Y-96446611D01*
X136426169Y-96446630D01*
X136551308Y-96663377D01*
X136551312Y-96663383D01*
X136652542Y-96790323D01*
X137237214Y-96205650D01*
X137274762Y-96261844D01*
X137393156Y-96380238D01*
X137449347Y-96417783D01*
X136863339Y-97003792D01*
X136890850Y-97029318D01*
X136890854Y-97029321D01*
X137097662Y-97170320D01*
X137323169Y-97278917D01*
X137562343Y-97352693D01*
X137562353Y-97352695D01*
X137809847Y-97389999D01*
X137809856Y-97390000D01*
X138060144Y-97390000D01*
X138060152Y-97389999D01*
X138307646Y-97352695D01*
X138307656Y-97352693D01*
X138546830Y-97278917D01*
X138772338Y-97170320D01*
X138979139Y-97029326D01*
X138979149Y-97029318D01*
X139006659Y-97003792D01*
X138420651Y-96417784D01*
X138476844Y-96380238D01*
X138595238Y-96261844D01*
X138632784Y-96205651D01*
X139217456Y-96790323D01*
X139318681Y-96663391D01*
X139318691Y-96663377D01*
X139443830Y-96446630D01*
X139443839Y-96446611D01*
X139535281Y-96213623D01*
X139590976Y-95969603D01*
X139590978Y-95969593D01*
X139609683Y-95720002D01*
X139609683Y-95719997D01*
X141340317Y-95719997D01*
X141340317Y-95720002D01*
X141359021Y-95969593D01*
X141359023Y-95969603D01*
X141414718Y-96213623D01*
X141506160Y-96446611D01*
X141506169Y-96446630D01*
X141631308Y-96663377D01*
X141631312Y-96663383D01*
X141732542Y-96790323D01*
X142317214Y-96205650D01*
X142354762Y-96261844D01*
X142473156Y-96380238D01*
X142529347Y-96417783D01*
X141943339Y-97003792D01*
X141970850Y-97029318D01*
X141970854Y-97029321D01*
X142177662Y-97170320D01*
X142403169Y-97278917D01*
X142642343Y-97352693D01*
X142642353Y-97352695D01*
X142889847Y-97389999D01*
X142889856Y-97390000D01*
X143140144Y-97390000D01*
X143140152Y-97389999D01*
X143387646Y-97352695D01*
X143387656Y-97352693D01*
X143626830Y-97278917D01*
X143852338Y-97170320D01*
X144059139Y-97029326D01*
X144059149Y-97029318D01*
X144086660Y-97003792D01*
X143500652Y-96417784D01*
X143556844Y-96380238D01*
X143675238Y-96261844D01*
X143712784Y-96205651D01*
X144297456Y-96790323D01*
X144398681Y-96663391D01*
X144398691Y-96663377D01*
X144523830Y-96446630D01*
X144523839Y-96446611D01*
X144615281Y-96213623D01*
X144670976Y-95969603D01*
X144670978Y-95969593D01*
X144689683Y-95720002D01*
X144689683Y-95719997D01*
X144670978Y-95470406D01*
X144670976Y-95470396D01*
X144615281Y-95226376D01*
X144523839Y-94993388D01*
X144523830Y-94993369D01*
X144398691Y-94776622D01*
X144398687Y-94776616D01*
X144297456Y-94649675D01*
X143712783Y-95234347D01*
X143675238Y-95178156D01*
X143556844Y-95059762D01*
X143500650Y-95022214D01*
X144072866Y-94449999D01*
X148124318Y-94449999D01*
X148124318Y-94450000D01*
X148144955Y-94606758D01*
X148144957Y-94606766D01*
X148205462Y-94752838D01*
X148205462Y-94752839D01*
X148295363Y-94870000D01*
X148301718Y-94878282D01*
X148427159Y-94974536D01*
X148427160Y-94974536D01*
X148427161Y-94974537D01*
X148573233Y-95035042D01*
X148573238Y-95035044D01*
X148690809Y-95050522D01*
X148729999Y-95055682D01*
X148730000Y-95055682D01*
X148730001Y-95055682D01*
X148761352Y-95051554D01*
X148886762Y-95035044D01*
X149032841Y-94974536D01*
X149158282Y-94878282D01*
X149254536Y-94752841D01*
X149315044Y-94606762D01*
X149335682Y-94450000D01*
X149315044Y-94293238D01*
X149254537Y-94147161D01*
X149254537Y-94147160D01*
X149200958Y-94077334D01*
X149180534Y-94019658D01*
X149180500Y-94017067D01*
X149180500Y-90338271D01*
X149199407Y-90280080D01*
X149227192Y-90259892D01*
X149192497Y-90226967D01*
X149180500Y-90179728D01*
X149180500Y-88327611D01*
X149199407Y-88269420D01*
X149209496Y-88257607D01*
X155995607Y-81471496D01*
X156050124Y-81443719D01*
X156065611Y-81442500D01*
X157131747Y-81442500D01*
X157131748Y-81442500D01*
X157190231Y-81430867D01*
X157256552Y-81386552D01*
X157300867Y-81320231D01*
X157312500Y-81261748D01*
X157312500Y-79698253D01*
X157927500Y-79698253D01*
X157927500Y-81261746D01*
X157927501Y-81261758D01*
X157939132Y-81320227D01*
X157939134Y-81320233D01*
X157983445Y-81386548D01*
X157983448Y-81386552D01*
X158049769Y-81430867D01*
X158094231Y-81439711D01*
X158108241Y-81442498D01*
X158108246Y-81442498D01*
X158108252Y-81442500D01*
X158340500Y-81442500D01*
X158398691Y-81461407D01*
X158434655Y-81510907D01*
X158439500Y-81541500D01*
X158439500Y-94017067D01*
X158420593Y-94075258D01*
X158419042Y-94077334D01*
X158365462Y-94147160D01*
X158365462Y-94147161D01*
X158304957Y-94293233D01*
X158304955Y-94293241D01*
X158284318Y-94449999D01*
X158284318Y-94450000D01*
X158304955Y-94606758D01*
X158304957Y-94606766D01*
X158365462Y-94752838D01*
X158365462Y-94752839D01*
X158455363Y-94870000D01*
X158461718Y-94878282D01*
X158587159Y-94974536D01*
X158587160Y-94974536D01*
X158587161Y-94974537D01*
X158733233Y-95035042D01*
X158733238Y-95035044D01*
X158850809Y-95050522D01*
X158889999Y-95055682D01*
X158890000Y-95055682D01*
X158890001Y-95055682D01*
X158921352Y-95051554D01*
X159046762Y-95035044D01*
X159192841Y-94974536D01*
X159318282Y-94878282D01*
X159414536Y-94752841D01*
X159475044Y-94606762D01*
X159495682Y-94450000D01*
X159475044Y-94293238D01*
X159414537Y-94147161D01*
X159414537Y-94147160D01*
X159360958Y-94077334D01*
X159340534Y-94019658D01*
X159340500Y-94017067D01*
X159340500Y-89369997D01*
X164200317Y-89369997D01*
X164200317Y-89370002D01*
X164219021Y-89619593D01*
X164219023Y-89619603D01*
X164274718Y-89863623D01*
X164366160Y-90096611D01*
X164366169Y-90096630D01*
X164491308Y-90313377D01*
X164491312Y-90313383D01*
X164592542Y-90440323D01*
X165177214Y-89855650D01*
X165214762Y-89911844D01*
X165333156Y-90030238D01*
X165389347Y-90067783D01*
X164803339Y-90653792D01*
X164830850Y-90679318D01*
X164830854Y-90679321D01*
X165037662Y-90820320D01*
X165263169Y-90928917D01*
X165502343Y-91002693D01*
X165502353Y-91002695D01*
X165749847Y-91039999D01*
X165749856Y-91040000D01*
X166000144Y-91040000D01*
X166000152Y-91039999D01*
X166247646Y-91002695D01*
X166247656Y-91002693D01*
X166486830Y-90928917D01*
X166712338Y-90820320D01*
X166919139Y-90679326D01*
X166919149Y-90679318D01*
X166946660Y-90653792D01*
X166360652Y-90067784D01*
X166416844Y-90030238D01*
X166535238Y-89911844D01*
X166572784Y-89855651D01*
X167157456Y-90440323D01*
X167258681Y-90313391D01*
X167258691Y-90313377D01*
X167383830Y-90096630D01*
X167383839Y-90096611D01*
X167475281Y-89863623D01*
X167530976Y-89619603D01*
X167530978Y-89619593D01*
X167549683Y-89370002D01*
X167549683Y-89369997D01*
X169280317Y-89369997D01*
X169280317Y-89370002D01*
X169299021Y-89619593D01*
X169299023Y-89619603D01*
X169354718Y-89863623D01*
X169446160Y-90096611D01*
X169446169Y-90096630D01*
X169571308Y-90313377D01*
X169571312Y-90313383D01*
X169672542Y-90440323D01*
X170257214Y-89855650D01*
X170294762Y-89911844D01*
X170413156Y-90030238D01*
X170469347Y-90067783D01*
X169883339Y-90653792D01*
X169910850Y-90679318D01*
X169910854Y-90679321D01*
X170117662Y-90820320D01*
X170343169Y-90928917D01*
X170582343Y-91002693D01*
X170582353Y-91002695D01*
X170829847Y-91039999D01*
X170829856Y-91040000D01*
X171080144Y-91040000D01*
X171080152Y-91039999D01*
X171327646Y-91002695D01*
X171327656Y-91002693D01*
X171566830Y-90928917D01*
X171792338Y-90820320D01*
X171999139Y-90679326D01*
X171999149Y-90679318D01*
X172026660Y-90653792D01*
X171440652Y-90067784D01*
X171496844Y-90030238D01*
X171615238Y-89911844D01*
X171652784Y-89855651D01*
X172237456Y-90440323D01*
X172338681Y-90313391D01*
X172338691Y-90313377D01*
X172463830Y-90096630D01*
X172463839Y-90096611D01*
X172555281Y-89863623D01*
X172610976Y-89619603D01*
X172610978Y-89619593D01*
X172629683Y-89370002D01*
X172629683Y-89369997D01*
X172610978Y-89120406D01*
X172610976Y-89120396D01*
X172555281Y-88876376D01*
X172463839Y-88643388D01*
X172463830Y-88643369D01*
X172338691Y-88426622D01*
X172338687Y-88426616D01*
X172237456Y-88299675D01*
X171652783Y-88884347D01*
X171615238Y-88828156D01*
X171496844Y-88709762D01*
X171440650Y-88672214D01*
X172026659Y-88086206D01*
X171999150Y-88060682D01*
X171792334Y-87919678D01*
X171566830Y-87811082D01*
X171327656Y-87737306D01*
X171327646Y-87737304D01*
X171080152Y-87700000D01*
X170829847Y-87700000D01*
X170582353Y-87737304D01*
X170582343Y-87737306D01*
X170343169Y-87811082D01*
X170117662Y-87919679D01*
X169910851Y-88060680D01*
X169883339Y-88086206D01*
X170469348Y-88672215D01*
X170413156Y-88709762D01*
X170294762Y-88828156D01*
X170257215Y-88884348D01*
X169672542Y-88299675D01*
X169571310Y-88426619D01*
X169446164Y-88643379D01*
X169446160Y-88643388D01*
X169354718Y-88876376D01*
X169299023Y-89120396D01*
X169299021Y-89120406D01*
X169280317Y-89369997D01*
X167549683Y-89369997D01*
X167530978Y-89120406D01*
X167530976Y-89120396D01*
X167475281Y-88876376D01*
X167383839Y-88643388D01*
X167383830Y-88643369D01*
X167258691Y-88426622D01*
X167258687Y-88426616D01*
X167157456Y-88299675D01*
X166572783Y-88884347D01*
X166535238Y-88828156D01*
X166416844Y-88709762D01*
X166360650Y-88672214D01*
X166946659Y-88086206D01*
X166919150Y-88060682D01*
X166712334Y-87919678D01*
X166486830Y-87811082D01*
X166247656Y-87737306D01*
X166247646Y-87737304D01*
X166000152Y-87700000D01*
X165749847Y-87700000D01*
X165502353Y-87737304D01*
X165502343Y-87737306D01*
X165263169Y-87811082D01*
X165037662Y-87919679D01*
X164830851Y-88060680D01*
X164803339Y-88086206D01*
X165389348Y-88672215D01*
X165333156Y-88709762D01*
X165214762Y-88828156D01*
X165177215Y-88884348D01*
X164592542Y-88299675D01*
X164491310Y-88426619D01*
X164366164Y-88643379D01*
X164366160Y-88643388D01*
X164274718Y-88876376D01*
X164219023Y-89120396D01*
X164219021Y-89120406D01*
X164200317Y-89369997D01*
X159340500Y-89369997D01*
X159340500Y-86829996D01*
X167089456Y-86829996D01*
X167089456Y-86830003D01*
X167109592Y-87060170D01*
X167109593Y-87060177D01*
X167109594Y-87060178D01*
X167169396Y-87283363D01*
X167267045Y-87492772D01*
X167399574Y-87682043D01*
X167562957Y-87845426D01*
X167752228Y-87977955D01*
X167961637Y-88075604D01*
X168184822Y-88135406D01*
X168184826Y-88135406D01*
X168184829Y-88135407D01*
X168414997Y-88155544D01*
X168415000Y-88155544D01*
X168415003Y-88155544D01*
X168645170Y-88135407D01*
X168645171Y-88135406D01*
X168645178Y-88135406D01*
X168868363Y-88075604D01*
X169077772Y-87977955D01*
X169267043Y-87845426D01*
X169430426Y-87682043D01*
X169562955Y-87492772D01*
X169660604Y-87283363D01*
X169720406Y-87060178D01*
X169740544Y-86830000D01*
X169720406Y-86599822D01*
X169660604Y-86376637D01*
X169562955Y-86167228D01*
X169430426Y-85977957D01*
X169267043Y-85814574D01*
X169267039Y-85814571D01*
X169267038Y-85814570D01*
X169160997Y-85740320D01*
X169077772Y-85682045D01*
X168868363Y-85584396D01*
X168645178Y-85524594D01*
X168645177Y-85524593D01*
X168645170Y-85524592D01*
X168415003Y-85504456D01*
X168414997Y-85504456D01*
X168184829Y-85524592D01*
X167961637Y-85584396D01*
X167752229Y-85682044D01*
X167562961Y-85814570D01*
X167399570Y-85977961D01*
X167267044Y-86167229D01*
X167169396Y-86376637D01*
X167109592Y-86599829D01*
X167089456Y-86829996D01*
X159340500Y-86829996D01*
X159340500Y-84289997D01*
X164200317Y-84289997D01*
X164200317Y-84290002D01*
X164219021Y-84539593D01*
X164219023Y-84539603D01*
X164274718Y-84783623D01*
X164366160Y-85016611D01*
X164366169Y-85016630D01*
X164491308Y-85233377D01*
X164491312Y-85233383D01*
X164592542Y-85360323D01*
X165177214Y-84775650D01*
X165214762Y-84831844D01*
X165333156Y-84950238D01*
X165389347Y-84987783D01*
X164803339Y-85573792D01*
X164830850Y-85599318D01*
X164830854Y-85599321D01*
X165037662Y-85740320D01*
X165263169Y-85848917D01*
X165502343Y-85922693D01*
X165502353Y-85922695D01*
X165749847Y-85959999D01*
X165749856Y-85960000D01*
X166000144Y-85960000D01*
X166000152Y-85959999D01*
X166247646Y-85922695D01*
X166247656Y-85922693D01*
X166486830Y-85848917D01*
X166712338Y-85740320D01*
X166919139Y-85599326D01*
X166919149Y-85599318D01*
X166946659Y-85573792D01*
X166360651Y-84987784D01*
X166416844Y-84950238D01*
X166535238Y-84831844D01*
X166572784Y-84775651D01*
X167157456Y-85360323D01*
X167258681Y-85233391D01*
X167258691Y-85233377D01*
X167383830Y-85016630D01*
X167383839Y-85016611D01*
X167475281Y-84783623D01*
X167530976Y-84539603D01*
X167530978Y-84539593D01*
X167549683Y-84290002D01*
X167549683Y-84289997D01*
X169280317Y-84289997D01*
X169280317Y-84290002D01*
X169299021Y-84539593D01*
X169299023Y-84539603D01*
X169354718Y-84783623D01*
X169446160Y-85016611D01*
X169446169Y-85016630D01*
X169571308Y-85233377D01*
X169571312Y-85233383D01*
X169672542Y-85360323D01*
X170257214Y-84775650D01*
X170294762Y-84831844D01*
X170413156Y-84950238D01*
X170469347Y-84987783D01*
X169883339Y-85573792D01*
X169910850Y-85599318D01*
X169910854Y-85599321D01*
X170117662Y-85740320D01*
X170343169Y-85848917D01*
X170582343Y-85922693D01*
X170582353Y-85922695D01*
X170829847Y-85959999D01*
X170829856Y-85960000D01*
X171080144Y-85960000D01*
X171080152Y-85959999D01*
X171327646Y-85922695D01*
X171327656Y-85922693D01*
X171566830Y-85848917D01*
X171792338Y-85740320D01*
X171999139Y-85599326D01*
X171999149Y-85599318D01*
X172026659Y-85573792D01*
X171440651Y-84987784D01*
X171496844Y-84950238D01*
X171615238Y-84831844D01*
X171652784Y-84775651D01*
X172237456Y-85360323D01*
X172338681Y-85233391D01*
X172338691Y-85233377D01*
X172463830Y-85016630D01*
X172463839Y-85016611D01*
X172555281Y-84783623D01*
X172610976Y-84539603D01*
X172610978Y-84539593D01*
X172629683Y-84290002D01*
X172629683Y-84289997D01*
X172610978Y-84040406D01*
X172610976Y-84040396D01*
X172555281Y-83796376D01*
X172463839Y-83563388D01*
X172463830Y-83563369D01*
X172338691Y-83346622D01*
X172338687Y-83346616D01*
X172237456Y-83219675D01*
X171652783Y-83804347D01*
X171615238Y-83748156D01*
X171496844Y-83629762D01*
X171440650Y-83592214D01*
X172026659Y-83006206D01*
X171999150Y-82980682D01*
X171792334Y-82839678D01*
X171566830Y-82731082D01*
X171327656Y-82657306D01*
X171327646Y-82657304D01*
X171080152Y-82620000D01*
X170829847Y-82620000D01*
X170582353Y-82657304D01*
X170582343Y-82657306D01*
X170343169Y-82731082D01*
X170117662Y-82839679D01*
X169910851Y-82980680D01*
X169883339Y-83006206D01*
X170469348Y-83592215D01*
X170413156Y-83629762D01*
X170294762Y-83748156D01*
X170257215Y-83804348D01*
X169672542Y-83219675D01*
X169571310Y-83346619D01*
X169446164Y-83563379D01*
X169446160Y-83563388D01*
X169354718Y-83796376D01*
X169299023Y-84040396D01*
X169299021Y-84040406D01*
X169280317Y-84289997D01*
X167549683Y-84289997D01*
X167530978Y-84040406D01*
X167530976Y-84040396D01*
X167475281Y-83796376D01*
X167383839Y-83563388D01*
X167383830Y-83563369D01*
X167258691Y-83346622D01*
X167258687Y-83346616D01*
X167157456Y-83219675D01*
X166572783Y-83804347D01*
X166535238Y-83748156D01*
X166416844Y-83629762D01*
X166360650Y-83592214D01*
X166946659Y-83006206D01*
X166919150Y-82980682D01*
X166712334Y-82839678D01*
X166486830Y-82731082D01*
X166247656Y-82657306D01*
X166247646Y-82657304D01*
X166000152Y-82620000D01*
X165749847Y-82620000D01*
X165502353Y-82657304D01*
X165502343Y-82657306D01*
X165263169Y-82731082D01*
X165037662Y-82839679D01*
X164830851Y-82980680D01*
X164803339Y-83006206D01*
X165389348Y-83592215D01*
X165333156Y-83629762D01*
X165214762Y-83748156D01*
X165177215Y-83804348D01*
X164592542Y-83219675D01*
X164491310Y-83346619D01*
X164366164Y-83563379D01*
X164366160Y-83563388D01*
X164274718Y-83796376D01*
X164219023Y-84040396D01*
X164219021Y-84040406D01*
X164200317Y-84289997D01*
X159340500Y-84289997D01*
X159340500Y-81541500D01*
X159359407Y-81483309D01*
X159408907Y-81447345D01*
X159439500Y-81442500D01*
X159671747Y-81442500D01*
X159671748Y-81442500D01*
X159730231Y-81430867D01*
X159796552Y-81386552D01*
X159840867Y-81320231D01*
X159852500Y-81261748D01*
X159852500Y-79698253D01*
X160467500Y-79698253D01*
X160467500Y-81261746D01*
X160467501Y-81261758D01*
X160479132Y-81320227D01*
X160479134Y-81320233D01*
X160523445Y-81386548D01*
X160523448Y-81386552D01*
X160589769Y-81430867D01*
X160634231Y-81439711D01*
X160648241Y-81442498D01*
X160648246Y-81442498D01*
X160648252Y-81442500D01*
X160648253Y-81442500D01*
X162211747Y-81442500D01*
X162211748Y-81442500D01*
X162270231Y-81430867D01*
X162336552Y-81386552D01*
X162380867Y-81320231D01*
X162392500Y-81261748D01*
X162392500Y-79698252D01*
X162380867Y-79639769D01*
X162336552Y-79573448D01*
X162326148Y-79566496D01*
X162270233Y-79529134D01*
X162270231Y-79529133D01*
X162270228Y-79529132D01*
X162270227Y-79529132D01*
X162211758Y-79517501D01*
X162211748Y-79517500D01*
X160648252Y-79517500D01*
X160648251Y-79517500D01*
X160648241Y-79517501D01*
X160589772Y-79529132D01*
X160589766Y-79529134D01*
X160523451Y-79573445D01*
X160523445Y-79573451D01*
X160479134Y-79639766D01*
X160479132Y-79639772D01*
X160467501Y-79698241D01*
X160467500Y-79698253D01*
X159852500Y-79698253D01*
X159852500Y-79698252D01*
X159840867Y-79639769D01*
X159796552Y-79573448D01*
X159786148Y-79566496D01*
X159730233Y-79529134D01*
X159730231Y-79529133D01*
X159730228Y-79529132D01*
X159730227Y-79529132D01*
X159671758Y-79517501D01*
X159671748Y-79517500D01*
X158108252Y-79517500D01*
X158108251Y-79517500D01*
X158108241Y-79517501D01*
X158049772Y-79529132D01*
X158049766Y-79529134D01*
X157983451Y-79573445D01*
X157983445Y-79573451D01*
X157939134Y-79639766D01*
X157939132Y-79639772D01*
X157927501Y-79698241D01*
X157927500Y-79698253D01*
X157312500Y-79698253D01*
X157312500Y-79698252D01*
X157300867Y-79639769D01*
X157256552Y-79573448D01*
X157246148Y-79566496D01*
X157190233Y-79529134D01*
X157190231Y-79529133D01*
X157190228Y-79529132D01*
X157190227Y-79529132D01*
X157131758Y-79517501D01*
X157131748Y-79517500D01*
X155568252Y-79517500D01*
X155568251Y-79517500D01*
X155568241Y-79517501D01*
X155509772Y-79529132D01*
X155509766Y-79529134D01*
X155443451Y-79573445D01*
X155443445Y-79573451D01*
X155399134Y-79639766D01*
X155399132Y-79639772D01*
X155387501Y-79698241D01*
X155387500Y-79698253D01*
X155387500Y-80764389D01*
X155368593Y-80822580D01*
X155358504Y-80834393D01*
X154941504Y-81251393D01*
X154886987Y-81279170D01*
X154826555Y-81269599D01*
X154783290Y-81226334D01*
X154772500Y-81181389D01*
X154772500Y-79698253D01*
X154772498Y-79698241D01*
X154769711Y-79684231D01*
X154760867Y-79639769D01*
X154716552Y-79573448D01*
X154706148Y-79566496D01*
X154650233Y-79529134D01*
X154650231Y-79529133D01*
X154650228Y-79529132D01*
X154650227Y-79529132D01*
X154591758Y-79517501D01*
X154591748Y-79517500D01*
X153028252Y-79517500D01*
X153028251Y-79517500D01*
X153028241Y-79517501D01*
X152969772Y-79529132D01*
X152969766Y-79529134D01*
X152903451Y-79573445D01*
X152903445Y-79573451D01*
X152859134Y-79639766D01*
X152859132Y-79639772D01*
X152847501Y-79698241D01*
X152847500Y-79698253D01*
X152847500Y-81261746D01*
X152847501Y-81261758D01*
X152859132Y-81320227D01*
X152859134Y-81320233D01*
X152903445Y-81386548D01*
X152903448Y-81386552D01*
X152969769Y-81430867D01*
X153014231Y-81439711D01*
X153028241Y-81442498D01*
X153028246Y-81442498D01*
X153028252Y-81442500D01*
X153028253Y-81442500D01*
X154511389Y-81442500D01*
X154569580Y-81461407D01*
X154605544Y-81510907D01*
X154605544Y-81572093D01*
X154581393Y-81611504D01*
X148369507Y-87823390D01*
X148310200Y-87926112D01*
X148310200Y-87926113D01*
X148310201Y-87926114D01*
X148279500Y-88040692D01*
X148279500Y-94017067D01*
X148260593Y-94075258D01*
X148259042Y-94077334D01*
X148205462Y-94147160D01*
X148205462Y-94147161D01*
X148144957Y-94293233D01*
X148144955Y-94293241D01*
X148124318Y-94449999D01*
X144072866Y-94449999D01*
X144086659Y-94436206D01*
X144059150Y-94410682D01*
X143852334Y-94269678D01*
X143626830Y-94161082D01*
X143387656Y-94087306D01*
X143387646Y-94087304D01*
X143140152Y-94050000D01*
X142889847Y-94050000D01*
X142642353Y-94087304D01*
X142642343Y-94087306D01*
X142403169Y-94161082D01*
X142177662Y-94269679D01*
X141970851Y-94410680D01*
X141943339Y-94436206D01*
X142529348Y-95022215D01*
X142473156Y-95059762D01*
X142354762Y-95178156D01*
X142317215Y-95234348D01*
X141732542Y-94649675D01*
X141631310Y-94776619D01*
X141506164Y-94993379D01*
X141506160Y-94993388D01*
X141414718Y-95226376D01*
X141359023Y-95470396D01*
X141359021Y-95470406D01*
X141340317Y-95719997D01*
X139609683Y-95719997D01*
X139590978Y-95470406D01*
X139590976Y-95470396D01*
X139535281Y-95226376D01*
X139443839Y-94993388D01*
X139443830Y-94993369D01*
X139318691Y-94776622D01*
X139318687Y-94776616D01*
X139217456Y-94649675D01*
X138632783Y-95234347D01*
X138595238Y-95178156D01*
X138476844Y-95059762D01*
X138420650Y-95022214D01*
X139006659Y-94436206D01*
X138979150Y-94410682D01*
X138772334Y-94269678D01*
X138546830Y-94161082D01*
X138307656Y-94087306D01*
X138307646Y-94087304D01*
X138060152Y-94050000D01*
X137809847Y-94050000D01*
X137562353Y-94087304D01*
X137562343Y-94087306D01*
X137323169Y-94161082D01*
X137097662Y-94269679D01*
X136890851Y-94410680D01*
X136863339Y-94436206D01*
X137449348Y-95022215D01*
X137393156Y-95059762D01*
X137274762Y-95178156D01*
X137237215Y-95234348D01*
X136652542Y-94649675D01*
X136551310Y-94776619D01*
X136426164Y-94993379D01*
X136426160Y-94993388D01*
X136334718Y-95226376D01*
X136279023Y-95470396D01*
X136279021Y-95470406D01*
X136260317Y-95719997D01*
X135845500Y-95719997D01*
X135845500Y-89369997D01*
X136260317Y-89369997D01*
X136260317Y-89370002D01*
X136279021Y-89619593D01*
X136279023Y-89619603D01*
X136334718Y-89863623D01*
X136426160Y-90096611D01*
X136426169Y-90096630D01*
X136551308Y-90313377D01*
X136551312Y-90313383D01*
X136652542Y-90440323D01*
X137237214Y-89855650D01*
X137274762Y-89911844D01*
X137393156Y-90030238D01*
X137449347Y-90067783D01*
X136863339Y-90653792D01*
X136890850Y-90679318D01*
X136890854Y-90679321D01*
X137097662Y-90820320D01*
X137323169Y-90928917D01*
X137562343Y-91002693D01*
X137562353Y-91002695D01*
X137809847Y-91039999D01*
X137809856Y-91040000D01*
X138060144Y-91040000D01*
X138060152Y-91039999D01*
X138307646Y-91002695D01*
X138307656Y-91002693D01*
X138546830Y-90928917D01*
X138772338Y-90820320D01*
X138979139Y-90679326D01*
X138979149Y-90679318D01*
X139006660Y-90653792D01*
X138420652Y-90067784D01*
X138476844Y-90030238D01*
X138595238Y-89911844D01*
X138632784Y-89855651D01*
X139217456Y-90440323D01*
X139318681Y-90313391D01*
X139318691Y-90313377D01*
X139443830Y-90096630D01*
X139443839Y-90096611D01*
X139535281Y-89863623D01*
X139590976Y-89619603D01*
X139590978Y-89619593D01*
X139609683Y-89370002D01*
X139609683Y-89369997D01*
X141340317Y-89369997D01*
X141340317Y-89370002D01*
X141359021Y-89619593D01*
X141359023Y-89619603D01*
X141414718Y-89863623D01*
X141506160Y-90096611D01*
X141506169Y-90096630D01*
X141631308Y-90313377D01*
X141631312Y-90313383D01*
X141732542Y-90440323D01*
X142317214Y-89855650D01*
X142354762Y-89911844D01*
X142473156Y-90030238D01*
X142529347Y-90067783D01*
X141943339Y-90653792D01*
X141970850Y-90679318D01*
X141970854Y-90679321D01*
X142177662Y-90820320D01*
X142403169Y-90928917D01*
X142642343Y-91002693D01*
X142642353Y-91002695D01*
X142889847Y-91039999D01*
X142889856Y-91040000D01*
X143140144Y-91040000D01*
X143140152Y-91039999D01*
X143387646Y-91002695D01*
X143387656Y-91002693D01*
X143626830Y-90928917D01*
X143852338Y-90820320D01*
X144059139Y-90679326D01*
X144059149Y-90679318D01*
X144086659Y-90653792D01*
X143500651Y-90067784D01*
X143556844Y-90030238D01*
X143675238Y-89911844D01*
X143712784Y-89855651D01*
X144297456Y-90440323D01*
X144398681Y-90313391D01*
X144398691Y-90313377D01*
X144523830Y-90096630D01*
X144523839Y-90096611D01*
X144615281Y-89863623D01*
X144670976Y-89619603D01*
X144670978Y-89619593D01*
X144689683Y-89370002D01*
X144689683Y-89369997D01*
X144670978Y-89120406D01*
X144670976Y-89120396D01*
X144615281Y-88876376D01*
X144523839Y-88643388D01*
X144523830Y-88643369D01*
X144398691Y-88426622D01*
X144398687Y-88426616D01*
X144297456Y-88299675D01*
X143712783Y-88884347D01*
X143675238Y-88828156D01*
X143556844Y-88709762D01*
X143500650Y-88672214D01*
X144086659Y-88086206D01*
X144059150Y-88060682D01*
X143852334Y-87919678D01*
X143626830Y-87811082D01*
X143387656Y-87737306D01*
X143387646Y-87737304D01*
X143140152Y-87700000D01*
X142889847Y-87700000D01*
X142642353Y-87737304D01*
X142642343Y-87737306D01*
X142403169Y-87811082D01*
X142177662Y-87919679D01*
X141970851Y-88060680D01*
X141943339Y-88086206D01*
X142529348Y-88672215D01*
X142473156Y-88709762D01*
X142354762Y-88828156D01*
X142317215Y-88884348D01*
X141732542Y-88299675D01*
X141631310Y-88426619D01*
X141506164Y-88643379D01*
X141506160Y-88643388D01*
X141414718Y-88876376D01*
X141359023Y-89120396D01*
X141359021Y-89120406D01*
X141340317Y-89369997D01*
X139609683Y-89369997D01*
X139590978Y-89120406D01*
X139590976Y-89120396D01*
X139535281Y-88876376D01*
X139443839Y-88643388D01*
X139443830Y-88643369D01*
X139318691Y-88426622D01*
X139318687Y-88426616D01*
X139217456Y-88299675D01*
X138632783Y-88884347D01*
X138595238Y-88828156D01*
X138476844Y-88709762D01*
X138420650Y-88672214D01*
X139006659Y-88086206D01*
X138979150Y-88060682D01*
X138772334Y-87919678D01*
X138546830Y-87811082D01*
X138307656Y-87737306D01*
X138307646Y-87737304D01*
X138060152Y-87700000D01*
X137809847Y-87700000D01*
X137562353Y-87737304D01*
X137562343Y-87737306D01*
X137323169Y-87811082D01*
X137097662Y-87919679D01*
X136890851Y-88060680D01*
X136863339Y-88086206D01*
X137449348Y-88672215D01*
X137393156Y-88709762D01*
X137274762Y-88828156D01*
X137237215Y-88884348D01*
X136652542Y-88299675D01*
X136551310Y-88426619D01*
X136426164Y-88643379D01*
X136426160Y-88643388D01*
X136334718Y-88876376D01*
X136279023Y-89120396D01*
X136279021Y-89120406D01*
X136260317Y-89369997D01*
X135845500Y-89369997D01*
X135845500Y-86829996D01*
X139149456Y-86829996D01*
X139149456Y-86830003D01*
X139169592Y-87060170D01*
X139169593Y-87060177D01*
X139169594Y-87060178D01*
X139229396Y-87283363D01*
X139327045Y-87492772D01*
X139459574Y-87682043D01*
X139622957Y-87845426D01*
X139812228Y-87977955D01*
X140021637Y-88075604D01*
X140244822Y-88135406D01*
X140244826Y-88135406D01*
X140244829Y-88135407D01*
X140474997Y-88155544D01*
X140475000Y-88155544D01*
X140475003Y-88155544D01*
X140705170Y-88135407D01*
X140705171Y-88135406D01*
X140705178Y-88135406D01*
X140928363Y-88075604D01*
X141137772Y-87977955D01*
X141327043Y-87845426D01*
X141490426Y-87682043D01*
X141622955Y-87492772D01*
X141720604Y-87283363D01*
X141780406Y-87060178D01*
X141800544Y-86830000D01*
X141780406Y-86599822D01*
X141720604Y-86376637D01*
X141622955Y-86167228D01*
X141490426Y-85977957D01*
X141327043Y-85814574D01*
X141327039Y-85814571D01*
X141327038Y-85814570D01*
X141220997Y-85740320D01*
X141137772Y-85682045D01*
X140928363Y-85584396D01*
X140705178Y-85524594D01*
X140705177Y-85524593D01*
X140705170Y-85524592D01*
X140475003Y-85504456D01*
X140474997Y-85504456D01*
X140244829Y-85524592D01*
X140021637Y-85584396D01*
X139812229Y-85682044D01*
X139622961Y-85814570D01*
X139459570Y-85977961D01*
X139327044Y-86167229D01*
X139229396Y-86376637D01*
X139169592Y-86599829D01*
X139149456Y-86829996D01*
X135845500Y-86829996D01*
X135845500Y-84289997D01*
X136260317Y-84289997D01*
X136260317Y-84290002D01*
X136279021Y-84539593D01*
X136279023Y-84539603D01*
X136334718Y-84783623D01*
X136426160Y-85016611D01*
X136426169Y-85016630D01*
X136551308Y-85233377D01*
X136551312Y-85233383D01*
X136652542Y-85360323D01*
X137237214Y-84775650D01*
X137274762Y-84831844D01*
X137393156Y-84950238D01*
X137449347Y-84987783D01*
X136863339Y-85573792D01*
X136890850Y-85599318D01*
X136890854Y-85599321D01*
X137097662Y-85740320D01*
X137323169Y-85848917D01*
X137562343Y-85922693D01*
X137562353Y-85922695D01*
X137809847Y-85959999D01*
X137809856Y-85960000D01*
X138060144Y-85960000D01*
X138060152Y-85959999D01*
X138307646Y-85922695D01*
X138307656Y-85922693D01*
X138546830Y-85848917D01*
X138772338Y-85740320D01*
X138979139Y-85599326D01*
X138979149Y-85599318D01*
X139006659Y-85573792D01*
X138420651Y-84987784D01*
X138476844Y-84950238D01*
X138595238Y-84831844D01*
X138632784Y-84775651D01*
X139217456Y-85360323D01*
X139318681Y-85233391D01*
X139318691Y-85233377D01*
X139443830Y-85016630D01*
X139443839Y-85016611D01*
X139535281Y-84783623D01*
X139590976Y-84539603D01*
X139590978Y-84539593D01*
X139609683Y-84290002D01*
X139609683Y-84289997D01*
X141340317Y-84289997D01*
X141340317Y-84290002D01*
X141359021Y-84539593D01*
X141359023Y-84539603D01*
X141414718Y-84783623D01*
X141506160Y-85016611D01*
X141506169Y-85016630D01*
X141631308Y-85233377D01*
X141631312Y-85233383D01*
X141732542Y-85360323D01*
X142317214Y-84775650D01*
X142354762Y-84831844D01*
X142473156Y-84950238D01*
X142529347Y-84987783D01*
X141943339Y-85573792D01*
X141970850Y-85599318D01*
X141970854Y-85599321D01*
X142177662Y-85740320D01*
X142403169Y-85848917D01*
X142642343Y-85922693D01*
X142642353Y-85922695D01*
X142889847Y-85959999D01*
X142889856Y-85960000D01*
X143140144Y-85960000D01*
X143140152Y-85959999D01*
X143387646Y-85922695D01*
X143387656Y-85922693D01*
X143626830Y-85848917D01*
X143852338Y-85740320D01*
X144059139Y-85599326D01*
X144059149Y-85599318D01*
X144086660Y-85573792D01*
X143500652Y-84987784D01*
X143556844Y-84950238D01*
X143675238Y-84831844D01*
X143712784Y-84775651D01*
X144297456Y-85360323D01*
X144398681Y-85233391D01*
X144398691Y-85233377D01*
X144523830Y-85016630D01*
X144523839Y-85016611D01*
X144615281Y-84783623D01*
X144670976Y-84539603D01*
X144670978Y-84539593D01*
X144689683Y-84290002D01*
X144689683Y-84289997D01*
X144670978Y-84040406D01*
X144670976Y-84040396D01*
X144615281Y-83796376D01*
X144523839Y-83563388D01*
X144523830Y-83563369D01*
X144398691Y-83346622D01*
X144398687Y-83346616D01*
X144297456Y-83219675D01*
X143712783Y-83804347D01*
X143675238Y-83748156D01*
X143556844Y-83629762D01*
X143500650Y-83592214D01*
X144086659Y-83006206D01*
X144059150Y-82980682D01*
X143852334Y-82839678D01*
X143626830Y-82731082D01*
X143387656Y-82657306D01*
X143387646Y-82657304D01*
X143140152Y-82620000D01*
X142889847Y-82620000D01*
X142642353Y-82657304D01*
X142642343Y-82657306D01*
X142403169Y-82731082D01*
X142177662Y-82839679D01*
X141970851Y-82980680D01*
X141943339Y-83006206D01*
X142529348Y-83592215D01*
X142473156Y-83629762D01*
X142354762Y-83748156D01*
X142317215Y-83804348D01*
X141732542Y-83219675D01*
X141631310Y-83346619D01*
X141506164Y-83563379D01*
X141506160Y-83563388D01*
X141414718Y-83796376D01*
X141359023Y-84040396D01*
X141359021Y-84040406D01*
X141340317Y-84289997D01*
X139609683Y-84289997D01*
X139590978Y-84040406D01*
X139590976Y-84040396D01*
X139535281Y-83796376D01*
X139443839Y-83563388D01*
X139443830Y-83563369D01*
X139318691Y-83346622D01*
X139318687Y-83346616D01*
X139217456Y-83219675D01*
X138632783Y-83804347D01*
X138595238Y-83748156D01*
X138476844Y-83629762D01*
X138420650Y-83592214D01*
X139006659Y-83006206D01*
X138979150Y-82980682D01*
X138772334Y-82839678D01*
X138546830Y-82731082D01*
X138307656Y-82657306D01*
X138307646Y-82657304D01*
X138060152Y-82620000D01*
X137809847Y-82620000D01*
X137562353Y-82657304D01*
X137562343Y-82657306D01*
X137323169Y-82731082D01*
X137097662Y-82839679D01*
X136890851Y-82980680D01*
X136863339Y-83006206D01*
X137449348Y-83592215D01*
X137393156Y-83629762D01*
X137274762Y-83748156D01*
X137237215Y-83804348D01*
X136652542Y-83219675D01*
X136551310Y-83346619D01*
X136426164Y-83563379D01*
X136426160Y-83563388D01*
X136334718Y-83796376D01*
X136279023Y-84040396D01*
X136279021Y-84040406D01*
X136260317Y-84289997D01*
X135845500Y-84289997D01*
X135845500Y-83247611D01*
X135864407Y-83189420D01*
X135874496Y-83177607D01*
X136822607Y-82229496D01*
X136877124Y-82201719D01*
X136892611Y-82200500D01*
X144979309Y-82200500D01*
X145069669Y-82176287D01*
X145069672Y-82176287D01*
X145082903Y-82172741D01*
X145093887Y-82169799D01*
X145196614Y-82110489D01*
X147740607Y-79566496D01*
X147795124Y-79538719D01*
X147810611Y-79537500D01*
X148876747Y-79537500D01*
X148876748Y-79537500D01*
X148935231Y-79525867D01*
X149001552Y-79481552D01*
X149045867Y-79415231D01*
X149057500Y-79356748D01*
X149057500Y-77793252D01*
X149052517Y-77768202D01*
X149573000Y-77768202D01*
X149573000Y-78424999D01*
X149573001Y-78425000D01*
X150215012Y-78425000D01*
X150190500Y-78516480D01*
X150190500Y-78633520D01*
X150215012Y-78725000D01*
X149573002Y-78725000D01*
X149573001Y-78725001D01*
X149573001Y-79381791D01*
X149575909Y-79406874D01*
X149621213Y-79509477D01*
X149700522Y-79588786D01*
X149803127Y-79634090D01*
X149828203Y-79636999D01*
X150484998Y-79636999D01*
X150485000Y-79636998D01*
X150485000Y-78994987D01*
X150576480Y-79019500D01*
X150693520Y-79019500D01*
X150785000Y-78994987D01*
X150785000Y-79636998D01*
X150785001Y-79636999D01*
X151441790Y-79636999D01*
X151441791Y-79636998D01*
X151466874Y-79634090D01*
X151569477Y-79588786D01*
X151648786Y-79509477D01*
X151694090Y-79406872D01*
X151696999Y-79381797D01*
X151697000Y-79381795D01*
X151697000Y-78725001D01*
X151696999Y-78725000D01*
X151054988Y-78725000D01*
X151079500Y-78633520D01*
X151079500Y-78516480D01*
X151054988Y-78425000D01*
X151696998Y-78425000D01*
X151696999Y-78424999D01*
X151696999Y-77768210D01*
X151696998Y-77768208D01*
X151694090Y-77743125D01*
X151648786Y-77640522D01*
X151569477Y-77561213D01*
X151466872Y-77515909D01*
X151441797Y-77513000D01*
X150785001Y-77513000D01*
X150785000Y-77513001D01*
X150785000Y-78155012D01*
X150693520Y-78130500D01*
X150576480Y-78130500D01*
X150485000Y-78155012D01*
X150485000Y-77513001D01*
X150484999Y-77513000D01*
X149828210Y-77513000D01*
X149828207Y-77513001D01*
X149803125Y-77515909D01*
X149700522Y-77561213D01*
X149621213Y-77640522D01*
X149575909Y-77743127D01*
X149573000Y-77768202D01*
X149052517Y-77768202D01*
X149045867Y-77734769D01*
X149001552Y-77668448D01*
X149001548Y-77668445D01*
X148935233Y-77624134D01*
X148935231Y-77624133D01*
X148935228Y-77624132D01*
X148935227Y-77624132D01*
X148876758Y-77612501D01*
X148876748Y-77612500D01*
X147313252Y-77612500D01*
X147313251Y-77612500D01*
X147313241Y-77612501D01*
X147254772Y-77624132D01*
X147254766Y-77624134D01*
X147188451Y-77668445D01*
X147188445Y-77668451D01*
X147144134Y-77734766D01*
X147144132Y-77734772D01*
X147132501Y-77793241D01*
X147132500Y-77793253D01*
X147132500Y-78859388D01*
X147113593Y-78917579D01*
X147103504Y-78929392D01*
X146786004Y-79246892D01*
X146731487Y-79274669D01*
X146671055Y-79265098D01*
X146627790Y-79221833D01*
X146617000Y-79176888D01*
X146617000Y-78725001D01*
X146616999Y-78725000D01*
X145974988Y-78725000D01*
X145999500Y-78633520D01*
X145999500Y-78516480D01*
X145974988Y-78425000D01*
X146616998Y-78425000D01*
X146616999Y-78424999D01*
X146616999Y-77768210D01*
X146616998Y-77768208D01*
X146614090Y-77743125D01*
X146568786Y-77640522D01*
X146489477Y-77561213D01*
X146386872Y-77515909D01*
X146361797Y-77513000D01*
X145705001Y-77513000D01*
X145705000Y-77513001D01*
X145705000Y-78155012D01*
X145613520Y-78130500D01*
X145496480Y-78130500D01*
X145405000Y-78155012D01*
X145405000Y-77513001D01*
X145404999Y-77513000D01*
X144748210Y-77513000D01*
X144748207Y-77513001D01*
X144723125Y-77515909D01*
X144620522Y-77561213D01*
X144541213Y-77640522D01*
X144495909Y-77743127D01*
X144493000Y-77768202D01*
X144493000Y-78424999D01*
X144493001Y-78425000D01*
X145135012Y-78425000D01*
X145110500Y-78516480D01*
X145110500Y-78633520D01*
X145135012Y-78725000D01*
X144493002Y-78725000D01*
X144493001Y-78725001D01*
X144493001Y-79381791D01*
X144495909Y-79406874D01*
X144541213Y-79509477D01*
X144620522Y-79588786D01*
X144723127Y-79634090D01*
X144748203Y-79636999D01*
X145404998Y-79636999D01*
X145405000Y-79636998D01*
X145405000Y-78994987D01*
X145496480Y-79019500D01*
X145613520Y-79019500D01*
X145705000Y-78994987D01*
X145705000Y-79636998D01*
X145705001Y-79636999D01*
X146156889Y-79636999D01*
X146215080Y-79655906D01*
X146251044Y-79705406D01*
X146251044Y-79766592D01*
X146226893Y-79806003D01*
X144762393Y-81270504D01*
X144707876Y-81298281D01*
X144692389Y-81299500D01*
X136605691Y-81299500D01*
X136560508Y-81311606D01*
X136515325Y-81323713D01*
X136515324Y-81323712D01*
X136491112Y-81330201D01*
X136491109Y-81330202D01*
X136388390Y-81389507D01*
X135034507Y-82743390D01*
X134975200Y-82846112D01*
X134975200Y-82846113D01*
X134975201Y-82846114D01*
X134944500Y-82960691D01*
X134379000Y-82960691D01*
X134379000Y-77158253D01*
X152847500Y-77158253D01*
X152847500Y-78721746D01*
X152847501Y-78721758D01*
X152859132Y-78780227D01*
X152859133Y-78780231D01*
X152903448Y-78846552D01*
X152969769Y-78890867D01*
X153014231Y-78899711D01*
X153028241Y-78902498D01*
X153028246Y-78902498D01*
X153028252Y-78902500D01*
X153028253Y-78902500D01*
X154591747Y-78902500D01*
X154591748Y-78902500D01*
X154650231Y-78890867D01*
X154716552Y-78846552D01*
X154760867Y-78780231D01*
X154772500Y-78721748D01*
X154772500Y-77158253D01*
X155387500Y-77158253D01*
X155387500Y-78721746D01*
X155387501Y-78721758D01*
X155399132Y-78780227D01*
X155399133Y-78780231D01*
X155443448Y-78846552D01*
X155509769Y-78890867D01*
X155554231Y-78899711D01*
X155568241Y-78902498D01*
X155568246Y-78902498D01*
X155568252Y-78902500D01*
X155568253Y-78902500D01*
X157131747Y-78902500D01*
X157131748Y-78902500D01*
X157190231Y-78890867D01*
X157256552Y-78846552D01*
X157300867Y-78780231D01*
X157312500Y-78721748D01*
X157312500Y-77158253D01*
X157927500Y-77158253D01*
X157927500Y-78721746D01*
X157927501Y-78721758D01*
X157939132Y-78780227D01*
X157939133Y-78780231D01*
X157983448Y-78846552D01*
X158049769Y-78890867D01*
X158094231Y-78899711D01*
X158108241Y-78902498D01*
X158108246Y-78902498D01*
X158108252Y-78902500D01*
X158108253Y-78902500D01*
X159671747Y-78902500D01*
X159671748Y-78902500D01*
X159730231Y-78890867D01*
X159796552Y-78846552D01*
X159840867Y-78780231D01*
X159852500Y-78721748D01*
X159852500Y-77158253D01*
X160467500Y-77158253D01*
X160467500Y-78721746D01*
X160467501Y-78721758D01*
X160479132Y-78780227D01*
X160479133Y-78780231D01*
X160523448Y-78846552D01*
X160589769Y-78890867D01*
X160634231Y-78899711D01*
X160648241Y-78902498D01*
X160648246Y-78902498D01*
X160648252Y-78902500D01*
X160648253Y-78902500D01*
X162211747Y-78902500D01*
X162211748Y-78902500D01*
X162270231Y-78890867D01*
X162336552Y-78846552D01*
X162380867Y-78780231D01*
X162392500Y-78721748D01*
X162392500Y-77158252D01*
X162380867Y-77099769D01*
X162336552Y-77033448D01*
X162282750Y-76997498D01*
X162270233Y-76989134D01*
X162270231Y-76989133D01*
X162270228Y-76989132D01*
X162270227Y-76989132D01*
X162211758Y-76977501D01*
X162211748Y-76977500D01*
X160648252Y-76977500D01*
X160648251Y-76977500D01*
X160648241Y-76977501D01*
X160589772Y-76989132D01*
X160589766Y-76989134D01*
X160523451Y-77033445D01*
X160523445Y-77033451D01*
X160479134Y-77099766D01*
X160479132Y-77099772D01*
X160467501Y-77158241D01*
X160467500Y-77158253D01*
X159852500Y-77158253D01*
X159852500Y-77158252D01*
X159840867Y-77099769D01*
X159796552Y-77033448D01*
X159742750Y-76997498D01*
X159730233Y-76989134D01*
X159730231Y-76989133D01*
X159730228Y-76989132D01*
X159730227Y-76989132D01*
X159671758Y-76977501D01*
X159671748Y-76977500D01*
X158108252Y-76977500D01*
X158108251Y-76977500D01*
X158108241Y-76977501D01*
X158049772Y-76989132D01*
X158049766Y-76989134D01*
X157983451Y-77033445D01*
X157983445Y-77033451D01*
X157939134Y-77099766D01*
X157939132Y-77099772D01*
X157927501Y-77158241D01*
X157927500Y-77158253D01*
X157312500Y-77158253D01*
X157312500Y-77158252D01*
X157300867Y-77099769D01*
X157256552Y-77033448D01*
X157202750Y-76997498D01*
X157190233Y-76989134D01*
X157190231Y-76989133D01*
X157190228Y-76989132D01*
X157190227Y-76989132D01*
X157131758Y-76977501D01*
X157131748Y-76977500D01*
X155568252Y-76977500D01*
X155568251Y-76977500D01*
X155568241Y-76977501D01*
X155509772Y-76989132D01*
X155509766Y-76989134D01*
X155443451Y-77033445D01*
X155443445Y-77033451D01*
X155399134Y-77099766D01*
X155399132Y-77099772D01*
X155387501Y-77158241D01*
X155387500Y-77158253D01*
X154772500Y-77158253D01*
X154772500Y-77158252D01*
X154760867Y-77099769D01*
X154716552Y-77033448D01*
X154662750Y-76997498D01*
X154650233Y-76989134D01*
X154650231Y-76989133D01*
X154650228Y-76989132D01*
X154650227Y-76989132D01*
X154591758Y-76977501D01*
X154591748Y-76977500D01*
X153028252Y-76977500D01*
X153028251Y-76977500D01*
X153028241Y-76977501D01*
X152969772Y-76989132D01*
X152969766Y-76989134D01*
X152903451Y-77033445D01*
X152903445Y-77033451D01*
X152859134Y-77099766D01*
X152859132Y-77099772D01*
X152847501Y-77158241D01*
X152847500Y-77158253D01*
X134379000Y-77158253D01*
X134379000Y-75228202D01*
X144493000Y-75228202D01*
X144493000Y-75884999D01*
X144493001Y-75885000D01*
X145135012Y-75885000D01*
X145110500Y-75976480D01*
X145110500Y-76093520D01*
X145135012Y-76185000D01*
X144493002Y-76185000D01*
X144493001Y-76185001D01*
X144493001Y-76841791D01*
X144495909Y-76866874D01*
X144541213Y-76969477D01*
X144620522Y-77048786D01*
X144723127Y-77094090D01*
X144748203Y-77096999D01*
X145404998Y-77096999D01*
X145405000Y-77096998D01*
X145405000Y-76454987D01*
X145496480Y-76479500D01*
X145613520Y-76479500D01*
X145705000Y-76454987D01*
X145705000Y-77096998D01*
X145705001Y-77096999D01*
X146361790Y-77096999D01*
X146361791Y-77096998D01*
X146386874Y-77094090D01*
X146489477Y-77048786D01*
X146568786Y-76969477D01*
X146614090Y-76866872D01*
X146616999Y-76841797D01*
X146617000Y-76841795D01*
X146617000Y-76185001D01*
X146616999Y-76185000D01*
X145974988Y-76185000D01*
X145999500Y-76093520D01*
X145999500Y-75976480D01*
X145974988Y-75885000D01*
X146616998Y-75885000D01*
X146616999Y-75884999D01*
X146616999Y-75253253D01*
X147132500Y-75253253D01*
X147132500Y-76816746D01*
X147132501Y-76816758D01*
X147144132Y-76875227D01*
X147144133Y-76875231D01*
X147188448Y-76941552D01*
X147254769Y-76985867D01*
X147299231Y-76994711D01*
X147313241Y-76997498D01*
X147313246Y-76997498D01*
X147313252Y-76997500D01*
X147313253Y-76997500D01*
X148876747Y-76997500D01*
X148876748Y-76997500D01*
X148935231Y-76985867D01*
X149001552Y-76941552D01*
X149045867Y-76875231D01*
X149057500Y-76816748D01*
X149057500Y-75679901D01*
X149076407Y-75621710D01*
X149086496Y-75609897D01*
X149403996Y-75292397D01*
X149458513Y-75264620D01*
X149518945Y-75274191D01*
X149562210Y-75317456D01*
X149573000Y-75362401D01*
X149573000Y-75884999D01*
X149573001Y-75885000D01*
X150215012Y-75885000D01*
X150190500Y-75976480D01*
X150190500Y-76093520D01*
X150215012Y-76185000D01*
X149573002Y-76185000D01*
X149573001Y-76185001D01*
X149573001Y-76841791D01*
X149575909Y-76866874D01*
X149621213Y-76969477D01*
X149700522Y-77048786D01*
X149803127Y-77094090D01*
X149828203Y-77096999D01*
X150484998Y-77096999D01*
X150485000Y-77096998D01*
X150485000Y-76454987D01*
X150576480Y-76479500D01*
X150693520Y-76479500D01*
X150785000Y-76454987D01*
X150785000Y-77096998D01*
X150785001Y-77096999D01*
X151441790Y-77096999D01*
X151441791Y-77096998D01*
X151466874Y-77094090D01*
X151569477Y-77048786D01*
X151648786Y-76969477D01*
X151694090Y-76866872D01*
X151696999Y-76841797D01*
X151697000Y-76841795D01*
X151697000Y-76185001D01*
X151696999Y-76185000D01*
X151054988Y-76185000D01*
X151079500Y-76093520D01*
X151079500Y-75976480D01*
X151054988Y-75885000D01*
X151696998Y-75885000D01*
X151696999Y-75884999D01*
X151696999Y-75228210D01*
X151696998Y-75228208D01*
X151694090Y-75203125D01*
X151648786Y-75100522D01*
X151569477Y-75021213D01*
X151466872Y-74975909D01*
X151441797Y-74973000D01*
X150785001Y-74973000D01*
X150785000Y-74973001D01*
X150785000Y-75615012D01*
X150693520Y-75590500D01*
X150576480Y-75590500D01*
X150485000Y-75615012D01*
X150485000Y-74973001D01*
X150484999Y-74973000D01*
X149962400Y-74973000D01*
X149904209Y-74954093D01*
X149868245Y-74904593D01*
X149868245Y-74843407D01*
X149892397Y-74803996D01*
X150136898Y-74559496D01*
X150191414Y-74531719D01*
X150206901Y-74530500D01*
X155852929Y-74530500D01*
X155911120Y-74549407D01*
X155919687Y-74556723D01*
X155921716Y-74558280D01*
X155921718Y-74558282D01*
X156047159Y-74654536D01*
X156193238Y-74715044D01*
X156310809Y-74730522D01*
X156349999Y-74735682D01*
X156350000Y-74735682D01*
X156350001Y-74735682D01*
X156381352Y-74731554D01*
X156506762Y-74715044D01*
X156652841Y-74654536D01*
X156778282Y-74558282D01*
X156778281Y-74558282D01*
X156783430Y-74554332D01*
X156784490Y-74555713D01*
X156831584Y-74531719D01*
X156847071Y-74530500D01*
X160932929Y-74530500D01*
X160991120Y-74549407D01*
X160999687Y-74556723D01*
X161001716Y-74558280D01*
X161001718Y-74558282D01*
X161127159Y-74654536D01*
X161273238Y-74715044D01*
X161390809Y-74730522D01*
X161429999Y-74735682D01*
X161430000Y-74735682D01*
X161430001Y-74735682D01*
X161461352Y-74731554D01*
X161586762Y-74715044D01*
X161732841Y-74654536D01*
X161858282Y-74558282D01*
X161954536Y-74432841D01*
X162015044Y-74286762D01*
X162035682Y-74130000D01*
X162015044Y-73973238D01*
X161954537Y-73827161D01*
X161954537Y-73827160D01*
X161858286Y-73701723D01*
X161858285Y-73701722D01*
X161858282Y-73701718D01*
X161858277Y-73701714D01*
X161858276Y-73701713D01*
X161732838Y-73605462D01*
X161586766Y-73544957D01*
X161586758Y-73544955D01*
X161430001Y-73524318D01*
X161429999Y-73524318D01*
X161273241Y-73544955D01*
X161273233Y-73544957D01*
X161127161Y-73605462D01*
X161127160Y-73605462D01*
X160996570Y-73705668D01*
X160995509Y-73704286D01*
X160948416Y-73728281D01*
X160932929Y-73729500D01*
X156847071Y-73729500D01*
X156788880Y-73710593D01*
X156780312Y-73703276D01*
X156652838Y-73605462D01*
X156506766Y-73544957D01*
X156506758Y-73544955D01*
X156350001Y-73524318D01*
X156349999Y-73524318D01*
X156193241Y-73544955D01*
X156193233Y-73544957D01*
X156047161Y-73605462D01*
X156047160Y-73605462D01*
X155916570Y-73705668D01*
X155915509Y-73704286D01*
X155868416Y-73728281D01*
X155852929Y-73729500D01*
X150052727Y-73729500D01*
X149947273Y-73729500D01*
X149884929Y-73746204D01*
X149845407Y-73756794D01*
X149754091Y-73809516D01*
X148520103Y-75043504D01*
X148465586Y-75071281D01*
X148450099Y-75072500D01*
X147313252Y-75072500D01*
X147313251Y-75072500D01*
X147313241Y-75072501D01*
X147254772Y-75084132D01*
X147254766Y-75084134D01*
X147188451Y-75128445D01*
X147188445Y-75128451D01*
X147144134Y-75194766D01*
X147144132Y-75194772D01*
X147132501Y-75253241D01*
X147132500Y-75253253D01*
X146616999Y-75253253D01*
X146616999Y-75228210D01*
X146616998Y-75228208D01*
X146614090Y-75203125D01*
X146568786Y-75100522D01*
X146489477Y-75021213D01*
X146386872Y-74975909D01*
X146361797Y-74973000D01*
X145705001Y-74973000D01*
X145705000Y-74973001D01*
X145705000Y-75615012D01*
X145613520Y-75590500D01*
X145496480Y-75590500D01*
X145405000Y-75615012D01*
X145405000Y-74973001D01*
X145404999Y-74973000D01*
X144748210Y-74973000D01*
X144748207Y-74973001D01*
X144723125Y-74975909D01*
X144620522Y-75021213D01*
X144541213Y-75100522D01*
X144495909Y-75203127D01*
X144493000Y-75228202D01*
X134379000Y-75228202D01*
X134379000Y-72578000D01*
X134397907Y-72519809D01*
X134447407Y-72483845D01*
X134478000Y-72479000D01*
X174412000Y-72479000D01*
X174470191Y-72497907D01*
G37*
%TD.AperFunction*%
%TD*%
M02*
