%TF.GenerationSoftware,KiCad,Pcbnew,7.0.5.1-1-g8f565ef7f0-dirty-deb11*%
%TF.CreationDate,2023-07-08T01:27:45+00:00*%
%TF.ProjectId,RFSWITCH01,52465357-4954-4434-9830-312e6b696361,rev?*%
%TF.SameCoordinates,Original*%
%TF.FileFunction,Legend,Bot*%
%TF.FilePolarity,Positive*%
%FSLAX46Y46*%
G04 Gerber Fmt 4.6, Leading zero omitted, Abs format (unit mm)*
G04 Created by KiCad (PCBNEW 7.0.5.1-1-g8f565ef7f0-dirty-deb11) date 2023-07-08 01:27:45*
%MOMM*%
%LPD*%
G01*
G04 APERTURE LIST*
%ADD10C,0.150000*%
%ADD11C,0.120000*%
%ADD12C,0.127000*%
%ADD13C,0.240000*%
G04 APERTURE END LIST*
D10*
%TO.C,D1*%
X149201394Y-84935492D02*
X149201394Y-83935492D01*
X149201394Y-83935492D02*
X148963299Y-83935492D01*
X148963299Y-83935492D02*
X148820442Y-83983111D01*
X148820442Y-83983111D02*
X148725204Y-84078349D01*
X148725204Y-84078349D02*
X148677585Y-84173587D01*
X148677585Y-84173587D02*
X148629966Y-84364063D01*
X148629966Y-84364063D02*
X148629966Y-84506920D01*
X148629966Y-84506920D02*
X148677585Y-84697396D01*
X148677585Y-84697396D02*
X148725204Y-84792634D01*
X148725204Y-84792634D02*
X148820442Y-84887873D01*
X148820442Y-84887873D02*
X148963299Y-84935492D01*
X148963299Y-84935492D02*
X149201394Y-84935492D01*
X147677585Y-84935492D02*
X148249013Y-84935492D01*
X147963299Y-84935492D02*
X147963299Y-83935492D01*
X147963299Y-83935492D02*
X148058537Y-84078349D01*
X148058537Y-84078349D02*
X148153775Y-84173587D01*
X148153775Y-84173587D02*
X148249013Y-84221206D01*
%TO.C,U4*%
X150279304Y-89967819D02*
X150279304Y-90777342D01*
X150279304Y-90777342D02*
X150231685Y-90872580D01*
X150231685Y-90872580D02*
X150184066Y-90920200D01*
X150184066Y-90920200D02*
X150088828Y-90967819D01*
X150088828Y-90967819D02*
X149898352Y-90967819D01*
X149898352Y-90967819D02*
X149803114Y-90920200D01*
X149803114Y-90920200D02*
X149755495Y-90872580D01*
X149755495Y-90872580D02*
X149707876Y-90777342D01*
X149707876Y-90777342D02*
X149707876Y-89967819D01*
X148803114Y-90301152D02*
X148803114Y-90967819D01*
X149041209Y-89920200D02*
X149279304Y-90634485D01*
X149279304Y-90634485D02*
X148660257Y-90634485D01*
%TO.C,U3*%
X159640219Y-98539495D02*
X160449742Y-98539495D01*
X160449742Y-98539495D02*
X160544980Y-98587114D01*
X160544980Y-98587114D02*
X160592600Y-98634733D01*
X160592600Y-98634733D02*
X160640219Y-98729971D01*
X160640219Y-98729971D02*
X160640219Y-98920447D01*
X160640219Y-98920447D02*
X160592600Y-99015685D01*
X160592600Y-99015685D02*
X160544980Y-99063304D01*
X160544980Y-99063304D02*
X160449742Y-99110923D01*
X160449742Y-99110923D02*
X159640219Y-99110923D01*
X159640219Y-99491876D02*
X159640219Y-100110923D01*
X159640219Y-100110923D02*
X160021171Y-99777590D01*
X160021171Y-99777590D02*
X160021171Y-99920447D01*
X160021171Y-99920447D02*
X160068790Y-100015685D01*
X160068790Y-100015685D02*
X160116409Y-100063304D01*
X160116409Y-100063304D02*
X160211647Y-100110923D01*
X160211647Y-100110923D02*
X160449742Y-100110923D01*
X160449742Y-100110923D02*
X160544980Y-100063304D01*
X160544980Y-100063304D02*
X160592600Y-100015685D01*
X160592600Y-100015685D02*
X160640219Y-99920447D01*
X160640219Y-99920447D02*
X160640219Y-99634733D01*
X160640219Y-99634733D02*
X160592600Y-99539495D01*
X160592600Y-99539495D02*
X160544980Y-99491876D01*
%TO.C,D3*%
X154036219Y-82561305D02*
X153036219Y-82561305D01*
X153036219Y-82561305D02*
X153036219Y-82799400D01*
X153036219Y-82799400D02*
X153083838Y-82942257D01*
X153083838Y-82942257D02*
X153179076Y-83037495D01*
X153179076Y-83037495D02*
X153274314Y-83085114D01*
X153274314Y-83085114D02*
X153464790Y-83132733D01*
X153464790Y-83132733D02*
X153607647Y-83132733D01*
X153607647Y-83132733D02*
X153798123Y-83085114D01*
X153798123Y-83085114D02*
X153893361Y-83037495D01*
X153893361Y-83037495D02*
X153988600Y-82942257D01*
X153988600Y-82942257D02*
X154036219Y-82799400D01*
X154036219Y-82799400D02*
X154036219Y-82561305D01*
X153036219Y-83466067D02*
X153036219Y-84085114D01*
X153036219Y-84085114D02*
X153417171Y-83751781D01*
X153417171Y-83751781D02*
X153417171Y-83894638D01*
X153417171Y-83894638D02*
X153464790Y-83989876D01*
X153464790Y-83989876D02*
X153512409Y-84037495D01*
X153512409Y-84037495D02*
X153607647Y-84085114D01*
X153607647Y-84085114D02*
X153845742Y-84085114D01*
X153845742Y-84085114D02*
X153940980Y-84037495D01*
X153940980Y-84037495D02*
X153988600Y-83989876D01*
X153988600Y-83989876D02*
X154036219Y-83894638D01*
X154036219Y-83894638D02*
X154036219Y-83608924D01*
X154036219Y-83608924D02*
X153988600Y-83513686D01*
X153988600Y-83513686D02*
X153940980Y-83466067D01*
%TO.C,U1*%
X147028104Y-108052619D02*
X147028104Y-108862142D01*
X147028104Y-108862142D02*
X146980485Y-108957380D01*
X146980485Y-108957380D02*
X146932866Y-109005000D01*
X146932866Y-109005000D02*
X146837628Y-109052619D01*
X146837628Y-109052619D02*
X146647152Y-109052619D01*
X146647152Y-109052619D02*
X146551914Y-109005000D01*
X146551914Y-109005000D02*
X146504295Y-108957380D01*
X146504295Y-108957380D02*
X146456676Y-108862142D01*
X146456676Y-108862142D02*
X146456676Y-108052619D01*
X145456676Y-109052619D02*
X146028104Y-109052619D01*
X145742390Y-109052619D02*
X145742390Y-108052619D01*
X145742390Y-108052619D02*
X145837628Y-108195476D01*
X145837628Y-108195476D02*
X145932866Y-108290714D01*
X145932866Y-108290714D02*
X146028104Y-108338333D01*
%TO.C,L1*%
X157812066Y-107223819D02*
X158288256Y-107223819D01*
X158288256Y-107223819D02*
X158288256Y-106223819D01*
X156954923Y-107223819D02*
X157526351Y-107223819D01*
X157240637Y-107223819D02*
X157240637Y-106223819D01*
X157240637Y-106223819D02*
X157335875Y-106366676D01*
X157335875Y-106366676D02*
X157431113Y-106461914D01*
X157431113Y-106461914D02*
X157526351Y-106509533D01*
%TO.C,FL1*%
X148731495Y-104160009D02*
X149064828Y-104160009D01*
X149064828Y-104683819D02*
X149064828Y-103683819D01*
X149064828Y-103683819D02*
X148588638Y-103683819D01*
X147731495Y-104683819D02*
X148207685Y-104683819D01*
X148207685Y-104683819D02*
X148207685Y-103683819D01*
X146874352Y-104683819D02*
X147445780Y-104683819D01*
X147160066Y-104683819D02*
X147160066Y-103683819D01*
X147160066Y-103683819D02*
X147255304Y-103826676D01*
X147255304Y-103826676D02*
X147350542Y-103921914D01*
X147350542Y-103921914D02*
X147445780Y-103969533D01*
%TO.C,U2*%
X159067704Y-89967819D02*
X159067704Y-90777342D01*
X159067704Y-90777342D02*
X159020085Y-90872580D01*
X159020085Y-90872580D02*
X158972466Y-90920200D01*
X158972466Y-90920200D02*
X158877228Y-90967819D01*
X158877228Y-90967819D02*
X158686752Y-90967819D01*
X158686752Y-90967819D02*
X158591514Y-90920200D01*
X158591514Y-90920200D02*
X158543895Y-90872580D01*
X158543895Y-90872580D02*
X158496276Y-90777342D01*
X158496276Y-90777342D02*
X158496276Y-89967819D01*
X158067704Y-90063057D02*
X158020085Y-90015438D01*
X158020085Y-90015438D02*
X157924847Y-89967819D01*
X157924847Y-89967819D02*
X157686752Y-89967819D01*
X157686752Y-89967819D02*
X157591514Y-90015438D01*
X157591514Y-90015438D02*
X157543895Y-90063057D01*
X157543895Y-90063057D02*
X157496276Y-90158295D01*
X157496276Y-90158295D02*
X157496276Y-90253533D01*
X157496276Y-90253533D02*
X157543895Y-90396390D01*
X157543895Y-90396390D02*
X158115323Y-90967819D01*
X158115323Y-90967819D02*
X157496276Y-90967819D01*
%TO.C,D2*%
X161148219Y-82612105D02*
X160148219Y-82612105D01*
X160148219Y-82612105D02*
X160148219Y-82850200D01*
X160148219Y-82850200D02*
X160195838Y-82993057D01*
X160195838Y-82993057D02*
X160291076Y-83088295D01*
X160291076Y-83088295D02*
X160386314Y-83135914D01*
X160386314Y-83135914D02*
X160576790Y-83183533D01*
X160576790Y-83183533D02*
X160719647Y-83183533D01*
X160719647Y-83183533D02*
X160910123Y-83135914D01*
X160910123Y-83135914D02*
X161005361Y-83088295D01*
X161005361Y-83088295D02*
X161100600Y-82993057D01*
X161100600Y-82993057D02*
X161148219Y-82850200D01*
X161148219Y-82850200D02*
X161148219Y-82612105D01*
X160243457Y-83564486D02*
X160195838Y-83612105D01*
X160195838Y-83612105D02*
X160148219Y-83707343D01*
X160148219Y-83707343D02*
X160148219Y-83945438D01*
X160148219Y-83945438D02*
X160195838Y-84040676D01*
X160195838Y-84040676D02*
X160243457Y-84088295D01*
X160243457Y-84088295D02*
X160338695Y-84135914D01*
X160338695Y-84135914D02*
X160433933Y-84135914D01*
X160433933Y-84135914D02*
X160576790Y-84088295D01*
X160576790Y-84088295D02*
X161148219Y-83516867D01*
X161148219Y-83516867D02*
X161148219Y-84135914D01*
%TO.C,L3*%
X153849666Y-95641419D02*
X154325856Y-95641419D01*
X154325856Y-95641419D02*
X154325856Y-94641419D01*
X153611570Y-94641419D02*
X152992523Y-94641419D01*
X152992523Y-94641419D02*
X153325856Y-95022371D01*
X153325856Y-95022371D02*
X153182999Y-95022371D01*
X153182999Y-95022371D02*
X153087761Y-95069990D01*
X153087761Y-95069990D02*
X153040142Y-95117609D01*
X153040142Y-95117609D02*
X152992523Y-95212847D01*
X152992523Y-95212847D02*
X152992523Y-95450942D01*
X152992523Y-95450942D02*
X153040142Y-95546180D01*
X153040142Y-95546180D02*
X153087761Y-95593800D01*
X153087761Y-95593800D02*
X153182999Y-95641419D01*
X153182999Y-95641419D02*
X153468713Y-95641419D01*
X153468713Y-95641419D02*
X153563951Y-95593800D01*
X153563951Y-95593800D02*
X153611570Y-95546180D01*
%TO.C,L5*%
X162422595Y-100736500D02*
X163946595Y-100736500D01*
D11*
X162422595Y-99593500D02*
X162422595Y-98831500D01*
X163946595Y-99593500D02*
X163946595Y-98831500D01*
D10*
X163946595Y-97688500D02*
X162422595Y-97688500D01*
%TO.C,R5*%
X153048000Y-76606500D02*
X154572000Y-76606500D01*
D11*
X153048000Y-75463500D02*
X153048000Y-74701500D01*
X154572000Y-75463500D02*
X154572000Y-74701500D01*
D10*
X154572000Y-73558500D02*
X153048000Y-73558500D01*
D11*
%TO.C,D1*%
X145063300Y-80330673D02*
X150463300Y-80330673D01*
X145063300Y-83630673D02*
X145063300Y-80330673D01*
X145063300Y-83630673D02*
X150463300Y-83630673D01*
%TO.C,U4*%
X147395000Y-91385000D02*
X148795000Y-91385000D01*
X148795000Y-93705000D02*
X146895000Y-93705000D01*
D10*
%TO.C,C10*%
X157747000Y-91973500D02*
X156223000Y-91973500D01*
D11*
X157747000Y-93116500D02*
X157747000Y-93878500D01*
X156223000Y-93116500D02*
X156223000Y-93878500D01*
D10*
X156223000Y-95021500D02*
X157747000Y-95021500D01*
%TO.C,R3*%
X162192000Y-73558500D02*
X160668000Y-73558500D01*
D11*
X162192000Y-74701500D02*
X162192000Y-75463500D01*
X160668000Y-74701500D02*
X160668000Y-75463500D01*
D10*
X160668000Y-76606500D02*
X162192000Y-76606500D01*
D11*
%TO.C,U3*%
X158550000Y-96765000D02*
X157410000Y-96765000D01*
X157410000Y-101255000D02*
X157410000Y-101025000D01*
X157410000Y-96535000D02*
X157410000Y-96765000D01*
X157410000Y-96535000D02*
X154690000Y-96535000D01*
X154690000Y-101255000D02*
X157410000Y-101255000D01*
X154690000Y-99945000D02*
X154690000Y-101255000D01*
X154690000Y-96535000D02*
X154690000Y-97845000D01*
D10*
%TO.C,C1*%
X143878600Y-106413400D02*
X145402600Y-106413400D01*
D11*
X143878600Y-105270400D02*
X143878600Y-104508400D01*
X145402600Y-105270400D02*
X145402600Y-104508400D01*
D10*
X145402600Y-103365400D02*
X143878600Y-103365400D01*
D11*
%TO.C,D3*%
X156461000Y-82403000D02*
X156461000Y-86703000D01*
X154461000Y-82403000D02*
X156461000Y-82403000D01*
X154461000Y-86703000D02*
X154461000Y-82403000D01*
%TO.C,U1*%
X149430000Y-107675000D02*
X148030000Y-107675000D01*
X148030000Y-105355000D02*
X149930000Y-105355000D01*
D10*
%TO.C,C9*%
X152032000Y-91973500D02*
X150508000Y-91973500D01*
D11*
X152032000Y-93116500D02*
X152032000Y-93878500D01*
X150508000Y-93116500D02*
X150508000Y-93878500D01*
D10*
X150508000Y-95021500D02*
X152032000Y-95021500D01*
%TO.C,C4*%
X159080500Y-105372000D02*
X159080500Y-106896000D01*
D11*
X160223500Y-105372000D02*
X160985500Y-105372000D01*
X160223500Y-106896000D02*
X160985500Y-106896000D01*
D10*
X162128500Y-106896000D02*
X162128500Y-105372000D01*
D11*
%TO.C,L2*%
X158293996Y-103945063D02*
X157728845Y-103379912D01*
X159085955Y-103153104D02*
X158520804Y-102587953D01*
D10*
%TO.C,C2*%
X152667000Y-105308500D02*
X151143000Y-105308500D01*
D11*
X152667000Y-106451500D02*
X152667000Y-107213500D01*
X151143000Y-106451500D02*
X151143000Y-107213500D01*
D10*
X151143000Y-108356500D02*
X152667000Y-108356500D01*
%TO.C,C6*%
X160292992Y-90647329D02*
X161816992Y-90647329D01*
D11*
X160292992Y-89504329D02*
X160292992Y-88742329D01*
X161816992Y-89504329D02*
X161816992Y-88742329D01*
D10*
X161816992Y-87599329D02*
X160292992Y-87599329D01*
%TO.C,L4*%
X163933639Y-84353500D02*
X162409639Y-84353500D01*
D11*
X163933639Y-85496500D02*
X163933639Y-86258500D01*
X162409639Y-85496500D02*
X162409639Y-86258500D01*
D10*
X162409639Y-87401500D02*
X163933639Y-87401500D01*
D11*
%TO.C,L1*%
X154887878Y-105320000D02*
X155687122Y-105320000D01*
X154887878Y-106440000D02*
X155687122Y-106440000D01*
D10*
%TO.C,R4*%
X157112000Y-73558500D02*
X155588000Y-73558500D01*
D11*
X157112000Y-74701500D02*
X157112000Y-75463500D01*
X155588000Y-74701500D02*
X155588000Y-75463500D01*
D10*
X155588000Y-76606500D02*
X157112000Y-76606500D01*
%TO.C,C8*%
X148278215Y-97819046D02*
X149355846Y-96741415D01*
D11*
X147469992Y-97010823D02*
X146931177Y-96472008D01*
X148547623Y-95933192D02*
X148008808Y-95394377D01*
D10*
X147200585Y-94586154D02*
X146122954Y-95663785D01*
D12*
%TO.C,FL1*%
X151265000Y-99535000D02*
X147465000Y-99535000D01*
X147465000Y-103335000D02*
X151265000Y-103335000D01*
D13*
X151769000Y-99359000D02*
G75*
G03*
X151769000Y-99359000I-120000J0D01*
G01*
D11*
%TO.C,U2*%
X160860000Y-93705000D02*
X159460000Y-93705000D01*
X159460000Y-91385000D02*
X161360000Y-91385000D01*
D10*
%TO.C,C3*%
X159080500Y-107404000D02*
X159080500Y-108928000D01*
D11*
X160223500Y-107404000D02*
X160985500Y-107404000D01*
X160223500Y-108928000D02*
X160985500Y-108928000D01*
D10*
X162128500Y-108928000D02*
X162128500Y-107404000D01*
%TO.C,R2*%
X158128000Y-76606500D02*
X159652000Y-76606500D01*
D11*
X158128000Y-75463500D02*
X158128000Y-74701500D01*
X159652000Y-75463500D02*
X159652000Y-74701500D01*
D10*
X159652000Y-73558500D02*
X158128000Y-73558500D01*
%TO.C,R6*%
X159080500Y-109563000D02*
X159080500Y-111087000D01*
D11*
X160223500Y-109563000D02*
X160985500Y-109563000D01*
X160223500Y-111087000D02*
X160985500Y-111087000D01*
D10*
X162128500Y-111087000D02*
X162128500Y-109563000D01*
%TO.C,L6*%
X152603500Y-91783000D02*
X152603500Y-93307000D01*
D11*
X153746500Y-91783000D02*
X154508500Y-91783000D01*
X153746500Y-93307000D02*
X154508500Y-93307000D01*
D10*
X155651500Y-93307000D02*
X155651500Y-91783000D01*
%TO.C,C7*%
X161828905Y-94500117D02*
X160304905Y-94500117D01*
D11*
X161828905Y-95643117D02*
X161828905Y-96405117D01*
X160304905Y-95643117D02*
X160304905Y-96405117D01*
D10*
X160304905Y-97548117D02*
X161828905Y-97548117D01*
%TO.C,C5*%
X152794000Y-102006500D02*
X152794000Y-103530500D01*
D11*
X153937000Y-102006500D02*
X154699000Y-102006500D01*
X153937000Y-103530500D02*
X154699000Y-103530500D01*
D10*
X155842000Y-103530500D02*
X155842000Y-102006500D01*
D11*
%TO.C,D2*%
X159871299Y-82386885D02*
X159871299Y-86686885D01*
X157871299Y-82386885D02*
X159871299Y-82386885D01*
X157871299Y-86686885D02*
X157871299Y-82386885D01*
%TO.C,L3*%
X152207322Y-97423000D02*
X151408078Y-97423000D01*
X152207322Y-96303000D02*
X151408078Y-96303000D01*
D10*
%TO.C,R1*%
X148102299Y-108851800D02*
X148102299Y-110375800D01*
D11*
X149245299Y-108851800D02*
X150007299Y-108851800D01*
X149245299Y-110375800D02*
X150007299Y-110375800D01*
D10*
X151150299Y-110375800D02*
X151150299Y-108851800D01*
%TD*%
M02*
